<?xml version="1.0" encoding="UTF-8" ?>
<!DOCTYPE svg PUBLIC "-//W3C//DTD SVG 1.1//EN" "http://www.w3.org/Graphics/SVG/1.1/DTD/svg11.dtd">
<svg width="430pt" height="270pt" viewBox="0 0 430 270" version="1.1" xmlns="http://www.w3.org/2000/svg">
<path fill="#676666" opacity="1.00" d=" M 85.72 27.80 C 89.23 23.72 92.48 18.58 98.08 17.28 C 103.86 15.81 109.80 21.21 109.55 27.03 C 109.86 30.44 108.10 33.48 106.10 36.07 C 88.90 59.42 70.38 81.76 52.40 104.51 C 47.58 110.66 42.43 116.58 38.03 123.06 C 36.81 124.73 36.37 126.77 36.01 128.77 C 48.96 129.83 62.00 128.98 74.99 129.26 C 77.48 128.96 81.37 129.64 82.37 126.62 C 83.36 120.16 82.28 113.57 82.91 107.07 C 83.69 101.44 89.38 97.31 94.94 97.76 C 100.33 97.97 105.25 102.51 105.63 107.94 C 106.12 113.99 105.28 120.10 106.04 126.14 C 106.11 127.70 107.47 128.90 109.00 128.96 C 115.51 129.79 122.11 128.74 128.62 129.47 C 134.54 130.48 138.75 137.14 136.83 142.90 C 135.65 146.77 132.04 149.77 128.00 150.12 C 121.55 150.65 115.03 149.73 108.60 150.55 C 106.00 150.87 105.80 153.94 105.76 155.99 C 105.64 167.97 105.91 179.95 105.67 191.93 C 105.38 198.52 98.41 203.74 92.00 202.23 C 87.08 201.45 82.95 196.98 82.79 191.96 C 82.60 178.99 82.94 166.00 82.66 153.03 C 83.00 150.42 79.87 150.44 78.10 150.34 C 60.04 149.97 41.97 150.67 23.92 149.89 C 19.33 149.75 14.44 148.21 11.56 144.44 C 7.90 139.50 7.78 132.64 10.10 127.10 C 13.55 118.81 19.20 111.70 24.69 104.69 C 45.15 79.15 65.18 53.27 85.72 27.80 Z" />
<path fill="#676666" opacity="1.00" d=" M 374.83 21.80 C 378.12 18.00 383.95 15.40 388.61 18.33 C 394.45 21.63 395.04 30.19 390.83 35.04 C 369.77 63.72 346.82 90.94 324.93 118.98 C 322.69 121.89 320.38 124.96 319.97 128.74 C 332.94 129.86 346.01 128.96 359.02 129.26 C 361.51 128.97 365.42 129.62 366.38 126.58 C 367.35 120.12 366.28 113.53 366.91 107.04 C 367.71 101.40 373.43 97.28 379.01 97.77 C 384.38 98.01 389.25 102.54 389.63 107.94 C 390.11 113.95 389.30 120.00 390.01 126.00 C 390.03 127.61 391.42 128.91 393.01 128.97 C 399.50 129.78 406.09 128.75 412.59 129.47 C 418.53 130.46 422.77 137.16 420.81 142.94 C 419.62 146.80 416.01 149.79 411.97 150.12 C 405.52 150.66 398.99 149.72 392.57 150.55 C 389.98 150.91 389.80 153.97 389.76 156.01 C 389.64 167.99 389.91 179.97 389.66 191.95 C 389.37 198.51 382.44 203.71 376.06 202.25 C 371.13 201.48 366.97 197.03 366.80 192.00 C 366.60 179.02 366.93 166.03 366.66 153.06 C 367.04 150.45 363.89 150.44 362.11 150.34 C 346.75 150.06 331.38 150.43 316.01 150.17 C 310.22 149.79 303.85 150.63 298.72 147.30 C 292.58 143.44 291.29 134.87 293.62 128.43 C 296.43 120.66 301.53 114.00 306.49 107.49 C 323.49 86.15 340.36 64.70 357.30 43.32 C 363.05 36.07 368.70 28.73 374.83 21.80 Z" />
<path fill="#676666" opacity="1.00" d=" M 205.58 18.81 C 236.88 13.14 269.30 37.87 273.67 69.05 C 274.84 81.33 274.42 93.68 274.50 106.00 C 274.35 121.30 274.87 136.62 274.08 151.91 C 273.81 161.01 269.87 169.51 265.22 177.16 C 261.65 183.09 256.73 188.03 251.38 192.35 C 246.37 196.40 241.25 200.86 234.86 202.45 C 230.63 203.36 224.96 202.30 223.01 197.97 C 222.35 194.09 222.37 189.37 225.56 186.55 C 229.22 183.16 233.83 180.96 237.27 177.30 C 244.39 169.91 250.73 160.66 250.98 150.05 C 251.99 132.39 251.29 114.70 251.50 97.02 C 251.49 88.30 251.66 79.54 250.70 70.86 C 249.08 56.82 239.08 44.06 225.77 39.28 C 217.55 36.25 208.04 37.02 200.41 41.33 C 191.84 46.09 186.05 54.63 182.74 63.68 C 180.15 70.12 179.79 77.12 179.37 83.97 C 178.74 99.62 179.08 115.28 179.01 130.94 C 179.42 140.29 178.78 149.98 182.13 158.91 C 185.65 168.45 193.04 175.94 201.09 181.88 C 203.83 184.10 207.17 185.94 208.92 189.12 C 210.18 193.09 209.45 198.24 206.02 200.94 C 202.89 203.16 198.81 202.57 195.42 201.35 C 176.28 194.44 161.23 177.06 157.17 157.13 C 155.69 145.15 156.18 133.02 156.00 120.97 C 156.08 110.64 155.80 100.31 156.22 89.99 C 156.29 81.83 156.13 73.58 157.72 65.53 C 162.84 42.52 182.37 23.26 205.58 18.81 Z" />
</svg>
