<?xml version="1.0" encoding="utf-8"?>
<!-- Generator: Adobe Illustrator 26.0.1, SVG Export Plug-In . SVG Version: 6.00 Build 0)  -->
<svg version="1.1" id="Слой_1" xmlns="http://www.w3.org/2000/svg" xmlns:xlink="http://www.w3.org/1999/xlink" x="0px" y="0px"
	 viewBox="0 0 3840 1080" style="enable-background:new 0 0 3840 1080;" xml:space="preserve">
<style type="text/css">
	.st0{fill:#676666;}
</style>
<path class="st0" d="M1168.22,65.6c20.41-23.73,39.31-53.62,71.88-61.18c33.61-8.55,68.16,22.85,66.7,56.7
	c1.8,19.83-8.43,37.51-20.06,52.57c-100.02,135.79-207.72,265.7-312.28,398c-28.03,35.76-57.98,70.19-83.57,107.87
	c-7.09,9.71-9.65,21.57-11.75,33.21c75.31,6.16,151.14,1.22,226.68,2.85c14.48-1.74,37.1,2.21,42.92-15.35
	c5.76-37.57-0.52-75.89,3.14-113.69c4.54-32.74,37.63-56.76,69.96-54.14c31.34,1.22,59.96,27.62,62.17,59.2
	c2.85,35.18-2.04,70.71,2.38,105.84c0.41,9.07,8.32,16.05,17.21,16.4c37.86,4.83,76.24-1.28,114.1,2.97
	c34.43,5.87,58.91,44.6,47.74,78.1c-6.86,22.51-27.86,39.95-51.35,41.99c-37.51,3.08-75.43-2.27-112.82,2.5
	c-15.12,1.86-16.28,19.71-16.52,31.64c-0.7,69.67,0.87,139.34-0.52,209c-1.69,38.32-42.22,68.68-79.5,59.9
	c-28.61-4.54-52.63-30.53-53.56-59.72c-1.1-75.43,0.87-150.97-0.76-226.39c1.98-15.18-16.22-15.06-26.52-15.64
	c-105.03-2.15-210.11,1.92-315.08-2.62c-26.69-0.81-55.13-9.77-71.88-31.69c-21.28-28.73-21.98-68.62-8.49-100.84
	c20.06-48.21,52.92-89.56,84.85-130.32C932.29,364.22,1048.77,213.72,1168.22,65.6z"/>
<path class="st0" d="M2849.5,30.71c19.13-22.1,53.04-37.22,80.14-20.18c33.96,19.19,37.39,68.97,12.91,97.17
	c-122.47,166.78-255.93,325.08-383.23,488.14c-13.03,16.92-26.46,34.78-28.84,56.76c75.43,6.51,151.43,1.28,227.09,3.02
	c14.48-1.69,37.22,2.09,42.8-15.59c5.64-37.57-0.58-75.89,3.08-113.63c4.65-32.8,37.92-56.76,70.37-53.91
	c31.23,1.4,59.55,27.74,61.76,59.14c2.79,34.95-1.92,70.13,2.21,105.03c0.12,9.36,8.2,16.92,17.45,17.27
	c37.74,4.71,76.06-1.28,113.86,2.91c34.54,5.76,59.2,44.72,47.8,78.33c-6.92,22.45-27.91,39.84-51.41,41.75
	c-37.51,3.14-75.48-2.33-112.82,2.5c-15.06,2.09-16.11,19.89-16.34,31.75c-0.7,69.67,0.87,139.34-0.58,209
	c-1.69,38.15-41.99,68.39-79.09,59.9c-28.67-4.48-52.86-30.36-53.85-59.61c-1.16-75.48,0.76-151.02-0.81-226.45
	c2.21-15.18-16.11-15.24-26.46-15.82c-89.32-1.63-178.71,0.52-268.09-0.99c-33.67-2.21-70.71,2.68-100.55-16.69
	c-35.71-22.45-43.21-72.28-29.66-109.74c16.34-45.19,46-83.92,74.84-121.77c98.86-124.1,196.97-248.84,295.48-373.17
	C2780.99,113.69,2813.85,71.01,2849.5,30.71z"/>
<path class="st0" d="M1865.25,13.32c182.02-32.97,370.55,110.84,395.97,292.16c6.8,71.41,4.36,143.23,4.83,214.88
	c-0.87,88.97,2.15,178.07-2.44,266.98c-1.57,52.92-24.48,102.35-51.52,146.84c-20.76,34.48-49.37,63.21-80.48,88.34
	c-29.14,23.55-58.91,49.49-96.07,58.74c-24.6,5.29-57.57-0.87-68.91-26.05c-3.84-22.56-3.72-50.01,14.83-66.41
	c21.28-19.71,48.09-32.51,68.1-53.79c41.41-42.98,78.27-96.77,79.73-158.47c5.87-102.7,1.8-205.57,3.02-308.39
	c-0.06-50.71,0.93-101.65-4.65-152.13c-9.42-81.65-67.57-155.85-144.98-183.65c-47.8-17.62-103.11-13.14-147.48,11.92
	c-49.84,27.68-83.51,77.34-102.76,129.97c-15.06,37.45-17.16,78.16-19.6,117.99c-3.66,91.01-1.69,182.08-2.09,273.15
	c2.38,54.37-1.34,110.72,18.14,162.66c20.47,55.48,63.45,99.04,110.26,133.58c15.93,12.91,35.36,23.61,45.53,42.1
	c7.33,23.09,3.08,53.04-16.86,68.74c-18.2,12.91-41.93,9.48-61.64,2.38c-111.31-40.18-198.83-141.25-222.44-257.15
	c-8.61-69.67-5.76-140.21-6.8-210.28c0.47-60.07-1.16-120.15,1.28-180.16c0.41-47.45-0.52-95.43,8.72-142.24
	C1616.7,151.2,1730.28,39.2,1865.25,13.32z"/>
</svg>
