<?xml version="1.0" encoding="UTF-8" ?>
<!DOCTYPE svg PUBLIC "-//W3C//DTD SVG 1.1//EN" "http://www.w3.org/Graphics/SVG/1.1/DTD/svg11.dtd">
<svg width="209pt" height="67pt" viewBox="0 0 209 67" version="1.1" xmlns="http://www.w3.org/2000/svg">
<g id="#181a1bff">
</g>
<g id="#2c3c4dff">
<path fill="#2c3c4d" opacity="1.00" d=" M 0.00 1.62 C 4.27 1.55 8.54 1.55 12.80 1.73 C 12.92 7.56 12.72 13.40 12.90 19.23 C 20.86 18.78 29.17 16.27 36.94 19.04 C 42.42 20.92 45.01 26.72 45.64 32.10 C 46.36 39.20 46.70 46.83 43.44 53.40 C 40.92 59.07 35.02 62.57 28.99 63.21 C 19.23 64.07 8.80 63.91 0.00 59.05 L 0.00 1.62 M 12.89 28.05 C 12.93 36.58 12.48 45.14 13.13 53.65 C 18.22 54.88 23.89 55.08 28.73 52.89 C 33.68 50.27 33.52 43.90 33.52 39.07 C 33.32 35.38 33.87 29.94 29.44 28.54 C 24.03 27.39 18.39 28.21 12.89 28.05 Z" />
<path fill="#2c3c4d" opacity="1.00" d=" M 141.03 1.67 C 145.05 1.54 149.08 1.54 153.11 1.68 C 153.24 5.44 153.25 9.20 153.13 12.96 C 149.10 13.09 145.07 13.08 141.04 12.99 C 140.91 9.22 140.91 5.44 141.03 1.67 Z" />
<path fill="#2c3c4d" opacity="1.00" d=" M 55.00 20.71 C 64.22 19.12 73.56 17.69 82.95 17.94 C 83.04 21.28 83.05 24.62 82.97 27.97 C 77.72 28.09 72.47 27.88 67.23 28.09 C 67.20 39.37 67.33 50.66 67.18 61.95 C 63.13 62.04 59.08 62.04 55.03 61.97 C 54.96 48.21 55.01 34.46 55.00 20.71 Z" />
<path fill="#2c3c4d" opacity="1.00" d=" M 92.83 19.92 C 101.11 18.36 109.57 17.50 118.00 18.00 C 122.27 18.20 126.51 20.65 128.31 24.61 C 130.21 28.81 130.00 33.53 130.02 38.03 C 129.92 45.31 130.13 52.59 129.91 59.86 C 119.97 63.05 109.41 64.08 99.02 63.36 C 95.16 63.07 91.13 61.38 89.03 57.99 C 86.70 54.13 86.64 49.38 87.23 45.04 C 87.89 41.03 91.26 38.01 95.09 37.03 C 102.57 34.95 110.40 35.99 118.04 36.22 C 118.02 33.43 118.64 28.97 114.94 28.25 C 107.59 27.61 100.18 28.25 92.81 27.96 C 92.72 25.28 92.72 22.60 92.83 19.92 M 100.35 45.37 C 98.15 48.04 98.83 53.90 102.90 54.29 C 107.93 54.84 112.99 53.88 117.95 53.09 C 118.05 50.14 118.05 47.19 117.92 44.24 C 112.10 44.59 105.92 43.26 100.35 45.37 Z" />
<path fill="#2c3c4d" opacity="1.00" d=" M 164.37 20.59 C 175.75 18.71 187.39 17.00 198.92 18.32 C 204.60 19.12 207.87 24.41 209.00 29.58 L 209.00 61.99 C 204.94 62.04 200.88 62.03 196.83 61.94 C 196.46 52.00 197.23 42.02 196.44 32.11 C 196.40 29.79 194.24 28.21 192.06 28.17 C 186.87 27.74 181.66 28.00 176.47 28.13 C 176.41 39.41 176.64 50.69 176.39 61.96 C 172.35 62.08 168.30 62.06 164.27 61.90 C 164.32 48.13 164.12 34.36 164.37 20.59 Z" />
<path fill="#2c3c4d" opacity="1.00" d=" M 141.03 19.03 C 145.02 18.95 149.01 18.95 153.00 19.05 C 153.05 33.35 153.08 47.64 152.98 61.94 C 149.00 62.02 145.02 62.01 141.03 61.95 C 140.95 47.64 140.96 33.34 141.03 19.03 Z" />
</g>
</svg>
