<?xml version="1.0" encoding="UTF-8" ?>
<!DOCTYPE svg PUBLIC "-//W3C//DTD SVG 1.1//EN" "http://www.w3.org/Graphics/SVG/1.1/DTD/svg11.dtd">
<svg width="256pt" height="256pt" viewBox="0 0 256 256" version="1.1" xmlns="http://www.w3.org/2000/svg">
<path fill="#a5a0c0" opacity="1.00" d=" M 94.39 11.46 C 118.97 4.41 145.75 5.38 169.74 14.23 C 187.93 20.91 204.43 32.06 217.47 46.38 L 217.42 46.50 C 217.27 46.92 216.98 47.75 216.83 48.17 C 197.50 26.43 169.98 12.18 141.03 9.14 C 113.80 6.01 85.57 12.67 62.64 27.69 C 42.58 40.68 26.54 59.80 17.44 81.91 C 14.26 89.28 12.13 97.06 10.52 104.91 C 10.27 106.03 10.03 107.14 9.81 108.26 C 9.51 107.84 8.93 106.99 8.63 106.56 C 11.09 90.02 17.94 74.22 27.20 60.34 C 42.93 36.83 67.17 19.17 94.39 11.46 Z" />
<path fill="#ffffff" opacity="1.00" d=" M 62.64 27.69 C 85.57 12.67 113.80 6.01 141.03 9.14 C 169.98 12.18 197.50 26.43 216.83 48.17 C 217.13 48.51 217.74 49.21 218.05 49.56 C 217.47 50.71 216.90 51.86 216.33 53.01 C 219.30 57.78 222.80 62.19 225.73 66.98 C 229.86 73.29 233.05 80.16 235.80 87.17 C 236.55 88.88 236.45 90.78 236.49 92.61 C 233.48 88.94 229.76 85.94 225.79 83.38 C 216.86 78.04 206.41 75.45 196.04 75.34 C 184.33 75.31 173.81 81.13 163.99 86.87 C 163.87 84.87 163.68 82.88 163.45 80.89 C 158.48 82.31 155.84 87.47 155.71 92.37 C 155.70 92.70 155.69 93.36 155.68 93.69 C 147.90 98.75 140.22 104.05 131.66 107.76 C 126.85 110.12 121.66 111.55 116.70 113.55 C 122.87 118.70 128.96 123.96 135.50 128.64 C 145.97 136.28 158.03 141.91 170.92 143.81 C 172.54 143.98 174.18 144.11 175.81 143.94 C 180.58 143.18 185.40 143.46 190.20 143.79 C 191.30 143.81 192.40 143.77 193.49 143.67 C 197.88 143.25 202.03 141.52 206.43 141.18 C 201.74 144.60 195.53 144.06 190.21 145.89 C 191.00 146.31 191.80 146.74 192.60 147.16 C 193.43 149.16 195.41 151.56 193.73 153.69 C 189.27 159.59 179.53 159.49 174.49 154.45 C 172.46 152.60 174.53 150.05 175.09 148.01 C 175.31 147.47 175.74 146.41 175.96 145.88 C 175.08 145.58 174.20 145.30 173.31 145.05 C 161.91 143.76 150.88 139.68 141.22 133.52 C 135.05 129.74 129.44 125.16 123.77 120.70 C 116.15 113.27 107.18 107.47 98.67 101.16 C 93.17 96.98 87.10 93.67 81.18 90.14 C 84.67 88.26 87.37 85.31 89.71 82.17 C 85.44 80.24 80.53 79.15 75.89 80.20 C 73.13 80.74 71.31 83.02 69.58 85.02 C 68.06 84.66 66.55 84.29 65.07 83.82 C 65.11 83.27 65.19 82.16 65.23 81.60 C 66.25 76.28 66.52 70.25 63.36 65.56 C 61.53 63.01 59.21 60.50 56.02 59.79 C 54.59 64.98 53.74 70.41 54.43 75.78 C 54.77 77.88 55.28 79.96 55.98 81.97 C 53.59 82.32 51.20 82.66 48.83 83.14 C 47.50 83.41 46.17 83.70 44.86 84.03 C 44.41 84.17 43.51 84.44 43.06 84.58 C 42.72 84.78 42.03 85.16 41.69 85.36 C 41.21 87.91 40.85 90.49 40.25 93.02 C 39.05 93.69 37.85 94.36 36.65 95.03 C 35.10 92.90 35.31 90.26 35.35 87.76 C 35.02 87.85 34.37 88.04 34.04 88.13 C 33.63 88.25 32.80 88.48 32.39 88.60 C 31.02 89.12 29.67 89.69 28.39 90.39 C 27.00 91.26 25.64 92.18 24.32 93.15 C 22.04 94.78 19.80 96.54 18.16 98.83 C 17.37 97.47 16.80 95.93 17.49 94.40 C 18.94 89.83 20.53 85.27 20.90 80.45 C 19.75 80.94 18.59 81.42 17.44 81.91 C 26.54 59.80 42.58 40.68 62.64 27.69 M 162.48 17.05 C 166.38 19.21 170.62 20.85 175.03 21.62 C 171.16 19.43 166.92 17.61 162.48 17.05 M 177.16 35.01 C 181.95 35.13 186.70 32.74 189.70 29.03 C 187.15 27.58 184.69 25.96 182.01 24.76 C 177.66 25.73 177.31 31.33 177.16 35.01 M 103.35 31.37 C 100.60 33.78 99.46 37.38 98.25 40.70 C 102.18 39.71 106.34 39.04 109.83 36.87 C 112.31 35.36 113.15 32.41 114.31 29.94 C 110.79 28.20 106.26 28.69 103.35 31.37 M 195.00 32.87 C 197.21 35.94 199.83 39.86 204.01 40.01 C 201.38 37.21 198.27 34.87 195.00 32.87 M 189.67 41.27 C 187.91 44.45 187.87 48.24 188.65 51.72 C 189.63 53.74 191.27 55.31 192.96 56.75 C 193.71 57.04 194.44 57.61 195.30 57.43 C 196.05 51.77 195.65 43.95 189.67 41.27 Z" />
<path fill="#5dadef" opacity="1.00" d=" M 162.48 17.05 C 166.92 17.61 171.16 19.43 175.03 21.62 C 170.62 20.85 166.38 19.21 162.48 17.05 Z" />
<path fill="#21abf6" opacity="1.00" d=" M 177.16 35.01 C 177.31 31.33 177.66 25.73 182.01 24.76 C 184.69 25.96 187.15 27.58 189.70 29.03 C 186.70 32.74 181.95 35.13 177.16 35.01 Z" />
<path fill="#a0d8fc" opacity="1.00" d=" M 103.35 31.37 C 106.26 28.69 110.79 28.20 114.31 29.94 C 113.15 32.41 112.31 35.36 109.83 36.87 C 106.34 39.04 102.18 39.71 98.25 40.70 C 99.46 37.38 100.60 33.78 103.35 31.37 Z" />
<path fill="#1286e7" opacity="1.00" d=" M 195.00 32.87 C 198.27 34.87 201.38 37.21 204.01 40.01 C 199.83 39.86 197.21 35.94 195.00 32.87 Z" />
<path fill="#1286e7" opacity="1.00" d=" M 189.67 41.27 C 195.65 43.95 196.05 51.77 195.30 57.43 C 194.44 57.61 193.71 57.04 192.96 56.75 C 195.44 52.21 194.02 46.21 190.20 42.86 C 189.53 45.79 189.02 48.75 188.65 51.72 C 187.87 48.24 187.91 44.45 189.67 41.27 Z" />
<path fill="#22a9fe" opacity="1.00" d=" M 190.20 42.86 C 194.02 46.21 195.44 52.21 192.96 56.75 C 191.27 55.31 189.63 53.74 188.65 51.72 C 189.02 48.75 189.53 45.79 190.20 42.86 Z" />
<path fill="#949fbc" opacity="1.00" d=" M 216.83 48.17 C 216.98 47.75 217.27 46.92 217.42 46.50 C 235.28 65.63 246.30 90.94 248.50 116.99 C 249.26 124.64 249.52 132.46 248.26 140.06 C 247.89 138.63 247.46 137.22 247.11 135.79 C 247.81 123.62 246.92 111.33 243.89 99.50 C 241.02 87.30 236.04 75.59 229.44 64.94 C 226.01 59.55 222.37 54.27 218.05 49.56 C 217.74 49.21 217.13 48.51 216.83 48.17 Z" />
<path fill="#daf1ff" opacity="1.00" d=" M 218.05 49.56 C 222.37 54.27 226.01 59.55 229.44 64.94 C 228.20 65.62 226.96 66.30 225.73 66.98 C 222.80 62.19 219.30 57.78 216.33 53.01 C 216.90 51.86 217.47 50.71 218.05 49.56 Z" />
<path fill="#21b3fe" opacity="1.00" d=" M 56.02 59.79 C 59.21 60.50 61.53 63.01 63.36 65.56 C 66.52 70.25 66.25 76.28 65.23 81.60 C 64.98 81.91 64.48 82.52 64.23 82.83 C 62.14 82.79 59.96 82.99 57.95 82.29 C 56.25 80.48 55.49 77.99 54.43 75.78 C 53.74 70.41 54.59 64.98 56.02 59.79 Z" />
<path fill="#c5eaff" opacity="1.00" d=" M 229.44 64.94 C 236.04 75.59 241.02 87.30 243.89 99.50 C 243.43 101.55 242.98 103.60 242.74 105.68 L 242.60 106.52 C 241.58 104.48 240.46 102.51 239.34 100.53 C 238.37 97.90 237.41 95.26 236.49 92.61 C 236.45 90.78 236.55 88.88 235.80 87.17 C 233.05 80.16 229.86 73.29 225.73 66.98 C 226.96 66.30 228.20 65.62 229.44 64.94 Z" />
<path fill="#0f7fe3" opacity="1.00" d=" M 54.43 75.78 C 55.49 77.99 56.25 80.48 57.95 82.29 C 59.96 82.99 62.14 82.79 64.23 82.83 C 64.51 85.22 62.59 86.66 60.97 88.01 C 59.64 86.87 58.30 85.73 57.04 84.51 C 56.66 83.67 56.31 82.83 55.98 81.97 C 55.28 79.96 54.77 77.88 54.43 75.78 Z" />
<path fill="#addafe" opacity="1.00" d=" M 163.99 86.87 C 173.81 81.13 184.33 75.31 196.04 75.34 C 195.48 76.50 194.92 77.67 194.36 78.84 C 201.28 80.45 208.47 81.60 214.72 85.21 C 220.18 87.97 223.62 93.27 226.74 98.32 C 228.66 101.71 230.76 105.61 229.77 109.63 C 228.90 114.16 226.58 118.27 223.45 121.63 C 222.07 121.42 220.70 121.21 219.32 121.00 C 221.54 118.49 222.25 115.13 222.21 111.87 C 222.59 113.56 222.99 115.25 223.39 116.94 C 225.02 113.60 227.63 109.84 225.99 106.00 C 223.39 99.76 219.14 94.32 214.67 89.30 C 208.02 82.27 197.49 81.76 188.47 82.64 C 180.78 83.90 172.71 86.32 167.28 92.24 C 163.42 96.40 158.94 101.66 160.80 107.78 C 161.09 109.56 161.38 111.34 161.65 113.13 C 159.02 110.28 157.89 106.56 157.38 102.79 C 160.13 97.96 163.66 93.64 166.65 88.97 C 165.72 88.38 164.80 87.79 163.89 87.20 L 163.99 86.87 Z" />
<path fill="#7ec4f9" opacity="1.00" d=" M 196.04 75.34 C 206.41 75.45 216.86 78.04 225.79 83.38 C 225.34 83.84 224.45 84.75 224.00 85.21 C 227.41 89.71 231.66 93.86 233.37 99.39 C 234.04 102.90 233.45 106.48 233.66 110.02 C 233.52 112.63 235.61 114.49 236.95 116.48 C 233.68 122.36 228.54 126.84 223.60 131.26 L 223.13 131.18 C 220.09 130.43 216.89 130.83 214.17 132.37 C 212.48 133.35 210.78 134.39 208.78 134.54 L 207.84 134.09 C 213.41 130.42 219.39 127.08 223.45 121.63 C 226.58 118.27 228.90 114.16 229.77 109.63 C 230.76 105.61 228.66 101.71 226.74 98.32 C 223.62 93.27 220.18 87.97 214.72 85.21 C 208.47 81.60 201.28 80.45 194.36 78.84 C 194.92 77.67 195.48 76.50 196.04 75.34 Z" />
<path fill="#defafe" opacity="1.00" d=" M 20.90 80.45 C 20.53 85.27 18.94 89.83 17.49 94.40 C 16.80 95.93 17.37 97.47 18.16 98.83 C 16.45 101.77 14.46 104.55 13.08 107.67 C 12.23 106.75 11.37 105.83 10.52 104.91 C 12.13 97.06 14.26 89.28 17.44 81.91 C 18.59 81.42 19.75 80.94 20.90 80.45 Z" />
<path fill="#21a7f6" opacity="1.00" d=" M 69.58 85.02 C 71.31 83.02 73.13 80.74 75.89 80.20 C 80.53 79.15 85.44 80.24 89.71 82.17 C 87.37 85.31 84.67 88.26 81.18 90.14 C 81.07 90.20 80.85 90.31 80.74 90.36 C 77.15 88.31 73.29 86.81 69.58 85.02 Z" />
<path fill="#23a4ff" opacity="1.00" d=" M 155.71 92.37 C 155.84 87.47 158.48 82.31 163.45 80.89 C 163.68 82.88 163.87 84.87 163.99 86.87 L 163.89 87.20 C 163.80 87.49 163.61 88.07 163.52 88.36 C 160.83 89.52 158.28 90.95 155.71 92.37 Z" />
<path fill="#5dc7fe" opacity="1.00" d=" M 48.83 83.14 C 51.20 82.66 53.59 82.32 55.98 81.97 C 56.31 82.83 56.66 83.67 57.04 84.51 C 56.35 85.97 55.66 87.44 54.97 88.90 C 53.82 88.11 52.62 87.40 51.39 86.75 C 50.16 86.28 48.92 85.84 47.68 85.42 C 48.05 84.65 48.43 83.89 48.83 83.14 Z" />
<path fill="#93cef3" opacity="1.00" d=" M 64.23 82.83 C 64.48 82.52 64.98 81.91 65.23 81.60 C 65.19 82.16 65.11 83.27 65.07 83.82 C 66.55 84.29 68.06 84.66 69.58 85.02 C 68.47 86.52 67.59 88.18 67.06 89.98 C 71.46 91.22 76.38 92.53 80.74 90.36 C 80.85 90.31 81.07 90.20 81.18 90.14 C 87.10 93.67 93.17 96.98 98.67 101.16 C 98.59 103.90 101.09 105.45 102.88 107.08 C 105.76 109.38 108.59 111.77 110.90 114.67 C 110.64 115.55 110.38 116.43 110.11 117.31 C 104.96 111.96 98.79 107.71 93.44 102.56 C 85.66 95.06 74.30 92.05 63.73 93.76 C 64.47 94.58 65.23 95.39 66.01 96.18 C 64.61 95.93 63.21 95.71 61.81 95.51 C 60.76 95.49 59.93 96.11 59.14 96.73 C 57.64 96.88 56.14 97.01 54.64 97.11 C 54.31 96.89 53.66 96.46 53.33 96.24 C 54.40 95.34 55.47 94.45 56.55 93.56 C 56.17 93.34 55.42 92.90 55.04 92.68 C 55.60 92.42 56.70 91.89 57.25 91.62 C 56.48 90.72 55.77 89.77 54.97 88.90 C 55.66 87.44 56.35 85.97 57.04 84.51 C 58.30 85.73 59.64 86.87 60.97 88.01 C 62.59 86.66 64.51 85.22 64.23 82.83 Z" />
<path fill="#e5f7ff" opacity="1.00" d=" M 188.47 82.64 C 197.49 81.76 208.02 82.27 214.67 89.30 C 219.14 94.32 223.39 99.76 225.99 106.00 C 227.63 109.84 225.02 113.60 223.39 116.94 C 222.99 115.25 222.59 113.56 222.21 111.87 C 221.72 109.61 221.13 107.38 220.57 105.15 C 220.09 105.18 219.12 105.23 218.64 105.25 C 214.93 97.82 210.75 89.93 203.15 85.82 C 195.08 82.07 185.87 84.22 177.87 87.02 C 171.26 89.34 165.43 94.58 164.40 101.79 C 165.34 102.35 166.28 102.95 167.28 103.42 C 170.81 102.44 174.18 100.43 178.00 100.97 C 184.34 101.66 190.68 102.10 197.06 102.18 C 202.33 103.12 209.71 102.41 211.92 108.59 C 213.64 107.61 215.38 106.68 217.19 105.87 C 210.97 110.16 210.46 118.56 212.40 125.23 C 211.58 126.55 210.74 127.85 209.87 129.13 C 207.64 125.72 209.07 121.19 206.58 117.87 C 204.87 113.13 201.13 108.54 195.57 108.94 C 196.27 115.96 199.34 123.10 205.03 127.49 C 206.03 128.32 207.03 129.13 208.03 129.96 C 206.06 130.23 204.07 130.45 202.08 130.31 C 198.84 129.14 195.28 129.16 192.08 130.42 C 183.54 128.22 175.86 123.52 169.41 117.59 C 165.82 114.97 163.97 110.80 160.80 107.78 C 158.94 101.66 163.42 96.40 167.28 92.24 C 172.71 86.32 180.78 83.90 188.47 82.64 Z" />
<path fill="#14eafd" opacity="1.00" d=" M 44.86 84.03 C 46.17 83.70 47.50 83.41 48.83 83.14 C 48.43 83.89 48.05 84.65 47.68 85.42 C 46.79 88.52 46.43 91.75 46.37 94.97 C 46.75 95.07 47.51 95.28 47.89 95.39 C 47.53 95.47 46.81 95.64 46.45 95.73 C 45.11 95.65 43.79 95.50 42.46 95.36 C 43.68 91.69 44.43 87.88 44.86 84.03 Z" />
<path fill="#f1fcff" opacity="1.00" d=" M 177.87 87.02 C 185.87 84.22 195.08 82.07 203.15 85.82 C 210.75 89.93 214.93 97.82 218.64 105.25 C 218.27 105.41 217.55 105.71 217.19 105.87 C 215.38 106.68 213.64 107.61 211.92 108.59 C 209.71 102.41 202.33 103.12 197.06 102.18 C 190.68 102.10 184.34 101.66 178.00 100.97 C 174.18 100.43 170.81 102.44 167.28 103.42 C 166.28 102.95 165.34 102.35 164.40 101.79 C 165.43 94.58 171.26 89.34 177.87 87.02 Z" />
<path fill="#8bfbff" opacity="1.00" d=" M 43.06 84.58 C 43.51 84.44 44.41 84.17 44.86 84.03 C 44.43 87.88 43.68 91.69 42.46 95.36 C 43.79 95.50 45.11 95.65 46.45 95.73 C 46.95 97.63 47.45 99.54 47.94 101.45 L 47.53 101.83 C 45.18 104.88 44.30 108.70 43.28 112.33 C 43.16 110.85 42.94 109.39 42.61 107.94 C 42.34 106.67 40.65 106.36 40.42 105.10 C 40.09 98.14 42.78 91.49 43.06 84.58 Z" />
<path fill="#5dadef" opacity="1.00" d=" M 224.00 85.21 C 224.45 84.75 225.34 83.84 225.79 83.38 C 229.76 85.94 233.48 88.94 236.49 92.61 C 237.41 95.26 238.37 97.90 239.34 100.53 C 239.95 105.92 239.70 111.66 236.95 116.48 C 235.61 114.49 233.52 112.63 233.66 110.02 C 233.45 106.48 234.04 102.90 233.37 99.39 C 231.66 93.86 227.41 89.71 224.00 85.21 Z" />
<path fill="#bbf9ff" opacity="1.00" d=" M 41.69 85.36 C 42.03 85.16 42.72 84.78 43.06 84.58 C 42.78 91.49 40.09 98.14 40.42 105.10 C 40.65 106.36 42.34 106.67 42.61 107.94 C 42.94 109.39 43.16 110.85 43.28 112.33 C 42.91 113.75 42.55 115.17 42.19 116.59 C 44.27 116.71 46.36 116.48 48.35 115.80 C 48.84 115.60 49.82 115.21 50.32 115.02 C 49.46 118.07 48.23 121.00 46.59 123.71 C 44.08 127.46 45.33 132.18 45.61 136.37 C 46.35 142.43 52.20 146.44 58.07 146.35 C 57.54 146.81 56.49 147.74 55.96 148.20 C 59.58 148.84 63.38 147.94 66.86 149.31 C 71.15 150.86 75.60 151.93 79.89 153.45 C 78.59 153.79 77.28 154.13 75.98 154.48 C 81.52 158.12 88.57 157.70 94.68 159.89 C 93.03 160.55 91.39 161.22 89.70 161.80 C 82.85 160.47 75.91 159.64 69.13 157.98 C 66.11 157.36 62.98 158.05 59.96 157.37 C 54.55 156.30 50.07 152.81 44.93 151.00 C 43.74 150.47 42.50 151.20 41.33 151.38 C 41.42 150.94 41.60 150.07 41.69 149.63 C 43.22 145.09 41.89 140.34 39.65 136.30 C 39.00 135.99 38.35 135.69 37.70 135.38 C 36.49 129.12 32.83 123.53 32.51 117.08 C 32.07 108.98 32.41 100.86 31.80 92.77 C 31.99 91.38 32.18 89.99 32.39 88.60 C 32.80 88.48 33.63 88.25 34.04 88.13 C 33.69 94.99 32.65 102.48 35.98 108.80 C 38.39 103.84 38.85 98.28 40.25 93.02 C 40.85 90.49 41.21 87.91 41.69 85.36 Z" />
<path fill="#1286e7" opacity="1.00" d=" M 69.58 85.02 C 73.29 86.81 77.15 88.31 80.74 90.36 C 76.38 92.53 71.46 91.22 67.06 89.98 C 67.59 88.18 68.47 86.52 69.58 85.02 Z" />
<path fill="#0fbefe" opacity="1.00" d=" M 46.37 94.97 C 46.43 91.75 46.79 88.52 47.68 85.42 C 48.92 85.84 50.16 86.28 51.39 86.75 C 51.72 89.37 51.42 92.01 50.72 94.55 C 49.79 94.86 48.85 95.14 47.89 95.39 C 47.51 95.28 46.75 95.07 46.37 94.97 Z" />
<path fill="#1d9df5" opacity="1.00" d=" M 51.39 86.75 C 52.62 87.40 53.82 88.11 54.97 88.90 C 55.77 89.77 56.48 90.72 57.25 91.62 C 56.70 91.89 55.60 92.42 55.04 92.68 C 53.62 93.34 52.18 93.96 50.72 94.55 C 51.42 92.01 51.72 89.37 51.39 86.75 Z" />
<path fill="#77d0ff" opacity="1.00" d=" M 163.89 87.20 C 164.80 87.79 165.72 88.38 166.65 88.97 C 163.66 93.64 160.13 97.96 157.38 102.79 C 154.38 107.71 158.68 112.38 160.83 116.62 C 160.07 120.83 163.63 124.09 164.41 128.05 C 160.10 130.40 154.96 132.48 150.02 130.89 C 144.96 129.37 140.15 127.12 135.04 125.73 C 132.14 123.36 129.65 120.45 128.01 117.06 C 131.59 115.28 135.57 114.62 139.32 113.28 C 146.92 110.63 153.10 104.93 157.65 98.42 C 160.22 95.46 162.75 92.32 163.52 88.36 C 163.61 88.07 163.80 87.49 163.89 87.20 Z" />
<path fill="#e6ffff" opacity="1.00" d=" M 34.04 88.13 C 34.37 88.04 35.02 87.85 35.35 87.76 C 35.31 90.26 35.10 92.90 36.65 95.03 C 37.85 94.36 39.05 93.69 40.25 93.02 C 38.85 98.28 38.39 103.84 35.98 108.80 C 32.65 102.48 33.69 94.99 34.04 88.13 Z" />
<path fill="#158cff" opacity="1.00" d=" M 155.71 92.37 C 158.28 90.95 160.83 89.52 163.52 88.36 C 162.75 92.32 160.22 95.46 157.65 98.42 C 156.95 96.86 156.27 95.29 155.68 93.69 C 155.69 93.36 155.70 92.70 155.71 92.37 Z" />
<path fill="#65f7ff" opacity="1.00" d=" M 28.39 90.39 C 29.67 89.69 31.02 89.12 32.39 88.60 C 32.18 89.99 31.99 91.38 31.80 92.77 C 29.84 100.56 32.41 109.07 28.53 116.43 C 28.22 114.46 27.84 112.50 27.54 110.53 C 27.27 103.79 28.53 97.12 28.39 90.39 Z" />
<path fill="#61ccff" opacity="1.00" d=" M 24.32 93.15 C 25.64 92.18 27.00 91.26 28.39 90.39 C 28.53 97.12 27.27 103.79 27.54 110.53 C 23.88 122.61 23.57 135.79 28.03 147.71 C 28.81 147.26 29.59 146.81 30.38 146.36 C 29.89 148.21 29.46 150.07 29.17 151.97 C 28.49 152.57 27.81 153.18 27.13 153.79 C 26.14 153.16 25.14 152.56 24.17 151.90 C 23.22 150.07 22.33 148.21 21.52 146.31 C 21.30 138.88 20.39 131.46 20.91 124.02 C 21.39 117.34 22.50 110.69 22.32 103.97 C 22.05 100.23 23.89 96.81 24.32 93.15 Z" />
<path fill="#88f9ff" opacity="1.00" d=" M 28.53 116.43 C 32.41 109.07 29.84 100.56 31.80 92.77 C 32.41 100.86 32.07 108.98 32.51 117.08 C 32.83 123.53 36.49 129.12 37.70 135.38 C 38.35 135.69 39.00 135.99 39.65 136.30 C 37.79 137.08 36.01 138.06 34.53 139.46 C 33.31 140.88 32.19 142.38 31.09 143.89 C 27.30 135.27 28.29 125.58 28.53 116.43 Z" />
<path fill="#93e2fe" opacity="1.00" d=" M 50.72 94.55 C 52.18 93.96 53.62 93.34 55.04 92.68 C 55.42 92.90 56.17 93.34 56.55 93.56 C 55.47 94.45 54.40 95.34 53.33 96.24 C 53.66 96.46 54.31 96.89 54.64 97.11 L 54.99 97.36 C 52.43 98.31 49.99 99.62 47.94 101.45 C 47.45 99.54 46.95 97.63 46.45 95.73 C 46.81 95.64 47.53 95.47 47.89 95.39 C 48.85 95.14 49.79 94.86 50.72 94.55 Z" />
<path fill="#58b5f2" opacity="1.00" d=" M 18.16 98.83 C 19.80 96.54 22.04 94.78 24.32 93.15 C 23.89 96.81 22.05 100.23 22.32 103.97 C 22.50 110.69 21.39 117.34 20.91 124.02 C 20.39 131.46 21.30 138.88 21.52 146.31 C 19.71 144.17 17.34 142.59 15.54 140.45 C 14.51 138.40 14.06 136.14 13.40 133.96 L 12.86 134.67 C 12.54 135.08 11.89 135.89 11.57 136.29 C 10.84 131.20 10.64 126.03 11.36 120.92 C 11.80 116.49 11.96 112.00 13.08 107.67 C 14.46 104.55 16.45 101.77 18.16 98.83 Z" />
<path fill="#d0edfb" opacity="1.00" d=" M 63.73 93.76 C 74.30 92.05 85.66 95.06 93.44 102.56 C 98.79 107.71 104.96 111.96 110.11 117.31 C 110.70 118.27 111.25 119.27 111.84 120.24 C 110.42 119.53 108.97 118.87 107.55 118.14 C 102.43 112.22 95.47 108.44 89.62 103.35 C 87.91 101.99 86.21 100.43 83.99 100.01 C 79.64 99.16 74.97 97.64 70.72 99.74 C 69.32 98.34 67.69 97.21 66.01 96.18 C 65.23 95.39 64.47 94.58 63.73 93.76 Z" />
<path fill="#69bcff" opacity="1.00" d=" M 131.66 107.76 C 140.22 104.05 147.90 98.75 155.68 93.69 C 156.27 95.29 156.95 96.86 157.65 98.42 C 153.10 104.93 146.92 110.63 139.32 113.28 C 135.57 114.62 131.59 115.28 128.01 117.06 C 129.65 120.45 132.14 123.36 135.04 125.73 C 135.16 126.46 135.39 127.91 135.50 128.64 C 128.96 123.96 122.87 118.70 116.70 113.55 C 121.66 111.55 126.85 110.12 131.66 107.76 Z" />
<path fill="#dcf4ff" opacity="1.00" d=" M 59.14 96.73 C 59.93 96.11 60.76 95.49 61.81 95.51 C 61.51 99.62 61.79 103.94 64.14 107.47 C 62.78 107.53 60.82 106.48 59.88 107.87 C 54.94 115.22 50.77 124.68 54.81 133.41 C 61.04 131.56 67.12 135.12 73.01 136.71 C 78.83 138.03 84.73 139.12 90.69 139.45 C 90.83 138.75 91.11 137.36 91.25 136.66 C 95.88 142.96 100.01 150.71 107.96 153.27 C 112.72 153.67 117.53 153.71 122.30 153.43 C 119.98 148.39 116.86 143.69 112.77 139.92 C 114.87 140.83 116.89 141.86 118.90 142.94 C 120.00 142.08 121.07 141.18 122.15 140.31 C 123.31 140.43 124.47 140.53 125.63 140.65 C 125.70 138.41 125.18 136.16 123.31 134.72 C 117.66 129.57 112.71 123.76 107.55 118.14 C 108.97 118.87 110.42 119.53 111.84 120.24 C 116.71 123.98 120.36 129.05 125.33 132.66 C 135.86 141.37 148.66 147.20 162.01 149.92 C 166.40 150.74 171.63 151.57 175.09 148.01 C 174.53 150.05 172.46 152.60 174.49 154.45 C 179.53 159.49 189.27 159.59 193.73 153.69 C 195.41 151.56 193.43 149.16 192.60 147.16 C 196.77 146.65 200.67 145.01 204.78 144.27 C 207.45 146.75 207.11 151.95 210.46 153.72 C 213.00 151.50 214.88 148.41 215.29 145.03 C 215.49 142.40 214.18 140.03 213.12 137.73 C 214.05 137.14 214.97 136.53 215.90 135.94 L 216.18 135.77 C 217.90 139.16 220.47 142.09 223.68 144.15 C 224.44 144.88 225.84 145.44 225.50 146.76 C 224.31 155.36 220.85 163.72 215.34 170.46 C 212.73 172.85 209.63 174.66 206.62 176.50 C 203.96 178.26 200.09 177.81 198.06 175.30 C 192.85 170.09 184.99 173.95 178.69 172.26 C 174.72 170.87 174.41 165.92 171.63 163.30 C 168.13 161.21 163.89 161.28 159.99 160.61 C 151.73 159.09 143.31 158.93 134.99 157.94 C 123.26 158.01 111.56 156.56 100.02 154.55 C 96.19 153.33 92.22 152.78 88.22 152.44 C 82.08 150.90 75.76 150.12 69.70 148.22 C 65.93 147.07 62.00 146.58 58.07 146.35 C 52.20 146.44 46.35 142.43 45.61 136.37 C 45.33 132.18 44.08 127.46 46.59 123.71 C 48.23 121.00 49.46 118.07 50.32 115.02 C 53.42 113.42 56.24 111.01 57.48 107.67 C 59.04 104.25 59.45 100.45 59.14 96.73 M 179.01 170.00 C 182.04 171.78 185.64 170.24 187.78 167.81 C 186.99 164.85 184.20 162.74 181.09 163.22 C 177.38 162.62 175.56 168.54 179.01 170.00 Z" />
<path fill="#1fa4f4" opacity="1.00" d=" M 61.81 95.51 C 63.21 95.71 64.61 95.93 66.01 96.18 C 67.69 97.21 69.32 98.34 70.72 99.74 C 73.11 104.17 73.64 109.27 73.71 114.22 C 70.18 112.52 66.21 111.06 64.14 107.47 C 61.79 103.94 61.51 99.62 61.81 95.51 Z" />
<path fill="#3fa0e0" opacity="1.00" d=" M 54.64 97.11 C 56.14 97.01 57.64 96.88 59.14 96.73 C 59.45 100.45 59.04 104.25 57.48 107.67 C 57.42 104.75 57.31 101.84 57.31 98.93 C 56.73 98.54 55.57 97.75 54.99 97.36 L 54.64 97.11 Z" />
<path fill="#1bafff" opacity="1.00" d=" M 47.94 101.45 C 49.99 99.62 52.43 98.31 54.99 97.36 C 55.57 97.75 56.73 98.54 57.31 98.93 C 57.31 101.84 57.42 104.75 57.48 107.67 C 56.24 111.01 53.42 113.42 50.32 115.02 C 49.82 115.21 48.84 115.60 48.35 115.80 C 51.21 112.41 51.39 107.72 50.28 103.61 C 49.93 102.43 48.42 102.39 47.53 101.83 L 47.94 101.45 Z" />
<path fill="#f0f9ff" opacity="1.00" d=" M 70.72 99.74 C 74.97 97.64 79.64 99.16 83.99 100.01 C 86.21 100.43 87.91 101.99 89.62 103.35 C 95.47 108.44 102.43 112.22 107.55 118.14 C 112.71 123.76 117.66 129.57 123.31 134.72 C 125.18 136.16 125.70 138.41 125.63 140.65 C 124.47 140.53 123.31 140.43 122.15 140.31 C 121.07 141.18 120.00 142.08 118.90 142.94 C 116.89 141.86 114.87 140.83 112.77 139.92 C 106.63 136.15 99.33 133.83 92.08 134.96 C 91.88 135.39 91.46 136.23 91.25 136.66 C 91.11 137.36 90.83 138.75 90.69 139.45 C 84.73 139.12 78.83 138.03 73.01 136.71 C 67.12 135.12 61.04 131.56 54.81 133.41 C 50.77 124.68 54.94 115.22 59.88 107.87 C 60.82 106.48 62.78 107.53 64.14 107.47 C 66.21 111.06 70.18 112.52 73.71 114.22 C 73.64 109.27 73.11 104.17 70.72 99.74 Z" />
<path fill="#d8f6ff" opacity="1.00" d=" M 242.74 105.68 C 242.98 103.60 243.43 101.55 243.89 99.50 C 246.92 111.33 247.81 123.62 247.11 135.79 C 246.85 142.77 245.55 149.65 243.94 156.44 C 243.65 153.48 243.12 150.56 242.85 147.60 C 244.86 134.73 244.77 121.60 243.07 108.70 C 242.99 107.94 242.82 106.44 242.74 105.68 Z" />
<path fill="#e9ffff" opacity="1.00" d=" M 239.34 100.53 C 240.46 102.51 241.58 104.48 242.60 106.52 C 242.11 108.64 241.47 110.73 240.71 112.77 C 239.84 114.86 238.82 116.88 237.67 118.83 C 236.52 120.66 235.28 122.42 233.92 124.09 C 231.51 126.72 228.93 129.18 226.50 131.78 C 225.53 131.61 224.56 131.43 223.60 131.26 C 228.54 126.84 233.68 122.36 236.95 116.48 C 239.70 111.66 239.95 105.92 239.34 100.53 Z" />
<path fill="#1ad0ff" opacity="1.00" d=" M 43.28 112.33 C 44.30 108.70 45.18 104.88 47.53 101.83 C 48.42 102.39 49.93 102.43 50.28 103.61 C 51.39 107.72 51.21 112.41 48.35 115.80 C 46.36 116.48 44.27 116.71 42.19 116.59 C 42.55 115.17 42.91 113.75 43.28 112.33 Z" />
<path fill="#70bffa" opacity="1.00" d=" M 102.88 107.08 C 101.09 105.45 98.59 103.90 98.67 101.16 C 107.18 107.47 116.15 113.27 123.77 120.70 C 121.93 120.32 120.16 119.70 118.55 118.74 C 117.95 118.94 116.76 119.34 116.17 119.54 C 114.31 118.03 112.43 116.52 110.90 114.67 C 108.59 111.77 105.76 109.38 102.88 107.08 Z" />
<path fill="#acedff" opacity="1.00" d=" M 160.83 116.62 C 158.68 112.38 154.38 107.71 157.38 102.79 C 157.89 106.56 159.02 110.28 161.65 113.13 C 161.38 111.34 161.09 109.56 160.80 107.78 C 163.97 110.80 165.82 114.97 169.41 117.59 C 175.86 123.52 183.54 128.22 192.08 130.42 C 190.73 130.92 189.41 131.49 188.10 132.06 C 183.70 133.74 179.68 130.96 175.95 129.00 C 170.07 126.00 165.73 120.90 160.83 116.62 Z" />
<path fill="#baf4ff" opacity="1.00" d=" M 9.81 108.26 C 10.03 107.14 10.27 106.03 10.52 104.91 C 11.37 105.83 12.23 106.75 13.08 107.67 C 11.96 112.00 11.80 116.49 11.36 120.92 C 10.38 122.42 9.32 123.87 8.33 125.37 C 8.60 119.65 8.97 113.93 9.81 108.26 Z" />
<path fill="#43cdff" opacity="1.00" d=" M 218.64 105.25 C 219.12 105.23 220.09 105.18 220.57 105.15 C 221.13 107.38 221.72 109.61 222.21 111.87 C 222.25 115.13 221.54 118.49 219.32 121.00 C 217.49 123.01 215.55 124.92 213.68 126.90 C 213.24 126.35 212.82 125.79 212.40 125.23 C 210.46 118.56 210.97 110.16 217.19 105.87 C 217.55 105.71 218.27 105.41 218.64 105.25 Z" />
<path fill="#6ab1d7" opacity="1.00" d=" M 242.60 106.52 L 242.74 105.68 C 242.82 106.44 242.99 107.94 243.07 108.70 C 242.99 111.08 242.77 113.47 242.57 115.85 C 241.95 114.82 241.32 113.79 240.71 112.77 C 241.47 110.73 242.11 108.64 242.60 106.52 Z" />
<path fill="#7daac5" opacity="1.00" d=" M 26.52 194.46 C 9.35 169.04 2.87 136.65 8.63 106.56 C 8.93 106.99 9.51 107.84 9.81 108.26 C 8.97 113.93 8.60 119.65 8.33 125.37 C 8.18 133.87 8.83 142.43 10.45 150.79 C 12.48 161.20 15.70 171.42 20.46 180.91 C 22.49 184.91 24.68 188.82 27.00 192.65 C 26.88 193.11 26.64 194.01 26.52 194.46 Z" />
<path fill="#1ed0ff" opacity="1.00" d=" M 195.57 108.94 C 201.13 108.54 204.87 113.13 206.58 117.87 C 207.17 121.08 207.59 124.34 207.54 127.61 C 206.91 127.58 205.66 127.52 205.03 127.49 C 199.34 123.10 196.27 115.96 195.57 108.94 Z" />
<path fill="#4ebef2" opacity="1.00" d=" M 243.07 108.70 C 244.77 121.60 244.86 134.73 242.85 147.60 C 242.08 151.13 241.36 154.67 240.44 158.17 C 240.22 157.60 239.80 156.46 239.59 155.89 C 238.47 157.98 237.29 160.06 236.50 162.30 C 234.86 163.40 233.21 164.50 231.66 165.74 C 232.31 163.63 232.80 161.48 233.21 159.31 C 234.89 154.82 237.61 150.78 239.21 146.25 C 241.33 137.20 240.58 127.64 237.67 118.83 C 238.82 116.88 239.84 114.86 240.71 112.77 C 241.32 113.79 241.95 114.82 242.57 115.85 C 242.77 113.47 242.99 111.08 243.07 108.70 Z" />
<path fill="#76dfff" opacity="1.00" d=" M 28.03 147.71 C 23.57 135.79 23.88 122.61 27.54 110.53 C 27.84 112.50 28.22 114.46 28.53 116.43 C 28.29 125.58 27.30 135.27 31.09 143.89 C 30.91 144.50 30.55 145.74 30.38 146.36 C 29.59 146.81 28.81 147.26 28.03 147.71 Z" />
<path fill="#acefff" opacity="1.00" d=" M 110.11 117.31 C 110.38 116.43 110.64 115.55 110.90 114.67 C 112.43 116.52 114.31 118.03 116.17 119.54 C 122.89 125.35 129.86 130.90 137.36 135.68 C 146.66 142.50 157.63 147.29 169.13 148.64 C 170.95 149.04 172.53 148.15 173.89 147.05 C 173.75 146.55 173.46 145.55 173.31 145.05 C 174.20 145.30 175.08 145.58 175.96 145.88 C 175.74 146.41 175.31 147.47 175.09 148.01 C 171.63 151.57 166.40 150.74 162.01 149.92 C 148.66 147.20 135.86 141.37 125.33 132.66 C 120.36 129.05 116.71 123.98 111.84 120.24 C 111.25 119.27 110.70 118.27 110.11 117.31 Z" />
<path fill="#7ee2ff" opacity="1.00" d=" M 160.83 116.62 C 165.73 120.90 170.07 126.00 175.95 129.00 C 179.68 130.96 183.70 133.74 188.10 132.06 C 187.16 132.66 186.24 133.28 185.33 133.93 C 189.81 138.61 197.63 138.52 202.38 134.28 C 204.20 134.38 206.03 134.40 207.84 134.09 C 206.84 136.13 206.04 138.27 205.42 140.45 C 207.99 139.81 210.44 138.76 212.67 137.31 C 211.40 136.35 210.13 135.39 208.78 134.54 C 210.78 134.39 212.48 133.35 214.17 132.37 C 214.74 133.56 215.32 134.75 215.90 135.94 C 214.97 136.53 214.05 137.14 213.12 137.73 C 214.18 140.03 215.49 142.40 215.29 145.03 C 214.88 148.41 213.00 151.50 210.46 153.72 C 207.11 151.95 207.45 146.75 204.78 144.27 C 200.67 145.01 196.77 146.65 192.60 147.16 C 191.80 146.74 191.00 146.31 190.21 145.89 C 195.53 144.06 201.74 144.60 206.43 141.18 C 202.03 141.52 197.88 143.25 193.49 143.67 C 189.55 138.83 182.77 137.36 176.95 139.21 C 171.47 137.15 169.28 131.06 164.41 128.05 C 163.63 124.09 160.07 120.83 160.83 116.62 Z" />
<path fill="#70d2ff" opacity="1.00" d=" M 116.17 119.54 C 116.76 119.34 117.95 118.94 118.55 118.74 C 120.16 119.70 121.93 120.32 123.77 120.70 C 129.44 125.16 135.05 129.74 141.22 133.52 C 139.93 134.24 138.65 134.96 137.36 135.68 C 129.86 130.90 122.89 125.35 116.17 119.54 Z" />
<path fill="#a7efff" opacity="1.00" d=" M 206.58 117.87 C 209.07 121.19 207.64 125.72 209.87 129.13 C 210.74 127.85 211.58 126.55 212.40 125.23 C 212.82 125.79 213.24 126.35 213.68 126.90 C 215.55 124.92 217.49 123.01 219.32 121.00 C 220.70 121.21 222.07 121.42 223.45 121.63 C 219.39 127.08 213.41 130.42 207.84 134.09 C 206.03 134.40 204.20 134.38 202.38 134.28 C 202.68 133.72 203.29 132.58 203.60 132.01 C 203.22 131.59 202.46 130.74 202.08 130.31 C 204.07 130.45 206.06 130.23 208.03 129.96 C 207.03 129.13 206.03 128.32 205.03 127.49 C 205.66 127.52 206.91 127.58 207.54 127.61 C 207.59 124.34 207.17 121.08 206.58 117.87 Z" />
<path fill="#6cd0f7" opacity="1.00" d=" M 233.92 124.09 C 235.28 122.42 236.52 120.66 237.67 118.83 C 240.58 127.64 241.33 137.20 239.21 146.25 C 237.61 150.78 234.89 154.82 233.21 159.31 C 232.85 153.93 234.34 148.67 234.43 143.30 C 234.67 137.52 237.03 131.40 234.70 125.80 C 234.51 125.38 234.12 124.52 233.92 124.09 Z" />
<path fill="#98f5ff" opacity="1.00" d=" M 8.33 125.37 C 9.32 123.87 10.38 122.42 11.36 120.92 C 10.64 126.03 10.84 131.20 11.57 136.29 C 11.73 141.19 12.33 146.06 13.26 150.86 C 12.33 150.83 11.39 150.81 10.45 150.79 C 8.83 142.43 8.18 133.87 8.33 125.37 Z" />
<path fill="#a4e4ff" opacity="1.00" d=" M 226.50 131.78 C 228.93 129.18 231.51 126.72 233.92 124.09 C 234.12 124.52 234.51 125.38 234.70 125.80 C 234.81 129.89 233.59 133.87 233.54 137.95 C 233.95 155.70 226.10 173.19 213.40 185.44 C 211.62 187.23 209.20 188.08 206.88 188.91 C 206.08 187.04 205.04 185.29 203.92 183.60 C 203.29 184.49 202.67 185.39 202.09 186.30 C 199.76 186.91 197.26 188.31 194.87 187.18 C 191.51 185.70 188.75 183.20 185.53 181.48 C 178.81 177.45 170.92 176.49 163.56 174.21 L 163.17 173.45 C 162.25 171.62 161.44 169.75 160.59 167.90 C 165.15 169.61 170.09 170.22 174.39 172.62 C 178.82 175.13 184.23 174.67 188.65 177.17 C 191.76 178.71 194.52 180.90 197.72 182.26 C 201.29 183.51 204.99 181.97 208.16 180.36 C 215.47 177.34 220.07 170.38 223.61 163.64 C 226.63 157.83 227.34 151.24 229.22 145.05 C 228.43 144.76 227.64 144.47 226.85 144.20 C 228.22 144.08 229.59 143.95 230.96 143.81 C 231.12 139.33 228.97 135.35 226.50 131.78 Z" />
<path fill="#64daff" opacity="1.00" d=" M 135.04 125.73 C 140.15 127.12 144.96 129.37 150.02 130.89 C 154.96 132.48 160.10 130.40 164.41 128.05 C 169.28 131.06 171.47 137.15 176.95 139.21 C 175.29 141.15 173.27 142.76 170.92 143.81 C 158.03 141.91 145.97 136.28 135.50 128.64 C 135.39 127.91 135.16 126.46 135.04 125.73 Z" />
<path fill="#64e3ff" opacity="1.00" d=" M 233.54 137.95 C 233.59 133.87 234.81 129.89 234.70 125.80 C 237.03 131.40 234.67 137.52 234.43 143.30 C 234.34 148.67 232.85 153.93 233.21 159.31 C 232.80 161.48 232.31 163.63 231.66 165.74 C 228.96 172.87 224.02 178.91 221.70 186.17 C 219.52 189.07 217.50 192.46 213.89 193.74 C 209.73 193.77 207.27 197.27 206.00 200.82 C 206.55 201.28 207.67 202.22 208.22 202.69 C 207.09 203.23 205.98 203.83 204.88 204.43 L 204.55 205.74 C 204.13 207.23 203.67 208.70 203.10 210.14 C 202.82 210.25 202.28 210.47 202.01 210.58 C 202.24 208.63 202.30 206.66 202.30 204.70 C 199.14 203.95 196.75 206.28 195.47 208.88 C 192.63 212.90 188.81 216.04 184.73 218.73 C 177.66 224.92 168.85 228.70 160.01 231.61 C 163.84 227.21 170.47 227.12 174.41 222.73 C 168.38 221.55 162.91 225.08 157.19 226.30 C 145.06 228.62 132.64 228.95 120.34 228.19 L 119.60 226.63 C 133.81 227.69 148.28 226.23 161.85 221.79 C 171.78 218.30 181.90 213.46 188.20 204.65 C 190.57 205.64 193.21 206.43 195.79 205.82 C 198.31 205.08 200.18 203.13 201.72 201.11 C 200.48 200.04 199.25 198.97 197.95 197.99 C 198.46 197.91 199.49 197.75 200.00 197.67 C 201.36 198.79 202.61 200.05 203.86 201.30 C 206.75 197.83 207.43 193.28 206.88 188.91 C 209.20 188.08 211.62 187.23 213.40 185.44 C 226.10 173.19 233.95 155.70 233.54 137.95 Z" />
<path fill="#1fd9ff" opacity="1.00" d=" M 192.08 130.42 C 195.28 129.16 198.84 129.14 202.08 130.31 C 202.46 130.74 203.22 131.59 203.60 132.01 C 203.29 132.58 202.68 133.72 202.38 134.28 C 197.63 138.52 189.81 138.61 185.33 133.93 C 186.24 133.28 187.16 132.66 188.10 132.06 C 189.41 131.49 190.73 130.92 192.08 130.42 Z" />
<path fill="#12bfff" opacity="1.00" d=" M 214.17 132.37 C 216.89 130.83 220.09 130.43 223.13 131.18 C 220.87 132.79 218.53 134.29 216.18 135.77 L 215.90 135.94 C 215.32 134.75 214.74 133.56 214.17 132.37 Z" />
<path fill="#6ed2ff" opacity="1.00" d=" M 223.13 131.18 L 223.60 131.26 C 224.56 131.43 225.53 131.61 226.50 131.78 C 228.97 135.35 231.12 139.33 230.96 143.81 C 229.59 143.95 228.22 144.08 226.85 144.20 C 226.05 144.19 224.47 144.16 223.68 144.15 C 220.47 142.09 217.90 139.16 216.18 135.77 C 218.53 134.29 220.87 132.79 223.13 131.18 Z" />
<path fill="#4dbffc" opacity="1.00" d=" M 13.40 133.96 C 14.06 136.14 14.51 138.40 15.54 140.45 C 17.34 142.59 19.71 144.17 21.52 146.31 C 22.33 148.21 23.22 150.07 24.17 151.90 C 24.28 153.63 24.28 155.37 24.35 157.10 C 20.53 155.68 16.90 153.48 14.97 149.74 C 14.15 144.74 13.24 139.74 12.86 134.67 L 13.40 133.96 Z" />
<path fill="#68e4ff" opacity="1.00" d=" M 137.36 135.68 C 138.65 134.96 139.93 134.24 141.22 133.52 C 150.88 139.68 161.91 143.76 173.31 145.05 C 173.46 145.55 173.75 146.55 173.89 147.05 C 172.53 148.15 170.95 149.04 169.13 148.64 C 157.63 147.29 146.66 142.50 137.36 135.68 Z" />
<path fill="#13c7fc" opacity="1.00" d=" M 207.84 134.09 L 208.78 134.54 C 210.13 135.39 211.40 136.35 212.67 137.31 C 210.44 138.76 207.99 139.81 205.42 140.45 C 206.04 138.27 206.84 136.13 207.84 134.09 Z" />
<path fill="#3fc6ed" opacity="1.00" d=" M 11.57 136.29 C 11.89 135.89 12.54 135.08 12.86 134.67 C 13.24 139.74 14.15 144.74 14.97 149.74 C 15.39 153.98 17.22 158.14 16.24 162.43 C 14.99 158.64 13.96 154.79 13.26 150.86 C 12.33 146.06 11.73 141.19 11.57 136.29 Z" />
<path fill="#74d0ff" opacity="1.00" d=" M 92.08 134.96 C 99.33 133.83 106.63 136.15 112.77 139.92 C 116.86 143.69 119.98 148.39 122.30 153.43 C 117.53 153.71 112.72 153.67 107.96 153.27 C 100.01 150.71 95.88 142.96 91.25 136.66 C 91.46 136.23 91.88 135.39 92.08 134.96 Z" />
<path fill="#6c98bb" opacity="1.00" d=" M 247.11 135.79 C 247.46 137.22 247.89 138.63 248.26 140.06 C 246.43 162.22 237.79 183.70 224.35 201.38 C 206.99 224.34 181.21 240.82 153.00 246.65 C 141.54 249.15 129.74 249.66 118.07 248.89 C 118.64 248.49 119.79 247.68 120.36 247.27 C 147.25 248.96 174.68 241.31 196.68 225.71 C 220.10 209.34 237.35 184.27 243.94 156.44 C 245.55 149.65 246.85 142.77 247.11 135.79 Z" />
<path fill="#14e6ff" opacity="1.00" d=" M 34.53 139.46 C 36.01 138.06 37.79 137.08 39.65 136.30 C 41.89 140.34 43.22 145.09 41.69 149.63 C 40.71 151.25 39.66 152.82 38.53 154.34 C 37.60 153.72 36.23 153.49 35.77 152.35 C 33.92 148.31 34.25 143.77 34.53 139.46 Z" />
<path fill="#72f4fe" opacity="1.00" d=" M 176.95 139.21 C 182.77 137.36 189.55 138.83 193.49 143.67 C 192.40 143.77 191.30 143.81 190.20 143.79 C 187.57 142.60 185.01 140.72 181.96 141.13 C 179.58 141.12 177.77 142.85 175.81 143.94 C 174.18 144.11 172.54 143.98 170.92 143.81 C 173.27 142.76 175.29 141.15 176.95 139.21 Z" />
<path fill="#10cbff" opacity="1.00" d=" M 31.09 143.89 C 32.19 142.38 33.31 140.88 34.53 139.46 C 34.25 143.77 33.92 148.31 35.77 152.35 C 36.23 153.49 37.60 153.72 38.53 154.34 C 38.19 154.70 37.50 155.42 37.16 155.77 C 36.09 156.54 34.98 157.27 33.87 158.00 C 30.91 153.75 32.41 148.53 31.09 143.89 Z" />
<path fill="#b4ffff" opacity="1.00" d=" M 175.81 143.94 C 177.77 142.85 179.58 141.12 181.96 141.13 C 185.01 140.72 187.57 142.60 190.20 143.79 C 185.40 143.46 180.58 143.18 175.81 143.94 Z" />
<path fill="#10adf4" opacity="1.00" d=" M 31.09 143.89 C 32.41 148.53 30.91 153.75 33.87 158.00 C 32.81 158.69 31.74 159.39 30.66 160.06 C 30.40 159.84 29.87 159.42 29.60 159.20 C 29.23 156.81 29.13 154.38 29.17 151.97 C 29.46 150.07 29.89 148.21 30.38 146.36 C 30.55 145.74 30.91 144.50 31.09 143.89 Z" />
<path fill="#c3eaff" opacity="1.00" d=" M 223.68 144.15 C 224.47 144.16 226.05 144.19 226.85 144.20 C 227.64 144.47 228.43 144.76 229.22 145.05 C 227.34 151.24 226.63 157.83 223.61 163.64 C 220.07 170.38 215.47 177.34 208.16 180.36 C 204.99 181.97 201.29 183.51 197.72 182.26 C 194.52 180.90 191.76 178.71 188.65 177.17 C 184.23 174.67 178.82 175.13 174.39 172.62 C 170.09 170.22 165.15 169.61 160.59 167.90 C 158.92 166.51 156.89 165.94 154.73 166.33 C 144.67 165.82 134.62 164.79 124.61 163.62 C 114.57 162.98 104.51 162.12 94.68 159.89 C 88.57 157.70 81.52 158.12 75.98 154.48 C 77.28 154.13 78.59 153.79 79.89 153.45 C 75.60 151.93 71.15 150.86 66.86 149.31 C 63.38 147.94 59.58 148.84 55.96 148.20 C 56.49 147.74 57.54 146.81 58.07 146.35 C 62.00 146.58 65.93 147.07 69.70 148.22 C 75.76 150.12 82.08 150.90 88.22 152.44 C 92.22 152.78 96.19 153.33 100.02 154.55 C 111.56 156.56 123.26 158.01 134.99 157.94 C 143.31 158.93 151.73 159.09 159.99 160.61 C 163.89 161.28 168.13 161.21 171.63 163.30 C 174.41 165.92 174.72 170.87 178.69 172.26 C 184.99 173.95 192.85 170.09 198.06 175.30 C 200.09 177.81 203.96 178.26 206.62 176.50 C 209.63 174.66 212.73 172.85 215.34 170.46 C 220.85 163.72 224.31 155.36 225.50 146.76 C 225.84 145.44 224.44 144.88 223.68 144.15 Z" />
<path fill="#a7ffff" opacity="1.00" d=" M 240.44 158.17 C 241.36 154.67 242.08 151.13 242.85 147.60 C 243.12 150.56 243.65 153.48 243.94 156.44 C 237.35 184.27 220.10 209.34 196.68 225.71 C 174.68 241.31 147.25 248.96 120.36 247.27 C 116.78 247.01 113.22 246.51 109.69 245.85 C 111.30 245.75 112.91 245.61 114.52 245.48 C 114.42 245.02 114.24 244.08 114.14 243.61 C 130.38 245.56 146.86 243.83 162.60 239.54 C 164.81 238.86 166.99 238.07 169.14 237.21 C 183.43 231.86 196.61 223.69 207.82 213.35 C 208.68 212.56 209.52 211.75 210.36 210.93 C 219.81 201.46 227.50 190.28 233.27 178.22 C 236.33 171.80 238.69 165.06 240.44 158.17 Z" />
<path fill="#afffff" opacity="1.00" d=" M 10.45 150.79 C 11.39 150.81 12.33 150.83 13.26 150.86 C 13.96 154.79 14.99 158.64 16.24 162.43 C 17.53 167.04 19.41 171.45 21.33 175.82 C 22.02 177.49 22.67 179.18 23.43 180.81 C 22.44 180.84 21.45 180.88 20.46 180.91 C 15.70 171.42 12.48 161.20 10.45 150.79 Z" />
<path fill="#36d5ff" opacity="1.00" d=" M 14.97 149.74 C 16.90 153.48 20.53 155.68 24.35 157.10 C 25.51 161.10 27.54 164.87 30.83 167.51 C 31.41 168.92 31.89 170.38 32.35 171.85 C 30.22 174.54 28.42 177.51 27.50 180.85 C 25.89 178.69 24.01 176.62 21.33 175.82 C 19.41 171.45 17.53 167.04 16.24 162.43 C 17.22 158.14 15.39 153.98 14.97 149.74 Z" />
<path fill="#88ffff" opacity="1.00" d=" M 38.53 154.34 C 39.66 152.82 40.71 151.25 41.69 149.63 C 41.60 150.07 41.42 150.94 41.33 151.38 C 40.63 155.46 43.26 159.21 45.86 162.07 C 50.88 164.16 56.32 165.14 61.14 167.77 C 64.97 169.91 69.33 168.48 73.34 167.89 C 76.55 168.29 78.74 171.33 81.92 171.95 C 84.78 172.59 87.72 172.87 90.57 173.63 C 94.22 174.61 97.88 175.54 101.57 176.36 C 100.52 177.28 99.46 178.19 98.41 179.12 C 95.57 179.19 92.91 180.29 90.40 181.55 C 87.81 181.38 84.92 181.03 82.68 182.67 C 79.76 186.25 78.61 191.06 79.57 195.58 C 80.83 201.50 80.12 207.55 80.46 213.54 C 82.31 214.99 84.10 216.53 85.91 218.05 C 85.46 218.16 84.55 218.39 84.10 218.50 C 91.71 224.39 101.02 227.31 110.26 229.45 C 112.34 230.17 116.48 230.64 115.31 233.84 C 112.51 232.66 109.44 230.74 106.30 231.58 C 106.63 232.28 107.30 233.66 107.64 234.36 C 103.95 236.21 99.93 234.25 96.12 233.92 C 88.20 233.05 80.69 230.29 73.12 227.95 C 69.97 226.96 66.92 225.22 63.51 225.49 C 61.13 224.08 58.83 222.54 56.65 220.83 C 56.69 220.33 56.77 219.34 56.81 218.85 C 64.05 223.30 72.52 224.57 80.65 226.48 C 84.76 227.31 89.05 228.48 93.19 227.17 C 87.67 223.38 81.88 219.62 78.08 213.97 C 74.81 209.55 77.30 203.67 75.20 198.84 C 73.10 193.69 71.17 188.39 68.10 183.72 C 64.83 178.54 60.07 174.58 55.82 170.25 C 52.79 167.68 49.94 163.86 45.51 164.29 C 42.83 169.25 40.38 174.38 36.78 178.75 C 34.40 181.57 32.97 185.34 33.97 189.02 C 34.56 194.39 38.98 198.46 39.27 203.87 C 35.44 199.13 31.31 194.58 28.28 189.26 C 29.54 189.36 30.79 189.46 32.05 189.56 C 31.45 187.75 30.85 185.94 30.04 184.21 C 31.02 177.23 37.72 173.30 39.61 166.73 C 41.44 162.91 38.97 159.06 37.16 155.77 C 37.50 155.42 38.19 154.70 38.53 154.34 Z" />
<path fill="#a1f5ff" opacity="1.00" d=" M 41.33 151.38 C 42.50 151.20 43.74 150.47 44.93 151.00 C 50.07 152.81 54.55 156.30 59.96 157.37 C 62.98 158.05 66.11 157.36 69.13 157.98 C 75.91 159.64 82.85 160.47 89.70 161.80 C 90.90 162.02 92.09 162.28 93.28 162.53 C 92.90 163.82 91.57 165.77 93.34 166.63 C 97.45 168.51 102.02 169.07 106.34 170.33 C 101.16 172.03 95.41 170.73 90.57 173.63 C 87.72 172.87 84.78 172.59 81.92 171.95 C 78.74 171.33 76.55 168.29 73.34 167.89 C 69.33 168.48 64.97 169.91 61.14 167.77 C 56.32 165.14 50.88 164.16 45.86 162.07 C 43.26 159.21 40.63 155.46 41.33 151.38 Z" />
<path fill="#4cd5ff" opacity="1.00" d=" M 24.17 151.90 C 25.14 152.56 26.14 153.16 27.13 153.79 C 27.81 153.18 28.49 152.57 29.17 151.97 C 29.13 154.38 29.23 156.81 29.60 159.20 C 29.87 159.42 30.40 159.84 30.66 160.06 C 32.65 162.26 31.68 165.05 30.83 167.51 C 27.54 164.87 25.51 161.10 24.35 157.10 C 24.28 155.37 24.28 153.63 24.17 151.90 Z" />
<path fill="#50f4ff" opacity="1.00" d=" M 33.87 158.00 C 34.98 157.27 36.09 156.54 37.16 155.77 C 38.97 159.06 41.44 162.91 39.61 166.73 C 37.72 173.30 31.02 177.23 30.04 184.21 C 29.23 183.06 28.37 181.95 27.50 180.85 C 28.42 177.51 30.22 174.54 32.35 171.85 C 31.89 170.38 31.41 168.92 30.83 167.51 C 31.68 165.05 32.65 162.26 30.66 160.06 C 31.74 159.39 32.81 158.69 33.87 158.00 Z" />
<path fill="#34c6eb" opacity="1.00" d=" M 236.50 162.30 C 237.29 160.06 238.47 157.98 239.59 155.89 C 239.80 156.46 240.22 157.60 240.44 158.17 C 238.69 165.06 236.33 171.80 233.27 178.22 C 233.21 176.77 233.12 175.31 233.02 173.86 C 234.96 170.30 236.47 166.41 236.50 162.30 Z" />
<path fill="#a8e3ff" opacity="1.00" d=" M 94.68 159.89 C 104.51 162.12 114.57 162.98 124.61 163.62 C 134.62 164.79 144.67 165.82 154.73 166.33 C 154.54 168.67 154.41 171.00 154.40 173.34 C 151.94 173.53 149.47 173.68 147.01 173.43 C 133.49 172.00 119.95 170.43 106.34 170.33 C 102.02 169.07 97.45 168.51 93.34 166.63 C 91.57 165.77 92.90 163.82 93.28 162.53 C 92.09 162.28 90.90 162.02 89.70 161.80 C 91.39 161.22 93.03 160.55 94.68 159.89 Z" />
<path fill="#fbffff" opacity="1.00" d=" M 179.01 170.00 C 175.56 168.54 177.38 162.62 181.09 163.22 C 184.20 162.74 186.99 164.85 187.78 167.81 C 185.64 170.24 182.04 171.78 179.01 170.00 Z" />
<path fill="#34d2f9" opacity="1.00" d=" M 231.66 165.74 C 233.21 164.50 234.86 163.40 236.50 162.30 C 236.47 166.41 234.96 170.30 233.02 173.86 C 228.51 177.29 225.57 182.15 221.70 186.17 C 224.02 178.91 228.96 172.87 231.66 165.74 Z" />
<path fill="#afffff" opacity="1.00" d=" M 45.51 164.29 C 49.94 163.86 52.79 167.68 55.82 170.25 C 60.07 174.58 64.83 178.54 68.10 183.72 C 71.17 188.39 73.10 193.69 75.20 198.84 C 77.30 203.67 74.81 209.55 78.08 213.97 C 81.88 219.62 87.67 223.38 93.19 227.17 C 89.05 228.48 84.76 227.31 80.65 226.48 C 72.52 224.57 64.05 223.30 56.81 218.85 C 56.77 219.34 56.69 220.33 56.65 220.83 C 50.30 215.81 44.04 210.46 39.27 203.87 C 38.98 198.46 34.56 194.39 33.97 189.02 C 32.97 185.34 34.40 181.57 36.78 178.75 C 40.38 174.38 42.83 169.25 45.51 164.29 M 46.79 175.81 C 42.95 178.13 39.51 181.45 37.69 185.60 C 36.79 189.06 37.59 192.77 39.00 195.99 C 45.34 207.46 56.35 215.97 68.63 220.27 C 71.64 220.93 75.08 222.06 77.78 219.97 C 75.73 216.08 73.40 212.34 71.60 208.33 C 69.83 204.66 71.43 200.26 69.29 196.69 C 65.32 188.85 59.43 181.88 52.15 176.93 C 50.57 176.08 48.57 174.72 46.79 175.81 Z" />
<path fill="#0c9afe" opacity="1.00" d=" M 154.73 166.33 C 156.89 165.94 158.92 166.51 160.59 167.90 C 161.44 169.75 162.25 171.62 163.17 173.45 C 163.58 178.07 162.43 182.74 159.10 186.09 C 157.37 186.52 155.63 186.92 153.91 187.34 C 153.80 186.45 153.58 184.66 153.47 183.77 C 154.20 180.34 154.47 176.84 154.40 173.34 C 154.41 171.00 154.54 168.67 154.73 166.33 Z" />
<path fill="#7ed8ff" opacity="1.00" d=" M 106.34 170.33 C 119.95 170.43 133.49 172.00 147.01 173.43 C 149.47 173.68 151.94 173.53 154.40 173.34 C 154.47 176.84 154.20 180.34 153.47 183.77 C 153.13 184.79 152.77 185.81 152.40 186.83 C 152.31 186.32 152.13 185.29 152.03 184.78 C 151.69 183.61 152.00 181.95 150.64 181.38 C 146.36 179.19 141.40 179.20 136.76 178.45 C 136.67 179.13 136.50 180.50 136.42 181.18 C 134.56 181.85 132.57 181.69 130.63 181.60 C 125.68 181.33 120.73 181.65 115.78 181.33 C 110.53 177.40 104.09 181.57 98.41 179.12 C 99.46 178.19 100.52 177.28 101.57 176.36 C 97.88 175.54 94.22 174.61 90.57 173.63 C 95.41 170.73 101.16 172.03 106.34 170.33 Z" />
<path fill="#78d1ff" opacity="1.00" d=" M 163.17 173.45 L 163.56 174.21 C 164.28 176.10 163.58 179.16 165.97 179.95 C 172.72 182.22 180.01 183.74 185.70 188.30 C 189.06 191.02 193.39 192.27 197.66 192.40 C 198.52 192.18 199.28 191.70 200.07 191.31 C 199.71 193.41 199.81 195.55 200.00 197.67 C 199.49 197.75 198.46 197.91 197.95 197.99 C 196.39 198.03 194.84 198.02 193.30 197.98 C 188.47 195.32 183.60 192.74 178.74 190.16 C 177.17 189.43 176.42 187.78 175.37 186.52 C 171.11 182.76 165.17 183.72 160.36 185.74 L 159.10 186.09 C 162.43 182.74 163.58 178.07 163.17 173.45 Z" />
<path fill="#90d8ff" opacity="1.00" d=" M 163.56 174.21 C 170.92 176.49 178.81 177.45 185.53 181.48 C 188.75 183.20 191.51 185.70 194.87 187.18 C 197.26 188.31 199.76 186.91 202.09 186.30 C 201.27 187.91 200.61 189.59 200.07 191.31 C 199.28 191.70 198.52 192.18 197.66 192.40 C 193.39 192.27 189.06 191.02 185.70 188.30 C 180.01 183.74 172.72 182.22 165.97 179.95 C 163.58 179.16 164.28 176.10 163.56 174.21 Z" />
<path fill="#17d3fe" opacity="1.00" d=" M 221.70 186.17 C 225.57 182.15 228.51 177.29 233.02 173.86 C 233.12 175.31 233.21 176.77 233.27 178.22 C 227.50 190.28 219.81 201.46 210.36 210.93 C 210.02 209.26 210.45 207.17 208.96 205.98 C 207.81 205.03 206.23 204.93 204.88 204.43 C 205.98 203.83 207.09 203.23 208.22 202.69 C 210.34 201.73 212.85 201.30 214.48 199.51 C 215.86 198.08 216.37 196.10 217.06 194.29 C 216.27 194.15 214.68 193.87 213.89 193.74 C 217.50 192.46 219.52 189.07 221.70 186.17 Z" />
<path fill="#e2ffff" opacity="1.00" d=" M 46.79 175.81 C 48.57 174.72 50.57 176.08 52.15 176.93 C 59.43 181.88 65.32 188.85 69.29 196.69 C 71.43 200.26 69.83 204.66 71.60 208.33 C 73.40 212.34 75.73 216.08 77.78 219.97 C 75.08 222.06 71.64 220.93 68.63 220.27 C 56.35 215.97 45.34 207.46 39.00 195.99 C 37.59 192.77 36.79 189.06 37.69 185.60 C 39.51 181.45 42.95 178.13 46.79 175.81 M 43.23 194.73 C 45.50 202.18 50.64 208.81 57.72 212.27 C 60.68 213.71 64.67 215.72 67.59 213.14 C 66.06 208.99 63.21 205.47 61.86 201.23 C 59.73 195.86 57.44 188.97 51.03 187.58 C 47.36 187.66 42.88 190.67 43.23 194.73 Z" />
<path fill="#11dcfa" opacity="1.00" d=" M 21.33 175.82 C 24.01 176.62 25.89 178.69 27.50 180.85 C 28.37 181.95 29.23 183.06 30.04 184.21 C 30.85 185.94 31.45 187.75 32.05 189.56 C 30.79 189.46 29.54 189.36 28.28 189.26 C 26.72 186.41 24.95 183.69 23.43 180.81 C 22.67 179.18 22.02 177.49 21.33 175.82 Z" />
<path fill="#59e8ff" opacity="1.00" d=" M 90.40 181.55 C 92.91 180.29 95.57 179.19 98.41 179.12 C 104.09 181.57 110.53 177.40 115.78 181.33 C 114.34 181.77 112.92 182.27 111.49 182.76 C 111.58 183.09 111.75 183.75 111.84 184.08 C 108.09 185.47 104.71 187.66 101.61 190.16 C 100.81 190.83 100.04 191.54 99.30 192.28 C 98.61 191.89 97.22 191.11 96.53 190.72 C 97.62 189.86 98.72 189.02 99.81 188.18 C 99.18 187.12 98.64 185.25 97.06 185.60 C 94.12 186.04 91.18 186.54 88.20 186.57 C 88.94 184.90 89.68 183.23 90.40 181.55 Z" />
<path fill="#0987ff" opacity="1.00" d=" M 136.42 181.18 C 136.50 180.50 136.67 179.13 136.76 178.45 C 141.40 179.20 146.36 179.19 150.64 181.38 C 152.00 181.95 151.69 183.61 152.03 184.78 C 151.32 186.81 150.35 188.75 149.18 190.56 C 143.84 189.22 139.35 185.81 136.42 181.18 Z" />
<path fill="#d7ffff" opacity="1.00" d=" M 20.46 180.91 C 21.45 180.88 22.44 180.84 23.43 180.81 C 24.95 183.69 26.72 186.41 28.28 189.26 C 31.31 194.58 35.44 199.13 39.27 203.87 C 44.04 210.46 50.30 215.81 56.65 220.83 C 58.83 222.54 61.13 224.08 63.51 225.49 C 74.41 232.53 86.33 238.28 99.06 241.03 C 104.08 241.92 109.02 243.38 114.14 243.61 C 114.24 244.08 114.42 245.02 114.52 245.48 C 112.91 245.61 111.30 245.75 109.69 245.85 C 76.11 241.31 45.11 221.28 27.00 192.65 C 24.68 188.82 22.49 184.91 20.46 180.91 Z" />
<path fill="#5bfeff" opacity="1.00" d=" M 82.68 182.67 C 84.92 181.03 87.81 181.38 90.40 181.55 C 89.68 183.23 88.94 184.90 88.20 186.57 C 91.18 186.54 94.12 186.04 97.06 185.60 C 98.64 185.25 99.18 187.12 99.81 188.18 C 98.72 189.02 97.62 189.86 96.53 190.72 C 93.30 193.51 89.24 195.23 86.27 198.31 C 84.35 201.47 84.44 205.42 83.85 208.98 C 83.28 212.18 84.96 216.19 88.57 216.47 C 88.18 213.91 86.68 211.05 88.69 208.80 C 88.62 209.66 88.48 211.39 88.41 212.26 C 90.15 215.22 93.57 214.84 96.48 214.40 C 96.52 212.54 96.47 210.67 96.33 208.82 C 97.35 209.61 98.52 210.54 98.25 212.03 C 98.14 215.00 95.05 216.50 93.17 218.39 C 95.68 223.18 102.13 223.08 106.73 224.51 C 110.98 225.41 115.26 226.25 119.60 226.63 L 120.34 228.19 C 108.27 227.69 95.96 225.06 85.91 218.05 C 84.10 216.53 82.31 214.99 80.46 213.54 C 80.12 207.55 80.83 201.50 79.57 195.58 C 78.61 191.06 79.76 186.25 82.68 182.67 Z" />
<path fill="#2ec4ff" opacity="1.00" d=" M 115.78 181.33 C 120.73 181.65 125.68 181.33 130.63 181.60 C 132.57 181.69 134.56 181.85 136.42 181.18 C 139.35 185.81 143.84 189.22 149.18 190.56 C 150.35 188.75 151.32 186.81 152.03 184.78 C 152.13 185.29 152.31 186.32 152.40 186.83 C 152.77 185.81 153.13 184.79 153.47 183.77 C 153.58 184.66 153.80 186.45 153.91 187.34 C 155.63 186.92 157.37 186.52 159.10 186.09 L 160.36 185.74 C 158.57 187.08 156.91 188.57 155.27 190.09 C 159.30 192.67 164.36 194.27 168.95 192.13 C 175.60 194.73 180.64 200.04 186.69 203.68 C 187.07 203.92 187.82 204.41 188.20 204.65 C 181.90 213.46 171.78 218.30 161.85 221.79 C 148.28 226.23 133.81 227.69 119.60 226.63 C 115.26 226.25 110.98 225.41 106.73 224.51 C 108.55 224.45 110.36 224.32 112.18 224.26 C 127.16 226.52 142.76 225.72 157.31 221.38 C 165.05 218.57 173.17 215.75 179.51 210.34 C 180.49 208.52 182.24 206.60 181.58 204.37 C 181.01 201.29 177.73 200.08 175.34 198.65 C 172.66 197.06 169.18 197.47 166.75 195.44 C 164.66 195.60 162.58 195.86 160.51 196.16 C 160.42 196.86 160.35 197.56 160.29 198.27 C 158.09 196.03 155.39 194.22 152.18 193.98 C 151.75 195.31 151.32 196.65 150.88 197.98 C 149.68 197.39 148.48 196.80 147.28 196.22 C 147.46 195.18 147.64 194.15 147.84 193.11 C 141.62 190.96 134.33 193.18 130.27 198.32 C 130.18 198.66 130.00 199.33 129.92 199.66 C 128.62 199.53 127.22 199.68 126.01 199.12 C 124.24 197.86 123.96 195.56 123.37 193.64 C 121.27 194.25 119.15 194.81 117.01 195.26 C 116.34 194.29 115.67 193.33 114.99 192.37 C 116.91 189.88 118.76 187.32 120.47 184.68 C 117.86 182.99 114.72 183.65 111.84 184.08 C 111.75 183.75 111.58 183.09 111.49 182.76 C 112.92 182.27 114.34 181.77 115.78 181.33 Z" />
<path fill="#30d8ff" opacity="1.00" d=" M 111.84 184.08 C 114.72 183.65 117.86 182.99 120.47 184.68 C 118.76 187.32 116.91 189.88 114.99 192.37 C 111.83 192.70 108.65 192.87 105.48 192.91 C 104.19 191.99 102.90 191.07 101.61 190.16 C 104.71 187.66 108.09 185.47 111.84 184.08 Z" />
<path fill="#0887ff" opacity="1.00" d=" M 160.36 185.74 C 165.17 183.72 171.11 182.76 175.37 186.52 C 173.94 189.09 171.52 190.82 168.95 192.13 C 164.36 194.27 159.30 192.67 155.27 190.09 C 156.91 188.57 158.57 187.08 160.36 185.74 Z" />
<path fill="#079bff" opacity="1.00" d=" M 202.09 186.30 C 202.67 185.39 203.29 184.49 203.92 183.60 C 205.04 185.29 206.08 187.04 206.88 188.91 C 207.43 193.28 206.75 197.83 203.86 201.30 C 202.61 200.05 201.36 198.79 200.00 197.67 C 199.81 195.55 199.71 193.41 200.07 191.31 C 200.61 189.59 201.27 187.91 202.09 186.30 Z" />
<path fill="#57c6fe" opacity="1.00" d=" M 175.37 186.52 C 176.42 187.78 177.17 189.43 178.74 190.16 C 183.60 192.74 188.47 195.32 193.30 197.98 C 190.78 199.48 188.59 201.46 186.69 203.68 C 180.64 200.04 175.60 194.73 168.95 192.13 C 171.52 190.82 173.94 189.09 175.37 186.52 Z" />
<path fill="#ffffff" opacity="1.00" d=" M 43.23 194.73 C 42.88 190.67 47.36 187.66 51.03 187.58 C 57.44 188.97 59.73 195.86 61.86 201.23 C 63.21 205.47 66.06 208.99 67.59 213.14 C 64.67 215.72 60.68 213.71 57.72 212.27 C 50.64 208.81 45.50 202.18 43.23 194.73 Z" />
<path fill="#39f6fe" opacity="1.00" d=" M 86.27 198.31 C 89.24 195.23 93.30 193.51 96.53 190.72 C 97.22 191.11 98.61 191.89 99.30 192.28 C 96.91 197.16 90.95 198.67 88.73 203.62 C 88.22 204.56 87.73 205.52 87.24 206.47 C 87.91 206.64 89.24 206.97 89.90 207.14 C 89.60 207.55 88.99 208.38 88.69 208.80 C 86.68 211.05 88.18 213.91 88.57 216.47 C 84.96 216.19 83.28 212.18 83.85 208.98 C 84.44 205.42 84.35 201.47 86.27 198.31 Z" />
<path fill="#1be8ff" opacity="1.00" d=" M 99.30 192.28 C 100.04 191.54 100.81 190.83 101.61 190.16 C 102.90 191.07 104.19 191.99 105.48 192.91 C 104.10 196.95 101.99 201.43 104.49 205.49 C 102.85 205.48 101.20 205.49 99.56 205.53 C 99.62 206.79 99.67 208.05 99.73 209.32 C 101.35 209.32 102.96 209.34 104.58 209.24 L 105.99 208.98 C 103.99 211.44 100.93 213.53 100.71 216.97 C 100.96 218.24 101.45 219.71 102.74 220.28 C 105.86 221.68 109.17 222.61 112.18 224.26 C 110.36 224.32 108.55 224.45 106.73 224.51 C 102.13 223.08 95.68 223.18 93.17 218.39 C 95.05 216.50 98.14 215.00 98.25 212.03 C 98.52 210.54 97.35 209.61 96.33 208.82 C 93.88 207.59 91.10 207.31 88.69 208.80 C 88.99 208.38 89.60 207.55 89.90 207.14 C 89.24 206.97 87.91 206.64 87.24 206.47 C 87.73 205.52 88.22 204.56 88.73 203.62 C 90.95 198.67 96.91 197.16 99.30 192.28 Z" />
<path fill="#20d8ff" opacity="1.00" d=" M 105.48 192.91 C 108.65 192.87 111.83 192.70 114.99 192.37 C 115.67 193.33 116.34 194.29 117.01 195.26 C 114.17 198.33 112.45 202.58 108.29 204.20 C 107.60 205.82 107.15 207.61 105.99 208.98 L 104.58 209.24 C 104.56 208.30 104.51 206.43 104.49 205.49 C 101.99 201.43 104.10 196.95 105.48 192.91 Z" />
<path fill="#0778f6" opacity="1.00" d=" M 130.27 198.32 C 134.33 193.18 141.62 190.96 147.84 193.11 C 147.64 194.15 147.46 195.18 147.28 196.22 C 142.75 200.36 135.60 201.66 130.27 198.32 Z" />
<path fill="#85b5da" opacity="1.00" d=" M 27.00 192.65 C 45.11 221.28 76.11 241.31 109.69 245.85 C 113.22 246.51 116.78 247.01 120.36 247.27 C 119.79 247.68 118.64 248.49 118.07 248.89 C 81.37 246.37 46.40 225.39 26.52 194.46 C 26.64 194.01 26.88 193.11 27.00 192.65 Z" />
<path fill="#12c0ff" opacity="1.00" d=" M 117.01 195.26 C 119.15 194.81 121.27 194.25 123.37 193.64 C 123.96 195.56 124.24 197.86 126.01 199.12 C 127.22 199.68 128.62 199.53 129.92 199.66 C 130.25 202.89 127.91 205.78 128.01 209.06 C 125.99 211.93 122.23 214.71 123.31 218.67 C 124.80 221.33 128.24 221.50 130.94 221.82 C 142.39 222.77 154.48 221.41 164.56 215.56 C 168.06 213.50 171.70 211.39 173.97 207.90 C 175.07 205.82 177.58 205.86 179.57 205.30 C 179.54 206.98 179.51 208.66 179.51 210.34 C 173.17 215.75 165.05 218.57 157.31 221.38 C 142.76 225.72 127.16 226.52 112.18 224.26 C 109.17 222.61 105.86 221.68 102.74 220.28 C 101.45 219.71 100.96 218.24 100.71 216.97 C 100.93 213.53 103.99 211.44 105.99 208.98 C 107.15 207.61 107.60 205.82 108.29 204.20 C 112.45 202.58 114.17 198.33 117.01 195.26 Z" />
<path fill="#0670ef" opacity="1.00" d=" M 152.18 193.98 C 155.39 194.22 158.09 196.03 160.29 198.27 C 160.83 200.55 161.31 202.90 160.80 205.25 C 160.25 207.00 159.60 208.72 158.97 210.45 C 157.07 208.79 155.15 207.16 153.44 205.31 C 152.35 202.95 151.58 200.47 150.88 197.98 C 151.32 196.65 151.75 195.31 152.18 193.98 Z" />
<path fill="#05a1fc" opacity="1.00" d=" M 206.00 200.82 C 207.27 197.27 209.73 193.77 213.89 193.74 C 214.68 193.87 216.27 194.15 217.06 194.29 C 216.37 196.10 215.86 198.08 214.48 199.51 C 212.85 201.30 210.34 201.73 208.22 202.69 C 207.67 202.22 206.55 201.28 206.00 200.82 Z" />
<path fill="#1bb1f8" opacity="1.00" d=" M 160.51 196.16 C 162.58 195.86 164.66 195.60 166.75 195.44 C 169.18 197.47 172.66 197.06 175.34 198.65 C 177.73 200.08 181.01 201.29 181.58 204.37 C 182.24 206.60 180.49 208.52 179.51 210.34 C 179.51 208.66 179.54 206.98 179.57 205.30 C 177.58 205.86 175.07 205.82 173.97 207.90 C 171.70 211.39 168.06 213.50 164.56 215.56 C 164.40 213.56 164.92 211.63 165.69 209.81 C 163.97 208.38 162.32 206.88 160.80 205.25 C 161.31 202.90 160.83 200.55 160.29 198.27 C 160.35 197.56 160.42 196.86 160.51 196.16 Z" />
<path fill="#1baafb" opacity="1.00" d=" M 130.27 198.32 C 135.60 201.66 142.75 200.36 147.28 196.22 C 148.48 196.80 149.68 197.39 150.88 197.98 C 151.58 200.47 152.35 202.95 153.44 205.31 C 148.05 203.84 142.41 205.98 137.82 208.76 C 136.88 208.38 135.96 208.01 135.03 207.63 C 134.33 207.89 133.64 208.15 132.94 208.41 C 131.24 207.73 129.49 208.00 128.01 209.06 C 127.91 205.78 130.25 202.89 129.92 199.66 C 130.00 199.33 130.18 198.66 130.27 198.32 Z" />
<path fill="#0497fe" opacity="1.00" d=" M 193.30 197.98 C 194.84 198.02 196.39 198.03 197.95 197.99 C 199.25 198.97 200.48 200.04 201.72 201.11 C 200.18 203.13 198.31 205.08 195.79 205.82 C 193.21 206.43 190.57 205.64 188.20 204.65 C 187.82 204.41 187.07 203.92 186.69 203.68 C 188.59 201.46 190.78 199.48 193.30 197.98 Z" />
<path fill="#109ef7" opacity="1.00" d=" M 137.82 208.76 C 142.41 205.98 148.05 203.84 153.44 205.31 C 155.15 207.16 157.07 208.79 158.97 210.45 C 159.60 208.72 160.25 207.00 160.80 205.25 C 162.32 206.88 163.97 208.38 165.69 209.81 C 164.92 211.63 164.40 213.56 164.56 215.56 C 154.48 221.41 142.39 222.77 130.94 221.82 C 128.24 221.50 124.80 221.33 123.31 218.67 C 122.23 214.71 125.99 211.93 128.01 209.06 C 129.49 208.00 131.24 207.73 132.94 208.41 C 133.64 208.15 134.33 207.89 135.03 207.63 C 135.96 208.01 136.88 208.38 137.82 208.76 Z" />
<path fill="#adffff" opacity="1.00" d=" M 99.56 205.53 C 101.20 205.49 102.85 205.48 104.49 205.49 C 104.51 206.43 104.56 208.30 104.58 209.24 C 102.96 209.34 101.35 209.32 99.73 209.32 C 99.67 208.05 99.62 206.79 99.56 205.53 Z" />
<path fill="#04a2fc" opacity="1.00" d=" M 195.47 208.88 C 196.75 206.28 199.14 203.95 202.30 204.70 C 202.30 206.66 202.24 208.63 202.01 210.58 C 200.27 212.69 198.50 214.79 196.66 216.80 C 196.01 216.78 194.72 216.75 194.08 216.73 C 194.60 214.12 195.02 211.50 195.47 208.88 Z" />
<path fill="#019bf5" opacity="1.00" d=" M 204.88 204.43 C 206.23 204.93 207.81 205.03 208.96 205.98 C 210.45 207.17 210.02 209.26 210.36 210.93 C 209.52 211.75 208.68 212.56 207.82 213.35 C 205.55 211.43 204.19 208.78 204.55 205.74 L 204.88 204.43 Z" />
<path fill="#08d2fc" opacity="1.00" d=" M 203.10 210.14 C 203.67 208.70 204.13 207.23 204.55 205.74 C 204.19 208.78 205.55 211.43 207.82 213.35 C 196.61 223.69 183.43 231.86 169.14 237.21 C 169.05 236.64 168.87 235.51 168.78 234.94 C 178.37 229.45 188.80 224.74 196.66 216.80 C 198.50 214.79 200.27 212.69 202.01 210.58 C 202.28 210.47 202.82 210.25 203.10 210.14 Z" />
<path fill="#feffff" opacity="1.00" d=" M 88.69 208.80 C 91.10 207.31 93.88 207.59 96.33 208.82 C 96.47 210.67 96.52 212.54 96.48 214.40 C 93.57 214.84 90.15 215.22 88.41 212.26 C 88.48 211.39 88.62 209.66 88.69 208.80 Z" />
<path fill="#45e3ff" opacity="1.00" d=" M 184.73 218.73 C 188.81 216.04 192.63 212.90 195.47 208.88 C 195.02 211.50 194.60 214.12 194.08 216.73 C 194.72 216.75 196.01 216.78 196.66 216.80 C 188.80 224.74 178.37 229.45 168.78 234.94 C 168.33 233.94 167.86 232.96 167.38 231.99 C 165.75 233.34 164.29 234.88 162.95 236.52 C 157.90 237.34 153.08 239.19 148.03 240.04 C 135.81 242.31 123.13 243.43 110.78 241.50 C 111.32 241.25 112.40 240.76 112.94 240.51 C 116.25 241.46 119.77 241.47 122.87 239.84 C 121.80 239.05 120.73 238.26 119.66 237.47 C 127.51 237.80 135.25 236.28 143.02 235.43 C 148.76 234.65 154.74 234.24 160.01 231.61 C 168.85 228.70 177.66 224.92 184.73 218.73 Z" />
<path fill="#71f6ff" opacity="1.00" d=" M 84.10 218.50 C 84.55 218.39 85.46 218.16 85.91 218.05 C 95.96 225.06 108.27 227.69 120.34 228.19 C 132.64 228.95 145.06 228.62 157.19 226.30 C 162.91 225.08 168.38 221.55 174.41 222.73 C 170.47 227.12 163.84 227.21 160.01 231.61 C 154.74 234.24 148.76 234.65 143.02 235.43 C 135.25 236.28 127.51 237.80 119.66 237.47 C 118.44 236.57 117.26 235.62 116.15 234.61 C 115.94 234.42 115.52 234.03 115.31 233.84 C 116.48 230.64 112.34 230.17 110.26 229.45 C 101.02 227.31 91.71 224.39 84.10 218.50 Z" />
<path fill="#47fdff" opacity="1.00" d=" M 63.51 225.49 C 66.92 225.22 69.97 226.96 73.12 227.95 C 80.69 230.29 88.20 233.05 96.12 233.92 C 99.93 234.25 103.95 236.21 107.64 234.36 C 107.90 234.80 108.17 235.23 108.45 235.66 C 109.72 237.48 111.22 239.11 112.94 240.51 C 112.40 240.76 111.32 241.25 110.78 241.50 C 106.91 240.93 102.93 239.75 99.06 241.03 C 86.33 238.28 74.41 232.53 63.51 225.49 Z" />
<path fill="#34eafc" opacity="1.00" d=" M 106.30 231.58 C 109.44 230.74 112.51 232.66 115.31 233.84 C 115.52 234.03 115.94 234.42 116.15 234.61 C 113.55 234.65 110.96 234.95 108.45 235.66 C 108.17 235.23 107.90 234.80 107.64 234.36 C 107.30 233.66 106.63 232.28 106.30 231.58 Z" />
<path fill="#0294ef" opacity="1.00" d=" M 162.95 236.52 C 164.29 234.88 165.75 233.34 167.38 231.99 C 167.86 232.96 168.33 233.94 168.78 234.94 C 168.87 235.51 169.05 236.64 169.14 237.21 C 166.99 238.07 164.81 238.86 162.60 239.54 C 162.72 238.53 162.83 237.53 162.95 236.52 Z" />
<path fill="#00d9ff" opacity="1.00" d=" M 108.45 235.66 C 110.96 234.95 113.55 234.65 116.15 234.61 C 117.26 235.62 118.44 236.57 119.66 237.47 C 120.73 238.26 121.80 239.05 122.87 239.84 C 119.77 241.47 116.25 241.46 112.94 240.51 C 111.22 239.11 109.72 237.48 108.45 235.66 Z" />
<path fill="#0ad3fa" opacity="1.00" d=" M 148.03 240.04 C 153.08 239.19 157.90 237.34 162.95 236.52 C 162.83 237.53 162.72 238.53 162.60 239.54 C 146.86 243.83 130.38 245.56 114.14 243.61 C 109.02 243.38 104.08 241.92 99.06 241.03 C 102.93 239.75 106.91 240.93 110.78 241.50 C 123.13 243.43 135.81 242.31 148.03 240.04 Z" />
</svg>
