<?xml version="1.0" encoding="UTF-8" ?>
<!DOCTYPE svg PUBLIC "-//W3C//DTD SVG 1.1//EN" "http://www.w3.org/Graphics/SVG/1.1/DTD/svg11.dtd">
<svg width="256pt" height="256pt" viewBox="0 0 256 256" version="1.1" xmlns="http://www.w3.org/2000/svg">
<path fill="#9083b4" opacity="1.00" d=" M 76.99 17.86 C 103.05 5.73 133.47 3.44 161.08 11.35 C 185.53 18.31 207.82 33.13 223.22 53.39 L 221.46 53.19 C 220.85 52.56 220.24 51.94 219.64 51.30 C 201.48 29.28 175.14 14.23 146.94 9.81 C 117.65 5.00 86.64 11.54 61.92 28.02 C 41.66 41.24 25.77 60.82 16.69 83.23 C 16.51 82.67 16.13 81.53 15.95 80.96 C 27.60 53.36 49.72 30.33 76.99 17.86 Z" />
<path fill="#ffffff" opacity="1.00" d=" M 61.92 28.02 C 86.64 11.54 117.65 5.00 146.94 9.81 C 175.14 14.23 201.48 29.28 219.64 51.30 C 217.80 51.41 215.95 51.36 214.11 51.20 C 210.91 47.40 207.27 44.01 203.56 40.71 L 203.02 39.11 C 200.92 36.88 198.38 35.13 195.95 33.30 L 195.93 34.81 C 193.77 33.11 191.30 31.83 189.29 29.95 C 187.41 26.82 183.69 25.69 180.35 24.85 C 175.44 23.22 171.00 20.49 166.06 18.88 C 154.08 15.03 141.64 12.37 129.02 12.20 C 98.34 12.08 67.97 24.72 46.11 46.18 C 34.89 57.65 25.97 71.38 20.13 86.33 C 18.78 85.78 17.43 85.24 16.08 84.69 C 16.23 84.33 16.54 83.60 16.69 83.23 C 25.77 60.82 41.66 41.24 61.92 28.02 Z" />
<path fill="#008ad6" opacity="0.87" d=" M 180.35 24.85 C 183.69 25.69 187.41 26.82 189.29 29.95 C 185.93 32.97 181.72 34.70 177.32 35.51 C 176.86 31.65 178.04 27.92 180.35 24.85 Z" />
<path fill="#7fb7db" opacity="0.87" d=" M 105.05 30.15 C 107.76 28.56 110.97 28.92 113.93 29.38 C 113.71 32.32 112.38 35.34 109.83 36.97 C 106.33 39.31 101.98 39.56 98.08 40.89 C 99.55 36.88 101.13 32.40 105.05 30.15 Z" />
<path fill="#0096f9" opacity="0.98" d=" M 195.95 33.30 C 198.38 35.13 200.92 36.88 203.02 39.11 L 203.56 40.71 C 200.75 39.11 198.17 37.14 195.93 34.81 L 195.95 33.30 Z" />
<path fill="#0089dd" opacity="0.87" d=" M 188.64 51.48 C 187.56 47.97 188.14 44.14 189.75 40.90 C 195.54 44.32 196.48 51.99 195.04 58.00 C 192.40 56.44 189.81 54.41 188.64 51.48 Z" />
<path fill="#d4efff" opacity="1.00" d=" M 214.11 51.20 C 215.95 51.36 217.80 51.41 219.64 51.30 C 220.24 51.94 220.85 52.56 221.46 53.19 C 226.62 59.76 231.13 66.85 234.86 74.33 C 232.19 74.62 230.93 71.61 228.41 71.33 C 224.30 64.19 219.57 57.39 214.11 51.20 Z" />
<path fill="#7780aa" opacity="0.86" d=" M 221.46 53.19 L 223.22 53.39 C 241.89 76.27 250.86 106.74 248.88 136.17 C 248.50 136.12 247.75 136.03 247.37 135.99 C 248.28 121.12 246.47 106.13 242.01 91.91 C 240.15 85.86 237.76 79.96 234.86 74.33 C 231.13 66.85 226.62 59.76 221.46 53.19 Z" />
<path fill="#009dde" opacity="0.87" d=" M 54.94 78.92 C 53.62 72.43 53.77 65.28 56.60 59.21 C 58.69 60.81 60.74 62.50 62.55 64.44 C 61.37 70.49 60.53 76.67 58.32 82.46 C 57.69 82.09 56.41 81.33 55.78 80.96 C 55.57 80.45 55.15 79.43 54.94 78.92 Z" />
<path fill="#008bd7" opacity="0.87" d=" M 62.55 64.44 C 63.12 65.24 63.64 66.06 64.12 66.91 C 65.71 72.22 66.00 78.01 64.22 83.31 C 62.25 83.05 60.28 82.83 58.32 82.46 C 60.53 76.67 61.37 70.49 62.55 64.44 Z" />
<path fill="#005081" opacity="0.56" d=" M 64.12 66.91 C 67.07 72.09 66.46 78.48 64.59 83.92 C 66.25 84.33 67.90 84.74 69.56 85.15 C 68.85 86.77 68.11 88.39 67.38 90.01 C 67.17 89.59 66.74 88.76 66.52 88.35 C 63.08 88.11 58.59 87.67 57.00 91.52 C 56.95 91.58 56.86 91.70 56.81 91.76 C 55.78 90.42 54.71 89.11 53.54 87.89 C 54.64 86.53 55.74 85.18 56.87 83.84 C 58.17 85.24 59.63 86.49 61.08 87.74 C 62.31 86.40 63.49 84.99 64.22 83.31 C 66.00 78.01 65.71 72.22 64.12 66.91 Z" />
<path fill="#c2e9ff" opacity="1.00" d=" M 228.41 71.33 C 230.93 71.61 232.19 74.62 234.86 74.33 C 237.76 79.96 240.15 85.86 242.01 91.91 C 241.64 92.01 240.91 92.21 240.54 92.31 C 241.08 95.25 241.48 98.22 241.37 101.22 L 241.30 101.18 L 240.10 100.34 C 237.27 90.28 233.53 80.46 228.41 71.33 Z" />
<path fill="#002e53" opacity="0.33" d=" M 179.45 79.08 C 184.14 77.76 188.70 75.42 193.69 75.74 C 193.18 76.97 192.66 78.21 192.15 79.44 C 197.34 79.80 202.54 80.61 207.29 82.84 C 201.84 82.57 196.43 81.03 190.95 81.78 C 184.81 82.53 178.69 84.14 173.23 87.10 C 167.70 90.30 163.77 95.57 160.54 100.96 C 160.33 101.26 159.92 101.87 159.71 102.18 C 159.24 102.11 158.30 101.98 157.82 101.92 C 160.51 97.87 163.02 93.70 165.86 89.76 C 165.03 89.55 164.20 89.34 163.38 89.13 C 163.52 88.67 163.80 87.74 163.94 87.28 C 168.79 84.01 173.78 80.76 179.45 79.08 Z" />
<path fill="#003b6d" opacity="0.44" d=" M 193.69 75.74 C 198.51 75.04 203.41 75.37 208.13 76.56 C 207.52 76.74 206.31 77.11 205.70 77.30 C 210.34 81.01 216.27 82.54 221.04 86.07 C 226.44 89.83 230.32 95.69 231.67 102.13 C 232.67 107.26 230.80 112.25 229.06 116.99 C 227.90 117.66 226.75 118.34 225.64 119.08 C 225.66 118.44 225.71 117.17 225.73 116.54 C 229.05 111.77 229.88 105.17 226.80 100.08 C 224.39 96.00 222.34 91.47 218.56 88.45 C 215.24 85.81 211.20 84.36 207.29 82.84 C 202.54 80.61 197.34 79.80 192.15 79.44 C 192.66 78.21 193.18 76.97 193.69 75.74 Z" />
<path fill="#004787" opacity="0.56" d=" M 205.70 77.30 C 206.31 77.11 207.52 76.74 208.13 76.56 C 213.47 77.78 218.73 79.51 223.56 82.14 C 223.39 84.42 225.35 85.71 226.73 87.18 C 229.97 90.20 232.50 94.04 233.76 98.31 C 235.03 102.85 233.73 107.49 233.26 112.04 C 232.78 114.44 234.73 116.28 235.79 118.22 C 235.26 119.02 234.70 119.80 234.14 120.57 C 232.06 120.37 230.03 120.85 228.08 121.53 C 228.39 120.01 228.69 118.49 229.06 116.99 C 230.80 112.25 232.67 107.26 231.67 102.13 C 230.32 95.69 226.44 89.83 221.04 86.07 C 216.27 82.54 210.34 81.01 205.70 77.30 Z" />
<path fill="#006da2" opacity="0.64" d=" M 54.94 78.92 C 55.15 79.43 55.57 80.45 55.78 80.96 C 56.14 81.92 56.50 82.88 56.87 83.84 C 55.74 85.18 54.64 86.53 53.54 87.89 C 52.89 87.50 52.22 87.12 51.55 86.76 C 50.99 86.47 49.86 85.89 49.29 85.60 C 48.48 84.85 47.70 84.08 46.93 83.30 C 49.82 82.66 52.76 82.36 55.70 82.05 C 55.51 81.27 55.13 79.70 54.94 78.92 Z" />
<path fill="#0086d5" opacity="0.87" d=" M 69.56 85.15 C 72.17 80.95 77.22 78.91 82.04 80.04 C 84.23 80.63 88.15 80.26 88.96 82.82 C 87.17 85.89 84.30 88.17 81.32 90.01 C 81.18 90.08 80.88 90.23 80.73 90.31 C 77.10 88.40 73.29 86.85 69.56 85.15 Z" />
<path fill="#727ca1" opacity="0.83" d=" M 7.39 114.02 C 8.39 102.65 11.53 91.47 15.95 80.96 C 16.13 81.53 16.51 82.67 16.69 83.23 C 16.54 83.60 16.23 84.33 16.08 84.69 C 14.03 89.64 12.64 94.81 11.25 99.96 C 10.10 104.97 9.24 110.05 8.74 115.16 L 7.39 114.02 Z" />
<path fill="#0073d9" opacity="0.95" d=" M 55.78 80.96 C 56.41 81.33 57.69 82.09 58.32 82.46 C 60.28 82.83 62.25 83.05 64.22 83.31 C 63.49 84.99 62.31 86.40 61.08 87.74 C 59.63 86.49 58.17 85.24 56.87 83.84 C 56.50 82.88 56.14 81.92 55.78 80.96 Z" />
<path fill="#0085e3" opacity="0.89" d=" M 155.69 94.08 C 155.47 88.66 157.86 82.50 163.48 80.81 C 163.68 82.96 163.86 85.12 163.94 87.28 C 163.80 87.74 163.52 88.67 163.38 89.13 C 162.31 92.75 160.17 95.98 157.19 98.30 C 156.68 96.90 156.19 95.49 155.69 94.08 Z" />
<path fill="#002238" opacity="0.22" d=" M 173.23 87.10 C 178.69 84.14 184.81 82.53 190.95 81.78 C 196.43 81.03 201.84 82.57 207.29 82.84 C 211.20 84.36 215.24 85.81 218.56 88.45 C 222.34 91.47 224.39 96.00 226.80 100.08 C 229.88 105.17 229.05 111.77 225.73 116.54 C 223.83 118.43 222.20 121.23 219.25 121.46 C 223.12 117.73 222.50 112.25 221.13 107.56 C 220.66 106.49 220.16 105.43 219.68 104.37 C 219.92 104.19 220.40 103.85 220.64 103.67 C 218.94 100.37 217.32 96.97 214.79 94.22 C 212.04 91.29 209.91 87.59 206.23 85.71 C 201.02 82.66 194.71 83.40 188.96 83.81 C 178.86 85.08 168.06 89.92 163.50 99.57 C 162.40 101.39 163.22 103.50 163.64 105.39 C 164.65 107.93 166.24 110.17 167.71 112.46 C 167.97 113.60 168.23 114.75 168.46 115.90 C 164.87 111.62 160.41 106.92 160.54 100.96 C 163.77 95.57 167.70 90.30 173.23 87.10 Z" />
<path fill="#03929e" opacity="0.62" d=" M 43.99 84.08 C 44.96 83.79 45.94 83.53 46.93 83.30 C 47.70 84.08 48.48 84.85 49.29 85.60 C 48.79 85.61 47.79 85.62 47.28 85.63 C 46.36 85.67 44.50 85.75 43.57 85.79 C 43.68 85.36 43.88 84.51 43.99 84.08 Z" />
<path fill="#005393" opacity="0.64" d=" M 226.73 87.18 C 225.35 85.71 223.39 84.42 223.56 82.14 C 228.41 84.77 233.03 88.11 236.34 92.59 C 239.41 97.32 239.95 103.20 239.65 108.70 C 238.99 112.10 237.71 115.35 235.79 118.22 C 234.73 116.28 232.78 114.44 233.26 112.04 C 233.73 107.49 235.03 102.85 233.76 98.31 C 232.50 94.04 229.97 90.20 226.73 87.18 Z" />
<path fill="#8d9e9e" opacity="0.62" d=" M 33.72 87.69 C 37.03 86.20 40.49 85.04 43.99 84.08 C 43.88 84.51 43.68 85.36 43.57 85.79 C 42.92 86.17 42.26 86.52 41.58 86.85 C 38.97 87.79 36.36 88.73 33.83 89.88 C 35.53 91.76 37.63 93.20 39.91 94.28 L 39.80 94.55 C 38.72 97.12 37.22 99.52 35.07 101.34 C 32.60 97.20 33.81 92.24 33.72 87.69 Z" />
<path fill="#000c10" opacity="0.06" d=" M 163.50 99.57 C 168.06 89.92 178.86 85.08 188.96 83.81 C 194.71 83.40 201.02 82.66 206.23 85.71 C 209.91 87.59 212.04 91.29 214.79 94.22 C 217.32 96.97 218.94 100.37 220.64 103.67 C 220.40 103.85 219.92 104.19 219.68 104.37 C 217.68 105.75 215.73 107.20 214.01 108.93 C 213.35 108.21 212.69 107.49 212.03 106.77 C 207.06 106.55 202.06 106.52 197.19 107.66 C 195.54 106.89 193.92 105.81 192.03 105.81 C 182.57 105.53 173.08 106.20 163.64 105.39 C 163.22 103.50 162.40 101.39 163.50 99.57 Z" />
<path fill="#e2fcff" opacity="1.00" d=" M 11.25 99.96 C 12.64 94.81 14.03 89.64 16.08 84.69 C 17.43 85.24 18.78 85.78 20.13 86.33 C 17.91 91.94 16.27 97.76 14.81 103.61 C 13.19 102.85 11.91 101.65 11.25 99.96 Z" />
<path fill="#0075d6" opacity="0.93" d=" M 69.56 85.15 C 73.29 86.85 77.10 88.40 80.73 90.31 C 76.47 92.36 71.70 91.25 67.38 90.01 C 68.11 88.39 68.85 86.77 69.56 85.15 Z" />
<path fill="#9ff0f0" opacity="0.94" d=" M 41.58 86.85 C 42.26 86.52 42.92 86.17 43.57 85.79 C 43.90 88.99 43.36 92.17 42.43 95.22 L 41.84 95.08 C 41.33 94.95 40.31 94.68 39.80 94.55 L 39.91 94.28 C 40.87 91.91 41.28 89.37 41.58 86.85 Z" />
<path fill="#00e0ef" opacity="0.94" d=" M 43.57 85.79 C 44.50 85.75 46.36 85.67 47.28 85.63 C 46.99 88.99 46.59 92.33 46.00 95.66 C 45.11 95.55 43.32 95.33 42.43 95.22 C 43.36 92.17 43.90 88.99 43.57 85.79 Z" />
<path fill="#00aaee" opacity="0.93" d=" M 47.28 85.63 C 47.79 85.62 48.79 85.61 49.29 85.60 C 49.86 85.89 50.99 86.47 51.55 86.76 C 51.98 89.16 52.15 91.59 52.12 94.02 C 51.56 94.22 50.46 94.63 49.91 94.83 C 48.62 95.15 47.31 95.42 46.00 95.66 C 46.59 92.33 46.99 88.99 47.28 85.63 Z" />
<path fill="#f1f1f1" opacity="0.95" d=" M 33.83 89.88 C 36.36 88.73 38.97 87.79 41.58 86.85 C 41.28 89.37 40.87 91.91 39.91 94.28 C 37.63 93.20 35.53 91.76 33.83 89.88 Z" />
<path fill="#0080de" opacity="0.89" d=" M 51.55 86.76 C 52.22 87.12 52.89 87.50 53.54 87.89 C 54.71 89.11 55.78 90.42 56.81 91.76 C 55.29 92.60 53.72 93.35 52.12 94.02 C 52.15 91.59 51.98 89.16 51.55 86.76 Z" />
<path fill="#638d8d" opacity="0.55" d=" M 32.21 88.41 C 32.59 88.23 33.34 87.87 33.72 87.69 C 33.81 92.24 32.60 97.20 35.07 101.34 C 37.22 99.52 38.72 97.12 39.80 94.55 C 40.31 94.68 41.33 94.95 41.84 95.08 C 41.20 97.67 40.51 100.24 39.80 102.81 C 38.05 106.20 35.80 109.43 32.45 111.41 C 32.30 109.87 32.14 108.33 31.95 106.80 C 31.02 100.67 32.18 94.54 32.21 88.41 Z" />
<path fill="#003c62" opacity="0.42" d=" M 57.00 91.52 C 58.59 87.67 63.08 88.11 66.52 88.35 C 66.74 88.76 67.17 89.59 67.38 90.01 C 71.70 91.25 76.47 92.36 80.73 90.31 C 80.88 90.23 81.18 90.08 81.32 90.01 C 83.00 91.10 84.71 92.15 86.44 93.14 C 90.06 95.24 93.62 97.44 97.00 99.91 C 96.44 100.10 95.31 100.50 94.75 100.70 C 92.30 99.29 89.53 98.60 86.87 97.70 C 86.49 97.48 85.74 97.06 85.36 96.84 C 81.34 94.16 76.58 93.00 71.92 91.99 C 66.77 90.55 61.78 93.32 57.06 95.01 C 57.60 95.66 58.14 96.31 58.68 96.97 C 55.16 97.33 51.57 98.21 48.87 100.64 C 47.94 101.52 47.05 102.43 46.19 103.37 C 45.95 102.92 45.46 102.01 45.22 101.56 C 46.70 99.26 48.33 97.06 49.91 94.83 C 50.46 94.63 51.56 94.22 52.12 94.02 C 53.72 93.35 55.29 92.60 56.81 91.76 C 56.86 91.70 56.95 91.58 57.00 91.52 Z" />
<path fill="#00a1a1" opacity="0.63" d=" M 28.53 90.32 C 29.74 89.65 30.97 89.02 32.21 88.41 C 32.18 94.54 31.02 100.67 31.95 106.80 C 30.88 107.54 29.80 108.28 28.72 109.02 C 28.58 102.79 28.59 96.56 28.53 90.32 Z" />
<path fill="#005182" opacity="0.51" d=" M 157.19 98.30 C 160.17 95.98 162.31 92.75 163.38 89.13 C 164.20 89.34 165.03 89.55 165.86 89.76 C 163.02 93.70 160.51 97.87 157.82 101.92 C 156.70 103.66 154.95 105.69 155.87 107.89 C 157.35 111.01 159.42 113.80 161.33 116.66 C 160.35 116.52 159.37 116.39 158.38 116.25 C 159.58 120.54 163.22 123.28 165.15 127.13 C 160.48 123.88 156.13 119.24 150.06 119.01 C 146.75 119.51 144.48 122.17 141.80 123.90 C 138.07 124.08 134.49 122.57 131.06 121.27 C 129.86 120.19 128.71 119.05 127.57 117.91 C 131.02 114.81 135.95 114.84 139.98 112.89 C 146.82 110.32 153.28 105.16 155.09 97.80 C 153.58 97.54 152.08 97.27 150.57 97.00 C 152.20 95.87 153.80 94.69 155.39 93.51 L 155.69 94.08 C 156.19 95.49 156.68 96.90 157.19 98.30 Z" />
<path fill="#0071a3" opacity="0.64" d=" M 21.10 95.51 C 23.43 93.58 25.93 91.86 28.53 90.32 C 28.59 96.56 28.58 102.79 28.72 109.02 C 28.37 109.99 28.00 110.94 27.61 111.89 C 27.20 111.78 26.40 111.54 26.00 111.43 C 24.59 114.00 23.29 116.64 22.33 119.42 C 22.14 117.92 21.87 116.45 21.57 114.97 L 21.31 115.04 C 21.24 110.76 20.84 106.44 21.52 102.18 C 21.90 99.95 21.77 97.68 21.10 95.51 Z" />
<path fill="#002942" opacity="0.29" d=" M 57.06 95.01 C 61.78 93.32 66.77 90.55 71.92 91.99 C 76.58 93.00 81.34 94.16 85.36 96.84 C 80.17 96.28 75.14 93.88 69.87 94.65 C 68.49 94.71 67.47 95.68 66.46 96.50 C 65.17 96.07 63.85 95.72 62.54 95.34 C 62.29 97.75 62.08 100.16 62.00 102.58 C 61.38 100.81 60.95 98.98 60.55 97.15 C 60.00 98.59 59.43 100.03 58.91 101.48 C 58.85 99.97 58.77 98.47 58.68 96.97 C 58.14 96.31 57.60 95.66 57.06 95.01 Z" />
<path fill="#d9f7ff" opacity="1.00" d=" M 240.54 92.31 C 240.91 92.21 241.64 92.01 242.01 91.91 C 246.47 106.13 248.28 121.12 247.37 135.99 C 246.87 142.55 245.93 149.11 244.26 155.49 C 243.31 156.88 242.34 158.25 241.38 159.64 C 241.14 159.18 240.66 158.28 240.42 157.83 C 243.86 144.19 245.15 129.93 243.61 115.92 C 243.24 112.87 243.44 109.50 241.48 106.93 C 241.30 105.84 241.13 104.74 240.95 103.65 C 241.17 102.87 241.48 102.05 241.37 101.22 C 241.48 98.22 241.08 95.25 240.54 92.31 Z" />
<path fill="#001c2a" opacity="0.18" d=" M 69.87 94.65 C 75.14 93.88 80.17 96.28 85.36 96.84 C 85.74 97.06 86.49 97.48 86.87 97.70 C 90.78 101.43 95.00 104.86 98.26 109.21 C 97.39 108.91 96.52 108.61 95.66 108.30 C 91.70 105.69 88.59 101.69 83.93 100.26 C 79.63 99.03 74.88 97.53 70.61 99.71 C 69.34 98.50 67.94 97.44 66.46 96.50 C 67.47 95.68 68.49 94.71 69.87 94.65 Z" />
<path fill="#00797e" opacity="0.49" d=" M 41.84 95.08 L 42.43 95.22 C 43.32 95.33 45.11 95.55 46.00 95.66 C 47.31 95.42 48.62 95.15 49.91 94.83 C 48.33 97.06 46.70 99.26 45.22 101.56 C 43.49 104.13 41.59 106.58 39.84 109.13 C 39.86 107.02 39.77 104.91 39.80 102.81 C 40.51 100.24 41.20 97.67 41.84 95.08 Z" />
<path fill="#0087d7" opacity="0.88" d=" M 62.54 95.34 C 63.85 95.72 65.17 96.07 66.46 96.50 C 67.94 97.44 69.34 98.50 70.61 99.71 C 72.56 103.40 73.70 107.59 73.44 111.78 C 73.18 112.14 72.66 112.86 72.40 113.22 L 72.29 113.35 C 67.07 112.01 63.46 107.62 62.00 102.58 C 62.08 100.16 62.29 97.75 62.54 95.34 Z" />
<path fill="#005c98" opacity="0.65" d=" M 14.39 105.02 C 16.24 101.61 18.12 98.09 21.10 95.51 C 21.77 97.68 21.90 99.95 21.52 102.18 C 20.84 106.44 21.24 110.76 21.31 115.04 L 21.57 114.97 C 21.87 116.45 22.14 117.92 22.33 119.42 C 22.30 125.99 22.05 132.56 22.27 139.12 C 19.40 138.85 16.58 138.16 14.17 136.54 C 13.67 137.47 13.16 138.40 12.66 139.33 C 11.02 128.48 12.26 117.51 13.83 106.73 C 13.97 106.30 14.25 105.45 14.39 105.02 Z" />
<path fill="#008ee3" opacity="0.89" d=" M 48.87 100.64 C 51.57 98.21 55.16 97.33 58.68 96.97 C 58.77 98.47 58.85 99.97 58.91 101.48 C 58.51 105.38 57.22 109.22 54.54 112.16 C 53.73 112.79 52.88 113.39 52.02 113.96 L 51.22 114.44 C 51.85 110.15 52.00 105.81 51.75 101.49 C 51.03 101.28 49.59 100.86 48.87 100.64 Z" />
<path fill="#1a2126" opacity="0.15" d=" M 58.91 101.48 C 59.43 100.03 60.00 98.59 60.55 97.15 C 60.95 98.98 61.38 100.81 62.00 102.58 C 63.46 107.62 67.07 112.01 72.29 113.35 L 72.40 113.22 L 72.26 113.40 C 72.87 113.65 74.09 114.16 74.71 114.41 C 74.93 112.67 75.17 110.94 75.41 109.20 C 79.32 108.89 83.24 109.08 87.10 109.77 C 89.97 110.03 93.67 111.08 95.66 108.30 C 96.52 108.61 97.39 108.91 98.26 109.21 C 100.97 111.39 103.67 113.59 106.27 115.91 C 106.42 116.96 106.56 118.01 106.70 119.06 C 103.46 119.23 100.20 119.44 96.97 119.03 C 87.04 117.42 76.95 118.54 66.96 118.04 C 64.39 117.83 61.76 117.58 59.36 116.61 C 58.03 115.51 57.26 113.92 56.34 112.51 C 55.89 112.42 54.99 112.24 54.54 112.16 C 57.22 109.22 58.51 105.38 58.91 101.48 Z" />
<path fill="#005397" opacity="0.59" d=" M 143.71 101.41 C 146.03 100.00 148.33 98.54 150.57 97.00 C 152.08 97.27 153.58 97.54 155.09 97.80 C 153.28 105.16 146.82 110.32 139.98 112.89 C 135.95 114.84 131.02 114.81 127.57 117.91 C 128.71 119.05 129.86 120.19 131.06 121.27 C 130.62 122.30 130.17 123.33 129.73 124.37 C 125.33 120.72 120.72 117.29 116.76 113.15 C 126.26 110.61 135.33 106.53 143.71 101.41 Z" />
<path fill="#12181b" opacity="0.11" d=" M 70.61 99.71 C 74.88 97.53 79.63 99.03 83.93 100.26 C 88.59 101.69 91.70 105.69 95.66 108.30 C 93.67 111.08 89.97 110.03 87.10 109.77 C 83.24 109.08 79.32 108.89 75.41 109.20 C 75.17 110.94 74.93 112.67 74.71 114.41 C 74.09 114.16 72.87 113.65 72.26 113.40 L 72.40 113.22 C 72.66 112.86 73.18 112.14 73.44 111.78 C 73.70 107.59 72.56 103.40 70.61 99.71 Z" />
<path fill="#00314a" opacity="0.30" d=" M 86.87 97.70 C 89.53 98.60 92.30 99.29 94.75 100.70 C 100.17 105.44 104.98 110.84 110.55 115.41 C 114.74 119.01 118.42 123.15 122.79 126.55 C 123.51 127.74 124.20 128.95 124.86 130.18 C 122.63 128.77 120.47 127.25 118.26 125.80 C 113.66 123.27 110.08 119.43 106.27 115.91 C 103.67 113.59 100.97 111.39 98.26 109.21 C 95.00 104.86 90.78 101.43 86.87 97.70 Z" />
<path fill="#0b0f12" opacity="0.07" d=" M 98.80 98.08 C 104.15 99.07 109.60 99.14 115.02 99.18 C 124.58 100.34 134.57 97.29 143.71 101.41 C 135.33 106.53 126.26 110.61 116.76 113.15 C 120.72 117.29 125.33 120.72 129.73 124.37 C 132.18 126.34 134.75 128.15 137.31 129.98 L 137.83 131.41 C 134.09 128.67 130.29 126.01 126.71 123.05 C 117.75 114.70 107.77 107.62 97.83 100.51 C 98.15 99.70 98.47 98.89 98.80 98.08 Z" />
<path fill="#c4f6ff" opacity="1.00" d=" M 8.74 115.16 C 9.24 110.05 10.10 104.97 11.25 99.96 C 11.91 101.65 13.19 102.85 14.81 103.61 C 14.70 103.96 14.49 104.67 14.39 105.02 C 14.25 105.45 13.97 106.30 13.83 106.73 C 11.42 112.86 12.01 119.58 11.00 125.98 C 10.19 127.49 9.28 128.94 8.39 130.39 C 8.28 125.31 8.55 120.23 8.74 115.16 Z" />
<path fill="#004e82" opacity="0.53" d=" M 94.75 100.70 C 95.31 100.50 96.44 100.10 97.00 99.91 L 97.83 100.51 C 107.77 107.62 117.75 114.70 126.71 123.05 C 126.58 125.36 127.95 127.30 129.23 129.09 C 127.37 127.64 125.27 126.23 122.79 126.55 C 118.42 123.15 114.74 119.01 110.55 115.41 C 104.98 110.84 100.17 105.44 94.75 100.70 Z" />
<path fill="#00b1e6" opacity="0.90" d=" M 46.19 103.37 C 47.05 102.43 47.94 101.52 48.87 100.64 C 49.59 100.86 51.03 101.28 51.75 101.49 C 52.00 105.81 51.85 110.15 51.22 114.44 C 49.23 115.37 47.17 116.15 45.05 116.69 C 44.37 116.67 43.02 116.61 42.35 116.59 C 43.28 112.09 44.23 107.56 46.19 103.37 Z" />
<path fill="#00384f" opacity="0.31" d=" M 159.71 102.18 C 159.92 101.87 160.33 101.26 160.54 100.96 C 160.41 106.92 164.87 111.62 168.46 115.90 C 172.55 120.78 177.70 124.77 183.49 127.43 C 186.10 128.54 189.02 128.68 191.60 129.90 L 192.15 130.44 C 190.44 131.13 188.73 131.84 187.05 132.60 C 177.30 129.73 167.99 124.44 161.33 116.66 C 159.42 113.80 157.35 111.01 155.87 107.89 C 154.95 105.69 156.70 103.66 157.82 101.92 C 158.30 101.98 159.24 102.11 159.71 102.18 Z" />
<path fill="#005959" opacity="0.35" d=" M 45.22 101.56 C 45.46 102.01 45.95 102.92 46.19 103.37 C 44.23 107.56 43.28 112.09 42.35 116.59 C 43.02 116.61 44.37 116.67 45.05 116.69 C 44.44 117.74 43.82 118.78 43.22 119.83 C 42.40 121.23 41.61 122.64 40.91 124.10 C 40.45 124.25 39.53 124.54 39.07 124.69 C 39.29 119.69 39.95 114.71 39.72 109.70 L 39.84 109.13 C 41.59 106.58 43.49 104.13 45.22 101.56 Z" />
<path fill="#366f6f" opacity="0.44" d=" M 32.45 111.41 C 35.80 109.43 38.05 106.20 39.80 102.81 C 39.77 104.91 39.86 107.02 39.84 109.13 L 39.72 109.70 C 37.68 114.28 37.98 120.04 34.15 123.67 C 33.51 121.25 32.82 118.84 32.20 116.42 C 32.24 115.85 32.33 114.72 32.37 114.16 C 32.39 113.47 32.43 112.09 32.45 111.41 Z" />
<path fill="#08171e" opacity="0.12" d=" M 163.64 105.39 C 173.08 106.20 182.57 105.53 192.03 105.81 C 193.92 105.81 195.54 106.89 197.19 107.66 C 202.06 106.52 207.06 106.55 212.03 106.77 C 212.69 107.49 213.35 108.21 214.01 108.93 C 213.12 110.45 212.33 112.04 211.77 113.72 C 211.31 115.05 210.91 116.40 210.51 117.75 C 210.01 116.75 209.49 115.76 208.98 114.77 C 207.92 115.18 206.85 115.60 205.79 116.02 C 204.06 111.85 200.07 108.41 195.30 109.18 C 195.83 111.39 196.38 113.61 197.03 115.80 C 195.48 114.80 194.06 113.24 192.07 113.27 C 183.95 112.88 175.75 114.01 167.71 112.46 C 166.24 110.17 164.65 107.93 163.64 105.39 Z" />
<path fill="#16aee1" opacity="0.88" d=" M 214.01 108.93 C 215.73 107.20 217.68 105.75 219.68 104.37 C 220.16 105.43 220.66 106.49 221.13 107.56 C 218.53 112.18 216.46 117.81 211.43 120.32 C 211.38 118.11 211.51 115.91 211.77 113.72 C 212.33 112.04 213.12 110.45 214.01 108.93 Z" />
<path fill="#00dffa" opacity="0.98" d=" M 11.00 125.98 C 12.01 119.58 11.42 112.86 13.83 106.73 C 12.26 117.51 11.02 128.48 12.66 139.33 C 12.90 141.60 13.23 143.85 13.58 146.11 C 13.90 148.01 14.25 149.91 14.65 151.80 C 15.70 157.22 17.59 162.42 19.54 167.57 C 20.47 170.07 21.42 172.57 22.48 175.02 C 23.37 177.77 25.62 179.57 27.84 181.22 C 28.81 182.49 29.67 183.84 30.47 185.23 C 31.24 186.60 32.00 187.98 32.77 189.36 C 31.57 189.67 30.37 189.98 29.17 190.29 C 26.67 186.23 23.93 182.27 22.11 177.85 C 20.20 172.59 17.94 167.46 16.23 162.13 C 12.69 150.41 11.41 138.18 11.00 125.98 Z" />
<path fill="#00898d" opacity="0.55" d=" M 28.72 109.02 C 29.80 108.28 30.88 107.54 31.95 106.80 C 32.14 108.33 32.30 109.87 32.45 111.41 C 32.43 112.09 32.39 113.47 32.37 114.16 C 31.14 114.96 30.03 116.90 28.40 115.77 C 28.08 114.49 27.81 113.20 27.61 111.89 C 28.00 110.94 28.37 109.99 28.72 109.02 Z" />
<path fill="#00c4f1" opacity="0.95" d=" M 241.48 106.93 C 243.44 109.50 243.24 112.87 243.61 115.92 C 245.15 129.93 243.86 144.19 240.42 157.83 C 235.26 177.93 224.59 196.50 209.98 211.22 C 210.07 210.39 210.25 208.72 210.34 207.89 C 216.91 201.86 222.36 194.62 226.76 186.90 C 228.89 182.97 231.26 179.17 232.95 175.02 C 234.91 170.42 237.07 165.88 238.34 161.02 C 239.94 155.36 241.64 149.70 242.30 143.83 C 243.81 132.80 244.42 121.40 241.74 110.50 C 241.67 109.31 241.58 108.12 241.48 106.93 Z" />
<path fill="#30b3e3" opacity="0.89" d=" M 211.43 120.32 C 216.46 117.81 218.53 112.18 221.13 107.56 C 222.50 112.25 223.12 117.73 219.25 121.46 C 217.08 123.42 215.15 125.62 212.87 127.45 C 212.14 125.13 211.55 122.75 211.43 120.32 Z" />
<path fill="#00b3e2" opacity="0.89" d=" M 195.30 109.18 C 200.07 108.41 204.06 111.85 205.79 116.02 C 206.36 117.36 206.86 118.72 207.28 120.11 C 205.77 122.05 203.03 122.40 201.40 124.27 C 199.62 121.63 198.04 118.83 197.03 115.80 C 196.38 113.61 195.83 111.39 195.30 109.18 Z" />
<path fill="#1d2c33" opacity="0.20" d=" M 239.65 108.70 C 240.02 109.93 240.47 111.13 240.93 112.33 C 239.98 114.40 239.01 116.45 237.92 118.44 C 237.21 119.54 236.47 120.62 235.70 121.67 C 232.73 125.39 229.80 129.55 225.27 131.49 L 223.84 131.15 C 227.48 127.84 231.26 124.60 234.14 120.57 C 234.70 119.80 235.26 119.02 235.79 118.22 C 237.71 115.35 238.99 112.10 239.65 108.70 Z" />
<path fill="#156163" opacity="0.39" d=" M 34.15 123.67 C 37.98 120.04 37.68 114.28 39.72 109.70 C 39.95 114.71 39.29 119.69 39.07 124.69 C 39.53 124.54 40.45 124.25 40.91 124.10 C 40.84 126.69 40.93 129.28 40.86 131.87 C 40.78 134.03 40.64 136.20 40.66 138.37 C 40.40 137.92 39.88 137.01 39.62 136.56 C 39.26 136.52 38.54 136.43 38.18 136.38 C 36.60 132.22 35.38 127.94 34.15 123.67 Z" />
<path fill="#006a8d" opacity="0.55" d=" M 26.00 111.43 C 26.40 111.54 27.20 111.78 27.61 111.89 C 27.81 113.20 28.08 114.49 28.40 115.77 C 30.03 116.90 31.14 114.96 32.37 114.16 C 32.33 114.72 32.24 115.85 32.20 116.42 C 28.49 123.94 28.28 133.74 33.73 140.50 C 33.50 140.78 33.03 141.35 32.80 141.63 C 30.74 144.52 29.48 147.91 29.13 151.44 C 25.80 147.99 23.96 143.53 22.27 139.12 C 22.05 132.56 22.30 125.99 22.33 119.42 C 23.29 116.64 24.59 114.00 26.00 111.43 Z" />
<path fill="#006393" opacity="0.62" d=" M 241.74 110.50 C 244.42 121.40 243.81 132.80 242.30 143.83 C 241.86 143.76 240.98 143.60 240.54 143.52 C 238.81 146.87 236.67 150.02 233.74 152.43 C 233.74 150.50 233.68 148.56 233.46 146.64 C 239.08 138.55 240.91 127.85 237.92 118.44 C 239.01 116.45 239.98 114.40 240.93 112.33 L 241.74 110.50 Z" />
<path fill="#242f34" opacity="0.21" d=" M 52.02 113.96 C 52.88 113.39 53.73 112.79 54.54 112.16 C 54.99 112.24 55.89 112.42 56.34 112.51 C 57.26 113.92 58.03 115.51 59.36 116.61 C 61.76 117.58 64.39 117.83 66.96 118.04 C 76.95 118.54 87.04 117.42 96.97 119.03 C 100.20 119.44 103.46 119.23 106.70 119.06 C 106.56 118.01 106.42 116.96 106.27 115.91 C 110.08 119.43 113.66 123.27 118.26 125.80 L 118.38 126.67 C 118.42 128.01 118.44 129.35 118.46 130.70 C 111.29 130.79 104.18 129.56 97.01 129.85 C 88.00 129.84 79.00 129.76 70.00 129.87 C 65.68 129.88 61.41 131.29 57.09 130.70 C 53.98 129.85 52.14 126.83 51.27 123.92 C 51.18 120.58 51.57 117.26 52.02 113.96 Z" />
<path fill="#11242c" opacity="0.18" d=" M 167.71 112.46 C 175.75 114.01 183.95 112.88 192.07 113.27 C 194.06 113.24 195.48 114.80 197.03 115.80 C 198.04 118.83 199.62 121.63 201.40 124.27 C 203.19 126.53 205.51 128.36 208.40 128.91 C 208.16 125.96 207.83 123.02 207.28 120.11 C 206.86 118.72 206.36 117.36 205.79 116.02 C 206.85 115.60 207.92 115.18 208.98 114.77 C 209.49 115.76 210.01 116.75 210.51 117.75 C 210.91 116.40 211.31 115.05 211.77 113.72 C 211.51 115.91 211.38 118.11 211.43 120.32 C 211.55 122.75 212.14 125.13 212.87 127.45 C 210.14 129.14 207.11 130.26 204.27 131.74 C 200.83 128.45 195.87 129.22 191.60 129.90 C 189.02 128.68 186.10 128.54 183.49 127.43 C 177.70 124.77 172.55 120.78 168.46 115.90 C 168.23 114.75 167.97 113.60 167.71 112.46 Z" />
<path fill="#124146" opacity="0.27" d=" M 51.22 114.44 L 52.02 113.96 C 51.57 117.26 51.18 120.58 51.27 123.92 C 49.98 124.82 48.63 125.60 47.21 126.26 C 46.08 124.00 44.68 121.89 43.22 119.83 C 43.82 118.78 44.44 117.74 45.05 116.69 C 47.17 116.15 49.23 115.37 51.22 114.44 Z" />
<path fill="#6d9cc5" opacity="0.95" d=" M 7.07 117.69 C 7.15 116.46 7.26 115.24 7.39 114.02 L 8.74 115.16 C 8.55 120.23 8.28 125.31 8.39 130.39 C 8.40 133.83 8.61 137.27 8.82 140.71 C 8.51 142.27 8.11 143.81 7.79 145.37 C 7.46 143.00 7.20 140.62 7.06 138.23 C 6.59 131.39 6.60 124.53 7.07 117.69 Z" />
<path fill="#005d7e" opacity="0.49" d=" M 158.38 116.25 C 159.37 116.39 160.35 116.52 161.33 116.66 C 167.99 124.44 177.30 129.73 187.05 132.60 C 186.67 132.77 185.92 133.13 185.54 133.31 C 188.62 138.67 196.33 138.28 201.01 135.35 C 201.67 134.67 202.31 133.96 202.95 133.25 C 204.59 133.52 206.38 133.91 207.92 133.01 C 214.67 129.65 221.30 125.41 225.64 119.08 C 226.75 118.34 227.90 117.66 229.06 116.99 C 228.69 118.49 228.39 120.01 228.08 121.53 C 230.03 120.85 232.06 120.37 234.14 120.57 C 231.26 124.60 227.48 127.84 223.84 131.15 L 223.15 131.00 C 219.96 130.28 216.71 130.97 213.93 132.62 C 214.63 133.72 215.34 134.81 216.06 135.91 C 214.95 136.54 213.85 137.18 212.75 137.83 L 212.56 137.59 C 211.17 136.26 209.65 135.08 208.13 133.90 C 207.08 135.92 206.16 138.02 205.56 140.23 C 205.51 140.44 205.39 140.84 205.33 141.04 L 204.85 140.94 C 204.05 139.95 203.91 137.34 202.04 138.00 C 195.32 139.35 188.43 139.76 181.68 138.30 C 174.71 137.74 168.20 133.43 165.15 127.13 C 163.22 123.28 159.58 120.54 158.38 116.25 Z" />
<path fill="#006f71" opacity="0.45" d=" M 32.20 116.42 C 32.82 118.84 33.51 121.25 34.15 123.67 C 35.38 127.94 36.60 132.22 38.18 136.38 C 36.63 137.68 35.14 139.05 33.73 140.50 C 28.28 133.74 28.49 123.94 32.20 116.42 Z" />
<path fill="#01475f" opacity="0.37" d=" M 219.25 121.46 C 222.20 121.23 223.83 118.43 225.73 116.54 C 225.71 117.17 225.66 118.44 225.64 119.08 C 221.30 125.41 214.67 129.65 207.92 133.01 C 206.38 133.91 204.59 133.52 202.95 133.25 L 204.27 131.74 C 207.11 130.26 210.14 129.14 212.87 127.45 C 215.15 125.62 217.08 123.42 219.25 121.46 Z" />
<path fill="#313842" opacity="0.30" d=" M 6.26 129.05 C 6.49 125.28 5.63 121.29 7.07 117.69 C 6.60 124.53 6.59 131.39 7.06 138.23 C 5.75 135.36 6.45 132.10 6.26 129.05 Z" />
<path fill="#006892" opacity="0.57" d=" M 141.80 123.90 C 144.48 122.17 146.75 119.51 150.06 119.01 C 156.13 119.24 160.48 123.88 165.15 127.13 C 168.20 133.43 174.71 137.74 181.68 138.30 C 188.43 139.76 195.32 139.35 202.04 138.00 C 203.91 137.34 204.05 139.95 204.85 140.94 C 201.71 141.69 198.60 142.61 195.40 143.08 C 189.20 139.69 182.03 139.07 175.11 139.90 C 166.13 139.58 158.08 135.15 149.40 133.46 C 147.90 132.87 146.70 134.02 145.47 134.66 C 142.74 133.12 140.04 131.52 137.31 129.98 C 134.75 128.15 132.18 126.34 129.73 124.37 C 130.17 123.33 130.62 122.30 131.06 121.27 C 134.49 122.57 138.07 124.08 141.80 123.90 Z" />
<path fill="#005980" opacity="0.53" d=" M 235.70 121.67 C 236.47 120.62 237.21 119.54 237.92 118.44 C 240.91 127.85 239.08 138.55 233.46 146.64 C 233.28 145.93 232.93 144.52 232.75 143.82 C 232.56 143.00 232.35 142.19 232.14 141.38 C 233.18 138.53 234.77 135.88 235.52 132.94 C 236.13 129.21 235.75 125.42 235.70 121.67 Z" />
<path fill="#204d54" opacity="0.33" d=" M 43.22 119.83 C 44.68 121.89 46.08 124.00 47.21 126.26 C 47.82 128.47 48.20 130.72 48.53 132.99 L 48.55 132.94 C 48.67 133.36 48.92 134.18 49.05 134.60 C 48.35 135.03 46.95 135.91 46.25 136.34 C 44.57 134.72 42.71 133.30 40.86 131.87 C 40.93 129.28 40.84 126.69 40.91 124.10 C 41.61 122.64 42.40 121.23 43.22 119.83 Z" />
<path fill="#21bde3" opacity="0.89" d=" M 207.28 120.11 C 207.83 123.02 208.16 125.96 208.40 128.91 C 205.51 128.36 203.19 126.53 201.40 124.27 C 203.03 122.40 205.77 122.05 207.28 120.11 Z" />
<path fill="#004d6b" opacity="0.43" d=" M 225.27 131.49 C 229.80 129.55 232.73 125.39 235.70 121.67 C 235.75 125.42 236.13 129.21 235.52 132.94 C 234.77 135.88 233.18 138.53 232.14 141.38 C 231.50 140.17 230.82 138.99 230.16 137.80 C 228.91 135.44 227.41 133.14 225.27 131.49 Z" />
<path fill="#2d3c43" opacity="0.26" d=" M 47.21 126.26 C 48.63 125.60 49.98 124.82 51.27 123.92 C 52.14 126.83 53.98 129.85 57.09 130.70 C 61.41 131.29 65.68 129.88 70.00 129.87 C 79.00 129.76 88.00 129.84 97.01 129.85 C 104.18 129.56 111.29 130.79 118.46 130.70 C 118.44 129.35 118.42 128.01 118.38 126.67 C 120.75 129.01 123.12 131.38 125.75 133.43 C 123.28 137.25 118.73 135.42 115.00 135.80 C 112.67 135.78 110.45 136.56 108.32 137.41 C 103.22 135.17 97.52 134.19 91.99 134.88 C 90.67 135.85 91.88 137.37 92.46 138.35 C 80.33 139.07 68.15 138.69 56.01 138.78 C 52.97 139.11 50.94 136.54 49.05 134.60 C 48.92 134.18 48.67 133.36 48.55 132.94 L 48.53 132.99 C 48.20 130.72 47.82 128.47 47.21 126.26 Z" />
<path fill="#006c92" opacity="0.57" d=" M 129.23 129.09 C 127.95 127.30 126.58 125.36 126.71 123.05 C 130.29 126.01 134.09 128.67 137.83 131.41 C 140.23 133.34 142.90 134.90 145.57 136.42 C 145.29 138.48 147.47 139.18 148.83 140.11 C 151.52 141.58 154.25 143.14 156.07 145.70 C 155.30 145.53 153.78 145.18 153.01 145.00 C 151.05 144.07 149.10 143.11 147.15 142.13 C 141.06 137.95 135.00 133.72 129.23 129.09 Z" />
<path fill="#9afcff" opacity="1.00" d=" M 8.39 130.39 C 9.28 128.94 10.19 127.49 11.00 125.98 C 11.41 138.18 12.69 150.41 16.23 162.13 C 15.84 161.86 15.05 161.30 14.65 161.03 C 14.27 162.07 13.90 163.12 13.53 164.18 C 11.09 156.56 9.58 148.67 8.82 140.71 C 8.61 137.27 8.40 133.83 8.39 130.39 Z" />
<path fill="#005466" opacity="0.40" d=" M 118.26 125.80 C 120.47 127.25 122.63 128.77 124.86 130.18 C 124.20 128.95 123.51 127.74 122.79 126.55 C 125.27 126.23 127.37 127.64 129.23 129.09 C 135.00 133.72 141.06 137.95 147.15 142.13 C 144.80 141.81 141.58 139.18 139.80 141.90 C 136.55 140.47 133.33 138.92 130.56 136.66 C 129.00 135.52 127.36 134.50 125.75 133.43 C 123.12 131.38 120.75 129.01 118.38 126.67 L 118.26 125.80 Z" />
<path fill="#214654" opacity="0.33" d=" M 137.31 129.98 C 140.04 131.52 142.74 133.12 145.47 134.66 C 148.76 136.48 152.15 138.10 155.56 139.67 L 153.62 140.12 C 150.83 139.11 148.18 137.80 145.57 136.42 C 142.90 134.90 140.23 133.34 137.83 131.41 L 137.31 129.98 Z" />
<path fill="#1bc2e7" opacity="0.91" d=" M 191.60 129.90 C 195.87 129.22 200.83 128.45 204.27 131.74 L 202.95 133.25 C 202.31 133.96 201.67 134.67 201.01 135.35 C 197.70 134.45 194.27 133.34 192.15 130.44 L 191.60 129.90 Z" />
<path fill="#00c4e9" opacity="0.91" d=" M 187.05 132.60 C 188.73 131.84 190.44 131.13 192.15 130.44 C 194.27 133.34 197.70 134.45 201.01 135.35 C 196.33 138.28 188.62 138.67 185.54 133.31 C 185.92 133.13 186.67 132.77 187.05 132.60 Z" />
<path fill="#00aeed" opacity="0.93" d=" M 213.93 132.62 C 216.71 130.97 219.96 130.28 223.15 131.00 C 220.85 132.73 218.48 134.36 216.06 135.91 C 215.34 134.81 214.63 133.72 213.93 132.62 Z" />
<path fill="#59bce9" opacity="0.91" d=" M 223.15 131.00 L 223.84 131.15 L 225.27 131.49 C 227.41 133.14 228.91 135.44 230.16 137.80 C 230.43 139.81 230.64 141.82 230.85 143.83 C 228.48 143.97 226.11 144.08 223.75 144.06 C 223.45 144.05 222.85 144.04 222.55 144.04 C 220.28 141.41 218.08 138.73 216.06 135.91 C 218.48 134.36 220.85 132.73 223.15 131.00 Z" />
<path fill="#2f5d69" opacity="0.41" d=" M 40.86 131.87 C 42.71 133.30 44.57 134.72 46.25 136.34 C 48.84 139.29 51.67 142.05 54.99 144.17 C 59.87 143.15 64.78 144.57 69.68 144.40 C 72.39 147.42 76.98 148.79 78.33 152.88 C 75.73 153.27 73.18 153.92 70.61 154.44 C 66.17 153.55 61.63 154.06 57.16 153.59 C 51.98 152.54 47.43 149.66 43.00 146.91 C 42.69 145.27 42.40 143.62 41.99 142.00 C 41.62 140.76 41.13 139.57 40.66 138.37 C 40.64 136.20 40.78 134.03 40.86 131.87 Z" />
<path fill="#007da2" opacity="0.64" d=" M 145.47 134.66 C 146.70 134.02 147.90 132.87 149.40 133.46 C 158.08 135.15 166.13 139.58 175.11 139.90 C 174.60 140.82 174.10 141.74 173.60 142.66 C 172.37 142.93 171.14 143.19 169.90 143.43 C 164.99 142.74 160.28 141.13 155.56 139.67 C 152.15 138.10 148.76 136.48 145.47 134.66 Z" />
<path fill="#35444d" opacity="0.30" d=" M 115.00 135.80 C 118.73 135.42 123.28 137.25 125.75 133.43 C 127.36 134.50 129.00 135.52 130.56 136.66 C 130.30 137.93 130.04 139.21 129.77 140.49 C 124.64 140.23 119.26 139.23 114.36 141.32 C 112.45 139.87 110.42 138.57 108.32 137.41 C 110.45 136.56 112.67 135.78 115.00 135.80 Z" />
<path fill="#00b6ee" opacity="0.93" d=" M 208.13 133.90 C 209.65 135.08 211.17 136.26 212.56 137.59 C 210.26 138.56 207.93 139.45 205.56 140.23 C 206.16 138.02 207.08 135.92 208.13 133.90 Z" />
<path fill="#334b55" opacity="0.33" d=" M 46.25 136.34 C 46.95 135.91 48.35 135.03 49.05 134.60 C 50.94 136.54 52.97 139.11 56.01 138.78 C 68.15 138.69 80.33 139.07 92.46 138.35 C 93.58 139.97 94.72 141.56 95.83 143.18 C 87.09 142.44 78.43 144.62 69.68 144.40 C 64.78 144.57 59.87 143.15 54.99 144.17 C 51.67 142.05 48.84 139.29 46.25 136.34 Z" />
<path fill="#5cb9e8" opacity="0.91" d=" M 92.46 138.35 C 91.88 137.37 90.67 135.85 91.99 134.88 C 97.52 134.19 103.22 135.17 108.32 137.41 C 110.42 138.57 112.45 139.87 114.36 141.32 C 116.37 143.29 118.08 145.54 119.50 147.96 C 120.31 149.35 121.11 150.75 121.96 152.12 C 121.86 152.50 121.66 153.26 121.56 153.65 C 116.64 153.68 111.73 153.36 106.81 153.18 C 102.56 150.59 98.60 147.37 95.83 143.18 C 94.72 141.56 93.58 139.97 92.46 138.35 Z" />
<path fill="#0067a3" opacity="0.66" d=" M 14.17 136.54 C 16.58 138.16 19.40 138.85 22.27 139.12 C 23.96 143.53 25.80 147.99 29.13 151.44 C 29.16 151.87 29.22 152.72 29.25 153.15 C 28.75 153.27 27.74 153.52 27.24 153.64 C 23.71 150.22 19.93 147.08 16.28 143.81 C 15.38 144.57 14.48 145.34 13.58 146.11 C 13.23 143.85 12.90 141.60 12.66 139.33 C 13.16 138.40 13.67 137.47 14.17 136.54 Z" />
<path fill="#00d2ec" opacity="0.93" d=" M 38.18 136.38 C 38.54 136.43 39.26 136.52 39.62 136.56 C 39.88 137.01 40.40 137.92 40.66 138.37 C 41.13 139.57 41.62 140.76 41.99 142.00 C 42.77 146.20 41.61 150.56 38.97 153.89 C 37.97 154.82 36.93 155.70 35.88 156.57 C 32.77 152.24 33.54 146.63 32.80 141.63 C 33.03 141.35 33.50 140.78 33.73 140.50 C 35.14 139.05 36.63 137.68 38.18 136.38 Z" />
<path fill="#395961" opacity="0.38" d=" M 212.75 137.83 C 213.85 137.18 214.95 136.54 216.06 135.91 C 218.08 138.73 220.28 141.41 222.55 144.04 C 219.87 144.13 217.35 145.29 215.35 147.06 C 215.34 145.57 215.28 144.08 215.16 142.60 C 214.48 140.95 213.65 139.36 212.75 137.83 Z" />
<path fill="#577ea8" opacity="0.87" d=" M 247.37 135.99 C 247.75 136.03 248.50 136.12 248.88 136.17 C 247.05 165.14 234.32 193.27 213.71 213.71 C 193.34 234.37 165.30 247.29 136.34 249.19 C 130.48 249.19 124.63 249.27 118.77 249.13 C 118.25 249.05 117.21 248.89 116.69 248.81 C 117.89 248.35 119.08 247.90 120.28 247.45 C 146.77 249.08 173.76 241.74 195.61 226.63 C 219.87 210.05 237.90 184.25 244.26 155.49 C 245.93 149.11 246.87 142.55 247.37 135.99 Z" />
<path fill="#3f5059" opacity="0.35" d=" M 130.56 136.66 C 133.33 138.92 136.55 140.47 139.80 141.90 C 140.38 142.21 141.54 142.82 142.13 143.12 C 141.91 144.57 141.68 146.01 141.45 147.45 C 134.16 147.28 126.64 145.98 119.50 147.96 C 118.08 145.54 116.37 143.29 114.36 141.32 C 119.26 139.23 124.64 140.23 129.77 140.49 C 130.04 139.21 130.30 137.93 130.56 136.66 Z" />
<path fill="#00839c" opacity="0.61" d=" M 148.83 140.11 C 147.47 139.18 145.29 138.48 145.57 136.42 C 148.18 137.80 150.83 139.11 153.62 140.12 C 160.63 143.08 168.13 144.80 175.70 145.45 C 174.83 146.91 173.95 148.36 173.05 149.80 C 167.40 148.41 161.45 148.10 156.07 145.70 C 154.25 143.14 151.52 141.58 148.83 140.11 Z" />
<path fill="#51c6ea" opacity="0.92" d=" M 205.56 140.23 C 207.93 139.45 210.26 138.56 212.56 137.59 L 212.75 137.83 C 213.65 139.36 214.48 140.95 215.16 142.60 C 211.97 143.43 208.84 144.52 205.84 145.87 C 205.66 144.00 205.62 142.11 205.56 140.23 Z" />
<path fill="#326c83" opacity="0.51" d=" M 230.16 137.80 C 230.82 138.99 231.50 140.17 232.14 141.38 C 232.35 142.19 232.56 143.00 232.75 143.82 C 232.37 146.05 231.83 148.25 231.16 150.41 C 229.90 150.15 228.64 149.89 227.39 149.63 C 226.88 148.83 226.38 148.02 225.88 147.22 C 226.53 146.65 227.18 146.07 227.83 145.49 C 226.47 145.00 225.12 144.50 223.75 144.06 C 226.11 144.08 228.48 143.97 230.85 143.83 C 230.64 141.82 230.43 139.81 230.16 137.80 Z" />
<path fill="#2c6372" opacity="0.45" d=" M 139.80 141.90 C 141.58 139.18 144.80 141.81 147.15 142.13 C 149.10 143.11 151.05 144.07 153.01 145.00 C 153.83 145.72 154.63 146.45 155.41 147.21 C 150.72 146.94 146.21 145.40 142.13 143.12 C 141.54 142.82 140.38 142.21 139.80 141.90 Z" />
<path fill="#3f5059" opacity="0.35" d=" M 153.62 140.12 L 155.56 139.67 C 160.28 141.13 164.99 142.74 169.90 143.43 C 171.78 143.72 173.67 143.95 175.57 144.13 C 179.99 144.59 184.45 144.53 188.88 144.21 C 189.75 144.49 190.62 144.79 191.48 145.12 L 191.81 145.52 C 186.44 145.37 181.06 145.82 175.70 145.45 C 168.13 144.80 160.63 143.08 153.62 140.12 Z" />
<path fill="#038b96" opacity="0.59" d=" M 175.11 139.90 C 182.03 139.07 189.20 139.69 195.40 143.08 C 193.70 143.37 192.01 143.68 190.31 143.97 C 186.03 140.83 179.46 139.87 175.57 144.13 C 173.67 143.95 171.78 143.72 169.90 143.43 C 171.14 143.19 172.37 142.93 173.60 142.66 C 174.10 141.74 174.60 140.82 175.11 139.90 Z" />
<path fill="#52646d" opacity="0.43" d=" M 205.33 141.04 C 205.39 140.84 205.51 140.44 205.56 140.23 C 205.62 142.11 205.66 144.00 205.84 145.87 C 206.51 148.09 207.40 150.24 208.47 152.30 C 203.89 153.36 199.18 153.03 194.54 152.64 C 194.44 151.11 194.34 149.59 194.21 148.07 C 193.75 147.60 192.82 146.68 192.36 146.21 L 191.81 145.52 L 191.48 145.12 C 196.05 145.86 200.43 144.04 204.77 142.91 C 204.91 142.44 205.19 141.51 205.33 141.04 Z" />
<path fill="#5b8bb5" opacity="0.85" d=" M 7.79 145.37 C 8.11 143.81 8.51 142.27 8.82 140.71 C 9.58 148.67 11.09 156.56 13.53 164.18 C 15.24 169.42 17.12 174.63 19.65 179.54 C 20.93 182.27 22.40 184.91 23.76 187.60 C 23.75 188.25 23.74 189.56 23.74 190.22 C 15.15 176.75 10.03 161.12 7.79 145.37 Z" />
<path fill="#669b9b" opacity="0.61" d=" M 175.57 144.13 C 179.46 139.87 186.03 140.83 190.31 143.97 L 188.88 144.21 C 184.45 144.53 179.99 144.59 175.57 144.13 Z" />
<path fill="#3b5761" opacity="0.38" d=" M 195.40 143.08 C 198.60 142.61 201.71 141.69 204.85 140.94 L 205.33 141.04 C 205.19 141.51 204.91 142.44 204.77 142.91 C 200.43 144.04 196.05 145.86 191.48 145.12 C 190.62 144.79 189.75 144.49 188.88 144.21 L 190.31 143.97 C 192.01 143.68 193.70 143.37 195.40 143.08 Z" />
<path fill="#00aaf0" opacity="0.94" d=" M 29.13 151.44 C 29.48 147.91 30.74 144.52 32.80 141.63 C 33.54 146.63 32.77 152.24 35.88 156.57 C 34.33 157.76 32.68 158.82 30.97 159.76 C 30.58 159.81 29.80 159.92 29.41 159.97 C 29.41 157.69 29.39 155.42 29.25 153.15 C 29.22 152.72 29.16 151.87 29.13 151.44 Z" />
<path fill="#337b85" opacity="0.52" d=" M 41.99 142.00 C 42.40 143.62 42.69 145.27 43.00 146.91 C 47.43 149.66 51.98 152.54 57.16 153.59 C 61.63 154.06 66.17 153.55 70.61 154.44 C 73.66 155.17 77.13 155.22 79.55 157.48 L 78.76 158.06 L 79.91 158.67 C 77.72 159.54 75.44 160.17 73.11 160.51 C 76.67 160.95 80.12 161.93 83.57 162.87 L 82.18 164.08 C 73.83 163.70 65.50 162.99 57.16 162.62 C 51.74 160.81 46.89 157.28 41.00 156.89 C 40.34 155.87 39.65 154.88 38.97 153.89 C 41.61 150.56 42.77 146.20 41.99 142.00 Z" />
<path fill="#3e5a67" opacity="0.40" d=" M 69.68 144.40 C 78.43 144.62 87.09 142.44 95.83 143.18 C 98.60 147.37 102.56 150.59 106.81 153.18 C 105.02 153.23 103.24 153.33 101.45 153.34 C 93.75 152.88 86.03 153.34 78.33 152.88 C 76.98 148.79 72.39 147.42 69.68 144.40 Z" />
<path fill="#4a606d" opacity="0.43" d=" M 142.13 143.12 C 146.21 145.40 150.72 146.94 155.41 147.21 C 157.10 148.79 158.25 150.80 159.24 152.86 C 147.24 153.58 135.20 152.65 123.20 153.42 C 122.89 153.09 122.27 152.44 121.96 152.12 C 121.11 150.75 120.31 149.35 119.50 147.96 C 126.64 145.98 134.16 147.28 141.45 147.45 C 141.68 146.01 141.91 144.57 142.13 143.12 Z" />
<path fill="#74d1e9" opacity="0.91" d=" M 205.84 145.87 C 208.84 144.52 211.97 143.43 215.16 142.60 C 215.28 144.08 215.34 145.57 215.35 147.06 C 215.08 147.59 214.54 148.65 214.28 149.18 C 213.17 151.23 211.64 153.00 210.08 154.71 C 209.53 153.91 208.99 153.11 208.47 152.30 C 207.40 150.24 206.51 148.09 205.84 145.87 Z" />
<path fill="#007fa7" opacity="0.69" d=" M 240.54 143.52 C 240.98 143.60 241.86 143.76 242.30 143.83 C 241.64 149.70 239.94 155.36 238.34 161.02 C 236.49 161.24 234.64 161.44 232.79 161.60 C 233.20 158.56 233.57 155.50 233.74 152.43 C 236.67 150.02 238.81 146.87 240.54 143.52 Z" />
<path fill="#0078b0" opacity="0.70" d=" M 13.58 146.11 C 14.48 145.34 15.38 144.57 16.28 143.81 C 19.93 147.08 23.71 150.22 27.24 153.64 C 27.74 153.52 28.75 153.27 29.25 153.15 C 29.39 155.42 29.41 157.69 29.41 159.97 C 25.94 159.68 23.69 156.84 21.08 154.92 C 19.19 153.42 16.87 152.64 14.65 151.80 C 14.25 149.91 13.90 148.01 13.58 146.11 Z" />
<path fill="#4c676e" opacity="0.43" d=" M 215.35 147.06 C 217.35 145.29 219.87 144.13 222.55 144.04 C 222.85 144.04 223.45 144.05 223.75 144.06 C 225.12 144.50 226.47 145.00 227.83 145.49 C 227.18 146.07 226.53 146.65 225.88 147.22 C 224.05 148.45 222.10 149.48 220.18 150.55 C 218.20 150.11 216.24 149.65 214.28 149.18 C 214.54 148.65 215.08 147.59 215.35 147.06 Z" />
<path fill="#2e85a3" opacity="0.65" d=" M 231.16 150.41 C 231.83 148.25 232.37 146.05 232.75 143.82 C 232.93 144.52 233.28 145.93 233.46 146.64 C 233.68 148.56 233.74 150.50 233.74 152.43 C 233.57 155.50 233.20 158.56 232.79 161.60 L 232.25 161.65 C 231.94 161.69 231.30 161.76 230.99 161.80 C 230.10 162.95 229.31 164.16 228.49 165.36 C 227.92 165.52 226.80 165.83 226.24 165.99 C 226.35 164.78 226.49 163.57 226.66 162.37 C 227.23 160.37 227.86 158.38 228.51 156.41 C 229.29 154.36 230.31 152.42 231.16 150.41 Z" />
<path fill="#526e7e" opacity="0.49" d=" M 153.01 145.00 C 153.78 145.18 155.30 145.53 156.07 145.70 C 161.45 148.10 167.40 148.41 173.05 149.80 C 173.47 151.65 174.02 153.47 174.81 155.20 C 175.31 156.36 175.81 157.53 176.39 158.66 C 168.57 158.79 160.82 160.17 152.98 159.80 C 144.48 160.04 135.96 159.27 127.49 160.23 C 121.77 159.48 116.00 160.02 110.26 159.75 C 106.94 158.32 102.44 157.39 101.45 153.34 C 103.24 153.33 105.02 153.23 106.81 153.18 C 111.73 153.36 116.64 153.68 121.56 153.65 C 121.66 153.26 121.86 152.50 121.96 152.12 C 122.27 152.44 122.89 153.09 123.20 153.42 C 135.20 152.65 147.24 153.58 159.24 152.86 C 158.25 150.80 157.10 148.79 155.41 147.21 C 154.63 146.45 153.83 145.72 153.01 145.00 Z" />
<path fill="#929292" opacity="0.57" d=" M 175.70 145.45 C 181.06 145.82 186.44 145.37 191.81 145.52 L 192.36 146.21 L 192.44 147.54 C 186.14 148.91 179.52 151.20 173.05 149.80 C 173.95 148.36 174.83 146.91 175.70 145.45 Z" />
<path fill="#647179" opacity="0.47" d=" M 192.36 146.21 C 192.82 146.68 193.75 147.60 194.21 148.07 C 194.34 149.59 194.44 151.11 194.54 152.64 C 199.18 153.03 203.89 153.36 208.47 152.30 C 208.99 153.11 209.53 153.91 210.08 154.71 C 211.64 153.00 213.17 151.23 214.28 149.18 C 216.24 149.65 218.20 150.11 220.18 150.55 C 220.14 151.62 220.11 152.69 220.08 153.76 C 210.89 156.30 201.09 159.14 191.61 156.52 C 192.81 153.64 192.82 150.57 192.44 147.54 L 192.36 146.21 Z" />
<path fill="#487686" opacity="0.53" d=" M 220.18 150.55 C 222.10 149.48 224.05 148.45 225.88 147.22 C 226.38 148.02 226.88 148.83 227.39 149.63 C 228.64 149.89 229.90 150.15 231.16 150.41 C 230.31 152.42 229.29 154.36 228.51 156.41 C 227.66 156.07 225.96 155.40 225.10 155.07 C 223.47 154.50 221.77 154.10 220.08 153.76 C 220.11 152.69 220.14 151.62 220.18 150.55 Z" />
<path fill="#777777" opacity="0.47" d=" M 173.05 149.80 C 179.52 151.20 186.14 148.91 192.44 147.54 C 192.82 150.57 192.81 153.64 191.61 156.52 C 185.98 157.56 180.10 157.70 174.81 155.20 C 174.02 153.47 173.47 151.65 173.05 149.80 Z" />
<path fill="#0091c0" opacity="0.75" d=" M 14.65 151.80 C 16.87 152.64 19.19 153.42 21.08 154.92 C 23.69 156.84 25.94 159.68 29.41 159.97 C 29.80 159.92 30.58 159.81 30.97 159.76 C 31.27 161.13 31.57 162.49 31.80 163.87 C 31.87 165.91 31.79 167.95 31.77 169.99 C 27.62 169.53 23.78 167.28 19.54 167.57 C 17.59 162.42 15.70 157.22 14.65 151.80 Z" />
<path fill="#417285" opacity="0.52" d=" M 70.61 154.44 C 73.18 153.92 75.73 153.27 78.33 152.88 C 86.03 153.34 93.75 152.88 101.45 153.34 C 102.44 157.39 106.94 158.32 110.26 159.75 C 107.74 159.82 105.23 160.15 102.74 160.57 C 103.01 161.25 103.56 162.63 103.83 163.32 C 97.10 162.64 90.32 162.83 83.57 162.87 C 80.12 161.93 76.67 160.95 73.11 160.51 C 75.44 160.17 77.72 159.54 79.91 158.67 L 78.76 158.06 L 79.55 157.48 C 77.13 155.22 73.66 155.17 70.61 154.44 Z" />
<path fill="#009ca3" opacity="0.64" d=" M 35.88 156.57 C 36.93 155.70 37.97 154.82 38.97 153.89 C 39.65 154.88 40.34 155.87 41.00 156.89 C 41.43 159.03 41.43 161.22 41.47 163.40 C 41.12 163.51 40.44 163.73 40.09 163.84 C 37.33 163.98 34.57 163.91 31.80 163.87 C 31.57 162.49 31.27 161.13 30.97 159.76 C 32.68 158.82 34.33 157.76 35.88 156.57 Z" />
<path fill="#71848d" opacity="0.55" d=" M 191.61 156.52 C 201.09 159.14 210.89 156.30 220.08 153.76 C 221.77 154.10 223.47 154.50 225.10 155.07 C 223.59 157.09 221.89 159.33 222.71 162.02 C 221.66 163.36 220.58 164.67 219.48 165.96 C 217.92 165.27 216.35 164.59 214.79 163.92 C 208.57 166.77 201.68 166.78 195.03 167.70 C 191.96 168.06 189.15 166.52 186.31 165.62 C 182.80 164.21 178.20 163.77 176.18 167.68 C 175.81 168.13 175.09 169.03 174.72 169.47 C 174.63 169.13 174.44 168.44 174.34 168.10 C 174.09 166.72 173.87 165.35 173.68 163.97 C 175.23 162.61 176.88 161.35 178.45 160.01 C 177.93 159.67 176.90 159.00 176.39 158.66 C 175.81 157.53 175.31 156.36 174.81 155.20 C 180.10 157.70 185.98 157.56 191.61 156.52 Z" />
<path fill="#528a9e" opacity="0.62" d=" M 222.71 162.02 C 221.89 159.33 223.59 157.09 225.10 155.07 C 225.96 155.40 227.66 156.07 228.51 156.41 C 227.86 158.38 227.23 160.37 226.66 162.37 C 225.67 162.28 223.70 162.11 222.71 162.02 Z" />
<path fill="#a7ffff" opacity="1.00" d=" M 241.38 159.64 C 242.34 158.25 243.31 156.88 244.26 155.49 C 237.90 184.25 219.87 210.05 195.61 226.63 C 173.76 241.74 146.77 249.08 120.28 247.45 C 114.71 246.82 109.09 246.41 103.65 244.99 C 105.00 244.84 106.35 244.69 107.70 244.52 C 107.51 244.08 107.14 243.19 106.95 242.75 C 110.69 243.28 114.44 243.81 118.21 244.01 C 133.08 245.46 148.11 243.59 162.47 239.61 C 164.73 238.91 166.95 238.08 169.14 237.18 C 183.41 231.77 196.58 223.62 207.83 213.32 C 208.56 212.63 209.28 211.93 209.98 211.22 C 224.59 196.50 235.26 177.93 240.42 157.83 C 240.66 158.28 241.14 159.18 241.38 159.64 Z" />
<path fill="#39999f" opacity="0.62" d=" M 41.00 156.89 C 46.89 157.28 51.74 160.81 57.16 162.62 C 65.50 162.99 73.83 163.70 82.18 164.08 C 85.06 164.80 87.94 165.69 90.79 166.38 C 90.44 166.73 89.72 167.42 89.36 167.76 C 91.03 168.41 92.69 169.08 94.38 169.66 C 92.47 169.92 90.57 170.25 88.68 170.60 C 88.63 171.41 88.57 172.22 88.51 173.04 C 82.03 172.24 75.58 170.98 69.02 171.09 C 64.11 171.15 59.10 170.61 54.65 168.38 C 50.53 166.33 45.97 165.59 41.52 164.60 C 41.51 164.30 41.48 163.70 41.47 163.40 C 41.43 161.22 41.43 159.03 41.00 156.89 Z" />
<path fill="#5b7b8e" opacity="0.56" d=" M 152.98 159.80 C 160.82 160.17 168.57 158.79 176.39 158.66 C 176.90 159.00 177.93 159.67 178.45 160.01 C 176.88 161.35 175.23 162.61 173.68 163.97 C 164.26 163.81 154.82 165.07 145.44 163.68 C 139.74 161.17 133.39 161.89 127.49 160.23 C 135.96 159.27 144.48 160.04 152.98 159.80 Z" />
<path fill="#4e7990" opacity="0.56" d=" M 102.74 160.57 C 105.23 160.15 107.74 159.82 110.26 159.75 C 116.00 160.02 121.77 159.48 127.49 160.23 C 133.39 161.89 139.74 161.17 145.44 163.68 C 143.10 164.16 140.78 164.77 138.46 165.33 C 126.90 165.00 115.27 165.22 103.83 163.32 C 103.56 162.63 103.01 161.25 102.74 160.57 Z" />
<path fill="#b7ffff" opacity="1.00" d=" M 13.53 164.18 C 13.90 163.12 14.27 162.07 14.65 161.03 C 15.05 161.30 15.84 161.86 16.23 162.13 C 17.94 167.46 20.20 172.59 22.11 177.85 C 21.66 177.72 20.77 177.45 20.33 177.32 C 20.16 177.88 19.82 178.99 19.65 179.54 C 17.12 174.63 15.24 169.42 13.53 164.18 Z" />
<path fill="#3fa1c1" opacity="0.76" d=" M 230.99 161.80 C 231.30 161.76 231.94 161.69 232.25 161.65 C 231.44 164.89 230.57 168.17 228.82 171.05 C 227.66 172.64 226.40 174.16 225.26 175.77 C 224.68 173.97 224.13 172.16 223.51 170.37 C 224.45 168.93 225.36 167.47 226.24 165.99 C 226.80 165.83 227.92 165.52 228.49 165.36 C 229.31 164.16 230.10 162.95 230.99 161.80 Z" />
<path fill="#0098c0" opacity="0.78" d=" M 232.79 161.60 C 234.64 161.44 236.49 161.24 238.34 161.02 C 237.07 165.88 234.91 170.42 232.95 175.02 C 231.57 173.70 230.19 172.37 228.82 171.05 C 230.57 168.17 231.44 164.89 232.25 161.65 L 232.79 161.60 Z" />
<path fill="#5e9cb0" opacity="0.69" d=" M 222.71 162.02 C 223.70 162.11 225.67 162.28 226.66 162.37 C 226.49 163.57 226.35 164.78 226.24 165.99 C 225.36 167.47 224.45 168.93 223.51 170.37 L 223.20 169.92 C 221.91 169.32 220.60 168.79 219.28 168.27 C 219.33 167.69 219.43 166.54 219.48 165.96 C 220.58 164.67 221.66 163.36 222.71 162.02 Z" />
<path fill="#42b3b5" opacity="0.71" d=" M 40.09 163.84 C 40.44 163.73 41.12 163.51 41.47 163.40 C 41.48 163.70 41.51 164.30 41.52 164.60 C 45.97 165.59 50.53 166.33 54.65 168.38 C 59.10 170.61 64.11 171.15 69.02 171.09 C 75.58 170.98 82.03 172.24 88.51 173.04 L 88.46 173.57 C 87.28 174.16 86.08 174.70 84.88 175.26 C 85.96 176.11 87.05 176.96 88.18 177.76 C 84.95 178.17 81.71 178.45 78.46 178.22 C 78.54 179.73 78.61 181.24 78.67 182.75 C 76.33 182.67 73.99 182.77 71.66 183.02 C 69.47 182.06 67.33 180.98 65.15 179.99 C 63.09 176.49 59.07 175.21 55.69 173.39 C 51.72 171.38 47.15 169.13 42.64 170.69 C 40.43 172.13 39.30 174.65 37.71 176.67 C 37.44 176.60 36.92 176.44 36.65 176.37 C 34.50 175.40 32.30 175.99 30.23 176.86 C 30.69 175.96 31.14 175.06 31.59 174.15 C 32.92 173.43 34.24 172.70 35.54 171.94 C 38.44 170.25 38.85 166.66 40.09 163.84 Z" />
<path fill="#43849f" opacity="0.62" d=" M 83.57 162.87 C 90.32 162.83 97.10 162.64 103.83 163.32 C 115.27 165.22 126.90 165.00 138.46 165.33 C 143.70 167.02 149.48 166.33 154.48 168.92 C 154.47 169.39 154.45 170.33 154.44 170.79 C 147.63 170.09 140.79 170.45 133.96 170.33 C 129.59 170.23 125.43 171.94 121.06 171.92 C 116.19 171.95 111.38 170.59 106.49 171.21 C 102.42 170.98 98.38 170.42 94.38 169.66 C 92.69 169.08 91.03 168.41 89.36 167.76 C 89.72 167.42 90.44 166.73 90.79 166.38 C 87.94 165.69 85.06 164.80 82.18 164.08 L 83.57 162.87 Z" />
<path fill="#00acb8" opacity="0.72" d=" M 31.80 163.87 C 34.57 163.91 37.33 163.98 40.09 163.84 C 38.85 166.66 38.44 170.25 35.54 171.94 C 34.30 171.26 33.06 170.58 31.77 169.99 C 31.79 167.95 31.87 165.91 31.80 163.87 Z" />
<path fill="#5d859c" opacity="0.61" d=" M 138.46 165.33 C 140.78 164.77 143.10 164.16 145.44 163.68 C 154.82 165.07 164.26 163.81 173.68 163.97 C 173.87 165.35 174.09 166.72 174.34 168.10 C 170.23 169.24 165.91 168.95 161.76 169.85 C 160.38 167.14 157.69 165.50 154.64 166.38 C 154.60 167.01 154.52 168.29 154.48 168.92 C 149.48 166.33 143.70 167.02 138.46 165.33 Z" />
<path fill="#7e9ba9" opacity="0.66" d=" M 195.03 167.70 C 201.68 166.78 208.57 166.77 214.79 163.92 C 216.35 164.59 217.92 165.27 219.48 165.96 C 219.43 166.54 219.33 167.69 219.28 168.27 C 218.01 169.40 216.71 170.58 214.99 170.95 C 208.49 172.70 202.38 177.01 195.34 175.61 C 192.81 174.09 190.13 172.49 187.04 172.99 C 182.77 173.41 178.29 173.07 174.91 170.12 L 174.72 169.47 C 175.09 169.03 175.81 168.13 176.18 167.68 C 177.25 168.62 178.26 169.66 179.45 170.45 C 181.85 171.47 184.45 170.41 186.82 169.84 C 186.66 168.43 186.49 167.02 186.31 165.62 C 189.15 166.52 191.96 168.06 195.03 167.70 Z" />
<path fill="#9c9e9e" opacity="0.62" d=" M 176.18 167.68 C 178.20 163.77 182.80 164.21 186.31 165.62 C 186.49 167.02 186.66 168.43 186.82 169.84 C 184.45 170.41 181.85 171.47 179.45 170.45 C 178.26 169.66 177.25 168.62 176.18 167.68 Z" />
<path fill="#0098f2" opacity="0.95" d=" M 154.64 166.38 C 157.69 165.50 160.38 167.14 161.76 169.85 C 162.18 170.98 162.58 172.11 162.96 173.25 L 162.90 173.54 C 162.35 175.23 161.78 176.92 161.23 178.62 C 159.61 178.69 158.00 178.78 156.38 178.89 C 156.15 176.54 155.89 174.20 155.61 171.85 C 155.24 174.91 154.87 177.98 154.11 180.98 C 154.47 177.59 154.37 174.19 154.44 170.79 C 154.45 170.33 154.47 169.39 154.48 168.92 C 154.52 168.29 154.60 167.01 154.64 166.38 Z" />
<path fill="#00adce" opacity="0.81" d=" M 19.54 167.57 C 23.78 167.28 27.62 169.53 31.77 169.99 C 33.06 170.58 34.30 171.26 35.54 171.94 C 34.24 172.70 32.92 173.43 31.59 174.15 C 28.52 173.91 25.41 173.98 22.48 175.02 C 21.42 172.57 20.47 170.07 19.54 167.57 Z" />
<path fill="#5a8daa" opacity="0.67" d=" M 161.76 169.85 C 165.91 168.95 170.23 169.24 174.34 168.10 C 174.44 168.44 174.63 169.13 174.72 169.47 L 174.91 170.12 C 175.32 171.65 175.64 173.21 175.95 174.77 C 171.64 174.09 167.23 174.24 162.96 173.25 C 162.58 172.11 162.18 170.98 161.76 169.85 Z" />
<path fill="#7da8bb" opacity="0.73" d=" M 219.28 168.27 C 220.60 168.79 221.91 169.32 223.20 169.92 C 221.82 171.59 220.38 173.22 218.96 174.85 C 215.46 174.94 212.78 177.32 209.67 178.56 C 205.29 180.26 200.89 182.18 196.13 182.44 C 195.05 181.01 193.95 179.59 192.84 178.18 C 193.67 177.32 194.51 176.46 195.34 175.61 C 202.38 177.01 208.49 172.70 214.99 170.95 C 216.71 170.58 218.01 169.40 219.28 168.27 Z" />
<path fill="#76bfbf" opacity="0.75" d=" M 42.64 170.69 C 47.15 169.13 51.72 171.38 55.69 173.39 C 59.07 175.21 63.09 176.49 65.15 179.99 C 64.67 180.04 63.71 180.14 63.23 180.19 C 63.98 181.27 64.81 182.30 65.43 183.47 C 64.90 184.43 64.23 185.31 63.59 186.19 C 59.44 183.28 55.46 179.92 50.65 178.15 C 47.46 176.88 44.12 178.12 41.03 179.04 C 39.93 178.23 38.83 177.43 37.71 176.67 C 39.30 174.65 40.43 172.13 42.64 170.69 Z" />
<path fill="#349cb2" opacity="0.70" d=" M 88.68 170.60 C 90.57 170.25 92.47 169.92 94.38 169.66 C 98.38 170.42 102.42 170.98 106.49 171.21 C 108.88 172.02 111.38 172.78 113.29 174.50 C 110.30 175.03 107.21 175.48 104.69 177.33 C 102.41 178.21 100.06 178.93 97.63 179.25 C 94.52 178.51 91.37 177.96 88.18 177.76 C 87.05 176.96 85.96 176.11 84.88 175.26 C 86.08 174.70 87.28 174.16 88.46 173.57 L 88.51 173.04 C 88.57 172.22 88.63 171.41 88.68 170.60 Z" />
<path fill="#398bb3" opacity="0.71" d=" M 121.06 171.92 C 125.43 171.94 129.59 170.23 133.96 170.33 C 140.79 170.45 147.63 170.09 154.44 170.79 C 154.37 174.19 154.47 177.59 154.11 180.98 L 153.94 181.73 C 153.38 183.46 152.85 185.20 152.39 186.96 C 152.25 185.89 152.09 184.82 151.91 183.76 C 151.76 182.59 151.26 181.37 150.01 181.02 C 145.74 179.22 141.01 179.02 136.45 178.56 C 136.11 179.25 135.78 179.94 135.45 180.63 C 131.73 179.47 127.87 178.66 123.95 178.68 C 117.50 178.77 111.14 177.45 104.69 177.33 C 107.21 175.48 110.30 175.03 113.29 174.50 C 111.38 172.78 108.88 172.02 106.49 171.21 C 111.38 170.59 116.19 171.95 121.06 171.92 Z" />
<path fill="#6b9ab3" opacity="0.71" d=" M 174.91 170.12 C 178.29 173.07 182.77 173.41 187.04 172.99 C 190.13 172.49 192.81 174.09 195.34 175.61 C 194.51 176.46 193.67 177.32 192.84 178.18 C 189.41 178.18 185.98 178.07 182.56 177.75 C 180.49 176.49 178.30 175.40 175.95 174.77 C 175.64 173.21 175.32 171.65 174.91 170.12 Z" />
<path fill="#51b2cc" opacity="0.80" d=" M 223.20 169.92 L 223.51 170.37 C 224.13 172.16 224.68 173.97 225.26 175.77 C 224.25 177.76 223.42 179.84 222.80 181.99 C 221.16 182.75 219.46 183.55 217.60 183.26 C 218.21 180.48 218.39 177.63 218.96 174.85 C 220.38 173.22 221.82 171.59 223.20 169.92 Z" />
<path fill="#00afd5" opacity="0.84" d=" M 225.26 175.77 C 226.40 174.16 227.66 172.64 228.82 171.05 C 230.19 172.37 231.57 173.70 232.95 175.02 C 231.26 179.17 228.89 182.97 226.76 186.90 C 225.33 186.15 223.89 185.40 222.46 184.67 C 222.54 184.00 222.71 182.66 222.80 181.99 C 223.42 179.84 224.25 177.76 225.26 175.77 Z" />
<path fill="#0086f5" opacity="0.96" d=" M 154.11 180.98 C 154.87 177.98 155.24 174.91 155.61 171.85 C 155.89 174.20 156.15 176.54 156.38 178.89 C 158.00 178.78 159.61 178.69 161.23 178.62 C 161.78 176.92 162.35 175.23 162.90 173.54 L 163.08 174.79 C 163.63 178.45 162.20 181.85 160.40 184.94 C 158.30 185.63 156.22 186.35 154.15 187.09 C 154.06 185.30 153.96 183.52 153.94 181.73 L 154.11 180.98 Z" />
<path fill="#5193b8" opacity="0.72" d=" M 162.96 173.25 C 167.23 174.24 171.64 174.09 175.95 174.77 C 178.30 175.40 180.49 176.49 182.56 177.75 L 182.15 178.61 C 178.68 179.28 175.18 179.80 171.68 180.28 C 169.29 179.74 166.91 179.18 164.53 178.62 C 164.03 177.34 163.53 176.07 163.08 174.79 L 162.90 173.54 L 162.96 173.25 Z" />
<path fill="#00c1d6" opacity="0.84" d=" M 22.48 175.02 C 25.41 173.98 28.52 173.91 31.59 174.15 C 31.14 175.06 30.69 175.96 30.23 176.86 C 29.47 178.34 28.66 179.78 27.84 181.22 C 25.62 179.57 23.37 177.77 22.48 175.02 Z" />
<path fill="#4095c1" opacity="0.76" d=" M 163.08 174.79 C 163.53 176.07 164.03 177.34 164.53 178.62 C 166.91 179.18 169.29 179.74 171.68 180.28 C 173.89 181.93 176.10 183.65 177.93 185.74 L 178.68 187.12 C 177.62 186.81 176.57 186.50 175.53 186.17 C 173.08 185.23 170.70 183.74 167.99 183.84 C 165.12 183.92 162.44 185.03 159.80 186.03 L 160.40 184.94 C 162.20 181.85 163.63 178.45 163.08 174.79 Z" />
<path fill="#70b3cb" opacity="0.80" d=" M 209.67 178.56 C 212.78 177.32 215.46 174.94 218.96 174.85 C 218.39 177.63 218.21 180.48 217.60 183.26 C 213.73 185.13 211.46 189.73 207.11 190.54 C 206.65 187.88 205.49 185.38 203.37 183.66 C 202.66 185.08 201.97 186.50 201.32 187.94 C 198.14 187.59 194.61 187.60 192.34 184.96 C 193.60 184.13 194.87 183.28 196.13 182.44 C 200.89 182.18 205.29 180.26 209.67 178.56 Z" />
<path fill="#40d7d8" opacity="0.85" d=" M 30.23 176.86 C 32.30 175.99 34.50 175.40 36.65 176.37 C 34.16 179.00 32.14 182.02 30.47 185.23 C 29.67 183.84 28.81 182.49 27.84 181.22 C 28.66 179.78 29.47 178.34 30.23 176.86 Z" />
<path fill="#e0ffff" opacity="1.00" d=" M 20.33 177.32 C 20.77 177.45 21.66 177.72 22.11 177.85 C 23.93 182.27 26.67 186.23 29.17 190.29 C 32.23 195.17 35.96 199.57 39.45 204.14 C 45.13 211.14 51.82 217.42 59.25 222.53 C 64.00 225.95 68.85 229.28 74.17 231.76 C 84.50 236.92 95.51 240.98 106.95 242.75 C 107.14 243.19 107.51 244.08 107.70 244.52 C 106.35 244.69 105.00 244.84 103.65 244.99 C 74.40 239.29 47.34 222.16 30.28 197.63 C 28.03 194.34 25.92 190.95 23.76 187.60 C 22.40 184.91 20.93 182.27 19.65 179.54 C 19.82 178.99 20.16 177.88 20.33 177.32 Z" />
<path fill="#7adddd" opacity="0.87" d=" M 36.65 176.37 C 36.92 176.44 37.44 176.60 37.71 176.67 C 38.83 177.43 39.93 178.23 41.03 179.04 C 40.38 180.16 39.73 181.28 39.08 182.40 C 37.83 183.51 35.60 184.10 35.45 186.05 C 34.51 191.34 37.23 196.30 39.88 200.66 C 39.78 201.53 39.56 203.27 39.45 204.14 C 35.96 199.57 32.23 195.17 29.17 190.29 C 30.37 189.98 31.57 189.67 32.77 189.36 C 32.00 187.98 31.24 186.60 30.47 185.23 C 32.14 182.02 34.16 179.00 36.65 176.37 Z" />
<path fill="#1d98c0" opacity="0.75" d=" M 104.69 177.33 C 111.14 177.45 117.50 178.77 123.95 178.68 C 127.87 178.66 131.73 179.47 135.45 180.63 C 135.78 179.94 136.11 179.25 136.45 178.56 C 136.71 180.64 137.22 182.70 138.56 184.37 C 134.65 184.65 130.92 182.99 127.00 183.26 C 122.46 183.44 117.90 183.41 113.36 183.75 C 113.02 183.60 112.34 183.30 111.99 183.14 C 108.05 181.81 103.86 182.55 99.83 182.94 C 99.10 181.71 98.35 180.48 97.63 179.25 C 100.06 178.93 102.41 178.21 104.69 177.33 Z" />
<path fill="#aacdcd" opacity="0.80" d=" M 41.03 179.04 C 44.12 178.12 47.46 176.88 50.65 178.15 C 55.46 179.92 59.44 183.28 63.59 186.19 C 63.76 186.94 63.94 187.69 64.12 188.44 C 63.76 189.09 63.06 190.39 62.71 191.05 C 58.98 187.43 54.20 184.57 48.94 184.12 C 45.81 184.25 42.78 185.18 39.73 185.86 C 39.56 184.69 39.34 183.54 39.08 182.40 C 39.73 181.28 40.38 180.16 41.03 179.04 Z" />
<path fill="#35bcc2" opacity="0.76" d=" M 78.46 178.22 C 81.71 178.45 84.95 178.17 88.18 177.76 C 91.37 177.96 94.52 178.51 97.63 179.25 C 98.35 180.48 99.10 181.71 99.83 182.94 C 96.47 183.13 92.83 183.71 90.66 186.58 C 88.10 186.80 85.52 186.86 82.98 186.54 C 81.34 185.53 79.94 184.19 78.67 182.75 C 78.61 181.24 78.54 179.73 78.46 178.22 Z" />
<path fill="#67a0c1" opacity="0.76" d=" M 182.56 177.75 C 185.98 178.07 189.41 178.18 192.84 178.18 C 193.95 179.59 195.05 181.01 196.13 182.44 C 194.87 183.28 193.60 184.13 192.34 184.96 C 190.99 185.11 189.64 185.27 188.31 185.52 C 186.30 183.17 184.13 180.98 182.15 178.61 L 182.56 177.75 Z" />
<path fill="#007ff6" opacity="0.96" d=" M 136.45 178.56 C 141.01 179.02 145.74 179.22 150.01 181.02 C 151.26 181.37 151.76 182.59 151.91 183.76 C 151.26 185.86 150.47 187.90 149.71 189.96 C 145.35 189.67 141.71 187.21 138.56 184.37 C 137.22 182.70 136.71 180.64 136.45 178.56 Z" />
<path fill="#539bc3" opacity="0.76" d=" M 171.68 180.28 C 175.18 179.80 178.68 179.28 182.15 178.61 C 184.13 180.98 186.30 183.17 188.31 185.52 C 187.87 185.62 186.99 185.81 186.54 185.91 C 183.67 186.13 180.79 185.87 177.93 185.74 C 176.10 183.65 173.89 181.93 171.68 180.28 Z" />
<path fill="#74d0d0" opacity="0.82" d=" M 63.23 180.19 C 63.71 180.14 64.67 180.04 65.15 179.99 C 67.33 180.98 69.47 182.06 71.66 183.02 C 72.70 184.93 73.70 186.87 74.87 188.71 C 74.48 188.84 73.71 189.11 73.32 189.24 C 73.77 191.08 74.32 192.89 75.00 194.65 C 74.21 195.83 73.42 197.01 72.74 198.25 C 70.26 194.66 67.44 191.29 64.12 188.44 C 63.94 187.69 63.76 186.94 63.59 186.19 C 64.23 185.31 64.90 184.43 65.43 183.47 C 64.81 182.30 63.98 181.27 63.23 180.19 Z" />
<path fill="#1ebcce" opacity="0.81" d=" M 99.83 182.94 C 103.86 182.55 108.05 181.81 111.99 183.14 C 109.33 184.25 106.85 185.74 104.56 187.48 C 102.73 188.80 101.00 190.26 99.54 191.98 C 97.79 194.64 95.18 196.26 91.89 196.07 C 92.15 193.97 92.61 191.91 93.39 189.94 C 92.49 188.81 91.58 187.69 90.66 186.58 C 92.83 183.71 96.47 183.13 99.83 182.94 Z" />
<path fill="#0095d3" opacity="0.83" d=" M 152.39 186.96 C 152.85 185.20 153.38 183.46 153.94 181.73 C 153.96 183.52 154.06 185.30 154.15 187.09 C 156.22 186.35 158.30 185.63 160.40 184.94 L 159.80 186.03 C 158.34 187.42 157.01 188.94 155.82 190.58 C 159.94 192.57 164.60 193.58 169.08 192.18 C 168.92 192.51 168.61 193.17 168.45 193.50 C 170.43 194.44 172.45 195.36 174.25 196.66 C 169.59 197.60 164.88 198.20 160.19 198.91 C 158.37 196.15 155.50 194.38 152.22 193.98 C 151.76 195.74 151.30 197.49 150.84 199.26 C 148.81 199.08 146.79 198.88 144.77 198.62 C 146.38 197.18 147.37 195.28 148.03 193.26 C 141.90 191.05 135.27 193.36 130.56 197.50 C 128.31 199.20 125.50 199.72 122.80 200.23 C 120.25 198.40 117.59 196.73 114.90 195.12 C 114.75 194.58 114.46 193.49 114.31 192.95 C 117.15 192.53 120.00 192.21 122.78 191.52 C 123.47 189.98 122.07 188.85 121.06 187.93 C 118.74 186.12 115.97 185.06 113.36 183.75 C 117.90 183.41 122.46 183.44 127.00 183.26 C 130.92 182.99 134.65 184.65 138.56 184.37 C 141.71 187.21 145.35 189.67 149.71 189.96 C 150.47 187.90 151.26 185.86 151.91 183.76 C 152.09 184.82 152.25 185.89 152.39 186.96 Z" />
<path fill="#45c1df" opacity="0.87" d=" M 217.60 183.26 C 219.46 183.55 221.16 182.75 222.80 181.99 C 222.71 182.66 222.54 184.00 222.46 184.67 C 220.43 187.88 218.45 191.37 215.10 193.39 C 211.56 193.72 208.69 195.57 206.57 198.35 L 205.76 199.14 C 206.62 196.35 207.03 193.45 207.11 190.54 C 211.46 189.73 213.73 185.13 217.60 183.26 Z" />
<path fill="#b8e7e7" opacity="0.91" d=" M 35.45 186.05 C 35.60 184.10 37.83 183.51 39.08 182.40 C 39.34 183.54 39.56 184.69 39.73 185.86 C 39.00 188.34 40.48 190.61 41.28 192.89 C 42.21 195.25 43.10 197.63 44.24 199.91 C 43.72 201.08 43.21 202.24 42.69 203.41 C 41.78 202.47 40.81 201.57 39.88 200.66 C 37.23 196.30 34.51 191.34 35.45 186.05 Z" />
<path fill="#47cccc" opacity="0.80" d=" M 71.66 183.02 C 73.99 182.77 76.33 182.67 78.67 182.75 C 79.94 184.19 81.34 185.53 82.98 186.54 C 82.69 189.02 81.30 191.02 79.29 192.44 C 77.82 191.19 76.34 189.95 74.87 188.71 C 73.70 186.87 72.70 184.93 71.66 183.02 Z" />
<path fill="#ccd9d9" opacity="0.85" d=" M 39.73 185.86 C 42.78 185.18 45.81 184.25 48.94 184.12 C 54.20 184.57 58.98 187.43 62.71 191.05 C 64.21 192.80 65.57 194.67 67.10 196.40 C 65.20 196.60 63.44 197.32 61.79 198.25 C 56.40 193.39 48.42 189.34 41.28 192.89 C 40.48 190.61 39.00 188.34 39.73 185.86 Z" />
<path fill="#00a5cf" opacity="0.81" d=" M 104.56 187.48 C 106.85 185.74 109.33 184.25 111.99 183.14 C 112.34 183.30 113.02 183.60 113.36 183.75 C 115.97 185.06 118.74 186.12 121.06 187.93 C 122.07 188.85 123.47 189.98 122.78 191.52 C 120.00 192.21 117.15 192.53 114.31 192.95 C 111.22 190.86 107.93 189.09 104.56 187.48 Z" />
<path fill="#007ff7" opacity="0.97" d=" M 159.80 186.03 C 162.44 185.03 165.12 183.92 167.99 183.84 C 170.70 183.74 173.08 185.23 175.53 186.17 C 174.06 188.81 171.74 190.79 169.08 192.18 C 164.60 193.58 159.94 192.57 155.82 190.58 C 157.01 188.94 158.34 187.42 159.80 186.03 Z" />
<path fill="#0096f9" opacity="0.98" d=" M 203.37 183.66 C 205.49 185.38 206.65 187.88 207.11 190.54 C 207.03 193.45 206.62 196.35 205.76 199.14 C 205.10 199.79 204.44 200.45 203.79 201.12 C 202.85 200.45 201.93 199.76 201.02 199.08 C 199.65 196.60 199.59 193.74 200.06 191.02 C 200.45 189.98 200.87 188.96 201.32 187.94 C 201.97 186.50 202.66 185.08 203.37 183.66 Z" />
<path fill="#63a9d0" opacity="0.82" d=" M 188.31 185.52 C 189.64 185.27 190.99 185.11 192.34 184.96 C 194.61 187.60 198.14 187.59 201.32 187.94 C 200.87 188.96 200.45 189.98 200.06 191.02 C 198.70 191.13 197.34 191.24 195.98 191.33 L 196.00 191.55 C 194.39 191.74 192.77 191.87 191.17 192.12 C 189.41 190.22 187.90 188.11 186.54 185.91 C 186.99 185.81 187.87 185.62 188.31 185.52 Z" />
<path fill="#00c0e8" opacity="0.91" d=" M 215.10 193.39 C 218.45 191.37 220.43 187.88 222.46 184.67 C 223.89 185.40 225.33 186.15 226.76 186.90 C 222.36 194.62 216.91 201.86 210.34 207.89 C 209.03 205.94 207.07 204.77 204.74 204.52 C 205.83 203.95 206.94 203.40 208.06 202.88 C 211.33 201.48 215.27 200.06 216.41 196.29 C 217.08 194.99 216.21 193.99 215.10 193.39 Z" />
<path fill="#2ed4d8" opacity="0.85" d=" M 82.98 186.54 C 85.52 186.86 88.10 186.80 90.66 186.58 C 91.58 187.69 92.49 188.81 93.39 189.94 C 92.61 191.91 92.15 193.97 91.89 196.07 C 90.49 196.27 89.10 196.48 87.70 196.70 C 87.55 198.08 87.39 199.46 87.30 200.85 C 86.40 200.67 85.51 200.49 84.62 200.32 C 83.85 201.37 83.08 202.43 82.30 203.48 C 81.96 202.27 81.60 201.07 81.23 199.87 C 80.48 197.42 79.86 194.94 79.29 192.44 C 81.30 191.02 82.69 189.02 82.98 186.54 Z" />
<path fill="#2c9dd6" opacity="0.84" d=" M 175.53 186.17 C 176.57 186.50 177.62 186.81 178.68 187.12 C 181.02 189.15 183.12 191.44 184.94 193.95 C 183.97 194.29 183.00 194.65 182.03 195.02 C 182.95 196.75 183.86 198.49 184.91 200.14 C 183.26 200.25 181.61 200.38 179.96 200.44 C 177.51 200.24 176.05 198.04 174.25 196.66 C 172.45 195.36 170.43 194.44 168.45 193.50 C 168.61 193.17 168.92 192.51 169.08 192.18 C 171.74 190.79 174.06 188.81 175.53 186.17 Z" />
<path fill="#4fa3d0" opacity="0.82" d=" M 177.93 185.74 C 180.79 185.87 183.67 186.13 186.54 185.91 C 187.90 188.11 189.41 190.22 191.17 192.12 C 190.40 193.07 189.63 194.01 188.87 194.95 C 187.58 194.53 186.27 194.20 184.94 193.95 C 183.12 191.44 181.02 189.15 178.68 187.12 L 177.93 185.74 Z" />
<path fill="#6c9fca" opacity="0.90" d=" M 23.76 187.60 C 25.92 190.95 28.03 194.34 30.28 197.63 C 47.34 222.16 74.40 239.29 103.65 244.99 C 109.09 246.41 114.71 246.82 120.28 247.45 C 119.08 247.90 117.89 248.35 116.69 248.81 C 78.72 245.87 42.86 223.13 23.74 190.22 C 23.74 189.56 23.75 188.25 23.76 187.60 Z" />
<path fill="#00b4d8" opacity="0.85" d=" M 99.54 191.98 C 101.00 190.26 102.73 188.80 104.56 187.48 C 107.93 189.09 111.22 190.86 114.31 192.95 C 114.46 193.49 114.75 194.58 114.90 195.12 C 113.38 196.45 111.82 197.74 110.30 199.08 C 106.50 197.04 103.01 194.51 99.54 191.98 Z" />
<path fill="#a6dcdc" opacity="0.86" d=" M 62.71 191.05 C 63.06 190.39 63.76 189.09 64.12 188.44 C 67.44 191.29 70.26 194.66 72.74 198.25 C 72.47 198.96 71.94 200.36 71.67 201.06 C 70.18 199.47 68.57 198.00 67.10 196.40 C 65.57 194.67 64.21 192.80 62.71 191.05 Z" />
<path fill="#5bd9d9" opacity="0.85" d=" M 73.32 189.24 C 73.71 189.11 74.48 188.84 74.87 188.71 C 76.34 189.95 77.82 191.19 79.29 192.44 C 79.86 194.94 80.48 197.42 81.23 199.87 C 80.62 199.99 79.39 200.24 78.77 200.36 C 77.38 198.55 76.13 196.63 75.00 194.65 C 74.32 192.89 73.77 191.08 73.32 189.24 Z" />
<path fill="#eaebeb" opacity="0.92" d=" M 41.28 192.89 C 48.42 189.34 56.40 193.39 61.79 198.25 C 63.34 201.56 64.91 204.87 66.96 207.91 C 68.05 210.46 69.11 213.02 70.36 215.50 C 67.88 216.62 65.09 216.52 62.63 215.39 C 55.02 212.35 49.01 206.41 44.24 199.91 C 43.10 197.63 42.21 195.25 41.28 192.89 Z" />
<path fill="#55b1dc" opacity="0.86" d=" M 191.17 192.12 C 192.77 191.87 194.39 191.74 196.00 191.55 L 195.98 191.33 C 197.34 191.24 198.70 191.13 200.06 191.02 C 199.59 193.74 199.65 196.60 201.02 199.08 L 200.04 198.69 C 197.77 198.32 195.48 198.10 193.21 197.84 C 191.78 196.84 190.35 195.85 188.87 194.95 C 189.63 194.01 190.40 193.07 191.17 192.12 Z" />
<path fill="#00cee2" opacity="0.89" d=" M 91.89 196.07 C 95.18 196.26 97.79 194.64 99.54 191.98 C 103.01 194.51 106.50 197.04 110.30 199.08 L 109.88 199.46 C 107.97 201.01 106.82 203.20 106.00 205.48 L 105.64 205.78 C 103.68 205.68 101.61 204.96 99.72 205.79 C 99.64 207.14 99.72 208.48 99.78 209.83 C 99.44 209.84 98.76 209.87 98.41 209.89 C 95.31 207.05 91.24 206.47 87.19 206.77 C 87.19 204.79 87.20 202.82 87.30 200.85 C 87.39 199.46 87.55 198.08 87.70 196.70 C 89.10 196.48 90.49 196.27 91.89 196.07 Z" />
<path fill="#0072f1" opacity="0.98" d=" M 130.56 197.50 C 135.27 193.36 141.90 191.05 148.03 193.26 C 147.37 195.28 146.38 197.18 144.77 198.62 C 140.86 199.62 136.83 200.23 132.78 200.11 C 131.67 199.65 131.30 198.34 130.56 197.50 Z" />
<path fill="#006beb" opacity="0.98" d=" M 152.22 193.98 C 155.50 194.38 158.37 196.15 160.19 198.91 C 160.44 199.22 160.96 199.84 161.22 200.15 C 160.95 203.66 160.28 207.13 158.98 210.40 C 155.06 207.70 152.53 203.63 150.84 199.26 C 151.30 197.49 151.76 195.74 152.22 193.98 Z" />
<path fill="#3da9df" opacity="0.87" d=" M 182.03 195.02 C 183.00 194.65 183.97 194.29 184.94 193.95 C 186.27 194.20 187.58 194.53 188.87 194.95 C 190.35 195.85 191.78 196.84 193.21 197.84 C 191.31 199.31 189.43 200.80 187.57 202.32 C 186.67 201.61 185.78 200.89 184.91 200.14 C 183.86 198.49 182.95 196.75 182.03 195.02 Z" />
<path fill="#009cfb" opacity="1.00" d=" M 206.57 198.35 C 208.69 195.57 211.56 193.72 215.10 193.39 C 216.21 193.99 217.08 194.99 216.41 196.29 C 215.27 200.06 211.33 201.48 208.06 202.88 C 206.55 201.74 205.93 200.17 206.57 198.35 Z" />
<path fill="#87e8e8" opacity="0.91" d=" M 72.74 198.25 C 73.42 197.01 74.21 195.83 75.00 194.65 C 76.13 196.63 77.38 198.55 78.77 200.36 C 78.63 203.73 78.65 207.10 78.63 210.48 C 78.63 211.89 78.64 213.30 78.65 214.72 C 77.64 214.19 76.63 213.65 75.64 213.11 C 75.11 212.44 74.59 211.77 74.08 211.10 C 73.17 207.78 72.78 204.33 71.67 201.06 C 71.94 200.36 72.47 198.96 72.74 198.25 Z" />
<path fill="#00a9e3" opacity="0.89" d=" M 110.30 199.08 C 111.82 197.74 113.38 196.45 114.90 195.12 C 117.59 196.73 120.25 198.40 122.80 200.23 C 122.61 202.45 122.44 204.67 122.16 206.88 C 120.38 207.15 118.60 207.44 116.82 207.73 C 114.28 205.17 112.22 202.20 109.88 199.46 L 110.30 199.08 Z" />
<path fill="#bee8e8" opacity="0.91" d=" M 61.79 198.25 C 63.44 197.32 65.20 196.60 67.10 196.40 C 68.57 198.00 70.18 199.47 71.67 201.06 C 72.78 204.33 73.17 207.78 74.08 211.10 C 71.39 210.86 68.99 209.63 66.96 207.91 C 64.91 204.87 63.34 201.56 61.79 198.25 Z" />
<path fill="#0099e5" opacity="0.90" d=" M 122.80 200.23 C 125.50 199.72 128.31 199.20 130.56 197.50 C 131.30 198.34 131.67 199.65 132.78 200.11 C 133.99 200.56 135.21 200.96 136.44 201.37 C 135.72 203.46 135.25 205.97 133.21 207.20 C 130.80 208.40 128.08 208.73 125.48 209.31 C 124.37 208.50 123.26 207.69 122.16 206.88 C 122.44 204.67 122.61 202.45 122.80 200.23 Z" />
<path fill="#0099de" opacity="0.89" d=" M 160.19 198.91 C 164.88 198.20 169.59 197.60 174.25 196.66 C 176.05 198.04 177.51 200.24 179.96 200.44 C 180.66 201.53 181.33 202.63 181.99 203.75 C 178.58 205.76 175.30 208.01 172.23 210.51 C 171.11 210.11 169.99 209.70 168.88 209.30 C 168.01 205.03 164.00 203.03 161.22 200.15 C 160.96 199.84 160.44 199.22 160.19 198.91 Z" />
<path fill="#008de4" opacity="0.93" d=" M 132.78 200.11 C 136.83 200.23 140.86 199.62 144.77 198.62 C 146.79 198.88 148.81 199.08 150.84 199.26 C 152.53 203.63 155.06 207.70 158.98 210.40 C 160.28 207.13 160.95 203.66 161.22 200.15 C 164.00 203.03 168.01 205.03 168.88 209.30 C 169.99 209.70 171.11 210.11 172.23 210.51 C 160.64 219.36 145.34 221.94 131.09 220.56 C 129.01 220.23 126.51 219.69 125.46 217.66 C 123.91 215.06 125.15 212.06 125.48 209.31 C 128.08 208.73 130.80 208.40 133.21 207.20 C 135.25 205.97 135.72 203.46 136.44 201.37 C 135.21 200.96 133.99 200.56 132.78 200.11 Z" />
<path fill="#0094fb" opacity="1.00" d=" M 193.21 197.84 C 195.48 198.10 197.77 198.32 200.04 198.69 C 200.54 199.82 201.04 200.95 201.54 202.08 C 198.74 204.67 195.23 206.92 191.24 205.92 C 189.89 205.33 188.57 204.67 187.24 204.04 C 187.32 203.61 187.49 202.75 187.57 202.32 C 189.43 200.80 191.31 199.31 193.21 197.84 Z" />
<path fill="#56dbf3" opacity="0.95" d=" M 200.04 198.69 L 201.02 199.08 C 201.93 199.76 202.85 200.45 203.79 201.12 C 204.44 200.45 205.10 199.79 205.76 199.14 L 206.57 198.35 C 205.93 200.17 206.55 201.74 208.06 202.88 C 206.94 203.40 205.83 203.95 204.74 204.52 L 204.42 205.62 C 203.89 207.41 203.39 209.22 202.85 211.01 C 202.71 210.71 202.42 210.09 202.28 209.79 C 202.07 208.03 203.19 203.55 200.03 204.63 C 194.88 205.92 195.05 212.04 193.82 216.17 C 193.43 216.16 192.66 216.16 192.27 216.15 C 187.90 215.82 184.96 219.55 181.49 221.54 C 178.02 223.58 174.72 226.88 170.40 226.50 C 171.36 225.54 172.30 224.58 173.23 223.60 C 170.79 223.25 168.27 223.21 165.89 223.95 C 152.71 227.59 138.95 230.08 125.24 228.76 C 124.22 228.39 123.20 228.01 122.19 227.62 C 122.55 227.35 123.28 226.81 123.65 226.55 C 144.25 227.56 165.38 222.94 183.01 212.04 C 186.03 210.41 188.82 208.37 191.24 205.92 C 195.23 206.92 198.74 204.67 201.54 202.08 C 201.04 200.95 200.54 199.82 200.04 198.69 Z" />
<path fill="#c6f6f6" opacity="0.96" d=" M 44.24 199.91 C 49.01 206.41 55.02 212.35 62.63 215.39 C 65.09 216.52 67.88 216.62 70.36 215.50 C 69.11 213.02 68.05 210.46 66.96 207.91 C 68.99 209.63 71.39 210.86 74.08 211.10 C 74.59 211.77 75.11 212.44 75.64 213.11 C 77.79 216.93 81.06 219.97 83.14 223.84 C 73.22 224.74 63.77 220.44 55.46 215.48 C 50.51 212.27 46.15 208.18 42.69 203.41 C 43.21 202.24 43.72 201.08 44.24 199.91 Z" />
<path fill="#5be9e9" opacity="0.91" d=" M 78.77 200.36 C 79.39 200.24 80.62 199.99 81.23 199.87 C 81.60 201.07 81.96 202.27 82.30 203.48 C 82.23 208.18 81.58 213.24 84.86 217.11 C 84.37 217.03 83.39 216.86 82.90 216.78 C 81.43 214.71 80.07 212.57 78.63 210.48 C 78.65 207.10 78.63 203.73 78.77 200.36 Z" />
<path fill="#30e7ee" opacity="0.93" d=" M 84.62 200.32 C 85.51 200.49 86.40 200.67 87.30 200.85 C 87.20 202.82 87.19 204.79 87.19 206.77 C 91.24 206.47 95.31 207.05 98.41 209.89 C 98.13 211.61 97.89 213.37 97.19 214.99 C 96.23 215.77 95.16 216.45 94.34 217.39 C 93.60 219.38 95.70 220.72 96.68 222.16 C 92.66 220.64 89.18 217.75 84.86 217.11 C 81.58 213.24 82.23 208.18 82.30 203.48 C 83.08 202.43 83.85 201.37 84.62 200.32 M 88.42 210.87 C 88.09 214.05 91.77 215.01 94.14 215.72 C 96.67 214.63 97.82 211.33 95.78 209.23 C 93.61 207.58 89.02 207.52 88.42 210.87 Z" />
<path fill="#00acf0" opacity="0.94" d=" M 106.00 205.48 C 106.82 203.20 107.97 201.01 109.88 199.46 C 112.22 202.20 114.28 205.17 116.82 207.73 C 118.60 207.44 120.38 207.15 122.16 206.88 C 123.26 207.69 124.37 208.50 125.48 209.31 C 125.15 212.06 123.91 215.06 125.46 217.66 C 126.51 219.69 129.01 220.23 131.09 220.56 C 145.34 221.94 160.64 219.36 172.23 210.51 C 175.30 208.01 178.58 205.76 181.99 203.75 C 182.65 206.58 180.79 209.09 178.62 210.69 C 171.43 216.16 163.01 219.94 154.32 222.31 C 145.29 224.20 136.09 226.29 126.82 225.09 C 120.75 222.93 113.48 223.16 108.47 218.68 C 108.23 214.19 107.54 209.73 106.00 205.48 Z" />
<path fill="#2fb5ea" opacity="0.92" d=" M 179.96 200.44 C 181.61 200.38 183.26 200.25 184.91 200.14 C 185.78 200.89 186.67 201.61 187.57 202.32 C 187.49 202.75 187.32 203.61 187.24 204.04 C 188.57 204.67 189.89 205.33 191.24 205.92 C 188.82 208.37 186.03 210.41 183.01 212.04 C 165.38 222.94 144.25 227.56 123.65 226.55 L 124.78 225.71 C 125.29 225.56 126.31 225.24 126.82 225.09 C 136.09 226.29 145.29 224.20 154.32 222.31 C 163.01 219.94 171.43 216.16 178.62 210.69 C 180.79 209.09 182.65 206.58 181.99 203.75 C 181.33 202.63 180.66 201.53 179.96 200.44 Z" />
<path fill="#92f9f9" opacity="0.98" d=" M 39.88 200.66 C 40.81 201.57 41.78 202.47 42.69 203.41 C 46.15 208.18 50.51 212.27 55.46 215.48 C 63.77 220.44 73.22 224.74 83.14 223.84 C 81.06 219.97 77.79 216.93 75.64 213.11 C 76.63 213.65 77.64 214.19 78.65 214.72 C 78.64 213.30 78.63 211.89 78.63 210.48 C 80.07 212.57 81.43 214.71 82.90 216.78 C 85.17 220.83 89.71 222.51 93.71 224.32 C 101.93 227.91 110.86 229.20 119.35 231.92 C 118.45 232.71 117.56 233.51 116.62 234.25 C 113.44 232.77 110.10 231.65 106.70 230.78 C 106.78 231.54 106.93 233.06 107.01 233.81 C 92.39 232.60 78.01 228.98 64.44 223.43 C 62.81 222.68 61.04 222.39 59.25 222.53 C 51.82 217.42 45.13 211.14 39.45 204.14 C 39.56 203.27 39.78 201.53 39.88 200.66 Z" />
<path fill="#9de9e9" opacity="0.91" d=" M 99.72 205.79 C 101.61 204.96 103.68 205.68 105.64 205.78 C 104.94 208.70 102.69 209.99 99.78 209.83 C 99.72 208.48 99.64 207.14 99.72 205.79 Z" />
<path fill="#009ffc" opacity="1.00" d=" M 193.82 216.17 C 195.05 212.04 194.88 205.92 200.03 204.63 C 203.19 203.55 202.07 208.03 202.28 209.79 C 200.70 212.56 198.56 214.97 196.01 216.89 C 195.46 216.71 194.37 216.35 193.82 216.17 Z" />
<path fill="#0098f6" opacity="1.00" d=" M 204.74 204.52 C 207.07 204.77 209.03 205.94 210.34 207.89 C 210.25 208.72 210.07 210.39 209.98 211.22 C 209.28 211.93 208.56 212.63 207.83 213.32 C 205.27 211.54 204.35 208.63 204.42 205.62 L 204.74 204.52 Z" />
<path fill="#00c4f1" opacity="0.95" d=" M 105.64 205.78 L 106.00 205.48 C 107.54 209.73 108.23 214.19 108.47 218.68 C 113.48 223.16 120.75 222.93 126.82 225.09 C 126.31 225.24 125.29 225.56 124.78 225.71 C 116.80 225.44 108.73 224.45 101.10 222.01 C 99.15 221.29 96.46 220.55 96.13 218.12 C 96.42 217.05 96.78 216.01 97.19 214.99 C 97.89 213.37 98.13 211.61 98.41 209.89 C 98.76 209.87 99.44 209.84 99.78 209.83 C 102.69 209.99 104.94 208.70 105.64 205.78 Z" />
<path fill="#00ccf5" opacity="0.97" d=" M 202.85 211.01 C 203.39 209.22 203.89 207.41 204.42 205.62 C 204.35 208.63 205.27 211.54 207.83 213.32 C 196.58 223.62 183.41 231.77 169.14 237.18 C 169.03 236.77 168.81 235.94 168.70 235.52 C 178.47 230.07 188.66 224.97 196.83 217.17 L 196.01 216.89 C 198.56 214.97 200.70 212.56 202.28 209.79 C 202.42 210.09 202.71 210.71 202.85 211.01 Z" />
<path fill="#eeeeee" opacity="0.93" d=" M 88.42 210.87 C 89.02 207.52 93.61 207.58 95.78 209.23 C 97.82 211.33 96.67 214.63 94.14 215.72 C 91.77 215.01 88.09 214.05 88.42 210.87 Z" />
<path fill="#40e3f7" opacity="0.97" d=" M 94.34 217.39 C 95.16 216.45 96.23 215.77 97.19 214.99 C 96.78 216.01 96.42 217.05 96.13 218.12 C 96.46 220.55 99.15 221.29 101.10 222.01 C 108.73 224.45 116.80 225.44 124.78 225.71 L 123.65 226.55 C 123.28 226.81 122.55 227.35 122.19 227.62 C 123.20 228.01 124.22 228.39 125.24 228.76 C 117.77 228.77 110.37 227.54 103.15 225.74 C 96.64 223.91 89.97 221.72 84.86 217.11 C 89.18 217.75 92.66 220.64 96.68 222.16 C 95.70 220.72 93.60 219.38 94.34 217.39 Z" />
<path fill="#4fe6fc" opacity="1.00" d=" M 181.49 221.54 C 184.96 219.55 187.90 215.82 192.27 216.15 C 187.78 219.36 183.75 223.19 179.03 226.07 C 175.45 228.47 171.43 230.04 167.59 231.95 C 166.74 232.48 165.92 233.05 165.09 233.62 C 158.00 235.29 151.10 237.90 143.79 238.54 C 136.92 239.17 129.99 241.29 123.09 239.83 C 121.31 238.72 119.61 237.49 117.91 236.26 C 130.60 236.76 143.52 236.08 155.72 232.31 C 160.76 230.74 165.40 228.15 170.40 226.50 C 174.72 226.88 178.02 223.58 181.49 221.54 Z" />
<path fill="#2dd7f9" opacity="0.98" d=" M 192.27 216.15 C 192.66 216.16 193.43 216.16 193.82 216.17 C 194.37 216.35 195.46 216.71 196.01 216.89 L 196.83 217.17 C 188.66 224.97 178.47 230.07 168.70 235.52 C 168.34 234.32 167.97 233.13 167.59 231.95 C 171.43 230.04 175.45 228.47 179.03 226.07 C 183.75 223.19 187.78 219.36 192.27 216.15 Z" />
<path fill="#6df1f9" opacity="0.98" d=" M 82.90 216.78 C 83.39 216.86 84.37 217.03 84.86 217.11 C 89.97 221.72 96.64 223.91 103.15 225.74 C 110.37 227.54 117.77 228.77 125.24 228.76 C 138.95 230.08 152.71 227.59 165.89 223.95 C 168.27 223.21 170.79 223.25 173.23 223.60 C 172.30 224.58 171.36 225.54 170.40 226.50 C 165.40 228.15 160.76 230.74 155.72 232.31 C 143.52 236.08 130.60 236.76 117.91 236.26 C 117.35 235.85 116.23 235.03 115.67 234.61 L 116.62 234.25 C 117.56 233.51 118.45 232.71 119.35 231.92 C 110.86 229.20 101.93 227.91 93.71 224.32 C 89.71 222.51 85.17 220.83 82.90 216.78 Z" />
<path fill="#61fcfc" opacity="1.00" d=" M 59.25 222.53 C 61.04 222.39 62.81 222.68 64.44 223.43 C 78.01 228.98 92.39 232.60 107.01 233.81 C 107.42 234.46 107.85 235.09 108.31 235.72 L 109.63 237.41 C 98.89 238.05 88.52 234.25 78.23 231.69 C 76.90 231.29 75.49 231.30 74.17 231.76 C 68.85 229.28 64.00 225.95 59.25 222.53 Z" />
<path fill="#34eefd" opacity="1.00" d=" M 74.17 231.76 C 75.49 231.30 76.90 231.29 78.23 231.69 C 88.52 234.25 98.89 238.05 109.63 237.41 C 112.08 240.28 115.70 241.40 119.38 241.35 C 121.90 241.79 124.42 242.23 126.97 242.51 C 124.01 242.60 120.76 242.17 118.21 244.01 C 114.44 243.81 110.69 243.28 106.95 242.75 C 95.51 240.98 84.50 236.92 74.17 231.76 Z" />
<path fill="#31eaff" opacity="1.00" d=" M 106.70 230.78 C 110.10 231.65 113.44 232.77 116.62 234.25 L 115.67 234.61 C 113.19 234.81 110.71 235.07 108.31 235.72 C 107.85 235.09 107.42 234.46 107.01 233.81 C 106.93 233.06 106.78 231.54 106.70 230.78 Z" />
<path fill="#008ff0" opacity="1.00" d=" M 165.09 233.62 C 165.92 233.05 166.74 232.48 167.59 231.95 C 167.97 233.13 168.34 234.32 168.70 235.52 C 168.81 235.94 169.03 236.77 169.14 237.18 C 166.95 238.08 164.73 238.91 162.47 239.61 C 162.57 237.34 163.81 235.41 165.09 233.62 Z" />
<path fill="#25d7fc" opacity="1.00" d=" M 143.79 238.54 C 151.10 237.90 158.00 235.29 165.09 233.62 C 163.81 235.41 162.57 237.34 162.47 239.61 C 148.11 243.59 133.08 245.46 118.21 244.01 C 120.76 242.17 124.01 242.60 126.97 242.51 C 124.42 242.23 121.90 241.79 119.38 241.35 C 120.62 240.85 121.86 240.34 123.09 239.83 C 129.99 241.29 136.92 239.17 143.79 238.54 Z" />
<path fill="#00ddff" opacity="1.00" d=" M 108.31 235.72 C 110.71 235.07 113.19 234.81 115.67 234.61 C 116.23 235.03 117.35 235.85 117.91 236.26 C 119.61 237.49 121.31 238.72 123.09 239.83 C 121.86 240.34 120.62 240.85 119.38 241.35 C 115.70 241.40 112.08 240.28 109.63 237.41 L 108.31 235.72 Z" />
<path fill="#333a40" opacity="0.28" d=" M 118.77 249.13 C 124.63 249.27 130.48 249.19 136.34 249.19 C 133.66 250.12 130.78 249.61 128.01 249.70 C 124.93 249.61 121.75 250.14 118.77 249.13 Z" />
</svg>
