<?xml version="1.0" encoding="UTF-8" ?>
<!DOCTYPE svg PUBLIC "-//W3C//DTD SVG 1.1//EN" "http://www.w3.org/Graphics/SVG/1.1/DTD/svg11.dtd">
<svg width="300pt" height="300pt" viewBox="0 0 300 300" version="1.1" xmlns="http://www.w3.org/2000/svg">
<path fill="#73797b" opacity="1.00" d=" M 199.64 8.17 C 201.03 7.65 202.50 7.37 204.00 7.43 C 210.62 7.46 217.24 7.53 223.86 7.47 C 222.41 8.43 220.23 9.05 219.77 10.93 C 219.31 14.43 219.52 17.98 219.41 21.50 C 218.06 21.55 216.70 21.60 215.35 21.62 C 215.35 17.17 215.51 12.70 216.41 8.33 C 214.82 8.21 213.23 8.08 211.64 8.01 C 207.64 7.91 203.64 8.03 199.64 8.17 Z" />
<path fill="#5d6265" opacity="1.00" d=" M 198.53 8.06 L 198.54 8.22 C 198.70 12.63 198.69 17.03 198.65 21.44 C 199.58 21.46 201.44 21.51 202.37 21.53 C 205.05 21.57 207.73 21.58 210.42 21.60 L 211.60 21.60 C 212.85 21.61 214.09 21.62 215.35 21.62 C 216.70 21.60 218.06 21.55 219.41 21.50 C 219.52 17.98 219.31 14.43 219.77 10.93 C 220.23 9.05 222.41 8.43 223.86 7.47 C 224.29 7.71 225.15 8.20 225.59 8.45 C 225.99 13.11 225.78 17.81 225.62 22.48 C 223.24 23.01 220.82 23.47 218.36 23.36 C 217.01 23.32 215.66 23.28 214.31 23.23 C 214.40 24.93 214.49 26.62 214.59 28.32 C 215.85 28.94 217.11 29.57 218.38 30.19 C 218.42 30.81 218.50 32.06 218.55 32.68 C 235.76 34.81 252.33 41.95 265.24 53.61 L 265.36 54.28 C 265.45 54.72 265.63 55.61 265.71 56.05 C 265.46 56.51 264.96 57.43 264.72 57.89 C 265.92 60.29 267.03 62.75 268.21 65.17 C 263.60 60.84 261.42 54.53 256.43 50.56 C 249.47 44.98 242.01 39.36 233.09 37.47 C 224.46 35.45 215.29 38.09 206.91 34.60 C 209.93 34.25 212.93 33.63 215.70 32.33 C 213.83 29.41 212.12 26.40 210.58 23.29 C 208.87 23.60 207.17 23.92 205.46 24.25 C 205.49 27.05 205.47 29.85 205.57 32.65 L 205.26 32.63 C 205.09 29.59 205.83 26.30 204.81 23.42 C 202.76 22.85 200.64 22.64 198.54 22.35 C 198.31 17.59 198.35 12.82 198.53 8.06 Z" />
<path fill="#b6bdc2" opacity="1.00" d=" M 198.54 8.22 L 199.64 8.17 C 203.64 8.03 207.64 7.91 211.64 8.01 C 212.88 12.44 212.91 17.18 211.60 21.60 L 210.42 21.60 C 210.48 17.30 210.47 12.99 210.41 8.68 C 207.49 8.62 204.56 8.68 201.65 8.85 C 202.52 13.02 202.66 17.29 202.37 21.53 C 201.44 21.51 199.58 21.46 198.65 21.44 C 198.69 17.03 198.70 12.63 198.54 8.22 Z" />
<path fill="#979da0" opacity="1.00" d=" M 211.64 8.01 C 213.23 8.08 214.82 8.21 216.41 8.33 C 215.51 12.70 215.35 17.17 215.35 21.62 C 214.09 21.62 212.85 21.61 211.60 21.60 C 212.91 17.18 212.88 12.44 211.64 8.01 Z" />
<path fill="#e3eaec" opacity="1.00" d=" M 201.65 8.85 C 204.56 8.68 207.49 8.62 210.41 8.68 C 210.47 12.99 210.48 17.30 210.42 21.60 C 207.73 21.58 205.05 21.57 202.37 21.53 C 202.66 17.29 202.52 13.02 201.65 8.85 Z" />
<path fill="#343537" opacity="1.00" d=" M 214.31 23.23 C 215.66 23.28 217.01 23.32 218.36 23.36 C 218.39 25.63 218.40 27.91 218.38 30.19 C 217.11 29.57 215.85 28.94 214.59 28.32 C 214.49 26.62 214.40 24.93 214.31 23.23 Z" />
<path fill="#a4a7a6" opacity="1.00" d=" M 205.46 24.25 C 207.17 23.92 208.87 23.60 210.58 23.29 C 210.63 24.92 210.68 26.54 210.75 28.17 C 209.48 28.25 208.21 28.34 206.95 28.42 C 206.84 29.87 206.73 31.32 206.62 32.78 C 206.36 32.74 205.83 32.68 205.57 32.65 C 205.47 29.85 205.49 27.05 205.46 24.25 Z" />
<path fill="#808384" opacity="1.00" d=" M 210.58 23.29 C 212.12 26.40 213.83 29.41 215.70 32.33 C 212.93 33.63 209.93 34.25 206.91 34.60 C 215.29 38.09 224.46 35.45 233.09 37.47 C 242.01 39.36 249.47 44.98 256.43 50.56 C 261.42 54.53 263.60 60.84 268.21 65.17 C 268.71 65.74 269.22 66.31 269.73 66.88 C 271.88 71.02 275.00 74.51 277.52 78.41 C 284.80 91.62 286.49 107.16 285.21 121.99 C 284.62 128.40 282.93 134.65 280.39 140.56 C 278.26 143.80 276.46 147.25 274.72 150.71 C 265.88 166.89 250.71 179.31 233.35 185.38 C 227.43 187.71 221.19 189.33 214.80 189.33 C 216.94 188.63 219.06 187.84 221.19 187.07 C 215.80 187.09 210.41 187.39 205.04 186.98 C 200.13 186.62 195.38 185.26 190.52 184.57 C 180.65 181.91 171.89 176.50 163.70 170.55 C 157.23 164.90 151.85 158.17 147.32 150.91 C 142.75 143.49 140.46 134.96 138.43 126.57 C 135.79 110.87 138.96 94.51 146.41 80.53 C 154.48 65.63 167.88 53.78 183.57 47.42 C 189.86 45.57 196.16 43.65 202.70 42.82 C 214.93 42.30 227.47 43.51 238.75 48.55 C 249.99 53.81 260.23 61.42 267.78 71.33 C 271.48 75.80 274.12 80.98 277.04 85.95 C 273.67 77.61 269.49 69.33 262.98 62.98 C 259.49 59.45 256.64 55.29 252.67 52.25 C 247.94 48.53 243.13 44.81 237.72 42.13 C 233.70 40.11 229.15 39.81 224.75 39.54 C 218.40 38.23 211.65 38.76 205.62 36.12 C 203.51 35.29 201.37 34.18 199.03 34.35 C 191.75 34.70 184.90 37.45 177.93 39.31 C 186.17 34.60 195.98 33.53 205.26 32.63 L 205.57 32.65 C 205.83 32.68 206.36 32.74 206.62 32.78 C 208.75 33.13 210.89 32.92 213.00 32.55 C 212.28 31.08 211.52 29.62 210.75 28.17 C 210.68 26.54 210.63 24.92 210.58 23.29 M 198.01 46.17 C 179.90 49.16 163.25 59.80 152.80 74.87 C 142.50 89.25 138.45 107.56 140.80 125.02 C 140.91 126.37 141.43 127.56 142.36 128.57 C 142.42 135.37 145.30 141.89 148.54 147.76 L 148.31 148.11 C 151.41 153.28 154.92 158.21 159.04 162.62 C 161.81 165.33 164.54 168.11 167.73 170.34 C 169.99 172.31 172.63 173.77 175.14 175.38 C 183.82 180.09 193.26 183.82 203.19 184.51 C 206.21 184.85 209.26 184.69 212.29 184.73 C 241.37 184.37 268.86 163.41 276.76 135.41 C 278.32 131.56 279.19 127.39 279.42 123.26 C 280.62 116.39 280.22 109.19 278.69 102.44 C 278.32 98.51 277.09 94.75 275.71 91.08 C 271.41 80.00 264.74 69.41 255.16 62.17 C 251.07 57.56 245.40 54.71 239.95 52.00 C 227.04 45.63 212.15 43.95 198.01 46.17 Z" />
<path fill="#e2eaea" opacity="1.00" d=" M 206.95 28.42 C 208.21 28.34 209.48 28.25 210.75 28.17 C 211.52 29.62 212.28 31.08 213.00 32.55 C 210.89 32.92 208.75 33.13 206.62 32.78 C 206.73 31.32 206.84 29.87 206.95 28.42 Z" />
<path fill="#b1b8b9" opacity="1.00" d=" M 177.93 39.31 C 184.90 37.45 191.75 34.70 199.03 34.35 C 201.37 34.18 203.51 35.29 205.62 36.12 C 211.65 38.76 218.40 38.23 224.75 39.54 C 228.31 41.74 232.25 43.17 235.95 45.10 C 237.39 45.75 238.09 47.22 238.75 48.55 C 227.47 43.51 214.93 42.30 202.70 42.82 C 207.38 41.72 212.18 41.32 216.98 41.48 C 210.36 39.91 203.90 37.06 196.98 37.28 C 189.44 37.28 182.00 39.29 175.11 42.24 C 171.22 43.82 168.61 47.22 165.95 50.30 C 161.43 53.61 157.82 58.08 153.05 61.03 C 149.24 62.36 145.73 64.38 143.09 67.49 C 144.44 64.54 146.45 61.44 149.51 60.09 C 157.26 58.26 161.51 51.02 166.39 45.43 C 169.80 42.70 173.86 40.84 177.93 39.31 Z" />
<path fill="#ccccd0" opacity="1.00" d=" M 133.94 46.75 C 136.83 42.32 141.09 38.97 145.41 36.00 C 142.73 40.67 139.21 44.83 134.65 47.75 C 134.47 47.50 134.11 47.00 133.94 46.75 Z" />
<path fill="#6c6e77" opacity="1.00" d=" M 145.41 36.00 C 145.97 36.14 147.09 36.42 147.65 36.57 C 147.56 37.24 147.38 38.57 147.28 39.24 C 144.06 43.28 140.15 46.70 136.65 50.49 C 133.55 51.55 132.77 48.13 133.27 45.85 L 133.94 46.75 C 134.11 47.00 134.47 47.50 134.65 47.75 C 139.21 44.83 142.73 40.67 145.41 36.00 Z" />
<path fill="#d1d7d8" opacity="1.00" d=" M 175.11 42.24 C 182.00 39.29 189.44 37.28 196.98 37.28 C 203.90 37.06 210.36 39.91 216.98 41.48 C 212.18 41.32 207.38 41.72 202.70 42.82 C 196.16 43.65 189.86 45.57 183.57 47.42 C 188.34 43.22 195.14 43.47 200.37 40.11 C 188.00 37.88 175.99 43.60 165.95 50.30 C 168.61 47.22 171.22 43.82 175.11 42.24 Z" />
<path fill="#6c6e77" opacity="1.00" d=" M 274.03 39.04 C 274.28 37.64 275.75 37.28 276.95 37.17 C 281.63 40.35 284.98 45.05 289.07 48.89 C 288.74 49.76 288.44 50.64 288.15 51.52 C 287.16 51.53 286.18 51.53 285.19 51.53 C 283.84 50.33 282.49 49.13 281.12 47.94 C 279.62 49.75 278.25 51.66 276.95 53.61 C 276.37 53.29 275.20 52.64 274.61 52.31 C 275.11 52.08 276.12 51.63 276.63 51.41 C 278.19 49.31 279.25 46.90 280.31 44.52 C 281.17 45.25 282.04 45.97 282.91 46.70 C 282.03 43.50 280.27 40.48 277.44 38.65 C 277.10 38.78 276.43 39.05 276.10 39.19 C 275.97 39.54 275.71 40.25 275.58 40.61 C 275.31 40.94 274.76 41.59 274.48 41.92 C 274.37 41.20 274.14 39.76 274.03 39.04 Z" />
<path fill="#4c4f51" opacity="1.00" d=" M 136.65 50.49 C 140.15 46.70 144.06 43.28 147.28 39.24 C 148.59 42.08 151.52 43.88 152.30 47.00 C 152.85 49.44 155.01 50.89 156.74 52.49 C 156.41 53.28 156.09 54.08 155.79 54.88 C 155.36 53.69 154.92 52.50 154.49 51.31 C 153.14 51.32 151.80 51.32 150.46 51.33 C 150.08 51.72 149.34 52.51 148.97 52.91 C 148.68 53.20 148.10 53.78 147.82 54.07 C 147.49 54.40 146.83 55.08 146.50 55.42 C 145.13 55.21 143.76 54.99 142.39 54.79 C 143.55 53.95 144.72 53.11 145.83 52.19 C 146.91 51.18 147.96 50.14 148.99 49.07 C 149.86 47.97 151.46 46.85 150.77 45.23 C 149.57 43.85 147.72 44.39 146.28 44.97 C 143.31 46.19 140.91 48.38 138.18 50.01 C 137.80 50.13 137.03 50.37 136.65 50.49 Z" />
<path fill="#ebf1f2" opacity="1.00" d=" M 165.95 50.30 C 175.99 43.60 188.00 37.88 200.37 40.11 C 195.14 43.47 188.34 43.22 183.57 47.42 C 167.88 53.78 154.48 65.63 146.41 80.53 C 138.96 94.51 135.79 110.87 138.43 126.57 C 138.07 130.65 138.58 134.72 139.50 138.70 C 139.20 138.98 138.59 139.55 138.29 139.83 C 132.80 130.23 129.99 119.07 130.40 108.01 C 130.29 103.20 131.46 98.49 131.38 93.69 C 131.31 92.08 131.45 90.46 132.12 88.98 C 132.28 88.46 132.61 87.43 132.77 86.91 C 135.54 80.11 138.48 73.27 143.09 67.49 C 145.73 64.38 149.24 62.36 153.05 61.03 C 157.82 58.08 161.43 53.61 165.95 50.30 Z" />
<path fill="#e7e7f1" opacity="1.00" d=" M 276.10 39.19 C 276.43 39.05 277.10 38.78 277.44 38.65 C 280.27 40.48 282.03 43.50 282.91 46.70 C 282.04 45.97 281.17 45.25 280.31 44.52 C 278.73 43.22 277.12 41.95 275.58 40.61 C 275.71 40.25 275.97 39.54 276.10 39.19 Z" />
<path fill="#a2a9ab" opacity="1.00" d=" M 224.75 39.54 C 229.15 39.81 233.70 40.11 237.72 42.13 C 243.13 44.81 247.94 48.53 252.67 52.25 C 256.64 55.29 259.49 59.45 262.98 62.98 C 269.49 69.33 273.67 77.61 277.04 85.95 C 274.12 80.98 271.48 75.80 267.78 71.33 C 260.23 61.42 249.99 53.81 238.75 48.55 C 238.09 47.22 237.39 45.75 235.95 45.10 C 232.25 43.17 228.31 41.74 224.75 39.54 Z" />
<path fill="#979da0" opacity="1.00" d=" M 275.58 40.61 C 277.12 41.95 278.73 43.22 280.31 44.52 C 279.25 46.90 278.19 49.31 276.63 51.41 C 276.12 51.63 275.11 52.08 274.61 52.31 C 274.32 52.44 273.75 52.70 273.47 52.83 C 272.25 54.96 271.56 57.32 270.90 59.66 C 269.31 59.25 267.78 58.55 266.75 57.23 C 267.38 57.35 268.63 57.59 269.25 57.71 C 270.87 55.42 271.54 52.69 271.68 49.93 C 270.05 50.96 268.44 52.02 266.88 53.15 C 267.79 51.44 269.09 50.00 270.51 48.70 C 270.46 47.84 270.41 46.98 270.36 46.12 C 271.96 47.86 273.18 50.61 275.81 50.88 C 276.63 48.36 276.71 45.70 276.76 43.09 C 274.99 43.45 273.27 44.06 271.78 45.10 C 272.60 43.98 273.54 42.95 274.48 41.92 C 274.76 41.59 275.31 40.94 275.58 40.61 Z" />
<path fill="#f1f7f6" opacity="1.00" d=" M 271.78 45.10 C 273.27 44.06 274.99 43.45 276.76 43.09 C 276.71 45.70 276.63 48.36 275.81 50.88 C 273.18 50.61 271.96 47.86 270.36 46.12 C 270.71 45.87 271.42 45.36 271.78 45.10 Z" />
<path fill="#798181" opacity="1.00" d=" M 146.28 44.97 C 147.72 44.39 149.57 43.85 150.77 45.23 C 151.46 46.85 149.86 47.97 148.99 49.07 C 148.78 48.37 148.36 46.98 148.15 46.29 C 145.54 46.94 142.01 47.71 142.28 51.11 C 143.46 51.47 144.64 51.83 145.83 52.19 C 144.72 53.11 143.55 53.95 142.39 54.79 C 140.95 53.23 139.53 51.65 138.18 50.01 C 140.91 48.38 143.31 46.19 146.28 44.97 Z" />
<path fill="#a1b3c6" opacity="1.00" d=" M 198.01 46.17 C 212.15 43.95 227.04 45.63 239.95 52.00 C 245.40 54.71 251.07 57.56 255.16 62.17 C 251.59 60.21 247.88 58.52 244.12 56.95 C 240.21 55.17 236.17 53.73 231.99 52.72 C 231.21 53.49 230.43 54.27 229.65 55.05 C 230.02 53.90 230.39 52.76 230.77 51.62 C 229.12 51.52 227.47 51.42 225.83 51.33 C 225.17 52.11 224.51 52.89 223.85 53.67 C 223.66 52.59 223.46 51.50 223.27 50.42 C 221.79 50.38 220.31 50.34 218.83 50.30 C 218.58 50.83 218.09 51.88 217.84 52.41 C 217.06 51.74 216.31 51.04 215.56 50.34 C 214.19 50.35 212.83 50.36 211.46 50.39 C 211.41 50.05 211.30 49.38 211.24 49.05 C 210.97 49.12 210.43 49.26 210.15 49.33 C 209.96 49.46 209.57 49.73 209.37 49.86 C 207.46 50.47 205.58 51.20 203.89 52.31 C 203.29 51.65 202.68 51.00 202.08 50.35 C 200.62 51.19 199.15 52.04 197.69 52.88 C 196.85 52.67 196.02 52.46 195.18 52.25 C 193.09 53.50 190.82 54.45 188.37 54.62 C 185.61 56.68 182.33 57.68 179.14 58.82 C 178.75 58.32 177.98 57.34 177.59 56.84 C 177.54 57.91 177.49 58.99 177.49 60.06 C 175.97 61.29 174.52 62.60 173.11 63.97 C 170.27 62.40 169.62 66.23 168.30 67.92 C 165.14 68.00 164.12 70.90 163.21 73.42 C 162.42 72.89 161.62 72.36 160.84 71.83 C 160.22 74.12 159.62 76.41 159.05 78.71 C 158.41 78.07 157.78 77.42 157.14 76.78 C 156.14 78.23 155.13 79.67 154.18 81.16 C 153.81 81.75 153.46 82.36 153.15 82.98 C 152.50 85.28 152.32 87.66 152.30 90.03 C 151.64 89.34 150.97 88.65 150.31 87.96 C 148.14 94.83 145.40 101.55 144.28 108.70 C 142.38 115.17 142.66 121.92 142.36 128.57 C 141.43 127.56 140.91 126.37 140.80 125.02 C 138.45 107.56 142.50 89.25 152.80 74.87 C 163.25 59.80 179.90 49.16 198.01 46.17 Z" />
<path fill="#b1b8ba" opacity="1.00" d=" M 142.28 51.11 C 142.01 47.71 145.54 46.94 148.15 46.29 C 148.36 46.98 148.78 48.37 148.99 49.07 C 147.96 50.14 146.91 51.18 145.83 52.19 C 144.64 51.83 143.46 51.47 142.28 51.11 Z" />
<path fill="#828a88" opacity="1.00" d=" M 156.74 52.49 C 159.20 49.32 162.73 47.02 166.39 45.43 C 161.51 51.02 157.26 58.26 149.51 60.09 C 148.73 58.40 147.70 56.84 146.50 55.42 C 146.83 55.08 147.49 54.40 147.82 54.07 C 148.84 55.12 149.87 56.18 150.90 57.23 C 152.18 55.90 153.32 54.43 153.85 52.64 C 152.22 52.69 150.59 52.76 148.97 52.91 C 149.34 52.51 150.08 51.72 150.46 51.33 C 151.80 51.32 153.14 51.32 154.49 51.31 C 154.92 52.50 155.36 53.69 155.79 54.88 C 156.09 54.08 156.41 53.28 156.74 52.49 Z" />
<path fill="#494c4e" opacity="1.00" d=" M 281.12 47.94 C 282.49 49.13 283.84 50.33 285.19 51.53 C 281.23 55.24 275.47 56.39 272.13 60.84 C 275.56 65.26 278.92 69.75 281.65 74.64 C 281.53 75.76 281.41 76.87 281.30 77.98 C 277.81 73.92 274.10 70.02 269.73 66.88 C 269.22 66.31 268.71 65.74 268.21 65.17 C 267.03 62.75 265.92 60.29 264.72 57.89 C 264.96 57.43 265.46 56.51 265.71 56.05 L 266.75 57.23 C 267.78 58.55 269.31 59.25 270.90 59.66 C 271.56 57.32 272.25 54.96 273.47 52.83 C 273.75 52.70 274.32 52.44 274.61 52.31 C 275.20 52.64 276.37 53.29 276.95 53.61 C 278.25 51.66 279.62 49.75 281.12 47.94 Z" />
<path fill="#2a4855" opacity="1.00" d=" M 210.15 49.33 C 210.43 49.26 210.97 49.12 211.24 49.05 C 211.30 49.38 211.41 50.05 211.46 50.39 C 211.58 53.09 211.51 55.80 211.44 58.51 C 210.98 58.50 210.06 58.49 209.60 58.48 C 209.55 55.61 209.47 52.73 209.37 49.86 C 209.57 49.73 209.96 49.46 210.15 49.33 Z" />
<path fill="#e2e8e8" opacity="1.00" d=" M 203.89 52.31 C 205.58 51.20 207.46 50.47 209.37 49.86 C 209.47 52.73 209.55 55.61 209.60 58.48 C 210.06 58.49 210.98 58.50 211.44 58.51 C 211.51 55.80 211.58 53.09 211.46 50.39 C 212.83 50.36 214.19 50.35 215.56 50.34 C 216.31 51.04 217.06 51.74 217.84 52.41 C 218.76 53.16 219.69 53.90 220.63 54.62 C 219.61 54.79 218.59 54.95 217.57 55.12 C 217.99 56.10 218.42 57.07 218.84 58.05 C 217.88 58.28 216.92 58.52 215.97 58.75 C 215.29 61.08 214.56 63.40 213.83 65.71 C 213.12 65.06 212.41 64.42 211.69 63.79 C 211.16 63.37 210.10 62.53 209.57 62.11 C 209.17 70.05 210.80 78.16 208.70 85.95 C 209.06 87.79 210.03 89.44 210.74 91.15 C 210.82 91.09 210.98 90.97 211.07 90.90 C 212.30 89.82 214.61 89.12 214.39 87.08 C 214.24 82.72 214.02 78.30 215.56 74.13 C 218.55 75.59 222.13 76.75 223.48 80.14 C 224.19 79.83 224.90 79.53 225.61 79.23 C 227.78 81.86 227.79 85.50 229.65 88.26 C 231.83 90.03 234.56 90.94 236.96 92.39 C 234.41 93.47 231.85 94.54 229.23 95.42 C 228.52 95.50 227.10 95.66 226.40 95.74 C 218.33 97.64 210.41 100.07 202.48 102.44 C 200.49 102.85 198.70 103.83 196.95 104.81 C 186.15 109.31 176.01 115.27 167.01 122.76 C 163.72 124.81 160.17 126.46 156.32 127.04 C 155.89 123.87 155.61 120.69 155.59 117.49 C 153.39 118.47 151.17 119.55 149.55 121.38 C 148.45 120.19 147.35 119.01 146.25 117.83 C 148.73 117.37 151.22 116.98 153.69 116.49 L 153.73 115.81 C 153.74 115.27 153.78 114.18 153.79 113.64 C 150.73 113.63 147.66 113.62 144.60 113.62 C 144.54 111.98 144.38 110.34 144.28 108.70 C 145.40 101.55 148.14 94.83 150.31 87.96 C 150.97 88.65 151.64 89.34 152.30 90.03 C 152.32 87.66 152.50 85.28 153.15 82.98 C 155.91 84.49 158.65 86.07 161.38 87.64 C 161.47 87.14 161.66 86.15 161.75 85.65 C 159.25 84.11 156.73 82.60 154.18 81.16 C 155.13 79.67 156.14 78.23 157.14 76.78 C 157.78 77.42 158.41 78.07 159.05 78.71 C 159.62 76.41 160.22 74.12 160.84 71.83 C 161.62 72.36 162.42 72.89 163.21 73.42 C 164.12 70.90 165.14 68.00 168.30 67.92 C 169.62 66.23 170.27 62.40 173.11 63.97 C 174.52 62.60 175.97 61.29 177.49 60.06 C 178.87 62.59 180.55 64.95 182.56 67.02 C 182.91 63.85 180.85 61.25 179.14 58.82 C 182.33 57.68 185.61 56.68 188.37 54.62 C 190.82 54.45 193.09 53.50 195.18 52.25 C 196.02 52.46 196.85 52.67 197.69 52.88 C 199.15 52.04 200.62 51.19 202.08 50.35 C 202.68 51.00 203.29 51.65 203.89 52.31 M 197.93 66.08 C 198.80 67.38 199.10 69.43 200.86 69.83 C 203.23 68.82 200.40 66.53 199.89 65.03 C 199.40 65.29 198.42 65.82 197.93 66.08 M 195.01 76.37 C 193.68 75.11 192.16 74.07 190.58 73.17 C 189.97 75.87 192.92 76.79 195.01 76.37 M 187.36 84.22 C 187.34 84.90 187.30 86.26 187.29 86.94 C 188.80 86.94 190.31 86.95 191.82 86.95 C 191.74 86.33 191.58 85.10 191.50 84.49 C 190.12 84.39 188.74 84.30 187.36 84.22 M 189.90 97.86 C 192.08 97.91 194.26 96.97 194.71 94.60 C 192.48 94.58 190.59 95.72 189.90 97.86 Z" />
<path fill="#d7dedf" opacity="1.00" d=" M 217.84 52.41 C 218.09 51.88 218.58 50.83 218.83 50.30 C 220.31 50.34 221.79 50.38 223.27 50.42 C 223.46 51.50 223.66 52.59 223.85 53.67 C 224.51 52.89 225.17 52.11 225.83 51.33 C 227.47 51.42 229.12 51.52 230.77 51.62 C 230.39 52.76 230.02 53.90 229.65 55.05 C 230.43 54.27 231.21 53.49 231.99 52.72 C 236.17 53.73 240.21 55.17 244.12 56.95 C 243.59 57.21 242.54 57.73 242.01 57.99 C 240.52 60.86 238.13 63.59 238.55 67.06 C 240.03 65.29 241.45 63.46 242.71 61.52 C 244.05 62.13 245.40 62.73 246.76 63.33 C 245.97 64.51 245.19 65.69 244.41 66.87 C 245.43 68.12 246.53 69.34 247.34 70.76 C 248.53 73.43 247.81 76.49 248.71 79.23 C 250.77 80.57 253.29 80.78 255.64 81.27 C 254.82 82.00 254.01 82.73 253.20 83.46 C 254.38 83.72 255.57 83.98 256.76 84.25 C 257.98 86.36 259.68 88.04 261.93 89.05 C 260.77 90.42 259.92 92.51 257.91 92.71 C 248.91 93.83 239.69 93.49 230.89 95.98 C 230.48 95.84 229.65 95.56 229.23 95.42 C 231.85 94.54 234.41 93.47 236.96 92.39 C 234.56 90.94 231.83 90.03 229.65 88.26 C 227.79 85.50 227.78 81.86 225.61 79.23 C 224.90 79.53 224.19 79.83 223.48 80.14 C 222.13 76.75 218.55 75.59 215.56 74.13 C 214.02 78.30 214.24 82.72 214.39 87.08 C 214.61 89.12 212.30 89.82 211.07 90.90 C 211.60 89.07 212.72 87.23 212.46 85.27 C 210.40 78.27 212.07 70.94 211.69 63.79 C 212.41 64.42 213.12 65.06 213.83 65.71 C 214.56 63.40 215.29 61.08 215.97 58.75 C 216.92 58.52 217.88 58.28 218.84 58.05 C 218.42 57.07 217.99 56.10 217.57 55.12 C 218.59 54.95 219.61 54.79 220.63 54.62 C 219.69 53.90 218.76 53.16 217.84 52.41 M 218.85 69.24 C 221.41 70.28 222.18 67.53 223.19 65.83 C 220.56 64.63 219.91 67.55 218.85 69.24 M 226.13 76.32 C 228.24 76.77 229.92 75.58 231.18 74.02 C 229.18 74.04 227.51 74.96 226.13 76.32 M 229.77 85.03 C 228.83 87.23 231.86 86.84 233.09 87.12 C 233.05 86.36 232.97 84.83 232.93 84.06 C 231.69 84.02 230.63 84.35 229.77 85.03 Z" />
<path fill="#fbfdfb" opacity="1.00" d=" M 266.88 53.15 C 268.44 52.02 270.05 50.96 271.68 49.93 C 271.54 52.69 270.87 55.42 269.25 57.71 C 268.63 57.59 267.38 57.35 266.75 57.23 L 265.71 56.05 C 265.63 55.61 265.45 54.72 265.36 54.28 C 265.74 54.00 266.50 53.43 266.88 53.15 Z" />
<path fill="#b1b7b9" opacity="1.00" d=" M 148.97 52.91 C 150.59 52.76 152.22 52.69 153.85 52.64 C 153.32 54.43 152.18 55.90 150.90 57.23 C 149.87 56.18 148.84 55.12 147.82 54.07 C 148.10 53.78 148.68 53.20 148.97 52.91 Z" />
<path fill="#2a4855" opacity="1.00" d=" M 242.01 57.99 C 242.54 57.73 243.59 57.21 244.12 56.95 C 243.70 58.49 243.30 60.04 242.71 61.52 C 241.45 63.46 240.03 65.29 238.55 67.06 C 238.13 63.59 240.52 60.86 242.01 57.99 Z" />
<path fill="#ccd5d7" opacity="1.00" d=" M 244.12 56.95 C 247.88 58.52 251.59 60.21 255.16 62.17 C 264.74 69.41 271.41 80.00 275.71 91.08 C 277.09 94.75 278.32 98.51 278.69 102.44 C 277.95 101.44 277.21 100.47 276.46 99.50 C 275.25 101.31 274.12 103.49 271.66 103.66 C 272.31 102.06 273.00 100.47 273.71 98.89 C 273.33 98.75 272.58 98.47 272.20 98.33 C 269.53 100.81 265.94 100.59 262.58 100.84 C 256.25 103.03 249.89 105.19 243.66 107.70 C 240.78 109.02 238.36 111.59 235.01 111.68 C 227.99 112.24 220.92 112.10 213.89 112.56 C 223.41 113.75 233.25 111.77 242.58 114.41 C 235.05 114.65 227.52 114.40 219.99 114.51 C 217.80 114.45 215.45 114.75 213.46 113.63 C 211.56 111.32 208.89 112.55 207.28 114.45 C 202.82 114.44 198.36 114.51 193.90 114.40 C 193.78 114.22 193.55 113.85 193.43 113.66 C 191.16 118.75 186.14 121.50 182.31 125.24 C 177.00 130.38 172.41 136.27 168.74 142.69 C 166.25 147.17 162.61 150.97 160.74 155.80 C 161.72 156.76 162.69 157.72 163.67 158.68 C 162.13 159.99 160.58 161.31 159.04 162.62 C 154.92 158.21 151.41 153.28 148.31 148.11 L 148.54 147.76 C 149.83 145.83 151.14 143.93 152.48 142.04 C 151.91 141.03 151.35 140.03 150.79 139.03 C 157.17 134.71 161.85 128.40 167.01 122.76 C 176.01 115.27 186.15 109.31 196.95 104.81 C 197.74 105.24 199.32 106.08 200.10 106.51 C 200.90 105.15 201.69 103.79 202.48 102.44 C 210.41 100.07 218.33 97.64 226.40 95.74 C 227.70 96.52 229.01 97.31 230.32 98.09 C 230.46 97.56 230.75 96.51 230.89 95.98 C 239.69 93.49 248.91 93.83 257.91 92.71 C 259.92 92.51 260.77 90.42 261.93 89.05 C 259.68 88.04 257.98 86.36 256.76 84.25 C 255.57 83.98 254.38 83.72 253.20 83.46 C 254.01 82.73 254.82 82.00 255.64 81.27 C 253.29 80.78 250.77 80.57 248.71 79.23 C 247.81 76.49 248.53 73.43 247.34 70.76 C 246.53 69.34 245.43 68.12 244.41 66.87 C 245.19 65.69 245.97 64.51 246.76 63.33 C 245.40 62.73 244.05 62.13 242.71 61.52 C 243.30 60.04 243.70 58.49 244.12 56.95 M 259.04 86.89 C 260.95 86.96 262.67 86.01 264.27 85.08 C 265.72 84.08 268.02 83.36 267.65 81.14 C 264.60 82.57 260.54 83.66 259.04 86.89 M 218.63 101.70 C 219.36 103.73 220.33 105.73 222.24 106.90 C 223.66 104.40 221.69 100.86 218.63 101.70 M 209.61 104.58 C 209.57 105.90 209.53 107.23 209.50 108.55 C 210.01 108.57 211.03 108.59 211.54 108.60 C 211.51 107.21 211.49 105.82 211.46 104.44 C 211.00 104.47 210.07 104.54 209.61 104.58 M 153.32 146.61 C 153.39 147.15 153.53 148.23 153.60 148.77 C 156.27 147.32 158.99 145.93 161.44 144.13 C 161.50 143.64 161.61 142.67 161.67 142.18 C 158.79 143.47 156.05 145.04 153.32 146.61 Z" />
<path fill="#2a4855" opacity="1.00" d=" M 177.49 60.06 C 177.49 58.99 177.54 57.91 177.59 56.84 C 177.98 57.34 178.75 58.32 179.14 58.82 C 180.85 61.25 182.91 63.85 182.56 67.02 C 180.55 64.95 178.87 62.59 177.49 60.06 Z" />
<path fill="#798291" opacity="1.00" d=" M 209.57 62.11 C 210.10 62.53 211.16 63.37 211.69 63.79 C 212.07 70.94 210.40 78.27 212.46 85.27 C 212.72 87.23 211.60 89.07 211.07 90.90 C 210.98 90.97 210.82 91.09 210.74 91.15 C 210.03 89.44 209.06 87.79 208.70 85.95 C 210.80 78.16 209.17 70.05 209.57 62.11 Z" />
<path fill="#b0c6d2" opacity="1.00" d=" M 197.93 66.08 C 198.42 65.82 199.40 65.29 199.89 65.03 C 200.40 66.53 203.23 68.82 200.86 69.83 C 199.10 69.43 198.80 67.38 197.93 66.08 Z" />
<path fill="#a9bfce" opacity="1.00" d=" M 218.85 69.24 C 219.91 67.55 220.56 64.63 223.19 65.83 C 222.18 67.53 221.41 70.28 218.85 69.24 Z" />
<path fill="#5c6062" opacity="1.00" d=" M 269.73 66.88 C 274.10 70.02 277.81 73.92 281.30 77.98 C 281.41 76.87 281.53 75.76 281.65 74.64 C 288.68 86.83 292.39 100.95 292.42 115.01 C 292.22 129.32 288.47 143.68 281.21 156.05 C 280.57 157.36 279.69 158.71 279.84 160.23 C 280.18 164.45 280.65 168.66 280.62 172.90 C 280.54 174.63 280.40 176.37 280.18 178.10 C 279.83 179.96 279.34 181.79 278.84 183.61 C 278.82 182.68 278.78 180.80 278.76 179.86 C 279.36 175.06 279.88 170.19 279.18 165.37 C 279.00 163.84 278.78 162.31 278.58 160.79 C 276.98 162.72 275.44 164.69 273.99 166.73 C 267.68 173.92 260.92 180.93 252.53 185.70 C 243.19 191.67 232.29 194.33 221.55 196.51 C 212.99 197.03 204.39 196.94 195.85 196.04 C 194.26 195.81 192.67 195.61 191.09 195.34 C 185.38 193.16 179.48 191.48 173.90 188.97 C 177.51 187.61 181.01 189.58 184.44 190.51 C 207.37 197.27 232.85 191.95 252.22 178.31 C 265.48 169.44 276.30 156.13 280.39 140.56 C 282.93 134.65 284.62 128.40 285.21 121.99 C 286.49 107.16 284.80 91.62 277.52 78.41 C 275.00 74.51 271.88 71.02 269.73 66.88 Z" />
<path fill="#73797b" opacity="1.00" d=" M 195.01 76.37 C 192.92 76.79 189.97 75.87 190.58 73.17 C 192.16 74.07 193.68 75.11 195.01 76.37 Z" />
<path fill="#4f6875" opacity="1.00" d=" M 226.13 76.32 C 227.51 74.96 229.18 74.04 231.18 74.02 C 229.92 75.58 228.24 76.77 226.13 76.32 Z" />
<path fill="#2a4855" opacity="1.00" d=" M 153.15 82.98 C 153.46 82.36 153.81 81.75 154.18 81.16 C 156.73 82.60 159.25 84.11 161.75 85.65 C 161.66 86.15 161.47 87.14 161.38 87.64 C 158.65 86.07 155.91 84.49 153.15 82.98 Z" />
<path fill="#2a4855" opacity="1.00" d=" M 259.04 86.89 C 260.54 83.66 264.60 82.57 267.65 81.14 C 268.02 83.36 265.72 84.08 264.27 85.08 C 262.67 86.01 260.95 86.96 259.04 86.89 Z" />
<path fill="#c3d4dd" opacity="1.00" d=" M 187.36 84.22 C 188.74 84.30 190.12 84.39 191.50 84.49 C 191.58 85.10 191.74 86.33 191.82 86.95 C 190.31 86.95 188.80 86.94 187.29 86.94 C 187.30 86.26 187.34 84.90 187.36 84.22 Z" />
<path fill="#b9ced8" opacity="1.00" d=" M 229.77 85.03 C 230.63 84.35 231.69 84.02 232.93 84.06 C 232.97 84.83 233.05 86.36 233.09 87.12 C 231.86 86.84 228.83 87.23 229.77 85.03 Z" />
<path fill="#cad2d3" opacity="1.00" d=" M 130.81 92.72 L 131.38 93.69 C 131.46 98.49 130.29 103.20 130.40 108.01 C 129.99 119.07 132.80 130.23 138.29 139.83 C 138.59 139.55 139.20 138.98 139.50 138.70 C 138.58 134.72 138.07 130.65 138.43 126.57 C 140.46 134.96 142.75 143.49 147.32 150.91 C 147.05 151.68 146.52 153.24 146.26 154.01 C 140.80 150.05 137.68 143.97 133.79 138.64 C 129.40 128.35 127.80 117.06 128.58 105.93 C 128.73 101.45 129.72 97.05 130.81 92.72 Z" />
<path fill="#b1babf" opacity="1.00" d=" M 189.90 97.86 C 190.59 95.72 192.48 94.58 194.71 94.60 C 194.26 96.97 192.08 97.91 189.90 97.86 Z" />
<path fill="#2a4855" opacity="1.00" d=" M 226.40 95.74 C 227.10 95.66 228.52 95.50 229.23 95.42 C 229.65 95.56 230.48 95.84 230.89 95.98 C 230.75 96.51 230.46 97.56 230.32 98.09 C 229.01 97.31 227.70 96.52 226.40 95.74 Z" />
<path fill="#d9e3e4" opacity="1.00" d=" M 262.58 100.84 C 265.94 100.59 269.53 100.81 272.20 98.33 C 272.58 98.47 273.33 98.75 273.71 98.89 C 273.00 100.47 272.31 102.06 271.66 103.66 C 274.12 103.49 275.25 101.31 276.46 99.50 C 277.21 100.47 277.95 101.44 278.69 102.44 C 280.22 109.19 280.62 116.39 279.42 123.26 C 278.92 120.09 278.42 116.92 277.84 113.76 C 277.51 113.74 276.86 113.70 276.53 113.68 C 273.34 113.66 270.10 113.34 266.95 113.91 C 266.92 114.38 266.87 115.32 266.84 115.79 C 270.00 116.26 273.25 115.63 276.45 115.77 L 276.39 116.69 C 273.13 116.96 269.79 117.10 266.55 116.60 C 266.04 115.37 265.56 114.13 265.13 112.88 C 264.72 115.31 264.28 117.77 263.28 120.04 C 262.48 118.65 261.69 117.27 260.87 115.90 C 260.66 115.58 260.25 114.94 260.04 114.62 C 254.22 114.40 248.39 114.67 242.58 114.41 C 233.25 111.77 223.41 113.75 213.89 112.56 C 220.92 112.10 227.99 112.24 235.01 111.68 C 238.36 111.59 240.78 109.02 243.66 107.70 C 249.89 105.19 256.25 103.03 262.58 100.84 Z" />
<path fill="#aec2cd" opacity="1.00" d=" M 196.95 104.81 C 198.70 103.83 200.49 102.85 202.48 102.44 C 201.69 103.79 200.90 105.15 200.10 106.51 C 199.32 106.08 197.74 105.24 196.95 104.81 Z" />
<path fill="#8fadbc" opacity="1.00" d=" M 218.63 101.70 C 221.69 100.86 223.66 104.40 222.24 106.90 C 220.33 105.73 219.36 103.73 218.63 101.70 Z" />
<path fill="#2a4855" opacity="1.00" d=" M 209.61 104.58 C 210.07 104.54 211.00 104.47 211.46 104.44 C 211.49 105.82 211.51 107.21 211.54 108.60 C 211.03 108.59 210.01 108.57 209.50 108.55 C 209.53 107.23 209.57 105.90 209.61 104.58 Z" />
<path fill="#959a9d" opacity="1.00" d=" M 127.63 111.03 C 127.75 109.31 127.48 107.40 128.58 105.93 C 127.80 117.06 129.40 128.35 133.79 138.64 C 134.62 143.00 136.64 146.96 139.04 150.65 C 140.53 153.63 142.19 156.51 143.95 159.34 C 144.39 164.49 149.45 166.91 152.51 170.42 C 151.83 170.75 150.48 171.41 149.81 171.74 C 146.56 168.45 143.85 164.69 141.27 160.86 C 138.41 156.82 136.27 152.33 134.16 147.87 C 133.99 147.46 133.64 146.64 133.47 146.24 C 132.19 143.24 131.14 140.16 130.11 137.08 C 128.31 137.65 126.52 138.23 124.73 138.78 C 124.18 138.76 123.08 138.70 122.53 138.68 C 125.11 137.44 127.80 136.47 130.49 135.50 C 128.30 127.55 127.34 119.27 127.63 111.03 Z" />
<path fill="#d8e0e1" opacity="1.00" d=" M 142.36 128.57 C 142.66 121.92 142.38 115.17 144.28 108.70 C 144.38 110.34 144.54 111.98 144.60 113.62 C 144.62 114.18 144.65 115.29 144.66 115.84 C 147.68 115.83 150.70 115.81 153.73 115.81 L 153.69 116.49 C 151.22 116.98 148.73 117.37 146.25 117.83 C 147.35 119.01 148.45 120.19 149.55 121.38 C 151.17 119.55 153.39 118.47 155.59 117.49 C 155.61 120.69 155.89 123.87 156.32 127.04 C 160.17 126.46 163.72 124.81 167.01 122.76 C 161.85 128.40 157.17 134.71 150.79 139.03 C 151.35 140.03 151.91 141.03 152.48 142.04 C 151.14 143.93 149.83 145.83 148.54 147.76 C 145.30 141.89 142.42 135.37 142.36 128.57 Z" />
<path fill="#032a40" opacity="1.00" d=" M 207.28 114.45 C 208.89 112.55 211.56 111.32 213.46 113.63 C 213.47 114.29 213.48 115.61 213.49 116.27 C 212.17 116.75 210.84 117.18 209.46 117.41 C 209.17 117.04 208.61 116.30 208.32 115.93 C 203.77 115.36 199.17 115.79 194.60 115.49 C 194.43 115.22 194.08 114.67 193.90 114.40 C 198.36 114.51 202.82 114.44 207.28 114.45 Z" />
<path fill="#4c616d" opacity="1.00" d=" M 144.60 113.62 C 147.66 113.62 150.73 113.63 153.79 113.64 C 153.78 114.18 153.74 115.27 153.73 115.81 C 150.70 115.81 147.68 115.83 144.66 115.84 C 144.65 115.29 144.62 114.18 144.60 113.62 Z" />
<path fill="#bbced1" opacity="1.00" d=" M 193.43 113.66 C 193.55 113.85 193.78 114.22 193.90 114.40 C 194.08 114.67 194.43 115.22 194.60 115.49 C 199.17 115.79 203.77 115.36 208.32 115.93 C 204.91 120.12 197.97 113.55 195.32 119.20 C 200.62 119.82 206.10 118.95 211.23 120.77 C 213.17 121.56 215.05 120.33 216.92 119.90 C 219.37 119.95 221.80 120.32 224.22 120.63 C 221.13 120.86 218.10 121.51 215.09 122.24 C 209.46 121.90 203.66 120.57 198.12 122.29 C 193.85 125.63 189.93 129.47 187.28 134.25 C 181.50 140.94 179.08 149.67 173.77 156.65 C 172.78 159.83 175.43 163.35 173.37 166.42 C 170.73 165.63 167.98 165.54 165.28 166.03 C 166.07 167.48 166.85 168.94 167.73 170.34 C 164.54 168.11 161.81 165.33 159.04 162.62 C 160.58 161.31 162.13 159.99 163.67 158.68 C 162.69 157.72 161.72 156.76 160.74 155.80 C 162.61 150.97 166.25 147.17 168.74 142.69 C 172.41 136.27 177.00 130.38 182.31 125.24 C 186.14 121.50 191.16 118.75 193.43 113.66 Z" />
<path fill="#edf3f5" opacity="1.00" d=" M 263.28 120.04 C 264.28 117.77 264.72 115.31 265.13 112.88 C 265.56 114.13 266.04 115.37 266.55 116.60 C 269.79 117.10 273.13 116.96 276.39 116.69 L 276.45 115.77 C 276.47 115.24 276.51 114.20 276.53 113.68 C 276.86 113.70 277.51 113.74 277.84 113.76 C 278.42 116.92 278.92 120.09 279.42 123.26 C 279.19 127.39 278.32 131.56 276.76 135.41 C 275.96 133.54 275.06 131.71 274.30 129.82 C 275.11 128.13 272.70 125.51 271.71 127.91 C 271.89 128.32 272.26 129.14 272.44 129.55 C 270.55 127.40 267.88 128.35 265.56 128.98 C 265.82 129.58 266.09 130.18 266.36 130.79 C 262.65 131.18 258.77 131.53 255.55 133.59 C 252.17 135.66 248.72 137.63 245.07 139.19 C 239.96 141.43 236.25 145.95 231.06 148.06 C 230.15 150.00 229.44 152.22 227.58 153.49 C 220.89 157.88 219.61 166.41 214.89 172.41 C 214.23 172.10 213.58 171.78 212.93 171.47 C 212.92 174.84 212.85 178.21 212.73 181.58 C 211.57 181.85 210.41 182.13 209.25 182.42 C 210.26 183.19 211.27 183.95 212.29 184.73 C 209.26 184.69 206.21 184.85 203.19 184.51 C 201.83 183.63 200.51 182.70 199.18 181.77 C 200.81 175.05 202.64 168.26 206.37 162.36 C 207.70 158.67 209.56 155.28 212.49 152.62 C 214.57 148.18 218.05 144.78 221.53 141.42 C 229.73 134.41 238.39 127.81 248.14 123.09 C 252.51 120.92 257.70 122.63 262.08 120.54 C 262.38 120.41 262.98 120.16 263.28 120.04 M 273.18 121.14 C 272.69 122.79 273.25 123.32 274.87 122.75 C 275.35 121.11 274.79 120.57 273.18 121.14 M 209.53 171.23 C 209.53 174.37 209.54 177.51 209.56 180.65 C 210.04 180.64 211.02 180.61 211.50 180.59 C 211.56 177.49 211.56 174.38 211.51 171.28 C 211.02 171.26 210.03 171.24 209.53 171.23 M 202.22 177.42 C 201.70 179.03 202.26 179.59 203.90 179.08 C 204.41 177.46 203.86 176.90 202.22 177.42 Z" />
<path fill="#4f6875" opacity="1.00" d=" M 266.95 113.91 C 270.10 113.34 273.34 113.66 276.53 113.68 C 276.51 114.20 276.47 115.24 276.45 115.77 C 273.25 115.63 270.00 116.26 266.84 115.79 C 266.87 115.32 266.92 114.38 266.95 113.91 Z" />
<path fill="#2a4855" opacity="1.00" d=" M 213.46 113.63 C 215.45 114.75 217.80 114.45 219.99 114.51 C 227.52 114.40 235.05 114.65 242.58 114.41 C 248.39 114.67 254.22 114.40 260.04 114.62 C 260.25 114.94 260.66 115.58 260.87 115.90 C 245.99 115.97 231.11 115.80 216.24 115.84 C 215.82 115.86 214.99 115.90 214.58 115.91 L 213.49 116.27 C 213.48 115.61 213.47 114.29 213.46 113.63 Z" />
<path fill="#9eaab3" opacity="1.00" d=" M 208.32 115.93 C 208.61 116.30 209.17 117.04 209.46 117.41 C 210.72 118.73 212.60 121.57 214.43 119.44 C 214.56 118.27 214.55 117.09 214.58 115.91 C 214.99 115.90 215.82 115.86 216.24 115.84 C 218.04 117.66 220.58 118.09 223.00 118.45 C 220.95 118.83 218.91 119.28 216.92 119.90 C 215.05 120.33 213.17 121.56 211.23 120.77 C 206.10 118.95 200.62 119.82 195.32 119.20 C 197.97 113.55 204.91 120.12 208.32 115.93 Z" />
<path fill="#728290" opacity="1.00" d=" M 213.49 116.27 L 214.58 115.91 C 214.55 117.09 214.56 118.27 214.43 119.44 C 212.60 121.57 210.72 118.73 209.46 117.41 C 210.84 117.18 212.17 116.75 213.49 116.27 Z" />
<path fill="#b7c4ce" opacity="1.00" d=" M 216.24 115.84 C 231.11 115.80 245.99 115.97 260.87 115.90 C 261.69 117.27 262.48 118.65 263.28 120.04 C 262.98 120.16 262.38 120.41 262.08 120.54 C 249.46 119.90 236.83 120.82 224.22 120.63 C 221.80 120.32 219.37 119.95 216.92 119.90 C 218.91 119.28 220.95 118.83 223.00 118.45 C 220.58 118.09 218.04 117.66 216.24 115.84 Z" />
<path fill="#c8d2d5" opacity="1.00" d=" M 198.12 122.29 C 203.66 120.57 209.46 121.90 215.09 122.24 C 209.85 123.21 205.80 126.78 202.74 130.95 C 199.83 134.87 196.72 138.62 193.27 142.06 C 193.05 145.58 189.43 147.48 188.51 150.75 C 187.14 155.18 185.62 160.27 180.64 161.78 C 180.78 162.19 181.08 163.01 181.22 163.43 C 179.28 166.10 177.83 169.10 176.78 172.24 C 177.81 171.79 178.83 171.32 179.84 170.83 C 179.62 171.25 179.17 172.10 178.95 172.53 C 177.91 172.95 176.85 173.33 175.80 173.71 C 175.63 174.13 175.30 174.97 175.14 175.38 C 172.63 173.77 169.99 172.31 167.73 170.34 C 166.85 168.94 166.07 167.48 165.28 166.03 C 167.98 165.54 170.73 165.63 173.37 166.42 C 175.43 163.35 172.78 159.83 173.77 156.65 C 179.08 149.67 181.50 140.94 187.28 134.25 C 189.93 129.47 193.85 125.63 198.12 122.29 Z" />
<path fill="#d9e2e4" opacity="1.00" d=" M 215.09 122.24 C 218.10 121.51 221.13 120.86 224.22 120.63 C 236.83 120.82 249.46 119.90 262.08 120.54 C 257.70 122.63 252.51 120.92 248.14 123.09 C 238.39 127.81 229.73 134.41 221.53 141.42 C 218.05 144.78 214.57 148.18 212.49 152.62 C 209.56 155.28 207.70 158.67 206.37 162.36 C 202.64 168.26 200.81 175.05 199.18 181.77 C 200.51 182.70 201.83 183.63 203.19 184.51 C 193.26 183.82 183.82 180.09 175.14 175.38 C 175.30 174.97 175.63 174.13 175.80 173.71 C 176.85 173.33 177.91 172.95 178.95 172.53 C 179.17 172.10 179.62 171.25 179.84 170.83 C 181.07 168.46 182.21 166.04 183.34 163.62 C 182.81 163.57 181.75 163.47 181.22 163.43 C 181.08 163.01 180.78 162.19 180.64 161.78 C 185.62 160.27 187.14 155.18 188.51 150.75 C 189.43 147.48 193.05 145.58 193.27 142.06 C 196.72 138.62 199.83 134.87 202.74 130.95 C 205.80 126.78 209.85 123.21 215.09 122.24 Z" />
<path fill="#c3ccd6" opacity="1.00" d=" M 273.18 121.14 C 274.79 120.57 275.35 121.11 274.87 122.75 C 273.25 123.32 272.69 122.79 273.18 121.14 Z" />
<path fill="#fcfdfd" opacity="1.00" d=" M 265.56 128.98 C 267.88 128.35 270.55 127.40 272.44 129.55 C 272.91 129.62 273.84 129.75 274.30 129.82 C 275.06 131.71 275.96 133.54 276.76 135.41 C 268.86 163.41 241.37 184.37 212.29 184.73 C 211.27 183.95 210.26 183.19 209.25 182.42 C 210.41 182.13 211.57 181.85 212.73 181.58 C 212.85 178.21 212.92 174.84 212.93 171.47 C 213.58 171.78 214.23 172.10 214.89 172.41 C 219.61 166.41 220.89 157.88 227.58 153.49 C 229.44 152.22 230.15 150.00 231.06 148.06 C 236.25 145.95 239.96 141.43 245.07 139.19 C 248.72 137.63 252.17 135.66 255.55 133.59 C 258.77 131.53 262.65 131.18 266.36 130.79 C 266.09 130.18 265.82 129.58 265.56 128.98 M 270.40 134.16 C 269.86 135.80 270.40 136.36 272.02 135.84 C 272.55 134.19 272.01 133.63 270.40 134.16 M 268.25 139.99 C 266.54 140.40 267.15 143.24 268.91 142.69 C 270.75 142.37 270.06 139.34 268.25 139.99 M 259.34 142.11 C 259.32 142.59 259.28 143.56 259.25 144.05 C 261.75 145.97 264.60 147.39 267.43 148.77 C 267.46 148.21 267.53 147.07 267.56 146.50 C 264.88 144.92 262.19 143.36 259.34 142.11 M 261.09 151.99 C 260.58 153.62 261.14 154.16 262.77 153.62 C 263.28 151.99 262.71 151.45 261.09 151.99 M 256.96 157.13 C 256.36 158.74 256.89 159.30 258.54 158.83 C 259.13 157.22 258.61 156.66 256.96 157.13 M 252.07 161.94 C 251.52 163.56 252.06 164.12 253.70 163.61 C 254.25 161.99 253.71 161.43 252.07 161.94 M 238.13 163.31 C 238.44 166.41 240.49 168.88 241.86 171.57 C 242.43 171.63 243.58 171.76 244.15 171.83 C 243.23 168.90 241.45 166.39 239.98 163.74 C 239.52 163.63 238.59 163.42 238.13 163.31 M 246.40 166.13 C 245.23 167.59 247.76 169.25 248.73 167.72 C 249.92 166.25 247.36 164.57 246.40 166.13 M 235.17 172.35 C 233.62 173.33 235.34 175.83 236.79 174.64 C 238.34 173.65 236.62 171.14 235.17 172.35 M 228.45 175.09 C 227.20 176.55 229.77 178.14 230.77 176.71 C 232.06 175.24 229.45 173.60 228.45 175.09 M 223.18 176.34 C 221.68 176.25 221.69 178.72 223.19 178.65 C 224.69 178.73 224.67 176.26 223.18 176.34 M 216.25 177.14 C 214.42 177.44 215.09 180.35 216.88 179.78 C 218.73 179.50 218.05 176.53 216.25 177.14 Z" />
<path fill="#d1d7dd" opacity="1.00" d=" M 271.71 127.91 C 272.70 125.51 275.11 128.13 274.30 129.82 C 273.84 129.75 272.91 129.62 272.44 129.55 C 272.26 129.14 271.89 128.32 271.71 127.91 Z" />
<path fill="#c8cfd7" opacity="1.00" d=" M 270.40 134.16 C 272.01 133.63 272.55 134.19 272.02 135.84 C 270.40 136.36 269.86 135.80 270.40 134.16 Z" />
<path fill="#f4f2f0" opacity="1.00" d=" M 124.73 138.78 C 126.52 138.23 128.31 137.65 130.11 137.08 C 131.14 140.16 132.19 143.24 133.47 146.24 C 123.97 147.81 114.10 146.67 104.78 149.47 C 99.11 151.25 92.82 151.28 87.73 154.66 C 84.91 156.51 80.80 158.07 80.89 162.09 C 82.65 162.51 84.44 162.90 86.12 163.61 C 83.74 164.24 80.66 164.01 78.88 165.92 C 77.21 170.32 77.83 175.20 77.31 179.82 C 76.28 180.14 75.24 180.48 74.21 180.81 C 74.67 181.53 75.13 182.26 75.59 182.99 C 67.01 181.36 58.33 180.34 49.65 179.39 C 44.96 178.92 40.27 177.64 35.54 178.45 C 37.31 178.86 39.10 179.25 40.89 179.62 C 39.27 180.02 37.65 180.43 36.02 180.82 C 30.34 180.12 24.66 178.85 18.91 179.59 C 19.45 179.08 20.53 178.08 21.06 177.58 C 25.40 177.61 29.73 177.80 34.06 177.66 C 29.62 177.17 25.17 176.69 20.78 175.82 C 22.36 174.76 23.95 173.70 25.58 172.72 C 33.87 170.70 41.67 167.15 49.84 164.72 C 64.73 159.61 79.60 154.49 94.53 149.51 C 104.67 146.16 114.95 143.10 124.73 138.78 M 42.72 170.73 C 42.63 171.60 42.54 172.47 42.45 173.34 C 42.86 173.56 43.70 174.01 44.11 174.24 C 45.15 173.20 46.19 172.17 47.23 171.13 C 47.59 171.42 48.32 172.01 48.68 172.30 C 49.34 172.30 50.65 172.31 51.31 172.32 C 51.68 172.63 52.41 173.25 52.78 173.55 C 52.56 172.61 52.34 171.66 52.13 170.72 C 49.02 170.06 45.84 170.37 42.72 170.73 Z" />
<path fill="#bdbdbd" opacity="1.00" d=" M 117.02 140.36 C 118.84 139.79 120.59 138.77 122.53 138.68 C 123.08 138.70 124.18 138.76 124.73 138.78 C 114.95 143.10 104.67 146.16 94.53 149.51 C 79.60 154.49 64.73 159.61 49.84 164.72 C 41.67 167.15 33.87 170.70 25.58 172.72 L 23.82 172.11 C 54.84 161.39 85.90 150.78 117.02 140.36 Z" />
<path fill="#b0b7b8" opacity="1.00" d=" M 133.79 138.64 C 137.68 143.97 140.80 150.05 146.26 154.01 C 146.52 153.24 147.05 151.68 147.32 150.91 C 151.85 158.17 157.23 164.90 163.70 170.55 C 158.88 169.79 155.08 166.55 151.42 163.58 C 146.79 159.77 143.13 154.99 139.04 150.65 C 136.64 146.96 134.62 143.00 133.79 138.64 Z" />
<path fill="#d3d9df" opacity="1.00" d=" M 268.25 139.99 C 270.06 139.34 270.75 142.37 268.91 142.69 C 267.15 143.24 266.54 140.40 268.25 139.99 Z" />
<path fill="#6f7577" opacity="1.00" d=" M 274.72 150.71 C 276.46 147.25 278.26 143.80 280.39 140.56 C 276.30 156.13 265.48 169.44 252.22 178.31 C 232.85 191.95 207.37 197.27 184.44 190.51 C 181.01 189.58 177.51 187.61 173.90 188.97 C 170.02 187.25 166.43 184.97 162.87 182.70 C 162.64 182.54 162.18 182.22 161.95 182.05 C 157.81 178.73 153.43 175.66 149.81 171.74 C 150.48 171.41 151.83 170.75 152.51 170.42 C 168.85 186.08 192.71 191.68 214.80 189.33 C 221.19 189.33 227.43 187.71 233.35 185.38 C 250.71 179.31 265.88 166.89 274.72 150.71 Z" />
<path fill="#2a4855" opacity="1.00" d=" M 153.32 146.61 C 156.05 145.04 158.79 143.47 161.67 142.18 C 161.61 142.67 161.50 143.64 161.44 144.13 C 158.99 145.93 156.27 147.32 153.60 148.77 C 153.53 148.23 153.39 147.15 153.32 146.61 Z" />
<path fill="#465f6e" opacity="1.00" d=" M 259.34 142.11 C 262.19 143.36 264.88 144.92 267.56 146.50 C 267.53 147.07 267.46 148.21 267.43 148.77 C 264.60 147.39 261.75 145.97 259.25 144.05 C 259.28 143.56 259.32 142.59 259.34 142.11 Z" />
<path fill="#f9faf9" opacity="1.00" d=" M 104.78 149.47 C 114.10 146.67 123.97 147.81 133.47 146.24 C 133.64 146.64 133.99 147.46 134.16 147.87 C 134.62 151.21 135.55 154.88 134.23 158.11 C 132.24 159.32 129.98 159.96 127.76 160.61 C 118.95 162.84 110.54 166.42 101.68 168.46 C 98.93 169.03 96.10 168.62 93.35 168.28 C 91.01 166.61 88.57 165.10 86.12 163.61 C 84.44 162.90 82.65 162.51 80.89 162.09 C 80.80 158.07 84.91 156.51 87.73 154.66 C 92.82 151.28 99.11 151.25 104.78 149.47 Z" />
<path fill="#ebebeb" opacity="1.00" d=" M 134.16 147.87 C 136.27 152.33 138.41 156.82 141.27 160.86 C 140.59 163.25 139.88 165.63 139.13 167.99 C 133.95 169.39 129.12 171.87 123.82 172.85 C 118.48 174.31 112.89 173.72 107.50 172.91 C 103.02 172.10 98.57 170.98 94.40 169.15 L 93.35 168.28 C 96.10 168.62 98.93 169.03 101.68 168.46 C 110.54 166.42 118.95 162.84 127.76 160.61 C 129.98 159.96 132.24 159.32 134.23 158.11 C 135.55 154.88 134.62 151.21 134.16 147.87 Z" />
<path fill="#a0a7a9" opacity="1.00" d=" M 139.04 150.65 C 143.13 154.99 146.79 159.77 151.42 163.58 C 155.08 166.55 158.88 169.79 163.70 170.55 C 171.89 176.50 180.65 181.91 190.52 184.57 C 183.27 185.00 176.64 181.55 170.12 178.87 C 159.93 174.60 151.65 167.06 143.95 159.34 C 142.19 156.51 140.53 153.63 139.04 150.65 Z" />
<path fill="#c8d2d9" opacity="1.00" d=" M 261.09 151.99 C 262.71 151.45 263.28 151.99 262.77 153.62 C 261.14 154.16 260.58 153.62 261.09 151.99 Z" />
<path fill="#c8d2d8" opacity="1.00" d=" M 256.96 157.13 C 258.61 156.66 259.13 157.22 258.54 158.83 C 256.89 159.30 256.36 158.74 256.96 157.13 Z" />
<path fill="#8a9092" opacity="1.00" d=" M 143.95 159.34 C 151.65 167.06 159.93 174.60 170.12 178.87 C 176.64 181.55 183.27 185.00 190.52 184.57 C 195.38 185.26 200.13 186.62 205.04 186.98 C 210.41 187.39 215.80 187.09 221.19 187.07 C 219.06 187.84 216.94 188.63 214.80 189.33 C 192.71 191.68 168.85 186.08 152.51 170.42 C 149.45 166.91 144.39 164.49 143.95 159.34 Z" />
<path fill="#dadcdd" opacity="1.00" d=" M 141.27 160.86 C 143.85 164.69 146.56 168.45 149.81 171.74 C 153.43 175.66 157.81 178.73 161.95 182.05 C 159.65 182.56 157.34 183.04 155.00 183.34 C 155.99 182.24 156.98 181.14 157.97 180.03 C 155.76 179.05 153.48 178.15 151.05 177.94 C 143.43 177.13 135.75 177.45 128.11 177.44 C 128.28 178.37 128.45 179.31 128.63 180.24 C 133.84 181.26 139.11 181.94 144.35 182.80 C 140.60 183.18 136.82 183.31 133.10 182.63 C 127.38 181.47 121.03 181.49 116.20 177.79 C 116.51 177.37 117.11 176.51 117.42 176.09 C 114.24 175.34 111.05 174.70 107.90 173.85 L 107.50 172.91 C 112.89 173.72 118.48 174.31 123.82 172.85 C 129.12 171.87 133.95 169.39 139.13 167.99 C 139.88 165.63 140.59 163.25 141.27 160.86 Z" />
<path fill="#9a9a9a" opacity="1.00" d=" M 273.99 166.73 C 275.44 164.69 276.98 162.72 278.58 160.79 C 278.78 162.31 279.00 163.84 279.18 165.37 C 275.61 168.88 274.68 173.94 273.31 178.55 C 272.66 180.81 272.46 183.17 272.34 185.51 C 273.54 185.48 275.95 185.41 277.15 185.38 C 276.66 186.59 276.13 187.79 275.54 188.96 C 269.99 191.21 265.22 194.88 260.16 198.01 C 238.85 211.34 217.81 225.08 196.62 238.59 C 189.40 243.27 182.22 248.05 174.72 252.27 C 175.83 248.87 176.64 245.37 176.92 241.80 C 181.16 242.01 184.16 238.62 187.53 236.61 C 194.53 232.26 201.33 227.63 208.40 223.40 C 213.88 219.76 220.09 217.35 225.32 213.32 C 235.39 206.77 245.04 199.62 255.08 193.02 C 259.02 190.49 263.34 188.06 265.76 183.87 C 268.96 178.40 271.87 172.72 273.99 166.73 Z" />
<path fill="#cad2d8" opacity="1.00" d=" M 252.07 161.94 C 253.71 161.43 254.25 161.99 253.70 163.61 C 252.06 164.12 251.52 163.56 252.07 161.94 Z" />
<path fill="#465f6e" opacity="1.00" d=" M 181.22 163.43 C 181.75 163.47 182.81 163.57 183.34 163.62 C 182.21 166.04 181.07 168.46 179.84 170.83 C 178.83 171.32 177.81 171.79 176.78 172.24 C 177.83 169.10 179.28 166.10 181.22 163.43 Z" />
<path fill="#465f6e" opacity="1.00" d=" M 238.13 163.31 C 238.59 163.42 239.52 163.63 239.98 163.74 C 241.45 166.39 243.23 168.90 244.15 171.83 C 243.58 171.76 242.43 171.63 241.86 171.57 C 240.49 168.88 238.44 166.41 238.13 163.31 Z" />
<path fill="#e8e6e4" opacity="1.00" d=" M 78.88 165.92 C 80.66 164.01 83.74 164.24 86.12 163.61 C 88.57 165.10 91.01 166.61 93.35 168.28 L 94.40 169.15 C 90.35 167.85 85.94 166.63 81.88 168.60 C 82.87 169.69 83.86 170.78 84.87 171.86 C 87.96 175.27 90.85 178.87 93.11 182.89 C 93.97 184.52 95.39 185.69 96.84 186.77 C 94.80 186.83 92.77 186.94 90.74 186.98 C 81.54 185.01 72.25 183.54 62.99 181.92 C 59.68 181.12 56.43 182.18 53.43 183.51 C 47.66 182.39 41.82 181.71 36.02 180.82 C 37.65 180.43 39.27 180.02 40.89 179.62 C 39.10 179.25 37.31 178.86 35.54 178.45 C 40.27 177.64 44.96 178.92 49.65 179.39 C 58.33 180.34 67.01 181.36 75.59 182.99 C 75.13 182.26 74.67 181.53 74.21 180.81 C 75.24 180.48 76.28 180.14 77.31 179.82 C 77.83 175.20 77.21 170.32 78.88 165.92 Z" />
<path fill="#d2d8de" opacity="1.00" d=" M 246.40 166.13 C 247.36 164.57 249.92 166.25 248.73 167.72 C 247.76 169.25 245.23 167.59 246.40 166.13 Z" />
<path fill="#bdbdbd" opacity="1.00" d=" M 273.31 178.55 C 274.68 173.94 275.61 168.88 279.18 165.37 C 279.88 170.19 279.36 175.06 278.76 179.86 C 278.30 181.72 277.78 183.56 277.15 185.38 C 275.95 185.41 273.54 185.48 272.34 185.51 C 272.46 183.17 272.66 180.81 273.31 178.55 Z" />
<path fill="#898989" opacity="1.00" d=" M 252.53 185.70 C 260.92 180.93 267.68 173.92 273.99 166.73 C 271.87 172.72 268.96 178.40 265.76 183.87 C 263.34 188.06 259.02 190.49 255.08 193.02 C 245.04 199.62 235.39 206.77 225.32 213.32 C 220.09 217.35 213.88 219.76 208.40 223.40 C 201.33 227.63 194.53 232.26 187.53 236.61 C 184.16 238.62 181.16 242.01 176.92 241.80 C 176.99 239.88 176.99 237.96 177.02 236.05 C 178.05 233.60 179.65 231.36 182.00 230.04 C 192.44 223.75 203.23 218.05 213.66 211.73 C 220.84 207.49 228.39 203.91 235.62 199.76 C 230.90 198.81 226.10 198.16 221.55 196.51 C 232.29 194.33 243.19 191.67 252.53 185.70 Z" />
<path fill="#c2c6ca" opacity="1.00" d=" M 81.88 168.60 C 85.94 166.63 90.35 167.85 94.40 169.15 C 98.57 170.98 103.02 172.10 107.50 172.91 L 107.90 173.85 C 108.52 175.48 109.10 177.14 109.67 178.79 C 106.03 178.11 102.37 177.58 98.71 177.02 C 93.92 175.81 89.36 173.88 84.87 171.86 C 83.86 170.78 82.87 169.69 81.88 168.60 Z" />
<path fill="#959494" opacity="1.00" d=" M 42.72 170.73 C 45.84 170.37 49.02 170.06 52.13 170.72 C 52.34 171.66 52.56 172.61 52.78 173.55 C 52.41 173.25 51.68 172.63 51.31 172.32 C 50.65 172.31 49.34 172.30 48.68 172.30 C 48.32 172.01 47.59 171.42 47.23 171.13 C 46.19 172.17 45.15 173.20 44.11 174.24 C 43.70 174.01 42.86 173.56 42.45 173.34 C 42.54 172.47 42.63 171.60 42.72 170.73 Z" />
<path fill="#465f6e" opacity="1.00" d=" M 209.53 171.23 C 210.03 171.24 211.02 171.26 211.51 171.28 C 211.56 174.38 211.56 177.49 211.50 180.59 C 211.02 180.61 210.04 180.64 209.56 180.65 C 209.54 177.51 209.53 174.37 209.53 171.23 Z" />
<path fill="#dedcdb" opacity="1.00" d=" M 84.87 171.86 C 89.36 173.88 93.92 175.81 98.71 177.02 C 104.76 180.21 110.83 184.04 114.08 190.32 C 106.17 190.95 98.41 188.54 90.74 186.98 C 92.77 186.94 94.80 186.83 96.84 186.77 C 95.39 185.69 93.97 184.52 93.11 182.89 C 90.85 178.87 87.96 175.27 84.87 171.86 Z" />
<path fill="#d2d8df" opacity="1.00" d=" M 235.17 172.35 C 236.62 171.14 238.34 173.65 236.79 174.64 C 235.34 175.83 233.62 173.33 235.17 172.35 Z" />
<path fill="#dedede" opacity="1.00" d=" M 15.98 174.98 C 19.03 173.77 22.19 172.07 25.58 172.72 C 23.95 173.70 22.36 174.76 20.78 175.82 C 25.17 176.69 29.62 177.17 34.06 177.66 C 29.73 177.80 25.40 177.61 21.06 177.58 C 20.53 178.08 19.45 179.08 18.91 179.59 C 17.09 180.94 15.55 182.69 15.21 185.02 C 12.73 191.30 14.02 198.07 14.62 204.57 C 15.45 209.75 17.09 214.87 19.69 219.44 C 21.03 221.82 23.68 222.90 26.13 223.76 C 42.66 229.21 59.06 235.23 76.09 239.02 C 93.39 243.41 110.74 247.62 127.99 252.27 C 136.18 253.85 144.46 254.99 152.64 256.66 C 152.13 257.03 151.12 257.76 150.61 258.13 C 142.59 257.02 134.88 254.34 126.91 252.95 C 113.87 251.09 101.21 247.35 88.43 244.26 C 66.40 238.37 44.02 233.46 22.65 225.38 C 17.87 223.80 14.88 219.37 12.96 214.96 C 9.88 205.92 10.42 196.25 10.85 186.87 C 11.93 182.75 12.65 177.95 15.98 174.98 Z" />
<path fill="#d0d0cf" opacity="1.00" d=" M 107.90 173.85 C 111.05 174.70 114.24 175.34 117.42 176.09 C 117.11 176.51 116.51 177.37 116.20 177.79 C 121.03 181.49 127.38 181.47 133.10 182.63 C 132.63 182.87 131.69 183.34 131.22 183.58 C 133.62 186.43 136.71 188.56 140.39 189.35 C 139.15 191.65 139.05 194.24 139.48 196.77 C 138.83 196.87 137.52 197.06 136.87 197.16 C 132.23 195.87 127.27 195.14 122.78 197.40 C 99.83 191.98 76.78 186.93 53.43 183.51 C 56.43 182.18 59.68 181.12 62.99 181.92 C 72.25 183.54 81.54 185.01 90.74 186.98 C 98.41 188.54 106.17 190.95 114.08 190.32 C 110.83 184.04 104.76 180.21 98.71 177.02 C 102.37 177.58 106.03 178.11 109.67 178.79 C 109.10 177.14 108.52 175.48 107.90 173.85 Z" />
<path fill="#d0d7de" opacity="1.00" d=" M 228.45 175.09 C 229.45 173.60 232.06 175.24 230.77 176.71 C 229.77 178.14 227.20 176.55 228.45 175.09 Z" />
<path fill="#ccd4db" opacity="1.00" d=" M 223.18 176.34 C 224.67 176.26 224.69 178.73 223.19 178.65 C 221.69 178.72 221.68 176.25 223.18 176.34 Z" />
<path fill="#eaf2fb" opacity="1.00" d=" M 128.11 177.44 C 135.75 177.45 143.43 177.13 151.05 177.94 C 153.48 178.15 155.76 179.05 157.97 180.03 C 156.98 181.14 155.99 182.24 155.00 183.34 C 151.44 183.41 147.89 183.09 144.35 182.80 C 139.11 181.94 133.84 181.26 128.63 180.24 C 128.45 179.31 128.28 178.37 128.11 177.44 Z" />
<path fill="#c5ced7" opacity="1.00" d=" M 202.22 177.42 C 203.86 176.90 204.41 177.46 203.90 179.08 C 202.26 179.59 201.70 179.03 202.22 177.42 Z" />
<path fill="#d1d8df" opacity="1.00" d=" M 216.25 177.14 C 218.05 176.53 218.73 179.50 216.88 179.78 C 215.09 180.35 214.42 177.44 216.25 177.14 Z" />
<path fill="#4b4b4b" opacity="1.00" d=" M 18.91 179.59 C 24.66 178.85 30.34 180.12 36.02 180.82 C 41.82 181.71 47.66 182.39 53.43 183.51 C 76.78 186.93 99.83 191.98 122.78 197.40 C 128.00 198.53 133.20 199.71 138.38 200.98 C 142.26 202.10 146.11 203.43 150.11 204.06 C 154.94 205.57 159.89 206.76 164.60 208.60 C 168.67 210.10 170.09 214.57 171.55 218.23 C 175.89 229.57 176.28 242.79 170.86 253.83 C 169.91 255.82 168.08 257.14 166.40 258.47 C 163.82 257.73 161.15 257.47 158.48 257.35 C 160.96 257.19 163.38 256.55 165.65 255.56 C 167.37 253.83 169.10 251.95 169.77 249.54 C 172.54 238.57 172.05 226.69 167.65 216.21 C 166.55 213.61 164.44 211.44 161.66 210.69 C 152.26 207.87 142.76 205.42 133.28 202.88 C 126.05 200.34 118.44 199.16 111.01 197.36 C 92.50 192.99 73.82 189.37 55.08 186.16 C 46.43 184.81 37.83 182.69 29.04 182.57 C 26.23 182.45 23.42 182.49 20.62 182.48 C 20.26 182.81 19.55 183.47 19.19 183.80 C 18.12 184.89 17.25 186.17 16.79 187.64 C 16.27 189.04 15.80 190.47 15.36 191.90 C 15.48 189.61 15.38 187.31 15.21 185.02 C 15.55 182.69 17.09 180.94 18.91 179.59 Z" />
<path fill="#343537" opacity="1.00" d=" M 277.15 185.38 C 277.78 183.56 278.30 181.72 278.76 179.86 C 278.78 180.80 278.82 182.68 278.84 183.61 C 277.72 188.47 274.94 192.97 270.69 195.67 C 239.94 216.31 208.92 236.54 178.14 257.12 C 176.12 258.41 173.95 259.42 171.81 260.48 C 173.22 259.34 174.60 258.18 176.09 257.17 C 207.02 236.83 237.78 216.24 268.71 195.89 C 271.48 194.14 274.08 191.96 275.54 188.96 C 276.13 187.79 276.66 186.59 277.15 185.38 Z" />
<path fill="#c5c5c5" opacity="1.00" d=" M 161.95 182.05 C 162.18 182.22 162.64 182.54 162.87 182.70 C 162.73 183.31 162.46 184.54 162.33 185.15 C 169.59 190.41 177.54 195.48 186.64 196.57 C 188.24 196.82 189.66 195.86 191.09 195.34 C 192.67 195.61 194.26 195.81 195.85 196.04 C 198.74 196.67 201.54 197.66 204.37 198.52 C 202.16 198.71 199.96 199.02 197.75 199.17 C 194.60 198.80 191.33 197.13 188.20 198.40 C 181.36 200.70 175.89 206.43 168.51 207.13 C 162.51 205.59 156.39 203.52 150.11 204.06 C 146.11 203.43 142.26 202.10 138.38 200.98 C 142.07 200.62 145.77 200.68 149.47 200.90 C 145.57 198.75 141.13 198.16 136.87 197.16 C 137.52 197.06 138.83 196.87 139.48 196.77 C 139.05 194.24 139.15 191.65 140.39 189.35 C 136.71 188.56 133.62 186.43 131.22 183.58 C 131.69 183.34 132.63 182.87 133.10 182.63 C 136.82 183.31 140.60 183.18 144.35 182.80 C 147.89 183.09 151.44 183.41 155.00 183.34 C 157.34 183.04 159.65 182.56 161.95 182.05 M 160.64 193.88 C 159.68 195.94 162.35 196.28 163.44 195.25 C 165.57 197.88 169.27 196.43 171.53 194.81 L 172.42 194.87 C 171.74 191.97 168.46 191.92 166.08 192.14 C 164.20 192.36 162.00 192.35 160.64 193.88 Z" />
<path fill="#e7e7f1" opacity="1.00" d=" M 19.19 183.80 C 19.55 183.47 20.26 182.81 20.62 182.48 C 23.42 182.49 26.23 182.45 29.04 182.57 C 32.46 184.29 36.30 184.47 40.02 184.95 C 66.33 189.11 92.53 193.98 118.42 200.27 C 122.20 201.18 125.98 202.06 129.78 202.85 C 130.32 203.31 131.41 204.25 131.96 204.71 C 123.85 204.20 115.98 201.42 107.77 202.17 C 105.30 210.46 105.41 219.49 101.29 227.26 C 99.61 230.47 99.37 234.15 99.30 237.71 C 100.83 238.60 102.37 239.50 103.91 240.40 C 103.02 240.62 101.25 241.08 100.37 241.30 C 102.83 242.29 105.32 243.24 107.88 243.96 C 90.31 239.04 72.44 235.32 54.91 230.26 C 54.43 229.21 53.95 228.16 53.46 227.12 C 55.45 226.89 57.44 226.66 59.43 226.43 C 59.34 224.44 59.26 222.46 59.20 220.47 C 61.44 218.06 62.99 215.05 63.25 211.73 C 64.26 205.56 65.61 199.27 68.57 193.71 C 63.84 191.66 58.76 190.69 53.70 189.89 C 49.28 189.15 44.90 188.20 40.48 187.53 C 34.95 187.00 29.51 185.59 23.94 185.48 C 22.39 185.29 21.20 186.60 20.73 187.94 C 18.64 192.73 19.77 198.08 18.68 203.09 C 18.39 196.66 18.28 190.19 19.19 183.80 Z" />
<path fill="#a2a2a3" opacity="1.00" d=" M 29.04 182.57 C 37.83 182.69 46.43 184.81 55.08 186.16 C 73.82 189.37 92.50 192.99 111.01 197.36 C 118.44 199.16 126.05 200.34 133.28 202.88 C 132.40 202.87 130.65 202.86 129.78 202.85 C 125.98 202.06 122.20 201.18 118.42 200.27 C 92.53 193.98 66.33 189.11 40.02 184.95 C 36.30 184.47 32.46 184.29 29.04 182.57 Z" />
<path fill="#acabac" opacity="1.00" d=" M 162.87 182.70 C 166.43 184.97 170.02 187.25 173.90 188.97 C 179.48 191.48 185.38 193.16 191.09 195.34 C 189.66 195.86 188.24 196.82 186.64 196.57 C 177.54 195.48 169.59 190.41 162.33 185.15 C 162.46 184.54 162.73 183.31 162.87 182.70 Z" />
<path fill="#ccccd0" opacity="1.00" d=" M 16.79 187.64 C 17.25 186.17 18.12 184.89 19.19 183.80 C 18.28 190.19 18.39 196.66 18.68 203.09 C 19.77 198.08 18.64 192.73 20.73 187.94 C 21.20 186.60 22.39 185.29 23.94 185.48 C 29.51 185.59 34.95 187.00 40.48 187.53 C 39.02 191.88 38.06 196.37 36.74 200.75 C 35.62 204.37 36.08 208.37 34.27 211.79 C 32.67 214.73 31.87 218.09 29.69 220.70 C 30.55 221.57 31.40 222.45 32.28 223.30 C 27.93 222.02 22.91 220.55 20.81 216.08 C 16.41 207.34 16.27 197.20 16.79 187.64 Z" />
<path fill="#828383" opacity="1.00" d=" M 14.62 204.57 C 14.02 198.07 12.73 191.30 15.21 185.02 C 15.38 187.31 15.48 189.61 15.36 191.90 C 15.80 190.47 16.27 189.04 16.79 187.64 C 16.27 197.20 16.41 207.34 20.81 216.08 C 22.91 220.55 27.93 222.02 32.28 223.30 C 35.44 224.42 38.64 225.44 41.87 226.36 C 46.23 227.61 50.53 229.06 54.91 230.26 C 72.44 235.32 90.31 239.04 107.88 243.96 C 113.44 245.54 119.15 246.50 124.74 247.97 C 131.77 249.96 139.05 250.87 146.16 252.54 C 149.46 253.24 152.78 253.84 156.12 254.32 C 159.29 254.77 162.48 255.11 165.65 255.56 C 163.38 256.55 160.96 257.19 158.48 257.35 C 156.52 257.21 154.58 256.90 152.64 256.66 C 144.46 254.99 136.18 253.85 127.99 252.27 C 110.74 247.62 93.39 243.41 76.09 239.02 C 59.06 235.23 42.66 229.21 26.13 223.76 C 23.68 222.90 21.03 221.82 19.69 219.44 C 17.09 214.87 15.45 209.75 14.62 204.57 Z" />
<path fill="#d6d6dc" opacity="1.00" d=" M 36.74 200.75 C 38.06 196.37 39.02 191.88 40.48 187.53 C 44.90 188.20 49.28 189.15 53.70 189.89 C 51.32 197.03 50.00 204.50 48.47 211.87 C 48.24 211.16 47.77 209.75 47.53 209.05 C 46.67 213.49 45.89 217.94 45.18 222.41 C 43.25 222.66 41.32 222.90 39.39 223.15 C 40.21 224.22 41.04 225.29 41.87 226.36 C 38.64 225.44 35.44 224.42 32.28 223.30 C 31.40 222.45 30.55 221.57 29.69 220.70 C 31.87 218.09 32.67 214.73 34.27 211.79 C 36.08 208.37 35.62 204.37 36.74 200.75 Z" />
<path fill="#777777" opacity="1.00" d=" M 260.16 198.01 C 265.22 194.88 269.99 191.21 275.54 188.96 C 274.08 191.96 271.48 194.14 268.71 195.89 C 237.78 216.24 207.02 236.83 176.09 257.17 C 174.60 258.18 173.22 259.34 171.81 260.48 C 170.88 261.03 169.96 261.59 169.03 262.14 C 142.02 258.63 115.49 252.21 89.03 245.83 C 67.56 240.55 46.07 235.20 25.12 228.08 C 23.10 227.31 21.08 226.51 19.10 225.63 C 15.20 223.60 14.04 218.87 12.96 214.96 C 14.88 219.37 17.87 223.80 22.65 225.38 C 44.02 233.46 66.40 238.37 88.43 244.26 C 101.21 247.35 113.87 251.09 126.91 252.95 C 134.88 254.34 142.59 257.02 150.61 258.13 C 156.44 259.03 162.22 261.02 168.18 260.47 C 171.45 258.87 173.32 255.47 174.72 252.27 C 182.22 248.05 189.40 243.27 196.62 238.59 C 217.81 225.08 238.85 211.34 260.16 198.01 Z" />
<path fill="#e0e0e8" opacity="1.00" d=" M 53.70 189.89 C 58.76 190.69 63.84 191.66 68.57 193.71 C 65.61 199.27 64.26 205.56 63.25 211.73 C 62.99 215.05 61.44 218.06 59.20 220.47 C 59.26 222.46 59.34 224.44 59.43 226.43 C 57.44 226.66 55.45 226.89 53.46 227.12 C 53.95 228.16 54.43 229.21 54.91 230.26 C 50.53 229.06 46.23 227.61 41.87 226.36 C 41.04 225.29 40.21 224.22 39.39 223.15 C 41.32 222.90 43.25 222.66 45.18 222.41 C 45.89 217.94 46.67 213.49 47.53 209.05 C 47.77 209.75 48.24 211.16 48.47 211.87 C 50.00 204.50 51.32 197.03 53.70 189.89 Z" />
<path fill="#9b9b9b" opacity="1.00" d=" M 160.64 193.88 C 162.00 192.35 164.20 192.36 166.08 192.14 C 168.46 191.92 171.74 191.97 172.42 194.87 L 171.53 194.81 C 168.84 194.69 166.00 194.14 163.44 195.25 C 162.35 196.28 159.68 195.94 160.64 193.88 Z" />
<path fill="#ebebeb" opacity="1.00" d=" M 163.44 195.25 C 166.00 194.14 168.84 194.69 171.53 194.81 C 169.27 196.43 165.57 197.88 163.44 195.25 Z" />
<path fill="#b7b7b7" opacity="1.00" d=" M 122.78 197.40 C 127.27 195.14 132.23 195.87 136.87 197.16 C 141.13 198.16 145.57 198.75 149.47 200.90 C 145.77 200.68 142.07 200.62 138.38 200.98 C 133.20 199.71 128.00 198.53 122.78 197.40 Z" />
<path fill="#989898" opacity="1.00" d=" M 195.85 196.04 C 204.39 196.94 212.99 197.03 221.55 196.51 C 226.10 198.16 230.90 198.81 235.62 199.76 C 228.39 203.91 220.84 207.49 213.66 211.73 C 203.23 218.05 192.44 223.75 182.00 230.04 C 179.65 231.36 178.05 233.60 177.02 236.05 C 177.02 234.36 176.98 232.68 176.93 231.00 C 177.84 228.70 179.33 226.62 181.52 225.40 C 192.19 218.96 203.28 213.23 214.01 206.90 C 218.12 204.59 222.39 202.54 226.15 199.67 C 221.79 198.93 217.38 198.61 212.96 198.67 C 210.10 198.67 207.23 198.62 204.37 198.52 C 201.54 197.66 198.74 196.67 195.85 196.04 Z" />
<path fill="#e9e9e9" opacity="1.00" d=" M 188.20 198.40 C 191.33 197.13 194.60 198.80 197.75 199.17 C 193.80 203.06 188.42 204.85 183.90 207.93 C 180.16 210.41 174.67 211.74 173.82 216.87 C 172.56 213.40 171.50 209.55 168.51 207.13 C 175.89 206.43 181.36 200.70 188.20 198.40 Z" />
<path fill="#d4d4d4" opacity="1.00" d=" M 197.75 199.17 C 199.96 199.02 202.16 198.71 204.37 198.52 C 207.23 198.62 210.10 198.67 212.96 198.67 C 213.52 199.31 214.08 199.95 214.64 200.59 C 205.18 205.26 196.22 210.87 187.00 215.98 C 183.90 217.83 180.47 219.27 177.79 221.74 C 176.11 223.42 176.77 226.03 176.71 228.16 C 176.07 224.32 175.08 220.55 173.82 216.87 C 174.67 211.74 180.16 210.41 183.90 207.93 C 188.42 204.85 193.80 203.06 197.75 199.17 Z" />
<path fill="#b3b3b3" opacity="1.00" d=" M 212.96 198.67 C 217.38 198.61 221.79 198.93 226.15 199.67 C 222.39 202.54 218.12 204.59 214.01 206.90 C 203.28 213.23 192.19 218.96 181.52 225.40 C 179.33 226.62 177.84 228.70 176.93 231.00 C 176.88 230.29 176.76 228.87 176.71 228.16 C 176.77 226.03 176.11 223.42 177.79 221.74 C 180.47 219.27 183.90 217.83 187.00 215.98 C 196.22 210.87 205.18 205.26 214.64 200.59 C 214.08 199.95 213.52 199.31 212.96 198.67 Z" />
<path fill="#d4d5dc" opacity="1.00" d=" M 107.77 202.17 C 115.98 201.42 123.85 204.20 131.96 204.71 C 131.41 204.25 130.32 203.31 129.78 202.85 C 130.65 202.86 132.40 202.87 133.28 202.88 C 142.76 205.42 152.26 207.87 161.66 210.69 C 162.02 211.74 162.38 212.80 162.75 213.86 C 156.91 212.75 151.27 210.87 145.50 209.49 C 139.82 208.20 134.10 206.59 128.22 207.12 C 126.55 213.03 125.57 219.10 124.16 225.06 C 122.15 230.54 120.53 236.13 119.18 241.81 C 121.69 243.32 124.23 244.77 126.81 246.17 C 126.12 246.77 125.43 247.37 124.74 247.97 C 119.15 246.50 113.44 245.54 107.88 243.96 C 105.32 243.24 102.83 242.29 100.37 241.30 C 101.25 241.08 103.02 240.62 103.91 240.40 C 102.37 239.50 100.83 238.60 99.30 237.71 C 99.37 234.15 99.61 230.47 101.29 227.26 C 105.41 219.49 105.30 210.46 107.77 202.17 Z" />
<path fill="#efefef" opacity="1.00" d=" M 150.11 204.06 C 156.39 203.52 162.51 205.59 168.51 207.13 C 171.50 209.55 172.56 213.40 173.82 216.87 C 175.08 220.55 176.07 224.32 176.71 228.16 C 176.76 228.87 176.88 230.29 176.93 231.00 C 176.98 232.68 177.02 234.36 177.02 236.05 C 176.99 237.96 176.99 239.88 176.92 241.80 C 176.64 245.37 175.83 248.87 174.72 252.27 C 173.32 255.47 171.45 258.87 168.18 260.47 C 162.22 261.02 156.44 259.03 150.61 258.13 C 151.12 257.76 152.13 257.03 152.64 256.66 C 154.58 256.90 156.52 257.21 158.48 257.35 C 161.15 257.47 163.82 257.73 166.40 258.47 C 168.08 257.14 169.91 255.82 170.86 253.83 C 176.28 242.79 175.89 229.57 171.55 218.23 C 170.09 214.57 168.67 210.10 164.60 208.60 C 159.89 206.76 154.94 205.57 150.11 204.06 Z" />
<path fill="#c1c1c7" opacity="1.00" d=" M 128.22 207.12 C 134.10 206.59 139.82 208.20 145.50 209.49 C 144.96 212.21 145.52 214.92 146.51 217.48 C 144.80 223.04 145.16 228.95 145.59 234.67 C 144.31 235.62 142.63 236.26 141.75 237.64 C 140.77 240.24 140.30 243.05 140.32 245.82 C 141.97 248.09 145.13 248.66 147.53 249.95 C 147.19 250.60 146.50 251.89 146.16 252.54 C 139.05 250.87 131.77 249.96 124.74 247.97 C 125.43 247.37 126.12 246.77 126.81 246.17 C 124.23 244.77 121.69 243.32 119.18 241.81 C 120.53 236.13 122.15 230.54 124.16 225.06 C 125.57 219.10 126.55 213.03 128.22 207.12 Z" />
<path fill="#b2b2b4" opacity="1.00" d=" M 146.51 217.48 C 145.52 214.92 144.96 212.21 145.50 209.49 C 151.27 210.87 156.91 212.75 162.75 213.86 C 162.38 212.80 162.02 211.74 161.66 210.69 C 164.44 211.44 166.55 213.61 167.65 216.21 C 172.05 226.69 172.54 238.57 169.77 249.54 C 169.10 251.95 167.37 253.83 165.65 255.56 C 162.48 255.11 159.29 254.77 156.12 254.32 C 155.73 252.33 155.35 250.35 154.93 248.37 C 157.88 248.89 160.82 249.49 163.81 249.80 C 166.09 240.80 166.14 231.25 163.90 222.24 C 163.50 220.74 163.36 219.03 162.28 217.83 C 159.62 216.53 156.71 215.89 153.92 214.96 C 151.97 214.36 150.03 213.75 148.08 213.16 C 147.71 214.16 147.34 215.16 146.97 216.17 L 146.51 217.48 Z" />
<path fill="#7f9274" opacity="1.00" d=" M 148.08 213.16 C 150.03 213.75 151.97 214.36 153.92 214.96 C 152.63 216.24 151.33 217.50 150.08 218.81 C 149.01 224.36 149.87 230.15 148.34 235.67 C 146.50 229.24 149.28 222.47 146.97 216.17 C 147.34 215.16 147.71 214.16 148.08 213.16 Z" />
<path fill="#666666" opacity="1.00" d=" M 150.08 218.81 C 151.33 217.50 152.63 216.24 153.92 214.96 C 156.71 215.89 159.62 216.53 162.28 217.83 C 163.36 219.03 163.50 220.74 163.90 222.24 C 159.55 223.46 156.91 227.39 153.61 230.18 L 153.46 229.25 C 152.76 225.64 151.38 222.22 150.08 218.81 Z" />
<path fill="#666466" opacity="1.00" d=" M 146.51 217.48 L 146.97 216.17 C 149.28 222.47 146.50 229.24 148.34 235.67 C 147.66 237.10 147.36 238.67 147.25 240.25 C 146.63 238.41 146.05 236.55 145.59 234.67 C 145.16 228.95 144.80 223.04 146.51 217.48 Z" />
<path fill="#acf28d" opacity="1.00" d=" M 148.34 235.67 C 149.87 230.15 149.01 224.36 150.08 218.81 C 151.38 222.22 152.76 225.64 153.46 229.25 C 153.47 229.75 153.48 230.75 153.48 231.25 C 152.00 232.44 150.51 233.64 149.09 234.92 L 148.34 235.67 Z" />
<path fill="#000000" opacity="1.00" d=" M 153.61 230.18 C 156.91 227.39 159.55 223.46 163.90 222.24 C 166.14 231.25 166.09 240.80 163.81 249.80 C 160.82 249.49 157.88 248.89 154.93 248.37 C 153.53 242.40 154.14 236.24 153.61 230.18 Z" />
<path fill="#152112" opacity="1.00" d=" M 153.46 229.25 L 153.61 230.18 C 154.14 236.24 153.53 242.40 154.93 248.37 C 153.09 247.72 151.27 247.05 149.46 246.35 C 148.73 244.31 147.94 242.30 147.25 240.25 C 147.36 238.67 147.66 237.10 148.34 235.67 L 149.09 234.92 C 149.54 238.47 149.12 242.72 152.18 245.26 C 153.37 240.68 153.53 235.94 153.48 231.25 C 153.48 230.75 153.47 229.75 153.46 229.25 Z" />
<path fill="#91fb49" opacity="1.00" d=" M 149.09 234.92 C 150.51 233.64 152.00 232.44 153.48 231.25 C 153.53 235.94 153.37 240.68 152.18 245.26 C 149.12 242.72 149.54 238.47 149.09 234.92 Z" />
<path fill="#b4b4b8" opacity="1.00" d=" M 145.59 234.67 C 146.05 236.55 146.63 238.41 147.25 240.25 C 147.94 242.30 148.73 244.31 149.46 246.35 C 148.81 247.54 148.17 248.75 147.53 249.95 C 145.13 248.66 141.97 248.09 140.32 245.82 C 140.30 243.05 140.77 240.24 141.75 237.64 C 142.63 236.26 144.31 235.62 145.59 234.67 Z" />
<path fill="#b0c9a5" opacity="1.00" d=" M 149.46 246.35 C 151.27 247.05 153.09 247.72 154.93 248.37 C 155.35 250.35 155.73 252.33 156.12 254.32 C 152.78 253.84 149.46 253.24 146.16 252.54 C 146.50 251.89 147.19 250.60 147.53 249.95 C 148.17 248.75 148.81 247.54 149.46 246.35 Z" />
</svg>
