<?xml version="1.0" encoding="UTF-8" ?>
<!DOCTYPE svg PUBLIC "-//W3C//DTD SVG 1.1//EN" "http://www.w3.org/Graphics/SVG/1.1/DTD/svg11.dtd">
<svg width="256pt" height="256pt" viewBox="0 0 256 256" version="1.1" xmlns="http://www.w3.org/2000/svg">
<path fill="#53caf0" opacity="1.00" d=" M 0.00 0.00 L 256.00 0.00 L 256.00 256.00 L 0.00 256.00 L 0.00 0.00 M 235.44 13.56 C 231.47 15.14 230.87 21.25 234.43 23.58 C 237.86 26.41 243.86 23.53 243.59 19.00 C 243.96 14.85 239.11 11.88 235.44 13.56 M 94.25 33.27 C 88.02 48.19 90.37 65.43 97.30 79.67 C 104.02 93.19 114.04 104.99 126.05 114.11 C 132.05 103.65 135.59 91.96 137.41 80.08 C 139.20 68.64 137.70 56.89 134.02 45.97 C 129.05 32.96 118.63 21.35 104.99 17.40 C 100.30 21.83 96.42 27.16 94.25 33.27 M 169.44 81.46 C 154.36 91.43 143.16 106.65 136.30 123.23 C 151.15 126.69 166.86 127.27 181.74 123.64 C 196.67 120.01 210.97 111.29 218.82 97.78 C 222.08 91.99 224.75 85.23 224.52 78.59 C 216.34 72.84 205.91 70.92 196.07 71.77 C 186.51 72.52 177.51 76.44 169.44 81.46 M 15.59 118.04 C 22.92 134.83 41.15 144.60 58.95 145.30 C 78.79 146.48 98.23 139.04 114.34 127.86 C 98.00 110.41 74.47 97.90 50.06 99.66 C 36.59 100.52 23.92 107.49 15.59 118.04 M 138.85 140.15 C 140.92 152.84 145.19 165.20 151.80 176.24 C 159.20 188.22 169.76 198.75 183.06 203.89 C 192.74 207.66 203.98 208.48 213.76 204.74 C 215.55 200.41 214.85 195.48 214.30 190.95 C 212.66 178.41 205.26 167.31 195.77 159.23 C 180.11 145.93 159.09 140.32 138.85 140.15 M 94.71 164.71 C 86.07 174.36 79.16 186.04 77.08 198.98 C 75.04 211.15 77.52 224.37 85.07 234.29 L 85.91 234.49 C 98.73 232.79 110.20 224.77 117.27 214.09 C 126.03 200.90 129.50 184.73 128.44 169.04 C 127.85 160.28 126.75 151.28 123.34 143.14 C 112.73 148.75 102.84 155.83 94.71 164.71 M 22.45 202.54 C 18.45 204.08 17.87 210.24 21.42 212.57 C 24.83 215.41 30.81 212.56 30.59 208.05 C 31.01 203.88 26.15 200.87 22.45 202.54 Z" />
<path fill="#ffffff" opacity="1.00" d=" M 235.44 13.56 C 239.11 11.88 243.96 14.85 243.59 19.00 C 243.86 23.53 237.86 26.41 234.43 23.58 C 230.87 21.25 231.47 15.14 235.44 13.56 Z" />
<path fill="#0094d7" opacity="1.00" d=" M 94.25 33.27 C 96.42 27.16 100.30 21.83 104.99 17.40 C 118.63 21.35 129.05 32.96 134.02 45.97 C 137.70 56.89 139.20 68.64 137.41 80.08 C 135.59 91.96 132.05 103.65 126.05 114.11 C 114.04 104.99 104.02 93.19 97.30 79.67 C 90.37 65.43 88.02 48.19 94.25 33.27 Z" />
<path fill="#0094d7" opacity="1.00" d=" M 169.44 81.46 C 177.51 76.44 186.51 72.52 196.07 71.77 C 205.91 70.92 216.34 72.84 224.52 78.59 C 224.75 85.23 222.08 91.99 218.82 97.78 C 210.97 111.29 196.67 120.01 181.74 123.64 C 166.86 127.27 151.15 126.69 136.30 123.23 C 143.16 106.65 154.36 91.43 169.44 81.46 Z" />
<path fill="#0094d7" opacity="1.00" d=" M 15.59 118.04 C 23.92 107.49 36.59 100.52 50.06 99.66 C 74.47 97.90 98.00 110.41 114.34 127.86 C 98.23 139.04 78.79 146.48 58.95 145.30 C 41.15 144.60 22.92 134.83 15.59 118.04 Z" />
<path fill="#0094d7" opacity="1.00" d=" M 138.85 140.15 C 159.09 140.32 180.11 145.93 195.77 159.23 C 205.26 167.31 212.66 178.41 214.30 190.95 C 214.85 195.48 215.55 200.41 213.76 204.74 C 203.98 208.48 192.74 207.66 183.06 203.89 C 169.76 198.75 159.20 188.22 151.80 176.24 C 145.19 165.20 140.92 152.84 138.85 140.15 Z" />
<path fill="#0094d7" opacity="1.00" d=" M 94.71 164.71 C 102.84 155.83 112.73 148.75 123.34 143.14 C 126.75 151.28 127.85 160.28 128.44 169.04 C 129.50 184.73 126.03 200.90 117.27 214.09 C 110.20 224.77 98.73 232.79 85.91 234.49 L 85.07 234.29 C 77.52 224.37 75.04 211.15 77.08 198.98 C 79.16 186.04 86.07 174.36 94.71 164.71 Z" />
<path fill="#ffffff" opacity="1.00" d=" M 22.45 202.54 C 26.15 200.87 31.01 203.88 30.59 208.05 C 30.81 212.56 24.83 215.41 21.42 212.57 C 17.87 210.24 18.45 204.08 22.45 202.54 Z" />
</svg>
