<?xml version="1.0" encoding="UTF-8" ?>
<!DOCTYPE svg PUBLIC "-//W3C//DTD SVG 1.1//EN" "http://www.w3.org/Graphics/SVG/1.1/DTD/svg11.dtd">
<svg width="225pt" height="225pt" viewBox="0 0 225 225" version="1.1" xmlns="http://www.w3.org/2000/svg">
<path fill="#030304" opacity="1.00" d=" M 4.41 11.69 C 5.53 11.16 6.71 10.93 7.95 11.00 C 77.65 11.00 147.34 11.00 217.03 11.00 C 220.96 10.50 224.31 14.12 223.84 17.97 C 223.87 75.32 223.84 132.68 223.85 190.03 C 224.23 193.51 221.83 197.43 217.99 197.14 C 147.99 197.22 77.98 197.14 7.97 197.18 C 4.34 197.74 0.99 194.72 1.20 191.07 C 1.08 133.72 1.20 76.36 1.13 19.01 C 0.96 16.23 1.62 12.98 4.41 11.69 M 6.18 13.29 C 4.02 13.65 2.94 15.94 3.24 17.96 C 3.27 75.66 3.20 133.36 3.27 191.05 C 3.06 193.63 5.54 195.44 7.97 195.08 C 77.31 195.17 146.66 195.09 216.00 195.12 C 218.62 195.51 221.96 194.24 221.72 191.10 C 221.82 134.74 221.71 78.38 221.77 22.02 C 221.74 19.85 221.91 17.64 221.53 15.49 C 220.62 13.30 218.09 12.99 216.03 13.10 C 149.02 13.13 82.00 13.10 14.99 13.11 C 12.06 13.14 9.10 12.92 6.18 13.29 Z" />
<path fill="#839496" opacity="1.00" d=" M 6.18 13.29 C 9.10 12.92 12.06 13.14 14.99 13.11 C 82.00 13.10 149.02 13.13 216.03 13.10 C 218.09 12.99 220.62 13.30 221.53 15.49 C 221.91 17.64 221.74 19.85 221.77 22.02 C 221.71 78.38 221.82 134.74 221.72 191.10 C 221.96 194.24 218.62 195.51 216.00 195.12 C 146.66 195.09 77.31 195.17 7.97 195.08 C 5.54 195.44 3.06 193.63 3.27 191.05 C 3.20 133.36 3.27 75.66 3.24 17.96 C 2.94 15.94 4.02 13.65 6.18 13.29 M 12.84 22.77 C 12.53 72.18 12.80 121.59 12.71 171.00 C 12.82 175.69 12.44 180.39 12.90 185.06 C 13.90 186.17 15.64 185.51 16.95 185.74 C 81.33 185.66 145.71 185.75 210.09 185.69 C 212.97 186.24 212.18 182.72 212.32 180.98 C 212.16 128.24 212.50 75.49 212.15 22.76 C 208.77 22.57 205.39 22.56 202.01 22.60 C 143.65 22.60 85.30 22.60 26.94 22.60 C 22.24 22.64 17.54 22.46 12.84 22.77 Z" />
<path fill="#002b36" opacity="1.00" d=" M 12.84 22.77 C 17.54 22.46 22.24 22.64 26.94 22.60 C 85.30 22.60 143.65 22.60 202.01 22.60 C 205.39 22.56 208.77 22.57 212.15 22.76 C 212.50 75.49 212.16 128.24 212.32 180.98 C 212.18 182.72 212.97 186.24 210.09 185.69 C 145.71 185.75 81.33 185.66 16.95 185.74 C 15.64 185.51 13.90 186.17 12.90 185.06 C 12.44 180.39 12.82 175.69 12.71 171.00 C 12.80 121.59 12.53 72.18 12.84 22.77 M 65.11 53.19 C 61.58 53.81 58.87 57.38 59.18 60.96 C 59.21 90.00 59.14 119.05 59.21 148.10 C 59.18 152.11 63.03 155.51 67.00 155.22 C 97.35 155.26 127.70 155.26 158.04 155.22 C 162.41 155.54 166.31 151.44 165.83 147.10 C 165.65 143.32 166.41 139.35 165.39 135.68 C 162.53 133.38 158.46 134.63 155.08 134.51 C 152.45 134.75 152.53 137.84 151.84 139.72 C 150.77 141.81 148.11 142.00 146.05 142.01 C 125.05 141.97 104.05 141.98 83.05 142.01 C 79.21 142.16 72.13 142.78 72.62 137.00 C 72.61 114.99 72.59 92.97 72.63 70.96 C 72.27 68.43 74.64 66.29 77.08 66.46 C 100.92 66.48 124.78 66.38 148.62 66.51 C 152.96 66.48 151.43 72.09 154.39 73.60 C 157.22 74.00 160.11 73.88 162.95 73.75 C 164.43 73.84 165.89 72.58 165.80 71.06 C 165.94 67.39 165.89 63.70 165.79 60.02 C 165.71 56.15 162.00 52.73 158.11 53.08 C 127.11 53.17 96.10 52.95 65.11 53.19 M 93.52 97.58 C 89.60 98.38 89.81 103.01 90.06 106.10 C 89.85 108.75 92.28 111.11 94.93 110.80 C 116.96 110.83 139.00 110.82 161.03 110.80 C 163.25 110.97 165.65 109.33 165.74 106.98 C 165.91 104.79 166.00 102.54 165.56 100.38 C 164.83 98.07 162.21 97.22 160.01 97.39 C 137.85 97.54 115.66 97.16 93.52 97.58 Z" />
<path fill="#fefcf5" opacity="1.00" d=" M 65.11 53.19 C 96.10 52.95 127.11 53.17 158.11 53.08 C 162.00 52.73 165.71 56.15 165.79 60.02 C 165.89 63.70 165.94 67.39 165.80 71.06 C 165.89 72.58 164.43 73.84 162.95 73.75 C 160.11 73.88 157.22 74.00 154.39 73.60 C 151.43 72.09 152.96 66.48 148.62 66.51 C 124.78 66.38 100.92 66.48 77.08 66.46 C 74.64 66.29 72.27 68.43 72.63 70.96 C 72.59 92.97 72.61 114.99 72.62 137.00 C 72.13 142.78 79.21 142.16 83.05 142.01 C 104.05 141.98 125.05 141.97 146.05 142.01 C 148.11 142.00 150.77 141.81 151.84 139.72 C 152.53 137.84 152.45 134.75 155.08 134.51 C 158.46 134.63 162.53 133.38 165.39 135.68 C 166.41 139.35 165.65 143.32 165.83 147.10 C 166.31 151.44 162.41 155.54 158.04 155.22 C 127.70 155.26 97.35 155.26 67.00 155.22 C 63.03 155.51 59.18 152.11 59.21 148.10 C 59.14 119.05 59.21 90.00 59.18 60.96 C 58.87 57.38 61.58 53.81 65.11 53.19 Z" />
<path fill="#fefcf5" opacity="1.00" d=" M 93.52 97.58 C 115.66 97.16 137.85 97.54 160.01 97.39 C 162.21 97.22 164.83 98.07 165.56 100.38 C 166.00 102.54 165.91 104.79 165.74 106.98 C 165.65 109.33 163.25 110.97 161.03 110.80 C 139.00 110.82 116.96 110.83 94.93 110.80 C 92.28 111.11 89.85 108.75 90.06 106.10 C 89.81 103.01 89.60 98.38 93.52 97.58 Z" />
<path fill="#030304" opacity="1.00" d=" M 59.00 223.32 C 61.28 218.44 63.05 213.11 66.05 208.71 C 97.05 208.45 128.07 208.77 159.08 208.55 C 161.71 213.29 163.78 218.32 166.01 223.26 C 163.46 224.22 160.72 223.78 158.07 223.86 C 126.37 223.84 94.68 223.76 62.98 223.82 C 61.63 223.84 60.31 223.67 59.00 223.32 M 66.96 210.74 C 65.30 214.39 63.56 218.01 62.01 221.71 C 95.69 221.75 129.38 221.71 163.06 221.80 C 161.42 218.09 159.68 214.44 158.04 210.74 C 127.68 210.71 97.32 210.70 66.96 210.74 Z" />
<path fill="#839496" opacity="1.00" d=" M 66.96 210.74 C 97.32 210.70 127.68 210.71 158.04 210.74 C 159.68 214.44 161.42 218.09 163.06 221.80 C 129.38 221.71 95.69 221.75 62.01 221.71 C 63.56 218.01 65.30 214.39 66.96 210.74 Z" />
</svg>
