<?xml version="1.0" encoding="UTF-8" ?>
<!DOCTYPE svg PUBLIC "-//W3C//DTD SVG 1.1//EN" "http://www.w3.org/Graphics/SVG/1.1/DTD/svg11.dtd">
<svg width="1075pt" height="267pt" viewBox="0 0 1075 267" version="1.1" xmlns="http://www.w3.org/2000/svg">
<path fill="#ea5a24" opacity="1.00" d=" M 169.34 3.35 C 171.88 1.73 175.42 2.40 177.43 4.57 C 191.96 19.05 206.44 33.60 220.97 48.08 C 223.14 49.96 224.26 53.16 222.98 55.85 C 221.69 58.29 219.50 60.07 217.66 62.08 C 199.80 44.12 181.88 26.21 163.93 8.34 C 165.72 6.66 167.35 4.79 169.34 3.35 Z" />
<path fill="#f7923f" opacity="1.00" d=" M 154.99 17.50 C 157.71 14.21 160.90 11.34 163.93 8.34 C 181.88 26.21 199.80 44.12 217.66 62.08 C 214.59 65.08 211.84 68.44 208.35 70.98 C 206.98 69.28 205.51 67.65 203.94 66.13 C 187.55 50.00 171.59 33.42 154.99 17.50 Z" />
<path fill="#f47321" opacity="1.00" d=" M 626.29 22.32 C 631.79 21.34 637.90 22.07 642.35 25.68 C 647.39 29.38 650.23 35.93 648.96 42.12 C 647.62 50.87 638.65 57.21 630.00 56.55 C 620.68 56.72 611.66 48.47 612.20 38.93 C 612.04 30.91 618.73 23.99 626.29 22.32 Z" />
<path fill="#f7923f" opacity="1.00" d=" M 52.07 120.13 C 83.39 88.81 114.70 57.49 146.02 26.18 C 163.92 44.15 181.85 62.08 199.82 79.98 C 167.86 111.95 135.89 143.91 103.93 175.88 C 101.83 178.02 99.72 180.17 97.43 182.12 C 79.67 164.20 61.86 146.33 43.90 128.62 C 46.37 125.56 49.33 122.94 52.07 120.13 M 153.44 57.60 C 145.14 59.15 137.51 63.09 130.39 67.51 C 117.00 76.03 105.18 86.90 95.01 99.05 C 88.22 107.27 82.11 116.17 77.91 126.00 C 75.53 131.61 73.80 137.76 74.63 143.91 C 75.11 147.81 77.90 151.34 81.74 152.38 C 87.86 154.06 94.27 152.29 100.03 150.09 C 109.99 146.05 119.03 140.02 127.36 133.29 C 139.59 123.20 150.55 111.46 159.22 98.17 C 163.91 90.77 168.15 82.83 169.80 74.14 C 170.70 69.41 170.53 63.75 166.85 60.18 C 163.28 56.86 157.97 56.87 153.44 57.60 Z" />
<path fill="#c34427" opacity="1.00" d=" M 153.44 57.60 C 157.97 56.87 163.28 56.86 166.85 60.18 C 170.53 63.75 170.70 69.41 169.80 74.14 C 168.15 82.83 163.91 90.77 159.22 98.17 C 150.55 111.46 139.59 123.20 127.36 133.29 C 119.03 140.02 109.99 146.05 100.03 150.09 C 94.27 152.29 87.86 154.06 81.74 152.38 C 77.90 151.34 75.11 147.81 74.63 143.91 C 73.80 137.76 75.53 131.61 77.91 126.00 C 82.11 116.17 88.22 107.27 95.01 99.05 C 105.18 86.90 117.00 76.03 130.39 67.51 C 137.51 63.09 145.14 59.15 153.44 57.60 Z" />
<path fill="#ffffff" opacity="1.00" d=" M 275.42 86.42 C 285.05 76.77 298.49 71.57 311.98 70.75 C 329.02 69.36 347.65 73.49 359.84 86.18 C 368.27 94.43 372.45 106.13 373.07 117.75 C 362.26 117.75 351.45 117.75 340.64 117.75 C 339.66 110.73 335.97 103.88 329.80 100.16 C 321.04 95.26 309.01 96.71 301.98 104.00 C 295.28 110.89 292.83 120.78 292.43 130.13 C 292.02 139.41 292.95 149.13 297.43 157.43 C 300.41 163.13 305.59 167.81 311.88 169.48 C 319.07 171.37 327.41 170.17 333.04 165.06 C 337.37 161.22 339.68 155.64 340.63 150.03 C 351.43 149.96 362.25 150.02 373.06 150.00 C 372.36 163.33 366.70 176.62 356.26 185.20 C 342.70 196.60 323.84 199.10 306.79 196.75 C 291.77 194.84 277.52 186.69 268.89 174.15 C 259.36 160.53 256.46 143.26 257.77 126.94 C 258.83 112.00 264.48 96.93 275.42 86.42 Z" />
<path fill="#ffffff" opacity="1.00" d=" M 432.54 84.60 C 437.02 76.88 445.28 71.59 454.15 70.64 C 459.20 70.20 464.30 70.50 469.26 71.55 C 469.24 81.73 469.26 91.90 469.25 102.07 C 460.38 100.10 450.48 98.73 442.07 103.08 C 433.91 107.08 428.67 115.97 428.75 125.02 C 428.76 148.34 428.75 171.67 428.76 194.99 C 417.34 195.01 405.92 195.00 394.50 195.00 C 394.49 154.09 394.51 113.17 394.49 72.26 C 405.58 72.23 416.66 72.25 427.75 72.25 C 427.86 79.49 427.53 86.75 427.94 93.98 C 429.98 91.12 430.58 87.52 432.54 84.60 Z" />
<path fill="#f47321" opacity="1.00" d=" M 500.59 79.64 C 514.48 70.70 531.89 69.20 547.92 71.44 C 560.17 73.28 572.85 78.24 580.48 88.45 C 585.47 94.81 587.76 102.96 587.76 110.97 C 587.75 138.98 587.75 166.98 587.76 194.99 C 576.92 195.00 566.08 195.01 555.24 194.99 C 555.20 189.17 555.36 183.35 555.13 177.54 C 551.27 184.26 545.77 190.26 538.60 193.46 C 527.65 198.43 514.90 198.49 503.41 195.47 C 493.27 192.82 484.09 185.68 480.25 175.77 C 477.28 167.94 477.06 159.23 478.66 151.08 C 480.53 141.78 487.31 134.00 495.71 129.87 C 507.39 123.95 520.72 123.21 533.50 121.72 C 538.62 120.98 543.91 120.69 548.75 118.69 C 551.12 117.72 553.29 115.63 553.45 112.95 C 553.94 107.83 552.25 102.17 547.91 99.12 C 542.54 95.19 535.39 95.28 529.11 96.24 C 521.91 97.40 515.87 102.92 513.64 109.79 C 503.06 108.94 492.48 108.15 481.91 107.17 C 484.28 96.04 490.88 85.73 500.59 79.64 M 516.43 148.46 C 508.59 153.07 508.37 166.18 516.44 170.67 C 528.18 177.31 545.55 172.95 551.62 160.55 C 555.08 153.74 553.30 145.89 553.76 138.58 C 541.92 144.08 527.72 141.57 516.43 148.46 Z" />
<path fill="#ffffff" opacity="1.00" d=" M 848.12 71.14 C 864.10 69.14 881.32 71.66 894.61 81.27 C 907.82 90.58 915.68 106.06 917.75 121.87 C 919.79 137.90 918.26 154.99 910.19 169.27 C 902.62 183.16 888.59 193.13 873.09 196.07 C 855.56 199.41 836.03 197.44 821.30 186.67 C 808.15 177.36 800.33 161.90 798.29 146.13 C 795.99 128.53 798.29 109.50 808.51 94.57 C 817.37 81.34 832.37 72.84 848.12 71.14 M 851.44 97.65 C 846.03 99.17 841.57 103.10 838.64 107.80 C 833.61 115.94 832.28 125.77 832.32 135.17 C 832.68 145.37 834.63 156.46 841.95 164.12 C 848.12 171.06 858.85 172.63 867.23 169.15 C 873.56 166.43 877.91 160.49 880.31 154.20 C 883.77 144.91 884.41 134.72 883.14 124.95 C 882.00 116.62 879.19 108.03 872.84 102.20 C 867.25 96.86 858.70 95.64 851.44 97.65 Z" />
<path fill="#ffffff" opacity="1.00" d=" M 976.75 88.68 C 982.04 79.15 992.14 72.83 1002.80 71.20 C 1013.95 69.45 1026.12 70.86 1035.63 77.31 C 1047.41 84.97 1053.28 99.25 1053.74 112.91 C 1053.78 140.27 1053.74 167.63 1053.76 194.99 C 1042.34 195.01 1030.92 194.99 1019.50 195.00 C 1019.50 171.35 1019.48 147.69 1019.51 124.03 C 1019.76 117.87 1018.59 111.35 1014.65 106.43 C 1005.68 95.26 985.42 96.99 978.39 109.47 C 975.78 113.83 974.79 118.99 974.75 124.02 C 974.76 147.68 974.74 171.34 974.76 194.99 C 963.34 195.01 951.92 195.00 940.50 195.00 C 940.47 154.10 940.55 113.21 940.46 72.31 C 951.40 72.20 962.34 72.21 973.29 72.31 C 973.31 79.63 973.04 86.96 973.44 94.27 C 975.05 92.75 975.62 90.53 976.75 88.68 Z" />
<path fill="#f47321" opacity="1.00" d=" M 613.50 72.25 C 624.91 72.24 636.33 72.25 647.75 72.25 C 647.76 113.16 647.75 154.08 647.76 194.99 C 636.33 194.99 624.90 195.03 613.48 194.97 C 613.52 154.06 613.48 113.16 613.50 72.25 Z" />
<path fill="#ffffff" opacity="1.00" d=" M 664.65 72.24 C 676.69 72.25 688.74 72.26 700.78 72.23 C 708.65 100.19 716.56 128.14 724.42 156.10 C 725.14 158.32 725.37 160.84 726.96 162.67 C 735.80 132.60 744.13 102.36 752.84 72.25 C 764.92 72.23 777.02 72.28 789.11 72.22 C 774.83 113.46 760.24 154.59 745.85 195.78 C 742.35 205.26 739.83 215.36 733.68 223.59 C 727.36 232.90 716.82 238.85 705.78 240.41 C 695.17 241.90 684.12 241.28 673.98 237.68 C 676.54 229.08 679.15 220.51 681.77 211.94 C 687.47 213.50 693.89 215.30 699.54 212.58 C 704.83 209.76 707.12 203.57 708.52 198.15 C 693.97 156.16 679.26 114.21 664.65 72.24 Z" />
<path fill="#f7923f" opacity="1.00" d=" M 25.81 146.51 C 28.76 143.33 31.90 140.33 34.95 137.25 C 52.79 155.28 70.72 173.21 88.75 191.05 C 85.67 194.11 82.67 197.25 79.48 200.20 C 61.67 182.23 43.75 164.36 25.81 146.51 Z" />
<path fill="#ea5a24" opacity="1.00" d=" M 19.55 155.07 C 19.90 151.26 23.53 149.17 25.81 146.51 C 43.75 164.36 61.67 182.23 79.48 200.20 C 76.67 202.65 74.22 206.77 69.95 206.29 C 68.01 206.31 66.52 204.94 65.00 203.94 C 60.55 204.01 56.39 205.70 52.29 207.21 C 38.89 212.50 26.09 219.15 13.23 225.61 C 8.81 221.34 4.70 216.77 0.36 212.42 C 6.88 200.01 13.16 187.44 18.43 174.43 C 20.11 170.13 21.78 165.74 22.08 161.09 C 20.78 159.32 19.28 157.40 19.55 155.07 Z" />
</svg>
