<?xml version="1.0" encoding="utf-8"?>
<!-- Generator: Adobe Illustrator 26.0.1, SVG Export Plug-In . SVG Version: 6.00 Build 0)  -->
<svg version="1.1" id="Слой_1" xmlns="http://www.w3.org/2000/svg" xmlns:xlink="http://www.w3.org/1999/xlink" x="0px" y="0px"
	 viewBox="0 0 5120 1440" style="enable-background:new 0 0 5120 1440;" xml:space="preserve">
<style type="text/css">
	.st0{fill:#E4E4FF;}
</style>
<path class="st0" d="M1494.16,588.36c61.92-190.96-42.7-395.96-233.66-457.88c-60.51-19.62-125.11-23.02-187.34-9.85
	C939.28-28.62,709.76-41.09,560.5,92.79c-47.63,42.73-83.13,97.28-102.89,158.15C261.38,292.11,135.69,484.57,176.87,680.8
	c13.18,62.79,42.76,120.97,85.74,168.61c-32.26,98.06-20.81,205.26,31.45,294.29c78.62,136.55,236.35,206.79,390.45,173.88
	c68.47,76.9,166.62,120.74,269.58,120.41c157.81-0.01,297.59-101.85,345.96-252.06c101.01-20.78,188.23-83.94,239.48-173.43
	C1617.68,876.18,1599.37,705.07,1494.16,588.36z M954.99,1344.09c-63.04,0-124.09-22.1-172.53-62.45l8.54-4.94l286.21-165.34
	c15.05-8.01,24.28-23.84,23.81-40.89V666.09l120.86,70.09c1.3,0.52,2.17,1.75,2.25,3.15v334.28
	c0.5,148.89-119.8,269.98-268.68,270.48c-0.6,0-1.2,0-1.8,0H954.99z M374.94,1096.98c-31.21-54.38-42.49-117.93-31.9-179.72
	l8.54,4.94l286.21,165.34c13.9,8.03,31.03,8.03,44.93,0l350.01-201.74v138.84c0.56,1.13,0.56,2.46,0,3.59l-289.35,167.14
	c-128.86,74.58-293.78,30.58-368.36-98.28C374.98,1097.05,374.96,1097.01,374.94,1096.98z M299.46,473.34
	c31.93-54.88,82.21-96.73,141.98-118.17V695.3c-0.47,16.69,8.36,32.26,22.91,40.44l348.21,200.84l-120.86,70.09
	c-1.31,0.45-2.73,0.45-4.04,0L398.3,839.52c-128.57-74.36-172.77-238.71-98.85-367.53V473.34z M1293.77,704.28L944.21,501.2
	l120.86-69.64c1.22-0.83,2.82-0.83,4.04,0l289.35,167.14c128.84,74.62,172.8,239.55,98.18,368.39
	c-31.25,53.96-80.24,95.41-138.62,117.31V744.27C1317.5,727.62,1308.29,712.45,1293.77,704.28z M1414.18,524.56l-8.54-5.39
	l-285.76-166.24c-14.46-8.92-32.72-8.92-47.18,0L723.15,554.66V413.58c-0.72-1.25-0.72-2.79,0-4.04l289.8-166.69
	c129-74.34,293.84-30.03,368.18,98.97c31.37,54.44,42.74,118.12,32.15,180.05L1414.18,524.56z M657.1,770.78l-121.31-69.64
	c-1.14-0.9-1.94-2.17-2.25-3.59V364.16c0.01-148.89,120.71-269.58,269.59-269.57c63.04,0,124.08,22.1,172.52,62.44l-7.64,4.94
	L680.92,327.32c-15.05,8.01-24.28,23.84-23.81,40.89V770.78z M722.7,629.25l155.46-89.86l155.91,89.86v179.72l-155.91,89.86
	l-155.91-89.86L722.7,629.25z"/>
<g>
	<path class="st0" d="M1642,397.53c86.76,0,173.52,0,260.28,0c41.92-0.31,84.47,0.12,125.28,10.79
		c56.5,13.49,109.11,45.47,144.78,91.59c37.77,48.82,54.4,111.18,55.14,172.24c0.41,39.22,0.07,78.43,0.17,117.63
		c-0.17,32.97,1.16,66.15-4.13,98.83c-8.04,53.89-30.77,106.62-69.31,145.77c-37.62,38.52-87.77,63.83-140.55,73.63
		c-23.92,4.85-48.31,7.96-72.76,7.51c-99.62-0.02-199.27,0.02-298.89,0C1642,876.17,1642.03,636.86,1642,397.53z M1784.56,514.6
		c0.02,161.28,0,322.57,0.02,483.85c47.28-0.29,94.58,0.63,141.86-0.53c44-1.59,90.55-15.23,120.43-49.28
		c27.05-29.27,37.53-70.04,38.06-109.06c0.39-45.59,0.05-91.2,0.17-136.81c0.77-38.66-0.92-79.45-20.47-113.91
		c-16.87-31.4-47.57-53.91-81.52-63.78c-25.99-8.74-53.58-10.67-80.82-10.5C1863.04,514.6,1823.8,514.55,1784.56,514.6z"/>
</g>
<g>
	<path class="st0" d="M2539.93,397.53c48.53,0.05,97.09-0.05,145.64,0.05c85.72,239.33,171.64,478.59,257.36,717.92
		c-47.49,0-94.99,0-142.46,0c-16.19-50.25-32.15-100.56-48.27-150.83c-92.99-0.02-185.97,0-278.93,0
		c-16.12,50.25-32.22,100.49-48.22,150.79c-47.54,0.1-95.06,0.02-142.6,0.05C2368.25,876.17,2454.09,636.84,2539.93,397.53z
		 M2612.77,526.64c-34.63,107.97-69.07,215.99-103.63,323.99c68.71,0,137.42,0,206.12,0
		C2681.14,742.61,2646.87,634.67,2612.77,526.64z"/>
</g>
<path class="st0" d="M3045.77,397.55c47.86-0.02,95.71-0.02,143.57,0c0.02,199.68,0,399.38,0.02,599.09
	c110.07,0.02,220.14-0.02,330.22,0.02c0.07,39.6,0.02,79.21,0.02,118.83c-157.95,0-315.88,0-473.83,0
	C3045.77,876.17,3045.74,636.86,3045.77,397.55z"/>
<path class="st0" d="M3641.04,1115.47c0.02-239.31-0.02-478.64,0.02-717.94c47.86,0,95.71,0,143.57,0
	c0.02,199.7,0,399.41,0.02,599.11c110.07,0.02,220.17-0.02,330.24,0c0.02,39.63,0,79.23,0.02,118.83
	C3956.95,1115.5,3798.99,1115.52,3641.04,1115.47z"/>
<path class="st0" d="M4498.81,397.55c167.51-0.02,335.02-0.02,502.55,0c0,39.6,0.02,79.21,0,118.83c-119.65,0-239.31,0-358.96,0
	c-0.05,58.52-0.02,117.05,0,175.57c109.4,0,218.79-0.02,328.19,0.02c0,40.01,0.02,80.03,0,120.04c-109.42,0.02-218.82-0.02-328.21,0
	c0,61.54,0,123.08,0,184.62c119.99,0,239.98,0,360,0c0.05,39.6-0.02,79.23,0.02,118.83c-167.87,0.05-335.74,0.02-503.59,0.02
	C4498.79,876.17,4498.79,636.86,4498.81,397.55z"/>
<path class="st0" d="M4271.26,743.53c22.78-3.31,48.41-1.11,66.87,14.02c17.86,12.77,28.5,34.17,29.83,55.92
	c2.53,23.99-4.1,49.91-21.84,66.97c-24.57,23.48-63.62,26.96-94.1,14.02c-22.03-9.46-37.77-30.6-41.68-54.11
	c-2.73-17.35-1.86-35.77,4.83-52.18C4224.68,765.08,4246.52,747.42,4271.26,743.53z"/>
</svg>
