<?xml version="1.0" encoding="UTF-8" ?>
<!DOCTYPE svg PUBLIC "-//W3C//DTD SVG 1.1//EN" "http://www.w3.org/Graphics/SVG/1.1/DTD/svg11.dtd">
<svg width="600pt" height="176pt" viewBox="0 0 600 176" version="1.1" xmlns="http://www.w3.org/2000/svg">
<g id="#2c3242ff">
</g>
<g id="#dddad6ff">
<path fill="#dddad6" opacity="1.00" d=" M 7.00 27.00 C 20.02 27.02 33.04 26.96 46.06 27.02 C 54.22 26.96 62.41 31.59 65.93 39.06 C 68.16 43.35 68.09 48.31 68.39 53.02 C 68.42 76.01 68.38 99.01 68.41 122.00 C 68.18 127.72 68.20 133.85 64.90 138.81 C 61.01 145.25 53.51 149.00 46.07 148.98 C 33.05 149.03 20.02 148.99 7.00 149.00 C 7.00 108.33 7.00 67.67 7.00 27.00 M 25.64 43.00 C 25.63 73.00 25.64 103.00 25.64 133.00 C 31.70 132.65 37.97 133.85 43.87 132.11 C 47.81 131.00 49.81 126.84 49.60 122.98 C 49.59 99.36 49.63 75.73 49.58 52.11 C 49.63 48.19 46.96 44.18 42.94 43.52 C 37.24 42.47 31.40 43.22 25.64 43.00 Z" />
<path fill="#dddad6" opacity="1.00" d=" M 82.35 27.02 C 88.51 26.98 94.67 27.00 100.83 27.01 C 100.83 67.67 100.83 108.33 100.83 148.99 C 94.67 149.00 88.52 149.01 82.36 148.99 C 82.37 108.33 82.37 67.67 82.35 27.02 Z" />
<path fill="#dddad6" opacity="1.00" d=" M 111.01 148.98 C 118.85 108.30 126.78 67.62 134.76 26.96 C 141.25 27.02 147.75 27.03 154.25 26.95 C 162.16 67.62 169.78 108.34 177.72 149.00 C 171.60 149.00 165.49 149.00 159.37 149.00 C 158.12 141.38 156.82 133.77 155.76 126.12 C 148.16 125.86 140.55 126.06 132.94 126.01 C 131.73 133.67 130.51 141.34 129.30 149.01 C 123.20 148.99 117.10 149.02 111.01 148.98 M 144.23 55.54 C 141.50 73.73 138.22 91.82 135.44 110.00 C 141.35 110.00 147.26 110.01 153.17 109.99 C 150.03 91.87 147.25 73.69 144.23 55.54 Z" />
<path fill="#dddad6" opacity="1.00" d=" M 187.61 27.00 C 193.87 27.00 200.13 27.00 206.39 27.00 C 206.38 43.96 206.43 60.92 206.37 77.87 C 212.78 60.87 219.80 44.09 226.26 27.11 C 233.15 26.93 240.04 26.94 246.93 27.11 C 238.71 46.19 230.48 65.27 222.22 84.34 C 221.36 85.58 222.44 86.90 222.83 88.09 C 231.89 108.35 240.67 128.74 249.73 149.01 C 242.90 148.99 236.07 149.02 229.25 148.99 C 221.65 130.86 213.77 112.85 206.32 94.65 C 206.49 112.77 206.35 130.88 206.39 149.00 C 200.13 149.00 193.87 149.00 187.61 149.00 C 187.60 108.33 187.60 67.67 187.61 27.00 Z" />
<path fill="#dddad6" opacity="1.00" d=" M 263.37 27.46 C 265.19 26.98 267.09 27.01 268.96 26.98 C 281.98 27.03 295.00 26.97 308.02 27.01 C 311.59 26.93 315.59 28.23 317.41 31.53 C 319.10 34.41 318.58 37.85 318.65 41.03 C 318.63 72.37 318.63 103.70 318.65 135.03 C 318.58 138.19 319.09 141.60 317.41 144.46 C 315.61 147.75 311.62 149.06 308.06 148.99 C 294.37 149.00 280.68 149.02 266.98 148.98 C 263.89 149.03 260.56 147.99 258.63 145.44 C 256.73 143.08 256.85 139.86 256.62 137.01 C 256.58 106.35 256.62 75.69 256.60 45.03 C 256.59 41.03 256.42 36.98 257.34 33.05 C 258.14 30.26 260.63 28.22 263.37 27.46 M 275.39 43.01 C 275.40 73.00 275.40 103.00 275.39 132.99 C 283.65 133.01 291.91 133.00 300.16 132.99 C 300.17 103.00 300.17 73.00 300.17 43.01 C 291.91 43.00 283.65 42.98 275.39 43.01 Z" />
<path fill="#dddad6" opacity="1.00" d=" M 328.91 27.00 C 335.09 27.01 341.27 26.97 347.45 27.03 C 351.07 49.66 354.85 72.28 358.51 94.91 C 359.80 103.24 361.71 111.55 361.51 120.04 C 361.64 115.97 361.70 111.89 362.27 107.86 C 366.59 80.90 371.20 53.99 375.45 27.03 C 381.64 26.99 387.84 26.96 394.03 27.04 C 386.20 67.69 378.46 108.36 370.56 149.00 C 364.46 149.00 358.36 149.00 352.27 149.00 C 344.40 108.35 336.57 67.69 328.91 27.00 Z" />
</g>
<g id="#b8b2a9ff">
<path fill="#b8b2a9" opacity="1.00" d=" M 566.66 49.01 C 572.64 49.00 578.63 48.98 584.61 49.02 C 584.60 56.01 584.60 63.00 584.61 69.99 C 588.40 70.00 592.20 70.00 596.00 70.00 C 596.00 75.00 596.00 80.00 596.00 85.00 C 592.20 85.00 588.40 85.00 584.61 85.00 C 584.60 101.33 584.60 117.67 584.61 134.00 C 588.61 134.00 592.62 133.97 596.63 134.05 C 596.58 139.02 596.60 144.00 596.61 148.98 C 589.38 148.94 582.14 149.15 574.92 148.90 C 570.21 148.89 566.46 144.54 566.68 139.92 C 566.65 121.65 566.60 103.37 566.71 85.10 C 563.87 85.00 561.02 84.97 558.18 84.99 C 558.18 80.00 558.18 75.00 558.18 70.01 C 561.00 70.00 563.83 70.00 566.66 69.98 C 566.65 62.99 566.65 56.00 566.66 49.01 Z" />
<path fill="#b8b2a9" opacity="1.00" d=" M 433.00 70.00 C 438.94 70.00 444.87 69.99 450.81 70.01 C 450.81 70.86 450.82 72.57 450.83 73.42 C 457.55 72.30 464.24 70.95 471.02 70.19 C 475.02 69.96 479.64 69.32 482.97 72.09 C 485.76 74.54 485.74 78.57 485.81 81.98 C 485.83 104.32 485.81 126.65 485.82 148.99 C 479.67 149.00 473.53 149.02 467.39 148.98 C 467.40 127.63 467.40 106.28 467.39 84.94 C 461.87 85.39 456.34 85.33 450.82 85.67 C 450.82 106.77 450.81 127.88 450.82 148.99 C 444.88 149.01 438.94 149.00 433.00 149.00 C 433.00 122.67 433.00 96.33 433.00 70.00 Z" />
<path fill="#b8b2a9" opacity="1.00" d=" M 498.47 78.14 C 498.64 73.31 503.23 69.73 507.93 70.02 C 518.99 70.03 530.06 69.88 541.12 70.10 C 545.83 70.10 549.57 74.29 549.55 78.90 C 549.65 89.01 549.63 99.13 549.55 109.24 C 547.93 110.80 546.35 112.37 544.78 113.97 C 535.06 114.05 525.33 113.97 515.61 114.01 C 515.60 121.33 515.60 128.66 515.61 135.99 C 521.13 136.00 526.65 136.01 532.18 135.99 C 532.19 131.66 532.18 127.34 532.18 123.01 C 537.99 123.00 543.80 122.98 549.61 123.02 C 549.50 128.94 549.79 134.88 549.49 140.80 C 549.26 145.21 545.48 148.90 541.05 148.91 C 531.39 149.15 521.73 148.91 512.07 149.02 C 508.60 148.98 504.74 149.37 501.80 147.14 C 498.93 145.13 498.22 141.35 498.37 138.07 C 498.48 118.10 498.27 98.11 498.47 78.14 M 515.61 83.00 C 515.60 89.40 515.60 95.79 515.61 102.18 C 521.13 102.18 526.65 102.19 532.18 102.18 C 532.19 95.79 532.18 89.40 532.18 83.01 C 526.65 82.99 521.13 83.00 515.61 83.00 Z" />
<path fill="#b8b2a9" opacity="1.00" d=" M 403.00 130.00 C 408.87 130.00 414.74 129.98 420.61 130.02 C 420.60 136.34 420.60 142.66 420.61 148.98 C 414.74 149.02 408.87 148.99 403.00 149.00 C 402.99 142.67 403.00 136.33 403.00 130.00 Z" />
</g>
</svg>
