<?xml version="1.0" encoding="UTF-8" ?>
<!DOCTYPE svg PUBLIC "-//W3C//DTD SVG 1.1//EN" "http://www.w3.org/Graphics/SVG/1.1/DTD/svg11.dtd">
<svg width="1763pt" height="563pt" viewBox="0 0 1763 563" version="1.1" xmlns="http://www.w3.org/2000/svg">
<path fill="#e8e6e3" opacity="1.00" d=" M 17.45 79.02 C 70.61 78.98 123.78 79.00 176.94 79.01 C 176.94 93.34 176.94 107.67 176.94 122.00 C 142.35 122.01 107.75 121.99 73.15 122.01 C 73.16 138.21 73.14 154.42 73.17 170.63 C 102.36 170.63 131.56 170.61 160.76 170.63 C 160.75 184.38 160.76 198.12 160.75 211.87 C 131.56 211.89 102.36 211.86 73.16 211.88 C 73.15 230.29 73.15 248.71 73.16 267.12 C 107.65 267.14 142.14 267.11 176.63 267.13 C 176.62 281.42 176.62 295.70 176.63 309.99 C 123.57 310.00 70.51 310.01 17.45 309.99 C 17.46 233.00 17.46 156.01 17.45 79.02 Z" />
<path fill="#e8e6e3" opacity="1.00" d=" M 199.32 79.01 C 217.89 78.98 236.46 79.01 255.03 79.00 C 282.28 126.91 309.50 174.82 336.75 222.73 C 336.77 174.82 336.75 126.91 336.76 79.00 C 355.27 79.00 373.79 79.00 392.30 79.00 C 392.30 156.00 392.30 233.00 392.30 310.00 C 373.86 310.02 355.42 309.96 336.97 310.03 C 309.60 262.14 282.36 214.18 255.04 166.27 C 255.02 214.18 255.05 262.09 255.03 310.00 C 236.46 310.00 217.89 310.01 199.33 309.99 C 199.33 233.00 199.34 156.01 199.32 79.01 Z" />
<path fill="#e8e6e3" opacity="1.00" d=" M 427.44 79.02 C 480.61 78.97 533.78 79.01 586.94 79.00 C 586.94 93.33 586.94 107.66 586.94 121.99 C 552.35 122.01 517.75 121.99 483.15 122.01 C 483.17 138.21 483.14 154.42 483.17 170.63 C 512.36 170.63 541.56 170.61 570.76 170.64 C 570.75 184.38 570.76 198.12 570.76 211.87 C 541.56 211.89 512.36 211.87 483.16 211.88 C 483.15 230.29 483.15 248.71 483.16 267.12 C 517.65 267.14 552.14 267.11 586.63 267.13 C 586.62 281.42 586.61 295.70 586.63 309.98 C 533.57 310.01 480.51 310.02 427.44 309.98 C 427.46 232.99 427.47 156.01 427.44 79.02 Z" />
<path fill="#e8e6e3" opacity="1.00" d=" M 591.40 79.01 C 611.34 78.99 631.27 79.01 651.20 78.99 C 665.47 112.39 679.66 145.83 693.91 179.24 C 708.06 145.85 722.30 112.49 736.36 79.07 C 756.43 78.91 776.51 79.04 796.58 79.01 C 777.89 116.19 759.17 153.37 740.48 190.57 C 734.44 202.79 728.02 214.87 722.23 227.20 C 722.07 254.79 722.21 282.40 722.16 310.00 C 703.33 310.00 684.50 310.00 665.67 310.00 C 665.67 283.66 665.64 257.33 665.68 230.99 C 665.59 229.31 665.96 227.49 665.13 225.94 C 640.57 176.96 615.97 127.99 591.40 79.01 Z" />
<path fill="#e8e6e3" opacity="1.00" d=" M 817.30 79.02 C 835.81 78.98 854.33 79.00 872.85 79.01 C 872.84 156.00 872.85 233.00 872.85 309.99 C 854.33 310.00 835.82 310.01 817.30 309.99 C 817.31 233.00 817.31 156.01 817.30 79.02 Z" />
<path fill="#e8e6e3" opacity="1.00" d=" M 911.63 79.00 C 935.41 78.99 959.19 79.01 982.98 79.00 C 994.42 78.96 1005.95 79.92 1017.01 83.00 C 1034.36 87.69 1050.57 96.94 1063.09 109.90 C 1081.15 128.60 1091.23 154.15 1092.81 179.95 C 1093.73 199.50 1093.56 219.56 1087.31 238.32 C 1079.78 262.16 1063.55 283.35 1041.72 295.74 C 1025.51 305.25 1006.70 309.88 987.97 309.98 C 962.52 310.03 937.07 309.99 911.63 310.00 C 911.62 233.00 911.62 156.00 911.63 79.00 M 967.32 122.01 C 967.32 170.36 967.36 218.70 967.30 267.04 C 976.83 267.01 986.45 267.64 995.94 266.39 C 1008.43 264.80 1019.78 257.00 1026.10 246.15 C 1034.68 231.71 1036.28 214.43 1036.35 197.98 C 1036.48 183.36 1036.19 168.42 1031.46 154.44 C 1027.71 142.70 1019.77 131.92 1008.41 126.66 C 995.68 120.24 981.04 122.38 967.32 122.01 Z" />
<path fill="#e8e6e3" opacity="1.00" d=" M 1185.28 79.02 C 1202.76 78.99 1220.23 78.97 1237.71 79.03 C 1266.11 156.04 1294.61 233.00 1323.05 310.00 C 1303.10 310.00 1283.15 310.01 1263.21 309.99 C 1258.74 295.62 1254.22 281.26 1249.74 266.89 C 1224.26 266.94 1198.78 266.72 1173.30 267.00 C 1169.01 281.37 1164.46 295.66 1160.07 310.00 C 1140.23 310.00 1120.40 310.01 1100.57 309.99 C 1128.80 233.00 1157.08 156.02 1185.28 79.02 M 1211.40 144.02 C 1203.19 170.64 1194.95 197.25 1186.74 223.87 C 1203.29 223.88 1219.85 223.87 1236.40 223.87 C 1228.02 197.27 1220.05 170.53 1211.40 144.02 Z" />
<path fill="#4dd380" opacity="1.00" d=" M 1410.47 114.50 C 1464.92 114.47 1519.37 114.53 1573.83 114.48 C 1573.94 126.61 1573.85 138.74 1573.87 150.87 C 1554.31 150.90 1534.76 150.85 1515.20 150.89 C 1515.18 203.92 1515.21 256.96 1515.19 309.99 C 1499.48 310.00 1483.77 310.01 1468.06 309.99 C 1468.06 256.96 1468.08 203.92 1468.05 150.89 C 1448.85 150.85 1429.65 150.92 1410.45 150.85 C 1410.47 138.74 1410.43 126.62 1410.47 114.50 Z" />
<path fill="#4dd380" opacity="1.00" d=" M 1580.71 114.51 C 1598.05 114.44 1615.39 114.59 1632.74 114.43 C 1645.91 161.76 1658.61 209.23 1671.60 256.61 C 1684.88 209.32 1697.55 161.86 1710.63 114.51 C 1728.08 114.47 1745.54 114.51 1763.00 114.49 L 1763.00 116.49 C 1761.73 119.13 1760.67 121.86 1759.83 124.65 C 1739.10 186.42 1718.21 248.14 1697.53 309.93 C 1680.33 310.09 1663.12 309.96 1645.92 310.00 C 1624.16 244.84 1602.33 179.71 1580.71 114.51 Z" />
<path fill="#4dd380" opacity="1.00" d=" M 1357.46 266.61 C 1365.99 265.12 1375.53 266.92 1381.80 273.23 C 1390.02 280.96 1390.29 295.36 1382.59 303.53 C 1372.28 314.87 1351.42 314.12 1342.28 301.67 C 1337.87 295.73 1337.12 287.52 1339.63 280.65 C 1342.47 273.19 1349.70 267.96 1357.46 266.61 Z" />
<path fill="#e8e6e3" opacity="1.00" d=" M 331.43 408.38 C 337.36 401.84 346.30 398.64 355.00 398.54 C 363.87 398.24 373.42 400.67 379.62 407.38 C 384.82 412.72 386.98 420.31 386.98 427.63 C 379.91 427.59 372.84 427.69 365.78 427.57 C 365.59 424.79 365.19 421.83 363.41 419.57 C 359.69 414.78 351.27 414.76 347.80 419.85 C 344.97 424.32 345.04 429.85 344.87 434.96 C 344.92 440.36 344.76 446.01 346.92 451.08 C 349.67 457.36 359.12 458.04 363.58 453.34 C 365.29 451.55 365.59 448.97 365.84 446.63 C 372.89 446.62 379.95 446.62 387.00 446.63 C 387.07 454.56 383.49 462.41 377.16 467.26 C 369.04 473.89 357.79 474.88 347.81 473.01 C 339.39 471.35 331.75 466.03 327.47 458.57 C 322.83 450.59 321.86 441.05 322.40 431.99 C 322.87 423.47 325.62 414.79 331.43 408.38 Z" />
<path fill="#e8e6e3" opacity="1.00" d=" M 590.84 406.82 C 598.42 399.97 609.12 397.94 619.05 398.61 C 626.59 399.08 634.44 401.51 639.71 407.17 C 643.99 411.62 645.95 417.87 645.95 423.97 C 646.03 435.00 645.88 446.03 646.02 457.06 C 645.99 462.38 647.31 467.55 649.25 472.47 C 641.57 472.50 633.90 472.56 626.22 472.44 C 625.46 470.35 624.81 468.22 624.28 466.07 C 614.00 478.80 591.18 475.23 584.14 460.87 C 581.47 455.23 581.65 448.48 583.89 442.74 C 586.23 436.81 591.77 432.75 597.69 430.81 C 605.89 427.91 614.71 428.11 623.28 428.12 C 623.23 424.50 623.62 420.54 621.57 417.34 C 618.88 413.69 613.26 413.44 609.53 415.51 C 607.16 416.85 606.80 419.70 606.42 422.13 C 598.90 422.12 591.39 422.14 583.88 422.12 C 583.95 416.32 586.42 410.61 590.84 406.82 M 607.41 443.32 C 604.23 446.95 603.46 454.09 608.22 456.79 C 613.54 459.25 620.21 456.72 623.31 451.92 C 623.24 448.03 623.29 444.14 623.28 440.26 C 617.96 440.43 611.62 439.23 607.41 443.32 Z" />
<path fill="#e8e6e3" opacity="1.00" d=" M 961.19 399.18 C 971.73 397.42 983.57 398.90 991.89 406.11 C 998.97 411.94 1002.75 420.93 1003.65 429.91 C 1004.50 438.64 1003.93 447.83 1000.05 455.84 C 996.61 463.02 990.36 468.80 982.88 471.56 C 974.58 474.55 965.33 474.51 956.90 472.08 C 946.30 468.95 937.96 459.84 935.42 449.14 C 933.07 439.02 933.25 428.03 937.18 418.33 C 941.18 408.33 950.59 400.92 961.19 399.18 M 965.38 416.49 C 959.58 418.15 957.46 424.67 956.87 430.05 C 956.33 437.17 956.01 444.92 959.52 451.40 C 963.29 458.19 974.49 457.86 978.32 451.30 C 981.40 446.13 981.40 439.84 981.33 434.01 C 981.06 428.65 980.47 422.53 976.28 418.68 C 973.41 415.96 969.06 415.51 965.38 416.49 Z" />
<path fill="#e8e6e3" opacity="1.00" d=" M 19.30 419.94 C 19.47 413.23 19.36 406.52 19.72 399.82 C 38.55 399.95 57.37 399.83 76.20 399.88 C 76.21 418.25 76.20 436.62 76.20 454.99 C 79.83 455.00 83.45 454.99 87.08 455.00 C 87.08 468.17 87.08 481.33 87.08 494.50 C 79.52 494.51 71.96 494.49 64.40 494.50 C 64.37 487.17 64.40 479.84 64.38 472.51 C 51.27 472.49 38.16 472.50 25.05 472.50 C 25.04 479.83 25.05 487.16 25.04 494.50 C 17.30 494.50 9.56 494.50 1.81 494.50 C 1.78 481.33 1.77 468.17 1.75 455.00 C 3.90 454.99 6.06 454.99 8.21 455.03 C 12.32 451.00 15.85 446.19 17.49 440.61 C 19.48 433.91 19.12 426.84 19.30 419.94 M 42.04 417.37 C 42.10 430.22 40.87 443.64 34.33 455.01 C 40.77 454.99 47.21 455.02 53.65 454.99 C 53.64 442.45 53.65 429.91 53.64 417.38 C 49.77 417.37 45.91 417.38 42.04 417.37 Z" />
<path fill="#e8e6e3" opacity="1.00" d=" M 93.20 399.88 C 100.79 399.87 108.37 399.87 115.96 399.88 C 116.11 413.86 115.65 427.87 116.20 441.84 C 122.50 427.73 129.36 413.88 135.91 399.88 C 143.48 399.92 151.06 399.76 158.63 399.96 C 158.54 424.14 158.63 448.32 158.58 472.50 C 151.02 472.49 143.46 472.51 135.90 472.50 C 135.87 458.51 135.94 444.53 135.87 430.55 C 129.04 444.44 122.64 458.54 115.95 472.50 C 108.36 472.50 100.78 472.51 93.20 472.49 C 93.20 448.29 93.20 424.08 93.20 399.88 Z" />
<path fill="#e8e6e3" opacity="1.00" d=" M 172.25 399.88 C 183.49 399.89 194.74 399.84 205.98 399.90 C 213.33 400.20 221.09 401.34 227.20 405.73 C 233.25 409.94 235.87 418.42 233.23 425.29 C 231.05 430.56 225.79 433.59 220.64 435.41 C 226.49 436.45 232.71 438.69 236.22 443.79 C 241.75 452.36 237.38 465.10 227.96 468.87 C 221.46 471.95 214.12 472.50 207.02 472.51 C 195.44 472.50 183.86 472.49 172.27 472.51 C 172.22 448.30 172.26 424.09 172.25 399.88 M 194.88 417.14 C 194.88 421.05 194.87 424.96 194.88 428.87 C 199.20 428.71 203.58 429.26 207.86 428.53 C 213.04 427.64 212.84 418.90 207.90 417.77 C 203.65 416.72 199.21 417.25 194.88 417.14 M 194.88 442.88 C 194.87 446.96 194.87 451.04 194.88 455.12 C 199.24 455.12 203.61 455.12 207.97 455.14 C 210.19 455.12 212.69 455.02 214.44 453.46 C 217.29 450.47 216.25 444.34 211.92 443.35 C 206.32 442.35 200.55 443.10 194.88 442.88 Z" />
<path fill="#e8e6e3" opacity="1.00" d=" M 247.58 399.88 C 255.16 399.87 262.74 399.87 270.33 399.88 C 270.34 413.91 270.32 427.94 270.34 441.97 C 276.99 427.95 283.63 413.92 290.26 399.89 C 297.83 399.86 305.40 399.87 312.97 399.88 C 312.98 424.08 312.97 448.29 312.97 472.49 C 305.42 472.53 297.88 472.45 290.33 472.54 C 290.19 458.46 290.33 444.37 290.26 430.29 C 283.60 444.36 276.98 458.44 270.32 472.51 C 262.74 472.49 255.16 472.51 247.58 472.50 C 247.57 448.29 247.57 424.08 247.58 399.88 Z" />
<path fill="#e8e6e3" opacity="1.00" d=" M 398.07 399.88 C 405.65 399.87 413.24 399.87 420.82 399.88 C 420.83 406.50 420.81 413.12 420.83 419.75 C 432.86 419.64 446.19 418.98 456.31 426.69 C 468.16 435.08 469.26 454.73 458.16 464.19 C 450.29 471.26 439.17 472.80 428.97 472.51 C 418.67 472.49 408.37 472.51 398.06 472.49 C 398.07 448.29 398.06 424.08 398.07 399.88 M 420.85 437.24 C 420.80 443.20 420.83 449.16 420.83 455.12 C 426.77 454.74 433.08 456.15 438.73 453.81 C 445.26 451.05 444.58 440.24 437.93 438.11 C 432.40 436.49 426.52 437.55 420.85 437.24 Z" />
<path fill="#e8e6e3" opacity="1.00" d=" M 508.00 399.88 C 515.54 399.88 523.08 399.85 530.62 399.89 C 530.62 409.34 530.61 418.79 530.62 428.24 C 537.22 428.25 543.82 428.25 550.42 428.25 C 550.43 418.79 550.42 409.34 550.42 399.89 C 557.98 399.85 565.55 399.88 573.11 399.88 C 573.12 424.08 573.12 448.29 573.11 472.50 C 565.55 472.51 557.99 472.49 550.43 472.50 C 550.41 463.54 550.44 454.59 550.42 445.63 C 543.82 445.62 537.22 445.62 530.62 445.63 C 530.60 454.59 530.64 463.55 530.60 472.51 C 523.06 472.49 515.53 472.51 507.99 472.50 C 507.99 448.29 507.98 424.08 508.00 399.88 Z" />
<path fill="#e8e6e3" opacity="1.00" d=" M 654.58 399.88 C 663.99 399.86 673.41 399.87 682.82 399.88 C 687.34 408.54 692.04 417.11 696.40 425.86 C 698.63 426.01 700.86 426.04 703.11 426.00 C 703.12 417.29 703.10 408.58 703.11 399.88 C 710.65 399.87 718.19 399.86 725.73 399.88 C 725.74 408.58 725.73 417.29 725.74 425.99 C 727.94 425.99 730.15 426.00 732.37 426.04 C 737.09 417.37 741.63 408.60 746.27 399.88 C 755.69 399.86 765.10 399.87 774.53 399.88 C 767.14 410.98 759.71 422.05 752.32 433.15 C 759.88 446.14 766.96 459.40 774.33 472.49 C 765.12 472.51 755.90 472.49 746.69 472.50 C 742.61 464.06 738.42 455.67 734.42 447.20 C 731.52 447.10 728.63 447.11 725.74 447.14 C 725.70 455.60 725.80 464.06 725.68 472.53 C 718.16 472.46 710.63 472.52 703.11 472.49 C 703.10 464.04 703.12 455.59 703.11 447.14 C 700.25 447.11 697.39 447.06 694.55 447.26 C 690.62 455.75 686.35 464.08 682.29 472.50 C 673.34 472.49 664.39 472.51 655.44 472.50 C 662.59 459.46 670.03 446.57 677.03 433.45 C 669.42 422.35 662.07 411.06 654.58 399.88 Z" />
<path fill="#e8e6e3" opacity="1.00" d=" M 781.95 399.88 C 789.54 399.87 797.12 399.86 804.71 399.88 C 804.72 413.85 804.68 427.81 804.73 441.78 C 811.53 427.87 817.95 413.78 824.71 399.85 C 832.25 399.90 839.79 399.85 847.34 399.88 C 847.35 424.08 847.34 448.29 847.34 472.50 C 839.78 472.50 832.21 472.50 824.65 472.50 C 824.63 458.49 824.67 444.49 824.64 430.49 C 817.84 444.41 811.37 458.49 804.73 472.48 C 797.13 472.52 789.54 472.50 781.95 472.50 C 781.94 448.29 781.94 424.08 781.95 399.88 Z" />
<path fill="#e8e6e3" opacity="1.00" d=" M 861.00 399.88 C 872.00 399.88 883.00 399.86 894.01 399.88 C 901.64 400.12 909.75 401.22 916.09 405.84 C 921.97 410.01 924.52 418.26 922.08 425.02 C 919.99 430.44 914.62 433.59 909.38 435.39 C 915.49 436.49 922.09 438.94 925.44 444.54 C 930.07 452.90 926.13 464.64 917.37 468.54 C 910.77 471.90 903.21 472.49 895.93 472.51 C 884.29 472.49 872.64 472.51 861.00 472.50 C 861.00 448.29 860.99 424.08 861.00 399.88 M 883.62 417.14 C 883.62 421.05 883.62 424.95 883.62 428.86 C 887.89 428.73 892.22 429.23 896.46 428.57 C 901.89 427.78 901.61 418.63 896.40 417.69 C 892.21 416.77 887.87 417.22 883.62 417.14 M 883.63 442.88 C 883.62 446.96 883.62 451.04 883.63 455.12 C 889.09 454.99 894.58 455.41 900.03 454.91 C 903.41 454.62 905.41 451.04 904.65 447.88 C 904.43 445.04 901.68 443.17 899.01 443.01 C 893.89 442.70 888.75 442.96 883.63 442.88 Z" />
</svg>
