<?xml version="1.0" encoding="UTF-8" ?>
<!DOCTYPE svg PUBLIC "-//W3C//DTD SVG 1.1//EN" "http://www.w3.org/Graphics/SVG/1.1/DTD/svg11.dtd">
<svg width="256pt" height="256pt" viewBox="0 0 256 256" version="1.1" xmlns="http://www.w3.org/2000/svg">
<path fill="#ffffff" opacity="1.00" d=" M 142.86 51.26 C 153.05 36.39 163.78 21.89 174.07 7.08 C 188.70 31.48 201.33 57.14 211.04 83.89 C 217.78 102.43 220.06 123.00 214.89 142.23 C 213.20 148.58 210.50 154.63 207.02 160.19 C 186.41 194.12 159.72 224.46 128.14 248.56 C 95.56 223.19 67.78 191.62 47.18 155.81 C 36.41 135.21 37.17 110.40 44.05 88.68 C 53.63 60.19 67.22 33.20 82.31 7.26 C 93.27 21.63 103.34 36.70 113.94 51.36 C 117.51 50.26 121.29 50.35 124.98 50.22 C 130.95 50.19 136.98 50.03 142.86 51.26 M 56.49 97.72 C 51.16 100.15 50.34 106.86 50.75 112.03 C 52.80 129.09 61.36 145.49 74.82 156.30 C 81.76 161.68 90.07 165.77 98.97 166.18 C 104.16 166.20 110.12 163.91 111.82 158.55 C 113.84 151.99 111.39 145.17 108.86 139.11 C 101.56 123.00 89.65 108.51 73.85 100.19 C 68.56 97.73 62.21 95.24 56.49 97.72 M 188.53 97.88 C 182.94 99.64 177.90 102.75 173.25 106.26 C 161.09 115.77 151.61 128.68 146.15 143.11 C 144.18 148.63 142.63 155.13 145.72 160.55 C 148.85 165.48 155.40 166.81 160.81 165.85 C 170.58 164.49 179.25 159.03 186.35 152.40 C 197.54 141.17 204.83 125.96 206.06 110.11 C 205.89 106.35 205.49 102.11 202.55 99.40 C 198.90 95.69 193.05 96.45 188.53 97.88 M 122.11 182.22 C 114.86 191.25 107.25 199.98 100.07 209.06 C 100.59 212.76 104.92 212.77 107.78 212.20 C 114.52 204.41 121.48 196.83 128.09 188.93 C 135.41 196.38 141.70 204.81 149.14 212.14 C 151.75 212.94 156.78 212.66 156.39 208.90 C 149.87 200.72 142.99 192.81 136.46 184.64 C 134.92 182.91 133.52 180.77 131.18 180.08 C 128.12 179.14 124.20 179.54 122.11 182.22 Z" />
<path fill="#010100" opacity="1.00" d=" M 56.49 97.72 C 62.21 95.24 68.56 97.73 73.85 100.19 C 89.65 108.51 101.56 123.00 108.86 139.11 C 111.39 145.17 113.84 151.99 111.82 158.55 C 110.12 163.91 104.16 166.20 98.97 166.18 C 90.07 165.77 81.76 161.68 74.82 156.30 C 61.36 145.49 52.80 129.09 50.75 112.03 C 50.34 106.86 51.16 100.15 56.49 97.72 Z" />
<path fill="#010100" opacity="1.00" d=" M 188.53 97.88 C 193.05 96.45 198.90 95.69 202.55 99.40 C 205.49 102.11 205.89 106.35 206.06 110.11 C 204.83 125.96 197.54 141.17 186.35 152.40 C 179.25 159.03 170.58 164.49 160.81 165.85 C 155.40 166.81 148.85 165.48 145.72 160.55 C 142.63 155.13 144.18 148.63 146.15 143.11 C 151.61 128.68 161.09 115.77 173.25 106.26 C 177.90 102.75 182.94 99.64 188.53 97.88 Z" />
<path fill="#010100" opacity="1.00" d=" M 122.11 182.22 C 124.20 179.54 128.12 179.14 131.18 180.08 C 133.52 180.77 134.92 182.91 136.46 184.64 C 142.99 192.81 149.87 200.72 156.39 208.90 C 156.78 212.66 151.75 212.94 149.14 212.14 C 141.70 204.81 135.41 196.38 128.09 188.93 C 121.48 196.83 114.52 204.41 107.78 212.20 C 104.92 212.77 100.59 212.76 100.07 209.06 C 107.25 199.98 114.86 191.25 122.11 182.22 Z" />
</svg>
