<?xml version="1.0" encoding="utf-8"?>
<!-- Generator: Adobe Illustrator 24.2.0, SVG Export Plug-In . SVG Version: 6.00 Build 0)  -->
<svg version="1.1" id="Слой_1" xmlns="http://www.w3.org/2000/svg" xmlns:xlink="http://www.w3.org/1999/xlink" x="0px" y="0px"
	 viewBox="0 0 1080 1080" style="enable-background:new 0 0 1080 1080;" xml:space="preserve">
<style type="text/css">
	.st0{clip-path:url(#SVGID_2_);fill-rule:evenodd;clip-rule:evenodd;}
</style>
<g>
	<defs>
		<rect id="SVGID_1_" width="1080" height="1080"/>
	</defs>
	<clipPath id="SVGID_2_">
		<use xlink:href="#SVGID_1_"  style="overflow:visible;"/>
	</clipPath>
	<path class="st0" d="M540,0C237.6,0,0,246.7,0,548.22c0,241.22,151.2,449.54,367.2,520.81c27,5.48,37.8-10.97,37.8-27.41
		c0-10.96,0-54.82,0-98.68c-135,21.93-172.8-32.89-183.6-65.79c-5.4-16.45-32.4-65.79-54-76.75c-21.6-10.96-48.6-38.38,0-38.38
		c43.2,0,70.2,38.38,81,54.82c48.6,87.71,124.2,60.3,156.6,49.34c5.4-38.38,21.6-60.3,37.8-76.75
		c-124.2-10.97-248.4-60.3-248.4-268.63c0-60.3,21.6-109.65,54-148.02c-5.4-10.96-21.6-71.27,5.4-142.54c0,0,48.6-16.45,151.2,54.82
		c43.2-10.96,86.4-21.93,135-21.93c43.2,0,91.8,10.96,135,21.93c102.6-71.27,145.8-54.82,145.8-54.82
		c32.4,71.27,10.8,131.57,5.4,142.54c37.8,38.38,59.4,87.72,59.4,148.02c0,208.32-129.6,257.66-248.4,268.63
		c21.6,16.45,37.8,49.34,37.8,104.16c0,71.27,0,131.57,0,148.02s5.4,32.89,32.4,27.41c221.4-76.75,367.2-285.08,372.6-520.81
		C1080,246.7,837,0,540,0z"/>
</g>
</svg>
