<?xml version="1.0" encoding="UTF-8" ?>
<!DOCTYPE svg PUBLIC "-//W3C//DTD SVG 1.1//EN" "http://www.w3.org/Graphics/SVG/1.1/DTD/svg11.dtd">
<svg width="850pt" height="850pt" viewBox="0 0 850 850" version="1.1" xmlns="http://www.w3.org/2000/svg">
<g id="#141516ff">
<path fill="#141516" opacity="1.00" d=" M 109.09 213.06 C 115.97 204.98 126.40 200.11 137.02 200.01 C 176.98 199.98 216.94 200.01 256.90 200.00 C 260.98 199.97 265.09 199.88 269.12 200.62 C 281.97 202.77 293.18 212.27 297.66 224.47 C 299.40 229.10 300.04 234.07 300.01 239.00 C 299.94 305.70 300.09 372.41 299.94 439.12 C 299.56 457.97 282.95 474.57 264.10 474.95 C 209.40 475.07 154.70 474.96 100.00 475.00 C 100.00 458.33 100.00 441.67 100.00 425.00 C 145.67 424.99 191.34 425.01 237.00 424.99 C 244.04 425.39 250.39 419.05 249.99 412.01 C 250.00 362.32 250.01 312.64 249.99 262.95 C 250.36 255.97 244.08 249.64 237.08 250.01 C 212.41 249.99 187.72 250.00 163.05 250.01 C 156.00 249.58 149.61 255.92 150.01 262.97 C 149.99 287.63 150.00 312.30 150.01 336.97 C 149.63 343.60 155.26 349.84 161.93 349.94 C 182.95 350.08 203.98 349.96 225.00 350.00 C 225.00 366.67 225.00 383.33 225.00 400.00 C 195.65 399.99 166.31 400.02 136.96 399.99 C 127.99 399.87 119.15 396.41 112.49 390.41 C 104.77 383.55 100.13 373.40 100.01 363.06 C 99.98 321.38 100.02 279.69 99.99 238.01 C 99.91 228.95 103.14 219.91 109.09 213.06 Z" />
<path fill="#141516" opacity="1.00" d=" M 355.54 200.68 C 358.00 200.24 360.51 200.01 363.02 199.99 C 400.33 200.01 437.64 200.00 474.95 200.00 C 483.49 200.16 492.38 199.14 500.53 202.34 C 514.76 207.48 524.99 221.86 524.99 237.02 C 525.02 278.68 524.98 320.33 525.01 361.99 C 525.11 371.98 521.14 381.98 513.98 388.98 C 507.21 395.88 497.66 399.87 488.01 399.99 C 446.35 400.02 404.68 399.98 363.01 400.01 C 353.94 400.10 344.90 396.86 338.05 390.90 C 329.99 384.02 325.12 373.61 325.01 363.02 C 324.98 322.69 325.01 282.36 325.00 242.03 C 324.86 236.36 325.14 230.57 327.09 225.20 C 331.33 212.75 342.57 202.99 355.54 200.68 M 383.51 250.67 C 377.97 252.45 374.47 258.29 374.99 264.00 C 375.05 288.69 374.91 313.38 375.06 338.07 C 375.16 344.71 381.34 350.33 387.95 349.99 C 412.63 350.01 437.32 350.00 462.00 349.99 C 468.64 350.34 474.84 344.71 474.95 338.03 C 475.07 313.03 474.97 288.02 474.99 263.01 C 475.34 256.39 469.74 250.16 463.07 250.06 C 438.72 249.91 414.37 250.06 390.01 249.98 C 387.83 250.00 385.59 249.97 383.51 250.67 Z" />
<path fill="#141516" opacity="1.00" d=" M 555.64 217.79 C 562.15 207.04 574.40 200.11 586.97 200.01 C 628.67 199.98 670.37 200.02 712.06 199.99 C 718.92 200.01 725.83 201.72 731.70 205.33 C 742.71 211.79 749.91 224.18 749.99 236.96 C 750.02 303.63 749.98 370.30 750.01 436.97 C 750.01 443.85 748.30 450.78 744.69 456.67 C 738.23 467.70 725.84 474.91 713.04 474.99 C 658.70 475.02 604.35 474.99 550.00 475.00 C 550.00 458.33 550.00 441.67 550.00 425.00 C 594.01 425.00 638.01 425.00 682.02 425.00 C 685.85 424.94 690.00 425.47 693.46 423.43 C 697.60 421.30 700.12 416.63 699.99 412.02 C 699.97 361.99 700.07 311.95 699.94 261.92 C 699.82 254.82 692.89 249.20 685.93 249.99 C 661.59 250.02 637.26 249.98 612.93 250.01 C 605.92 249.63 599.61 255.97 600.01 262.98 C 599.99 287.67 599.99 312.37 600.01 337.06 C 599.67 343.65 605.28 349.83 611.92 349.94 C 632.94 350.08 653.97 349.96 675.00 350.00 C 675.00 366.67 675.00 383.33 675.00 400.00 C 645.64 399.99 616.29 400.02 586.93 399.99 C 577.97 399.86 569.12 396.40 562.47 390.39 C 554.75 383.53 550.13 373.38 550.01 363.05 C 549.98 321.38 550.02 279.70 549.99 238.03 C 549.98 230.93 551.82 223.80 555.64 217.79 Z" />
<path fill="#141516" opacity="1.00" d=" M 113.59 533.65 C 120.37 527.97 129.18 524.91 138.01 524.99 C 183.67 525.01 229.33 524.99 275.00 525.00 C 275.00 541.67 275.00 558.33 275.00 575.00 C 237.65 575.01 200.29 574.98 162.94 575.01 C 155.94 574.63 149.61 580.96 150.01 587.97 C 149.99 612.66 149.99 637.34 150.01 662.03 C 149.61 669.03 155.92 675.37 162.93 674.99 C 200.28 675.01 237.64 674.99 275.00 675.00 C 275.00 691.67 275.00 708.33 275.00 725.00 C 230.99 725.00 186.99 725.00 142.98 725.00 C 137.22 725.12 131.34 725.00 125.82 723.13 C 110.94 718.43 100.03 703.68 100.01 688.05 C 99.99 646.02 99.99 603.99 100.01 561.96 C 100.13 551.13 105.22 540.51 113.59 533.65 Z" />
<path fill="#141516" opacity="1.00" d=" M 330.43 525.69 C 332.93 525.24 335.47 525.01 338.01 524.99 C 379.70 525.02 421.40 524.97 463.08 525.02 C 472.72 525.15 482.25 529.14 489.00 536.05 C 495.87 542.79 499.84 552.29 499.98 561.90 C 500.02 603.60 499.98 645.30 500.01 687.00 C 500.11 696.99 496.14 706.99 488.97 713.98 C 482.20 720.90 472.63 724.87 462.97 724.99 C 421.32 725.02 379.66 724.98 338.01 725.01 C 330.94 725.02 323.83 723.19 317.84 719.39 C 307.07 712.88 300.11 700.64 300.01 688.06 C 299.99 646.03 299.99 603.99 300.01 561.96 C 299.96 544.68 313.41 528.64 330.43 525.69 M 358.54 575.66 C 353.38 577.34 349.76 582.60 350.01 588.02 C 349.99 612.68 350.00 637.34 350.01 662.00 C 349.59 669.03 355.94 675.39 362.97 674.99 C 387.65 675.01 412.34 675.00 437.02 674.99 C 444.05 675.38 450.39 669.04 449.99 662.00 C 450.00 637.34 450.01 612.67 449.99 588.01 C 450.39 580.98 444.06 574.61 437.02 575.01 C 412.68 574.98 388.33 575.02 363.98 574.99 C 362.15 575.01 360.29 575.07 358.54 575.66 Z" />
<path fill="#141516" opacity="1.00" d=" M 537.52 534.57 C 544.18 528.56 553.05 525.12 562.03 525.01 C 624.69 524.99 687.34 525.01 750.00 525.00 C 750.00 591.67 750.00 658.33 750.00 725.00 C 733.33 725.00 716.67 725.00 700.00 725.00 C 700.00 675.00 700.00 625.00 700.00 575.00 C 687.50 575.00 675.00 575.00 662.50 575.00 C 662.50 625.00 662.49 674.99 662.51 724.99 C 645.83 725.00 629.16 725.03 612.48 724.97 C 612.52 674.98 612.49 624.99 612.50 575.00 C 604.33 575.01 596.16 574.98 588.00 575.01 C 583.36 574.85 578.73 577.40 576.56 581.53 C 574.68 584.68 575.01 588.49 574.99 592.01 C 575.01 636.34 575.00 680.67 575.00 725.00 C 558.33 725.00 541.67 725.00 525.00 725.00 C 525.01 670.65 524.98 616.30 525.01 561.95 C 525.13 551.60 529.77 541.43 537.52 534.57 Z" />
</g>
<g id="#e8e6e3ff">
<path fill="#e8e6e3" opacity="1.00" d=" M 51.67 78.76 C 59.82 76.02 68.45 74.96 77.03 75.00 C 306.37 75.01 535.71 75.00 765.05 75.00 C 772.39 75.01 779.79 74.79 787.05 76.03 C 806.18 79.04 823.91 89.91 835.32 105.55 C 844.54 117.87 849.55 133.12 850.00 148.47 L 850.00 776.87 C 849.46 794.25 842.90 811.40 831.32 824.41 C 817.84 840.01 797.69 849.35 777.12 850.00 L 73.47 850.00 C 56.96 849.55 40.59 843.73 27.81 833.20 C 10.94 819.73 0.64 798.67 0.00 777.12 L 0.00 148.42 C 0.37 137.29 2.97 126.18 8.08 116.26 C 16.87 98.63 32.94 84.84 51.67 78.76 M 109.09 213.06 C 103.14 219.91 99.91 228.95 99.99 238.01 C 100.02 279.69 99.98 321.38 100.01 363.06 C 100.13 373.40 104.77 383.55 112.49 390.41 C 119.15 396.41 127.99 399.87 136.96 399.99 C 166.31 400.02 195.65 399.99 225.00 400.00 C 225.00 383.33 225.00 366.67 225.00 350.00 C 203.98 349.96 182.95 350.08 161.93 349.94 C 155.26 349.84 149.63 343.60 150.01 336.97 C 150.00 312.30 149.99 287.63 150.01 262.97 C 149.61 255.92 156.00 249.58 163.05 250.01 C 187.72 250.00 212.41 249.99 237.08 250.01 C 244.08 249.64 250.36 255.97 249.99 262.95 C 250.01 312.64 250.00 362.32 249.99 412.01 C 250.39 419.05 244.04 425.39 237.00 424.99 C 191.34 425.01 145.67 424.99 100.00 425.00 C 100.00 441.67 100.00 458.33 100.00 475.00 C 154.70 474.96 209.40 475.07 264.10 474.95 C 282.95 474.57 299.56 457.97 299.94 439.12 C 300.09 372.41 299.94 305.70 300.01 239.00 C 300.04 234.07 299.40 229.10 297.66 224.47 C 293.18 212.27 281.97 202.77 269.12 200.62 C 265.09 199.88 260.98 199.97 256.90 200.00 C 216.94 200.01 176.98 199.98 137.02 200.01 C 126.40 200.11 115.97 204.98 109.09 213.06 M 355.54 200.68 C 342.57 202.99 331.33 212.75 327.09 225.20 C 325.14 230.57 324.86 236.36 325.00 242.03 C 325.01 282.36 324.98 322.69 325.01 363.02 C 325.12 373.61 329.99 384.02 338.05 390.90 C 344.90 396.86 353.94 400.10 363.01 400.01 C 404.68 399.98 446.35 400.02 488.01 399.99 C 497.66 399.87 507.21 395.88 513.98 388.98 C 521.14 381.98 525.11 371.98 525.01 361.99 C 524.98 320.33 525.02 278.68 524.99 237.02 C 524.99 221.86 514.76 207.48 500.53 202.34 C 492.38 199.14 483.49 200.16 474.95 200.00 C 437.64 200.00 400.33 200.01 363.02 199.99 C 360.51 200.01 358.00 200.24 355.54 200.68 M 555.64 217.79 C 551.82 223.80 549.98 230.93 549.99 238.03 C 550.02 279.70 549.98 321.38 550.01 363.05 C 550.13 373.38 554.75 383.53 562.47 390.39 C 569.12 396.40 577.97 399.86 586.93 399.99 C 616.29 400.02 645.64 399.99 675.00 400.00 C 675.00 383.33 675.00 366.67 675.00 350.00 C 653.97 349.96 632.94 350.08 611.92 349.94 C 605.28 349.83 599.67 343.65 600.01 337.06 C 599.99 312.37 599.99 287.67 600.01 262.98 C 599.61 255.97 605.92 249.63 612.93 250.01 C 637.26 249.98 661.59 250.02 685.93 249.99 C 692.89 249.20 699.82 254.82 699.94 261.92 C 700.07 311.95 699.97 361.99 699.99 412.02 C 700.12 416.63 697.60 421.30 693.46 423.43 C 690.00 425.47 685.85 424.94 682.02 425.00 C 638.01 425.00 594.01 425.00 550.00 425.00 C 550.00 441.67 550.00 458.33 550.00 475.00 C 604.35 474.99 658.70 475.02 713.04 474.99 C 725.84 474.91 738.23 467.70 744.69 456.67 C 748.30 450.78 750.01 443.85 750.01 436.97 C 749.98 370.30 750.02 303.63 749.99 236.96 C 749.91 224.18 742.71 211.79 731.70 205.33 C 725.83 201.72 718.92 200.01 712.06 199.99 C 670.37 200.02 628.67 199.98 586.97 200.01 C 574.40 200.11 562.15 207.04 555.64 217.79 M 113.59 533.65 C 105.22 540.51 100.13 551.13 100.01 561.96 C 99.99 603.99 99.99 646.02 100.01 688.05 C 100.03 703.68 110.94 718.43 125.82 723.13 C 131.34 725.00 137.22 725.12 142.98 725.00 C 186.99 725.00 230.99 725.00 275.00 725.00 C 275.00 708.33 275.00 691.67 275.00 675.00 C 237.64 674.99 200.28 675.01 162.93 674.99 C 155.92 675.37 149.61 669.03 150.01 662.03 C 149.99 637.34 149.99 612.66 150.01 587.97 C 149.61 580.96 155.94 574.63 162.94 575.01 C 200.29 574.98 237.65 575.01 275.00 575.00 C 275.00 558.33 275.00 541.67 275.00 525.00 C 229.33 524.99 183.67 525.01 138.01 524.99 C 129.18 524.91 120.37 527.97 113.59 533.65 M 330.43 525.69 C 313.41 528.64 299.96 544.68 300.01 561.96 C 299.99 603.99 299.99 646.03 300.01 688.06 C 300.11 700.64 307.07 712.88 317.84 719.39 C 323.83 723.19 330.94 725.02 338.01 725.01 C 379.66 724.98 421.32 725.02 462.97 724.99 C 472.63 724.87 482.20 720.90 488.97 713.98 C 496.14 706.99 500.11 696.99 500.01 687.00 C 499.98 645.30 500.02 603.60 499.98 561.90 C 499.84 552.29 495.87 542.79 489.00 536.05 C 482.25 529.14 472.72 525.15 463.08 525.02 C 421.40 524.97 379.70 525.02 338.01 524.99 C 335.47 525.01 332.93 525.24 330.43 525.69 M 537.52 534.57 C 529.77 541.43 525.13 551.60 525.01 561.95 C 524.98 616.30 525.01 670.65 525.00 725.00 C 541.67 725.00 558.33 725.00 575.00 725.00 C 575.00 680.67 575.01 636.34 574.99 592.01 C 575.01 588.49 574.68 584.68 576.56 581.53 C 578.73 577.40 583.36 574.85 588.00 575.01 C 596.16 574.98 604.33 575.01 612.50 575.00 C 612.49 624.99 612.52 674.98 612.48 724.97 C 629.16 725.03 645.83 725.00 662.51 724.99 C 662.49 674.99 662.50 625.00 662.50 575.00 C 675.00 575.00 687.50 575.00 700.00 575.00 C 700.00 625.00 700.00 675.00 700.00 725.00 C 716.67 725.00 733.33 725.00 750.00 725.00 C 750.00 658.33 750.00 591.67 750.00 525.00 C 687.34 525.01 624.69 524.99 562.03 525.01 C 553.05 525.12 544.18 528.56 537.52 534.57 Z" />
<path fill="#e8e6e3" opacity="1.00" d=" M 383.51 250.67 C 385.59 249.97 387.83 250.00 390.01 249.98 C 414.37 250.06 438.72 249.91 463.07 250.06 C 469.74 250.16 475.34 256.39 474.99 263.01 C 474.97 288.02 475.07 313.03 474.95 338.03 C 474.84 344.71 468.64 350.34 462.00 349.99 C 437.32 350.00 412.63 350.01 387.95 349.99 C 381.34 350.33 375.16 344.71 375.06 338.07 C 374.91 313.38 375.05 288.69 374.99 264.00 C 374.47 258.29 377.97 252.45 383.51 250.67 Z" />
<path fill="#e8e6e3" opacity="1.00" d=" M 358.54 575.66 C 360.29 575.07 362.15 575.01 363.98 574.99 C 388.33 575.02 412.68 574.98 437.02 575.01 C 444.06 574.61 450.39 580.98 449.99 588.01 C 450.01 612.67 450.00 637.34 449.99 662.00 C 450.39 669.04 444.05 675.38 437.02 674.99 C 412.34 675.00 387.65 675.01 362.97 674.99 C 355.94 675.39 349.59 669.03 350.01 662.00 C 350.00 637.34 349.99 612.68 350.01 588.02 C 349.76 582.60 353.38 577.34 358.54 575.66 Z" />
</g>
</svg>
