<?xml version="1.0" encoding="UTF-8" ?>
<!DOCTYPE svg PUBLIC "-//W3C//DTD SVG 1.1//EN" "http://www.w3.org/Graphics/SVG/1.1/DTD/svg11.dtd">
<svg width="544pt" height="184pt" viewBox="0 0 544 184" version="1.1" xmlns="http://www.w3.org/2000/svg">
<g id="#000000ff">
</g>
<g id="#ffffffff">
<path fill="#ffffff" opacity="1.00" d=" M 23.89 18.83 C 37.93 6.19 57.20 -0.40 76.05 1.14 C 91.67 2.02 106.63 9.01 117.81 19.90 C 113.40 24.33 108.95 28.73 104.55 33.17 C 95.36 24.44 82.77 19.39 70.05 19.78 C 56.70 19.84 43.48 25.61 34.48 35.49 C 24.91 45.72 20.17 60.11 21.38 74.03 C 22.45 88.82 30.47 102.96 42.76 111.29 C 61.34 124.15 89.32 122.71 105.26 106.18 C 111.51 100.02 114.39 91.32 115.57 82.81 C 100.57 82.79 85.58 82.81 70.58 82.81 C 70.57 76.54 70.58 70.27 70.58 64.00 C 91.73 64.00 112.88 64.00 134.03 64.00 C 136.53 80.52 133.87 98.38 124.39 112.40 C 116.07 124.13 103.59 132.98 89.57 136.43 C 74.77 140.07 58.75 139.41 44.57 133.62 C 27.75 126.89 13.68 113.46 6.41 96.84 C 1.44 85.62 -0.32 73.03 1.32 60.88 C 3.43 44.74 11.73 29.60 23.89 18.83 Z" />
<path fill="#ffffff" opacity="1.00" d=" M 431.00 6.00 C 437.33 6.00 443.66 6.00 450.00 6.00 C 450.00 49.33 450.00 92.67 450.00 136.00 C 443.66 136.00 437.33 136.00 431.00 136.00 C 431.00 92.67 431.00 49.33 431.00 6.00 Z" />
<path fill="#ffffff" opacity="1.00" d=" M 178.51 50.79 C 190.56 48.58 203.53 51.17 213.48 58.41 C 222.81 65.04 229.18 75.58 230.87 86.88 C 232.83 98.89 229.99 111.76 222.51 121.45 C 214.69 131.84 202.00 138.17 189.05 138.63 C 175.22 139.36 161.10 133.42 152.37 122.59 C 138.17 105.60 139.46 77.91 155.54 62.58 C 161.78 56.44 169.92 52.34 178.51 50.79 M 181.15 68.19 C 176.61 69.30 172.41 71.77 169.22 75.18 C 159.50 85.48 159.55 103.38 169.36 113.60 C 174.57 119.15 182.47 122.05 190.03 121.02 C 197.00 120.18 203.43 116.07 207.31 110.24 C 214.47 99.58 213.43 83.86 204.28 74.68 C 198.41 68.65 189.30 66.11 181.15 68.19 Z" />
<path fill="#ffffff" opacity="1.00" d=" M 274.52 50.78 C 286.81 48.50 300.05 51.26 310.08 58.81 C 319.13 65.48 325.26 75.85 326.92 86.95 C 328.98 99.65 325.61 113.28 317.20 123.12 C 308.23 133.89 293.87 139.67 279.94 138.58 C 267.12 137.85 254.69 131.35 247.10 120.94 C 238.87 109.96 236.56 95.10 240.17 81.96 C 244.30 66.03 258.35 53.50 274.52 50.78 M 275.41 68.67 C 271.32 70.00 267.61 72.45 264.75 75.66 C 255.46 86.06 255.69 103.59 265.38 113.66 C 270.61 119.19 278.53 122.07 286.09 121.02 C 293.54 120.12 300.32 115.47 304.10 109.03 C 310.77 97.82 308.90 81.76 298.73 73.23 C 292.44 67.80 283.28 66.03 275.41 68.67 Z" />
<path fill="#ffffff" opacity="1.00" d=" M 359.21 54.24 C 369.21 49.23 381.63 48.31 391.80 53.39 C 395.31 55.00 398.16 57.66 400.96 60.25 C 400.99 57.73 400.99 55.21 400.99 52.69 C 407.15 52.68 413.32 52.69 419.49 52.68 C 419.51 79.13 419.50 105.57 419.50 132.01 C 419.51 142.60 417.55 153.65 411.37 162.48 C 406.36 169.82 398.42 174.86 389.85 176.96 C 379.62 179.45 368.42 179.00 358.86 174.37 C 349.49 169.92 342.07 161.82 337.99 152.33 C 343.62 149.96 349.26 147.63 354.90 145.27 C 358.19 152.73 364.71 159.14 372.95 160.59 C 381.39 162.06 391.27 159.64 396.32 152.26 C 401.28 145.31 401.16 136.38 400.95 128.23 C 396.22 133.36 389.93 137.06 383.00 138.16 C 368.47 140.69 353.36 133.86 344.32 122.49 C 336.56 112.97 333.09 100.16 334.92 88.02 C 336.87 73.70 346.24 60.64 359.21 54.24 M 371.36 68.64 C 368.16 69.70 365.19 71.46 362.71 73.75 C 351.84 83.62 351.04 102.30 360.85 113.17 C 366.27 119.35 375.01 122.46 383.10 120.79 C 390.83 119.35 397.25 113.45 400.12 106.24 C 404.52 95.33 402.55 81.44 393.69 73.30 C 387.84 67.79 378.93 66.06 371.36 68.64 Z" />
<path fill="#ffffff" opacity="1.00" d=" M 471.89 60.92 C 484.84 48.54 506.58 46.09 521.44 56.47 C 530.72 62.73 536.41 72.87 539.99 83.24 C 520.21 91.43 500.42 99.61 480.64 107.82 C 484.25 115.24 491.60 120.90 500.02 121.15 C 509.63 122.25 518.94 116.96 524.06 108.98 C 529.10 112.33 534.15 115.67 539.17 119.06 C 532.62 128.56 522.48 135.73 511.05 137.84 C 496.15 140.84 479.67 136.00 469.50 124.53 C 453.50 107.14 454.54 77.01 471.89 60.92 M 482.14 77.07 C 478.74 81.63 477.38 87.38 477.42 92.99 C 490.69 87.55 503.92 81.99 517.18 76.50 C 514.90 71.33 509.56 68.17 504.12 67.38 C 495.70 65.99 487.06 70.32 482.14 77.07 Z" />
</g>
</svg>
