<?xml version="1.0" encoding="UTF-8" ?>
<!DOCTYPE svg PUBLIC "-//W3C//DTD SVG 1.1//EN" "http://www.w3.org/Graphics/SVG/1.1/DTD/svg11.dtd">
<svg width="424pt" height="138pt" viewBox="0 0 424 138" version="1.1" xmlns="http://www.w3.org/2000/svg">
<g id="#454a4cff">
</g>
<g id="#ffffffff">
<path fill="#ffffff" opacity="1.00" d=" M 35.37 19.60 C 43.06 17.92 51.60 18.51 58.40 22.78 C 57.72 24.04 57.04 25.29 56.35 26.54 C 50.30 23.18 42.76 21.76 36.12 24.12 C 32.03 25.49 28.63 29.33 29.01 33.84 C 29.41 39.69 27.26 47.19 32.61 51.40 C 39.05 56.12 47.96 54.77 54.74 51.49 C 54.75 48.25 54.75 45.00 54.75 41.76 C 50.75 41.75 46.75 41.75 42.75 41.75 C 42.75 40.42 42.75 39.09 42.76 37.76 C 48.34 37.75 53.93 37.75 59.51 37.75 C 59.52 43.25 59.52 48.75 59.51 54.25 C 52.50 58.50 43.95 59.48 35.98 57.97 C 30.35 56.66 24.75 52.29 24.24 46.18 C 23.92 41.11 23.90 36.00 24.24 30.93 C 24.81 25.12 30.08 21.09 35.37 19.60 Z" />
<path fill="#ffffff" opacity="1.00" d=" M 66.50 19.26 C 73.68 19.28 80.86 19.19 88.05 19.28 C 92.67 19.36 97.91 21.72 99.31 26.46 C 100.20 30.08 100.23 34.53 97.37 37.31 C 95.60 39.35 92.93 40.10 90.48 40.96 C 93.86 46.71 97.27 52.45 100.60 58.23 C 98.78 58.24 96.96 58.26 95.14 58.27 C 91.94 52.86 88.76 47.44 85.62 42.00 C 80.91 42.00 76.21 42.00 71.50 42.00 C 71.50 47.42 71.51 52.83 71.50 58.25 C 69.83 58.25 68.17 58.25 66.50 58.25 C 66.49 45.25 66.50 32.25 66.50 19.26 M 71.50 23.50 C 71.50 28.25 71.50 33.00 71.50 37.75 C 76.35 37.72 81.20 37.79 86.04 37.76 C 88.85 37.74 91.95 36.96 93.74 34.63 C 96.22 30.93 94.49 24.96 89.83 24.05 C 83.81 22.87 77.60 23.78 71.50 23.50 Z" />
<path fill="#ffffff" opacity="1.00" d=" M 121.97 18.76 C 123.77 18.75 125.56 18.75 127.36 18.74 C 133.13 31.89 138.80 45.09 144.57 58.24 C 142.70 58.25 140.84 58.25 138.98 58.25 C 137.34 54.41 135.64 50.60 134.03 46.76 C 127.76 46.76 121.49 46.73 115.22 46.78 C 113.56 50.61 111.83 54.42 110.16 58.25 C 108.32 58.25 106.49 58.25 104.66 58.24 C 110.40 45.07 116.24 31.94 121.97 18.76 M 124.64 24.17 C 121.93 30.28 119.24 36.40 116.48 42.49 C 121.92 42.51 127.35 42.52 132.79 42.48 C 130.00 36.41 127.42 30.25 124.64 24.17 Z" />
<path fill="#ffffff" opacity="1.00" d=" M 149.00 19.25 C 155.88 19.33 162.76 19.10 169.63 19.34 C 174.47 19.61 179.82 22.77 180.15 28.05 C 181.14 32.63 177.64 36.59 173.52 37.97 C 177.59 39.20 181.79 42.26 181.70 46.95 C 182.47 52.27 178.32 57.11 173.11 57.74 C 165.14 58.82 157.03 58.00 149.00 58.25 C 149.00 45.25 149.00 32.25 149.00 19.25 M 154.01 23.25 C 154.00 27.58 154.00 31.92 154.00 36.25 C 159.84 35.97 165.86 37.00 171.55 35.36 C 176.81 33.77 176.49 24.71 170.94 23.82 C 165.38 22.68 159.64 23.49 154.01 23.25 M 154.01 40.25 C 154.00 44.83 154.00 49.42 154.00 54.00 C 158.68 53.98 163.35 54.03 168.03 54.01 C 170.66 53.99 173.67 53.66 175.49 51.54 C 178.15 47.95 176.58 41.80 171.92 40.82 C 166.06 39.56 159.96 40.57 154.01 40.25 Z" />
<path fill="#ffffff" opacity="1.00" d=" M 190.34 26.44 C 193.27 21.34 199.34 18.84 205.02 18.78 C 210.75 18.49 216.87 18.96 221.66 22.45 C 220.68 24.52 219.67 26.58 218.66 28.64 C 212.97 26.18 205.54 24.32 200.03 28.12 C 196.38 30.52 197.45 35.29 197.28 38.98 C 197.46 42.43 196.49 46.93 199.81 49.24 C 205.36 52.96 212.82 51.49 218.53 48.84 C 219.46 51.02 220.41 53.19 221.34 55.37 C 215.63 58.93 208.56 58.85 202.09 58.25 C 196.54 57.73 190.94 54.25 189.25 48.74 C 188.48 44.89 188.94 40.93 188.81 37.03 C 188.94 33.49 188.26 29.57 190.34 26.44 Z" />
<path fill="#ffffff" opacity="1.00" d=" M 240.18 18.73 C 243.39 18.75 246.61 18.75 249.82 18.77 C 255.10 31.92 260.26 45.10 265.55 58.24 C 262.31 58.25 259.08 58.25 255.85 58.25 C 254.78 55.41 253.69 52.58 252.61 49.74 C 247.50 49.76 242.40 49.75 237.30 49.76 C 236.22 52.59 235.11 55.42 234.01 58.25 C 230.77 58.25 227.54 58.25 224.30 58.26 C 229.66 45.11 234.84 31.88 240.18 18.73 M 239.01 43.00 C 242.97 43.01 246.94 43.01 250.90 42.97 C 248.95 37.81 246.98 32.67 245.01 27.52 C 243.00 32.67 241.02 37.84 239.01 43.00 Z" />
<path fill="#ffffff" opacity="1.00" d=" M 270.74 19.45 C 277.98 19.51 285.23 19.29 292.47 19.54 C 298.83 19.76 305.35 24.33 306.03 30.97 C 306.30 36.33 306.41 41.73 305.92 47.08 C 304.69 53.89 297.55 57.79 291.09 58.00 C 284.31 58.16 277.52 58.01 270.74 58.06 C 270.73 45.19 270.73 32.32 270.74 19.45 M 279.00 26.26 C 278.99 34.50 279.00 42.75 279.00 50.99 C 283.28 50.84 287.64 51.45 291.85 50.54 C 295.59 49.58 297.90 45.79 297.73 42.04 C 297.67 37.23 298.84 30.96 294.20 27.80 C 289.58 25.27 284.03 26.56 279.00 26.26 Z" />
</g>
<g id="#ef4732ff">
<path fill="#ef4732" opacity="1.00" d=" M 33.31 78.14 C 40.83 75.35 49.72 76.01 56.59 80.26 C 55.59 82.29 54.58 84.32 53.57 86.35 C 47.91 83.94 40.39 81.98 35.06 86.08 C 31.65 88.68 32.84 93.38 32.59 97.07 C 32.72 100.58 31.97 105.27 35.57 107.36 C 41.13 110.40 47.96 108.78 53.45 106.40 C 54.39 108.56 55.32 110.73 56.25 112.90 C 50.47 116.36 43.42 116.70 36.90 115.84 C 31.09 115.12 25.24 111.03 24.37 104.93 C 23.75 99.95 23.99 94.89 24.11 89.89 C 24.19 84.44 28.37 79.92 33.31 78.14 Z" />
<path fill="#ef4732" opacity="1.00" d=" M 72.36 77.58 C 77.79 76.10 83.64 76.14 89.02 77.80 C 93.68 79.27 98.08 82.89 98.83 87.95 C 99.44 92.96 99.23 98.04 99.04 103.07 C 98.90 108.39 94.95 113.24 89.88 114.72 C 83.17 116.91 75.62 116.80 69.09 114.05 C 64.70 112.24 61.92 107.65 61.81 102.98 C 61.62 98.33 61.61 93.66 61.81 89.01 C 62.10 83.29 66.95 78.74 72.36 77.58 M 75.28 84.31 C 72.82 85.14 70.40 87.16 70.35 89.95 C 70.17 94.25 70.09 98.59 70.46 102.89 C 70.80 106.14 73.83 108.51 76.95 108.87 C 80.70 109.24 84.89 109.27 88.13 107.04 C 91.25 104.26 90.54 99.73 90.66 95.99 C 90.46 92.75 91.29 88.81 88.71 86.28 C 85.23 82.81 79.67 83.05 75.28 84.31 Z" />
<path fill="#ef4732" opacity="1.00" d=" M 106.75 77.01 C 109.72 77.00 112.69 76.99 115.66 77.00 C 120.77 84.40 125.84 91.83 130.99 99.20 C 136.26 91.83 141.41 84.37 146.65 76.98 C 149.60 76.99 152.54 77.00 155.49 77.01 C 155.50 89.92 155.51 102.84 155.49 115.75 C 152.58 115.76 149.67 115.76 146.76 115.75 C 146.73 106.71 146.75 97.68 146.75 88.65 C 142.40 95.13 137.95 101.53 133.58 107.99 C 131.85 107.99 130.12 107.99 128.39 107.99 C 124.04 101.44 119.60 94.95 115.25 88.41 C 115.25 97.52 115.27 106.64 115.24 115.75 C 112.41 115.76 109.59 115.76 106.76 115.75 C 106.73 102.83 106.75 89.92 106.75 77.01 Z" />
<path fill="#ef4732" opacity="1.00" d=" M 163.75 77.01 C 166.69 76.99 169.64 76.99 172.58 77.02 C 177.70 84.41 182.74 91.85 187.92 99.20 C 193.13 91.83 198.32 84.45 203.47 77.04 C 206.48 76.99 209.49 76.99 212.50 77.00 C 212.50 89.92 212.52 102.84 212.48 115.75 C 209.57 115.76 206.67 115.76 203.76 115.75 C 203.73 106.69 203.75 97.63 203.75 88.57 C 199.34 95.03 194.90 101.48 190.53 107.97 C 188.80 107.98 187.06 107.99 185.33 108.01 C 180.99 101.52 176.59 95.06 172.26 88.56 C 172.24 97.62 172.27 106.69 172.24 115.75 C 169.41 115.76 166.58 115.76 163.76 115.75 C 163.73 102.83 163.75 89.92 163.75 77.01 Z" />
<path fill="#ef4732" opacity="1.00" d=" M 220.59 77.01 C 223.44 77.00 226.28 77.00 229.13 77.01 C 229.25 85.29 228.94 93.59 229.26 101.87 C 230.32 112.16 249.21 111.44 249.37 101.01 C 249.56 93.01 249.38 85.01 249.44 77.02 C 252.30 77.00 255.17 76.99 258.05 77.01 C 258.03 85.03 258.10 93.05 258.03 101.07 C 258.10 105.24 256.59 109.63 253.13 112.17 C 247.41 116.54 239.72 116.77 232.90 115.63 C 228.52 114.63 224.06 112.22 222.01 108.04 C 220.60 105.25 220.60 102.05 220.57 99.00 C 220.60 91.67 220.58 84.34 220.59 77.01 Z" />
<path fill="#ef4732" opacity="1.00" d=" M 266.24 77.01 C 269.02 76.97 271.80 76.99 274.58 77.12 C 281.48 86.27 288.71 95.17 295.75 104.21 C 295.75 95.14 295.74 86.07 295.75 77.01 C 298.33 77.00 300.91 77.00 303.50 77.00 C 303.51 89.91 303.49 102.83 303.51 115.74 C 300.85 115.76 298.19 115.76 295.54 115.71 C 288.53 106.53 281.31 97.51 274.26 88.37 C 274.24 97.49 274.27 106.62 274.24 115.75 C 271.58 115.75 268.91 115.75 266.25 115.75 C 266.24 102.83 266.25 89.92 266.24 77.01 Z" />
<path fill="#ef4732" opacity="1.00" d=" M 312.60 77.08 C 315.43 77.07 318.25 77.07 321.08 77.08 C 321.10 89.93 321.11 102.79 321.08 115.64 C 318.25 115.64 315.43 115.64 312.60 115.62 C 312.60 102.78 312.59 89.93 312.60 77.08 Z" />
<path fill="#ef4732" opacity="1.00" d=" M 326.88 77.01 C 339.35 76.99 351.82 76.99 364.29 77.01 C 364.29 79.42 364.29 81.83 364.29 84.24 C 359.43 84.26 354.58 84.25 349.73 84.26 C 349.71 94.75 349.74 105.25 349.72 115.75 C 346.87 115.76 344.02 115.76 341.18 115.75 C 341.15 105.25 341.19 94.76 341.16 84.26 C 336.40 84.25 331.65 84.26 326.90 84.24 C 326.88 81.83 326.88 79.42 326.88 77.01 Z" />
<path fill="#ef4732" opacity="1.00" d=" M 367.16 77.01 C 370.64 76.99 374.11 76.99 377.59 77.03 C 380.79 82.43 383.99 87.85 387.24 93.23 C 390.56 87.84 393.77 82.38 397.12 77.00 C 400.58 76.99 404.05 77.00 407.52 77.01 C 402.96 83.99 398.45 91.00 393.84 97.93 C 389.70 102.94 392.26 109.84 391.56 115.74 C 388.68 115.76 385.79 115.76 382.92 115.75 C 382.75 110.93 383.18 106.09 382.73 101.29 C 377.85 93.02 372.28 85.14 367.16 77.01 Z" />
</g>
</svg>
