<?xml version="1.0" encoding="UTF-8" ?>
<!DOCTYPE svg PUBLIC "-//W3C//DTD SVG 1.1//EN" "http://www.w3.org/Graphics/SVG/1.1/DTD/svg11.dtd">
<svg width="512pt" height="250pt" viewBox="0 0 512 250" version="1.1" xmlns="http://www.w3.org/2000/svg">
<g id="#000000ff">
</g>
<g id="#fffefeff">
<path fill="#fffefe" opacity="1.00" d=" M 275.58 87.89 C 285.71 87.46 296.68 88.56 305.00 94.91 C 313.40 100.69 317.71 110.98 317.73 120.98 C 318.18 130.92 315.56 141.28 309.01 148.95 C 301.69 157.61 290.17 161.62 279.06 161.68 C 267.94 162.03 255.86 159.42 247.95 151.05 C 241.20 144.20 238.97 134.30 238.70 124.98 C 239.09 116.65 240.85 107.94 246.27 101.33 C 253.03 92.23 264.57 88.20 275.58 87.89 M 272.16 94.12 C 265.06 95.54 259.11 101.02 257.02 107.94 C 254.06 117.12 254.34 127.12 256.30 136.50 C 258.50 143.88 262.54 151.99 270.47 154.41 C 278.35 157.37 288.10 156.27 294.14 150.08 C 299.28 145.16 300.86 137.88 301.55 131.07 C 302.60 125.06 301.55 118.98 300.51 113.06 C 299.18 106.93 296.34 100.66 290.97 97.07 C 285.45 93.49 278.50 93.13 272.16 94.12 Z" />
<path fill="#fffefe" opacity="1.00" d=" M 347.18 92.06 C 358.60 87.17 371.44 87.14 383.57 88.74 C 388.72 89.59 393.86 90.78 398.65 92.89 C 397.60 98.44 396.70 104.05 396.48 109.71 C 394.86 109.69 393.25 109.67 391.65 109.64 C 391.59 106.80 391.43 103.95 391.26 101.11 C 385.90 95.31 377.64 93.30 369.99 93.69 C 360.39 93.48 350.65 98.56 346.13 107.18 C 342.27 114.14 342.20 122.32 342.94 130.04 C 343.98 137.08 347.30 143.65 352.27 148.74 C 357.70 153.50 364.89 156.31 372.14 155.98 C 376.18 155.36 380.18 154.38 384.02 152.98 C 384.45 147.63 384.42 142.26 383.97 136.91 C 380.15 136.38 376.32 135.85 372.46 135.69 C 372.46 134.23 372.46 132.77 372.46 131.32 C 382.92 131.71 393.40 131.84 403.86 131.31 C 403.85 132.13 403.82 133.78 403.81 134.61 C 402.51 135.32 401.09 135.77 399.72 136.28 C 399.42 139.18 399.24 142.09 398.98 145.00 C 399.33 148.46 399.47 151.94 399.70 155.41 C 385.45 160.88 369.66 163.75 354.59 160.12 C 343.85 157.68 334.09 150.38 329.62 140.18 C 326.29 132.91 326.25 124.61 327.30 116.82 C 329.14 105.86 337.01 96.40 347.18 92.06 Z" />
<path fill="#fffefe" opacity="1.00" d=" M 448.64 87.92 C 458.35 87.43 468.75 88.37 477.06 93.86 C 484.39 98.44 489.31 106.39 490.64 114.87 C 491.56 123.73 491.44 133.08 487.45 141.24 C 482.91 151.08 473.40 158.23 462.87 160.47 C 453.34 162.47 443.23 162.13 433.97 159.07 C 424.60 155.86 417.01 147.98 414.21 138.48 C 411.43 129.21 411.65 119.00 414.92 109.89 C 418.52 100.27 426.85 92.64 436.72 89.86 C 440.58 88.63 444.63 88.27 448.64 87.92 M 445.42 94.14 C 441.80 95.21 438.18 96.76 435.54 99.55 C 431.21 103.92 429.42 110.10 428.72 116.06 C 427.85 126.21 428.36 137.04 433.79 145.96 C 440.74 158.09 460.31 159.52 469.01 148.62 C 474.71 141.48 475.44 131.82 475.27 123.03 C 474.93 114.51 473.13 105.29 466.91 99.01 C 461.23 93.66 452.80 92.91 445.42 94.14 Z" />
<path fill="#fffefe" opacity="1.00" d=" M 30.10 88.67 C 40.94 89.57 51.93 89.62 62.77 88.67 C 62.79 90.22 62.79 91.76 62.78 93.31 C 60.17 93.48 57.57 93.72 54.98 94.03 C 53.47 103.80 54.57 113.77 53.87 123.61 C 64.84 114.32 74.75 103.81 84.12 92.93 C 84.17 91.53 84.21 90.13 84.26 88.72 C 90.67 89.46 97.20 89.60 103.60 88.70 C 103.59 90.23 103.58 91.77 103.57 93.30 C 100.28 93.71 96.55 93.24 93.87 95.57 C 84.89 102.43 77.07 110.67 68.76 118.31 C 77.09 128.29 85.35 138.34 94.06 148.01 C 96.45 150.60 98.47 153.59 101.36 155.67 C 102.94 156.17 104.62 156.24 106.26 156.46 C 106.26 157.52 106.27 159.64 106.27 160.70 C 99.07 160.58 91.86 159.66 84.70 160.84 C 77.19 151.17 69.22 141.88 61.19 132.64 C 59.12 130.40 57.23 127.92 54.64 126.24 C 53.34 128.97 54.00 132.03 54.09 134.93 C 54.32 141.47 54.12 148.02 54.66 154.55 C 55.01 154.90 55.71 155.61 56.05 155.96 C 58.32 156.06 60.58 156.20 62.84 156.33 C 62.83 157.81 62.82 159.30 62.81 160.79 C 51.90 159.86 40.97 160.19 30.05 160.76 C 30.05 159.28 30.05 157.81 30.05 156.33 C 32.49 156.03 35.14 156.44 37.41 155.34 C 39.34 151.54 38.97 147.12 39.13 142.99 C 39.23 129.32 39.34 115.64 39.03 101.98 C 39.06 99.28 38.50 96.63 38.03 93.99 C 35.41 93.58 32.76 93.39 30.11 93.31 C 30.10 91.76 30.09 90.22 30.10 88.67 Z" />
<path fill="#fffefe" opacity="1.00" d=" M 110.81 88.75 C 122.06 89.40 133.40 89.69 144.64 88.69 C 144.63 90.23 144.62 91.76 144.60 93.30 C 142.05 93.50 139.47 93.49 136.96 94.01 C 135.88 94.99 135.75 96.57 135.64 97.94 C 135.26 103.29 134.88 108.64 135.00 114.00 C 135.11 127.17 134.59 140.38 135.89 153.50 C 137.02 157.23 141.75 155.80 144.66 156.33 C 144.66 157.80 144.65 159.29 144.66 160.77 C 139.43 160.71 134.22 160.25 129.00 160.16 C 122.93 160.30 116.87 160.81 110.80 160.66 C 110.80 159.25 110.80 157.84 110.80 156.43 C 113.57 155.87 116.96 156.84 119.21 154.83 C 120.48 150.66 120.20 146.26 120.27 141.96 C 120.38 128.65 120.27 115.35 120.21 102.04 C 120.24 99.32 119.84 96.62 119.24 93.98 C 116.70 93.67 114.14 93.59 111.60 93.31 C 110.27 92.15 110.96 90.27 110.81 88.75 Z" />
<path fill="#fffefe" opacity="1.00" d=" M 151.30 88.68 C 158.52 89.54 165.82 89.40 173.05 88.90 C 187.07 106.43 201.20 123.91 216.19 140.64 C 216.07 125.08 216.78 109.45 215.05 93.97 C 212.26 93.66 209.47 93.47 206.68 93.26 C 206.67 91.75 206.66 90.25 206.66 88.75 C 214.99 89.54 223.43 89.55 231.75 88.71 C 231.74 90.23 231.74 91.76 231.72 93.29 C 229.12 93.46 226.52 93.66 223.94 94.00 C 223.36 96.25 222.87 98.54 222.84 100.87 C 222.62 121.43 222.73 141.99 222.64 162.54 C 219.71 161.95 216.77 161.41 213.80 161.05 C 197.67 143.06 181.88 124.73 166.95 105.73 C 167.21 121.96 166.23 138.27 167.89 154.44 C 169.76 156.86 173.35 155.85 176.00 156.32 C 175.99 157.81 175.99 159.29 175.99 160.78 C 167.77 159.99 159.53 160.18 151.30 160.78 C 151.30 159.67 151.28 157.45 151.27 156.33 C 154.21 155.90 159.59 157.24 160.01 152.93 C 160.73 136.61 160.45 120.26 160.42 103.94 C 160.34 100.99 160.55 98.01 159.97 95.11 C 157.87 92.83 154.14 93.91 151.33 93.32 C 151.31 91.77 151.30 90.23 151.30 88.68 Z" />
</g>
</svg>
