<?xml version="1.0" encoding="UTF-8" ?>
<!DOCTYPE svg PUBLIC "-//W3C//DTD SVG 1.1//EN" "http://www.w3.org/Graphics/SVG/1.1/DTD/svg11.dtd">
<svg width="181pt" height="58pt" viewBox="0 0 181 58" version="1.1" xmlns="http://www.w3.org/2000/svg">
<g id="#fe5617fe">
<path fill="#fe5617" opacity="1.00" d=" M 14.64 0.00 L 51.84 0.00 C 58.23 0.72 64.71 4.90 66.31 11.41 C 67.14 15.60 66.77 19.90 66.81 24.13 C 65.74 24.13 64.67 24.13 63.60 24.13 C 63.23 18.95 64.90 13.00 61.47 8.54 C 59.17 5.19 55.01 3.67 51.06 3.71 C 39.35 3.70 27.63 3.68 15.92 3.72 C 10.02 3.49 4.34 8.09 3.78 14.06 C 3.58 23.75 3.70 33.45 3.72 43.14 C 3.85 49.46 9.78 54.58 16.00 54.28 C 28.02 54.30 40.04 54.36 52.06 54.25 C 56.11 54.22 59.70 51.96 62.13 48.82 C 62.94 49.02 64.58 49.43 65.40 49.63 C 62.45 54.05 57.75 57.08 52.51 58.00 L 15.49 58.00 C 7.83 57.30 1.47 51.28 0.00 43.79 L 0.00 14.76 C 1.01 7.21 7.24 1.31 14.64 0.00 Z" />
<path fill="#fe5617" opacity="1.00" d=" M 11.88 12.62 C 13.80 10.81 17.14 12.31 19.58 11.79 C 19.82 20.46 19.71 29.14 19.63 37.82 C 23.27 38.66 27.07 37.66 30.68 38.23 C 33.26 40.66 35.44 43.50 37.80 46.14 C 29.41 46.15 21.01 46.23 12.62 46.11 C 12.43 45.92 12.05 45.53 11.86 45.33 C 11.81 34.43 11.77 23.52 11.88 12.62 Z" />
</g>
<g id="#ffffffff">
<path fill="#ffffff" opacity="1.00" d=" M 23.17 12.16 C 31.61 12.37 40.11 11.73 48.50 12.49 C 57.26 15.43 57.79 29.70 49.78 33.87 C 47.66 34.99 45.13 34.44 42.84 34.73 C 45.88 38.63 49.27 42.23 52.64 45.84 C 49.08 45.83 45.51 45.86 41.95 45.81 C 36.39 39.58 31.14 33.05 25.17 27.21 C 32.60 26.58 40.29 28.14 47.54 26.31 C 47.62 24.50 47.81 22.68 47.49 20.89 C 46.35 19.49 44.55 19.80 42.96 19.77 C 36.36 19.80 29.77 19.80 23.17 19.78 C 23.19 17.24 23.20 14.70 23.17 12.16 Z" />
<path fill="#ffffff" opacity="1.00" d=" M 144.06 20.50 C 145.81 20.44 147.56 20.42 149.32 20.40 C 149.28 25.15 149.33 29.91 149.27 34.67 C 150.30 34.67 151.33 34.68 152.36 34.68 C 153.98 32.27 155.68 29.90 157.32 27.50 C 159.15 27.50 160.98 27.49 162.82 27.49 C 160.64 30.35 158.59 33.31 156.32 36.10 C 158.41 39.49 160.83 42.65 163.21 45.84 C 161.15 45.84 159.10 45.84 157.04 45.83 C 155.43 43.46 153.79 41.11 152.09 38.80 C 151.15 38.81 150.22 38.83 149.28 38.85 C 149.30 41.18 149.31 43.51 149.32 45.85 C 147.58 45.84 145.83 45.84 144.09 45.82 C 144.12 37.38 144.17 28.94 144.06 20.50 Z" />
<path fill="#ffffff" opacity="1.00" d=" M 55.94 34.17 C 57.52 27.54 66.56 25.08 71.63 29.32 C 74.46 31.32 75.04 34.96 74.99 38.19 C 70.18 38.19 65.37 38.08 60.56 38.27 C 62.12 42.56 67.81 42.96 71.06 40.41 C 71.96 41.38 72.87 42.34 73.78 43.31 C 72.12 44.68 70.19 45.64 68.12 46.21 C 66.73 46.20 65.35 46.18 63.97 46.18 C 58.54 45.27 54.15 39.69 55.94 34.17 M 63.34 31.31 C 62.20 32.43 61.23 33.69 60.57 35.15 C 63.78 35.25 67.00 35.24 70.22 35.16 C 69.57 31.89 66.31 30.76 63.34 31.31 Z" />
<path fill="#ffffff" opacity="1.00" d=" M 101.58 28.99 C 106.49 27.30 113.21 25.62 117.04 30.22 C 119.72 34.95 117.97 40.70 118.49 45.87 C 116.63 45.54 113.52 46.89 113.24 44.18 C 109.27 48.44 99.53 45.81 101.27 39.14 C 103.10 34.11 109.34 35.41 113.52 35.18 C 113.06 29.95 106.75 30.86 103.52 32.84 C 102.89 31.55 102.26 30.26 101.58 28.99 M 106.39 41.68 C 108.96 44.36 114.04 42.06 113.59 38.24 C 110.91 38.15 104.79 37.12 106.39 41.68 Z" />
<path fill="#ffffff" opacity="1.00" d=" M 126.19 29.14 C 130.71 26.01 138.24 26.55 140.86 31.90 C 139.54 32.52 138.25 33.19 136.94 33.83 C 135.35 31.83 132.52 30.48 130.13 32.01 C 126.30 33.91 126.76 40.68 131.02 41.72 C 133.33 42.50 135.62 41.32 137.02 39.51 C 138.34 40.29 139.65 41.07 140.97 41.85 C 137.77 46.74 130.52 47.57 125.99 44.09 C 121.13 40.69 121.22 32.41 126.19 29.14 Z" />
<path fill="#ffffff" opacity="1.00" d=" M 167.57 28.45 C 171.45 26.48 176.18 27.12 180.09 28.72 C 179.49 29.98 178.90 31.24 178.30 32.50 C 175.55 30.94 171.02 30.05 169.01 33.16 C 171.89 35.62 176.19 34.50 179.16 36.78 C 181.51 38.78 181.07 42.88 178.52 44.51 C 174.17 47.29 168.57 46.35 164.12 44.29 C 164.71 43.06 165.31 41.82 165.90 40.58 C 168.90 42.16 172.56 43.10 175.76 41.50 C 175.77 41.02 175.79 40.07 175.80 39.60 C 172.47 38.33 168.33 38.85 165.61 36.28 C 163.39 33.77 164.75 29.84 167.57 28.45 Z" />
<path fill="#ffffff" opacity="1.00" d=" M 78.83 27.47 C 80.62 27.84 83.76 26.38 83.99 29.11 C 87.38 26.67 92.33 26.54 95.56 29.34 C 100.69 33.57 99.56 43.45 92.96 45.58 C 89.90 47.05 86.59 45.83 83.83 44.33 C 84.08 46.21 84.17 48.11 83.92 50.00 C 83.99 50.62 84.14 51.85 84.22 52.47 C 82.42 52.50 80.63 52.52 78.84 52.52 C 78.82 44.17 78.84 35.82 78.83 27.47 M 86.18 32.10 C 83.06 33.91 82.97 39.08 85.93 41.11 C 88.63 43.03 93.04 41.53 93.46 38.05 C 94.86 33.95 89.95 29.48 86.18 32.10 Z" />
</g>
</svg>
