<?xml version="1.0" encoding="utf-8"?>
<!-- Generator: Adobe Illustrator 26.0.1, SVG Export Plug-In . SVG Version: 6.00 Build 0)  -->
<svg version="1.1" id="Слой_1" xmlns="http://www.w3.org/2000/svg" xmlns:xlink="http://www.w3.org/1999/xlink" x="0px" y="0px"
	 viewBox="0 0 5120 1440" style="enable-background:new 0 0 5120 1440;" xml:space="preserve">
<style type="text/css">
	.st0{fill:#404040;}
	.st1{fill:#515151;}
	.st2{fill:#8C8C8C;}
	.st3{fill:#666666;}
	.st4{fill:#929292;}
	.st5{fill:#EFEFEF;}
	.st6{fill:#7D7D7D;}
	.st7{fill:#696969;}
	.st8{fill:#757575;}
	.st9{fill:#919191;}
	.st10{fill:#828282;}
	.st11{fill:#5C5C5C;}
	.st12{fill:#7A7A7A;}
	.st13{fill:#717171;}
	.st14{fill:#747474;}
	.st15{fill:#7C7C7C;}
	.st16{fill:#989898;}
	.st17{fill:#7E7E7E;}
	.st18{fill:#7F7F7F;}
	.st19{fill:#4B4B4B;}
	.st20{fill:#6F6F6F;}
	.st21{fill:#A9A9A9;}
	.st22{fill:#767676;}
	.st23{fill:#BDBDBD;}
	.st24{fill:#8D8D8D;}
	.st25{fill:#353535;}
	.st26{fill:#CDCDCD;}
	.st27{fill:#545454;}
	.st28{fill:#898989;}
	.st29{fill:#DCDCDC;}
	.st30{fill:#787878;}
	.st31{fill:#737373;}
	.st32{fill:#797979;}
	.st33{fill:#656565;}
	.st34{fill:#9B9B9B;}
	.st35{fill:#676767;}
	.st36{fill:#3F3F3F;}
	.st37{fill:#5D5D5D;}
	.st38{fill:#AAAAAA;}
	.st39{fill:#9A9A9A;}
	.st40{fill:#A2A2A2;}
	.st41{fill:#424242;}
	.st42{fill:#525252;}
	.st43{fill:#555555;}
	.st44{fill:#3C3C3C;}
	.st45{fill:#939393;}
	.st46{fill:#707070;}
	.st47{fill:#969696;}
	.st48{fill:#E2E2E2;}
	.st49{fill:#959595;}
	.st50{fill:#999999;}
	.st51{fill:#878787;}
</style>
<g>
	<g id="_x23_000000ff">
		<path d="M4801.76,441.83c0.65-0.97,1.83-3.02,2.48-3.99C4803.59,438.81,4802.41,440.86,4801.76,441.83z"/>
	</g>
	<g id="_x23_404040ff">
		<path class="st0" d="M3600.12,281.41c53.33,1.08,118.18-24.67,162.67,14.22c-10.34,6.57-20.47,13.47-30.38,20.47
			c-34.47,2.05-68.84,3.56-102.99,7c-5.71-10.23-11.42-20.47-17.34-30.6c-7.11,13.04-14.22,26.07-21.55,39l-6.03,8.62
			C3585.79,319.66,3592.69,300.27,3600.12,281.41z"/>
		<path class="st0" d="M4695.43,299.62c40.29-40.72,111.83-28.23,157.4-1.83l-5.82,4.52c-8.19,6.14-16.38,12.39-24.46,18.64
			c-21.55-0.54-42.88-1.08-64.21-1.62c-9.8-8.08-19.18-16.05-28.66-24.02c-13.04,51.82-25.75,104.18-25.32,157.93
			c-6.79-3.45-20.58-10.34-27.36-13.79l-0.97-7.54c-1.29-6.46-2.48-12.93-3.56-19.28C4703.62,382.57,4696.83,338.62,4695.43,299.62z
			"/>
		<path class="st0" d="M67.82,299.19c62.7-20.9,129.49-9.05,194.13-13.36c33.29-2.59,67.33,0.65,96.74,17.78
			c-8.94-0.97-26.93-3.02-35.87-3.99c7,12.6,14.33,25.32,21.55,37.92c-9.91,4.63-19.93,9.37-29.73,14.01
			c-70.78-40.4-157.29-17.99-235.07-23.05c-2.59-6.57-7.86-19.71-10.56-26.29L67.82,299.19z"/>
		<path class="st0" d="M3055.86,311.04c44.06-27.26,99.22-32.21,148.13-15.94l-1.19,3.56c-4.63,13.36-9.05,26.83-13.14,40.29
			c-26.07-10.67-54.62-10.34-81.88-6.89c-6.36-7.33-12.5-14.54-18.64-21.76c-2.15,3.77-6.46,11.31-8.62,15.08
			C3074.39,321.81,3062,314.59,3055.86,311.04z"/>
		<path class="st0" d="M175.12,358.01c26.72-0.43,66.04-5.71,79.51,24.46c11.74,43.52-20.15,93.51-67.98,89.52
			c-6.68-0.97-20.04-3.12-26.72-4.2c28.33-20.68,60.11-38.46,79.83-68.52C217.13,387.1,195.37,373.52,175.12,358.01z"/>
		<path class="st0" d="M403.62,425.02c63.35-73.37,171.29-48.05,256.94-51.28l-3.34,3.02c-14.54,13.25-28.76,26.93-44.82,38.14
			c-16.38,4.09-32.64,8.3-48.8,12.93c-54.94-20.58-121.31-14.65-161.27,32c-5.49-2.26-16.48-6.57-21.98-8.73
			C388.32,442.58,396.08,433.85,403.62,425.02z"/>
		<path class="st0" d="M669.93,384.62c81.12-19.39,163.97-4.96,245.95-12.07c-10.88,12.82-12.71,29.73-15.84,45.68
			c-25.96-1.62-52.36-4.74-77.67,2.59c-5.49,3.45-16.59,10.34-22.08,13.79l-10.56,4.96c9.48-21.22,19.5-42.12,28.76-63.35
			c-11.64,11.42-22.73,23.27-33.5,35.44c-34.9,3.45-69.92,5.28-104.93,6.46c-2.26-7.22-6.68-21.76-8.83-28.98L669.93,384.62z"/>
		<path class="st0" d="M979.44,453.78c48.37-67.76,141.34-92.43,220.53-77.24c-6.46,2.05-19.39,6.03-25.86,7.97
			c-0.75,8.83-1.4,17.78-2.05,26.61c-31.13,2.37-62.27,4.09-92.97,8.94c-84.57,21.65-129.17,128.09-94.91,205.77
			c24.13,39.32,76.38,39.11,116.35,30.06c12.07,6.89,24.02,13.79,36.2,20.68c-42.66,19.28-93.51,20.58-135.96,0.32
			c-28.12-14.87-41.69-45.03-56.88-71.1c2.8-15.94,4.31-32.1,6.25-48.16c1.51-14.54,3.23-29.09,5.17-43.63
			C962.64,493.64,971.15,473.82,979.44,453.78z"/>
		<path class="st0" d="M1252.11,420.71c55.16-40.18,129.17-59.68,196.18-42.02c-7.76,0.65-23.27,1.72-31.13,2.37
			c5.49,7.54,11.1,15.19,16.7,22.95c-2.05,5.49-6.25,16.7-8.3,22.3c-60.01-20.15-127.02-5.93-175.28,34.47
			c24.89,29.63,52.03-3.23,79.29-10.99c19.28-6.68,38.35,3.99,56.88,8.19c-6.25,3.56-18.85,10.88-25.21,14.44
			c7.22-0.22,21.65-0.54,28.87-0.75c-6.25,45.79-54.51,44.28-88.99,52.79c-3.45,5.6-10.34,16.81-13.79,22.41
			c22.73,3.88,46.22,5.39,67.98,14.22c10.77,25.86,6.36,64.32-24.89,72.93c-18.53,9.26-36.2-3.88-52.68-10.99
			c15.73-11.85,30.7-24.67,43.85-39.32c-30.06,6.14-60.01,12.39-90.39,16.27c-3.56-6.46-10.67-19.39-14.22-25.86l2.05-7.43
			c24.45-9.7,50.1-21.87,54.4-50.85c-7.22-5.93-14.44-11.74-21.55-17.67c-5.28-4.42-15.94-13.36-21.22-17.78
			c-0.65-13.47-1.08-27.04-1.51-40.4C1234.98,435.15,1246.4,425.45,1252.11,420.71z"/>
		<path class="st0" d="M1679.05,420.93c52.36-42.45,126.15-61.19,191.12-38.78l1.08,4.31c3.45,13.79,7.86,27.26,12.6,40.72
			c-8.73,3.99-17.45,7.86-26.07,11.85c-39.21-27.69-92.86-26.61-134.99-6.79c-62.05,34.04-89.09,117.64-67.87,183.14
			c32.64,66.9,129.06,55.48,178.94,14.97c12.17,4.52,24.45,9.05,36.84,13.68c-48.37,46.65-122.71,61.19-185.41,38.14
			c-42.88-15.08-66.58-62.05-66.25-105.58C1618.18,519.93,1637.79,461,1679.05,420.93z"/>
		<path class="st0" d="M1914.12,429.11c15.3-21.44,29.3-53.76,60.33-52.68c64.32-4.74,128.63,5.71,192.95-2.05
			c-1.72,12.82,9.27,32.21-6.14,39.65c-17.78,1.51-35.44,1.4-52.9,3.23l-7,3.12c-23.81,9.8-42.88,27.26-61.84,44.06
			c2.59-11.31,7.65-34.04,10.13-45.46c-34.37,0.11-68.84,1.19-102.99,4.85c9.37,7.86,18.85,15.62,28.44,23.49
			c-7.65,71.64-28.33,141.02-41.91,211.69c23.05-0.11,46.32-0.22,69.59-0.32l5.71,6.36c4.53,5.6,8.94,11.2,13.47,16.91l6.03,7.97
			c-35.98-0.32-72.83,4.09-108.16-3.66c-33.94-28.66-2.26-72.93-4.42-109.89C1920.59,527.47,1936.32,476.51,1914.12,429.11z"/>
		<path class="st0" d="M2201.12,394.1c33.94-16.7,71.32-23.49,109.02-19.07c-3.99,2.37-11.96,6.89-16.05,9.16
			c5.17,10.13,16.05,20.58,6.9,32.1c-11.96-1.08-35.77-3.23-47.72-4.42c-1.29,2.37-3.99,6.89-5.28,9.26
			c-21.55,4.96-40.18,16.48-58.07,28.76C2193.04,431.16,2197.03,412.63,2201.12,394.1z"/>
		<path class="st0" d="M2509.88,402.18c11.63-8.94,21.11-24.46,37.6-24.46c63.02-7.54,126.58,7.22,189.5-4.96l0.75,3.12
			c3.12,12.93,6.25,25.96,9.59,39c-23.49,2.69-46.86,4.74-70.03,8.83c-21.33,11.96-39.86,28.44-59.14,42.98
			c7.65-12.5,23.05-37.49,30.81-49.88c-18.96,1.83-37.92,3.23-56.77,4.31C2564.18,417.15,2536.92,409.94,2509.88,402.18z"/>
		<path class="st0" d="M2773.93,393.78c13.9-4.74,27.9-9.7,42.23-13.68c26.83-3.45,55.8-1.4,74.01,21.55
			c-5.28,4.31-15.94,12.93-21.22,17.24c-33.4-0.43-69.16,5.28-90.92,33.4C2776.41,432.78,2775.11,413.28,2773.93,393.78z"/>
		<path class="st0" d="M3277.9,381.5c57.64-11.85,115.81,4.74,173.45-4.09c23.05-2.91,45.89,2.69,68.73,5.71l-2.37,9.26
			c-3.66,13.9-7.33,27.69-10.99,41.58c-26.5-24.78-67.12-12.5-92.86,6.57c-0.97-14.97-1.83-30.06-2.59-45.14
			c-8.4,7.54-16.91,14.97-25.1,22.52c-31.03,0.43-61.95,0.86-92.86,1.4c-4.42-10.23-8.62-20.47-12.6-30.7L3277.9,381.5z"/>
		<path class="st0" d="M3692.77,510.88c38.89-32.75,41.15-84.46,55.16-129.6c30.38-0.11,60.87-0.32,91.36,2.15
			c46.76,6.46,92.43-14.65,139.3-6.46c43.31,8.94,87.16-3.88,130.68,4.31c53.76,7.54,112.04-12.6,162.46,12.6
			c-6.46,10.34-12.6,20.79-18.42,31.46c-35.01-0.43-69.92-0.54-104.82-0.65c-9.59-12.39-19.39-24.56-29.09-36.74
			c-1.83,6.68-5.39,19.93-7.22,26.61l-2.37,8.83c-21.98-0.22-44.06-1.4-65.61,2.69c-6.79,1.29-20.36,3.77-27.15,5.06
			c0.86-8.62,2.48-25.96,3.34-34.58c-29.19,18.96-63.78,24.89-97.71,27.26c-5.49,0.32-16.38,1.08-21.76,1.4
			c-4.96-10.23-9.59-20.58-14.11-31.03c-4.31,3.02-13.04,8.94-17.45,11.85c-6.57,6.14-12.93,12.5-19.07,18.85
			c-31.35,0.11-62.59,0-93.83,0.11c5.49,11.31,11.1,22.52,16.7,33.83c-19.93,30.7-49.66,52.36-82.85,66.9L3692.77,510.88z"/>
		<path class="st0" d="M4279.8,389.79c45.79-10.56,101.91-19.93,141.24,12.28c-9.26,7.11-18.53,14.22-27.47,21.44
			c-23.05,1.4-45.89,1.4-68.73,1.4c-11.74-9.16-23.7-18.31-35.34-27.47L4279.8,389.79z"/>
		<path class="st0" d="M4436.98,448.29c-9.27-40.94,38.24-59.14,69.7-67.87c55.16-7.97,114.09-2.26,164.29,23.49
			c-7.43,21.12-26.07,29.63-47.19,24.13c-37.92-7.86-77.03-7.65-114.41,2.69c-8.08-8.62-16.05-17.24-24.02-25.75
			C4468.98,419.09,4452.5,433.21,4436.98,448.29z"/>
		<path class="st0" d="M4885.15,388.28c51.93-18.42,105.9-0.97,159.01-9.16c27.58-0.65,54.3,9.48,75.84,26.61
			c-9.16,4.74-18.1,9.59-27.04,14.44c-16.91,5.06-33.72,9.7-50.42,14.54c-37.81-11.74-78-16.59-116.13-3.45
			c-12.82-13.04-25.42-26.18-37.92-39.43L4885.15,388.28z"/>
		<path class="st0" d="M144.85,501.08c26.07,0.97,59.25-5.93,78,17.78c13.57,31.03,4.42,71.64-21.65,93.62
			c-23.16,19.28-55.37,14.01-83.06,13.68l5.71-3.99c29.84-24.99,80.69-34.47,84.14-80.15C186,529.95,164.78,516.38,144.85,501.08z"
			/>
		<path class="st0" d="M1036.11,553.65c41.58-3.12,84.14-6.79,122.6-24.46c9.91,4.74,19.93,9.37,30.06,14.11
			c-10.99,15.08-21.76,30.27-33.61,44.71c-28.12,23.05-66.9,52.57-104.28,31.46c-7.43-21.76,23.05-23.16,34.04-34.47
			C1068.54,574.66,1052.27,564.1,1036.11,553.65z"/>
		<path class="st0" d="M4583.71,654.06c21.76-10.45,32.43-33.5,45.14-52.57c2.05,8.51,6.03,25.64,8.08,34.26l1.51,6.36
			c-29.63,41.91-81.98,59.47-131.65,56.88c-46.65,0.65-92.54-20.58-138.76-7.43c-50.85,11.31-102.67-8.4-153.09,3.88
			c-21.76,6.14-43.85,0.11-65.18-3.99c8.08-8.08,16.16-16.16,24.46-24.13c46.65,6.89,87.91-18.42,118.18-51.71
			c-3.99,12.07-11.96,36.2-15.94,48.26c36.31,0.65,72.61,0.75,109.02,0.65c0,4.63-0.11,14.01-0.11,18.75
			c1.08-3.12,3.12-9.16,4.2-12.17c12.6-3.99,25.42-7.54,38.46-10.67C4479.43,663.97,4535.34,679.59,4583.71,654.06z"/>
		<path class="st0" d="M771.95,660.31c32.32,0.86,63.56-9.59,89.74-28.33c20.36,1.83,40.62,3.66,60.98,5.71
			c-34.47,35.44-84.46,43.85-129.28,59.36c-3.34,1.29-10.02,3.77-13.36,5.06c-11.85,16.7-24.99,32.86-43.2,42.88
			c-2.91-2.48-8.51-7.54-11.42-10.02l5.82-3.66c13.04-8.51,26.39-16.7,38.03-27.04c-6.25-15.3-15.62-28.98-24.24-42.88
			C751.81,661.17,765.27,660.52,771.95,660.31z"/>
		<path class="st0" d="M2055.9,675.06c8.08-15.3,15.94-30.81,22.84-46.76c-1.94,7.33-5.82,22.08-7.76,29.41
			c22.41,0.86,44.92,1.72,67.33,4.31c13.25,1.51,26.61,3.34,40.08,4.52c10.56-0.54,21.33-1.51,31.89-2.48
			c45.79-5.71,92.43-4.31,137.14,7.65c-9.8,11.74-22.95,20.9-38.89,18.53c-42.88-0.97-87.91,6.57-128.63-10.23
			c-41.05,16.7-86.62,12.07-128.96,4.42L2055.9,675.06z"/>
		<path class="st0" d="M0.06,666.88c8.4-7,16.7-14.11,24.99-21.33l-8.51,10.02c73.58,0.11,148.67,7.54,220.85-10.88
			c12.17,7.86,24.35,15.73,36.63,23.7c-76.92,25.96-158.8,14.54-238.19,14.97C20.52,686.05,9.32,677.65,0.06,666.88z"/>
		<path class="st0" d="M1220.55,650.82c56.45,9.59,116.35,19.61,171.4-2.26c3.77,6.57,11.2,19.71,14.97,26.29
			c-66.15,29.84-144.15,18.64-210.51-5.49l13.14-10.45C1212.25,656.86,1217.85,652.76,1220.55,650.82z"/>
		<path class="st0" d="M378.3,670c40.51-5.28,81.45-3.02,121.95-7c31.35-4.74,63.35-7.97,94.8-1.62
			c3.77,5.39,11.53,15.94,15.3,21.22c-51.39,13.9-104.28-3.23-156.1,5.28C427.86,692.62,397.15,691.98,378.3,670z"/>
		<path class="st0" d="M2653.59,661.49c23.7,0.11,47.4-0.22,71.21,0.65c6.25,3.45,18.53,10.34,24.78,13.79l7.43,8.62
			c-38.46,11.53-78.86,8.19-118.18,5.93C2642.5,683.25,2649.93,668.71,2653.59,661.49z"/>
		<path class="st0" d="M2793.54,661.38c34.69,0.54,69.49-0.54,104.18,2.15c7.54,3.23,22.62,9.8,30.16,13.04
			c-6.25,8.94-14.65,13.79-25.1,14.44c-42.77,3.77-85.75,0.97-128.52-0.65l5.71-8.4C2784.49,675.17,2789.01,668.28,2793.54,661.38z"
			/>
		<path class="st0" d="M3033.78,664.29c23.27-0.54,46.54-1.19,69.92-1.94c13.36,2.8,26.72,5.71,40.18,8.73
			c-39.86,35.66-102.88,27.15-148.89,7.86C3007.71,673.77,3020.63,668.82,3033.78,664.29z"/>
		<path class="st0" d="M3258.29,690.9c5.06-9.91,10.23-19.93,15.51-29.84c23.16,0.54,46.54,0.54,69.81,2.26
			c10.23,4.31,20.47,8.83,30.6,13.57c-30.81,29.63-78.86,10.56-117,14.44L3258.29,690.9z"/>
		<path class="st0" d="M3396.19,690.69c6.25-9.7,12.39-19.39,18.42-29.2c34.58,0.54,69.27,0.54,103.96,0
			c4.63,7.43,9.37,14.87,14.33,22.19l4.96,7.54C3490.67,693.16,3443.37,693.06,3396.19,690.69z"/>
		<path class="st0" d="M3568.45,686.59c5.06-8.73,10.02-17.45,14.87-26.39c23.05,1.19,46.32,1.83,69.49,4.31
			c11.74,1.51,23.49,3.45,35.34,5.39c-4.63,6.79-9.37,13.25-14.33,19.61c-35.98,6.03-72.61,2.15-108.81,2.91L3568.45,686.59z"/>
		<path class="st0" d="M632.87,787.97c2.48-7.54,7.54-22.41,10.02-29.84c36.63,2.48,73.47,3.56,110.32,3.77
			c4.85,6.36,9.7,12.82,14.54,19.39l5.28,7.22C726.27,790.12,679.52,789.91,632.87,787.97z"/>
		<path class="st0" d="M3516.95,892.9c30.7,0,63.45-9.8,92.76,3.99c-26.39,10.99-54.83,14.33-83.06,15.62
			c1.08,3.45,3.34,10.23,4.42,13.68l4.42,16.05c-6.79,51.93-21.65,102.24-31.67,153.63c35.66-1.83,75.84,7.33,107.19-14.33
			c17.78-18.21,28.12-42.12,42.02-63.24c0.54-8.83,1.62-26.39,2.15-35.12c-1.72-9.91-3.77-19.61-6.14-29.3
			c51.06-14.87,104.71-3.99,156.97-8.83c-4.74,7.54-9.16,15.08-13.47,22.84c-8.73,0-26.18,0.22-34.91,0.32
			c6.46,33.07-10.67,61.84-27.36,88.66c5.49-31.46,8.51-63.24,6.79-95.13c-20.9,5.06-42.45,7.11-63.78,7.97l2.8,14.01
			c13.14,43.95-27.47,75.09-45.57,110.64c14.87-0.75,29.95-1.4,45.03-2.15c-2.48-21.76-5.28-44.71,8.08-63.89
			c3.88,24.35,8.08,48.69,12.6,73.04c-7,8.08-13.9,16.16-20.79,24.24c-12.5-2.59-24.89-5.06-37.28-7.65
			c-2.15,8.51-6.46,25.32-8.62,33.83c18.21-3.12,36.74-5.93,54.94-10.13c6.79-1.62,20.36-4.85,27.15-6.36
			c-20.15,35.98-66.36,37.6-100.08,21.76c3.55-19.93,8.19-39.75,14.97-58.82c-40.18,18.1-85.65,17.78-128.42,11.74
			c-2.69-2.8-8.19-8.19-10.88-10.99c3.45-49.99,25.42-96.85,28.33-146.84C3512.75,932.22,3506.07,911.75,3516.95,892.9z"/>
		<path class="st0" d="M4204.17,929.2c14.98,9.48,23.05,26.18,16.81,43.52c-5.06,35.98-14.76,71.32-31.78,103.53
			c-17.99-45.79,1.62-93.4,12.5-138.33L4204.17,929.2z"/>
		<path class="st0" d="M4525,938.04c1.08-0.65,3.23-1.72,4.31-2.37c13.79,4.96,28.01,8.62,42.55,10.99
			c110.96,2.15,223.76-7.22,333.54,8.19c38.57-10.56,78.97-12.39,117.53,0.43c5.39,43.09-12.5,84.03-12.5,127.02
			c-25.21,44.06-82.95,32.21-124.97,30.27l-1.83-4.2c-5.39-12.28-10.77-24.46-16.05-36.63c3.88-18.96,7.86-37.92,12.39-56.67
			c-3.56,11.1,14.87,37.81,22.3,18.21c0.75-14.54-10.77-25.1-17.78-36.41c1.51-7.11,4.42-21.44,5.92-28.55l-11.85,1.51
			c-9.8,0.86-29.41,2.59-39.21,3.34c-11.42,40.51-10.45,94.7-55.27,114.52c6.36-35.44,14-70.67,20.25-106.12
			c4.52-2.91,13.47-8.73,17.99-11.64c-51.28,9.26-109.13-14.87-154.81,16.38c7.54,0.43,22.73,1.19,30.38,1.62l-6.79,17.34
			c11.85,0.22,23.81,0.43,35.87,0.75c0.54-8.62,1.83-25.86,2.37-34.47c7.86,3.12,23.59,9.59,31.46,12.82
			c-5.39,32.1-18.85,64.1-15.73,96.96c10.88,33.4,51.39,15.94,69.7-0.75c1.4,4.42,4.09,13.47,5.49,17.88
			c17.35,4.31,35.01,6.89,53,8.83c-41.58,8.94-85,9.26-127.02,4.42c-39.54-13.25-30.81-58.71-17.67-88.45
			c-15.94-0.43-31.67-0.86-47.4-1.51c-17.78,28.23-8.4,68.19-33.72,91.68c-23.38,0.54-54.51,7.65-69.59-15.62
			c5.39-1.4,15.94-4.42,21.33-5.93c-10.99-2.59-21.87-5.06-32.64-7.65c0.86-24.56-9.37-46.32-22.19-66.47
			c21.01-16.05,42.12-32,63.35-47.83c-21.33,0.97-42.66,1.72-63.88,2.59c5.82,25.1-17.34,36.74-33.4,50.31
			c0-4.31,0.11-12.71,0.21-16.91C4516.92,983.61,4521.77,960.98,4525,938.04 M4619.59,970.03c11.74,43.31-8.62,86.08-16.91,128.09
			c16.27,0.11,32.75,0.11,49.23,0.32c-2.05-29.41,10.99-56.67,10.99-85.86l12.28-2.69c-6.25-7-12.5-13.79-18.75-20.58l20.36-20.25
			C4662.46,969.28,4633.92,969.82,4619.59,970.03 M4918.65,997.29c-12.28,37.81,38.35,43.52,45.14,74.44
			c-10.67,15.08-24.99,18.96-43.09,11.74c3.45-5.6,10.13-16.81,13.57-22.52c-8.51,0.97-25.64,2.8-34.15,3.66
			c-1.08,7.65-3.23,23.05-4.42,30.81c43.52,11.64,104.61,7.11,116.03-46.43c-21.01-11.42-39.75-26.39-58.18-41.37
			c0.43-11.42,2.8-22.84,15.84-26.93c10.45,7.11,18.75,16.38,24.89,27.79c21.33-1.83,27.69-16.7,26.93-36.52
			C4988.57,972.4,4932.87,958.18,4918.65,997.29 M4560.23,1020.24c6.36,18.85,14.44,37.28,25.96,53.65
			c9.48-25.86,14.65-52.9,18.85-80.04C4589.96,1002.57,4575.09,1011.4,4560.23,1020.24z"/>
		<path class="st0" d="M2839,1029.5c12.93-29.73,26.29-59.9,47.29-85l1.72,14.44c35.66-11.42,72.93-19.5,110.64-16.16
			c56.88,3.99,113.76-1.51,170.75,0.22c6.36,5.49,12.82,10.99,19.39,16.59c32.21-8.62,77.24-33.72,104.39-3.23
			c-27.36,3.88-55.05,6.03-81.77,12.93c-25.32,10.02-43.85,32.75-48.8,59.36c-8.83,24.35-1.08,63.13,29.63,66.26
			c28.87,7,55.16-8.19,76.92-25.53c7-2.91,21.12-8.62,28.12-11.53c-34.37-3.02-64.32,17.02-97.5,21.33
			c3.23-5.71,9.7-17.13,12.93-22.84c-1.62-3.23-5.06-9.59-6.68-12.82l2.26-3.77c-0.65-7.22-2.15-14.22-4.63-20.9
			c6.25-14.65,14.33-28.44,26.18-39.43c3.23,1.83,9.91,5.49,13.14,7.33c-1.4,8.94-4.09,26.83-5.49,35.66l-19.5-10.23
			c4.31,4.31,13.04,13.14,17.34,17.56c16.16,0.97,30.49-7.86,44.92-14.01c5.06-2.59,15.08-7.76,20.15-10.23
			c1.29-16.81,2.15-33.61,2.91-50.31c40.61-15.41,84.68-6.68,127.02-10.56c-1.08,6.57-3.23,19.61-4.2,26.07
			c-36.84-1.62-73.69-1.83-110.42-1.83c-1.94,13.79-3.88,27.47-5.82,41.26c19.28-14.11,39.75-26.93,63.67-31.78
			c-27.36,40.29-60.01,76.49-88.23,116.13c39.32,0.97,78.75,0.11,118.18,2.15c4.63,1.72,14,5.17,18.75,6.79
			c-35.55,14.33-74.98,9.16-112.26,8.73c-15.08,1.4-28.12-4.42-35.87-17.45c-30.6,13.14-65.18,25.53-98.14,13.36
			c-31.03-17.45-32.86-56.56-31.46-88.02c-6.14-0.22-18.31-0.43-24.45-0.65c-10.88,27.26-10.23,59.14-26.61,83.82
			c-29.73,14-64.32,3.23-96.1,5.93c-44.6-2.91-92.97,13.04-134.13-9.91C2857.42,1075.4,2854.73,1049.43,2839,1029.5 M2971.08,971.97
			c-7.76,2.69-14.76,6.57-21.01,11.74c10.99,27.9-2.26,55.81-13.14,81.01l0.54,3.66c1.19,6.79,3.34,20.25,4.42,27.04
			c25.53-1.72,53.11,5.82,77.24-5.6c-8.83-1.19-26.72-3.56-35.55-4.74l-1.83-10.13l17.34,2.15c22.41-30.16,14.87-73.15,37.92-103.85
			c2.8,14.97,5.39,30.16,7.76,45.36c-6.89,25.96-13.57,51.93-19.07,78.21c18.31-2.15,36.74-4.85,55.16-7.97
			c-0.75-23.92-5.71-49.56,6.03-71.75l-0.65-9.8c9.37-4.42,18.85-8.73,28.33-13.14l5.28,10.88c6.46-0.54,19.28-1.62,25.64-2.15
			c-0.22-5.28-0.75-15.84-0.97-21.12c12.17-2.59,23.81-6.79,35.01-12.39c-21.44-1.29-42.88-3.12-64.1-0.11
			c-3.45-2.69-10.23-7.97-13.68-10.67c-21.44,3.45-42.98,6.36-64.32,9.48c-3.99-4.63-11.85-13.79-15.84-18.42
			C3005.01,957.86,2987.99,964.97,2971.08,971.97 M2872.18,1079.06c11.63,29.09,60.65,19.07,65.29-10.67l-30.16,14.11
			c21.87-27.26,3.66-61.84,13.03-92.65l8.62,3.77c3.12-7.54,9.27-22.73,12.39-30.27C2885.32,966.16,2855.16,1030.79,2872.18,1079.06
			z"/>
		<path class="st0" d="M4268.27,946.55c43.63,0.97,87.16-2.37,130.79-0.54c18.42,3.88,27.58,21.98,37.17,36.31
			c-28.33-10.13-57.96-17.02-86.29-3.02c-15.08-9.59-33.18-10.23-50.2-12.39c1.94,34.04-1.4,68.09-10.56,100.94
			c-3.88,7.43-11.64,22.3-15.51,29.73c21.12,4.31,42.23,8.51,63.67,11.96c-25.64,2.69-51.39,3.02-76.92,0.11
			c5.6-36.41,14.54-72.5,13.57-109.56c0.43-8.73,0.65-17.45,0.86-26.18c-0.32-2.26-1.18-6.68-1.51-8.83
			C4272.04,960.45,4269.57,951.18,4268.27,946.55z"/>
	</g>
	<g id="_x23_515151ff">
		<path class="st1" d="M3590.53,331.51c7.33-12.93,14.44-25.96,21.55-39c5.93,10.13,11.64,20.36,17.34,30.6l-1.72,9.91
			c6.68,3.77,20.15,11.1,26.83,14.76c-21.01,104.72-43.52,209.32-71.21,312.42c-4.85,8.94-9.8,17.67-14.87,26.39
			c-5.49-4.74-16.48-14.33-22.09-19.18c0.54-15.73-2.05-30.92-7.76-45.57l13.79-0.86c17.35-45.79,22.3-95.02,34.8-142.1
			C3596.46,430.19,3623.61,376.86,3590.53,331.51z"/>
		<path class="st1" d="M4729.69,295.31c9.48,7.97,18.85,15.94,28.66,24.02c-6.03,38.89-11.53,77.89-16.27,117
			c17.24,5.39,34.47,10.77,51.93,16.27l-5.6,6.36c-21.33,25.96-57.53,7.33-84.35,3.12l0.32-8.83
			C4703.94,399.49,4716.65,347.13,4729.69,295.31z"/>
		<path class="st1" d="M69,302.21c2.69,6.57,7.97,19.71,10.56,26.29c6.36,11.1,13.47,21.76,20.58,32.53
			c-5.93,62.05-23.05,122.17-34.58,183.25c-7.54,35.77-10.99,75.74-40.51,101.27c-8.3,7.22-16.59,14.33-24.99,21.33
			c-1.08-29.95,13.68-53.97,30.38-77.03c19.72-68.73,30.27-139.73,44.82-209.65C57.69,357.04,55.21,327.85,69,302.21z"/>
		<path class="st1" d="M3089.15,310.29c6.14,7.22,12.28,14.44,18.64,21.76c-94.16,33.72-125.18,142.96-128.52,233.24
			c-3.56,41.05,17.99,80.04,54.51,99.01c-13.14,4.52-26.07,9.48-38.78,14.65c-28.01-26.93-48.8-62.92-48.05-102.67
			c-2.15-97.39,28.55-204.04,108.92-265.24c6.14,3.56,18.53,10.77,24.67,14.33C3082.69,321.6,3087,314.06,3089.15,310.29z"/>
		<path class="st1" d="M3114.79,360.49c15.62-7,35.23-6.14,43.74,11.1c7.43,70.89-15.08,140.91-37.92,207.06
			c-12.07,27.79-30.27,69.38-67.87,59.36c2.8-12.6,8.94-23.81,18.42-33.61c3.23-15.94,5.49-32.1,8.4-48.05
			c2.69,1.08,7.86,3.23,10.56,4.31c14.76-50.2,33.29-100.84,32.32-153.95c-0.54-14.01-4.2-27.69-6.68-41.26L3114.79,360.49z"/>
		<path class="st1" d="M671.22,389.14c2.15,7.22,6.57,21.76,8.83,28.98l4.2,5.06l4.09,4.96c29.41,21.87,13.04,58.93,8.19,88.45
			c-19.18,80.26-33.18,161.6-53.65,241.53c-2.48,7.43-7.54,22.3-10.02,29.84c-24.13-32.1-4.52-71.32,0.75-105.9
			c-5.82,0.11-17.45,0.43-23.27,0.54c-3.77-5.28-11.53-15.84-15.3-21.22c9.7,1.94,29.2,5.6,38.89,7.43
			c1.83-6.57,5.39-19.93,7.22-26.5c3.02-12.17,5.6-24.35,7.97-36.63c9.8-45.03,25.42-89.2,28.44-135.42
			c-1.18-3.34-3.77-10.13-5.06-13.47c-5.17-12.93-9.59-26.07-12.17-39.75C663.04,410.04,668.53,396.15,671.22,389.14z"/>
		<path class="st1" d="M3280.7,388.61c3.99,10.23,8.19,20.47,12.6,30.7l3.23,4.63c7.43,10.77,15.08,21.55,22.84,32.1
			c-13.36,68.73-27.47,137.47-45.57,205.01c-5.28,9.91-10.45,19.93-15.51,29.84c-4.74-7.33-14.22-22.09-19.07-29.41
			c5.6-67.66,36.63-131.22,36.09-199.52c-4.96-4.85-14.76-14.54-19.72-19.5c0.22-6.14,0.75-18.64,0.97-24.89
			C3264.54,407.89,3272.62,398.3,3280.7,388.61z"/>
		<path class="st1" d="M3869.34,406.06c4.42-2.91,13.14-8.83,17.45-11.85c4.52,10.45,9.16,20.79,14.11,31.03
			c7.33,11.2,15.41,22.08,23.59,32.86c-11.96,69.06-30.27,136.71-44.6,205.23c33.4,1.62,66.79,3.77,100.19,7.54
			c-6.68,12.17-18.1,21.33-32.64,20.36c-40.08,3.77-80.15-3.88-120.23-1.83c-37.27,0.43-74.98,4.63-111.93-1.51
			c-14.87-13.25-19.93-33.94-25.64-52.25c-0.75-33.18-3.12-66.36-4.74-99.54c34.47,33.4,36.09,84.89,53.22,127.55
			c35.98,0.43,71.96,1.51,107.95,3.45c2.59-12.07,5.28-24.13,8.08-36.2c-12.82,5.39-25.53,10.67-38.35,15.73
			c-3.77-4.2-11.42-12.5-15.19-16.7c7.43-10.13,14.87-20.25,22.52-30.38c8.83,5.49,17.78,11.1,26.83,16.7
			c12.39-51.82,24.45-103.85,31.46-156.64c-27.79,22.73-56.24,44.82-85.43,65.72c-8.94-1.83-26.93-5.6-35.98-7.54
			c34.37-28.01,68.52-56.45,105.58-81.01C3866.65,426.53,3867.94,416.29,3869.34,406.06z"/>
		<path class="st1" d="M4112.17,414.57c1.83-6.68,5.39-19.93,7.22-26.61c9.7,12.17,19.5,24.35,29.09,36.74
			c7.86,10.99,16.38,21.76,22.84,33.72c-1.19,54.62-27.36,105.79-28.12,160.74c-0.43,21.12,16.59,35.34,31.03,48.16
			c-8.3,7.97-16.38,16.05-24.46,24.13c-29.95-22.3-53.22-54.84-53.54-93.4c6.79-26.29,10.34-53.11,8.83-80.26
			c-27.36-4.63-68.3,12.93-86.08-13.68c-5.28-8.83-10.34-17.78-15.19-26.72c9.7-6.25,19.82-11.63,30.49-16.27
			c12.07,2.59,15.08,18.21,23.27,26.29c12.17,1.19,24.46,2.59,36.74,4.31c6.25,1.83,18.53,5.49,24.78,7.33
			c5.82-29.41,9.48-59.14,11.96-88.99C4126.28,411.12,4116.91,413.49,4112.17,414.57z"/>
		<path class="st1" d="M2509.88,402.18c27.04,7.76,54.3,14.97,82.31,18.96c-20.04,1.08-39.97,2.26-59.9,3.56
			c9.7,9.48,19.39,18.96,29.2,28.55c-13.79,69.81-30.27,139.08-45.36,208.68c23.7-0.22,47.51-0.43,71.43-0.54
			c4.63,4.85,14.01,14.76,18.75,19.71c-32.43,12.6-67.98,8.94-101.81,6.14c-17.02-8.83-22.95-27.9-16.7-45.36
			c10.23-57.42,27.15-113.44,35.98-171.08C2505.35,451.74,2502.55,426.74,2509.88,402.18z"/>
		<path class="st1" d="M4289.5,397.44c11.63,9.16,23.59,18.31,35.34,27.47c-12.93,49.13-19.18,99.87-35.87,147.81
			c-11.85,32.64-38.68,63.67-76.38,60.87c7.76-13.9,16.27-27.47,23.81-41.48c20.58-53,25.75-110.64,44.06-164.51
			C4282.71,420.06,4287.23,404.98,4289.5,397.44z"/>
		<path class="st1" d="M4485.35,404.98c7.97,8.51,15.94,17.13,24.02,25.75c-22.3,15.84-44.17,38.89-40.18,68.73
			c3.77,45.25,53.97,58.18,79.18,88.66c8.08,17.24,6.25,40.18-10.77,51.39c-20.68,9.91-41.48-2.26-61.08-8.08
			c8.51-11.53,17.45-23.05,26.18-34.47c-3.23-2.69-9.7-8.19-12.93-10.88c-12.82-11.2-25.21-22.62-37.06-34.58
			c-29.19-24.78-33.72-70.78-15.73-103.21C4452.5,433.21,4468.98,419.09,4485.35,404.98z"/>
		<path class="st1" d="M475.37,452.17c18.21-9.91,44.82-21.01,55.59,4.85c3.77,49.13-9.91,99.01-36.52,140.37
			c5.6,5.82,11.31,11.53,17.13,17.34c-0.86,3.56-2.37,10.88-3.23,14.54c-2.69,11.2-5.39,22.52-8.08,33.72
			c-40.51,3.99-81.45,1.72-121.95,7c-14.22-10.77-22.52-26.93-32.1-41.48c-22.41,16.16-46.65,29.3-72.18,39.86
			c-12.28-7.97-24.46-15.84-36.63-23.7c15.19-8.4,29.84-18.1,43.74-28.76c17.45-0.97,34.9-1.83,52.57-2.48
			c6.25-18.21,11.2-36.84,12.6-56.13l1.08-12.17c2.37-21.65,6.79-42.98,11.53-64.21c-28.98,7-57.96,13.68-86.94,20.58
			c-6.03-4.52-12.07-8.94-18.1-13.25c19.71-10.23,39.75-20.47,57.53-33.94c7,3.99,21.01,11.96,28.01,15.94
			c13.68-6.25,27.58-12.28,40.94-19.18c5.49,2.15,16.48,6.46,21.98,8.73c-28.23,43.42-41.37,96.53-34.37,148.02
			c2.59,21.01,15.73,40.29,34.9,49.66c33.61,7.33,65.61-8.3,93.08-25.96c-6.03-5.49-12.17-10.99-18.21-16.27
			c-14.65,6.03-29.95,8.73-45.68,7.86c14.11-14.11,28.66-27.79,42.55-42.12c1.51-3.23,4.63-9.7,6.14-12.82
			c10.45-24.56,24.24-49.45,23.81-76.71C497.24,476.73,485.17,464.99,475.37,452.17z"/>
		<path class="st1" d="M4660.63,492.89c5.71-20.15,10.67-40.51,15.41-60.98l0.97,7.54c-2.48,32.32-5.49,78.97-46.65,83.71
			c4.63,11.64,9.59,23.38,14.54,35.01c-6.46,0.43-19.18,1.29-25.64,1.72c-24.89-21.55-51.28-41.37-77.67-60.87
			c-0.43-14.97-0.86-29.84-1.18-44.71c15.94-3.88,32.97-11.64,49.13-2.91c8.3,12.07,13.68,25.75,20.36,38.89
			c6.36,0.43,19.18,1.29,25.64,1.83C4641.78,492.35,4654.38,492.67,4660.63,492.89z"/>
		<path class="st1" d="M1753.39,455.94c15.94-13.47,47.94-22.62,54.94,4.96c9.16,52.14-3.12,108.27-28.87,154.16
			c-11.64,23.05-41.15,30.49-61.08,13.04c12.82-10.67,25.64-21.44,38.03-32.64c3.02-13.04,5.39-26.18,7.97-39.32
			c4.52-22.95,10.34-45.57,16.16-68.19C1771.38,477.27,1762.33,466.6,1753.39,455.94z"/>
		<path class="st1" d="M4960.45,455.29c19.5-17.24,52.79-4.31,49.56,24.02c-6.03,48.59-14.33,102.67-50.63,138.76
			c-12.6,15.08-32.86,15.84-50.74,15.08c5.6-11.1,16.91-33.29,22.52-44.39l-19.93,1.19
			C4912.83,542.12,4922.85,488.47,4960.45,455.29 M4965.3,487.4c-17.02,27.69-30.7,58.93-25.86,92.33
			C4956.79,552.36,4969.61,520.25,4965.3,487.4z"/>
		<path class="st1" d="M770.98,497.41c18.31-23.38,39-54.62,73.69-44.82c7.97,56.45-4.63,116.03-35.34,164.08
			c-12.6,21.12-38.78,19.93-59.68,15.73c11.96-10.23,23.81-20.79,35.55-31.46c2.26-2.8,7-8.51,9.37-11.31
			c15.94-28.66,21.98-61.3,23.49-93.73C802.33,496.34,786.6,496.88,770.98,497.41z"/>
		<path class="st1" d="M2036.29,506.9c15.19-25.64,37.81-45.46,62.16-62.16c25.64,59.79-10.99,123.24-19.72,183.57
			c-6.9,15.94-14.76,31.46-22.84,46.76c-8.51,1.72-25.42,5.17-33.94,6.89c-4.52-5.71-8.94-11.31-13.47-16.91
			c7.65,0.65,22.84,1.72,30.38,2.37c9.8-49.66,22.19-98.68,30.38-148.56C2060.96,515.84,2044.59,509.91,2036.29,506.9z"/>
		<path class="st1" d="M2209.09,462.73c15.41-8.62,32.97-18.21,41.48,4.42c-2.8,55.05-20.79,107.73-31.35,161.49
			c-3.02,11.85-5.93,23.59-8.94,35.44c-10.56,0.97-21.33,1.94-31.89,2.48c7.86-41.05,16.7-81.77,27.47-122.17
			C2212.86,517.67,2211.14,489.87,2209.09,462.73z"/>
		<path class="st1" d="M2653.7,461.54c11.74-4.96,23.92-6.79,36.52-5.39c8.94,30.7-2.69,61.73-9.05,91.68
			c-10.02,37.71-16.27,76.27-27.58,113.66c-3.66,7.22-11.1,21.76-14.76,28.98c-6.25-10.34-12.39-20.79-18.31-31.24
			c10.02-38.14,16.48-77.14,26.5-115.38C2654.45,517.13,2658.98,489.23,2653.7,461.54z"/>
		<path class="st1" d="M2791.49,464.02c12.5-7.65,25.64-10.02,39.43-7c-2.48,5.6-7.54,16.91-10.02,22.52l16.7-8.3
			c-13.68,63.56-24.78,127.99-44.06,190.15c-4.52,6.89-9.05,13.79-13.57,20.58c-7.54-1.51-22.84-4.52-30.38-6.03
			c15.19-45.79,25.64-92.97,34.37-140.37C2787.83,511.85,2789.66,487.93,2791.49,464.02z"/>
		<path class="st1" d="M3405.13,472.96c14.33-10.23,40.72-32.54,50.1-4.63c-3.99,65.72-25.1,129.39-40.62,193.16
			c-6.03,9.8-12.17,19.5-18.42,29.2c-6.68-11.2-13.25-22.52-19.71-33.72c5.28-36.63,13.57-72.72,22.84-108.49
			c4.85-16.91,10.56-33.5,16.37-50.1C3412.99,492.03,3407.82,479.32,3405.13,472.96z"/>
		<path class="st1" d="M4408.76,572.5c11.1,7.97,22.19,16.48,32.97,25.21c-5.17,20.79-9.59,41.69-13.68,62.7
			c-13.04,3.12-25.86,6.68-38.46,10.67c2.69-12.17,5.6-24.24,8.4-36.31c-14.33,7.11-29.3,13.14-44.17,18.31
			c2.8-8.08,5.92-16.16,9.37-24.13c7.43-14.54,15.62-28.87,21.87-44.06c-0.54,6.79,0.75,43.2,13.36,24.78
			C4403.91,597.93,4407.36,585.43,4408.76,572.5z"/>
		<path class="st1" d="M3890.24,966.48c35.55-8.3,74.98-15.41,108.81,3.23c-11.53,4.42-46.76-9.59-38.24,12.5
			c3.23,2.37,9.7,7,12.93,9.37c-1.94,34.9-11.53,68.84-19.39,102.78c9.05,0.32,27.15,0.97,36.2,1.29l13.47,0.22
			c9.48-27.9,13.9-57.21,16.27-86.51c4.63-6.68,13.79-20.15,18.42-26.83c2.48,3.56,7.54,10.77,10.02,14.33
			c-3.34,32.75-11.63,64.75-19.5,96.74c19.18,1.83,38.78,1.29,57.96,4.63c-50.2,5.17-100.62,7-150.72,1.29
			c5.6-32,9.48-64.64,6.25-97.17c-1.08-11.1-2.05-22.3-2.91-33.4c-11.85,0.22-35.55,0.54-47.4,0.65l6.36,16.91
			C3896.6,981.45,3892.4,971.43,3890.24,966.48z"/>
		<path class="st1" d="M3406.85,994.6c8.51-11.1,19.82-16.91,34.04-17.56c-7.97,29.2-31.35,49.99-47.19,74.77l-1.4,1.62
			c-11.64,22.19-32.86,31.24-57.1,31.57C3358.7,1054.6,3381.75,1023.68,3406.85,994.6z"/>
	</g>
	<g id="_x23_8c8c8cff">
		<path class="st2" d="M322.82,299.62c8.94,0.97,26.93,3.02,35.87,3.99c35.23,15.62,48.48,55.05,47.83,91.03
			c-15.62,11.85-30.49,24.56-44.71,37.92c-13.47,0.22-26.72,0.32-40.08,0.54c2.69-6.36,7.97-18.96,10.67-25.21
			c8.19,0.54,24.78,1.83,32.97,2.48c1.08-15.08,2.26-30.06,3.45-45.03c-13.68,1.4-27.26,2.91-40.83,4.42
			c-3.34-4.52-10.02-13.68-13.36-18.21c9.8-4.63,19.82-9.37,29.73-14.01C337.15,324.94,329.82,312.22,322.82,299.62z"/>
		<path class="st2" d="M3202.05,556.02c11.2-32.32,20.25-65.39,30.16-98.25c5.82,2.59,17.24,7.76,23.05,10.23
			c1.62,30.49-11.85,59.36-18.75,88.56C3227.91,556.45,3210.67,556.13,3202.05,556.02z"/>
		<path class="st2" d="M4161.51,1084.98c12.82-48.26-4.31-110.42,40.18-147.05c-10.88,44.92-30.49,92.54-12.5,138.33l1.62,5.93
			C4183.49,1082.83,4168.84,1084.34,4161.51,1084.98z"/>
		<path class="st2" d="M2971.08,971.97c16.91-7,33.94-14.11,50.53-22.3c3.99,4.63,11.85,13.79,15.84,18.42
			c21.33-3.12,42.88-6.03,64.32-9.48c3.45,2.69,10.23,7.97,13.68,10.67c-2.05,2.37-6.14,7-8.29,9.37c1.94,3.88,5.6,11.64,7.43,15.51
			c-9.48,4.42-18.96,8.73-28.33,13.14c-0.75-13.14-2.05-26.29-3.12-39.21c-7.22,0.75-21.44,2.48-28.66,3.34
			c-3.02,15.73-5.93,31.57-9.7,47.19c-2.37-15.19-4.96-30.38-7.76-45.36c-23.05,30.7-15.51,73.69-37.92,103.85l-17.34-2.15
			c-1.51-35.98,10.77-70.67,17.24-105.79C2992.09,969.93,2978.08,971.33,2971.08,971.97z"/>
	</g>
	<g id="_x23_666666ff">
		<path class="st3" d="M3202.81,298.65c17.99,14.22,33.61,31.24,44.82,51.28c-15.51,1.08-31.03,1.94-46.54,2.48
			c-2.8-3.34-8.51-10.13-11.42-13.47C3193.76,325.48,3198.18,312.01,3202.81,298.65z"/>
	</g>
	<g id="_x23_929292ff">
		<path class="st4" d="M3732.42,316.1c9.91-7,20.04-13.9,30.38-20.47c-1.29,29.09-5.6,58.07-14.87,85.65
			c-14.01,45.14-16.27,96.85-55.16,129.6C3700.64,444.95,3718.3,380.85,3732.42,316.1z"/>
		<path class="st4" d="M3201.08,352.41c15.51-0.54,31.03-1.4,46.54-2.48c3.34,14.11,6.79,28.12,10.23,42.12
			C3233.3,387.85,3215.31,371.69,3201.08,352.41z"/>
		<path class="st4" d="M152.17,480.07c4.63-41.26,16.16-81.23,22.95-122.06c20.25,15.51,42.02,29.09,64.64,41.26
			c-19.72,30.06-51.5,47.83-79.83,68.52c6.68,1.08,20.04,3.23,26.72,4.2C175.12,474.79,163.59,477.48,152.17,480.07z"/>
		<path class="st4" d="M612.4,414.89c16.05-11.2,30.27-24.89,44.82-38.14l12.71,7.86l1.29,4.52c-2.69,7-8.19,20.9-10.88,27.9
			c-21.87,63.13-35.77,129.06-43.2,195.32c-5.17,0.11-15.51,0.32-20.58,0.43c-6.14,0-18.42-0.11-24.56-0.11
			C584.07,546.54,600.23,481.15,612.4,414.89z"/>
		<path class="st4" d="M4253.3,425.34c5.82-10.67,11.96-21.12,18.42-31.46c2.15,8.4,6.57,25.21,8.73,33.72
			c-18.31,53.87-23.49,111.5-44.06,164.51c-5.82,0.86-17.56,2.59-23.38,3.45C4225.83,538.68,4237.57,481.47,4253.3,425.34z"/>
		<path class="st4" d="M4393.57,423.51c8.94-7.22,18.21-14.33,27.47-21.44c1.72,52.9-17.67,102.99-27.79,154.16l-2.69,9.48
			c-1.4,4.74-4.09,14.33-5.49,19.18c-6.25,15.19-14.44,29.52-21.87,44.06c-13.79-24.56-4.2-51.93,1.4-77.24
			C4375.57,509.27,4384.19,466.28,4393.57,423.51z"/>
		<path class="st4" d="M5092.96,420.17c8.94-4.85,17.88-9.7,27.04-14.44c-8.94,69.59-28.44,137.68-45.14,205.66
			c-6.89,8.19-13.9,16.16-20.9,24.13c0-9.91-0.11-29.52-0.11-39.43C5065.06,537.06,5081.22,479.1,5092.96,420.17z"/>
		<path class="st4" d="M434,565.61c3.55-26.07,7.22-52.25,16.81-76.81c10.77,11.2,21.55,22.52,32.43,33.72
			c-0.75,15.19-1.4,30.38-2.48,45.68c-1.51,3.12-4.63,9.59-6.14,12.82C461.04,575.84,447.46,570.67,434,565.61z"/>
		<path class="st4" d="M1721.28,521.12c4.31-11.96,9.16-23.7,14.54-35.34c16.27,20.25,27.15,44.06,28.55,70.35
			c-2.59,13.14-4.96,26.29-7.97,39.32c-9.59-18.42-21.12-35.66-33.07-52.47C1722.79,537.49,1721.71,526.61,1721.28,521.12z"/>
		<path class="st4" d="M123.84,622.17c2.8-41.05,13.79-80.69,21.01-121.09c19.93,15.3,41.15,28.87,63.13,40.94
			C204.53,587.69,153.68,597.17,123.84,622.17z"/>
		<path class="st4" d="M2299.48,630.25c-11.31-46.86,11.53-92.54,18.75-138.22c8.08,2.15,24.35,6.46,32.43,8.62
			c0.54,5.17,1.62,15.51,2.15,20.68c-5.71,34.8-14.65,69.06-23.7,103.21C2321.67,625.94,2306.91,628.74,2299.48,630.25z"/>
		<path class="st4" d="M2900.94,495.15c8.73,0,26.18-0.11,35.01-0.11c-6.14,41.26-28.33,82.41-15.08,124.43
			c-12.6,3.66-25.21,7.22-37.71,10.77C2876.6,584.14,2892.22,539.65,2900.94,495.15z"/>
	</g>
	<g id="_x23_efefefff">
		<path class="st5" d="M4822.55,320.95c8.08-6.25,16.27-12.5,24.46-18.64l4.09,17.56c-6.36-0.22-19.07-0.75-25.43-0.97
			c-17.13,38.35-32.64,77.35-47.83,116.46c-8.94,0.22-26.83,0.75-35.77,0.97c4.74-39.11,10.23-78.11,16.27-117
			C4779.68,319.87,4801.01,320.41,4822.55,320.95z"/>
		<path class="st5" d="M3629.43,323.11c34.15-3.45,68.52-4.96,102.99-7c-14.11,64.75-31.78,128.85-39.65,194.78l-2.48,14.87
			c33.18-14.54,62.92-36.2,82.85-66.9c-5.6-11.31-11.2-22.52-16.7-33.83c31.24-0.11,62.48,0,93.83-0.11
			c6.14-6.36,12.5-12.71,19.07-18.85c-1.4,10.23-2.69,20.47-3.77,30.7c-37.06,24.56-71.21,53-105.58,81.01
			c12.6,37.71,23.38,76.27,40.61,112.15c3.77,4.2,11.42,12.5,15.19,16.7c3.23,3.56,9.91,10.67,13.14,14.22
			c-30.27,0.97-60.55,1.94-90.82,2.8c-17.13-42.66-18.75-94.16-53.22-127.55c-12.71,42.34-21.87,85.54-32.1,128.42
			c-23.16-2.48-46.43-3.12-69.49-4.31c27.69-103.1,50.2-207.71,71.21-312.42c-6.68-3.66-20.15-10.99-26.83-14.76L3629.43,323.11z"/>
		<path class="st5" d="M79.56,328.49c77.78,5.06,164.29-17.34,235.07,23.05c3.34,4.52,10.02,13.68,13.36,18.21
			c13.57-1.51,27.15-3.02,40.83-4.42c-1.18,14.97-2.37,29.95-3.45,45.03c-8.19-0.65-24.78-1.94-32.97-2.48
			c-2.69,6.25-7.97,18.85-10.67,25.21c-2.59,5.28-7.76,15.94-10.34,21.22c-17.78,13.47-37.81,23.7-57.53,33.94
			c6.03,4.31,12.07,8.73,18.1,13.25c9.8,8.51,19.18,17.45,28.66,26.39c12.5,0.22,25.1,0.22,37.71,0.97
			c2.26,4.09,6.79,12.17,9.05,16.27l-1.08,12.17c-12.71,8.3-27.58,11.74-41.91,15.73c-7.76,14.22-15.3,28.76-23.27,42.88
			c-13.9,10.67-28.55,20.36-43.74,28.76c-72.18,18.42-147.27,10.99-220.85,10.88l8.51-10.02c29.52-25.53,32.97-65.5,40.51-101.27
			c11.53-61.08,28.66-121.2,34.58-183.25C93.03,350.25,85.92,339.59,79.56,328.49 M152.17,480.07c11.42-2.59,22.95-5.28,34.47-8.08
			c47.83,3.99,79.72-46,67.98-89.52c-13.47-30.16-52.79-24.89-79.51-24.46C168.33,398.84,156.8,438.81,152.17,480.07 M123.84,622.17
			l-5.71,3.99c27.69,0.32,59.9,5.6,83.06-13.68c26.07-21.98,35.23-62.59,21.65-93.62c-18.75-23.7-51.93-16.81-78-17.78
			C137.63,541.48,126.64,581.12,123.84,622.17z"/>
		<path class="st5" d="M3107.79,332.05c27.26-3.45,55.8-3.77,81.88,6.89c2.91,3.34,8.62,10.13,11.42,13.47
			c14.22,19.28,32.21,35.44,56.77,39.65c-0.32,6.46-0.97,19.18-1.29,25.53c-0.22,6.25-0.75,18.75-0.97,24.89
			c-0.11,6.46-0.21,19.18-0.32,25.53c-5.82-2.48-17.24-7.65-23.05-10.23c-9.91,32.86-18.96,65.93-30.16,98.25
			c-16.05,47.94-52.79,85.43-98.36,106.33c-23.38,0.75-46.65,1.4-69.92,1.94c-36.52-18.96-58.07-57.96-54.51-99.01
			C2982.61,475.01,3013.63,365.77,3107.79,332.05 M3114.79,360.49l0.97,4.96c-26.93,24.24-35.66,60.11-47.29,92.97
			c-14.44,41.8-20.68,85.86-21.87,130.03c6.14,3.99,18.42,11.96,24.56,15.94c-9.48,9.8-15.62,21.01-18.42,33.61
			c37.6,10.02,55.8-31.57,67.87-59.36c22.84-66.15,45.35-136.17,37.92-207.06C3150.02,354.35,3130.41,353.49,3114.79,360.49z"/>
		<path class="st5" d="M402.33,459.82c39.97-46.65,106.33-52.57,161.27-32c16.16-4.63,32.43-8.83,48.8-12.93
			c-12.17,66.25-28.33,131.65-40.4,197.8c6.14,0,18.42,0.11,24.56,0.11c-20.68,6.25-25.75,30.27,0.65,30.27
			c-26.93,21.12-62.7,9.59-93.73,9.7c1.19-5.93,3.66-17.67,4.85-23.49c0.86-3.66,2.37-10.99,3.23-14.54
			c-5.82-5.82-11.53-11.53-17.13-17.34c26.61-41.37,40.29-91.25,36.52-140.37c-10.77-25.86-37.38-14.76-55.59-4.85
			c-8.83,11.85-16.91,24.13-24.56,36.63c-9.59,24.56-13.25,50.74-16.81,76.81c13.47,5.06,27.04,10.23,40.61,15.41
			c-13.9,14.33-28.44,28.01-42.55,42.12c15.73,0.86,31.03-1.83,45.68-7.86c6.03,5.28,12.17,10.77,18.21,16.27
			c-27.47,17.67-59.47,33.29-93.08,25.96c-19.18-9.37-32.32-28.66-34.9-49.66C360.96,556.34,374.1,503.23,402.33,459.82z"/>
		<path class="st5" d="M1250.28,460.79c48.26-40.4,115.27-54.62,175.28-34.47c4.85,4.52,14.65,13.68,19.61,18.21l7,6.79
			c14.22,0.22,28.44-0.22,42.88-0.43c-0.43,10.34-0.65,20.79-0.86,31.13c-12.17,0.65-24.13,1.29-36.09,1.94
			c-3.56,6.46-10.67,19.39-14.33,25.86c-15.84,10.34-32.97,18.64-49.88,27.04c10.23,7.11,20.47,14.33,30.92,21.33
			c13.9,10.23,31.03,13.04,47.62,16.27c-10.02,7.33-19.93,14.87-29.3,22.73c-2.37,2.48-6.89,7.33-9.26,9.8
			c-13.14,14.65-26.61,29.09-41.91,41.58c-55.05,21.87-114.95,11.85-171.4,2.26c3.56-17.02,7.11-33.94,10.67-50.85
			c30.38-3.88,60.33-10.13,90.39-16.27c-13.14,14.65-28.12,27.47-43.85,39.32c16.48,7.11,34.15,20.25,52.68,10.99
			c31.24-8.62,35.66-47.08,24.89-72.93c-21.76-8.83-45.25-10.34-67.98-14.22c3.45-5.6,10.34-16.81,13.79-22.41
			c34.47-8.51,82.74-7,88.99-52.79c-7.22,0.22-21.65,0.54-28.87,0.75c6.36-3.56,18.96-10.88,25.21-14.44
			c-18.53-4.2-37.6-14.87-56.88-8.19C1302.31,457.55,1275.17,490.41,1250.28,460.79z"/>
		<path class="st5" d="M2778.02,452.28c21.76-28.12,57.53-33.83,90.92-33.4c9.7,7.97,19.28,16.38,28.66,24.99
			c2.05,17.02,3.12,34.15,3.34,51.28c-8.73,44.49-24.35,88.99-17.78,135.1c1.83,4.31,5.6,12.93,7.43,17.34
			c1.72,3.99,5.28,11.96,7.11,15.94c-34.69-2.69-69.49-1.62-104.18-2.15c19.28-62.16,30.38-126.58,44.06-190.15l-16.7,8.3
			c2.48-5.6,7.54-16.91,10.02-22.52c-13.79-3.02-26.93-0.65-39.43,7c-12.71,14.65-24.13,30.27-34.04,46.86
			c-12.5,50.1-22.62,100.62-32.64,151.26c-23.81-0.86-47.51-0.54-71.21-0.65c11.31-37.38,17.56-75.95,27.58-113.66
			c6.36-29.95,17.99-60.98,9.05-91.68c-12.6-1.4-24.78,0.43-36.52,5.39c-14.65,15.84-27.15,33.4-36.63,52.68
			c-12.71,48.48-21.33,97.82-29.52,147.16c-23.92,0.11-47.73,0.32-71.43,0.54c15.08-69.59,31.57-138.87,45.36-208.68
			c-9.8-9.59-19.5-19.07-29.2-28.55c19.93-1.29,39.86-2.48,59.9-3.56c18.85-1.08,37.81-2.48,56.77-4.31
			c-7.76,12.39-23.16,37.38-30.81,49.88c19.28-14.54,37.81-31.03,59.14-42.98c37.06-10.99,78.75,1.62,90.39,41.48
			C2771.02,460.79,2774.47,456.58,2778.02,452.28z"/>
		<path class="st5" d="M684.26,423.19c30.38-0.97,60.76-3.66,91.14-5.6c-2.91,15.62-5.39,31.35-7.33,47.19
			c14.76,0.43,21.33-21.33,32.21-30.16c5.49-3.45,16.59-10.34,22.08-13.79c39.21-11.96,73.37,7.54,98.68,36.31
			c5.71-4.74,17.24-14.33,22.95-19.07c4.42,21.98,8.62,43.95,11.63,66.25c-13.57,0.43-27.04,0.97-40.4,1.4
			c-5.93,22.73-11.31,45.68-17.78,68.3c-8.73,21.12-21.33,40.29-35.77,57.96c-26.18,18.75-57.42,29.2-89.74,28.33
			c-12.5-3.34-24.89-6.89-37.28-10.56c-6.79,26.72-9.91,54.4-3.45,81.55l-5.82,3.66c2.91,2.48,8.51,7.54,11.42,10.02
			c4.09,4.31,12.28,12.71,16.38,16.91c-36.84-0.22-73.69-1.29-110.32-3.77c20.47-79.94,34.47-161.27,53.65-241.53
			c4.85-29.52,21.22-66.58-8.19-88.45L684.26,423.19 M770.98,497.41c-4.85,15.73-9.91,31.24-15.51,46.76
			c-2.48,14.97-4.42,30.16-6.03,45.35c13.47-0.22,25.42,3.66,35.77,11.42c-11.74,10.67-23.59,21.22-35.55,31.46
			c20.9,4.2,47.08,5.39,59.68-15.73c30.7-48.05,43.31-107.62,35.34-164.08C809.98,442.8,789.3,474.04,770.98,497.41z"/>
		<path class="st5" d="M984.18,625.83c-34.26-77.67,10.34-184.11,94.91-205.77c39.54-7.54,80.37-0.11,113.44,23.05
			c12.17-0.97,24.35-2.05,36.63-3.12c0.43,13.36,0.86,26.93,1.51,40.4c-11.85,1.29-23.49,2.59-35.23,3.99
			c-11.74,15.3-23.49,30.7-36.74,44.82c-38.46,17.67-81.01,21.33-122.6,24.46c16.16,10.45,32.43,21.01,48.8,31.35
			c-10.99,11.31-41.48,12.71-34.04,34.47c37.38,21.12,76.17-8.4,104.28-31.46c5.39,8.73,10.77,17.56,16.16,26.39
			c-22.41,15.73-45.36,31.03-70.78,41.48C1060.57,664.94,1008.32,665.15,984.18,625.83 M1076.19,459.92l-1.94-1.4
			c-12.28,22.84-23.05,46.76-26.93,72.72c11.2-2.8,22.41-5.6,33.61-8.51c33.94-3.12,66.15-39.21,49.66-73.37
			C1114,427.71,1092.78,451.63,1076.19,459.92z"/>
		<path class="st5" d="M1722.79,432.24c42.12-19.82,95.77-20.9,134.99,6.79c2.48,5.6,7.43,16.81,9.91,22.41
			c5.82,20.68,9.59,41.8,12.5,63.13c-3.88,16.7-8.51,33.29-13.9,49.56c-9.27,19.61-20.25,38.35-32.43,56.24
			c-49.88,40.51-146.3,51.93-178.94-14.97C1633.7,549.88,1660.74,466.28,1722.79,432.24 M1753.39,455.94l-1.72-1.94
			c-5.39,10.56-10.67,21.12-15.84,31.78c-5.39,11.64-10.23,23.38-14.54,35.34c-9.7,35.23-4.52,71.75-3.77,107.62l0.86-0.65
			c19.93,17.45,49.45,10.02,61.08-13.04c25.75-45.89,38.03-102.02,28.87-154.16C1801.33,433.31,1769.33,442.47,1753.39,455.94z"/>
		<path class="st5" d="M1946.66,423.83c34.15-3.66,68.62-4.74,102.99-4.85c-2.48,11.42-7.54,34.15-10.13,45.46
			c18.96-16.81,38.03-34.26,61.84-44.06c17.88,2.15,36.2,3.34,54.08,7.33c14.76,8.51,21.76,25.32,31.89,38.35
			c0.65-4.09,1.94-12.17,2.59-16.16c17.88-12.28,36.52-23.81,58.07-28.76c24.35,2.37,51.71,1.08,68.09,23.27
			c1.4,15.84,2.15,31.67,2.15,47.62c-7.22,45.68-30.06,91.36-18.75,138.22l3.02,15.41l-1.62,10.67
			c-28.98-0.11-58.07-0.11-86.94-0.32c1.29-6.79,3.99-20.47,5.28-27.36c10.56-53.76,28.55-106.44,31.35-161.49
			c-8.51-22.62-26.07-13.04-41.48-4.42c-12.82,14.01-24.45,29.09-34.69,45.03c-13.25,51.06-21.65,103.42-36.09,154.27
			c-22.41-2.59-44.92-3.45-67.33-4.31c1.94-7.33,5.82-22.08,7.76-29.41c8.73-60.33,45.36-123.78,19.72-183.57
			c-24.35,16.7-46.97,36.52-62.16,62.16c-15.19,49.56-22.62,101.16-33.5,151.79c-23.27,0.11-46.54,0.22-69.59,0.32
			c13.57-70.67,34.26-140.05,41.91-211.69C1965.51,439.46,1956.03,431.7,1946.66,423.83z"/>
		<path class="st5" d="M3296.53,423.94c31.13,1.18,62.38,0.75,93.62,0.97c-4.09,15.73-8.19,31.35-12.17,47.08
			c11.85-10.45,23.59-21.22,35.87-31.46c25.75-19.07,66.36-31.35,92.86-6.57c13.57,11.42,26.93,23.16,40.72,34.58
			c-31.46,27.15-36.09,69.81-43.85,108.05c-4.52,19.5-5.28,39.75,1.94,58.93l6.14,13.04c1.72,3.23,5.17,9.7,6.9,12.93
			c-34.69,0.54-69.38,0.54-103.96,0c15.51-63.78,36.63-127.45,40.62-193.16c-9.37-27.9-35.77-5.6-50.1,4.63
			c-8.19,9.37-15.94,19.07-23.38,29.09c-16.27,52.79-25.64,107.41-38.14,161.27c-23.27-1.72-46.65-1.72-69.81-2.26
			c18.1-67.55,32.21-136.28,45.57-205.01C3311.62,445.49,3303.97,434.72,3296.53,423.94z"/>
		<path class="st5" d="M3900.91,425.23c5.39-0.32,16.27-1.08,21.76-1.4c24.89-1.08,49.77-1.4,74.87-1.72
			c-6.57,20.15-13.04,40.18-19.71,60.22c20.79-20.15,41.8-40.51,66.36-56.24c21.55-4.09,43.63-2.91,65.61-2.69
			c-5.82,22.62-10.67,45.46-15.51,68.3c-12.28-1.72-24.56-3.12-36.74-4.31c-8.19-8.08-11.2-23.7-23.27-26.29
			c-10.67,4.63-20.79,10.02-30.49,16.27c-36.31,54.4-37.06,122.49-54.3,183.9c-23.27,0.65-46.54,1.4-69.59,2.05
			c14.33-68.52,32.64-136.17,44.6-205.23C3916.31,447.32,3908.24,436.44,3900.91,425.23z"/>
		<path class="st5" d="M4148.48,424.7c34.9,0.11,69.81,0.22,104.82,0.65c-15.73,56.13-27.47,113.33-40.29,170.22
			c5.82-0.86,17.56-2.59,23.38-3.45c-7.54,14.01-16.05,27.58-23.81,41.48c37.71,2.8,64.53-28.23,76.38-60.87
			c16.7-47.94,22.95-98.68,35.87-147.81c22.84,0,45.68,0,68.73-1.4c-9.37,42.77-17.99,85.75-28.98,128.2
			c-5.6,25.32-15.19,52.68-1.4,77.24c-3.45,7.97-6.57,16.05-9.37,24.13c14.87-5.17,29.84-11.2,44.17-18.31
			c-2.8,12.07-5.71,24.13-8.4,36.31c-1.08,3.02-3.12,9.05-4.2,12.17c0-4.74,0.11-14.11,0.11-18.75c-36.41,0.11-72.72,0-109.02-0.65
			c3.99-12.07,11.96-36.2,15.94-48.26c-30.27,33.29-71.53,58.61-118.18,51.71c-14.44-12.82-31.46-27.04-31.03-48.16
			c0.75-54.94,26.93-106.12,28.12-160.74C4164.85,446.46,4156.34,435.68,4148.48,424.7z"/>
		<path class="st5" d="M4509.38,430.73c37.38-10.34,76.49-10.56,114.41-2.69c6.14,1.83,18.64,5.6,24.89,7.43
			c-4.42,18.85-8.83,37.71-13.14,56.67c-6.46-0.54-19.28-1.4-25.64-1.83c-6.68-13.14-12.07-26.83-20.36-38.89
			c-16.16-8.73-33.18-0.97-49.13,2.91c0.32,14.87,0.75,29.73,1.18,44.71c26.39,19.5,52.79,39.32,77.67,60.87
			c6.46-0.43,19.18-1.29,25.64-1.72c1.72,26.18-1.72,52.25-7.97,77.57c-2.05-8.62-6.03-25.75-8.08-34.26
			c-12.71,19.07-23.38,42.12-45.14,52.57c-48.37,25.53-104.28,9.91-155.67,6.36c4.09-21.01,8.51-41.91,13.68-62.7
			c16.81-0.75,32.75-4.63,48.05-11.63c3.23,2.69,9.7,8.19,12.93,10.88c-8.73,11.42-17.67,22.95-26.18,34.47
			c19.61,5.82,40.4,17.99,61.08,8.08c17.02-11.2,18.85-34.15,10.77-51.39c-25.21-30.49-75.41-43.42-79.18-88.66
			C4465.21,469.62,4487.08,446.57,4509.38,430.73z"/>
		<path class="st5" d="M4926.41,431.27c38.14-13.14,78.32-8.3,116.13,3.45c16.7-4.85,33.5-9.48,50.42-14.54
			c-11.74,58.93-27.9,116.89-39.11,175.93c-4.31,22.3-1.72,45.25,12.07,63.99c9.8-8.3,19.61-16.48,29.63-24.67
			c-0.32,7.97-0.97,24.13-1.29,32.21l-4.2-0.11c-38.46-1.51-76.92-0.54-115.38-0.43c3.77-12.07,11.1-36.2,14.76-48.37
			c-31.67,38.68-105.04,77.89-141.02,24.56C4819.11,567.87,4852.4,468.87,4926.41,431.27 M4960.45,455.29
			c-37.6,33.18-47.62,86.83-49.23,134.66l19.93-1.19c-5.6,11.1-16.91,33.29-22.52,44.39c17.88,0.75,38.14,0,50.74-15.08
			c36.31-36.09,44.6-90.17,50.63-138.76C5013.24,450.98,4979.95,438.05,4960.45,455.29z"/>
		<path class="st5" d="M766.13,739.06C802.76,740.57,749.54,770.3,766.13,739.06z"/>
		<path class="st5" d="M2719.96,906.47c2.37-1.29,7.22-3.88,9.7-5.17c-4.42,7.33-8.62,14.76-12.82,22.19
			c-9.48,2.05-28.55,6.14-38.14,8.3c7,4.42,20.9,13.25,27.9,17.67c-7.76,34.37-17.13,68.3-27.69,101.91
			c20.68-42.98,42.12-85.65,63.45-128.31c18.75-3.23,37.49-6.68,56.24-10.23c0.97,47.4-12.17,93.08-25.53,138
			c18.75-35.55,36.2-71.86,52.36-108.59c-3.56-5.39-10.67-16.16-14.22-21.55c18.64-0.11,37.49-0.22,56.45-0.43
			c-39.75,53.22-65.39,115.06-98.14,172.48c-7.33,0.22-21.87,0.75-29.19,0.97c-0.11-40.51-0.97-80.91-2.69-121.41
			c-20.58,37.81-35.77,78.43-58.71,114.73c-7.97,2.37-23.92,7.11-31.89,9.48c-4.31-56.45,3.56-114.84-13.25-169.68l-1.72-6.79
			C2661.67,920.37,2694.32,925.22,2719.96,906.47z"/>
		<path class="st5" d="M4478.35,915.84c22.95-0.43,45.79-1.08,68.84-2.15c-4.52,5.49-13.47,16.48-17.88,21.98
			c-1.08,0.65-3.23,1.72-4.31,2.37c-3.23,22.95-8.08,45.57-14.33,67.87c-10.45,29.41-19.28,59.36-25.75,89.85
			c-7.65-0.75-22.95-2.05-30.7-2.8l-2.8-10.34C4460.9,1027.13,4484.92,972.94,4478.35,915.84z"/>
		<path class="st5" d="M3531.07,926.19c15.62-4.96,31.57-9.16,47.62-13.47c-3.34,17.78-6.57,35.66-8.94,53.65
			c-1.19,11.96-1.51,24.02-1.94,36.2c-13.9,27.04-15.19,57.42-12.61,87.16c42.12-12.17,45.79-59.9,48.7-96.31
			c-11.1-6.68-22.08-13.36-32.64-20.47c28.55-4.31,56.77,1.94,83.92,10.23c-0.54,8.73-1.62,26.29-2.15,35.12
			c-13.9,21.12-24.24,45.03-42.02,63.24c-31.35,21.65-71.53,12.5-107.19,14.33c10.02-51.39,24.89-101.7,31.67-153.63L3531.07,926.19
			z"/>
		<path class="st5" d="M4168.08,937.39c23.27-23.7,56.77-13.9,85.65-10.23l9.48,1.19c1.29,4.52,3.88,13.68,5.06,18.21
			c1.29,4.63,3.77,13.9,5.06,18.53c-16.38,36.84-30.81,74.44-46.11,111.61c-27.04,18.64-72.61,36.09-94.59,1.51
			C4118.2,1030.36,4132.32,972.62,4168.08,937.39 M4204.17,929.2l-2.48,8.73c-44.49,36.63-27.36,98.79-40.18,147.05
			c7.33-0.65,21.98-2.15,29.3-2.8l-1.62-5.93c17.02-32.21,26.72-67.55,31.78-103.53C4227.23,955.38,4219.15,938.68,4204.17,929.2z"
			/>
		<path class="st5" d="M3430.34,944.61c3.34,10.77,6.79,21.65,10.56,32.43c-14.22,0.65-25.53,6.46-34.04,17.56
			c-25.1,29.09-48.16,60.01-71.64,90.39c24.24-0.32,45.46-9.37,57.1-31.57c3.45,14.44,7.22,28.87,11.2,43.2
			c-39.43-2.05-78.86-1.19-118.18-2.15c28.23-39.65,60.87-75.84,88.23-116.13c-23.92,4.85-44.39,17.67-63.67,31.78
			c1.94-13.79,3.88-27.47,5.82-41.26c36.74,0,73.58,0.22,110.42,1.83C3427.11,964.22,3429.26,951.18,3430.34,944.61z"/>
		<path class="st5" d="M3115.44,969.28c21.22-3.02,42.66-1.19,64.1,0.11c-11.2,5.6-22.84,9.8-35.01,12.39
			c0.22,5.28,0.75,15.84,0.97,21.12c-6.36,0.54-19.18,1.62-25.64,2.15l-5.28-10.88c-1.83-3.88-5.49-11.64-7.43-15.51
			C3109.3,976.28,3113.39,971.65,3115.44,969.28z"/>
		<path class="st5" d="M3673.27,969.71c21.33-0.86,42.88-2.91,63.78-7.97c1.72,31.89-1.29,63.67-6.79,95.13
			c16.7-26.83,33.83-55.59,27.36-88.66c8.73-0.11,26.18-0.32,34.91-0.32c-14.97,68.19-68.09,119.04-108.06,173.77
			c-18.21,4.2-36.74,7-54.94,10.13c2.15-8.51,6.46-25.32,8.62-33.83c12.39,2.59,24.78,5.06,37.28,7.65
			c6.89-8.08,13.79-16.16,20.79-24.24c-4.52-24.35-8.73-48.69-12.6-73.04c-2.05-15.08-4.31-29.95-7.54-44.6L3673.27,969.71z"/>
		<path class="st5" d="M4031.91,972.73c23.7-3.99,47.73-2.69,71.75-2.48c-0.54,6.57-1.62,19.82-2.26,26.5
			c-1.94,2.37-6.03,7.11-8.08,9.48c0,2.8-0.22,8.51-0.32,11.31c2.37,22.19-3.77,43.09-17.45,60.44c5.93,0.86,17.88,2.69,23.81,3.56
			c-0.97,4.42-3.02,13.36-3.99,17.78l-8.19-1.08c-19.18-3.34-38.78-2.8-57.96-4.63c7.86-32,16.16-63.99,19.5-96.74
			c-2.48-3.56-7.54-10.77-10.02-14.33L4031.91,972.73z"/>
		<path class="st5" d="M4543.85,972.51c21.22-0.86,42.55-1.62,63.88-2.59c-21.22,15.84-42.34,31.78-63.35,47.83
			c12.82,20.15,23.05,41.91,22.19,66.47c10.77,2.59,21.65,5.06,32.64,7.65c-5.39,1.51-15.94,4.52-21.33,5.93
			c-17.45,2.91-35.23,1.83-52.68,2.26c-3.66-16.05-7.33-31.89-10.99-47.83c-1.51-7.76-2.69-15.51-3.66-23.38
			c0-1.51-0.11-4.52-0.11-6.03C4526.51,1009.25,4549.67,997.61,4543.85,972.51z"/>
		<path class="st5" d="M4667.53,986.3c45.68-31.24,103.53-7.11,154.81-16.38c-4.52,2.91-13.47,8.73-17.99,11.64
			c-6.25,35.44-13.9,70.67-20.25,106.12c44.82-19.82,43.85-74.01,55.27-114.52c9.8-0.75,29.41-2.48,39.21-3.34
			c-12.17,39.75-19.5,80.58-25.96,121.52c-8.08,1.83-24.24,5.39-32.32,7.11c-1.4-4.42-4.09-13.47-5.49-17.88
			c-18.31,16.7-58.82,34.15-69.7,0.75c-3.12-32.86,10.34-64.85,15.73-96.96c-7.86-3.23-23.59-9.7-31.46-12.82
			c-0.54,8.62-1.83,25.86-2.37,34.47c-12.07-0.32-24.02-0.54-35.87-0.75l6.79-17.34C4690.26,987.49,4675.07,986.73,4667.53,986.3z"
			/>
		<path class="st5" d="M2872.18,1079.06c-17.02-48.26,13.14-112.9,69.16-115.7c-3.12,7.54-9.26,22.73-12.39,30.27l-8.62-3.77
			c-9.37,30.81,8.83,65.39-13.03,92.65l30.16-14.11C2932.83,1098.13,2883.81,1108.15,2872.18,1079.06z"/>
		<path class="st5" d="M2950.07,983.72c6.25-5.17,13.25-9.05,21.01-11.74c7-0.65,21.01-2.05,27.9-2.8
			c-6.46,35.12-18.75,69.81-17.24,105.79l1.83,10.13c8.83,1.19,26.72,3.56,35.55,4.74c-24.13,11.42-51.71,3.88-77.24,5.6
			c-1.08-6.79-3.23-20.25-4.42-27.04l-0.54-3.66C2947.81,1039.52,2961.06,1011.62,2950.07,983.72z"/>
		<path class="st5" d="M3054.46,971.43c7.22-0.86,21.44-2.59,28.66-3.34c1.08,12.93,2.37,26.07,3.12,39.21l0.65,9.8
			c-11.74,22.19-6.79,47.83-6.03,71.75c-18.42,3.12-36.84,5.82-55.16,7.97c5.49-26.29,12.17-52.25,19.07-78.21
			C3048.54,1003,3051.45,987.16,3054.46,971.43z"/>
		<path class="st5" d="M3162.62,1028.64c4.96-26.61,23.49-49.34,48.8-59.36c4.63,2.59,13.79,7.65,18.42,10.13
			c-11.85,10.99-19.93,24.78-26.18,39.43c2.48,6.68,3.99,13.68,4.63,20.9l-2.26,3.77c1.62,3.23,5.06,9.59,6.68,12.82
			c-3.23,5.71-9.7,17.13-12.93,22.84c33.18-4.31,63.13-24.35,97.5-21.33c-7,2.91-21.11,8.62-28.12,11.53
			c-21.76,17.34-48.05,32.53-76.92,25.53C3161.55,1091.77,3153.79,1052.99,3162.62,1028.64z"/>
		<path class="st5" d="M3892.4,969.6c11.85-0.11,35.55-0.43,47.4-0.65c0.86,11.1,1.83,22.3,2.91,33.4
			c-12.07,27.69-18.42,57.21-23.59,86.83c-13.47,2.37-26.82,4.74-40.08,7.11c8.19-34.15,17.67-68.09,22.3-102.99l-2.59-6.79
			L3892.4,969.6z"/>
		<path class="st5" d="M3960.81,982.21c-8.51-22.09,26.72-8.08,38.24-12.5c4.74,2.69,14.11,8.08,18.75,10.67
			c-9.8,38.24-19.18,76.7-27.26,115.27c-9.05-0.32-27.15-0.97-36.2-1.29c7.86-33.94,17.45-67.87,19.39-102.78
			C3970.5,989.21,3964.04,984.58,3960.81,982.21z"/>
		<path class="st5" d="M4299.73,966.91c17.02,2.15,35.12,2.8,50.2,12.39c28.33-14.01,57.96-7.11,86.29,3.02l-7.22,10.77
			c-23.59,27.79-26.29,64.96-27.9,99.76c-10.45,0-31.35,0-41.91-0.11c1.51-5.71,4.31-17.24,5.71-23.05
			c7.76-28.55,12.5-57.85,15.08-87.37c-49.99,13.79-44.92,73.9-54.08,114.3c-10.67,0.22-32,0.65-42.66,0.86
			c1.51-7.43,4.42-22.19,5.93-29.63C4298.33,1035,4301.67,1000.95,4299.73,966.91z"/>
		<path class="st5" d="M4619.59,970.03c14.33-0.22,42.88-0.75,57.21-0.97l-20.36,20.25c6.25,6.79,12.5,13.57,18.75,20.58
			l-12.28,2.69c0,29.2-13.04,56.45-10.99,85.86c-16.48-0.22-32.97-0.22-49.23-0.32C4610.97,1056.11,4631.33,1013.34,4619.59,970.03z
			"/>
		<path class="st5" d="M4918.65,997.29c14.22-39.11,69.92-24.89,102.56-25.32c0.75,19.82-5.6,34.69-26.93,36.52
			c-6.14-11.42-14.44-20.68-24.89-27.79c-13.04,4.09-15.41,15.51-15.84,26.93c18.42,14.97,37.17,29.95,58.18,41.37
			c-11.42,53.54-72.5,58.07-116.03,46.43c1.19-7.76,3.34-23.16,4.42-30.81c8.51-0.86,25.64-2.69,34.15-3.66
			c-3.45,5.71-10.13,16.91-13.57,22.52c18.1,7.22,32.43,3.34,43.09-11.74C4957,1040.81,4906.37,1035.1,4918.65,997.29z"/>
	</g>
	<g id="_x23_7d7d7dff">
		<path class="st6" d="M4825.68,318.9c6.36,0.22,19.07,0.75,25.43,0.97c-12.5,36.09-26.83,71.64-41.05,106.98
			c-0.65,1.51-2.05,4.42-2.8,5.93l-3.02,5.06c-0.65,0.97-1.83,3.02-2.48,3.99c-1.94,2.69-5.82,8.08-7.76,10.77
			c-17.45-5.49-34.69-10.88-51.93-16.27c8.94-0.22,26.82-0.75,35.77-0.97C4793.03,396.25,4808.55,357.26,4825.68,318.9z"/>
	</g>
	<g id="_x23_696969ff">
		<path class="st7" d="M2816.16,380.1c44.82-10.56,93.83-1.83,120.55,39l-6.14,3.99c-11.1,7-22.08,13.9-32.97,20.79
			c-9.37-8.62-18.96-17.02-28.66-24.99c5.28-4.31,15.94-12.93,21.22-17.24C2871.96,378.69,2842.98,376.65,2816.16,380.1z"/>
		<path class="st7" d="M1174.11,384.51c6.46-1.94,19.39-5.93,25.86-7.97c19.72,11.74,38.68,25.1,52.14,44.17
			c-5.71,4.74-17.13,14.44-22.95,19.28c-12.28,1.08-24.46,2.15-36.63,3.12c-33.07-23.16-73.9-30.6-113.44-23.05
			c30.7-4.85,61.84-6.57,92.97-8.94C1172.71,402.29,1173.36,393.35,1174.11,384.51z"/>
		<path class="st7" d="M1433.86,606.98c19.5-2.15,39.21-4.2,58.82-6.14c-17.45,35.77-50.31,58.5-85.75,74.01
			c-3.77-6.57-11.2-19.71-14.97-26.29C1407.25,636.07,1420.71,621.63,1433.86,606.98z"/>
	</g>
	<g id="_x23_757575ff">
		<path class="st8" d="M3068.47,458.42c11.64-32.86,20.36-68.73,47.29-92.97c2.48,13.57,6.14,27.26,6.68,41.26
			c-7.97,22.95-16.7,45.57-24.35,68.62C3090.66,471.13,3075.9,462.62,3068.47,458.42z"/>
		<path class="st8" d="M450.8,488.8c7.65-12.5,15.73-24.78,24.56-36.63c9.8,12.82,21.87,24.56,29.2,39.32
			c0.43,27.26-13.36,52.14-23.81,76.71c1.08-15.3,1.72-30.49,2.48-45.68C472.35,511.31,461.58,500,450.8,488.8z"/>
		<path class="st8" d="M1751.66,454l1.72,1.94c8.94,10.67,17.99,21.33,27.15,32c-5.82,22.62-11.64,45.25-16.16,68.19
			c-1.4-26.29-12.28-50.1-28.55-70.35C1741,475.11,1746.28,464.56,1751.66,454z"/>
		<path class="st8" d="M1195.45,484.38c11.74-1.4,23.38-2.69,35.23-3.99c5.28,4.42,15.94,13.36,21.22,17.78
			c-16.38,16.27-33.18,32.21-50.31,47.73c5.82,6.89,11.63,13.79,17.45,20.79l-2.05,7.43c-2.05,6.46-6.25,19.18-8.3,25.53
			c-29.3-20.79-34.37,29.63-2.48,7.33c-1.72,4.96-5.28,14.97-7,19.93c-9.37-4.2-18.64-8.4-27.9-12.5
			c-5.39-8.83-10.77-17.67-16.16-26.39c11.85-14.44,22.62-29.63,33.61-44.71c-10.13-4.74-20.15-9.37-30.06-14.11
			C1171.96,515.08,1183.7,499.68,1195.45,484.38z"/>
		<path class="st8" d="M897.46,574.01c17.45-5.39,35.12-10.77,52.68-16.38c-1.94,16.05-3.45,32.21-6.25,48.16
			c-6.79,10.88-13.79,21.55-21.22,31.89c-20.36-2.05-40.61-3.88-60.98-5.71C876.13,614.3,888.73,595.13,897.46,574.01z"/>
		<path class="st8" d="M1866.29,574.12c16.27,0.75,32.64,1.51,49.13,2.26c-11.53,24.67-27.26,46.86-44.71,67.66
			c-12.39-4.63-24.67-9.16-36.84-13.68C1846.04,612.47,1857.02,593.73,1866.29,574.12z"/>
		<path class="st8" d="M2883.28,901.73c35.44-16.27,28.33,35.34,3.02,42.77c-21.01,25.1-34.37,55.27-47.29,85
			c-10.34,23.7-21.65,46.86-32.75,70.13c-24.24,1.94-48.59,2.69-72.83,2.48c-2.26-4.85-6.68-14.54-8.94-19.39
			c-15.84,34.69-57.64,25.96-87.8,20.15c0.43-53.43-0.21-106.87-1.62-160.2l-1.29-15.84c16.81,54.84,8.94,113.23,13.25,169.68
			c7.97-2.37,23.92-7.11,31.89-9.48c22.95-36.31,38.14-76.92,58.71-114.73c1.72,40.51,2.59,80.91,2.69,121.41
			c7.33-0.22,21.87-0.75,29.19-0.97c32.75-57.42,58.39-119.26,98.14-172.48C2871.53,915.63,2879.29,906.36,2883.28,901.73z"/>
	</g>
	<g id="_x23_919191ff">
		<path class="st9" d="M784.99,411.66c10.77-12.17,21.87-24.02,33.5-35.44c-9.27,21.22-19.28,42.12-28.76,63.35l10.56-4.96
			c-10.88,8.83-17.45,30.6-32.21,30.16c1.94-15.84,4.42-31.57,7.33-47.19c-30.38,1.94-60.76,4.63-91.14,5.6l-4.2-5.06
			C715.07,416.94,750.08,415.11,784.99,411.66z"/>
	</g>
	<g id="_x23_828282ff">
		<path class="st10" d="M900.05,418.23c3.12-15.94,4.96-32.86,15.84-45.68c33.72,14.33,57.53,45.14,63.56,81.23
			c-8.3,20.04-16.81,39.86-24.13,60.22l0.32-9.7c-3.02-22.3-7.22-44.28-11.63-66.25c-5.71,4.74-17.24,14.33-22.95,19.07
			c-25.32-28.76-59.47-48.26-98.68-36.31C847.69,413.49,874.08,416.62,900.05,418.23z"/>
		<path class="st10" d="M271.97,501.51c28.98-6.89,57.96-13.57,86.94-20.58c-4.74,21.22-9.16,42.55-11.53,64.21
			c-2.26-4.09-6.79-12.17-9.05-16.27c-12.6-0.75-25.21-0.75-37.71-0.97C291.15,518.96,281.77,510.02,271.97,501.51z"/>
		<path class="st10" d="M304.4,573.04c14.33-3.99,29.2-7.43,41.91-15.73c-1.4,19.28-6.36,37.92-12.6,56.13
			c-17.67,0.65-35.12,1.51-52.57,2.48C289.1,601.81,296.64,587.26,304.4,573.04z"/>
		<path class="st10" d="M780.03,702.1c3.34-1.29,10.02-3.77,13.36-5.06c29.52,12.71,20.58,44.28,14.44,68.09
			c-13.47,5.28-26.72,10.77-40.08,16.16c-4.85-6.57-9.7-13.04-14.54-19.39c-4.09-4.2-12.28-12.6-16.38-16.91
			C755.04,734.96,768.18,718.8,780.03,702.1 M766.13,739.06C749.54,770.3,802.76,740.57,766.13,739.06z"/>
		<path class="st10" d="M3393.71,1051.8c7.97-8.51,16.48-16.81,25.32-24.78c18.53,21.87,3.23,51.28,3.23,76.38
			c-4.74-1.62-14.11-5.06-18.75-6.79c-3.99-14.33-7.76-28.76-11.2-43.2L3393.71,1051.8z"/>
	</g>
	<g id="_x23_5c5c5cff">
		<path class="st11" d="M1417.16,381.06c7.86-0.65,23.38-1.72,31.13-2.37c9.91,4.31,19.71,8.94,29.41,14.01
			c-4.42-0.54-13.25-1.62-17.56-2.15c0.65,10.02,1.4,20.04,2.15,30.16c-4.2,5.93-12.82,17.88-17.13,23.81
			c-4.96-4.52-14.76-13.68-19.61-18.21c2.05-5.6,6.25-16.81,8.3-22.3C1428.25,396.25,1422.65,388.61,1417.16,381.06z"/>
		<path class="st11" d="M596.57,612.8c5.06-0.11,15.41-0.32,20.58-0.43c-0.32,2.8-0.97,8.4-1.29,11.2
			c-4.74,4.85-14,14.65-18.64,19.5C570.82,643.07,575.88,619.04,596.57,612.8z"/>
	</g>
	<g id="_x23_7a7a7aff">
		<path class="st12" d="M2161.26,414.03c15.41-7.43,4.42-26.83,6.14-39.65c11.1,6.68,22.3,13.25,33.72,19.71
			c-4.09,18.53-8.08,37.06-11.2,55.8c-0.65,3.99-1.94,12.07-2.59,16.16c-10.13-13.04-17.13-29.84-31.89-38.35
			c-17.88-3.99-36.2-5.17-54.08-7.33l7-3.12C2125.82,415.43,2143.48,415.54,2161.26,414.03z"/>
		<path class="st12" d="M2757.45,510.88c9.91-16.59,21.33-32.21,34.04-46.86c-1.83,23.92-3.66,47.83-7.54,71.53
			C2775.01,527.36,2766.17,519.07,2757.45,510.88z"/>
	</g>
	<g id="_x23_717171ff">
		<path class="st13" d="M2294.09,384.19c4.09-2.26,12.07-6.79,16.05-9.16c17.35,11.1,33.94,23.49,46.76,39.86
			c-13.57,10.02-27.26,19.82-40.83,29.52c-16.38-22.19-43.74-20.9-68.09-23.27c1.29-2.37,3.99-6.89,5.28-9.26
			c11.96,1.19,35.77,3.34,47.72,4.42C2310.14,404.77,2299.26,394.32,2294.09,384.19z"/>
	</g>
	<g id="_x23_747474ff">
		<path class="st14" d="M2747.32,414.89c-3.34-13.04-6.46-26.07-9.59-39c11.96,5.93,24.02,11.85,36.2,17.88
			c1.18,19.5,2.48,39,4.09,58.5c-3.56,4.31-7,8.51-10.34,12.93c-11.64-39.86-53.33-52.47-90.39-41.48
			C2700.46,419.63,2723.83,417.59,2747.32,414.89z"/>
	</g>
	<g id="_x23_7c7c7cff">
		<path class="st15" d="M1460.14,390.55c4.31,0.54,13.14,1.62,17.56,2.15c38.14,23.7,46.32,74.44,28.55,113.44l-5.28,0.22
			c-19.07,1.08-38.24,2.26-57.21,3.45c3.66-6.46,10.77-19.39,14.33-25.86c11.96-0.65,23.92-1.29,36.09-1.94
			c0.22-10.34,0.43-20.79,0.86-31.13c-14.44,0.22-28.66,0.65-42.88,0.43l-7-6.79c4.31-5.93,12.93-17.88,17.13-23.81
			C1461.54,410.58,1460.79,400.56,1460.14,390.55z"/>
	</g>
	<g id="_x23_989898ff">
		<path class="st16" d="M1883.85,427.17c-4.74-13.47-9.16-26.93-12.6-40.72c16.05,12.17,34.37,23.49,42.88,42.66
			c22.19,47.4,6.46,98.36,1.29,147.27c-16.48-0.75-32.86-1.51-49.13-2.26c5.39-16.27,10.02-32.86,13.9-49.56
			c8.08-0.54,24.13-1.62,32.1-2.15c0-18.75,0-37.6,0.11-56.34c-14.97-1.51-29.95-3.02-44.71-4.63c-2.48-5.6-7.43-16.81-9.91-22.41
			C1866.4,435.04,1875.12,431.16,1883.85,427.17z"/>
		<path class="st16" d="M3517.71,392.38c14.44,16.38,29.73,33.18,35.98,54.73c10.99,27.58-2.26,56.02-7.11,83.49
			c-10.23,36.2-8.3,79.94-41.05,104.93c-7.22-19.18-6.46-39.43-1.94-58.93c7.76-38.24,12.39-80.91,43.85-108.05
			c-13.79-11.42-27.15-23.16-40.72-34.58C3510.38,420.06,3514.04,406.27,3517.71,392.38z"/>
		<path class="st16" d="M3949.5,661.27c17.24-61.41,17.99-129.49,54.3-183.9c4.85,8.94,9.91,17.88,15.19,26.72
			c-19.28,53.76-29.84,110.42-38.89,166.77c-33.4-3.77-66.79-5.93-100.19-7.54C3902.96,662.68,3926.23,661.92,3949.5,661.27z"/>
		<path class="st16" d="M3343.61,663.32c12.5-53.87,21.87-108.49,38.14-161.27c5.71,15.51,11.53,30.92,17.56,46.43
			c-9.26,35.77-17.56,71.86-22.84,108.49l-2.26,19.93C3364.08,672.16,3353.85,667.63,3343.61,663.32z"/>
		<path class="st16" d="M2002.79,658.69c10.88-50.63,18.31-102.24,33.5-151.79c8.3,3.02,24.67,8.94,32.97,11.96
			c-8.19,49.88-20.58,98.9-30.38,148.56c-7.54-0.65-22.73-1.72-30.38-2.37L2002.79,658.69z"/>
		<path class="st16" d="M2138.31,662.03c14.44-50.85,22.84-103.21,36.09-154.27c10.34,12.17,20.9,24.46,31.46,36.63
			c-10.77,40.4-19.61,81.12-27.47,122.17C2164.92,665.37,2151.56,663.54,2138.31,662.03z"/>
		<path class="st16" d="M2724.8,662.14c10.02-50.63,20.15-101.16,32.64-151.26c8.73,8.19,17.56,16.48,26.5,24.67
			c-8.73,47.4-19.18,94.59-34.37,140.37C2743.33,672.48,2731.05,665.58,2724.8,662.14z"/>
		<path class="st16" d="M2587.55,661.38c8.19-49.34,16.81-98.68,29.52-147.16c9.91,9.91,19.93,19.71,29.95,29.63
			c-10.02,38.24-16.48,77.24-26.5,115.38c-0.65,10.88-5.39,18.21-14.22,21.87C2601.56,676.14,2592.19,666.23,2587.55,661.38z"/>
		<path class="st16" d="M755.47,544.17c10.88-2.26,21.76-4.52,32.75-6.79c2.05,17.45,4.09,34.8,6.36,52.25
			c-2.37,2.8-7.11,8.51-9.37,11.31c-10.34-7.76-22.3-11.64-35.77-11.42C751.05,574.34,752.99,559.15,755.47,544.17z"/>
		<path class="st16" d="M1424.81,558.18c20.47-7.97,41.15-15.73,62.05-23.16c7,21.33,7,43.63,5.82,65.82
			c-19.61,1.94-39.32,3.99-58.82,6.14c2.37-2.48,6.89-7.33,9.26-9.8c9.37-7.86,19.28-15.41,29.3-22.73
			C1455.83,571.21,1438.7,568.41,1424.81,558.18z"/>
		<path class="st16" d="M3919.12,1089.18c5.17-29.63,11.53-59.14,23.59-86.83c3.23,32.53-0.65,65.18-6.25,97.17
			c-19.28-1.4-38.35-2.37-57.42-3.23C3892.29,1093.92,3905.65,1091.55,3919.12,1089.18z"/>
	</g>
	<g id="_x23_7e7e7eff">
		<path class="st17" d="M3386.17,417.91c8.19-7.54,16.7-14.97,25.1-22.52c0.75,15.08,1.62,30.16,2.59,45.14
			c-12.28,10.23-24.02,21.01-35.87,31.46c3.99-15.73,8.08-31.35,12.17-47.08c-31.24-0.22-62.48,0.22-93.62-0.97l-3.23-4.63
			C3324.22,418.77,3355.14,418.34,3386.17,417.91z"/>
	</g>
	<g id="_x23_7f7f7fff">
		<path class="st18" d="M3922.67,423.83c33.94-2.37,68.52-8.3,97.71-27.26c-0.86,8.62-2.48,25.96-3.34,34.58
			c6.79-1.29,20.36-3.77,27.15-5.06c-24.56,15.73-45.57,36.09-66.36,56.24c6.68-20.04,13.14-40.08,19.71-60.22
			C3972.44,422.43,3947.56,422.76,3922.67,423.83z"/>
	</g>
	<g id="_x23_4b4b4bff">
		<path class="st19" d="M4811.24,431.59c28.66-6.57,49.34-30.49,77.24-39.75c12.5,13.25,25.1,26.39,37.92,39.43
			c-74.01,37.6-107.3,136.6-78,212.02c35.98,53.33,109.35,14.11,141.02-24.56c-3.66,12.17-10.99,36.31-14.76,48.37
			c38.46-0.11,76.92-1.08,115.38,0.43c12.6,23.7-18.64,25.53-33.07,25.21c-50.96,2.05-102.24-5.6-152.55,4.74
			c-53.54,10.45-106.12-29.52-120.01-80.37c-6.68-52.36-2.26-106.33,23.38-153.41l-19.39-4.74l5.6-6.36
			c1.94-2.69,5.82-8.08,7.76-10.77c0.65-0.97,1.83-3.02,2.48-3.99l3.02-5.06L4811.24,431.59z"/>
		<path class="st19" d="M2729.65,901.3c51.07-2.37,102.35-1.62,153.63,0.43c-3.99,4.63-11.74,13.9-15.62,18.53
			c-18.96,0.22-37.81,0.32-56.45,0.43c3.56,5.39,10.67,16.16,14.22,21.55c-16.16,36.74-33.61,73.04-52.36,108.59
			c13.36-44.92,26.5-90.6,25.53-138c-18.75,3.56-37.49,7-56.24,10.23c-21.33,42.66-42.77,85.32-63.45,128.31
			c10.56-33.61,19.93-67.55,27.69-101.91c-7-4.42-20.9-13.25-27.9-17.67c9.59-2.15,28.66-6.25,38.14-8.3
			C2721.03,916.06,2725.23,908.63,2729.65,901.3z"/>
	</g>
	<g id="_x23_6f6f6fff">
		<path class="st20" d="M361.82,432.56c14.22-13.36,29.09-26.07,44.71-37.92c-0.75,7.54-2.15,22.73-2.91,30.38
			c-7.54,8.83-15.3,17.56-23.27,26.07c-13.36,6.89-27.26,12.93-40.94,19.18c-7-3.99-21.01-11.96-28.01-15.94
			c2.59-5.28,7.76-15.94,10.34-21.22C335.1,432.88,348.35,432.78,361.82,432.56z"/>
	</g>
	<g id="_x23_a9a9a9ff">
		<path class="st21" d="M4670.97,403.9l1.51,8.73c1.08,6.36,2.26,12.82,3.56,19.28c-4.74,20.47-9.7,40.83-15.41,60.98
			c-6.25-0.22-18.85-0.54-25.1-0.75c4.31-18.96,8.73-37.81,13.14-56.67c-6.25-1.83-18.75-5.6-24.89-7.43
			C4644.9,433.53,4663.54,425.02,4670.97,403.9z"/>
		<path class="st21" d="M3046.6,588.45c1.18-44.17,7.43-88.23,21.87-130.03c7.43,4.2,22.19,12.71,29.63,16.91
			c-8.3,26.5-13.47,53.76-18.53,81.01c-2.91,15.94-5.17,32.1-8.4,48.05C3065.02,600.41,3052.74,592.43,3046.6,588.45z"/>
		<path class="st21" d="M915.24,505.71c13.36-0.43,26.83-0.97,40.4-1.4l-0.32,9.7c-1.94,14.54-3.66,29.09-5.17,43.63
			c-17.56,5.6-35.23,10.99-52.68,16.38C903.92,551.39,909.31,528.44,915.24,505.71z"/>
		<path class="st21" d="M3760,517.78c9.05,1.94,27.04,5.71,35.98,7.54c8.51,24.89,17.45,49.66,27.15,74.23
			c-7.65,10.13-15.08,20.25-22.52,30.38C3783.37,594.05,3772.6,555.48,3760,517.78z"/>
		<path class="st21" d="M2890.6,647.59c8.83-16.48,27.26-23.05,44.49-26.83c-2.69,18.53-5.39,37.17-7.22,55.81
			c-7.54-3.23-22.62-9.8-30.16-13.04C2895.88,659.55,2892.33,651.58,2890.6,647.59z"/>
		<path class="st21" d="M3533.76,645.87c1.19-6.03,3.66-17.99,4.85-24.02c5.71,14.65,8.3,29.84,7.76,45.57
			c-3.34,4.09-10.13,12.17-13.47,16.27c-4.96-7.33-9.7-14.76-14.33-22.19c-1.72-3.23-5.17-9.7-6.9-12.93l4.09-16.27L3533.76,645.87z
			"/>
		<path class="st21" d="M3815.8,646.62c12.82-5.06,25.53-10.34,38.35-15.73c-2.8,12.07-5.49,24.13-8.08,36.2
			c-35.98-1.94-71.96-3.02-107.95-3.45c30.27-0.86,60.54-1.83,90.82-2.8C3825.71,657.29,3819.03,650.18,3815.8,646.62z"/>
		<path class="st21" d="M4017.8,980.38c3.56-1.83,10.56-5.71,14.11-7.65l6.79,9.8c-4.63,6.68-13.79,20.15-18.42,26.83
			c-2.37,29.3-6.79,58.61-16.27,86.51l-13.47-0.22C3998.62,1057.08,4007.99,1018.62,4017.8,980.38z"/>
	</g>
	<g id="_x23_767676ff">
		<path class="st22" d="M617.14,612.36c7.43-66.25,21.33-132.19,43.2-195.32c2.59,13.68,7,26.83,12.17,39.75
			c-6.14,49.88-24.02,98.14-23.38,148.89c-2.37,12.28-4.96,24.46-7.97,36.63c0.22-5.17,0.86-15.41,1.19-20.58
			c-6.68,0.43-19.93,1.4-26.5,1.83C616.17,620.77,616.82,615.17,617.14,612.36z"/>
		<path class="st22" d="M2174.4,507.76c10.23-15.94,21.87-31.03,34.69-45.03c2.05,27.15,3.77,54.94-3.23,81.66
			C2195.3,532.21,2184.74,519.93,2174.4,507.76z"/>
	</g>
	<g id="_x23_bdbdbdff">
		<path class="st23" d="M2316.07,444.41c13.57-9.7,27.26-19.5,40.83-29.52c3.12,35.55,4.42,71.43-4.09,106.44
			c-0.54-5.17-1.62-15.51-2.15-20.68c-8.08-2.15-24.35-6.46-32.43-8.62C2318.22,476.08,2317.47,460.25,2316.07,444.41z"/>
	</g>
	<g id="_x23_8d8d8dff">
		<path class="st24" d="M4112.17,414.57c4.74-1.08,14.11-3.45,18.85-4.52c-2.48,29.84-6.14,59.58-11.96,88.99
			c-6.25-1.83-18.53-5.49-24.78-7.33c4.85-22.84,9.7-45.68,15.51-68.3L4112.17,414.57z"/>
	</g>
	<g id="_x23_353535ff">
		<path class="st25" d="M4807.26,432.78c0.75-1.51,2.15-4.42,2.8-5.93l1.19,4.74L4807.26,432.78z"/>
	</g>
	<g id="_x23_cdcdcdff">
		<path class="st26" d="M2897.6,443.87c10.88-6.89,21.87-13.79,32.97-20.79c5.49,23.59,8.51,47.83,5.39,71.96
			c-8.83,0-26.29,0.11-35.01,0.11C2900.73,478.02,2899.65,460.89,2897.6,443.87z"/>
		<path class="st26" d="M1717.51,628.74c-0.75-35.87-5.93-72.4,3.77-107.62c0.43,5.49,1.51,16.38,2.05,21.87
			c11.96,16.81,23.49,34.04,33.07,52.47c-12.39,11.2-25.21,21.98-38.03,32.64L1717.51,628.74z"/>
	</g>
	<g id="_x23_545454ff">
		<path class="st27" d="M1076.19,459.92c16.59-8.3,37.81-32.21,54.4-10.56c16.48,34.15-15.73,70.24-49.66,73.37
			c-7-0.54-20.9-1.51-27.79-2.05c15.19-14.65,30.81-28.98,46.54-43.09C1091.81,471.67,1083.94,465.85,1076.19,459.92z"/>
	</g>
	<g id="_x23_898989ff">
		<path class="st28" d="M1074.25,458.52l1.94,1.4c7.76,5.93,15.62,11.74,23.49,17.67c-15.73,14.11-31.35,28.44-46.54,43.09
			c6.89,0.54,20.79,1.51,27.79,2.05c-11.2,2.91-22.41,5.71-33.61,8.51C1051.19,505.28,1061.97,481.36,1074.25,458.52z"/>
	</g>
	<g id="_x23_dcdcdcff">
		<path class="st29" d="M1867.69,461.43c14.76,1.62,29.73,3.12,44.71,4.63c-0.11,18.75-0.11,37.6-0.11,56.34
			c-7.97,0.54-24.02,1.62-32.1,2.15C1877.28,503.23,1873.51,482.12,1867.69,461.43z"/>
	</g>
	<g id="_x23_787878ff">
		<path class="st30" d="M2617.07,514.22c9.48-19.28,21.98-36.84,36.63-52.68c5.28,27.69,0.75,55.59-6.68,82.31
			C2637,533.94,2626.98,524.13,2617.07,514.22z"/>
	</g>
	<g id="_x23_737373ff">
		<path class="st31" d="M3381.75,502.05c7.43-10.02,15.19-19.71,23.38-29.09c2.69,6.36,7.86,19.07,10.56,25.42
			c-5.82,16.59-11.53,33.18-16.37,50.1C3393.28,532.97,3387.46,517.56,3381.75,502.05z"/>
	</g>
	<g id="_x23_797979ff">
		<path class="st32" d="M770.98,497.41c15.62-0.54,31.35-1.08,47.08-1.51c-1.51,32.43-7.54,65.07-23.49,93.73
			c-2.26-17.45-4.31-34.8-6.36-52.25c-10.99,2.26-21.87,4.52-32.75,6.79C761.07,528.66,766.13,513.14,770.98,497.41z"/>
	</g>
	<g id="_x23_656565ff">
		<path class="st33" d="M1443.77,509.8c18.96-1.19,38.14-2.37,57.21-3.45c-4.85,9.48-9.59,19.07-14.11,28.66
			c-20.9,7.43-41.58,15.19-62.05,23.16c-10.45-7-20.68-14.22-30.92-21.33C1410.8,528.44,1427.93,520.15,1443.77,509.8z"/>
	</g>
	<g id="_x23_9b9b9bff">
		<path class="st34" d="M3652.8,664.51c10.23-42.88,19.39-86.08,32.1-128.42c1.62,33.18,3.99,66.36,4.74,99.54
			c-0.32,8.62-1.08,25.75-1.51,34.26C3676.29,667.95,3664.55,666.02,3652.8,664.51z"/>
		<path class="st34" d="M2340.74,599.65c24.56,17.88,17.45,48.59,6.68,72.07c-44.71-11.96-91.36-13.36-137.14-7.65
			c3.02-11.85,5.93-23.59,8.94-35.44c-1.29,6.89-3.99,20.58-5.28,27.36c28.87,0.22,57.96,0.22,86.94,0.32l1.62-10.67
			c9.16-6.89,18.85-12.82,29.3-17.78C2334.06,620.77,2338.48,606.65,2340.74,599.65z"/>
	</g>
	<g id="_x23_676767ff">
		<path class="st35" d="M3202.05,556.02c8.62,0.11,25.86,0.43,34.47,0.54c-18.53,45.46-43.85,96.1-92.65,114.52
			c-13.47-3.02-26.82-5.93-40.18-8.73C3149.27,641.45,3186,603.96,3202.05,556.02z"/>
	</g>
	<g id="_x23_3f3f3fff">
		<path class="st36" d="M4393.24,556.24c18.75-7.97,39.43-5.6,59.47-4.74c11.85,11.96,24.24,23.38,37.06,34.58
			c-15.3,7-31.24,10.88-48.05,11.63c-10.77-8.73-21.87-17.24-32.97-25.21c-4.53-1.72-13.57-5.06-18.21-6.79L4393.24,556.24z"/>
	</g>
	<g id="_x23_5d5d5dff">
		<path class="st37" d="M1208.7,599.65c2.05-6.36,6.25-19.07,8.3-25.53c3.56,6.46,10.67,19.39,14.22,25.86
			c-3.56,16.91-7.11,33.83-10.67,50.85c-2.69,1.94-8.3,6.03-10.99,8.08c-26.5-10.23-50.31,6.14-72.83,17.67
			c-12.17-6.89-24.13-13.79-36.2-20.68c25.42-10.45,48.37-25.75,70.78-41.48c9.26,4.09,18.53,8.3,27.9,12.5
			c1.72-4.96,5.28-14.97,7-19.93L1208.7,599.65z"/>
		<path class="st37" d="M5065.92,660.09c-13.79-18.75-16.38-41.69-12.07-63.99c0,9.91,0.11,29.52,0.11,39.43
			c7-7.97,14.01-15.94,20.9-24.13c8.08,6.89,16.27,13.79,24.56,20.68l-3.88,3.34C5085.53,643.61,5075.72,651.79,5065.92,660.09z"/>
		<path class="st37" d="M3569.74,966.37c8.62-10.45,17.67-20.68,26.07-31.46c15.73,11.1,35.66,11.74,53.22,18.96
			c2.37,9.7,4.42,19.39,6.14,29.3c-27.15-8.3-55.37-14.54-83.92-10.23c10.56,7.11,21.55,13.79,32.64,20.47
			c-2.91,36.41-6.57,84.14-48.7,96.31c-2.59-29.73-1.29-60.11,12.61-87.16C3568.23,990.39,3568.56,978.33,3569.74,966.37z"/>
		<path class="st37" d="M4325.91,1096.62c9.16-40.4,4.09-100.51,54.08-114.3c-2.59,29.52-7.33,58.82-15.08,87.37
			c-3.45,11.85-7.11,23.7-10.67,35.44l-2.15,6.68l-14.76-2.26c-21.44-3.45-42.55-7.65-63.67-11.96c3.88-7.43,11.64-22.3,15.51-29.73
			c-1.51,7.43-4.42,22.19-5.93,29.63C4293.91,1097.26,4315.24,1096.83,4325.91,1096.62z"/>
	</g>
	<g id="_x23_aaaaaaff">
		<path class="st38" d="M1206.22,606.98c-31.89,22.3-26.83-28.12,2.48-7.33L1206.22,606.98z"/>
	</g>
	<g id="_x23_9a9a9aff">
		<path class="st39" d="M615.85,623.57c6.57-0.43,19.82-1.4,26.5-1.83c-0.32,5.17-0.97,15.41-1.19,20.58
			c-1.83,6.57-5.39,19.93-7.22,26.5c-9.7-1.83-29.2-5.49-38.89-7.43c-31.46-6.36-63.45-3.12-94.8,1.62
			c2.69-11.2,5.39-22.52,8.08-33.72c-1.19,5.82-3.66,17.56-4.85,23.49c31.03-0.11,66.79,11.42,93.73-9.7
			C601.84,638.22,611.11,628.42,615.85,623.57z"/>
		<path class="st39" d="M3526.65,912.5c28.23-1.29,56.67-4.63,83.06-15.62c-3.45,9.48-10.45,28.44-13.9,38.03
			c-8.4,10.77-17.45,21.01-26.07,31.46c2.37-17.99,5.6-35.87,8.94-53.65c-16.05,4.31-32,8.51-47.62,13.47
			C3529.99,922.74,3527.73,915.95,3526.65,912.5z"/>
	</g>
	<g id="_x23_a2a2a2ff">
		<path class="st40" d="M734.68,649.75c12.39,3.66,24.78,7.22,37.28,10.56c-6.68,0.22-20.15,0.86-26.93,1.08
			c8.62,13.9,17.99,27.58,24.24,42.88c-11.64,10.34-24.99,18.53-38.03,27.04C724.77,704.15,727.89,676.46,734.68,649.75z"/>
	</g>
	<g id="_x23_424242ff">
		<path class="st41" d="M2622.89,901.52c32.32-2.15,65.61-5.93,97.07,4.96c-25.64,18.75-58.28,13.9-87.91,13.57l1.72,6.79
			l1.29,15.84l-14.33,2.15C2621.27,930.39,2622.03,915.95,2622.89,901.52z"/>
	</g>
	<g id="_x23_525252ff">
		<path class="st42" d="M4169.48,904.32c29.73-0.54,64.85-12.28,89.63,10.56l-5.39,12.28c-28.87-3.66-62.38-13.47-85.65,10.23
			c-35.77,35.23-49.88,92.97-35.44,140.81c21.98,34.58,67.55,17.13,94.59-1.51c5.17-2.69,15.62-8.19,20.9-10.99
			c-16.48,51.82-105.04,67.98-132.4,18.64c-5.92-18.31-7.22-37.81-10.23-56.67l-12.5-10.13c0.11-2.8,0.32-8.51,0.32-11.31
			c2.05-2.37,6.14-7.11,8.08-9.48l11.53-8.3C4126.07,956.89,4143.95,927.48,4169.48,904.32z"/>
	</g>
	<g id="_x23_555555ff">
		<path class="st43" d="M4446.68,905.07c28.98-14.87,81.55-23.81,100.51,8.62c-23.05,1.08-45.89,1.72-68.84,2.15
			c6.57,57.1-17.45,111.29-26.93,166.77c-4.96,7.22-10.02,14.22-15.19,21.12l-13.36,6.03c1.94-7.65,5.71-22.73,7.54-30.38
			C4438.81,1021.85,4470.49,962.49,4446.68,905.07z"/>
	</g>
	<g id="_x23_3c3c3cff">
		<path class="st44" d="M3887.44,948.06c59.04-11.42,118.94,5.39,178.19-3.45c18.64-5.39,28.12,13.9,38.03,25.64
			c-24.02-0.22-48.05-1.51-71.75,2.48c-3.55,1.94-10.56,5.82-14.11,7.65c-4.63-2.59-14-7.97-18.75-10.67
			c-33.83-18.64-73.26-11.53-108.81-3.23c2.15,4.96,6.36,14.97,8.51,20.04l2.59,6.79c-4.63,34.91-14.11,68.84-22.3,102.99
			c19.07,0.86,38.14,1.83,57.42,3.23c50.1,5.71,100.51,3.88,150.72-1.29l8.19,1.08l-1.08,10.13c-76.7,6.03-155.03,0.86-232.27,2.48
			c0.43-36.31,9.59-71.43,18.85-106.22C3876.35,986.62,3864.17,960.01,3887.44,948.06z"/>
	</g>
	<g id="_x23_939393ff">
		<path class="st45" d="M3211.43,969.28c26.72-6.89,54.4-9.05,81.77-12.93l10.13-1.19c-0.75,16.7-1.62,33.5-2.91,50.31
			c-5.06,2.48-15.08,7.65-20.15,10.23c2.15-7.33,6.46-21.98,8.51-29.2c-15.3-6.14-30.6-12.17-45.68-18.31l-0.11,18.53
			c-3.23-1.83-9.91-5.49-13.14-7.33C3225.22,976.93,3216.06,971.87,3211.43,969.28z"/>
	</g>
	<g id="_x23_707070ff">
		<path class="st46" d="M3792.53,967.88c4.31-7.76,8.73-15.3,13.47-22.84c3.02,7.33,9.05,22.19,12.07,29.52
			c-26.61,58.61-64.21,112.36-106.44,160.74c-6.79,1.51-20.36,4.74-27.15,6.36C3724.45,1086.92,3777.56,1036.07,3792.53,967.88z"/>
	</g>
	<g id="_x23_969696ff">
		<path class="st47" d="M4273.34,965.08c0.32,2.15,1.19,6.57,1.51,8.83c-0.21,8.73-0.43,17.45-0.86,26.18
			c-6.46,21.33-14.11,42.34-21.55,63.35l-4.31,2.26c-5.28,2.8-15.73,8.3-20.9,10.99C4242.53,1039.52,4256.96,1001.92,4273.34,965.08
			z"/>
	</g>
	<g id="_x23_e2e2e2ff">
		<path class="st48" d="M3243.1,968.2c15.08,6.14,30.38,12.17,45.68,18.31c-2.05,7.22-6.36,21.87-8.51,29.2
			c-14.44,6.14-28.76,14.97-44.92,14.01c-4.31-4.42-13.04-13.25-17.34-17.56l19.5,10.23c1.4-8.83,4.09-26.72,5.49-35.66
			L3243.1,968.2z"/>
	</g>
	<g id="_x23_959595ff">
		<path class="st49" d="M4878.57,969.82l11.85-1.51c-1.51,7.11-4.42,21.44-5.92,28.55c-1.19,4.52-3.34,13.68-4.52,18.21
			c-4.52,18.75-8.51,37.71-12.39,56.67c5.28,12.17,10.67,24.35,16.05,36.63l-10.34-1.08c-17.99-1.94-35.66-4.52-53-8.83
			c8.08-1.72,24.24-5.28,32.32-7.11C4859.07,1050.4,4866.4,1009.57,4878.57,969.82z"/>
	</g>
	<g id="_x23_999999ff">
		<path class="st50" d="M4401.11,1092.85c1.62-34.8,4.31-71.96,27.9-99.76c0.75,28.76-6.46,56.67-14.44,84.03
			c3.99,0.54,11.85,1.72,15.84,2.26c-1.83,7.65-5.6,22.73-7.54,30.38c-22.95-2.05-45.89-3.12-68.62-4.63
			c3.55-11.74,7.22-23.59,10.67-35.44c-1.4,5.82-4.2,17.34-5.71,23.05C4369.76,1092.85,4390.66,1092.85,4401.11,1092.85z"/>
	</g>
	<g id="_x23_878787ff">
		<path class="st51" d="M4484.92,1095.76c6.46-30.49,15.3-60.44,25.75-89.85c-0.11,4.2-0.21,12.6-0.21,16.91
			c0,1.51,0.11,4.52,0.11,6.03c0.97,7.86,2.15,15.62,3.66,23.38c0,15.08,0,30.16-0.22,45.25c-25.53,12.17-53.87,12.07-81.34,10.99
			l3.56-4.74c5.17-6.89,10.23-13.9,15.19-21.12l2.8,10.34C4461.98,1093.71,4477.27,1095,4484.92,1095.76z"/>
	</g>
</g>
</svg>
