<?xml version="1.0" encoding="UTF-8" ?>
<!DOCTYPE svg PUBLIC "-//W3C//DTD SVG 1.1//EN" "http://www.w3.org/Graphics/SVG/1.1/DTD/svg11.dtd">
<svg width="639pt" height="256pt" viewBox="0 0 639 256" version="1.1" xmlns="http://www.w3.org/2000/svg">
<g id="#000000ff">
</g>
<g id="#f6f6f6ff">
<path fill="#f6f6f6" opacity="1.00" d=" M 114.21 3.25 C 140.56 0.23 167.86 5.84 190.80 19.16 C 215.30 33.16 234.79 55.66 245.17 81.89 C 253.29 101.96 255.63 124.13 252.84 145.53 C 249.05 173.36 235.46 199.69 215.11 219.03 C 196.37 237.12 171.81 249.09 146.00 252.65 C 120.71 256.29 94.32 252.04 71.56 240.39 C 47.80 228.40 28.09 208.63 16.09 184.88 C 3.83 160.83 -0.40 132.71 4.51 106.15 C 9.65 76.53 26.04 49.10 49.48 30.33 C 67.88 15.36 90.64 5.86 114.21 3.25 M 77.31 24.15 C 81.67 27.36 84.96 32.38 84.44 37.98 C 85.01 45.55 78.89 52.19 71.79 53.83 C 63.18 56.26 52.48 53.40 48.19 45.04 C 24.87 66.93 11.88 99.07 12.61 130.98 C 13.24 149.92 18.22 168.87 27.87 185.24 C 35.11 178.00 42.28 170.69 49.61 163.55 C 49.78 132.68 49.62 101.79 49.69 70.92 C 49.78 70.55 49.96 69.81 50.05 69.44 C 60.56 69.19 71.09 69.39 81.61 69.36 C 81.69 89.99 81.58 110.61 81.67 131.24 C 84.15 128.95 86.54 126.55 88.89 124.12 C 88.77 106.03 88.86 87.93 88.85 69.84 C 97.24 69.79 105.63 69.87 114.03 69.80 C 115.60 69.89 117.29 69.58 118.76 70.26 C 119.66 75.15 120.13 80.11 120.83 85.04 C 125.17 80.24 130.18 75.94 136.13 73.25 C 138.76 71.87 141.88 71.24 144.04 69.08 C 157.76 55.31 171.54 41.59 185.27 27.83 C 168.68 17.86 149.24 12.98 129.96 12.53 C 111.77 12.16 93.80 16.68 77.31 24.15 M 223.43 64.33 C 217.52 69.99 211.87 75.92 206.04 81.66 C 198.71 88.64 191.69 95.96 184.62 103.21 C 168.35 119.31 152.28 135.61 136.01 151.71 L 135.68 151.39 C 133.64 154.07 131.25 156.46 128.82 158.78 C 115.02 172.18 101.63 186.02 87.67 199.24 L 87.68 199.71 C 80.68 207.33 73.15 214.45 65.84 221.78 C 65.18 222.58 63.89 223.24 64.32 224.47 C 71.54 229.49 79.60 233.09 87.61 236.66 C 88.06 226.82 87.67 216.96 87.83 207.11 C 90.89 202.81 94.88 199.33 98.54 195.56 C 106.15 188.35 113.04 180.37 121.12 173.67 C 121.29 191.78 121.15 209.88 121.20 227.99 C 120.89 233.16 120.68 238.33 120.77 243.52 C 135.93 244.48 151.31 242.63 165.67 237.60 C 193.17 228.30 216.76 208.14 230.34 182.49 C 239.23 165.84 244.12 146.95 243.79 128.05 C 244.14 105.46 236.97 83.02 224.62 64.20 C 224.32 64.23 223.73 64.30 223.43 64.33 Z" />
<path fill="#f6f6f6" opacity="1.00" d=" M 193.86 101.90 C 199.50 96.54 204.65 90.62 211.01 86.07 C 233.74 108.57 232.94 149.77 209.37 171.38 C 193.28 186.01 169.94 189.82 149.03 186.33 C 138.69 184.37 127.79 180.59 121.12 171.97 C 121.48 169.22 123.38 167.15 125.40 165.42 C 129.78 161.67 133.43 157.15 138.06 153.69 C 153.32 163.19 175.59 161.60 187.83 147.86 C 197.70 137.03 198.16 119.22 188.92 107.86 C 190.42 105.76 191.99 103.69 193.86 101.90 Z" />
</g>
<g id="#a3cf00ff">
<path fill="#a3cf00" opacity="1.00" d=" M 77.31 24.15 C 93.80 16.68 111.77 12.16 129.96 12.53 C 149.24 12.98 168.68 17.86 185.27 27.83 C 171.54 41.59 157.76 55.31 144.04 69.08 C 141.88 71.24 138.76 71.87 136.13 73.25 C 130.18 75.94 125.17 80.24 120.83 85.04 C 120.13 80.11 119.66 75.15 118.76 70.26 C 117.29 69.58 115.60 69.89 114.03 69.80 C 105.63 69.87 97.24 69.79 88.85 69.84 C 88.86 87.93 88.77 106.03 88.89 124.12 C 86.54 126.55 84.15 128.95 81.67 131.24 C 81.58 110.61 81.69 89.99 81.61 69.36 C 71.09 69.39 60.56 69.19 50.05 69.44 C 49.96 69.81 49.78 70.55 49.69 70.92 C 49.62 101.79 49.78 132.68 49.61 163.55 C 42.28 170.69 35.11 178.00 27.87 185.24 C 18.22 168.87 13.24 149.92 12.61 130.98 C 11.88 99.07 24.87 66.93 48.19 45.04 C 52.48 53.40 63.18 56.26 71.79 53.83 C 78.89 52.19 85.01 45.55 84.44 37.98 C 84.96 32.38 81.67 27.36 77.31 24.15 Z" />
<path fill="#a3cf00" opacity="1.00" d=" M 516.36 53.57 C 523.44 50.80 532.51 54.84 534.65 62.28 C 536.69 68.52 532.26 75.35 526.25 77.30 C 518.68 80.38 508.50 75.44 507.56 67.00 C 506.61 61.07 510.89 55.45 516.36 53.57 Z" />
<path fill="#a3cf00" opacity="1.00" d=" M 223.43 64.33 C 223.73 64.30 224.32 64.23 224.62 64.20 C 236.97 83.02 244.14 105.46 243.79 128.05 C 244.12 146.95 239.23 165.84 230.34 182.49 C 216.76 208.14 193.17 228.30 165.67 237.60 C 151.31 242.63 135.93 244.48 120.77 243.52 C 120.68 238.33 120.89 233.16 121.20 227.99 C 121.15 209.88 121.29 191.78 121.12 173.67 C 121.12 173.25 121.12 172.40 121.12 171.97 C 127.79 180.59 138.69 184.37 149.03 186.33 C 169.94 189.82 193.28 186.01 209.37 171.38 C 232.94 149.77 233.74 108.57 211.01 86.07 C 209.43 84.51 207.73 83.09 206.04 81.66 C 211.87 75.92 217.52 69.99 223.43 64.33 Z" />
<path fill="#a3cf00" opacity="1.00" d=" M 136.01 151.71 C 152.28 135.61 168.35 119.31 184.62 103.21 C 186.07 104.74 187.55 106.25 188.92 107.86 C 198.16 119.22 197.70 137.03 187.83 147.86 C 175.59 161.60 153.32 163.19 138.06 153.69 C 137.36 153.04 136.68 152.38 136.01 151.71 Z" />
<path fill="#a3cf00" opacity="1.00" d=" M 87.68 199.71 C 87.77 202.18 87.82 204.64 87.83 207.11 C 87.67 216.96 88.06 226.82 87.61 236.66 C 79.60 233.09 71.54 229.49 64.32 224.47 C 63.89 223.24 65.18 222.58 65.84 221.78 C 73.15 214.45 80.68 207.33 87.68 199.71 Z" />
</g>
<g id="#ddddddff">
<path fill="#dddddd" opacity="1.00" d=" M 184.62 103.21 C 191.69 95.96 198.71 88.64 206.04 81.66 C 207.73 83.09 209.43 84.51 211.01 86.07 C 204.65 90.62 199.50 96.54 193.86 101.90 C 191.99 103.69 190.42 105.76 188.92 107.86 C 187.55 106.25 186.07 104.74 184.62 103.21 Z" />
<path fill="#dddddd" opacity="1.00" d=" M 423.59 87.77 C 435.19 86.31 447.41 87.59 457.84 93.15 C 468.01 98.48 475.96 108.07 478.82 119.25 C 482.74 133.49 478.74 149.79 468.15 160.21 C 459.21 169.08 446.45 173.25 434.02 173.31 C 420.39 173.82 405.98 169.70 396.40 159.60 C 381.38 144.36 381.16 117.31 395.84 101.77 C 402.98 93.90 413.17 89.27 423.59 87.77 M 426.38 106.58 C 418.42 108.15 411.60 114.23 409.13 121.95 C 406.40 130.60 407.90 140.98 414.47 147.55 C 422.22 155.32 435.08 156.35 444.74 151.76 C 452.46 148.02 457.13 139.51 457.26 131.08 C 457.59 122.21 452.62 113.37 444.84 109.08 C 439.26 106.06 432.56 105.06 426.38 106.58 Z" />
<path fill="#dddddd" opacity="1.00" d=" M 312.34 99.78 C 320.18 92.69 330.26 87.58 341.02 87.58 C 351.96 87.11 363.34 90.97 370.85 99.14 C 377.91 106.54 380.91 116.94 381.16 126.98 C 381.26 141.82 381.12 156.66 381.23 171.50 C 373.57 171.73 365.91 171.53 358.26 171.61 C 358.22 156.74 358.25 141.87 358.25 127.01 C 358.17 120.05 354.80 112.85 348.60 109.34 C 341.47 105.31 332.29 105.22 325.05 109.01 C 317.80 112.81 313.08 120.79 313.17 128.96 C 313.18 143.15 313.14 157.35 313.19 171.54 C 305.62 171.67 298.05 171.58 290.48 171.59 C 290.48 143.95 290.46 116.31 290.49 88.67 C 297.32 88.70 304.16 88.65 310.99 88.70 C 311.36 92.40 311.77 96.10 312.34 99.78 Z" />
<path fill="#dddddd" opacity="1.00" d=" M 509.35 88.47 C 516.98 88.50 524.61 88.39 532.24 88.53 C 532.18 116.21 532.20 143.89 532.23 171.57 C 524.60 171.63 516.97 171.59 509.35 171.60 C 509.34 143.89 509.34 116.18 509.35 88.47 Z" />
<path fill="#dddddd" opacity="1.00" d=" M 560.39 99.89 C 565.76 93.30 573.74 89.30 582.00 87.75 C 597.54 85.31 614.82 89.48 625.73 101.30 C 641.53 117.76 640.44 147.15 623.40 162.34 C 612.81 171.81 597.79 174.71 583.98 173.13 C 575.25 172.18 566.13 169.18 560.32 162.24 C 560.27 176.87 560.32 191.50 560.29 206.13 C 552.74 206.13 545.19 206.13 537.65 206.13 C 537.63 167.05 537.65 127.97 537.64 88.90 C 544.68 88.89 551.73 88.89 558.77 88.90 C 559.30 92.56 559.82 96.23 560.39 99.89 M 580.61 107.83 C 574.69 109.26 569.04 112.68 565.85 117.97 C 560.65 126.17 561.36 137.72 567.88 145.00 C 578.10 156.62 598.67 156.59 608.75 144.79 C 616.51 136.00 615.56 121.05 606.70 113.34 C 599.70 107.10 589.49 105.87 580.61 107.83 Z" />
<path fill="#dddddd" opacity="1.00" d=" M 483.01 116.30 C 489.12 116.31 495.23 116.20 501.33 116.37 C 501.19 125.61 501.31 134.86 501.27 144.10 C 495.18 144.02 489.10 143.97 483.01 144.08 C 487.24 135.43 487.92 124.84 483.01 116.30 Z" />
<path fill="#dddddd" opacity="1.00" d=" M 128.82 158.78 C 131.25 156.46 133.64 154.07 135.68 151.39 L 136.01 151.71 C 136.68 152.38 137.36 153.04 138.06 153.69 C 133.43 157.15 129.78 161.67 125.40 165.42 C 123.38 167.15 121.48 169.22 121.12 171.97 C 121.12 172.40 121.12 173.25 121.12 173.67 C 113.04 180.37 106.15 188.35 98.54 195.56 C 94.88 199.33 90.89 202.81 87.83 207.11 C 87.82 204.64 87.77 202.18 87.68 199.71 L 87.67 199.24 C 101.63 186.02 115.02 172.18 128.82 158.78 Z" />
</g>
</svg>
