<?xml version="1.0" encoding="UTF-8" ?>
<!DOCTYPE svg PUBLIC "-//W3C//DTD SVG 1.1//EN" "http://www.w3.org/Graphics/SVG/1.1/DTD/svg11.dtd">
<svg width="198pt" height="38pt" viewBox="0 0 198 38" version="1.1" xmlns="http://www.w3.org/2000/svg">
<path fill="#ff9800" opacity="1.00" d=" M 2.28 8.08 C 6.78 7.10 11.44 7.78 16.01 7.62 C 20.89 7.80 25.86 7.09 30.68 8.05 C 32.86 9.93 31.77 13.20 32.13 15.72 C 28.34 15.70 24.55 15.67 20.76 15.66 C 21.54 13.78 22.52 11.98 23.25 10.07 C 21.69 11.13 18.72 11.51 18.92 13.97 C 18.37 17.30 22.55 17.17 24.69 18.05 C 24.66 19.35 24.63 20.66 24.60 21.97 C 22.90 22.44 21.17 22.82 19.55 23.53 C 17.29 25.02 17.52 28.80 19.72 30.23 C 21.41 30.91 23.27 30.93 25.04 31.25 C 23.25 29.76 21.28 28.52 19.36 27.23 C 21.68 22.40 27.91 24.81 32.13 24.26 C 31.77 26.78 32.85 30.04 30.70 31.94 C 25.85 32.92 20.85 32.19 15.93 32.39 C 11.38 32.22 6.73 32.91 2.26 31.91 C 0.16 29.99 1.23 26.77 0.88 24.25 C 4.62 24.29 8.44 23.96 12.12 24.79 C 12.43 25.78 12.75 26.77 13.09 27.76 C 11.35 28.89 9.60 29.99 7.93 31.22 C 9.70 30.91 11.56 30.91 13.26 30.24 C 15.42 28.79 15.73 25.02 13.46 23.53 C 11.82 22.82 10.08 22.43 8.37 21.96 C 8.36 20.66 8.36 19.35 8.35 18.04 C 10.56 17.16 14.49 17.40 14.06 14.03 C 14.43 10.31 9.71 11.02 7.36 10.47 C 9.19 11.90 11.00 13.36 12.57 15.07 C 8.73 15.92 4.78 15.78 0.88 15.75 C 1.23 13.23 0.16 9.99 2.28 8.08 Z" />
<path fill="#ffc93f" opacity="1.00" d=" M 7.36 10.47 C 9.71 11.02 14.43 10.31 14.06 14.03 C 14.49 17.40 10.56 17.16 8.35 18.04 C 8.36 19.35 8.36 20.66 8.37 21.96 C 10.08 22.43 11.82 22.82 13.46 23.53 C 15.73 25.02 15.42 28.79 13.26 30.24 C 11.56 30.91 9.70 30.91 7.93 31.22 C 9.60 29.99 11.35 28.89 13.09 27.76 C 12.75 26.77 12.43 25.78 12.12 24.79 C 8.44 23.96 4.62 24.29 0.88 24.25 C 0.90 23.80 0.93 22.89 0.95 22.43 C 2.84 22.29 4.73 22.14 6.62 21.99 C 6.62 20.66 6.62 19.33 6.62 18.00 C 4.73 17.85 2.84 17.70 0.95 17.55 C 0.93 17.10 0.90 16.20 0.88 15.75 C 4.78 15.78 8.73 15.92 12.57 15.07 C 11.00 13.36 9.19 11.90 7.36 10.47 Z" />
<path fill="#ffc93f" opacity="1.00" d=" M 18.92 13.97 C 18.72 11.51 21.69 11.13 23.25 10.07 C 22.52 11.98 21.54 13.78 20.76 15.66 C 24.55 15.67 28.34 15.70 32.13 15.72 C 32.11 16.18 32.07 17.09 32.05 17.54 C 30.17 17.69 28.29 17.84 26.41 17.99 C 26.38 19.32 26.34 20.64 26.30 21.97 C 28.22 22.14 30.13 22.30 32.05 22.46 C 32.07 22.91 32.11 23.81 32.13 24.26 C 27.91 24.81 21.68 22.40 19.36 27.23 C 21.28 28.52 23.25 29.76 25.04 31.25 C 23.27 30.93 21.41 30.91 19.72 30.23 C 17.52 28.80 17.29 25.02 19.55 23.53 C 21.17 22.82 22.90 22.44 24.60 21.97 C 24.63 20.66 24.66 19.35 24.69 18.05 C 22.55 17.17 18.37 17.30 18.92 13.97 Z" />
<path fill="#c4c4c3" opacity="1.00" d=" M 39.54 14.50 C 40.88 11.61 44.43 12.01 47.06 11.75 C 51.37 15.27 51.29 22.61 47.17 26.25 C 44.29 26.10 40.25 26.27 39.24 22.81 C 38.80 20.10 38.54 17.11 39.54 14.50 M 41.12 15.23 C 40.33 17.65 40.30 20.36 41.13 22.78 C 42.21 23.82 43.53 24.54 44.76 25.37 C 49.87 23.13 49.87 14.96 44.84 12.62 C 43.57 13.44 42.21 14.16 41.12 15.23 Z" />
<path fill="#c4c4c3" opacity="1.00" d=" M 53.10 11.35 C 57.45 14.11 59.32 19.20 62.47 23.08 C 62.41 19.39 62.39 15.69 62.40 12.00 L 64.00 12.00 C 63.97 16.89 64.09 21.78 63.94 26.67 C 59.84 23.88 58.02 19.03 54.94 15.30 C 54.87 18.86 54.87 22.42 54.89 25.98 C 54.42 25.99 53.47 26.01 53.00 26.02 C 53.03 21.13 52.89 16.24 53.10 11.35 Z" />
<path fill="#c4c4c3" opacity="1.00" d=" M 67.00 11.99 C 67.47 11.99 68.42 12.01 68.89 12.01 C 68.88 16.34 68.88 20.66 68.89 24.99 C 71.22 24.98 73.56 25.00 75.90 24.99 L 75.92 26.01 C 72.94 26.01 69.97 26.01 67.00 26.01 C 67.00 21.33 67.00 16.66 67.00 11.99 Z" />
<path fill="#c4c4c3" opacity="1.00" d=" M 78.00 11.99 C 78.47 11.99 79.41 12.00 79.88 12.01 C 79.88 16.66 79.88 21.32 79.89 25.98 C 79.42 25.99 78.47 26.01 78.00 26.02 C 78.00 21.34 78.00 16.67 78.00 11.99 Z" />
<path fill="#c4c4c3" opacity="1.00" d=" M 83.10 11.35 C 87.46 14.10 89.31 19.21 92.49 23.07 C 92.41 19.38 92.39 15.68 92.41 11.98 L 94.00 12.00 C 93.97 16.89 94.09 21.78 93.94 26.67 C 89.84 23.88 88.02 19.03 84.94 15.31 C 84.87 18.86 84.87 22.41 84.89 25.97 C 84.42 25.98 83.47 26.01 83.00 26.03 C 83.03 21.14 82.89 16.24 83.10 11.35 Z" />
<path fill="#c4c4c3" opacity="1.00" d=" M 97.12 11.99 C 100.26 11.99 103.41 11.99 106.55 11.99 L 106.62 13.01 C 104.08 13.00 101.54 13.01 99.00 13.00 C 99.00 14.65 99.00 16.29 99.00 17.94 C 101.58 17.96 104.25 17.72 106.69 18.75 C 104.14 19.08 101.57 19.05 99.00 19.04 C 99.00 21.02 99.00 23.00 99.00 24.98 C 101.92 24.96 104.85 24.87 107.75 25.26 C 104.35 26.53 100.66 25.94 97.12 26.00 C 97.11 21.33 97.11 16.66 97.12 11.99 Z" />
<path fill="#c4c4c3" opacity="1.00" d=" M 116.20 11.92 C 117.78 11.96 119.38 11.91 120.96 12.13 C 123.03 12.56 123.63 14.92 124.49 16.52 C 121.80 14.67 118.17 11.05 115.43 14.97 C 115.58 15.40 115.89 16.27 116.05 16.71 C 118.73 18.04 121.64 18.92 124.15 20.61 C 124.12 21.53 124.07 23.37 124.04 24.29 C 120.51 27.26 113.92 26.88 112.85 21.62 C 115.64 23.34 118.64 26.04 122.05 24.06 C 122.05 23.30 122.05 21.78 122.05 21.03 C 118.65 19.61 113.33 18.98 113.69 14.12 C 114.53 13.39 115.36 12.65 116.20 11.92 Z" />
<path fill="#c4c4c3" opacity="1.00" d=" M 126.06 11.43 C 127.23 12.00 128.63 12.50 128.98 13.92 C 130.43 17.07 131.64 20.34 133.28 23.40 C 135.54 19.46 135.76 13.85 139.95 11.37 C 140.08 16.24 139.97 21.12 140.00 26.00 L 138.40 26.00 C 138.38 22.32 138.40 18.65 138.56 14.98 C 136.96 18.67 135.63 22.50 133.73 26.06 C 133.41 26.02 132.75 25.93 132.43 25.88 C 130.59 22.41 129.26 18.70 127.70 15.09 C 127.92 18.73 127.91 22.38 127.88 26.03 L 126.00 26.00 C 126.02 21.14 125.92 16.29 126.06 11.43 Z" />
<path fill="#c4c4c3" opacity="1.00" d=" M 143.00 15.02 C 144.35 9.97 153.46 10.98 153.43 16.50 C 150.98 14.52 148.26 11.93 144.97 13.94 C 144.98 14.66 145.00 16.12 145.01 16.85 C 147.66 17.89 150.63 18.44 152.86 20.32 C 153.17 22.13 153.55 24.58 151.52 25.54 C 147.97 27.03 142.75 26.12 142.32 21.52 C 144.89 23.11 147.99 26.68 151.03 23.82 C 153.10 18.34 142.22 20.65 143.00 15.02 Z" />
<path fill="#c4c4c3" opacity="1.00" d=" M 161.26 13.21 C 163.85 11.04 168.79 11.32 170.29 14.67 C 172.05 18.54 171.16 23.27 168.07 26.21 C 165.63 25.89 162.47 26.59 160.83 24.26 C 158.76 21.02 158.77 16.22 161.26 13.21 M 165.17 12.70 C 162.93 14.05 160.62 16.04 160.99 18.96 C 160.58 21.91 162.90 23.96 165.19 25.30 C 166.47 24.48 167.76 23.68 169.04 22.85 C 169.08 20.28 169.09 17.72 169.04 15.16 C 167.78 14.29 166.44 13.55 165.17 12.70 Z" />
<path fill="#c4c4c3" opacity="1.00" d=" M 173.41 12.00 C 176.05 11.99 178.68 11.97 181.32 11.91 C 182.25 13.25 183.14 14.63 184.03 16.00 C 183.05 17.49 182.04 18.97 181.01 20.42 C 182.14 22.44 183.27 24.46 184.23 26.56 C 181.26 25.55 180.22 22.44 178.71 20.01 C 177.47 20.00 176.24 20.00 175.00 20.00 C 175.00 22.00 175.00 24.00 175.01 26.00 L 173.41 26.00 C 173.40 21.34 173.40 16.67 173.41 12.00 M 175.01 12.90 C 175.01 14.96 175.00 17.02 175.01 19.08 C 177.45 18.93 180.45 19.20 181.93 16.76 C 182.46 13.17 177.54 12.94 175.01 12.90 Z" />
<path fill="#c4c4c3" opacity="1.00" d=" M 188.93 11.82 C 190.82 11.98 192.78 11.80 194.63 12.34 C 196.22 13.17 196.69 15.05 197.48 16.51 C 195.54 15.37 193.71 14.06 191.86 12.79 C 190.52 13.50 189.26 14.33 187.94 15.06 C 188.18 18.09 186.80 22.28 189.89 24.24 C 191.43 25.49 193.39 24.43 195.09 24.24 C 195.10 22.94 195.11 21.65 195.11 20.36 C 193.60 20.03 192.12 19.64 190.65 19.18 C 192.79 18.99 194.95 18.95 197.10 18.91 C 196.72 21.19 197.98 24.94 195.01 25.81 C 192.11 26.42 188.10 26.49 186.69 23.30 C 185.04 19.45 185.70 14.67 188.93 11.82 Z" />
<path fill="#ff9800" opacity="1.00" d=" M 0.95 17.55 C 2.84 17.70 4.73 17.85 6.62 18.00 C 6.62 19.33 6.62 20.66 6.62 21.99 C 4.73 22.14 2.84 22.29 0.95 22.43 C 0.95 20.80 0.95 19.17 0.95 17.55 Z" />
<path fill="#ff9800" opacity="1.00" d=" M 26.41 17.99 C 28.29 17.84 30.17 17.69 32.05 17.54 C 32.05 19.18 32.05 20.82 32.05 22.46 C 30.13 22.30 28.22 22.14 26.30 21.97 C 26.34 20.64 26.38 19.32 26.41 17.99 Z" />
<path fill="#c4c4c3" opacity="1.00" d=" M 107.36 19.68 C 107.98 18.29 110.76 18.70 111.99 19.32 C 111.37 20.72 108.59 20.29 107.36 19.68 Z" />
<path fill="#c4c4c3" opacity="1.00" d=" M 155.18 24.32 C 156.81 23.82 157.36 24.37 156.83 25.98 C 155.19 26.48 154.64 25.93 155.18 24.32 Z" />
</svg>
