<?xml version="1.0" encoding="UTF-8" ?>
<!DOCTYPE svg PUBLIC "-//W3C//DTD SVG 1.1//EN" "http://www.w3.org/Graphics/SVG/1.1/DTD/svg11.dtd">
<svg width="1755pt" height="450pt" viewBox="0 0 1755 450" version="1.1" xmlns="http://www.w3.org/2000/svg">
<g id="#242633ff">
</g>
<g id="#2aadf5ff">
<path fill="#2aadf5" opacity="1.00" d=" M 430.43 152.44 C 459.31 152.40 488.18 152.42 517.05 152.42 C 527.54 152.77 539.22 155.30 546.02 164.01 C 552.97 173.09 553.49 185.05 553.59 196.02 C 553.40 208.24 554.48 221.08 549.50 232.58 C 546.19 240.33 538.75 245.60 530.70 247.51 C 539.04 261.96 547.11 276.58 555.50 291.01 C 542.58 291.00 529.65 291.00 516.72 291.00 C 509.10 277.22 501.63 263.35 493.97 249.58 C 484.75 249.57 475.54 249.60 466.33 249.56 C 466.29 263.37 466.33 277.18 466.31 290.99 C 454.34 291.00 442.38 291.02 430.41 290.98 C 430.44 244.80 430.39 198.62 430.43 152.44 M 466.31 180.31 C 466.31 194.10 466.31 207.90 466.31 221.69 C 479.54 221.68 492.76 221.69 505.98 221.69 C 509.52 221.62 513.55 220.75 515.67 217.64 C 518.44 213.63 517.54 208.53 517.69 203.97 C 517.48 198.65 518.16 193.28 517.27 188.02 C 516.61 183.56 512.34 180.42 507.97 180.35 C 494.09 180.26 480.20 180.34 466.31 180.31 Z" />
<path fill="#2aadf5" opacity="1.00" d=" M 573.09 152.36 C 609.72 152.48 646.34 152.40 682.97 152.40 C 683.03 161.71 682.99 171.01 682.99 180.31 C 658.26 180.32 633.54 180.31 608.81 180.31 C 608.80 189.10 608.80 197.90 608.81 206.69 C 628.31 206.69 647.80 206.67 667.30 206.70 C 667.33 215.98 667.31 225.27 667.31 234.55 C 647.81 234.63 628.31 234.55 608.80 234.59 C 608.80 244.12 608.79 253.66 608.81 263.19 C 633.54 263.20 658.26 263.20 682.99 263.19 C 683.01 272.46 683.00 281.73 683.00 291.00 C 646.33 291.00 609.67 291.00 573.00 291.00 C 573.06 244.79 572.88 198.57 573.09 152.36 Z" />
<path fill="#2aadf5" opacity="1.00" d=" M 698.44 152.44 C 727.32 152.40 756.20 152.42 785.08 152.42 C 793.58 152.74 802.48 154.35 809.46 159.52 C 815.88 164.32 819.20 172.17 820.49 179.88 C 822.03 189.51 821.48 199.29 821.59 209.01 C 821.42 218.29 820.93 228.02 816.32 236.32 C 812.80 242.81 806.33 247.31 799.29 249.25 C 793.05 251.08 786.51 251.47 780.04 251.59 C 764.81 251.56 749.58 251.62 734.35 251.55 C 734.26 264.70 734.34 277.85 734.31 290.99 C 722.34 291.00 710.38 291.02 698.41 290.98 C 698.44 244.80 698.39 198.62 698.44 152.44 M 734.31 180.31 C 734.31 194.77 734.31 209.23 734.31 223.69 C 747.22 223.68 760.12 223.69 773.03 223.69 C 776.42 223.63 780.26 223.31 782.70 220.64 C 786.09 217.37 785.70 212.26 785.70 207.96 C 785.50 201.59 786.03 195.20 785.43 188.86 C 785.06 184.05 780.66 180.37 775.94 180.34 C 762.06 180.26 748.19 180.34 734.31 180.31 Z" />
<path fill="#2aadf5" opacity="1.00" d=" M 865.77 152.56 C 879.05 152.22 892.35 152.51 905.64 152.42 C 923.15 198.60 940.62 244.79 958.11 290.98 C 945.17 290.95 932.22 291.14 919.29 290.89 C 916.48 282.66 913.43 274.52 910.52 266.34 C 894.06 266.27 877.60 266.36 861.14 266.29 C 858.07 274.50 855.18 282.77 852.18 291.00 C 839.27 291.00 826.36 291.00 813.45 291.00 C 830.88 244.85 848.50 198.77 865.77 152.56 M 885.80 194.13 C 880.57 209.58 875.25 224.99 870.06 240.45 C 880.55 240.37 891.05 240.46 901.55 240.41 C 896.27 224.99 891.04 209.56 885.80 194.13 Z" />
<path fill="#2aadf5" opacity="1.00" d=" M 969.67 161.61 C 976.62 154.89 986.64 152.86 995.98 152.43 C 1020.98 152.40 1045.98 152.44 1070.98 152.41 C 1071.02 161.71 1070.99 171.01 1070.99 180.31 C 1051.01 180.31 1031.03 180.32 1011.05 180.30 C 1007.36 180.34 1003.30 179.85 1000.09 182.07 C 996.52 184.40 995.72 189.04 995.79 192.99 C 995.85 214.00 995.73 235.00 995.85 256.00 C 995.79 260.86 999.97 265.45 1004.96 265.18 C 1027.00 265.27 1049.01 263.69 1071.00 262.21 C 1071.00 271.14 1071.00 280.06 1071.00 288.99 C 1052.72 290.84 1034.36 291.97 1016.00 292.72 C 1006.50 292.79 996.93 293.63 987.49 292.30 C 979.64 291.11 971.64 287.71 966.84 281.13 C 962.20 274.80 960.59 266.80 960.21 259.10 C 960.19 235.38 960.19 211.67 960.21 187.95 C 960.64 178.56 962.80 168.49 969.67 161.61 Z" />
<path fill="#2aadf5" opacity="1.00" d=" M 1086.69 152.46 C 1098.64 152.38 1110.60 152.42 1122.56 152.44 C 1122.59 170.51 1122.59 188.59 1122.56 206.67 C 1128.52 206.68 1134.49 206.75 1140.46 206.62 C 1150.64 188.51 1160.93 170.45 1171.21 152.39 C 1183.76 152.48 1196.32 152.35 1208.87 152.46 C 1195.97 175.16 1183.10 197.89 1170.15 220.58 C 1182.88 244.13 1195.83 267.57 1208.78 291.00 C 1196.18 290.99 1183.58 291.01 1170.98 291.00 C 1160.75 272.19 1150.49 253.41 1140.32 234.58 C 1134.40 234.58 1128.49 234.58 1122.58 234.58 C 1122.61 253.36 1122.52 272.14 1122.63 290.92 C 1110.65 291.10 1098.67 290.96 1086.69 290.99 C 1086.68 244.81 1086.69 198.64 1086.69 152.46 Z" />
<path fill="#2aadf5" opacity="1.00" d=" M 159.22 155.35 C 162.41 154.55 166.32 154.68 168.69 157.27 C 185.55 174.07 202.34 190.94 219.20 207.74 C 220.68 209.27 222.38 210.67 223.47 212.53 C 224.93 215.86 224.73 220.29 222.00 222.94 C 204.33 240.63 186.63 258.30 168.96 275.99 C 165.65 279.56 159.32 279.56 155.97 276.05 C 153.50 273.52 151.07 270.96 148.63 268.41 C 143.73 264.77 143.25 256.98 148.03 253.03 C 160.11 240.92 172.22 228.85 184.30 216.75 C 172.14 204.53 159.89 192.40 147.76 180.16 C 145.30 177.87 144.10 174.38 144.81 171.07 C 145.56 167.30 148.94 165.01 151.31 162.28 C 153.89 159.92 155.85 156.66 159.22 155.35 Z" />
<path fill="#2aadf5" opacity="1.00" d=" M 257.71 257.20 C 288.47 257.20 319.23 257.21 349.98 257.20 C 350.00 267.73 350.00 278.27 349.98 288.80 C 319.22 288.79 288.46 288.81 257.70 288.79 C 257.68 278.26 257.67 267.73 257.71 257.20 Z" />
</g>
<g id="#e0ddd9ff">
<path fill="#e0ddd9" opacity="1.00" d=" M 1315.88 195.68 C 1324.89 189.74 1335.22 185.94 1345.88 184.34 C 1352.33 183.80 1359.09 183.56 1365.26 185.88 C 1370.47 187.69 1374.87 191.32 1378.23 195.64 C 1388.29 189.09 1400.00 185.31 1411.91 184.19 C 1418.05 183.94 1424.44 183.56 1430.32 185.74 C 1439.20 188.70 1446.12 196.75 1447.84 205.94 C 1449.04 210.88 1448.62 215.99 1448.68 221.02 C 1448.69 244.34 1448.67 267.67 1448.69 290.99 C 1436.97 291.01 1425.25 291.00 1413.54 291.00 C 1413.52 266.99 1413.58 242.97 1413.51 218.96 C 1413.68 215.09 1409.53 212.50 1406.00 212.81 C 1398.34 213.08 1390.79 214.74 1383.44 216.83 C 1383.48 241.56 1383.45 266.28 1383.46 291.00 C 1371.74 291.00 1360.02 291.02 1348.31 290.99 C 1348.32 267.34 1348.32 243.68 1348.32 220.03 C 1348.75 216.06 1344.95 212.63 1341.10 212.82 C 1333.20 212.98 1325.40 214.70 1317.84 216.92 C 1317.85 241.61 1317.84 266.30 1317.85 290.99 C 1306.28 291.00 1294.72 291.00 1283.15 290.99 C 1283.16 256.00 1283.15 221.00 1283.15 186.00 C 1293.40 185.99 1303.65 186.01 1313.90 185.99 C 1314.66 189.20 1315.27 192.44 1315.88 195.68 Z" />
<path fill="#e0ddd9" opacity="1.00" d=" M 1474.52 190.55 C 1480.43 185.58 1488.39 183.87 1495.96 184.01 C 1509.30 184.00 1522.65 183.98 1536.00 184.01 C 1544.18 183.94 1552.88 186.26 1558.67 192.34 C 1563.50 196.90 1566.25 203.41 1566.84 209.97 C 1568.05 224.16 1567.20 238.43 1567.47 252.66 C 1544.59 252.71 1521.72 252.67 1498.85 252.68 C 1498.83 257.64 1497.62 265.13 1503.86 266.86 C 1511.41 267.65 1519.06 266.84 1526.63 266.44 C 1538.93 266.09 1551.18 264.99 1563.45 264.12 C 1563.51 272.36 1563.37 280.60 1563.52 288.84 C 1555.13 290.44 1546.51 290.44 1538.04 291.44 C 1522.03 292.47 1505.99 293.35 1489.95 292.89 C 1480.69 292.35 1471.73 286.99 1467.51 278.62 C 1464.94 273.85 1463.90 268.36 1464.14 262.96 C 1464.17 246.64 1464.15 230.31 1464.14 213.99 C 1464.09 205.21 1467.49 196.09 1474.52 190.55 M 1499.10 214.36 C 1498.53 218.72 1498.99 223.15 1498.83 227.53 C 1510.00 227.56 1521.18 227.52 1532.35 227.55 C 1532.17 223.07 1532.58 218.57 1532.12 214.11 C 1531.46 210.86 1528.21 208.88 1525.04 208.89 C 1518.69 208.81 1512.34 208.80 1505.99 208.89 C 1502.77 208.88 1499.63 211.08 1499.10 214.36 Z" />
<path fill="#e0ddd9" opacity="1.00" d=" M 1231.54 261.15 C 1243.51 261.15 1255.48 261.16 1267.46 261.15 C 1267.46 271.10 1267.46 281.05 1267.46 291.00 C 1255.48 291.00 1243.51 291.00 1231.54 291.00 C 1231.54 281.05 1231.54 271.10 1231.54 261.15 Z" />
</g>
</svg>
