<?xml version="1.0" encoding="utf-8"?>
<!-- Generator: Adobe Illustrator 26.0.1, SVG Export Plug-In . SVG Version: 6.00 Build 0)  -->
<svg version="1.1" id="Слой_1" xmlns="http://www.w3.org/2000/svg" xmlns:xlink="http://www.w3.org/1999/xlink" x="0px" y="0px"
	 viewBox="0 0 5120 1440" style="enable-background:new 0 0 5120 1440;" xml:space="preserve">
<style type="text/css">
	.st0{fill:#2AADF5;}
	.st1{fill:#E0DDD9;}
</style>
<g id="_x23_2aadf5ff">
	<path class="st0" d="M1028.47,466.5c103.92-0.14,207.8-0.07,311.68-0.07c37.75,1.26,79.77,10.36,104.24,41.7
		c25.01,32.67,26.88,75.71,27.24,115.18c-0.68,43.97,3.2,90.17-14.72,131.55c-11.91,27.89-38.68,46.85-67.65,53.72
		c30.01,52,59.05,104.6,89.24,156.53c-46.49-0.04-93.02-0.04-139.54-0.04c-27.42-49.58-54.3-99.49-81.86-149.04
		c-33.18-0.04-66.32,0.07-99.46-0.07c-0.14,49.69,0,99.38-0.07,149.08c-43.07,0.04-86.11,0.11-129.18-0.04
		C1028.5,798.84,1028.32,632.67,1028.47,466.5 M1157.57,566.79c0,49.62,0,99.28,0,148.9c47.61-0.04,95.17,0,142.74,0
		c12.74-0.25,27.24-3.38,34.87-14.57c9.97-14.43,6.73-32.78,7.27-49.19c-0.76-19.14,1.69-38.47-1.51-57.39
		c-2.38-16.05-17.74-27.35-33.46-27.6C1257.53,566.61,1207.55,566.9,1157.57,566.79z"/>
	<path class="st0" d="M1541.8,466.22c131.8,0.43,263.57,0.14,395.38,0.14c0.22,33.5,0.07,66.96,0.07,100.43
		c-88.99,0.04-177.93,0-266.92,0c-0.04,31.63-0.04,63.29,0,94.92c70.17,0,140.3-0.07,210.46,0.04c0.11,33.39,0.04,66.82,0.04,100.21
		c-70.17,0.29-140.33,0-210.54,0.14c0,34.29-0.04,68.62,0.04,102.91c88.99,0.04,177.93,0.04,266.92,0
		c0.07,33.36,0.04,66.71,0.04,100.07c-131.95,0-263.86,0-395.81,0C1541.69,798.81,1541.04,632.49,1541.8,466.22z"/>
	<path class="st0" d="M1992.84,466.5c103.92-0.14,207.84-0.07,311.75-0.07c30.59,1.15,62.61,6.94,87.73,25.55
		c23.1,17.27,35.05,45.52,39.69,73.26c5.54,34.65,3.56,69.84,3.96,104.82c-0.61,33.39-2.38,68.4-18.96,98.27
		c-12.67,23.35-35.95,39.55-61.28,46.53c-22.45,6.58-45.99,7.99-69.27,8.42c-54.8-0.11-109.6,0.11-164.41-0.14
		c-0.32,47.32-0.04,94.63-0.14,141.92c-43.07,0.04-86.11,0.11-129.18-0.04C1992.84,798.84,1992.66,632.67,1992.84,466.5
		 M2121.91,566.79c0,52.03,0,104.06,0,156.09c46.45-0.04,92.87,0,139.33,0c12.2-0.22,26.02-1.37,34.8-10.97
		c12.2-11.77,10.79-30.15,10.79-45.63c-0.72-22.92,1.19-45.91-0.97-68.73c-1.33-17.31-17.16-30.55-34.15-30.66
		C2221.76,566.61,2171.85,566.9,2121.91,566.79z"/>
	<path class="st0" d="M2594.94,466.94c47.78-1.22,95.64-0.18,143.46-0.5c63.01,166.17,125.87,332.37,188.8,498.58
		c-46.56-0.11-93.16,0.58-139.69-0.32c-10.11-29.61-21.09-58.9-31.56-88.34c-59.23-0.25-118.46,0.07-177.68-0.18
		c-11.05,29.54-21.45,59.3-32.24,88.91c-46.45,0-92.91,0-139.36,0C2469.4,799.02,2532.8,633.21,2594.94,466.94 M2667.01,616.52
		c-18.82,55.59-37.96,111.04-56.64,166.67c37.75-0.29,75.53,0.04,113.31-0.14C2704.69,727.56,2685.87,672.04,2667.01,616.52z"/>
	<path class="st0" d="M2968.8,499.5c25.01-24.18,61.06-31.48,94.67-33.03c89.96-0.11,179.91,0.04,269.87-0.07
		c0.14,33.46,0.04,66.93,0.04,100.39c-71.89,0-143.79,0.04-215.68-0.04c-13.28,0.14-27.89-1.62-39.44,6.37
		c-12.85,8.38-15.72,25.08-15.47,39.29c0.22,75.6-0.22,151.16,0.22,226.73c-0.22,17.49,14.82,34,32.78,33.03
		c79.31,0.32,158.5-5.36,237.63-10.69c0,32.13,0,64.23,0,96.36c-65.78,6.66-131.84,10.72-197.91,13.42
		c-34.18,0.25-68.62,3.27-102.59-1.51c-28.25-4.28-57.03-16.52-74.3-40.19c-16.7-22.78-22.49-51.56-23.86-79.27
		c-0.07-85.35-0.07-170.67,0-256.02C2936.31,560.49,2944.08,524.26,2968.8,499.5z"/>
	<path class="st0" d="M3389.87,466.58c43-0.29,86.03-0.14,129.07-0.07c0.11,65.02,0.11,130.08,0,195.13
		c21.45,0.04,42.93,0.29,64.41-0.18c36.63-65.16,73.66-130.15,110.65-195.13c45.16,0.32,90.35-0.14,135.51,0.25
		c-46.42,81.68-92.73,163.47-139.33,245.11c45.81,84.74,92.4,169.08,139,253.39c-45.34-0.04-90.68,0.04-136.02,0
		c-36.81-67.68-73.73-135.26-110.32-203.01c-21.3,0-42.57,0-63.83,0c0.11,67.58-0.22,135.15,0.18,202.73
		c-43.11,0.65-86.21,0.14-129.32,0.25C3389.84,798.88,3389.87,632.74,3389.87,466.58z"/>
	<path class="st0" d="M52.58,476.98c11.48-2.88,25.55-2.41,34.08,6.91c60.67,60.45,121.08,121.15,181.75,181.6
		c5.33,5.51,11.44,10.54,15.36,17.24c5.25,11.98,4.53,27.92-5.29,37.46C214.9,783.84,151.21,847.42,87.63,911.07
		c-11.91,12.85-34.69,12.85-46.74,0.22c-8.89-9.1-17.63-18.32-26.41-27.49c-17.63-13.1-19.36-41.13-2.16-55.34
		c43.47-43.58,87.04-87.01,130.51-130.55c-43.76-43.97-87.83-87.62-131.48-131.66c-8.85-8.24-13.17-20.8-10.61-32.71
		c2.7-13.57,14.86-21.81,23.39-31.63C33.4,493.42,40.45,481.69,52.58,476.98z"/>
	<path class="st0" d="M406.97,843.46c110.68,0,221.37,0.04,332.01,0c0.07,37.89,0.07,75.82,0,113.71
		c-110.68-0.04-221.37,0.04-332.05-0.04C406.87,919.24,406.83,881.35,406.97,843.46z"/>
</g>
<g id="_x23_e0ddd9ff">
	<path class="st1" d="M4214.56,622.09c32.42-21.37,69.59-35.05,107.95-40.8c23.21-1.94,47.53-2.81,69.73,5.54
		c18.75,6.51,34.58,19.57,46.67,35.12c36.2-23.57,78.33-37.17,121.19-41.2c22.09-0.9,45.09-2.27,66.24,5.58
		c31.95,10.65,56.85,39.62,63.04,72.69c4.32,17.78,2.81,36.16,3.02,54.26c0.04,83.91-0.04,167.86,0.04,251.77
		c-42.17,0.07-84.34,0.04-126.48,0.04c-0.07-86.39,0.14-172.83-0.11-259.22c0.61-13.93-14.32-23.24-27.02-22.13
		c-27.56,0.97-54.73,6.94-81.18,14.47c0.14,88.99,0.04,177.93,0.07,266.88c-42.17,0-84.34,0.07-126.48-0.04
		c0.04-85.1,0.04-170.23,0.04-255.33c1.55-14.29-12.13-26.63-25.98-25.94c-28.43,0.58-56.49,6.76-83.7,14.75
		c0.04,88.84,0,177.68,0.04,266.52c-41.63,0.04-83.23,0.04-124.86,0c0.04-125.9,0-251.84,0-377.78
		c36.88-0.04,73.76,0.04,110.65-0.04C4210.17,598.78,4212.36,610.44,4214.56,622.09z"/>
	<path class="st1" d="M4785.39,603.63c21.27-17.88,49.91-24.04,77.15-23.53c48-0.04,96.04-0.11,144.08,0
		c29.43-0.25,60.74,8.1,81.57,29.97c17.38,16.41,27.27,39.83,29.4,63.44c4.35,51.06,1.3,102.41,2.27,153.61
		c-82.33,0.18-164.62,0.04-246.91,0.07c-0.07,17.85-4.43,44.8,18.03,51.02c27.17,2.84,54.69-0.07,81.93-1.51
		c44.26-1.26,88.34-5.22,132.49-8.35c0.22,29.65-0.29,59.3,0.25,88.95c-30.19,5.76-61.21,5.76-91.68,9.36
		c-57.61,3.71-115.33,6.87-173.04,5.22c-33.32-1.94-65.56-21.23-80.75-51.35c-9.25-17.16-12.99-36.92-12.13-56.35
		c0.11-58.72,0.04-117.48,0-176.21C4747.86,656.39,4760.09,623.57,4785.39,603.63 M4873.84,689.31c-2.05,15.69-0.4,31.63-0.97,47.39
		c40.19,0.11,80.42-0.04,120.61,0.07c-0.65-16.12,0.83-32.31-0.83-48.36c-2.38-11.69-14.07-18.82-25.48-18.78
		c-22.85-0.29-45.7-0.32-68.55,0C4887.04,669.59,4875.74,677.51,4873.84,689.31z"/>
	<path class="st1" d="M3911.08,857.67c43.07,0,86.14,0.04,129.25,0c0,35.8,0,71.61,0,107.41c-43.11,0-86.18,0-129.25,0
		C3911.08,929.28,3911.08,893.48,3911.08,857.67z"/>
</g>
</svg>
