<?xml version="1.0" encoding="UTF-8" ?>
<!DOCTYPE svg PUBLIC "-//W3C//DTD SVG 1.1//EN" "http://www.w3.org/Graphics/SVG/1.1/DTD/svg11.dtd">
<svg width="528pt" height="160pt" viewBox="0 0 528 160" version="1.1" xmlns="http://www.w3.org/2000/svg">
<g id="#25282aff">
<path fill="#25282a" opacity="1.00" d=" M 30.29 40.43 C 36.64 39.31 43.09 39.64 49.43 40.60 C 49.49 49.88 49.34 59.17 49.52 68.46 C 56.51 68.54 63.49 68.53 70.48 68.46 C 70.66 59.14 70.51 49.82 70.56 40.50 C 76.93 40.20 83.28 39.34 89.64 40.36 C 90.93 46.47 90.06 52.78 90.02 58.97 C 90.45 75.63 90.16 92.31 90.29 108.98 C 90.34 111.24 89.98 113.48 89.55 115.70 C 83.27 115.61 76.97 116.02 70.70 115.41 C 70.41 105.76 70.59 96.10 70.61 86.45 C 67.48 85.50 64.19 85.69 60.96 85.73 C 57.10 85.81 53.15 85.31 49.39 86.45 C 49.41 95.76 49.55 105.07 49.35 114.38 C 49.12 114.67 48.67 115.24 48.44 115.53 C 42.42 115.97 36.37 115.65 30.35 115.65 C 30.16 90.57 30.30 65.51 30.29 40.43 Z" />
<path fill="#25282a" opacity="1.00" d=" M 98.28 40.43 C 108.15 39.50 118.10 39.78 128.01 39.74 C 135.68 40.04 144.02 41.64 149.57 47.38 C 156.23 53.58 157.93 63.29 157.70 72.00 C 157.49 82.56 159.10 94.02 153.42 103.53 C 149.08 111.52 139.78 115.36 131.06 115.66 C 120.15 115.75 109.24 115.76 98.34 115.66 C 98.14 90.58 98.33 65.51 98.28 40.43 M 118.28 63.01 C 117.70 73.92 118.51 84.83 118.24 95.75 C 119.81 96.11 121.42 96.42 123.04 96.11 C 126.82 95.57 131.23 96.24 134.11 93.13 C 139.10 88.87 137.41 81.79 137.75 76.03 C 137.43 70.38 138.93 63.82 134.81 59.16 C 130.73 54.61 124.14 55.90 118.71 55.67 C 117.18 57.91 118.25 60.54 118.28 63.01 Z" />
</g>
<g id="#333638ff">
<path fill="#333638" opacity="1.00" d=" M 52.68 0.00 L 127.15 0.00 C 135.16 4.43 144.06 7.98 150.17 15.07 C 145.41 12.34 140.84 8.35 134.99 8.65 C 108.32 8.69 81.66 8.67 54.99 8.68 C 50.34 8.74 45.63 8.24 41.03 9.08 C 37.29 9.72 34.53 12.47 31.56 14.57 C 30.93 15.00 29.67 15.85 29.04 16.27 C 30.05 14.88 30.97 13.40 32.26 12.25 C 38.45 7.21 45.73 3.82 52.68 0.00 Z" />
</g>
<g id="#494a4cff">
<path fill="#494a4c" opacity="1.00" d=" M 31.56 14.57 C 34.53 12.47 37.29 9.72 41.03 9.08 C 45.63 8.24 50.34 8.74 54.99 8.68 C 81.66 8.67 108.32 8.69 134.99 8.65 C 140.84 8.35 145.41 12.34 150.17 15.07 C 153.32 17.80 156.47 20.63 158.41 24.39 C 157.01 23.32 155.58 22.30 154.28 21.11 C 151.72 17.98 148.40 14.88 144.02 15.26 C 111.68 15.31 79.34 15.24 47.01 15.29 C 41.85 15.35 36.68 15.28 31.56 14.57 Z" />
</g>
<g id="#5b5c5dff">
<path fill="#5b5c5d" opacity="1.00" d=" M 29.04 16.27 C 29.67 15.85 30.93 15.00 31.56 14.57 C 36.68 15.28 41.85 15.35 47.01 15.29 C 79.34 15.24 111.68 15.31 144.02 15.26 C 148.40 14.88 151.72 17.98 154.28 21.11 C 151.20 21.33 148.11 21.49 145.02 21.50 C 110.69 21.50 76.36 21.49 42.03 21.51 C 36.41 21.61 30.75 21.68 25.21 20.57 C 26.50 19.15 27.78 17.72 29.04 16.27 Z" />
</g>
<g id="#737374ff">
<path fill="#737374" opacity="1.00" d=" M 14.76 34.02 C 17.49 29.00 21.34 24.73 25.21 20.57 C 30.75 21.68 36.41 21.61 42.03 21.51 C 76.36 21.49 110.69 21.50 145.02 21.50 C 148.11 21.49 151.20 21.33 154.28 21.11 C 155.58 22.30 157.01 23.32 158.41 24.39 C 162.02 28.95 165.63 33.58 167.94 38.96 C 164.37 36.95 162.99 32.73 159.84 30.38 C 152.25 31.09 144.63 31.51 136.99 31.22 C 107.01 30.86 77.03 31.46 47.04 31.16 C 42.03 30.89 37.02 31.11 32.01 31.26 C 28.00 31.38 24.08 30.36 20.08 30.33 C 18.12 31.81 16.84 33.97 15.33 35.86 C 15.19 35.40 14.90 34.48 14.76 34.02 Z" />
</g>
<g id="#838383ff">
<path fill="#838383" opacity="1.00" d=" M 15.33 35.86 C 16.84 33.97 18.12 31.81 20.08 30.33 C 24.08 30.36 28.00 31.38 32.01 31.26 C 37.02 31.11 42.03 30.89 47.04 31.16 C 77.03 31.46 107.01 30.86 136.99 31.22 C 144.63 31.51 152.25 31.09 159.84 30.38 C 162.99 32.73 164.37 36.95 167.94 38.96 C 174.51 51.51 178.31 65.73 177.74 79.95 C 178.31 94.71 174.20 109.45 167.16 122.35 C 162.51 126.85 155.90 126.18 149.98 125.91 C 106.99 125.96 64.00 125.84 21.01 125.94 C 17.31 126.28 14.83 123.13 12.17 121.10 C 5.56 108.52 1.73 94.27 2.25 80.01 C 1.59 63.86 6.59 47.83 14.76 34.02 C 14.90 34.48 15.19 35.40 15.33 35.86 M 30.29 40.43 C 30.30 65.51 30.16 90.57 30.35 115.65 C 36.37 115.65 42.42 115.97 48.44 115.53 C 48.67 115.24 49.12 114.67 49.35 114.38 C 49.55 105.07 49.41 95.76 49.39 86.45 C 53.15 85.31 57.10 85.81 60.96 85.73 C 64.19 85.69 67.48 85.50 70.61 86.45 C 70.59 96.10 70.41 105.76 70.70 115.41 C 76.97 116.02 83.27 115.61 89.55 115.70 C 89.98 113.48 90.34 111.24 90.29 108.98 C 90.16 92.31 90.45 75.63 90.02 58.97 C 90.06 52.78 90.93 46.47 89.64 40.36 C 83.28 39.34 76.93 40.20 70.56 40.50 C 70.51 49.82 70.66 59.14 70.48 68.46 C 63.49 68.53 56.51 68.54 49.52 68.46 C 49.34 59.17 49.49 49.88 49.43 40.60 C 43.09 39.64 36.64 39.31 30.29 40.43 M 98.28 40.43 C 98.33 65.51 98.14 90.58 98.34 115.66 C 109.24 115.76 120.15 115.75 131.06 115.66 C 139.78 115.36 149.08 111.52 153.42 103.53 C 159.10 94.02 157.49 82.56 157.70 72.00 C 157.93 63.29 156.23 53.58 149.57 47.38 C 144.02 41.64 135.68 40.04 128.01 39.74 C 118.10 39.78 108.15 39.50 98.28 40.43 Z" />
<path fill="#838383" opacity="1.00" d=" M 198.32 40.43 C 200.19 39.98 202.10 39.62 204.04 39.69 C 214.02 39.78 224.01 39.66 234.00 39.74 C 241.51 40.27 249.49 42.59 254.59 48.47 C 260.42 54.68 261.39 63.91 259.92 71.96 C 258.69 78.20 254.52 83.37 249.48 87.04 C 252.98 95.75 257.27 104.17 261.16 112.72 C 261.45 113.69 261.71 114.67 261.93 115.67 C 253.27 115.64 244.59 116.05 235.95 115.45 C 233.24 107.96 229.91 100.72 227.06 93.29 C 226.33 91.09 222.57 90.39 221.67 92.75 C 221.39 100.31 221.83 107.89 221.44 115.46 C 213.77 115.96 206.08 115.74 198.40 115.60 C 197.96 95.07 198.61 74.52 198.03 54.00 C 198.43 49.49 198.20 44.96 198.32 40.43 M 222.35 60.52 C 222.24 64.20 222.26 67.89 222.42 71.57 C 226.35 71.78 230.30 71.76 234.23 71.44 C 235.33 70.48 236.45 69.54 237.58 68.61 C 237.62 66.86 237.63 65.11 237.62 63.36 C 236.55 62.40 235.48 61.44 234.41 60.49 C 230.39 60.28 226.33 59.49 222.35 60.52 Z" />
<path fill="#838383" opacity="1.00" d=" M 266.31 40.36 C 269.43 39.31 272.76 39.69 276.00 39.66 C 288.32 39.65 300.65 39.69 312.97 39.63 C 314.58 39.56 316.15 39.93 317.70 40.36 C 317.64 46.71 318.06 53.08 317.41 59.41 C 307.85 59.79 298.29 59.25 288.74 59.73 C 288.57 62.27 288.55 64.82 288.65 67.37 C 296.52 68.65 304.72 66.45 312.41 68.68 C 312.54 74.27 312.40 79.85 312.54 85.43 C 311.50 86.23 310.69 87.81 309.13 87.44 C 303.40 87.54 297.67 87.33 291.94 87.46 C 290.65 87.36 289.59 88.15 288.51 88.70 C 288.56 90.88 288.60 93.05 288.64 95.23 C 290.02 95.79 291.42 96.43 292.95 96.35 C 301.13 96.43 309.32 96.14 317.50 96.51 C 317.93 102.86 317.76 109.24 317.61 115.60 C 300.54 115.82 283.46 115.81 266.39 115.60 C 266.07 98.73 266.21 81.89 266.28 65.02 C 265.67 56.81 266.52 48.60 266.31 40.36 Z" />
<path fill="#838383" opacity="1.00" d=" M 323.43 40.56 C 324.91 40.02 326.45 39.59 328.05 39.69 C 343.04 39.74 358.04 39.72 373.04 39.70 C 374.57 39.72 376.08 40.07 377.58 40.36 C 378.88 45.48 378.08 50.81 378.30 56.03 C 378.75 60.75 374.72 63.84 372.00 67.07 C 364.86 75.59 357.75 84.15 350.48 92.56 C 350.41 93.08 350.27 94.12 350.20 94.64 C 359.33 95.03 368.63 93.62 377.62 95.69 C 377.86 102.32 377.82 108.97 377.61 115.61 C 359.21 115.81 340.79 115.81 322.39 115.61 C 322.21 108.69 322.13 101.76 322.42 94.84 C 331.93 84.76 340.01 73.42 349.54 63.38 C 349.56 62.41 349.59 61.45 349.61 60.49 C 340.94 60.53 332.26 60.71 323.59 60.38 C 323.29 53.78 323.50 47.17 323.43 40.56 Z" />
<path fill="#838383" opacity="1.00" d=" M 382.29 40.36 C 388.42 38.92 394.84 39.93 401.09 39.69 C 403.02 39.38 404.17 41.22 404.18 42.92 C 404.60 50.00 403.84 57.13 404.63 64.19 C 406.23 62.61 407.66 60.88 408.84 58.96 C 412.72 52.79 416.87 46.78 420.65 40.54 C 422.05 40.06 423.48 39.58 425.00 39.64 C 431.55 39.64 438.11 39.70 444.68 39.63 C 444.60 41.06 444.91 42.67 443.89 43.85 C 437.30 52.84 431.15 62.14 424.60 71.15 C 431.21 84.94 438.00 98.66 444.80 112.36 C 445.26 113.43 445.62 114.54 445.99 115.64 C 437.59 115.75 429.19 115.86 420.80 115.57 C 417.84 107.84 413.41 100.69 411.07 92.73 C 410.17 92.58 409.28 92.42 408.39 92.27 C 407.14 94.23 405.66 96.06 404.57 98.11 C 403.67 103.91 405.12 109.91 403.46 115.64 C 396.44 115.77 389.41 115.82 382.39 115.61 C 382.11 90.53 382.30 65.44 382.29 40.36 Z" />
<path fill="#838383" opacity="1.00" d=" M 475.83 40.58 C 479.69 38.93 484.01 40.00 488.08 39.73 C 492.45 39.98 497.07 38.91 501.21 40.73 C 501.83 44.50 503.39 48.01 504.53 51.63 C 511.26 71.56 518.11 91.45 524.83 111.38 C 525.24 112.80 525.60 114.23 525.92 115.68 C 517.90 115.72 509.88 115.86 501.87 115.60 C 500.72 112.32 499.91 108.95 499.26 105.54 C 491.76 105.23 484.24 105.24 476.74 105.54 C 476.09 108.95 475.27 112.33 474.12 115.60 C 466.11 115.85 458.09 115.72 450.07 115.68 C 450.71 112.20 452.07 108.92 453.21 105.58 C 460.74 83.91 468.45 62.31 475.83 40.58 M 486.72 66.57 C 485.97 72.44 482.79 77.72 482.20 83.62 C 486.06 83.74 489.93 83.75 493.80 83.63 C 493.08 77.70 490.19 72.31 489.35 66.42 C 488.47 66.47 487.59 66.52 486.72 66.57 Z" />
<path fill="#838383" opacity="1.00" d=" M 118.28 63.01 C 118.25 60.54 117.18 57.91 118.71 55.67 C 124.14 55.90 130.73 54.61 134.81 59.16 C 138.93 63.82 137.43 70.38 137.75 76.03 C 137.41 81.79 139.10 88.87 134.11 93.13 C 131.23 96.24 126.82 95.57 123.04 96.11 C 121.42 96.42 119.81 96.11 118.24 95.75 C 118.51 84.83 117.70 73.92 118.28 63.01 Z" />
</g>
<g id="#252729ff">
</g>
<g id="#242729ff">
</g>
<g id="#7b7b7bff">
<path fill="#7b7b7b" opacity="1.00" d=" M 12.17 121.10 C 14.83 123.13 17.31 126.28 21.01 125.94 C 64.00 125.84 106.99 125.96 149.98 125.91 C 155.90 126.18 162.51 126.85 167.16 122.35 C 164.92 126.72 162.00 130.67 158.98 134.53 C 120.67 134.95 82.34 134.60 44.02 134.72 C 36.35 134.73 28.68 134.73 21.02 134.54 C 17.72 130.30 14.52 125.96 12.17 121.10 Z" />
</g>
<g id="#6c6d6eff">
<path fill="#6c6d6e" opacity="1.00" d=" M 21.02 134.54 C 28.68 134.73 36.35 134.73 44.02 134.72 C 82.34 134.60 120.67 134.95 158.98 134.53 C 158.78 134.82 158.38 135.40 158.17 135.69 C 156.84 136.88 155.46 138.03 154.11 139.20 C 147.51 140.87 140.67 140.27 133.94 140.31 C 104.62 140.32 75.31 140.35 45.99 140.31 C 39.28 140.26 32.43 140.88 25.86 139.15 C 24.53 138.02 23.18 136.90 21.86 135.75 C 21.65 135.45 21.23 134.84 21.02 134.54 Z" />
</g>
<g id="#484a4bff">
<path fill="#484a4b" opacity="1.00" d=" M 21.86 135.75 C 23.18 136.90 24.53 138.02 25.86 139.15 C 29.26 142.46 32.74 146.93 38.00 146.71 C 72.68 146.68 107.36 146.69 142.04 146.71 C 147.27 146.95 150.71 142.46 154.11 139.20 C 155.46 138.03 156.84 136.88 158.17 135.69 C 154.23 143.04 146.71 147.35 140.26 152.24 C 106.75 152.40 73.25 152.42 39.74 152.23 C 33.31 147.36 25.83 143.07 21.86 135.75 Z" />
</g>
<g id="#5a5b5cff">
<path fill="#5a5b5c" opacity="1.00" d=" M 25.86 139.15 C 32.43 140.88 39.28 140.26 45.99 140.31 C 75.31 140.35 104.62 140.32 133.94 140.31 C 140.67 140.27 147.51 140.87 154.11 139.20 C 150.71 142.46 147.27 146.95 142.04 146.71 C 107.36 146.69 72.68 146.68 38.00 146.71 C 32.74 146.93 29.26 142.46 25.86 139.15 Z" />
</g>
<g id="#353739ff">
<path fill="#353739" opacity="1.00" d=" M 39.74 152.23 C 73.25 152.42 106.75 152.40 140.26 152.24 C 136.26 155.26 131.85 157.64 127.45 160.00 L 52.64 160.00 C 48.19 157.69 43.75 155.28 39.74 152.23 Z" />
</g>
</svg>
