<?xml version="1.0" encoding="UTF-8" ?>
<!DOCTYPE svg PUBLIC "-//W3C//DTD SVG 1.1//EN" "http://www.w3.org/Graphics/SVG/1.1/DTD/svg11.dtd">
<svg width="400pt" height="84pt" viewBox="0 0 400 84" version="1.1" xmlns="http://www.w3.org/2000/svg">
<g id="#0000003b">
<path fill="#000000" opacity="0.23" d=" M 138.24 4.20 C 147.07 1.88 157.40 2.33 164.84 8.14 C 168.79 11.07 170.37 15.89 172.48 20.12 C 174.06 16.11 174.28 11.74 175.66 7.69 C 177.08 4.55 181.09 4.84 183.97 4.70 C 190.32 4.84 196.68 4.52 203.03 4.85 C 205.67 4.82 208.19 6.61 208.78 9.23 C 210.18 14.82 210.22 20.74 212.51 26.11 C 213.15 19.90 213.06 13.58 214.45 7.47 C 215.02 5.05 217.94 4.92 219.95 4.77 C 226.98 4.63 234.02 4.69 241.05 4.92 C 247.26 5.32 254.33 6.34 258.45 11.56 C 261.72 15.21 262.08 20.32 262.14 24.98 C 262.20 33.66 262.17 42.35 262.09 51.04 C 262.11 53.12 262.11 55.25 262.72 57.27 C 266.91 58.39 271.29 57.73 275.54 57.49 C 276.50 42.01 275.58 26.47 275.96 10.97 C 275.83 8.05 278.05 5.19 281.04 4.96 C 287.41 4.47 294.41 3.76 300.04 7.45 C 305.46 4.20 311.89 4.25 317.96 5.07 C 323.30 5.90 328.65 4.76 334.00 4.72 C 353.35 4.80 372.70 4.76 392.05 4.72 C 395.13 4.41 397.75 6.07 400.00 7.96 L 400.00 22.91 C 397.34 25.90 393.27 26.34 389.53 26.76 C 388.91 38.16 389.42 49.59 389.26 61.00 C 389.08 66.12 389.99 71.43 388.45 76.40 C 387.17 79.79 383.05 79.77 380.04 79.96 C 375.23 79.98 370.10 80.57 365.68 78.26 C 372.56 76.90 379.58 78.10 386.51 77.35 C 387.61 59.66 386.85 41.90 387.15 24.19 C 390.59 23.98 394.04 23.93 397.48 23.65 C 397.53 18.21 397.52 12.77 397.48 7.32 C 392.34 6.73 387.16 6.95 382.00 6.94 C 367.00 6.93 352.00 6.96 337.00 6.93 C 332.94 6.94 328.83 6.70 324.82 7.47 L 323.93 7.64 C 323.45 7.71 322.48 7.85 322.00 7.92 L 321.08 7.70 C 315.29 6.63 309.34 7.37 303.48 7.27 C 303.39 7.91 303.21 9.19 303.12 9.83 C 302.62 11.20 302.09 12.56 301.56 13.91 C 300.45 13.26 299.34 12.61 298.25 11.96 C 297.74 10.38 297.22 8.82 296.69 7.26 C 290.60 7.16 284.50 6.88 278.43 7.46 C 278.07 18.63 278.39 29.82 278.28 41.00 C 278.14 47.45 278.89 53.99 277.42 60.35 C 271.99 60.04 266.55 60.22 261.11 60.17 L 260.18 60.17 C 259.43 47.38 260.38 34.55 259.51 21.77 C 259.39 17.81 258.08 13.65 254.82 11.17 C 249.79 7.24 243.05 7.50 237.01 7.26 C 229.91 7.30 222.79 6.90 215.70 7.50 C 215.03 19.72 215.68 31.96 215.34 44.19 C 213.89 42.84 212.48 41.45 211.10 40.04 C 210.99 39.34 210.79 37.92 210.69 37.22 C 210.63 33.39 210.10 29.59 209.08 25.89 C 208.07 19.73 207.20 13.54 206.23 7.37 C 196.69 7.10 187.14 7.12 177.60 7.36 C 176.67 13.23 176.00 19.14 175.13 25.02 C 174.40 27.56 173.43 30.07 171.73 32.13 C 170.98 30.01 170.24 27.88 169.63 25.71 C 169.49 21.52 169.16 17.05 166.54 13.57 C 163.72 9.38 159.05 6.78 154.16 5.85 C 149.78 4.98 145.21 4.93 140.84 5.92 C 132.65 7.35 126.12 14.55 125.90 22.94 C 124.64 35.35 125.98 47.86 125.23 60.30 C 122.86 60.37 120.45 60.61 118.11 60.16 C 116.27 59.09 116.66 56.81 116.49 55.02 C 116.52 41.68 116.61 28.33 116.46 14.99 C 116.42 12.48 116.49 9.90 117.74 7.65 C 118.29 10.73 118.46 13.87 118.40 17.00 C 118.24 27.67 118.46 38.35 118.27 49.02 C 118.17 51.96 118.48 54.89 119.07 57.77 C 120.30 57.77 121.53 57.78 122.76 57.78 C 123.69 44.94 122.14 31.97 124.14 19.20 C 125.30 11.93 131.19 6.00 138.24 4.20 Z" />
</g>
<g id="#00000045">
<path fill="#000000" opacity="0.27" d=" M 57.11 5.96 C 63.30 3.14 70.34 3.71 76.96 3.96 C 82.45 4.15 87.05 7.38 91.64 10.00 C 93.24 8.20 94.45 5.40 97.18 5.21 C 102.43 4.61 107.76 4.77 113.04 5.03 C 114.69 5.00 116.08 5.94 117.41 6.80 C 109.93 7.43 102.41 6.95 94.92 7.40 C 94.53 10.45 94.03 13.49 93.29 16.47 C 92.31 15.57 91.32 14.68 90.38 13.73 C 87.47 9.17 82.39 6.63 77.16 5.82 C 72.77 5.04 68.23 4.99 63.84 5.85 C 58.14 6.79 52.77 10.33 50.72 15.90 C 50.13 16.91 49.50 17.90 48.87 18.89 C 47.94 17.58 47.00 16.27 46.09 14.94 C 43.97 11.32 40.48 8.31 36.16 7.85 C 26.03 6.75 15.71 6.54 5.56 7.42 C 4.82 29.67 5.86 51.97 5.02 74.22 C 4.53 73.03 4.04 71.84 3.55 70.66 C 4.31 57.79 3.69 44.88 3.89 32.00 C 4.12 23.45 3.33 14.86 4.36 6.35 C 11.19 5.27 18.11 5.87 24.99 5.78 C 29.47 5.84 34.00 5.61 38.41 6.48 C 42.71 7.32 45.56 10.91 48.66 13.68 C 51.08 10.73 53.49 7.51 57.11 5.96 Z" />
</g>
<g id="#4d4f4fb8">
<path fill="#4d4f4f" opacity="0.72" d=" M 63.84 5.85 C 68.23 4.99 72.77 5.04 77.16 5.82 C 72.73 5.66 68.28 5.65 63.84 5.85 Z" />
</g>
<g id="#4b4c4db6">
<path fill="#4b4c4d" opacity="0.71" d=" M 140.84 5.92 C 145.21 4.93 149.78 4.98 154.16 5.85 C 149.72 5.65 145.28 5.65 140.84 5.92 Z" />
</g>
<g id="#deeff1ff">
<path fill="#deeff1" opacity="1.00" d=" M 50.72 15.90 C 52.77 10.33 58.14 6.79 63.84 5.85 C 68.28 5.65 72.73 5.66 77.16 5.82 C 82.39 6.63 87.47 9.17 90.38 13.73 C 91.76 19.17 91.76 24.82 91.50 30.39 C 85.94 30.57 80.38 30.41 74.83 30.63 C 75.13 30.87 75.75 31.36 76.06 31.60 C 77.86 32.95 79.76 34.15 81.64 35.39 C 82.55 36.01 83.44 36.65 84.31 37.32 C 84.41 37.40 84.62 37.56 84.72 37.64 C 87.07 39.56 89.29 41.70 90.91 44.29 C 91.36 45.59 91.74 46.92 92.09 48.25 C 93.24 54.93 93.12 61.82 92.11 68.50 C 89.80 74.15 83.89 77.18 78.16 78.18 C 74.05 78.35 69.94 78.35 65.84 78.20 C 59.88 77.23 53.68 73.91 51.57 67.91 C 50.07 61.99 50.33 55.82 50.57 49.77 C 55.49 49.68 60.42 49.76 65.34 49.55 C 65.00 49.23 64.32 48.60 63.98 48.28 C 62.81 47.38 61.60 46.55 60.39 45.73 C 57.62 43.86 54.94 41.81 52.77 39.25 C 49.08 32.03 49.68 23.68 50.72 15.90 M 52.66 16.59 C 51.06 22.35 51.21 28.54 52.64 34.31 C 53.92 37.50 56.14 40.13 58.81 42.26 L 59.46 42.09 C 60.99 43.65 62.67 45.26 64.81 45.92 C 66.57 47.41 68.33 49.27 70.65 49.82 C 71.76 51.25 72.94 52.62 74.15 53.97 C 74.30 55.54 74.45 57.13 74.58 58.71 C 74.54 60.29 74.52 61.87 74.51 63.45 C 72.63 65.07 70.34 64.90 68.08 64.31 C 68.17 63.41 68.35 61.61 68.44 60.71 C 68.38 59.38 68.33 58.05 68.30 56.71 C 68.28 54.88 68.25 53.05 68.18 51.22 C 62.79 51.28 57.40 51.24 52.01 51.22 C 51.98 52.83 51.97 54.44 51.96 56.06 C 51.94 56.89 51.91 58.56 51.89 59.39 C 52.18 61.22 52.46 63.05 52.72 64.88 C 53.28 66.56 53.91 68.22 54.63 69.85 C 58.78 74.95 65.59 77.06 72.00 76.80 C 78.38 77.03 85.19 74.93 89.32 69.84 C 89.99 67.94 90.59 66.01 91.10 64.06 C 91.17 62.60 91.25 61.13 91.33 59.67 C 91.20 56.70 91.66 53.59 90.53 50.76 L 90.74 49.83 C 90.11 48.15 89.53 46.45 89.02 44.74 L 88.30 44.76 C 87.44 43.09 86.30 40.85 84.37 40.42 C 80.89 37.05 76.81 33.99 72.29 32.23 C 68.85 29.74 66.78 25.40 68.20 21.19 C 68.49 18.78 71.67 17.84 73.27 19.68 C 73.92 22.67 73.67 25.77 73.82 28.81 C 79.19 28.79 84.56 28.80 89.92 28.82 C 89.63 23.12 90.95 16.08 86.13 11.85 C 80.63 7.34 73.01 6.71 66.19 7.42 C 60.62 8.05 54.55 10.94 52.66 16.59 M 71.98 28.76 C 72.13 26.14 72.05 23.51 71.83 20.90 C 68.05 21.24 69.30 27.41 71.98 28.76 M 70.01 52.71 C 69.75 56.06 69.67 59.46 70.37 62.77 C 71.61 63.31 72.33 62.92 72.54 61.60 C 73.25 58.52 72.86 54.63 70.01 52.71 Z" />
</g>
<g id="#e6f2f1ff">
<path fill="#e6f2f1" opacity="1.00" d=" M 125.90 22.94 C 126.12 14.55 132.65 7.35 140.84 5.92 C 145.28 5.65 149.72 5.65 154.16 5.85 C 159.05 6.78 163.72 9.38 166.54 13.57 C 169.16 17.05 169.49 21.52 169.63 25.71 C 169.67 32.32 169.62 38.93 169.74 45.54 C 169.09 55.01 171.67 66.46 163.82 73.68 C 163.56 73.93 163.05 74.42 162.79 74.66 C 160.08 76.18 157.22 77.49 154.16 78.10 C 150.04 78.33 145.91 78.33 141.79 78.15 C 136.69 77.33 131.83 74.66 128.91 70.31 C 128.15 69.14 127.42 67.95 126.65 66.78 C 126.52 70.26 126.52 73.74 126.29 77.21 C 115.87 76.93 105.45 77.22 95.03 77.04 C 95.17 74.63 95.19 72.21 95.19 69.80 C 95.14 62.59 95.13 55.38 95.14 48.17 C 95.03 34.58 95.42 20.98 94.92 7.40 C 101.91 6.80 108.89 7.75 115.87 7.37 C 116.12 25.12 115.37 42.89 116.29 60.62 C 119.44 60.62 122.59 60.63 125.74 60.63 C 125.80 48.06 125.51 35.49 125.90 22.94 M 129.58 16.52 C 126.91 22.36 127.58 29.02 127.64 35.26 C 127.32 37.73 127.49 40.22 127.48 42.70 C 127.47 45.04 127.48 47.37 127.49 49.70 C 127.50 51.05 127.51 52.40 127.53 53.76 C 127.55 55.06 127.57 56.37 127.60 57.68 C 127.64 58.53 127.72 60.23 127.77 61.08 C 127.92 62.37 128.07 63.66 128.21 64.96 L 128.96 64.98 C 129.38 66.47 129.44 68.27 130.83 69.25 C 134.10 74.73 140.88 76.88 146.95 76.82 C 153.36 77.15 160.48 75.35 164.47 69.96 C 165.66 68.14 166.58 66.17 167.26 64.12 C 167.68 61.36 167.96 58.57 167.79 55.78 C 167.89 55.16 168.11 53.92 168.21 53.30 C 168.15 51.89 168.10 50.47 168.06 49.06 C 168.08 47.69 168.09 46.33 168.10 44.97 C 168.09 43.30 168.08 41.64 168.07 39.98 C 168.10 35.58 168.25 31.17 167.69 26.79 C 168.25 21.54 166.70 15.91 162.77 12.23 C 158.08 7.76 151.15 6.79 144.93 7.28 C 138.78 7.72 132.31 10.71 129.58 16.52 M 96.80 8.85 C 96.67 14.85 96.81 20.86 96.71 26.86 C 96.76 31.14 96.73 35.41 96.74 39.69 C 96.74 41.13 96.75 42.58 96.76 44.03 C 96.75 45.71 96.75 47.39 96.75 49.08 C 96.74 50.73 96.74 52.38 96.75 54.03 C 96.74 55.69 96.74 57.35 96.74 59.01 C 96.73 60.68 96.73 62.35 96.74 64.02 C 96.73 65.63 96.72 67.24 96.70 68.85 C 96.61 71.13 96.69 73.42 96.99 75.69 C 106.29 75.59 115.59 75.57 124.89 75.70 C 125.03 73.42 125.09 71.13 125.07 68.85 C 125.12 66.85 125.20 64.85 125.29 62.85 L 124.47 63.04 C 121.23 62.09 117.82 62.40 114.50 62.54 C 114.45 61.85 114.35 60.45 114.29 59.75 C 114.32 58.06 114.34 56.37 114.37 54.69 C 114.36 53.03 114.35 51.37 114.35 49.72 C 114.35 48.04 114.36 46.36 114.37 44.68 C 114.36 43.07 114.34 41.45 114.33 39.84 C 114.31 36.29 114.54 32.72 114.25 29.18 C 114.45 22.40 114.39 15.62 114.30 8.85 C 108.47 8.81 102.63 8.81 96.80 8.85 Z" />
</g>
<g id="#969d9edc">
<path fill="#969d9e" opacity="0.86" d=" M 5.56 7.42 C 15.71 6.54 26.03 6.75 36.16 7.85 C 25.97 7.33 15.75 7.98 5.56 7.42 Z" />
</g>
<g id="#050026ff">
<path fill="#050026" opacity="1.00" d=" M 52.66 16.59 C 54.55 10.94 60.62 8.05 66.19 7.42 C 73.01 6.71 80.63 7.34 86.13 11.85 C 90.95 16.08 89.63 23.12 89.92 28.82 C 84.56 28.80 79.19 28.79 73.82 28.81 C 73.67 25.77 73.92 22.67 73.27 19.68 C 71.67 17.84 68.49 18.78 68.20 21.19 C 66.78 25.40 68.85 29.74 72.29 32.23 C 66.64 31.60 60.95 31.73 55.28 31.40 C 54.40 32.37 53.52 33.34 52.64 34.31 C 51.21 28.54 51.06 22.35 52.66 16.59 Z" />
</g>
<g id="#050025ff">
<path fill="#050025" opacity="1.00" d=" M 129.58 16.52 C 132.31 10.71 138.78 7.72 144.93 7.28 C 151.15 6.79 158.08 7.76 162.77 12.23 C 166.70 15.91 168.25 21.54 167.69 26.79 C 167.54 27.22 167.25 28.06 167.10 28.49 C 163.46 25.26 158.13 25.14 153.72 26.66 C 152.27 28.60 151.48 30.93 150.66 33.18 C 150.58 29.02 150.89 24.80 150.22 20.67 C 150.08 18.81 147.77 18.12 146.32 18.96 C 145.12 20.23 145.10 22.10 144.78 23.71 C 144.42 26.00 144.13 28.30 143.92 30.61 C 141.48 26.06 135.74 26.32 131.38 27.31 C 129.27 29.38 128.77 32.60 127.64 35.26 C 127.58 29.02 126.91 22.36 129.58 16.52 Z" />
<path fill="#050025" opacity="1.00" d=" M 7.21 9.06 C 16.41 8.87 25.64 8.77 34.82 9.57 C 40.98 10.06 45.68 15.89 45.62 21.94 C 45.36 23.09 45.09 24.25 44.81 25.40 C 39.82 25.95 34.19 24.51 29.93 27.89 C 29.88 25.74 29.65 23.60 29.40 21.46 C 27.89 21.04 26.36 20.63 24.83 20.26 C 24.65 25.35 24.69 30.44 24.75 35.53 C 23.80 32.54 22.99 29.50 22.32 26.43 C 18.09 25.64 13.75 25.69 9.51 26.42 C 8.37 30.80 7.99 35.31 7.78 39.81 C 7.73 40.26 7.64 41.17 7.60 41.62 L 7.46 42.41 C 7.02 31.30 7.39 20.18 7.21 9.06 Z" />
<path fill="#050025" opacity="1.00" d=" M 217.55 8.87 C 227.17 8.91 236.84 8.50 246.41 9.69 C 251.71 10.32 256.78 14.31 257.41 19.81 C 257.20 23.49 256.99 27.17 256.96 30.86 C 256.18 29.63 255.40 28.41 254.64 27.18 C 250.68 26.69 246.66 26.71 242.73 27.43 C 242.10 29.71 241.39 31.97 240.76 34.25 C 240.58 30.16 241.06 25.95 240.00 21.96 C 238.92 20.32 236.79 20.62 235.11 20.34 C 234.82 20.32 234.24 20.27 233.95 20.25 C 234.00 23.09 234.03 25.94 234.06 28.79 C 233.20 27.76 232.35 26.74 231.49 25.71 C 227.63 25.67 223.77 25.68 219.92 25.77 C 219.16 27.95 218.37 30.11 217.65 32.29 C 217.32 24.49 217.46 16.68 217.55 8.87 Z" />
<path fill="#050025" opacity="1.00" d=" M 280.18 9.03 C 285.23 8.88 290.30 8.76 295.34 9.20 C 296.85 14.49 298.71 19.67 300.31 24.93 C 300.20 25.20 299.97 25.74 299.86 26.01 C 293.98 25.55 288.10 25.83 282.23 26.23 C 281.13 30.67 280.75 35.24 280.73 39.80 C 280.65 41.32 280.52 42.83 280.39 44.33 L 280.33 45.09 C 280.11 33.07 280.24 21.05 280.18 9.03 Z" />
</g>
<g id="#e0ebebff">
<path fill="#e0ebeb" opacity="1.00" d=" M 177.60 7.36 C 187.14 7.12 196.69 7.10 206.23 7.37 C 207.20 13.54 208.07 19.73 209.08 25.89 C 209.35 29.70 209.92 33.48 210.69 37.22 C 210.79 37.92 210.99 39.34 211.10 40.04 C 211.78 44.67 212.40 49.30 213.18 53.91 C 213.90 59.01 214.41 64.16 215.63 69.17 C 215.97 48.63 215.93 28.05 215.70 7.50 C 222.79 6.90 229.91 7.30 237.01 7.26 C 243.05 7.50 249.79 7.24 254.82 11.17 C 258.08 13.65 259.39 17.81 259.51 21.77 C 259.52 36.59 259.90 51.42 259.28 66.23 C 258.99 67.94 258.62 69.63 258.29 71.33 C 255.74 74.42 252.16 76.51 248.17 77.03 C 230.48 77.03 212.76 77.38 195.07 76.84 C 194.53 73.04 194.46 69.20 194.22 65.37 C 193.11 65.42 192.00 65.47 190.90 65.53 C 190.58 69.13 190.35 72.74 190.28 76.36 L 189.70 76.93 C 182.70 77.31 175.69 76.92 168.68 77.22 C 169.60 65.45 171.51 53.76 173.01 42.04 C 173.75 36.37 174.44 30.69 175.13 25.02 C 176.00 19.14 176.67 13.23 177.60 7.36 M 179.09 9.04 C 178.41 14.17 177.78 19.31 177.14 24.45 C 176.43 29.12 175.93 33.82 175.19 38.49 C 174.92 40.55 174.68 42.61 174.48 44.68 C 174.27 46.14 174.05 47.59 173.83 49.05 C 173.60 50.52 173.38 51.99 173.16 53.46 C 172.96 55.14 172.76 56.83 172.57 58.52 C 172.36 60.01 172.16 61.50 171.94 62.99 C 171.81 63.78 171.55 65.35 171.42 66.14 C 170.95 69.29 170.52 72.45 170.21 75.62 C 176.34 75.64 182.48 75.58 188.61 75.67 C 188.73 73.33 188.86 71.00 189.00 68.67 C 189.14 67.10 189.27 65.54 189.38 63.97 C 191.46 63.67 193.56 63.67 195.64 63.92 C 195.78 65.56 195.95 67.19 196.12 68.82 C 196.49 70.93 195.63 73.63 197.09 75.34 C 202.85 75.68 208.64 75.46 214.41 75.35 C 214.29 72.93 213.99 70.53 213.53 68.16 C 213.19 65.82 212.87 63.48 212.55 61.14 C 212.29 59.00 211.89 56.88 211.53 54.76 C 211.18 52.49 210.85 50.21 210.47 47.95 C 210.35 46.45 210.08 44.99 209.84 43.51 C 209.49 41.31 209.16 39.11 208.83 36.91 C 208.19 32.75 207.55 28.59 206.96 24.43 C 206.18 19.31 205.47 14.18 204.71 9.06 C 196.18 8.70 187.62 8.73 179.09 9.04 M 217.55 8.87 C 217.46 16.68 217.32 24.49 217.65 32.29 C 217.31 34.76 217.49 37.25 217.48 39.73 C 217.48 41.39 217.48 43.04 217.48 44.70 C 217.47 46.37 217.48 48.05 217.48 49.73 C 217.48 51.06 217.48 52.40 217.48 53.74 C 217.48 55.07 217.48 56.40 217.49 57.73 C 217.48 59.06 217.48 60.39 217.48 61.72 C 217.51 62.54 217.56 64.18 217.59 65.00 C 217.58 66.34 217.57 67.67 217.56 69.01 C 217.54 71.11 217.56 73.22 217.62 75.33 C 226.07 75.63 234.53 75.40 242.98 75.46 C 247.95 75.53 253.72 74.60 256.49 69.94 C 257.31 67.45 257.76 64.87 258.14 62.28 C 258.10 60.94 258.08 59.61 258.07 58.28 C 258.07 56.61 258.08 54.94 258.07 53.27 C 258.08 51.14 258.10 49.02 258.12 46.89 C 258.08 46.10 258.00 44.52 257.96 43.73 C 257.94 35.76 258.37 27.74 257.41 19.81 C 256.78 14.31 251.71 10.32 246.41 9.69 C 236.84 8.50 227.17 8.91 217.55 8.87 Z" />
</g>
<g id="#bfdbe4fc">
<path fill="#bfdbe4" opacity="1.00" d=" M 278.43 7.46 C 284.50 6.88 290.60 7.16 296.69 7.26 C 297.22 8.82 297.74 10.38 298.25 11.96 C 299.74 16.69 301.24 21.43 303.17 26.02 C 303.48 28.38 303.39 30.78 303.19 33.15 C 302.19 30.42 301.18 27.70 300.31 24.93 C 298.71 19.67 296.85 14.49 295.34 9.20 C 290.30 8.76 285.23 8.88 280.18 9.03 C 280.24 21.05 280.11 33.07 280.33 45.09 L 280.31 45.92 C 280.18 49.23 280.06 52.55 280.17 55.86 C 280.17 57.90 280.14 59.94 280.13 61.99 C 280.11 63.64 280.10 65.29 280.11 66.95 C 280.12 69.69 280.17 72.43 280.22 75.17 C 284.91 75.54 289.62 75.53 294.31 75.21 C 294.37 73.15 294.42 71.09 294.44 69.02 C 294.45 67.41 294.45 65.80 294.52 64.19 C 294.99 62.64 295.60 61.14 296.23 59.65 C 296.40 65.45 296.44 71.26 296.13 77.06 C 290.31 77.26 284.49 77.24 278.66 77.11 C 278.22 53.90 278.72 30.67 278.43 7.46 Z" />
</g>
<g id="#d4e9e9ff">
<path fill="#d4e9e9" opacity="1.00" d=" M 303.48 7.27 C 309.34 7.37 315.29 6.63 321.08 7.70 C 320.93 30.80 321.29 53.90 320.91 76.99 C 314.65 77.25 308.40 77.08 302.14 77.11 L 301.78 76.32 C 300.50 71.75 299.30 67.15 297.76 62.65 C 297.31 61.62 296.77 60.63 296.23 59.65 C 295.60 61.14 294.99 62.64 294.52 64.19 C 294.54 62.71 294.56 61.23 294.58 59.76 C 294.59 58.08 294.61 56.40 294.61 54.73 C 294.61 53.42 294.60 52.12 294.59 50.82 C 294.55 49.18 294.52 47.54 294.51 45.91 C 294.97 46.93 295.44 47.96 295.85 49.01 C 296.27 50.29 296.63 51.59 296.99 52.89 C 297.29 54.02 297.59 55.15 297.91 56.28 C 298.45 58.20 299.03 60.12 299.59 62.04 C 300.07 63.73 300.55 65.42 301.01 67.11 C 301.95 69.82 302.17 73.03 304.12 75.22 C 309.14 75.83 314.21 75.40 319.25 75.27 C 319.33 72.77 319.40 70.27 319.42 67.78 C 319.42 65.79 319.40 63.80 319.40 61.81 C 319.39 60.14 319.39 58.47 319.41 56.80 C 319.41 56.04 319.42 54.52 319.42 53.76 C 319.41 52.44 319.41 51.12 319.41 49.80 C 319.39 48.12 319.39 46.45 319.40 44.77 C 319.41 43.45 319.41 42.12 319.42 40.80 C 319.39 37.26 319.42 33.73 319.36 30.20 C 319.36 23.10 319.49 16.01 319.33 8.92 C 314.52 8.84 309.72 8.84 304.91 8.91 C 304.84 13.91 304.88 18.90 304.86 23.89 C 304.77 28.28 304.95 32.67 304.76 37.06 L 304.32 37.58 C 303.93 36.11 303.55 34.63 303.19 33.15 C 303.39 30.78 303.48 28.38 303.17 26.02 C 303.08 20.62 303.25 15.23 303.12 9.83 C 303.21 9.19 303.39 7.91 303.48 7.27 Z" />
</g>
<g id="#abbcc3f1">
<path fill="#abbcc3" opacity="0.95" d=" M 324.82 7.47 C 328.83 6.70 332.94 6.94 337.00 6.93 C 352.00 6.96 367.00 6.93 382.00 6.94 C 387.16 6.95 392.34 6.73 397.48 7.32 C 397.52 12.77 397.53 18.21 397.48 23.65 C 394.04 23.93 390.59 23.98 387.15 24.19 L 386.31 24.26 C 386.20 36.15 386.47 48.04 386.21 59.92 L 385.00 59.98 C 384.99 58.27 384.98 56.57 384.98 54.86 C 384.97 52.93 384.97 51.00 384.97 49.07 C 384.96 47.38 384.96 45.69 384.96 44.00 C 384.96 42.63 384.96 41.25 384.97 39.88 C 384.96 34.24 385.01 28.60 384.94 22.96 C 388.20 21.03 392.22 22.30 395.82 21.97 L 396.82 21.94 C 397.23 17.67 397.23 13.35 396.82 9.08 L 395.83 9.03 C 383.03 8.92 370.24 9.11 357.44 8.94 C 356.97 8.94 356.03 8.94 355.56 8.94 C 345.76 9.05 335.97 9.04 326.17 8.96 C 325.84 8.59 325.16 7.84 324.82 7.47 Z" />
</g>
<g id="#555759c0">
<path fill="#555759" opacity="0.75" d=" M 5.02 74.22 C 5.86 51.97 4.82 29.67 5.56 7.42 C 5.93 30.72 5.58 54.02 5.75 77.32 C 5.50 76.29 5.26 75.25 5.02 74.22 Z" />
</g>
<g id="#c2d9dffa">
<path fill="#c2d9df" opacity="0.98" d=" M 5.56 7.42 C 15.75 7.98 25.97 7.33 36.16 7.85 C 40.48 8.31 43.97 11.32 46.09 14.94 C 48.02 21.22 48.30 27.94 47.29 34.40 C 46.97 37.04 45.33 39.19 43.83 41.28 C 44.46 42.14 45.10 43.01 45.74 43.87 C 46.10 44.37 46.84 45.38 47.21 45.89 C 48.23 53.11 47.66 60.42 47.80 67.68 C 47.78 70.66 47.84 73.65 47.74 76.63 L 47.44 77.18 C 41.03 77.10 34.62 77.33 28.21 77.01 C 27.68 67.57 28.90 58.03 27.40 48.67 L 27.20 47.59 C 26.20 50.63 26.68 53.87 26.60 57.00 C 26.58 63.75 26.75 70.51 26.45 77.26 C 19.55 77.39 12.65 77.28 5.75 77.32 C 5.58 54.02 5.93 30.72 5.56 7.42 M 7.21 9.06 C 7.39 20.18 7.02 31.30 7.46 42.41 C 6.81 45.49 7.19 48.66 7.37 51.77 C 7.27 54.78 6.98 57.80 7.32 60.80 C 7.26 62.47 7.10 64.15 7.36 65.81 C 7.18 69.10 7.24 72.39 7.30 75.68 C 13.10 75.56 18.90 75.56 24.69 75.68 C 24.74 72.04 24.79 68.41 24.63 64.78 C 24.74 63.46 24.76 62.14 24.69 60.82 C 24.99 57.48 24.70 54.13 24.62 50.79 C 24.76 49.11 24.85 47.43 24.95 45.76 C 25.75 45.69 27.36 45.56 28.16 45.50 C 28.78 46.69 29.37 47.89 29.95 49.10 C 29.90 50.63 29.86 52.16 29.83 53.69 C 29.85 55.03 29.87 56.36 29.88 57.70 C 29.90 59.41 29.93 61.13 29.96 62.84 C 29.91 64.79 29.87 66.75 29.82 68.70 C 29.86 70.88 29.90 73.06 29.96 75.24 C 35.30 75.51 40.65 75.53 45.99 75.23 C 46.02 72.84 46.02 70.46 45.97 68.07 C 46.00 66.29 46.03 64.50 46.06 62.72 C 46.02 60.84 45.98 58.95 45.95 57.07 C 46.03 53.68 46.14 50.25 45.37 46.93 C 44.13 45.13 42.69 42.27 40.13 42.54 C 39.11 41.71 38.12 40.85 37.07 40.05 C 40.68 41.05 44.83 38.33 45.39 34.61 C 46.13 30.43 46.14 26.14 45.62 21.94 C 45.68 15.89 40.98 10.06 34.82 9.57 C 25.64 8.77 16.41 8.87 7.21 9.06 Z" />
</g>
<g id="#0302027e">
<path fill="#030202" opacity="0.49" d=" M 93.29 16.47 C 94.03 13.49 94.53 10.45 94.92 7.40 C 95.42 20.98 95.03 34.58 95.14 48.17 C 94.12 48.20 93.11 48.23 92.09 48.25 C 91.74 46.92 91.36 45.59 90.91 44.29 C 91.63 44.09 93.05 43.71 93.76 43.52 C 94.49 39.18 94.78 34.67 93.31 30.44 C 89.19 31.16 85.02 31.42 80.85 31.47 C 79.25 31.50 77.65 31.55 76.06 31.60 C 75.75 31.36 75.13 30.87 74.83 30.63 C 80.38 30.41 85.94 30.57 91.50 30.39 C 91.76 24.82 91.76 19.17 90.38 13.73 C 91.32 14.68 92.31 15.57 93.29 16.47 Z" />
</g>
<g id="#050123ff">
<path fill="#050123" opacity="1.00" d=" M 215.34 44.19 C 215.68 31.96 215.03 19.72 215.70 7.50 C 215.93 28.05 215.97 48.63 215.63 69.17 C 214.41 64.16 213.90 59.01 213.18 53.91 C 213.75 55.02 214.38 56.10 215.02 57.18 C 215.51 52.87 215.45 48.52 215.34 44.19 Z" />
<path fill="#050123" opacity="1.00" d=" M 278.28 41.00 C 278.39 29.82 278.07 18.63 278.43 7.46 C 278.72 30.67 278.22 53.90 278.66 77.11 C 284.49 77.24 290.31 77.26 296.13 77.06 C 296.44 71.26 296.40 65.45 296.23 59.65 C 296.77 60.63 297.31 61.62 297.76 62.65 C 297.20 65.23 296.87 67.86 296.81 70.50 C 296.69 72.80 296.56 75.11 296.40 77.42 C 284.84 77.63 273.26 77.71 261.71 77.35 C 266.81 77.10 271.93 77.27 277.04 77.11 C 277.33 71.52 276.79 65.91 277.42 60.35 C 278.89 53.99 278.14 47.45 278.28 41.00 Z" />
<path fill="#050123" opacity="1.00" d=" M 304.91 8.91 C 309.72 8.84 314.52 8.84 319.33 8.92 C 319.49 16.01 319.36 23.10 319.36 30.20 C 318.52 27.94 317.73 25.60 316.27 23.67 C 312.64 22.09 308.58 23.31 304.86 23.89 C 304.88 18.90 304.84 13.91 304.91 8.91 Z" />
<path fill="#050123" opacity="1.00" d=" M 259.51 21.77 C 260.38 34.55 259.43 47.38 260.18 60.17 C 259.98 62.20 259.64 64.22 259.28 66.23 C 259.90 51.42 259.52 36.59 259.51 21.77 Z" />
<path fill="#050123" opacity="1.00" d=" M 26.32 23.24 C 26.71 23.22 27.49 23.18 27.88 23.16 C 28.14 26.36 28.12 29.57 27.78 32.76 C 27.43 32.75 26.71 32.74 26.35 32.73 C 26.44 29.57 26.45 26.40 26.32 23.24 Z" />
<path fill="#050123" opacity="1.00" d=" M 169.74 45.54 C 170.99 44.53 172.20 43.44 173.01 42.04 C 171.51 53.76 169.60 65.45 168.68 77.22 C 168.48 75.49 168.27 73.77 168.05 72.04 C 166.62 72.56 165.21 73.09 163.82 73.68 C 171.67 66.46 169.09 55.01 169.74 45.54 Z" />
<path fill="#050123" opacity="1.00" d=" M 191.34 49.59 C 191.47 46.99 191.96 44.43 192.54 41.90 C 192.87 44.69 193.18 47.48 193.26 50.29 C 192.78 50.12 191.82 49.77 191.34 49.59 Z" />
<path fill="#050123" opacity="1.00" d=" M 126.65 66.78 C 127.42 67.95 128.15 69.14 128.91 70.31 C 127.69 71.81 127.15 73.62 126.93 75.50 C 126.77 75.93 126.45 76.78 126.29 77.21 C 126.52 73.74 126.52 70.26 126.65 66.78 Z" />
</g>
<g id="#232122a1">
<path fill="#232122" opacity="0.63" d=" M 321.08 7.70 L 322.00 7.92 C 321.25 22.60 321.86 37.31 321.67 52.00 C 321.76 60.02 321.34 68.06 322.09 76.07 C 321.90 76.44 321.51 77.17 321.32 77.53 C 314.95 77.63 308.43 78.34 302.14 77.11 C 308.40 77.08 314.65 77.25 320.91 76.99 C 321.29 53.90 320.93 30.80 321.08 7.70 Z" />
</g>
<g id="#00000078">
<path fill="#000000" opacity="0.47" d=" M 322.00 7.92 C 322.48 7.85 323.45 7.71 323.93 7.64 C 324.79 22.40 324.11 37.21 324.32 52.00 C 324.20 60.05 324.71 68.12 323.87 76.15 C 323.42 76.13 322.53 76.09 322.09 76.07 C 321.34 68.06 321.76 60.02 321.67 52.00 C 321.86 37.31 321.25 22.60 322.00 7.92 Z" />
</g>
<g id="#484949b5">
<path fill="#484949" opacity="0.71" d=" M 323.93 7.64 L 324.82 7.47 C 324.47 26.31 324.78 45.16 324.65 64.00 C 324.59 68.33 324.68 72.67 324.93 77.00 C 335.93 76.99 346.94 77.12 357.94 76.93 C 358.06 71.62 358.04 66.31 357.96 61.00 C 353.74 60.81 349.52 60.84 345.30 60.78 C 345.24 56.89 345.24 53.00 345.28 49.10 C 348.97 48.93 352.68 49.00 356.38 49.22 C 352.89 49.57 349.40 49.76 345.91 49.91 C 345.67 53.31 345.68 56.71 345.94 60.10 C 350.11 60.31 354.28 60.37 358.45 60.53 C 358.77 66.16 358.78 71.81 358.43 77.45 C 347.21 77.77 335.96 77.81 324.75 77.47 C 324.53 77.14 324.09 76.48 323.87 76.15 C 324.71 68.12 324.20 60.05 324.32 52.00 C 324.11 37.21 324.79 22.40 323.93 7.64 Z" />
</g>
<g id="#bbd9e7fd">
<path fill="#bbd9e7" opacity="1.00" d=" M 324.82 7.47 C 325.16 7.84 325.84 8.59 326.17 8.96 C 326.39 20.42 326.11 31.89 326.37 43.35 C 326.16 46.17 326.15 49.00 326.28 51.82 C 326.31 55.64 326.16 59.46 326.14 63.28 C 326.13 64.49 326.13 65.69 326.14 66.90 C 326.16 69.65 326.22 72.40 326.27 75.15 C 336.25 75.60 346.25 75.44 356.23 75.23 C 356.32 73.41 356.41 71.60 356.46 69.78 C 356.47 67.83 356.40 65.88 356.26 63.93 L 356.14 62.77 C 352.11 62.40 348.07 62.50 344.04 62.61 C 343.49 57.63 343.74 52.61 343.73 47.61 C 347.40 47.51 351.08 47.51 354.76 47.65 L 354.72 46.93 C 354.67 42.92 354.77 38.91 354.78 34.91 C 351.06 34.79 347.34 34.78 343.62 34.89 C 343.70 30.61 343.64 26.33 343.75 22.05 C 347.72 22.00 351.69 21.97 355.66 21.88 C 355.61 17.57 355.66 13.26 355.56 8.94 C 356.03 8.94 356.97 8.94 357.44 8.94 C 357.35 13.25 357.39 17.56 357.33 21.86 C 360.77 21.96 364.20 22.03 367.64 22.15 C 367.63 25.51 367.69 28.87 367.70 32.24 C 367.63 35.10 367.63 37.97 367.62 40.83 C 367.62 42.14 367.62 43.45 367.63 44.77 C 367.63 46.78 367.63 48.80 367.62 50.81 C 367.61 52.46 367.62 54.12 367.63 55.77 C 367.64 57.43 367.67 59.09 367.68 60.75 C 367.69 62.17 367.69 63.60 367.69 65.02 C 367.68 66.60 367.67 68.19 367.68 69.78 C 367.70 71.59 367.75 73.41 367.81 75.22 C 373.52 75.51 379.25 75.52 384.96 75.21 C 384.98 73.40 385.00 71.60 385.01 69.80 C 385.01 68.21 385.00 66.63 385.00 65.05 C 384.99 63.36 384.99 61.67 385.00 59.98 L 386.21 59.92 C 386.25 65.73 386.24 71.55 386.51 77.35 C 379.71 77.18 372.90 77.51 366.11 77.18 C 365.78 59.30 366.23 41.40 365.87 23.51 C 359.03 23.61 352.19 23.61 345.35 23.52 C 345.24 26.60 345.14 29.68 345.19 32.76 L 346.06 32.86 C 349.35 33.16 352.67 33.16 355.98 33.21 C 356.41 38.53 356.33 43.88 356.38 49.22 C 352.68 49.00 348.97 48.93 345.28 49.10 C 345.24 53.00 345.24 56.89 345.30 60.78 C 349.52 60.84 353.74 60.81 357.96 61.00 C 358.04 66.31 358.06 71.62 357.94 76.93 C 346.94 77.12 335.93 76.99 324.93 77.00 C 324.68 72.67 324.59 68.33 324.65 64.00 C 324.78 45.16 324.47 26.31 324.82 7.47 Z" />
</g>
<g id="#050024ff">
<path fill="#050024" opacity="1.00" d=" M 96.80 8.85 C 102.63 8.81 108.47 8.81 114.30 8.85 C 114.39 15.62 114.45 22.40 114.25 29.18 C 113.11 27.48 111.88 25.85 110.68 24.20 C 105.95 23.99 100.11 22.56 96.71 26.86 C 96.81 20.86 96.67 14.85 96.80 8.85 Z" />
<path fill="#050024" opacity="1.00" d=" M 179.09 9.04 C 187.62 8.73 196.18 8.70 204.71 9.06 C 205.47 14.18 206.18 19.31 206.96 24.43 C 202.68 26.28 198.01 24.43 193.56 24.47 C 188.08 23.94 182.47 26.35 177.14 24.45 C 177.78 19.31 178.41 14.17 179.09 9.04 Z" />
</g>
<g id="#050023ff">
<path fill="#050023" opacity="1.00" d=" M 326.17 8.96 C 335.97 9.04 345.76 9.05 355.56 8.94 C 355.66 13.26 355.61 17.57 355.66 21.88 C 351.69 21.97 347.72 22.00 343.75 22.05 C 343.64 26.33 343.70 30.61 343.62 34.89 C 342.61 31.80 341.93 28.62 341.43 25.42 C 337.15 24.70 332.80 24.73 328.52 25.43 C 327.27 30.43 327.02 35.59 326.65 40.72 C 326.60 41.17 326.51 42.07 326.46 42.53 L 326.37 43.35 C 326.11 31.89 326.39 20.42 326.17 8.96 Z" />
<path fill="#050023" opacity="1.00" d=" M 357.44 8.94 C 370.24 9.11 383.03 8.92 395.83 9.03 C 395.74 13.34 395.73 17.66 395.82 21.97 C 392.22 22.30 388.20 21.03 384.94 22.96 C 380.75 25.93 375.21 22.45 370.73 24.67 C 368.99 26.80 368.55 29.68 367.70 32.24 C 367.69 28.87 367.63 25.51 367.64 22.15 C 364.20 22.03 360.77 21.96 357.33 21.86 C 357.39 17.56 357.35 13.25 357.44 8.94 Z" />
</g>
<g id="#e1f9ffff">
<path fill="#e1f9ff" opacity="1.00" d=" M 395.83 9.03 L 396.82 9.08 C 397.23 13.35 397.23 17.67 396.82 21.94 L 395.82 21.97 C 395.73 17.66 395.74 13.34 395.83 9.03 Z" />
</g>
<g id="#01020282">
<path fill="#010202" opacity="0.51" d=" M 301.56 13.91 C 302.09 12.56 302.62 11.20 303.12 9.83 C 303.25 15.23 303.08 20.62 303.17 26.02 C 301.24 21.43 299.74 16.69 298.25 11.96 C 299.34 12.61 300.45 13.26 301.56 13.91 Z" />
</g>
<g id="#1d1d1da5">
<path fill="#1d1d1d" opacity="0.65" d=" M 46.09 14.94 C 47.00 16.27 47.94 17.58 48.87 18.89 C 49.50 17.90 50.13 16.91 50.72 15.90 C 49.68 23.68 49.08 32.03 52.77 39.25 C 51.42 37.75 50.07 36.26 48.71 34.77 C 47.17 37.60 46.10 40.66 45.74 43.87 C 45.10 43.01 44.46 42.14 43.83 41.28 C 45.33 39.19 46.97 37.04 47.29 34.40 C 48.30 27.94 48.02 21.22 46.09 14.94 Z" />
</g>
<g id="#b4c5cdfa">
<path fill="#b4c5cd" opacity="0.98" d=" M 146.32 18.96 C 147.77 18.12 150.08 18.81 150.22 20.67 C 150.89 24.80 150.58 29.02 150.66 33.18 C 150.60 35.75 150.62 38.32 150.61 40.88 C 150.60 42.48 150.59 44.09 150.59 45.69 L 150.60 46.67 C 150.42 52.23 150.69 57.82 150.12 63.37 C 149.83 63.83 149.24 64.75 148.95 65.21 C 147.67 65.00 146.40 64.78 145.11 64.62 C 145.09 63.74 145.03 61.96 145.00 61.08 C 144.97 59.74 144.95 58.41 144.95 57.08 C 144.95 55.74 144.95 54.40 144.97 53.07 C 144.98 51.46 144.99 49.86 144.99 48.26 C 144.99 45.93 144.98 43.59 144.97 41.26 C 144.93 35.41 144.98 29.56 144.78 23.71 C 145.10 22.10 145.12 20.23 146.32 18.96 M 147.17 20.87 C 146.53 26.89 146.81 32.96 146.76 39.00 C 146.93 47.09 146.32 55.23 147.25 63.29 C 149.17 61.78 148.69 59.19 148.84 57.06 C 148.86 46.35 148.91 35.63 148.83 24.91 C 148.64 23.42 149.24 21.15 147.17 20.87 Z" />
</g>
<g id="#060138ff">
<path fill="#060138" opacity="1.00" d=" M 233.95 20.25 C 234.24 20.27 234.82 20.32 235.11 20.34 C 234.81 24.83 234.93 29.32 234.84 33.81 C 234.60 35.68 234.27 37.54 233.96 39.41 C 228.47 38.88 222.91 38.62 217.48 39.73 C 217.49 37.25 217.31 34.76 217.65 32.29 C 218.37 30.11 219.16 27.95 219.92 25.77 C 223.77 25.68 227.63 25.67 231.49 25.71 C 232.35 26.74 233.20 27.76 234.06 28.79 C 234.03 25.94 234.00 23.09 233.95 20.25 Z" />
<path fill="#060138" opacity="1.00" d=" M 45.62 21.94 C 46.14 26.14 46.13 30.43 45.39 34.61 C 44.83 38.33 40.68 41.05 37.07 40.05 C 32.23 38.30 27.03 39.15 22.00 38.99 C 17.25 38.86 12.48 39.03 7.78 39.81 C 7.99 35.31 8.37 30.80 9.51 26.42 C 13.75 25.69 18.09 25.64 22.32 26.43 C 22.99 29.50 23.80 32.54 24.75 35.53 C 26.19 35.06 27.83 34.97 29.07 34.04 C 29.85 32.09 29.85 29.95 29.93 27.89 C 34.19 24.51 39.82 25.95 44.81 25.40 C 45.09 24.25 45.36 23.09 45.62 21.94 Z" />
<path fill="#060138" opacity="1.00" d=" M 282.23 26.23 C 288.10 25.83 293.98 25.55 299.86 26.01 C 299.97 25.74 300.20 25.20 300.31 24.93 C 301.18 27.70 302.19 30.42 303.19 33.15 C 303.55 34.63 303.93 36.11 304.32 37.58 C 301.97 39.47 298.81 39.01 296.00 39.05 C 290.90 38.85 285.75 38.72 280.73 39.80 C 280.75 35.24 281.13 30.67 282.23 26.23 Z" />
</g>
<g id="#06013bff">
<path fill="#06013b" opacity="1.00" d=" M 257.41 19.81 C 258.37 27.74 257.94 35.76 257.96 43.73 C 252.66 41.11 245.83 40.80 240.61 43.76 C 240.63 40.59 240.65 37.42 240.76 34.25 C 241.39 31.97 242.10 29.71 242.73 27.43 C 246.66 26.71 250.68 26.69 254.64 27.18 C 255.40 28.41 256.18 29.63 256.96 30.86 C 256.99 27.17 257.20 23.49 257.41 19.81 Z" />
</g>
<g id="#c5d8defe">
<path fill="#c5d8de" opacity="1.00" d=" M 24.83 20.26 C 26.36 20.63 27.89 21.04 29.40 21.46 C 29.65 23.60 29.88 25.74 29.93 27.89 C 29.85 29.95 29.85 32.09 29.07 34.04 C 27.83 34.97 26.19 35.06 24.75 35.53 C 24.69 30.44 24.65 25.35 24.83 20.26 M 26.32 23.24 C 26.45 26.40 26.44 29.57 26.35 32.73 C 26.71 32.74 27.43 32.75 27.78 32.76 C 28.12 29.57 28.14 26.36 27.88 23.16 C 27.49 23.18 26.71 23.22 26.32 23.24 Z" />
</g>
<g id="#131111d1">
<path fill="#131111" opacity="0.82" d=" M 71.98 28.76 C 69.30 27.41 68.05 21.24 71.83 20.90 C 72.05 23.51 72.13 26.14 71.98 28.76 Z" />
</g>
<g id="#1e1e1fc5">
<path fill="#1e1e1f" opacity="0.77" d=" M 147.17 20.87 C 149.24 21.15 148.64 23.42 148.83 24.91 C 148.91 35.63 148.86 46.35 148.84 57.06 C 148.69 59.19 149.17 61.78 147.25 63.29 C 146.32 55.23 146.93 47.09 146.76 39.00 C 146.81 32.96 146.53 26.89 147.17 20.87 Z" />
</g>
<g id="#acbdc9fa">
<path fill="#acbdc9" opacity="0.98" d=" M 235.11 20.34 C 236.79 20.62 238.92 20.32 240.00 21.96 C 241.06 25.95 240.58 30.16 240.76 34.25 C 240.65 37.42 240.63 40.59 240.61 43.76 C 240.62 45.75 240.64 47.75 240.65 49.74 C 240.66 51.42 240.67 53.11 240.68 54.80 C 240.69 56.07 240.67 57.34 240.63 58.62 C 240.23 60.34 239.71 62.03 239.18 63.71 C 237.81 63.83 236.46 64.03 235.11 64.25 C 235.08 63.46 235.01 61.90 234.98 61.12 C 234.94 59.76 234.93 58.40 234.93 57.04 C 234.94 55.45 234.97 53.86 234.99 52.27 C 235.00 50.47 234.99 48.67 234.98 46.88 C 234.97 45.68 234.96 44.48 234.95 43.29 C 234.92 40.13 234.86 36.97 234.84 33.81 C 234.93 29.32 234.81 24.83 235.11 20.34 M 237.04 22.51 C 236.44 29.66 236.88 36.84 236.75 44.00 C 236.86 49.91 236.43 55.84 237.07 61.72 C 238.80 59.94 238.60 57.33 238.77 55.05 C 238.86 46.35 238.79 37.64 238.82 28.94 C 238.63 26.74 239.19 23.93 237.04 22.51 Z" />
</g>
<g id="#1d1d1dc2">
<path fill="#1d1d1d" opacity="0.76" d=" M 237.04 22.51 C 239.19 23.93 238.63 26.74 238.82 28.94 C 238.79 37.64 238.86 46.35 238.77 55.05 C 238.60 57.33 238.80 59.94 237.07 61.72 C 236.43 55.84 236.86 49.91 236.75 44.00 C 236.88 36.84 236.44 29.66 237.04 22.51 Z" />
</g>
<g id="#060136ff">
<path fill="#060136" opacity="1.00" d=" M 304.86 23.89 C 308.58 23.31 312.64 22.09 316.27 23.67 C 317.73 25.60 318.52 27.94 319.36 30.20 C 319.42 33.73 319.39 37.26 319.42 40.80 C 315.11 37.37 308.99 40.58 304.76 37.06 C 304.95 32.67 304.77 28.28 304.86 23.89 Z" />
<path fill="#060136" opacity="1.00" d=" M 370.73 24.67 C 375.21 22.45 380.75 25.93 384.94 22.96 C 385.01 28.60 384.96 34.24 384.97 39.88 C 379.24 38.81 372.95 37.81 367.62 40.83 C 367.63 37.97 367.63 35.10 367.70 32.24 C 368.55 29.68 368.99 26.80 370.73 24.67 Z" />
<path fill="#060136" opacity="1.00" d=" M 96.71 26.86 C 100.11 22.56 105.95 23.99 110.68 24.20 C 111.88 25.85 113.11 27.48 114.25 29.18 C 114.54 32.72 114.31 36.29 114.33 39.84 C 108.53 38.66 102.55 38.47 96.74 39.69 C 96.73 35.41 96.76 31.14 96.71 26.86 Z" />
<path fill="#060136" opacity="1.00" d=" M 175.19 38.49 C 175.93 33.82 176.43 29.12 177.14 24.45 C 182.47 26.35 188.08 23.94 193.56 24.47 C 198.01 24.43 202.68 26.28 206.96 24.43 C 207.55 28.59 208.19 32.75 208.83 36.91 C 208.49 37.35 207.82 38.25 207.49 38.70 C 203.00 39.04 198.50 39.23 194.00 39.19 C 193.48 34.41 193.25 29.60 192.48 24.85 C 191.82 29.32 191.47 33.84 190.99 38.34 C 189.43 39.04 187.73 39.28 186.03 39.18 C 182.41 39.03 178.71 39.56 175.19 38.49 Z" />
</g>
<g id="#494c4db1">
<path fill="#494c4d" opacity="0.69" d=" M 345.35 23.52 C 352.19 23.61 359.03 23.61 365.87 23.51 C 366.23 41.40 365.78 59.30 366.11 77.18 L 365.27 76.91 C 365.38 59.92 365.45 42.92 365.28 25.93 C 365.22 25.49 365.12 24.60 365.06 24.16 C 358.67 23.89 352.27 23.98 345.87 24.16 C 345.84 24.84 345.78 26.19 345.75 26.87 C 345.77 27.68 345.81 29.31 345.83 30.12 C 345.89 30.80 346.00 32.17 346.06 32.86 L 345.19 32.76 C 345.14 29.68 345.24 26.60 345.35 23.52 Z" />
</g>
<g id="#06013cff">
<path fill="#06013c" opacity="1.00" d=" M 143.92 30.61 C 144.13 28.30 144.42 26.00 144.78 23.71 C 144.98 29.56 144.93 35.41 144.97 41.26 C 139.20 42.45 133.27 41.67 127.48 42.70 C 127.49 40.22 127.32 37.73 127.64 35.26 C 128.77 32.60 129.27 29.38 131.38 27.31 C 135.74 26.32 141.48 26.06 143.92 30.61 Z" />
</g>
<g id="#0000006d">
<path fill="#000000" opacity="0.43" d=" M 345.87 24.16 C 352.27 23.98 358.67 23.89 365.06 24.16 C 365.12 24.60 365.22 25.49 365.28 25.93 C 358.92 24.62 351.60 23.24 345.75 26.87 C 345.78 26.19 345.84 24.84 345.87 24.16 Z" />
</g>
<g id="#9aa1a0df">
<path fill="#9aa1a0" opacity="0.87" d=" M 386.31 24.26 L 387.15 24.19 C 386.85 41.90 387.61 59.66 386.51 77.35 C 386.24 71.55 386.25 65.73 386.21 59.92 C 386.47 48.04 386.20 36.15 386.31 24.26 Z" />
</g>
<g id="#0202026e">
<path fill="#020202" opacity="0.43" d=" M 171.73 32.13 C 173.43 30.07 174.40 27.56 175.13 25.02 C 174.44 30.69 173.75 36.37 173.01 42.04 C 172.20 43.44 170.99 44.53 169.74 45.54 C 169.62 38.93 169.67 32.32 169.63 25.71 C 170.24 27.88 170.98 30.01 171.73 32.13 Z" />
</g>
<g id="#e7f8f7ff">
<path fill="#e7f8f7" opacity="1.00" d=" M 192.48 24.85 C 193.25 29.60 193.48 34.41 194.00 39.19 C 194.27 41.54 194.53 43.89 194.68 46.25 C 194.70 46.76 194.73 47.79 194.74 48.30 C 194.78 49.50 194.81 50.71 194.84 51.91 C 192.90 51.73 190.91 51.51 189.18 50.55 C 189.60 48.50 189.96 46.43 190.24 44.35 C 190.49 42.35 190.72 40.34 190.99 38.34 C 191.47 33.84 191.82 29.32 192.48 24.85 M 191.34 49.59 C 191.82 49.77 192.78 50.12 193.26 50.29 C 193.18 47.48 192.87 44.69 192.54 41.90 C 191.96 44.43 191.47 46.99 191.34 49.59 Z" />
</g>
<g id="#060139ff">
<path fill="#060139" opacity="1.00" d=" M 328.52 25.43 C 332.80 24.73 337.15 24.70 341.43 25.42 C 341.93 28.62 342.61 31.80 343.62 34.89 C 347.34 34.78 351.06 34.79 354.78 34.91 C 354.77 38.91 354.67 42.92 354.72 46.93 C 354.65 46.34 354.52 45.17 354.46 44.58 C 353.87 43.00 353.93 40.65 352.08 39.96 C 350.10 39.48 348.05 39.74 346.05 39.78 C 339.58 40.16 333.05 39.41 326.65 40.72 C 327.02 35.59 327.27 30.43 328.52 25.43 Z" />
<path fill="#060139" opacity="1.00" d=" M 153.72 26.66 C 158.13 25.14 163.46 25.26 167.10 28.49 C 167.25 28.06 167.54 27.22 167.69 26.79 C 168.25 31.17 168.10 35.58 168.07 39.98 C 162.24 39.80 156.35 39.67 150.61 40.88 C 150.62 38.32 150.60 35.75 150.66 33.18 C 151.48 30.93 152.27 28.60 153.72 26.66 Z" />
</g>
<g id="#00000031">
<path fill="#000000" opacity="0.19" d=" M 345.75 26.87 C 351.60 23.24 358.92 24.62 365.28 25.93 C 365.45 42.92 365.38 59.92 365.27 76.91 C 364.82 76.76 363.93 76.46 363.48 76.31 C 363.09 74.58 362.82 72.83 362.76 71.06 C 362.64 56.22 363.60 41.33 362.52 26.52 C 357.73 26.16 352.82 25.67 348.13 27.01 C 348.17 27.69 348.24 29.03 348.28 29.71 C 350.94 30.33 353.60 30.96 356.18 31.89 C 352.61 32.21 348.89 32.29 345.83 30.12 C 345.81 29.31 345.77 27.68 345.75 26.87 Z" />
</g>
<g id="#505152b5">
<path fill="#505152" opacity="0.71" d=" M 209.08 25.89 C 210.10 29.59 210.63 33.39 210.69 37.22 C 209.92 33.48 209.35 29.70 209.08 25.89 Z" />
</g>
<g id="#00000021">
<path fill="#000000" opacity="0.13" d=" M 80.85 31.47 C 85.02 31.42 89.19 31.16 93.31 30.44 C 94.78 34.67 94.49 39.18 93.76 43.52 C 93.05 43.71 91.63 44.09 90.91 44.29 C 89.29 41.70 87.07 39.56 84.72 37.64 C 84.62 37.56 84.41 37.40 84.31 37.32 C 83.44 36.65 82.55 36.01 81.64 35.39 C 81.38 34.08 81.11 32.77 80.85 31.47 Z" />
<path fill="#000000" opacity="0.13" d=" M 45.74 43.87 C 46.10 40.66 47.17 37.60 48.71 34.77 C 50.07 36.26 51.42 37.75 52.77 39.25 C 54.94 41.81 57.62 43.86 60.39 45.73 C 60.32 46.46 60.19 47.92 60.12 48.66 C 56.76 48.97 53.39 49.10 50.01 49.16 C 49.06 48.07 48.11 47.00 47.21 45.89 C 46.84 45.38 46.10 44.37 45.74 43.87 Z" />
</g>
<g id="#01010149">
<path fill="#010101" opacity="0.29" d=" M 345.83 30.12 C 348.89 32.29 352.61 32.21 356.18 31.89 C 359.00 32.45 358.53 35.79 358.80 37.95 C 358.72 41.82 359.43 46.07 357.63 49.64 C 355.01 51.67 351.37 51.69 348.26 52.56 C 348.24 54.23 348.22 55.89 348.22 57.55 C 351.49 58.03 354.85 58.11 358.03 59.06 C 360.36 60.15 360.26 63.07 360.21 65.25 C 359.98 69.36 360.11 73.50 359.56 77.58 C 357.44 79.92 353.90 79.55 351.04 79.75 C 342.56 79.55 334.05 80.11 325.59 79.23 C 319.38 78.65 313.21 80.41 307.00 79.63 C 303.29 79.26 299.58 77.54 295.85 78.76 C 291.03 80.09 286.01 79.79 281.08 79.57 C 276.04 79.32 271.01 79.94 265.98 79.72 C 262.74 79.59 259.95 77.81 257.12 76.45 C 252.32 78.41 247.23 79.66 242.03 79.67 C 229.68 79.81 217.34 79.57 204.99 79.77 C 201.67 79.87 198.37 79.44 195.12 78.78 C 191.40 77.88 187.75 79.49 184.04 79.66 C 177.61 79.87 170.45 80.78 165.08 76.41 C 163.38 76.93 161.69 77.46 160.00 78.01 C 160.96 76.92 161.85 75.77 162.79 74.66 C 163.05 74.42 163.56 73.93 163.82 73.68 C 165.21 73.09 166.62 72.56 168.05 72.04 C 168.27 73.77 168.48 75.49 168.68 77.22 C 173.44 77.88 178.24 77.71 183.02 77.77 C 185.26 77.75 187.62 77.95 189.70 76.93 L 190.28 76.36 C 191.60 74.96 193.00 73.58 193.93 71.88 C 194.33 69.96 194.14 67.97 194.14 66.03 C 193.33 65.90 191.71 65.66 190.90 65.53 C 192.00 65.47 193.11 65.42 194.22 65.37 C 194.46 69.20 194.53 73.04 195.07 76.84 L 195.26 77.68 C 210.18 77.76 225.10 77.57 240.01 77.75 C 242.75 77.77 245.49 77.58 248.17 77.03 C 252.16 76.51 255.74 74.42 258.29 71.33 C 259.28 72.84 260.25 74.38 261.09 75.98 C 261.24 76.32 261.55 77.01 261.71 77.35 C 273.26 77.71 284.84 77.63 296.40 77.42 C 296.56 75.11 296.69 72.80 296.81 70.50 C 299.19 71.73 300.75 73.91 301.78 76.32 L 302.14 77.11 C 308.43 78.34 314.95 77.63 321.32 77.53 C 321.51 77.17 321.90 76.44 322.09 76.07 C 322.53 76.09 323.42 76.13 323.87 76.15 C 324.09 76.48 324.53 77.14 324.75 77.47 C 335.96 77.81 347.21 77.77 358.43 77.45 C 358.78 71.81 358.77 66.16 358.45 60.53 C 354.28 60.37 350.11 60.31 345.94 60.10 C 345.68 56.71 345.67 53.31 345.91 49.91 C 349.40 49.76 352.89 49.57 356.38 49.22 C 356.86 43.90 356.75 38.55 356.81 33.22 L 355.98 33.21 C 352.67 33.16 349.35 33.16 346.06 32.86 C 346.00 32.17 345.89 30.80 345.83 30.12 Z" />
</g>
<g id="#06013eff">
<path fill="#06013e" opacity="1.00" d=" M 55.28 31.40 C 60.95 31.73 66.64 31.60 72.29 32.23 C 76.81 33.99 80.89 37.05 84.37 40.42 C 76.10 41.79 67.56 39.62 59.46 42.09 L 58.81 42.26 C 56.14 40.13 53.92 37.50 52.64 34.31 C 53.52 33.34 54.40 32.37 55.28 31.40 Z" />
</g>
<g id="#151414a2">
<path fill="#151414" opacity="0.64" d=" M 76.06 31.60 C 77.65 31.55 79.25 31.50 80.85 31.47 C 81.11 32.77 81.38 34.08 81.64 35.39 C 79.76 34.15 77.86 32.95 76.06 31.60 Z" />
</g>
<g id="#5a5e5dbc">
<path fill="#5a5e5d" opacity="0.74" d=" M 355.98 33.21 L 356.81 33.22 C 356.75 38.55 356.86 43.90 356.38 49.22 C 356.33 43.88 356.41 38.53 355.98 33.21 Z" />
</g>
<g id="#070154ff">
<path fill="#070154" opacity="1.00" d=" M 233.96 39.41 C 234.27 37.54 234.60 35.68 234.84 33.81 C 234.86 36.97 234.92 40.13 234.95 43.29 C 229.19 44.49 223.26 43.67 217.48 44.70 C 217.48 43.04 217.48 41.39 217.48 39.73 C 222.91 38.62 228.47 38.88 233.96 39.41 Z" />
<path fill="#070154" opacity="1.00" d=" M 207.49 38.70 C 207.82 38.25 208.49 37.35 208.83 36.91 C 209.16 39.11 209.49 41.31 209.84 43.51 C 205.16 45.05 200.17 43.36 195.39 44.39 C 195.22 44.86 194.86 45.79 194.68 46.25 C 194.53 43.89 194.27 41.54 194.00 39.19 C 198.50 39.23 203.00 39.04 207.49 38.70 Z" />
<path fill="#070154" opacity="1.00" d=" M 304.32 37.58 L 304.76 37.06 C 308.99 40.58 315.11 37.37 319.42 40.80 C 319.41 42.12 319.41 43.45 319.40 44.77 C 315.65 44.00 311.82 43.74 308.00 43.87 C 298.80 44.15 289.58 43.61 280.39 44.33 C 280.52 42.83 280.65 41.32 280.73 39.80 C 285.75 38.72 290.90 38.85 296.00 39.05 C 298.81 39.01 301.97 39.47 304.32 37.58 Z" />
<path fill="#070154" opacity="1.00" d=" M 174.48 44.68 C 174.68 42.61 174.92 40.55 175.19 38.49 C 178.71 39.56 182.41 39.03 186.03 39.18 C 187.73 39.28 189.43 39.04 190.99 38.34 C 190.72 40.34 190.49 42.35 190.24 44.35 C 184.99 43.97 179.70 43.95 174.48 44.68 Z" />
<path fill="#070154" opacity="1.00" d=" M 96.74 39.69 C 102.55 38.47 108.53 38.66 114.33 39.84 C 114.34 41.45 114.36 43.07 114.37 44.68 C 108.55 43.65 102.64 43.89 96.76 44.03 C 96.75 42.58 96.74 41.13 96.74 39.69 Z" />
</g>
<g id="#6b6b6bc9">
<path fill="#6b6b6b" opacity="0.79" d=" M 84.31 37.32 C 84.41 37.40 84.62 37.56 84.72 37.64 C 84.62 37.56 84.41 37.40 84.31 37.32 Z" />
</g>
<g id="#070156ff">
<path fill="#070156" opacity="1.00" d=" M 7.78 39.81 C 12.48 39.03 17.25 38.86 22.00 38.99 C 27.03 39.15 32.23 38.30 37.07 40.05 C 38.12 40.85 39.11 41.71 40.13 42.54 C 34.09 43.35 27.97 44.00 21.88 43.40 C 17.15 42.89 12.38 43.11 7.69 43.86 C 7.67 43.30 7.62 42.18 7.60 41.62 C 7.64 41.17 7.73 40.26 7.78 39.81 Z" />
<path fill="#070156" opacity="1.00" d=" M 367.62 40.83 C 372.95 37.81 379.24 38.81 384.97 39.88 C 384.96 41.25 384.96 42.63 384.96 44.00 C 379.18 43.83 373.32 43.47 367.63 44.77 C 367.62 43.45 367.62 42.14 367.62 40.83 Z" />
</g>
<g id="#08015cff">
<path fill="#08015c" opacity="1.00" d=" M 346.05 39.78 C 348.05 39.74 350.10 39.48 352.08 39.96 C 353.93 40.65 353.87 43.00 354.46 44.58 C 345.22 43.65 335.79 43.38 326.59 44.75 C 326.56 44.20 326.49 43.08 326.46 42.53 C 326.51 42.07 326.60 41.17 326.65 40.72 C 333.05 39.41 339.58 40.16 346.05 39.78 Z" />
</g>
<g id="#080162ff">
<path fill="#080162" opacity="1.00" d=" M 84.37 40.42 C 86.30 40.85 87.44 43.09 88.30 44.76 C 80.47 45.27 72.55 44.25 64.81 45.92 C 62.67 45.26 60.99 43.65 59.46 42.09 C 67.56 39.62 76.10 41.79 84.37 40.42 Z" />
</g>
<g id="#08015bff">
<path fill="#08015b" opacity="1.00" d=" M 150.61 40.88 C 156.35 39.67 162.24 39.80 168.07 39.98 C 168.08 41.64 168.09 43.30 168.10 44.97 C 162.26 44.79 156.36 44.52 150.59 45.69 C 150.59 44.09 150.60 42.48 150.61 40.88 Z" />
</g>
<g id="#00000076">
<path fill="#000000" opacity="0.46" d=" M 211.10 40.04 C 212.48 41.45 213.89 42.84 215.34 44.19 C 215.45 48.52 215.51 52.87 215.02 57.18 C 214.38 56.10 213.75 55.02 213.18 53.91 C 212.40 49.30 211.78 44.67 211.10 40.04 Z" />
</g>
<g id="#0a0173ff">
<path fill="#0a0173" opacity="1.00" d=" M 127.48 42.70 C 133.27 41.67 139.20 42.45 144.97 41.26 C 144.98 43.59 144.99 45.93 144.99 48.26 C 139.21 49.32 133.26 48.48 127.49 49.70 C 127.48 47.37 127.47 45.04 127.48 42.70 Z" />
<path fill="#0a0173" opacity="1.00" d=" M 240.61 43.76 C 245.83 40.80 252.66 41.11 257.96 43.73 C 258.00 44.52 258.08 46.10 258.12 46.89 C 257.73 47.37 256.95 48.31 256.56 48.79 C 251.25 48.91 245.87 48.50 240.65 49.74 C 240.64 47.75 240.62 45.75 240.61 43.76 Z" />
</g>
<g id="#292399ff">
<path fill="#292399" opacity="1.00" d=" M 7.46 42.41 L 7.60 41.62 C 7.62 42.18 7.67 43.30 7.69 43.86 C 7.77 45.74 7.82 47.61 7.85 49.49 C 13.18 48.92 18.54 48.92 23.87 49.43 C 24.10 48.04 24.34 46.64 24.57 45.25 C 25.77 45.33 26.97 45.41 28.16 45.50 C 27.36 45.56 25.75 45.69 24.95 45.76 C 24.85 47.43 24.76 49.11 24.62 50.79 C 24.52 52.15 24.40 53.51 24.28 54.87 C 18.83 53.57 13.11 53.50 7.67 54.94 C 7.57 53.89 7.47 52.83 7.37 51.77 C 7.19 48.66 6.81 45.49 7.46 42.41 Z" />
<path fill="#292399" opacity="1.00" d=" M 326.37 43.35 L 326.46 42.53 C 326.49 43.08 326.56 44.20 326.59 44.75 C 326.69 46.34 326.80 47.92 326.90 49.51 C 332.38 48.86 338.02 48.36 343.42 49.89 C 343.31 51.56 343.30 53.23 343.27 54.89 C 337.78 53.49 332.03 53.54 326.55 54.95 C 326.45 53.90 326.36 52.86 326.28 51.82 C 326.15 49.00 326.16 46.17 326.37 43.35 Z" />
<path fill="#292399" opacity="1.00" d=" M 194.74 48.30 C 199.51 50.20 204.81 48.77 209.81 49.25 C 209.98 48.92 210.31 48.27 210.47 47.95 C 210.85 50.21 211.18 52.49 211.53 54.76 C 203.43 53.26 195.18 54.31 187.00 53.97 C 182.40 53.65 177.62 55.02 173.16 53.46 C 173.38 51.99 173.60 50.52 173.83 49.05 C 178.93 49.28 184.48 47.92 189.18 50.55 C 190.91 51.51 192.90 51.73 194.84 51.91 C 194.81 50.71 194.78 49.50 194.74 48.30 Z" />
<path fill="#292399" opacity="1.00" d=" M 70.65 49.82 C 77.30 48.73 84.10 48.63 90.74 49.83 L 90.53 50.76 C 90.33 51.52 89.95 53.05 89.75 53.81 C 84.55 54.02 79.35 53.97 74.15 53.97 C 72.94 52.62 71.76 51.25 70.65 49.82 Z" />
<path fill="#292399" opacity="1.00" d=" M 96.75 49.08 C 102.62 48.99 108.53 48.75 114.35 49.72 C 114.35 51.37 114.36 53.03 114.37 54.69 C 108.54 53.72 102.63 53.91 96.75 54.03 C 96.74 52.38 96.74 50.73 96.75 49.08 Z" />
<path fill="#292399" opacity="1.00" d=" M 280.56 49.80 C 285.20 49.03 290.46 47.79 294.59 50.82 C 294.60 52.12 294.61 53.42 294.61 54.73 C 290.28 53.02 285.57 54.22 281.06 53.99 C 280.88 52.59 280.71 51.20 280.56 49.80 Z" />
<path fill="#292399" opacity="1.00" d=" M 367.62 50.81 C 372.77 47.47 379.22 49.56 384.97 49.07 C 384.97 51.00 384.97 52.93 384.98 54.86 C 379.26 54.30 372.94 52.80 367.63 55.77 C 367.62 54.12 367.61 52.46 367.62 50.81 Z" />
</g>
<g id="#0a0179ff">
<path fill="#0a0179" opacity="1.00" d=" M 40.13 42.54 C 42.69 42.27 44.13 45.13 45.37 46.93 C 45.35 47.44 45.31 48.45 45.29 48.96 C 40.18 48.89 35.06 48.94 29.95 49.10 C 29.37 47.89 28.78 46.69 28.16 45.50 C 26.97 45.41 25.77 45.33 24.57 45.25 C 24.34 46.64 24.10 48.04 23.87 49.43 C 18.54 48.92 13.18 48.92 7.85 49.49 C 7.82 47.61 7.77 45.74 7.69 43.86 C 12.38 43.11 17.15 42.89 21.88 43.40 C 27.97 44.00 34.09 43.35 40.13 42.54 Z" />
</g>
<g id="#0b017aff">
<path fill="#0b017a" opacity="1.00" d=" M 209.84 43.51 C 210.08 44.99 210.35 46.45 210.47 47.95 C 210.31 48.27 209.98 48.92 209.81 49.25 C 204.81 48.77 199.51 50.20 194.74 48.30 C 194.73 47.79 194.70 46.76 194.68 46.25 C 194.86 45.79 195.22 44.86 195.39 44.39 C 200.17 43.36 205.16 45.05 209.84 43.51 Z" />
<path fill="#0b017a" opacity="1.00" d=" M 217.48 44.70 C 223.26 43.67 229.19 44.49 234.95 43.29 C 234.96 44.48 234.97 45.68 234.98 46.88 C 234.64 47.39 233.95 48.43 233.61 48.95 C 228.23 49.10 222.81 48.82 217.48 49.73 C 217.48 48.05 217.47 46.37 217.48 44.70 Z" />
<path fill="#0b017a" opacity="1.00" d=" M 96.76 44.03 C 102.64 43.89 108.55 43.65 114.37 44.68 C 114.36 46.36 114.35 48.04 114.35 49.72 C 108.53 48.75 102.62 48.99 96.75 49.08 C 96.75 47.39 96.75 45.71 96.76 44.03 Z" />
<path fill="#0b017a" opacity="1.00" d=" M 174.48 44.68 C 179.70 43.95 184.99 43.97 190.24 44.35 C 189.96 46.43 189.60 48.50 189.18 50.55 C 184.48 47.92 178.93 49.28 173.83 49.05 C 174.05 47.59 174.27 46.14 174.48 44.68 Z" />
<path fill="#0b017a" opacity="1.00" d=" M 280.39 44.33 C 289.58 43.61 298.80 44.15 308.00 43.87 C 311.82 43.74 315.65 44.00 319.40 44.77 C 319.39 46.45 319.39 48.12 319.41 49.80 C 311.67 48.08 303.70 49.16 295.85 49.01 C 295.44 47.96 294.97 46.93 294.51 45.91 C 294.52 47.54 294.55 49.18 294.59 50.82 C 290.46 47.79 285.20 49.03 280.56 49.80 C 280.44 48.51 280.35 47.22 280.31 45.92 L 280.33 45.09 L 280.39 44.33 Z" />
<path fill="#0b017a" opacity="1.00" d=" M 367.63 44.77 C 373.32 43.47 379.18 43.83 384.96 44.00 C 384.96 45.69 384.96 47.38 384.97 49.07 C 379.22 49.56 372.77 47.47 367.62 50.81 C 367.63 48.80 367.63 46.78 367.63 44.77 Z" />
</g>
<g id="#0a0174ff">
<path fill="#0a0174" opacity="1.00" d=" M 326.59 44.75 C 335.79 43.38 345.22 43.65 354.46 44.58 C 354.52 45.17 354.65 46.34 354.72 46.93 L 354.76 47.65 C 351.08 47.51 347.40 47.51 343.73 47.61 C 343.65 48.18 343.50 49.32 343.42 49.89 C 338.02 48.36 332.38 48.86 326.90 49.51 C 326.80 47.92 326.69 46.34 326.59 44.75 Z" />
</g>
<g id="#0b017dff">
<path fill="#0b017d" opacity="1.00" d=" M 64.81 45.92 C 72.55 44.25 80.47 45.27 88.30 44.76 L 89.02 44.74 C 89.53 46.45 90.11 48.15 90.74 49.83 C 84.10 48.63 77.30 48.73 70.65 49.82 C 68.33 49.27 66.57 47.41 64.81 45.92 Z" />
<path fill="#0b017d" opacity="1.00" d=" M 150.59 45.69 C 156.36 44.52 162.26 44.79 168.10 44.97 C 168.09 46.33 168.08 47.69 168.06 49.06 C 162.29 49.01 156.47 48.69 150.77 49.77 C 150.73 49.00 150.64 47.44 150.60 46.67 L 150.59 45.69 Z" />
</g>
<g id="#0100019c">
<path fill="#010001" opacity="0.61" d=" M 47.21 45.89 C 48.11 47.00 49.06 48.07 50.01 49.16 C 53.39 49.10 56.76 48.97 60.12 48.66 C 61.41 48.54 62.69 48.40 63.98 48.28 C 64.32 48.60 65.00 49.23 65.34 49.55 C 60.42 49.76 55.49 49.68 50.57 49.77 C 50.33 55.82 50.07 61.99 51.57 67.91 C 50.31 67.82 49.05 67.74 47.80 67.68 C 47.66 60.42 48.23 53.11 47.21 45.89 Z" />
</g>
<g id="#161616a5">
<path fill="#161616" opacity="0.65" d=" M 60.39 45.73 C 61.60 46.55 62.81 47.38 63.98 48.28 C 62.69 48.40 61.41 48.54 60.12 48.66 C 60.19 47.92 60.32 46.46 60.39 45.73 Z" />
</g>
<g id="#2945b6ff">
<path fill="#2945b6" opacity="1.00" d=" M 280.31 45.92 C 280.35 47.22 280.44 48.51 280.56 49.80 C 280.71 51.20 280.88 52.59 281.06 53.99 C 285.57 54.22 290.28 53.02 294.61 54.73 C 294.61 56.40 294.59 58.08 294.58 59.76 C 290.18 59.01 285.72 58.84 281.27 58.79 C 280.88 57.82 280.52 56.84 280.17 55.86 C 280.06 52.55 280.18 49.23 280.31 45.92 Z" />
<path fill="#2945b6" opacity="1.00" d=" M 172.57 58.52 C 172.76 56.83 172.96 55.14 173.16 53.46 C 177.62 55.02 182.40 53.65 187.00 53.97 C 195.18 54.31 203.43 53.26 211.53 54.76 C 211.34 55.56 210.96 57.15 210.77 57.94 C 198.05 58.63 185.29 57.58 172.57 58.52 Z" />
<path fill="#2945b6" opacity="1.00" d=" M 7.67 54.94 C 13.11 53.50 18.83 53.57 24.28 54.87 C 24.16 56.40 24.05 57.93 23.94 59.47 C 18.67 58.82 13.35 58.82 8.08 59.46 C 7.95 57.95 7.82 56.44 7.67 54.94 Z" />
<path fill="#2945b6" opacity="1.00" d=" M 96.75 54.03 C 102.63 53.91 108.54 53.72 114.37 54.69 C 114.34 56.37 114.32 58.06 114.29 59.75 C 108.51 58.59 102.60 58.90 96.74 59.01 C 96.74 57.35 96.74 55.69 96.75 54.03 Z" />
<path fill="#2945b6" opacity="1.00" d=" M 326.55 54.95 C 332.03 53.54 337.78 53.49 343.27 54.89 C 343.22 56.42 343.17 57.95 343.11 59.47 C 337.76 58.82 332.34 58.82 326.98 59.47 C 326.84 57.96 326.69 56.45 326.55 54.95 Z" />
</g>
<g id="#293caeff">
<path fill="#293cae" opacity="1.00" d=" M 45.37 46.93 C 46.14 50.25 46.03 53.68 45.95 57.07 C 40.58 56.99 35.20 56.91 29.88 57.70 C 29.87 56.36 29.85 55.03 29.83 53.69 C 34.86 52.98 39.94 52.99 45.01 52.91 C 45.11 51.59 45.21 50.28 45.29 48.96 C 45.31 48.45 45.35 47.44 45.37 46.93 Z" />
<path fill="#293cae" opacity="1.00" d=" M 217.48 53.74 C 223.28 52.73 229.26 53.76 234.99 52.27 C 234.97 53.86 234.94 55.45 234.93 57.04 C 229.11 57.04 223.26 56.78 217.49 57.73 C 217.48 56.40 217.48 55.07 217.48 53.74 Z" />
</g>
<g id="#293fb0ff">
<path fill="#293fb0" opacity="1.00" d=" M 150.12 63.37 C 150.69 57.82 150.42 52.23 150.60 46.67 C 150.64 47.44 150.73 49.00 150.77 49.77 C 150.87 51.30 151.00 52.83 151.11 54.37 C 156.64 52.53 162.50 53.30 168.21 53.30 C 168.11 53.92 167.89 55.16 167.79 55.78 C 167.50 56.67 167.21 57.55 166.91 58.43 C 162.41 58.25 157.86 57.64 153.40 58.42 C 151.15 58.57 151.10 61.21 150.35 62.79 L 150.12 63.37 Z" />
<path fill="#293fb0" opacity="1.00" d=" M 240.68 54.80 C 245.91 51.55 252.29 53.72 258.07 53.27 C 258.08 54.94 258.07 56.61 258.07 58.28 C 252.25 58.20 246.42 57.89 240.63 58.62 C 240.67 57.34 240.69 56.07 240.68 54.80 Z" />
</g>
<g id="#2a2399ff">
<path fill="#2a2399" opacity="1.00" d=" M 233.61 48.95 C 233.95 48.43 234.64 47.39 234.98 46.88 C 234.99 48.67 235.00 50.47 234.99 52.27 C 229.26 53.76 223.28 52.73 217.48 53.74 C 217.48 52.40 217.48 51.06 217.48 49.73 C 222.81 48.82 228.23 49.10 233.61 48.95 Z" />
</g>
<g id="#292096ff">
<path fill="#292096" opacity="1.00" d=" M 256.56 48.79 C 256.95 48.31 257.73 47.37 258.12 46.89 C 258.10 49.02 258.08 51.14 258.07 53.27 C 252.29 53.72 245.91 51.55 240.68 54.80 C 240.67 53.11 240.66 51.42 240.65 49.74 C 245.87 48.50 251.25 48.91 256.56 48.79 Z" />
</g>
<g id="#040303a2">
<path fill="#040303" opacity="0.64" d=" M 92.09 48.25 C 93.11 48.23 94.12 48.20 95.14 48.17 C 95.13 55.38 95.14 62.59 95.19 69.80 C 94.16 69.36 93.14 68.92 92.11 68.50 C 93.12 61.82 93.24 54.93 92.09 48.25 Z" />
</g>
<g id="#292298ff">
<path fill="#292298" opacity="1.00" d=" M 127.49 49.70 C 133.26 48.48 139.21 49.32 144.99 48.26 C 144.99 49.86 144.98 51.46 144.97 53.07 C 139.15 53.15 133.31 52.93 127.53 53.76 C 127.51 52.40 127.50 51.05 127.49 49.70 Z" />
</g>
<g id="#2865d1ff">
<path fill="#2865d1" opacity="1.00" d=" M 343.42 49.89 C 343.50 49.32 343.65 48.18 343.73 47.61 C 343.74 52.61 343.49 57.63 344.04 62.61 C 348.07 62.50 352.11 62.40 356.14 62.77 L 356.26 63.93 C 346.23 63.65 336.08 64.92 326.14 63.28 C 326.16 59.46 326.31 55.64 326.28 51.82 C 326.36 52.86 326.45 53.90 326.55 54.95 C 326.69 56.45 326.84 57.96 326.98 59.47 C 332.34 58.82 337.76 58.82 343.11 59.47 C 343.17 57.95 343.22 56.42 343.27 54.89 C 343.30 53.23 343.31 51.56 343.42 49.89 Z" />
<path fill="#2865d1" opacity="1.00" d=" M 24.28 54.87 C 24.40 53.51 24.52 52.15 24.62 50.79 C 24.70 54.13 24.99 57.48 24.69 60.82 C 24.39 61.83 24.07 62.83 23.74 63.83 C 18.58 64.21 13.41 64.20 8.25 63.83 C 7.93 62.82 7.62 61.81 7.32 60.80 C 6.98 57.80 7.27 54.78 7.37 51.77 C 7.47 52.83 7.57 53.89 7.67 54.94 C 7.82 56.44 7.95 57.95 8.08 59.46 C 13.35 58.82 18.67 58.82 23.94 59.47 C 24.05 57.93 24.16 56.40 24.28 54.87 Z" />
<path fill="#2865d1" opacity="1.00" d=" M 280.17 55.86 C 280.52 56.84 280.88 57.82 281.27 58.79 C 285.72 58.84 290.18 59.01 294.58 59.76 C 294.56 61.23 294.54 62.71 294.52 64.19 C 290.19 64.17 285.85 64.06 281.53 63.79 C 281.18 63.34 280.48 62.44 280.13 61.99 C 280.14 59.94 280.17 57.90 280.17 55.86 Z" />
<path fill="#2865d1" opacity="1.00" d=" M 74.58 58.71 C 80.16 58.16 86.02 57.37 91.33 59.67 C 91.25 61.13 91.17 62.60 91.10 64.06 C 85.56 64.13 80.01 64.19 74.51 63.45 C 74.52 61.87 74.54 60.29 74.58 58.71 Z" />
<path fill="#2865d1" opacity="1.00" d=" M 240.63 58.62 C 246.42 57.89 252.25 58.20 258.07 58.28 C 258.08 59.61 258.10 60.94 258.14 62.28 C 252.54 65.92 245.43 63.42 239.18 63.71 C 239.71 62.03 240.23 60.34 240.63 58.62 Z" />
<path fill="#2865d1" opacity="1.00" d=" M 96.74 59.01 C 102.60 58.90 108.51 58.59 114.29 59.75 C 114.35 60.45 114.45 61.85 114.50 62.54 C 117.82 62.40 121.23 62.09 124.47 63.04 C 115.39 65.10 105.97 63.52 96.74 64.02 C 96.73 62.35 96.73 60.68 96.74 59.01 Z" />
</g>
<g id="#151416b7">
<path fill="#151416" opacity="0.72" d=" M 27.16 77.67 C 27.19 68.00 26.86 58.33 27.40 48.67 C 28.90 58.03 27.68 67.57 28.21 77.01 C 34.62 77.33 41.03 77.10 47.44 77.18 L 47.46 77.84 C 40.70 77.54 33.93 77.75 27.16 77.67 Z" />
</g>
<g id="#2a2096ff">
<path fill="#2a2096" opacity="1.00" d=" M 29.95 49.10 C 35.06 48.94 40.18 48.89 45.29 48.96 C 45.21 50.28 45.11 51.59 45.01 52.91 C 39.94 52.99 34.86 52.98 29.83 53.69 C 29.86 52.16 29.90 50.63 29.95 49.10 Z" />
</g>
<g id="#292198ff">
<path fill="#292198" opacity="1.00" d=" M 150.77 49.77 C 156.47 48.69 162.29 49.01 168.06 49.06 C 168.10 50.47 168.15 51.89 168.21 53.30 C 162.50 53.30 156.64 52.53 151.11 54.37 C 151.00 52.83 150.87 51.30 150.77 49.77 Z" />
</g>
<g id="#2a1d94ff">
<path fill="#2a1d94" opacity="1.00" d=" M 295.85 49.01 C 303.70 49.16 311.67 48.08 319.41 49.80 C 319.41 51.12 319.41 52.44 319.42 53.76 C 315.95 51.72 311.85 52.12 308.00 52.13 C 304.31 52.15 300.63 52.38 296.99 52.89 C 296.63 51.59 296.27 50.29 295.85 49.01 Z" />
</g>
<g id="#2a36a9ff">
<path fill="#2a36a9" opacity="1.00" d=" M 52.01 51.22 C 57.40 51.24 62.79 51.28 68.18 51.22 C 68.25 53.05 68.28 54.88 68.30 56.71 C 62.89 55.88 57.41 56.01 51.96 56.06 C 51.97 54.44 51.98 52.83 52.01 51.22 Z" />
</g>
<g id="#2943b4ff">
<path fill="#2943b4" opacity="1.00" d=" M 90.53 50.76 C 91.66 53.59 91.20 56.70 91.33 59.67 C 86.02 57.37 80.16 58.16 74.58 58.71 C 74.45 57.13 74.30 55.54 74.15 53.97 C 79.35 53.97 84.55 54.02 89.75 53.81 C 89.95 53.05 90.33 51.52 90.53 50.76 Z" />
</g>
<g id="#2938aaff">
<path fill="#2938aa" opacity="1.00" d=" M 296.99 52.89 C 300.63 52.38 304.31 52.15 308.00 52.13 C 311.85 52.12 315.95 51.72 319.42 53.76 C 319.42 54.52 319.41 56.04 319.41 56.80 C 312.29 55.61 305.07 56.39 297.91 56.28 C 297.59 55.15 297.29 54.02 296.99 52.89 Z" />
</g>
<g id="#000000a0">
<path fill="#000000" opacity="0.63" d=" M 70.01 52.71 C 72.86 54.63 73.25 58.52 72.54 61.60 C 72.33 62.92 71.61 63.31 70.37 62.77 C 69.67 59.46 69.75 56.06 70.01 52.71 Z" />
</g>
<g id="#293eafff">
<path fill="#293eaf" opacity="1.00" d=" M 127.53 53.76 C 133.31 52.93 139.15 53.15 144.97 53.07 C 144.95 54.40 144.95 55.74 144.95 57.08 C 139.16 57.06 133.35 56.90 127.60 57.68 C 127.57 56.37 127.55 55.06 127.53 53.76 Z" />
</g>
<g id="#294cbcff">
<path fill="#294cbc" opacity="1.00" d=" M 367.63 55.77 C 372.94 52.80 379.26 54.30 384.98 54.86 C 384.98 56.57 384.99 58.27 385.00 59.98 C 379.22 59.93 373.39 59.62 367.68 60.75 C 367.67 59.09 367.64 57.43 367.63 55.77 Z" />
</g>
<g id="#285fccff">
<path fill="#285fcc" opacity="1.00" d=" M 211.53 54.76 C 211.89 56.88 212.29 59.00 212.55 61.14 C 211.45 63.15 209.00 62.97 207.05 63.06 C 195.35 62.98 183.64 62.97 171.94 62.99 C 172.16 61.50 172.36 60.01 172.57 58.52 C 185.29 57.58 198.05 58.63 210.77 57.94 C 210.96 57.15 211.34 55.56 211.53 54.76 Z" />
</g>
<g id="#2951c0ff">
<path fill="#2951c0" opacity="1.00" d=" M 51.96 56.06 C 57.41 56.01 62.89 55.88 68.30 56.71 C 68.33 58.05 68.38 59.38 68.44 60.71 C 62.95 59.89 57.36 60.34 51.89 59.39 C 51.91 58.56 51.94 56.89 51.96 56.06 Z" />
</g>
<g id="#2864d0ff">
<path fill="#2864d0" opacity="1.00" d=" M 166.91 58.43 C 167.21 57.55 167.50 56.67 167.79 55.78 C 167.96 58.57 167.68 61.36 167.26 64.12 C 161.62 63.82 155.76 64.88 150.35 62.79 C 151.10 61.21 151.15 58.57 153.40 58.42 C 157.86 57.64 162.41 58.25 166.91 58.43 Z" />
</g>
<g id="#2853c1ff">
<path fill="#2853c1" opacity="1.00" d=" M 297.91 56.28 C 305.07 56.39 312.29 55.61 319.41 56.80 C 319.39 58.47 319.39 60.14 319.40 61.81 C 312.84 60.82 306.08 60.49 299.59 62.04 C 299.03 60.12 298.45 58.20 297.91 56.28 Z" />
</g>
<g id="#2859c6ff">
<path fill="#2859c6" opacity="1.00" d=" M 29.88 57.70 C 35.20 56.91 40.58 56.99 45.95 57.07 C 45.98 58.95 46.02 60.84 46.06 62.72 C 40.73 61.73 35.28 61.88 29.96 62.84 C 29.93 61.13 29.90 59.41 29.88 57.70 Z" />
</g>
<g id="#2858c5ff">
<path fill="#2858c5" opacity="1.00" d=" M 127.60 57.68 C 133.35 56.90 139.16 57.06 144.95 57.08 C 144.95 58.41 144.97 59.74 145.00 61.08 C 139.25 61.07 133.51 61.06 127.77 61.08 C 127.72 60.23 127.64 58.53 127.60 57.68 Z" />
<path fill="#2858c5" opacity="1.00" d=" M 217.49 57.73 C 223.26 56.78 229.11 57.04 234.93 57.04 C 234.93 58.40 234.94 59.76 234.98 61.12 C 229.14 61.05 223.27 60.86 217.48 61.72 C 217.48 60.39 217.48 59.06 217.49 57.73 Z" />
</g>
<g id="#286ad5ff">
<path fill="#286ad5" opacity="1.00" d=" M 51.89 59.39 C 57.36 60.34 62.95 59.89 68.44 60.71 C 68.35 61.61 68.17 63.41 68.08 64.31 C 62.96 63.72 57.80 64.17 52.72 64.88 C 52.46 63.05 52.18 61.22 51.89 59.39 Z" />
</g>
<g id="#1b1c1eb8">
<path fill="#1b1c1e" opacity="0.72" d=" M 260.18 60.17 L 261.11 60.17 C 260.93 65.44 260.85 70.71 261.09 75.98 C 260.25 74.38 259.28 72.84 258.29 71.33 C 258.62 69.63 258.99 67.94 259.28 66.23 C 259.64 64.22 259.98 62.20 260.18 60.17 Z" />
</g>
<g id="#b1d1e0fa">
<path fill="#b1d1e0" opacity="0.98" d=" M 261.11 60.17 C 266.55 60.22 271.99 60.04 277.42 60.35 C 276.79 65.91 277.33 71.52 277.04 77.11 C 271.93 77.27 266.81 77.10 261.71 77.35 C 261.55 77.01 261.24 76.32 261.09 75.98 C 260.85 70.71 260.93 65.44 261.11 60.17 M 262.84 62.03 C 262.84 64.00 262.84 65.98 262.85 67.95 C 262.76 70.37 262.77 72.79 262.85 75.20 C 266.97 75.47 271.10 75.47 275.21 75.20 C 275.30 73.02 275.38 70.84 275.46 68.66 C 275.37 66.45 275.30 64.24 275.23 62.03 C 271.10 61.99 266.97 61.99 262.84 62.03 Z" />
</g>
<g id="#286bd6ff">
<path fill="#286bd6" opacity="1.00" d=" M 367.68 60.75 C 373.39 59.62 379.22 59.93 385.00 59.98 C 384.99 61.67 384.99 63.36 385.00 65.05 C 379.23 64.96 373.46 64.95 367.69 65.02 C 367.69 63.60 367.69 62.17 367.68 60.75 Z" />
</g>
<g id="#2782e9ff">
<path fill="#2782e9" opacity="1.00" d=" M 7.32 60.80 C 7.62 61.81 7.93 62.82 8.25 63.83 C 13.41 64.20 18.58 64.21 23.74 63.83 C 24.07 62.83 24.39 61.83 24.69 60.82 C 24.76 62.14 24.74 63.46 24.63 64.78 C 24.40 66.13 24.11 67.47 23.84 68.81 C 18.64 69.24 13.42 69.22 8.22 68.84 C 7.92 67.84 7.63 66.83 7.36 65.81 C 7.10 64.15 7.26 62.47 7.32 60.80 Z" />
<path fill="#2782e9" opacity="1.00" d=" M 239.18 63.71 C 245.43 63.42 252.54 65.92 258.14 62.28 C 257.76 64.87 257.31 67.45 256.49 69.94 C 253.05 69.14 249.53 68.77 246.00 68.87 C 236.52 69.04 227.04 68.84 217.56 69.01 C 217.57 67.67 217.58 66.34 217.59 65.00 C 223.43 65.05 229.34 65.39 235.11 64.25 C 236.46 64.03 237.81 63.83 239.18 63.71 Z" />
<path fill="#2782e9" opacity="1.00" d=" M 280.13 61.99 C 280.48 62.44 281.18 63.34 281.53 63.79 C 285.85 64.06 290.19 64.17 294.52 64.19 C 294.45 65.80 294.45 67.41 294.44 69.02 C 290.13 69.14 285.83 69.10 281.54 68.81 C 281.18 68.34 280.47 67.41 280.11 66.95 C 280.10 65.29 280.11 63.64 280.13 61.99 Z" />
<path fill="#2782e9" opacity="1.00" d=" M 68.08 64.31 C 70.34 64.90 72.63 65.07 74.51 63.45 C 80.01 64.19 85.56 64.13 91.10 64.06 C 90.59 66.01 89.99 67.94 89.32 69.84 C 84.93 69.00 80.45 68.87 76.00 69.01 C 68.88 69.25 61.67 68.41 54.63 69.85 C 53.91 68.22 53.28 66.56 52.72 64.88 C 57.80 64.17 62.96 63.72 68.08 64.31 Z" />
<path fill="#2782e9" opacity="1.00" d=" M 326.14 63.28 C 336.08 64.92 346.23 63.65 356.26 63.93 C 356.40 65.88 356.47 67.83 356.46 69.78 C 346.89 67.99 337.13 69.57 327.49 68.84 C 327.15 68.36 326.48 67.38 326.14 66.90 C 326.13 65.69 326.13 64.49 326.14 63.28 Z" />
</g>
<g id="#286edaff">
<path fill="#286eda" opacity="1.00" d=" M 127.77 61.08 C 133.51 61.06 139.25 61.07 145.00 61.08 C 145.03 61.96 145.09 63.74 145.11 64.62 C 139.74 64.92 134.35 65.26 128.96 64.98 L 128.21 64.96 C 128.07 63.66 127.92 62.37 127.77 61.08 Z" />
</g>
<g id="#287ce4ff">
<path fill="#287ce4" opacity="1.00" d=" M 212.55 61.14 C 212.87 63.48 213.19 65.82 213.53 68.16 C 207.72 68.15 201.87 67.79 196.12 68.82 C 195.95 67.19 195.78 65.56 195.64 63.92 C 193.56 63.67 191.46 63.67 189.38 63.97 C 189.27 65.54 189.14 67.10 189.00 68.67 C 184.36 68.02 179.67 68.29 175.01 68.10 C 173.51 68.16 172.11 67.51 171.42 66.14 C 171.55 65.35 171.81 63.78 171.94 62.99 C 183.64 62.97 195.35 62.98 207.05 63.06 C 209.00 62.97 211.45 63.15 212.55 61.14 Z" />
</g>
<g id="#2871daff">
<path fill="#2871da" opacity="1.00" d=" M 217.48 61.72 C 223.27 60.86 229.14 61.05 234.98 61.12 C 235.01 61.90 235.08 63.46 235.11 64.25 C 229.34 65.39 223.43 65.05 217.59 65.00 C 217.56 64.18 217.51 62.54 217.48 61.72 Z" />
</g>
<g id="#2876dfff">
<path fill="#2876df" opacity="1.00" d=" M 299.59 62.04 C 306.08 60.49 312.84 60.82 319.40 61.81 C 319.40 63.80 319.42 65.79 319.42 67.78 C 313.33 66.79 307.15 67.20 301.01 67.11 C 300.55 65.42 300.07 63.73 299.59 62.04 Z" />
</g>
<g id="#287be4ff">
<path fill="#287be4" opacity="1.00" d=" M 29.96 62.84 C 35.28 61.88 40.73 61.73 46.06 62.72 C 46.03 64.50 46.00 66.29 45.97 68.07 C 40.59 67.98 35.17 67.90 29.82 68.70 C 29.87 66.75 29.91 64.79 29.96 62.84 Z" />
</g>
<g id="#2877dfff">
<path fill="#2877df" opacity="1.00" d=" M 262.84 62.03 C 266.97 61.99 271.10 61.99 275.23 62.03 C 275.30 64.24 275.37 66.45 275.46 68.66 C 271.57 66.36 267.04 67.40 262.85 67.95 C 262.84 65.98 262.84 64.00 262.84 62.03 Z" />
</g>
<g id="#2881e9ff">
<path fill="#2881e9" opacity="1.00" d=" M 124.47 63.04 L 125.29 62.85 C 125.20 64.85 125.12 66.85 125.07 68.85 C 115.65 67.99 106.12 68.02 96.70 68.85 C 96.72 67.24 96.73 65.63 96.74 64.02 C 105.97 63.52 115.39 65.10 124.47 63.04 Z" />
</g>
<g id="#2782eaff">
<path fill="#2782ea" opacity="1.00" d=" M 150.12 63.37 L 150.35 62.79 C 155.76 64.88 161.62 63.82 167.26 64.12 C 166.58 66.17 165.66 68.14 164.47 69.96 C 161.03 69.24 157.51 68.90 153.99 68.98 C 146.27 69.13 138.55 68.94 130.83 69.25 C 129.44 68.27 129.38 66.47 128.96 64.98 C 134.35 65.26 139.74 64.92 145.11 64.62 C 146.40 64.78 147.67 65.00 148.95 65.21 C 149.24 64.75 149.83 63.83 150.12 63.37 Z" />
</g>
<g id="#212223a5">
<path fill="#212223" opacity="0.65" d=" M 296.81 70.50 C 296.87 67.86 297.20 65.23 297.76 62.65 C 299.30 67.15 300.50 71.75 301.78 76.32 C 300.75 73.91 299.19 71.73 296.81 70.50 Z" />
</g>
<g id="#2ba2feff">
<path fill="#2ba2fe" opacity="1.00" d=" M 23.84 68.81 C 24.11 67.47 24.40 66.13 24.63 64.78 C 24.79 68.41 24.74 72.04 24.69 75.68 C 18.90 75.56 13.10 75.56 7.30 75.68 C 7.24 72.39 7.18 69.10 7.36 65.81 C 7.63 66.83 7.92 67.84 8.22 68.84 C 13.42 69.22 18.64 69.24 23.84 68.81 Z" />
<path fill="#2ba2fe" opacity="1.00" d=" M 96.70 68.85 C 106.12 68.02 115.65 67.99 125.07 68.85 C 125.09 71.13 125.03 73.42 124.89 75.70 C 115.59 75.57 106.29 75.59 96.99 75.69 C 96.69 73.42 96.61 71.13 96.70 68.85 Z" />
</g>
<g id="#2786edff">
<path fill="#2786ed" opacity="1.00" d=" M 367.69 65.02 C 373.46 64.95 379.23 64.96 385.00 65.05 C 385.00 66.63 385.01 68.21 385.01 69.80 C 379.29 68.72 373.41 68.77 367.68 69.78 C 367.67 68.19 367.68 66.60 367.69 65.02 Z" />
</g>
<g id="#2aa1feff">
<path fill="#2aa1fe" opacity="1.00" d=" M 170.21 75.62 C 170.52 72.45 170.95 69.29 171.42 66.14 C 172.11 67.51 173.51 68.16 175.01 68.10 C 179.67 68.29 184.36 68.02 189.00 68.67 C 188.86 71.00 188.73 73.33 188.61 75.67 C 182.48 75.58 176.34 75.64 170.21 75.62 Z" />
</g>
<g id="#01010172">
<path fill="#010101" opacity="0.45" d=" M 190.90 65.53 C 191.71 65.66 193.33 65.90 194.14 66.03 C 194.14 67.97 194.33 69.96 193.93 71.88 C 193.00 73.58 191.60 74.96 190.28 76.36 C 190.35 72.74 190.58 69.13 190.90 65.53 Z" />
</g>
<g id="#00000053">
<path fill="#000000" opacity="0.33" d=" M 47.80 67.68 C 49.05 67.74 50.31 67.82 51.57 67.91 C 53.68 73.91 59.88 77.23 65.84 78.20 C 69.90 78.92 74.10 78.94 78.16 78.18 C 83.89 77.18 89.80 74.15 92.11 68.50 C 93.14 68.92 94.16 69.36 95.19 69.80 C 95.19 72.21 95.17 74.63 95.03 77.04 C 93.69 75.07 91.47 73.22 89.35 75.36 C 82.31 80.95 72.85 80.52 64.40 79.67 C 58.96 79.19 54.92 75.25 50.63 72.33 C 49.66 73.76 48.67 75.17 47.74 76.63 C 47.84 73.65 47.78 70.66 47.80 67.68 Z" />
</g>
<g id="#2a9dfdff">
<path fill="#2a9dfd" opacity="1.00" d=" M 262.85 67.95 C 267.04 67.40 271.57 66.36 275.46 68.66 C 275.38 70.84 275.30 73.02 275.21 75.20 C 271.10 75.47 266.97 75.47 262.85 75.20 C 262.77 72.79 262.76 70.37 262.85 67.95 Z" />
</g>
<g id="#2ba1feff">
<path fill="#2ba1fe" opacity="1.00" d=" M 280.11 66.95 C 280.47 67.41 281.18 68.34 281.54 68.81 C 285.83 69.10 290.13 69.14 294.44 69.02 C 294.42 71.09 294.37 73.15 294.31 75.21 C 289.62 75.53 284.91 75.54 280.22 75.17 C 280.17 72.43 280.12 69.69 280.11 66.95 Z" />
</g>
<g id="#2999fcff">
<path fill="#2999fc" opacity="1.00" d=" M 301.01 67.11 C 307.15 67.20 313.33 66.79 319.42 67.78 C 319.40 70.27 319.33 72.77 319.25 75.27 C 314.21 75.40 309.14 75.83 304.12 75.22 C 302.17 73.03 301.95 69.82 301.01 67.11 Z" />
</g>
<g id="#2c9ffeff">
<path fill="#2c9ffe" opacity="1.00" d=" M 326.14 66.90 C 326.48 67.38 327.15 68.36 327.49 68.84 C 337.13 69.57 346.89 67.99 356.46 69.78 C 356.41 71.60 356.32 73.41 356.23 75.23 C 346.25 75.44 336.25 75.60 326.27 75.15 C 326.22 72.40 326.16 69.65 326.14 66.90 Z" />
</g>
<g id="#2b9dfdff">
<path fill="#2b9dfd" opacity="1.00" d=" M 29.82 68.70 C 35.17 67.90 40.59 67.98 45.97 68.07 C 46.02 70.46 46.02 72.84 45.99 75.23 C 40.65 75.53 35.30 75.51 29.96 75.24 C 29.90 73.06 29.86 70.88 29.82 68.70 Z" />
</g>
<g id="#2b9dfeff">
<path fill="#2b9dfe" opacity="1.00" d=" M 196.12 68.82 C 201.87 67.79 207.72 68.15 213.53 68.16 C 213.99 70.53 214.29 72.93 214.41 75.35 C 208.64 75.46 202.85 75.68 197.09 75.34 C 195.63 73.63 196.49 70.93 196.12 68.82 Z" />
</g>
<g id="#2ca2feff">
<path fill="#2ca2fe" opacity="1.00" d=" M 54.63 69.85 C 61.67 68.41 68.88 69.25 76.00 69.01 C 80.45 68.87 84.93 69.00 89.32 69.84 C 85.19 74.93 78.38 77.03 72.00 76.80 C 65.59 77.06 58.78 74.95 54.63 69.85 Z" />
<path fill="#2ca2fe" opacity="1.00" d=" M 130.83 69.25 C 138.55 68.94 146.27 69.13 153.99 68.98 C 157.51 68.90 161.03 69.24 164.47 69.96 C 160.48 75.35 153.36 77.15 146.95 76.82 C 140.88 76.88 134.10 74.73 130.83 69.25 Z" />
</g>
<g id="#2c9dfeff">
<path fill="#2c9dfe" opacity="1.00" d=" M 217.56 69.01 C 227.04 68.84 236.52 69.04 246.00 68.87 C 249.53 68.77 253.05 69.14 256.49 69.94 C 253.72 74.60 247.95 75.53 242.98 75.46 C 234.53 75.40 226.07 75.63 217.62 75.33 C 217.56 73.22 217.54 71.11 217.56 69.01 Z" />
</g>
<g id="#2ba0feff">
<path fill="#2ba0fe" opacity="1.00" d=" M 367.68 69.78 C 373.41 68.77 379.29 68.72 385.01 69.80 C 385.00 71.60 384.98 73.40 384.96 75.21 C 379.25 75.52 373.52 75.51 367.81 75.22 C 367.75 73.41 367.70 71.59 367.68 69.78 Z" />
</g>
<g id="#00000030">
<path fill="#000000" opacity="0.19" d=" M 5.90 79.14 C 2.41 77.70 2.72 73.67 3.55 70.66 C 4.04 71.84 4.53 73.03 5.02 74.22 C 5.26 75.25 5.50 76.29 5.75 77.32 C 12.87 77.97 20.02 77.45 27.16 77.67 C 33.93 77.75 40.70 77.54 47.46 77.84 C 47.47 78.20 47.49 78.93 47.50 79.30 C 40.15 81.17 32.50 79.61 25.01 80.01 C 18.67 79.81 12.04 81.17 5.90 79.14 Z" />
</g>
<g id="#0d0d0d6a">
<path fill="#0d0d0d" opacity="0.42" d=" M 126.93 75.50 C 127.15 73.62 127.69 71.81 128.91 70.31 C 131.83 74.66 136.69 77.33 141.79 78.15 C 145.87 78.94 150.09 78.98 154.16 78.10 C 157.22 77.49 160.08 76.18 162.79 74.66 C 161.85 75.77 160.96 76.92 160.00 78.01 C 153.53 80.31 146.44 80.06 139.72 79.19 C 135.57 78.73 132.38 75.12 128.14 75.25 L 126.93 75.50 Z" />
</g>
<g id="#00000032">
<path fill="#000000" opacity="0.20" d=" M 126.93 75.50 L 128.14 75.25 C 128.75 77.93 126.11 79.47 123.84 79.79 C 119.26 80.49 114.61 80.02 110.00 80.11 C 105.35 80.03 100.59 80.64 96.06 79.34 C 95.89 78.94 95.55 78.14 95.38 77.74 C 105.68 77.39 116.04 78.38 126.29 77.21 C 126.45 76.78 126.77 75.93 126.93 75.50 Z" />
</g>
<g id="#2b2b2a9d">
<path fill="#2b2b2a" opacity="0.62" d=" M 95.03 77.04 C 105.45 77.22 115.87 76.93 126.29 77.21 C 116.04 78.38 105.68 77.39 95.38 77.74 L 95.03 77.04 Z" />
</g>
<g id="#2b2a299b">
<path fill="#2b2a29" opacity="0.61" d=" M 168.68 77.22 C 175.69 76.92 182.70 77.31 189.70 76.93 C 187.62 77.95 185.26 77.75 183.02 77.77 C 178.24 77.71 173.44 77.88 168.68 77.22 Z" />
</g>
<g id="#2a2a299d">
<path fill="#2a2a29" opacity="0.62" d=" M 195.07 76.84 C 212.76 77.38 230.48 77.03 248.17 77.03 C 245.49 77.58 242.75 77.77 240.01 77.75 C 225.10 77.57 210.18 77.76 195.26 77.68 L 195.07 76.84 Z" />
</g>
<g id="#505354ba">
<path fill="#505354" opacity="0.73" d=" M 65.84 78.20 C 69.94 78.35 74.05 78.35 78.16 78.18 C 74.10 78.94 69.90 78.92 65.84 78.20 Z" />
</g>
<g id="#4f5253b9">
<path fill="#4f5253" opacity="0.73" d=" M 141.79 78.15 C 145.91 78.33 150.04 78.33 154.16 78.10 C 150.09 78.98 145.87 78.94 141.79 78.15 Z" />
</g>
</svg>
