<?xml version="1.0" encoding="UTF-8" ?>
<!DOCTYPE svg PUBLIC "-//W3C//DTD SVG 1.1//EN" "http://www.w3.org/Graphics/SVG/1.1/DTD/svg11.dtd">
<svg width="504pt" height="107pt" viewBox="0 0 504 107" version="1.1" xmlns="http://www.w3.org/2000/svg">
<g id="#989898ff">
</g>
<g id="#7a7b7aff">
<path fill="#7a7b7a" opacity="1.00" d=" M 4.19 29.18 C 42.45 29.05 80.72 29.42 118.98 29.01 C 119.00 33.96 119.01 38.92 119.00 43.87 C 114.93 43.76 110.86 43.85 106.81 44.11 C 105.37 42.14 103.59 40.06 100.97 39.87 C 95.00 39.02 88.95 39.27 82.94 39.33 C 78.18 39.63 72.71 39.38 69.16 43.15 C 65.07 42.80 60.95 42.76 56.85 43.04 C 52.50 38.44 45.65 40.03 40.01 39.75 C 32.20 40.13 24.26 38.98 16.53 40.38 C 12.41 41.23 8.17 41.01 3.99 41.09 C 4.04 37.12 4.10 33.15 4.19 29.18 Z" />
</g>
<g id="#ffffffff">
<path fill="#ffffff" opacity="1.00" d=" M 118.98 29.01 C 246.00 28.89 373.02 28.96 500.04 28.97 C 500.08 33.27 500.09 37.57 500.03 41.88 C 499.91 52.31 500.09 62.74 500.02 73.18 C 499.99 76.78 499.99 80.38 499.98 83.99 C 372.99 84.02 246.00 83.98 119.00 84.01 L 119.00 82.88 C 119.01 78.63 118.97 74.38 118.99 70.13 C 119.00 67.42 119.00 64.71 119.00 61.99 C 119.00 59.02 118.99 56.04 118.99 53.07 C 118.99 50.00 118.98 46.94 119.00 43.87 C 119.01 38.92 119.00 33.96 118.98 29.01 M 175.54 40.71 C 170.95 41.60 170.49 46.97 170.02 50.74 C 170.28 56.81 169.29 63.05 170.92 68.99 C 172.33 73.12 177.21 74.02 181.03 74.20 C 189.34 74.58 197.72 74.79 206.00 73.79 C 208.84 73.28 212.65 72.94 213.67 69.69 C 215.76 63.64 215.28 57.09 215.10 50.79 C 214.54 47.76 214.56 44.06 212.06 41.88 C 208.28 39.65 203.66 39.80 199.42 39.44 C 191.46 39.27 183.35 38.93 175.54 40.71 M 128.76 39.76 C 128.74 42.13 128.73 44.51 128.73 46.88 C 128.73 48.90 128.73 50.91 128.73 52.93 C 128.74 59.95 128.72 66.97 128.74 74.00 C 140.25 74.00 151.75 74.00 163.26 74.00 C 163.27 71.00 163.27 68.00 163.26 65.00 C 155.30 64.93 147.33 65.15 139.37 64.88 C 139.51 60.89 139.47 56.90 139.46 52.91 C 139.47 50.90 139.47 48.89 139.48 46.88 C 139.47 44.50 139.45 42.13 139.43 39.75 C 135.87 39.74 132.31 39.75 128.76 39.76 M 236.97 39.77 C 235.66 42.49 234.36 45.21 233.03 47.92 C 232.24 49.52 231.45 51.11 230.66 52.71 C 227.09 59.79 223.57 66.89 220.01 73.97 C 224.02 73.92 228.05 74.20 232.06 73.89 C 233.78 72.50 234.43 70.14 235.57 68.29 C 242.58 68.25 249.60 68.26 256.61 68.28 C 257.69 70.18 258.77 72.09 259.84 74.00 C 263.94 74.00 268.04 74.01 272.14 73.97 C 268.73 66.85 265.13 59.83 261.59 52.78 C 260.78 51.14 259.97 49.50 259.16 47.86 C 257.80 45.17 256.47 42.48 255.16 39.77 C 249.09 39.74 243.03 39.74 236.97 39.77 M 278.09 39.76 C 278.01 44.06 277.98 48.37 278.00 52.67 C 278.01 59.78 277.99 66.89 278.00 74.00 C 288.34 73.97 298.69 74.05 309.03 73.97 C 313.22 73.78 318.65 73.13 320.51 68.71 C 322.64 63.02 322.16 56.78 321.90 50.83 C 321.36 47.69 320.80 44.04 318.03 42.04 C 314.77 40.01 310.78 39.81 307.05 39.74 C 297.40 39.78 287.74 39.75 278.09 39.76 M 348.04 39.74 C 348.01 42.50 348.00 45.26 348.00 48.01 C 348.00 50.05 348.00 52.09 348.02 54.13 C 348.01 57.34 347.99 60.54 348.00 63.75 C 348.02 67.17 347.99 70.58 348.00 74.00 C 351.49 74.00 354.99 74.00 358.49 74.00 C 358.47 70.60 358.45 67.20 358.47 63.81 C 358.48 60.59 358.46 57.37 358.47 54.16 C 358.44 52.25 358.40 50.34 358.38 48.44 C 357.94 48.27 357.07 47.94 356.64 47.77 C 357.32 47.76 358.00 47.77 358.69 47.80 C 360.02 50.44 361.75 52.83 363.39 55.28 L 363.75 55.27 C 365.80 58.53 368.06 61.64 370.35 64.73 C 372.53 67.82 374.75 70.90 376.89 74.02 C 382.69 73.98 388.48 74.01 394.28 74.00 C 394.27 71.34 394.26 68.68 394.26 66.02 C 394.26 64.31 394.26 62.60 394.27 60.90 C 394.26 58.90 394.26 56.90 394.27 54.90 C 394.27 52.88 394.26 50.87 394.27 48.86 C 394.27 45.83 394.26 42.79 394.25 39.75 C 390.75 39.74 387.25 39.74 383.75 39.75 C 383.73 42.80 383.72 45.86 383.73 48.92 C 383.73 50.92 383.73 52.91 383.74 54.91 C 383.74 56.91 383.71 58.91 383.66 60.91 C 383.79 62.68 383.96 64.45 384.17 66.22 L 385.46 66.23 C 385.09 66.29 384.35 66.40 383.98 66.45 C 383.42 65.61 382.87 64.76 382.33 63.92 C 380.25 60.95 378.12 58.03 376.06 55.04 C 374.39 52.72 372.72 50.41 371.07 48.08 C 369.12 45.26 367.13 42.48 365.10 39.73 C 359.41 39.75 353.72 39.73 348.04 39.74 M 404.75 39.75 C 404.73 44.05 404.70 48.36 404.72 52.67 C 404.73 54.46 404.73 56.26 404.74 58.06 C 404.73 60.66 404.72 63.26 404.73 65.86 C 404.73 68.57 404.73 71.29 404.72 74.00 C 417.08 73.98 429.43 74.02 441.79 73.99 C 441.76 71.22 441.73 68.45 441.62 65.69 C 432.82 65.80 424.01 65.76 415.21 65.71 C 415.23 64.15 415.25 62.59 415.27 61.03 C 423.66 60.96 432.06 61.02 440.45 61.00 C 440.46 60.25 440.47 58.74 440.47 57.99 C 440.46 56.24 440.45 54.49 440.45 52.74 C 432.02 52.70 423.60 52.85 415.18 52.66 C 415.22 51.11 415.26 49.57 415.31 48.02 C 424.13 47.96 432.95 48.05 441.78 47.97 C 441.73 45.26 441.72 42.56 441.77 39.85 C 429.43 39.61 417.09 39.80 404.75 39.75 M 451.04 39.74 C 451.00 42.76 450.98 45.78 451.05 48.80 C 456.09 48.98 461.23 48.20 466.21 49.30 C 465.99 52.58 465.94 55.87 466.02 59.15 C 466.04 62.37 465.99 65.59 466.00 68.80 C 465.99 70.54 466.00 72.27 466.00 74.01 C 469.52 74.00 473.04 73.95 476.56 74.16 C 477.07 69.13 476.57 64.08 476.72 59.04 C 476.79 55.86 476.77 52.67 476.51 49.49 C 476.85 49.33 477.53 49.02 477.87 48.87 C 482.49 48.66 487.12 48.82 491.75 48.75 C 491.73 45.78 491.72 42.81 491.77 39.83 C 478.19 39.62 464.61 39.80 451.04 39.74 M 329.30 65.29 C 329.26 68.38 329.24 71.48 329.29 74.57 C 332.79 74.48 336.29 74.48 339.80 74.50 C 339.74 71.43 339.72 68.36 339.70 65.29 C 336.23 65.30 332.76 65.30 329.30 65.29 Z" />
<path fill="#ffffff" opacity="1.00" d=" M 69.16 43.15 C 72.71 39.38 78.18 39.63 82.94 39.33 C 88.95 39.27 95.00 39.02 100.97 39.87 C 103.59 40.06 105.37 42.14 106.81 44.11 C 107.42 46.43 107.68 48.82 107.95 51.20 C 104.57 51.24 101.19 51.46 97.82 51.15 C 97.32 50.12 96.86 49.07 96.45 48.00 C 90.48 47.14 84.42 47.37 78.42 47.82 C 78.80 49.22 78.08 51.80 80.14 52.11 C 83.02 53.01 86.08 52.68 89.05 52.76 C 93.56 52.66 98.03 53.31 102.51 53.68 C 106.32 54.69 108.27 58.23 108.56 61.94 C 108.58 64.60 108.40 67.29 107.70 69.87 C 106.60 71.31 105.32 72.77 103.47 73.20 C 96.80 74.90 89.84 74.39 83.02 74.49 C 78.36 74.38 73.17 74.71 69.29 71.67 C 67.77 68.85 67.46 65.65 67.39 62.52 C 70.75 62.53 74.12 62.52 77.49 62.51 C 78.01 63.60 78.41 64.77 79.13 65.75 C 85.39 66.68 91.80 66.39 98.09 65.85 C 97.69 64.30 98.33 61.71 95.98 61.73 C 87.48 60.35 78.23 62.74 70.23 58.76 C 68.95 56.70 68.18 54.38 67.90 51.97 C 67.87 48.99 68.10 45.97 69.16 43.15 Z" />
<path fill="#ffffff" opacity="1.00" d=" M 16.53 40.38 C 24.26 38.98 32.20 40.13 40.01 39.75 C 45.65 40.03 52.50 38.44 56.85 43.04 C 57.84 45.93 58.12 48.99 58.06 52.03 C 57.70 54.55 56.71 56.97 54.74 58.67 C 54.48 58.74 53.95 58.88 53.69 58.95 C 54.96 60.04 56.50 60.90 57.43 62.32 C 58.36 65.43 57.91 68.74 58.01 71.94 C 58.01 72.46 58.01 73.50 58.01 74.02 C 54.51 74.02 51.02 74.01 47.53 73.98 C 47.53 73.50 47.55 72.53 47.56 72.05 C 47.32 69.57 48.37 65.95 45.62 64.58 C 39.56 63.86 33.39 64.50 27.29 64.28 C 27.29 67.47 27.28 70.66 27.13 73.85 C 23.64 74.06 20.14 74.03 16.64 74.06 C 16.97 67.34 16.62 60.60 16.73 53.87 C 16.81 49.37 16.71 44.88 16.53 40.38 M 27.19 55.23 C 33.12 55.23 39.05 55.44 44.97 55.18 C 48.49 55.45 48.47 48.98 45.12 48.85 C 39.23 48.50 33.32 48.96 27.43 48.63 C 27.30 50.83 27.22 53.03 27.19 55.23 Z" />
<path fill="#ffffff" opacity="1.00" d=" M 183.07 48.94 C 188.95 47.95 195.04 48.01 200.96 48.72 C 202.77 48.72 203.91 50.01 204.41 51.62 C 204.67 55.82 205.39 60.45 203.38 64.34 C 199.76 65.75 195.78 65.51 191.96 65.57 C 188.53 65.46 184.91 65.67 181.69 64.30 C 179.85 60.80 180.57 56.68 180.53 52.89 C 181.07 51.48 181.16 49.13 183.07 48.94 Z" />
<path fill="#ffffff" opacity="1.00" d=" M 244.85 48.75 C 245.14 48.24 245.73 47.24 246.02 46.73 C 246.35 47.20 247.01 48.14 247.34 48.61 C 248.21 50.11 249.00 51.65 249.74 53.22 C 250.69 55.23 251.62 57.25 252.58 59.25 C 248.27 59.28 243.96 59.28 239.66 59.24 C 240.57 57.27 241.48 55.29 242.44 53.34 C 243.20 51.79 244.01 50.26 244.85 48.75 Z" />
<path fill="#ffffff" opacity="1.00" d=" M 288.49 52.62 C 288.52 51.31 288.59 50.00 288.68 48.69 C 294.45 48.93 300.23 48.62 306.00 48.82 C 308.02 48.66 309.63 49.97 311.18 51.07 C 311.21 55.47 313.18 61.79 308.68 64.54 C 302.01 65.59 295.18 64.76 288.45 64.96 C 288.49 60.85 288.40 56.73 288.49 52.62 Z" />
</g>
<g id="#58b0d8ff">
<path fill="#58b0d8" opacity="1.00" d=" M 175.54 40.71 C 183.35 38.93 191.46 39.27 199.42 39.44 C 203.66 39.80 208.28 39.65 212.06 41.88 C 214.56 44.06 214.54 47.76 215.10 50.79 C 211.51 50.56 207.88 50.59 204.41 51.62 C 203.91 50.01 202.77 48.72 200.96 48.72 C 195.04 48.01 188.95 47.95 183.07 48.94 C 181.16 49.13 181.07 51.48 180.53 52.89 C 178.51 49.20 173.43 51.17 170.02 50.74 C 170.49 46.97 170.95 41.60 175.54 40.71 Z" />
<path fill="#58b0d8" opacity="1.00" d=" M 236.97 39.77 C 243.03 39.74 249.09 39.74 255.16 39.77 C 256.47 42.48 257.80 45.17 259.16 47.86 C 255.21 47.69 251.22 47.75 247.34 48.61 C 247.01 48.14 246.35 47.20 246.02 46.73 C 245.73 47.24 245.14 48.24 244.85 48.75 C 240.98 47.80 236.99 47.70 233.03 47.92 C 234.36 45.21 235.66 42.49 236.97 39.77 Z" />
</g>
<g id="#5bb2d9ff">
<path fill="#5bb2d9" opacity="1.00" d=" M 128.76 39.76 C 132.31 39.75 135.87 39.74 139.43 39.75 C 139.45 42.13 139.47 44.50 139.48 46.88 C 135.89 46.86 132.31 46.86 128.73 46.88 C 128.73 44.51 128.74 42.13 128.76 39.76 Z" />
</g>
<g id="#55afd7ff">
<path fill="#55afd7" opacity="1.00" d=" M 278.09 39.76 C 287.74 39.75 297.40 39.78 307.05 39.74 C 310.78 39.81 314.77 40.01 318.03 42.04 C 320.80 44.04 321.36 47.69 321.90 50.83 C 318.33 51.01 314.75 51.15 311.18 51.07 C 309.63 49.97 308.02 48.66 306.00 48.82 C 300.23 48.62 294.45 48.93 288.68 48.69 C 288.59 50.00 288.52 51.31 288.49 52.62 C 284.99 52.55 281.49 52.57 278.00 52.67 C 277.98 48.37 278.01 44.06 278.09 39.76 Z" />
</g>
<g id="#797979ff">
<path fill="#797979" opacity="1.00" d=" M 348.04 39.74 C 353.72 39.73 359.41 39.75 365.10 39.73 C 367.13 42.48 369.12 45.26 371.07 48.08 C 366.94 48.19 362.81 48.02 358.69 47.80 C 358.00 47.77 357.32 47.76 356.64 47.77 C 353.75 47.75 350.87 47.90 348.00 48.01 C 348.00 45.26 348.01 42.50 348.04 39.74 Z" />
<path fill="#797979" opacity="1.00" d=" M 383.75 39.75 C 387.25 39.74 390.75 39.74 394.25 39.75 C 394.26 42.79 394.27 45.83 394.27 48.86 C 390.75 48.86 387.24 48.88 383.73 48.92 C 383.72 45.86 383.73 42.80 383.75 39.75 Z" />
<path fill="#797979" opacity="1.00" d=" M 404.75 39.75 C 417.09 39.80 429.43 39.61 441.77 39.85 C 441.72 42.56 441.73 45.26 441.78 47.97 C 432.95 48.05 424.13 47.96 415.31 48.02 C 415.26 49.57 415.22 51.11 415.18 52.66 C 411.69 52.55 408.21 52.58 404.72 52.67 C 404.70 48.36 404.73 44.05 404.75 39.75 Z" />
<path fill="#797979" opacity="1.00" d=" M 451.04 39.74 C 464.61 39.80 478.19 39.62 491.77 39.83 C 491.72 42.81 491.73 45.78 491.75 48.75 C 487.12 48.82 482.49 48.66 477.87 48.87 C 477.53 49.02 476.85 49.33 476.51 49.49 C 473.10 50.16 469.58 50.17 466.21 49.30 C 461.23 48.20 456.09 48.98 451.05 48.80 C 450.98 45.78 451.00 42.76 451.04 39.74 Z" />
</g>
<g id="#6c6d6cff">
<path fill="#6c6d6c" opacity="1.00" d=" M 3.99 41.09 C 8.17 41.01 12.41 41.23 16.53 40.38 C 16.71 44.88 16.81 49.37 16.73 53.87 C 12.49 53.85 8.25 53.88 4.02 53.97 C 3.95 49.98 3.91 45.99 3.98 42.00 L 3.99 41.09 Z" />
<path fill="#6c6d6c" opacity="1.00" d=" M 56.85 43.04 C 60.95 42.76 65.07 42.80 69.16 43.15 C 68.10 45.97 67.87 48.99 67.90 51.97 C 64.62 51.93 61.34 51.95 58.06 52.03 C 58.12 48.99 57.84 45.93 56.85 43.04 Z" />
<path fill="#6c6d6c" opacity="1.00" d=" M 358.69 47.80 C 362.81 48.02 366.94 48.19 371.07 48.08 C 372.72 50.41 374.39 52.72 376.06 55.04 C 371.95 55.12 367.85 55.20 363.75 55.27 L 363.39 55.28 C 361.75 52.83 360.02 50.44 358.69 47.80 Z" />
<path fill="#6c6d6c" opacity="1.00" d=" M 383.73 48.92 C 387.24 48.88 390.75 48.86 394.27 48.86 C 394.26 50.87 394.27 52.88 394.27 54.90 C 390.76 54.88 387.25 54.89 383.74 54.91 C 383.73 52.91 383.73 50.92 383.73 48.92 Z" />
</g>
<g id="#a7a7a7ff">
</g>
<g id="#696a69ff">
<path fill="#696a69" opacity="1.00" d=" M 106.81 44.11 C 110.86 43.85 114.93 43.76 119.00 43.87 C 118.98 46.94 118.99 50.00 118.99 53.07 C 113.49 53.04 107.97 52.81 102.51 53.68 C 98.03 53.31 93.56 52.66 89.05 52.76 C 86.08 52.68 83.02 53.01 80.14 52.11 C 78.08 51.80 78.80 49.22 78.42 47.82 C 84.42 47.37 90.48 47.14 96.45 48.00 C 96.86 49.07 97.32 50.12 97.82 51.15 C 101.19 51.46 104.57 51.24 107.95 51.20 C 107.68 48.82 107.42 46.43 106.81 44.11 Z" />
</g>
<g id="#47a8d4ff">
<path fill="#47a8d4" opacity="1.00" d=" M 128.73 46.88 C 132.31 46.86 135.89 46.86 139.48 46.88 C 139.47 48.89 139.47 50.90 139.46 52.91 C 135.88 52.89 132.31 52.89 128.73 52.93 C 128.73 50.91 128.73 48.90 128.73 46.88 Z" />
</g>
<g id="#43a6d3ff">
<path fill="#43a6d3" opacity="1.00" d=" M 233.03 47.92 C 236.99 47.70 240.98 47.80 244.85 48.75 C 244.01 50.26 243.20 51.79 242.44 53.34 C 238.51 53.17 234.58 52.96 230.66 52.71 C 231.45 51.11 232.24 49.52 233.03 47.92 Z" />
<path fill="#43a6d3" opacity="1.00" d=" M 247.34 48.61 C 251.22 47.75 255.21 47.69 259.16 47.86 C 259.97 49.50 260.78 51.14 261.59 52.78 C 257.64 53.00 253.69 53.15 249.74 53.22 C 249.00 51.65 248.21 50.11 247.34 48.61 Z" />
</g>
<g id="#6e6f6eff">
<path fill="#6e6f6e" opacity="1.00" d=" M 348.00 48.01 C 350.87 47.90 353.75 47.75 356.64 47.77 C 357.07 47.94 357.94 48.27 358.38 48.44 C 358.40 50.34 358.44 52.25 358.47 54.16 C 354.98 54.18 351.50 54.18 348.02 54.13 C 348.00 52.09 348.00 50.05 348.00 48.01 Z" />
</g>
<g id="#676767ff">
<path fill="#676767" opacity="1.00" d=" M 27.19 55.23 C 27.22 53.03 27.30 50.83 27.43 48.63 C 33.32 48.96 39.23 48.50 45.12 48.85 C 48.47 48.98 48.49 55.45 44.97 55.18 C 39.05 55.44 33.12 55.23 27.19 55.23 Z" />
</g>
<g id="#666666ff">
<path fill="#666666" opacity="1.00" d=" M 466.21 49.30 C 469.58 50.17 473.10 50.16 476.51 49.49 C 476.77 52.67 476.79 55.86 476.72 59.04 C 473.15 59.17 469.58 59.20 466.02 59.15 C 465.94 55.87 465.99 52.58 466.21 49.30 Z" />
</g>
<g id="#309dcfff">
<path fill="#309dcf" opacity="1.00" d=" M 170.02 50.74 C 173.43 51.17 178.51 49.20 180.53 52.89 C 180.57 56.68 179.85 60.80 181.69 64.30 C 184.91 65.67 188.53 65.46 191.96 65.57 C 195.78 65.51 199.76 65.75 203.38 64.34 C 205.39 60.45 204.67 55.82 204.41 51.62 C 207.88 50.59 211.51 50.56 215.10 50.79 C 215.28 57.09 215.76 63.64 213.67 69.69 C 212.65 72.94 208.84 73.28 206.00 73.79 C 197.72 74.79 189.34 74.58 181.03 74.20 C 177.21 74.02 172.33 73.12 170.92 68.99 C 169.29 63.05 170.28 56.81 170.02 50.74 Z" />
<path fill="#309dcf" opacity="1.00" d=" M 311.18 51.07 C 314.75 51.15 318.33 51.01 321.90 50.83 C 322.16 56.78 322.64 63.02 320.51 68.71 C 318.65 73.13 313.22 73.78 309.03 73.97 C 298.69 74.05 288.34 73.97 278.00 74.00 C 277.99 66.89 278.01 59.78 278.00 52.67 C 281.49 52.57 284.99 52.55 288.49 52.62 C 288.40 56.73 288.49 60.85 288.45 64.96 C 295.18 64.76 302.01 65.59 308.68 64.54 C 313.18 61.79 311.21 55.47 311.18 51.07 Z" />
<path fill="#309dcf" opacity="1.00" d=" M 128.73 52.93 C 132.31 52.89 135.88 52.89 139.46 52.91 C 139.47 56.90 139.51 60.89 139.37 64.88 C 147.33 65.15 155.30 64.93 163.26 65.00 C 163.27 68.00 163.27 71.00 163.26 74.00 C 151.75 74.00 140.25 74.00 128.74 74.00 C 128.72 66.97 128.74 59.95 128.73 52.93 Z" />
<path fill="#309dcf" opacity="1.00" d=" M 220.01 73.97 C 223.57 66.89 227.09 59.79 230.66 52.71 C 234.58 52.96 238.51 53.17 242.44 53.34 C 241.48 55.29 240.57 57.27 239.66 59.24 C 243.96 59.28 248.27 59.28 252.58 59.25 C 251.62 57.25 250.69 55.23 249.74 53.22 C 253.69 53.15 257.64 53.00 261.59 52.78 C 265.13 59.83 268.73 66.85 272.14 73.97 C 268.04 74.01 263.94 74.00 259.84 74.00 C 258.77 72.09 257.69 70.18 256.61 68.28 C 249.60 68.26 242.58 68.25 235.57 68.29 C 234.43 70.14 233.78 72.50 232.06 73.89 C 228.05 74.20 224.02 73.92 220.01 73.97 Z" />
</g>
<g id="#616261ff">
<path fill="#616261" opacity="1.00" d=" M 58.06 52.03 C 61.34 51.95 64.62 51.93 67.90 51.97 C 68.18 54.38 68.95 56.70 70.23 58.76 C 65.07 59.29 59.89 59.32 54.74 58.67 C 56.71 56.97 57.70 54.55 58.06 52.03 Z" />
</g>
<g id="#5e5f5eff">
<path fill="#5e5f5e" opacity="1.00" d=" M 102.51 53.68 C 107.97 52.81 113.49 53.04 118.99 53.07 C 118.99 56.04 119.00 59.02 119.00 61.99 C 115.52 61.96 112.04 61.94 108.56 61.94 C 108.27 58.23 106.32 54.69 102.51 53.68 Z" />
</g>
<g id="#636463ff">
<path fill="#636463" opacity="1.00" d=" M 404.72 52.67 C 408.21 52.58 411.69 52.55 415.18 52.66 C 423.60 52.85 432.02 52.70 440.45 52.74 C 440.45 54.49 440.46 56.24 440.47 57.99 C 428.56 57.95 416.65 58.05 404.74 58.06 C 404.73 56.26 404.73 54.46 404.72 52.67 Z" />
</g>
<g id="#5a5a5aff">
<path fill="#5a5a5a" opacity="1.00" d=" M 4.02 53.97 C 8.25 53.88 12.49 53.85 16.73 53.87 C 16.62 60.60 16.97 67.34 16.64 74.06 C 16.17 71.83 15.80 69.57 15.41 67.32 C 11.62 67.30 7.83 67.23 4.04 67.09 C 3.99 62.72 4.06 58.35 4.02 53.97 Z" />
</g>
<g id="#5d5d5dff">
<path fill="#5d5d5d" opacity="1.00" d=" M 348.02 54.13 C 351.50 54.18 354.98 54.18 358.47 54.16 C 358.46 57.37 358.48 60.59 358.47 63.81 C 354.98 63.75 351.49 63.73 348.00 63.75 C 347.99 60.54 348.01 57.34 348.02 54.13 Z" />
</g>
<g id="#5a5b5aff">
<path fill="#5a5b5a" opacity="1.00" d=" M 363.75 55.27 C 367.85 55.20 371.95 55.12 376.06 55.04 C 378.12 58.03 380.25 60.95 382.33 63.92 C 378.32 63.85 374.29 63.91 370.35 64.73 C 368.06 61.64 365.80 58.53 363.75 55.27 Z" />
</g>
<g id="#5f5f5fff">
<path fill="#5f5f5f" opacity="1.00" d=" M 383.74 54.91 C 387.25 54.89 390.76 54.88 394.27 54.90 C 394.26 56.90 394.26 58.90 394.27 60.90 C 390.73 60.86 387.20 60.86 383.66 60.91 C 383.71 58.91 383.74 56.91 383.74 54.91 Z" />
</g>
<g id="#545554ff">
<path fill="#545554" opacity="1.00" d=" M 53.69 58.95 C 53.95 58.88 54.48 58.74 54.74 58.67 C 59.89 59.32 65.07 59.29 70.23 58.76 C 78.23 62.74 87.48 60.35 95.98 61.73 C 98.33 61.71 97.69 64.30 98.09 65.85 C 91.80 66.39 85.39 66.68 79.13 65.75 C 78.41 64.77 78.01 63.60 77.49 62.51 C 74.12 62.52 70.75 62.53 67.39 62.52 C 67.46 65.65 67.77 68.85 69.29 71.67 C 65.53 71.71 61.77 71.81 58.01 71.94 C 57.91 68.74 58.36 65.43 57.43 62.32 C 56.50 60.90 54.96 60.04 53.69 58.95 Z" />
</g>
<g id="#585958ff">
<path fill="#585958" opacity="1.00" d=" M 404.74 58.06 C 416.65 58.05 428.56 57.95 440.47 57.99 C 440.47 58.74 440.46 60.25 440.45 61.00 C 432.06 61.02 423.66 60.96 415.27 61.03 C 415.25 62.59 415.23 64.15 415.21 65.71 C 411.72 65.68 408.22 65.75 404.73 65.86 C 404.72 63.26 404.73 60.66 404.74 58.06 Z" />
</g>
<g id="#4f4f4fff">
<path fill="#4f4f4f" opacity="1.00" d=" M 466.02 59.15 C 469.58 59.20 473.15 59.17 476.72 59.04 C 476.57 64.08 477.07 69.13 476.56 74.16 C 476.23 72.47 475.93 70.77 475.64 69.08 C 472.43 68.85 469.21 68.76 466.00 68.80 C 465.99 65.59 466.04 62.37 466.02 59.15 Z" />
<path fill="#4f4f4f" opacity="1.00" d=" M 27.29 64.28 C 33.39 64.50 39.56 63.86 45.62 64.58 C 48.37 65.95 47.32 69.57 47.56 72.05 C 42.01 72.24 36.45 71.88 30.90 72.16 C 29.44 72.13 28.30 73.13 27.13 73.85 C 27.28 70.66 27.29 67.47 27.29 64.28 Z" />
</g>
<g id="#515251ff">
<path fill="#515251" opacity="1.00" d=" M 383.66 60.91 C 387.20 60.86 390.73 60.86 394.27 60.90 C 394.26 62.60 394.26 64.31 394.26 66.02 C 391.33 66.08 388.39 66.13 385.46 66.23 L 384.17 66.22 C 383.96 64.45 383.79 62.68 383.66 60.91 Z" />
</g>
<g id="#535353ff">
<path fill="#535353" opacity="1.00" d=" M 108.56 61.94 C 112.04 61.94 115.52 61.96 119.00 61.99 C 119.00 64.71 119.00 67.42 118.99 70.13 C 115.22 70.18 111.46 70.09 107.70 69.87 C 108.40 67.29 108.58 64.60 108.56 61.94 Z" />
</g>
<g id="#474747ff">
<path fill="#474747" opacity="1.00" d=" M 348.00 63.75 C 351.49 63.73 354.98 63.75 358.47 63.81 C 358.45 67.20 358.47 70.60 358.49 74.00 C 354.99 74.00 351.49 74.00 348.00 74.00 C 347.99 70.58 348.02 67.17 348.00 63.75 Z" />
</g>
<g id="#454545ff">
<path fill="#454545" opacity="1.00" d=" M 370.35 64.73 C 374.29 63.91 378.32 63.85 382.33 63.92 C 382.87 64.76 383.42 65.61 383.98 66.45 C 384.35 66.40 385.09 66.29 385.46 66.23 C 388.39 66.13 391.33 66.08 394.26 66.02 C 394.26 68.68 394.27 71.34 394.28 74.00 C 388.48 74.01 382.69 73.98 376.89 74.02 C 374.75 70.90 372.53 67.82 370.35 64.73 Z" />
<path fill="#454545" opacity="1.00" d=" M 329.30 65.29 C 332.76 65.30 336.23 65.30 339.70 65.29 C 339.72 68.36 339.74 71.43 339.80 74.50 C 336.29 74.48 332.79 74.48 329.29 74.57 C 329.24 71.48 329.26 68.38 329.30 65.29 Z" />
<path fill="#454545" opacity="1.00" d=" M 404.73 65.86 C 408.22 65.75 411.72 65.68 415.21 65.71 C 424.01 65.76 432.82 65.80 441.62 65.69 C 441.73 68.45 441.76 71.22 441.79 73.99 C 429.43 74.02 417.08 73.98 404.72 74.00 C 404.73 71.29 404.73 68.57 404.73 65.86 Z" />
<path fill="#454545" opacity="1.00" d=" M 3.97 86.97 C 6.65 86.96 9.34 86.96 12.02 86.97 C 12.02 88.29 12.02 89.62 12.02 90.95 C 11.45 90.96 10.32 90.98 9.75 91.00 C 10.63 92.08 11.52 93.16 12.33 94.30 C 9.80 93.92 8.42 91.51 6.13 90.62 C 6.08 91.47 6.00 93.16 5.95 94.01 C 5.46 94.01 4.49 94.01 4.00 94.01 C 3.99 91.66 3.98 89.32 3.97 86.97 M 6.00 88.00 C 6.00 88.50 6.00 89.50 6.00 90.00 C 7.33 90.00 8.67 89.99 10.00 89.99 C 10.00 89.50 10.00 88.50 10.00 88.00 C 8.67 88.00 7.33 88.00 6.00 88.00 Z" />
<path fill="#454545" opacity="1.00" d=" M 13.98 86.97 C 17.15 86.96 20.32 86.89 23.49 87.10 C 21.43 88.84 18.45 87.76 16.00 88.04 C 16.00 88.52 16.00 89.48 16.00 89.96 C 18.33 89.97 20.67 89.97 23.00 89.98 L 23.00 91.00 C 20.66 91.01 18.33 91.02 15.99 91.03 C 16.00 91.52 16.00 92.49 16.01 92.98 C 18.34 92.98 20.68 92.98 23.02 92.99 L 23.00 94.00 C 20.00 94.01 16.99 94.01 13.99 94.00 C 13.99 91.66 13.98 89.31 13.98 86.97 Z" />
<path fill="#454545" opacity="1.00" d=" M 24.00 86.98 C 24.50 86.97 25.52 86.96 26.02 86.96 C 26.02 88.96 26.02 90.97 26.02 92.98 C 28.36 92.98 30.70 92.98 33.05 92.99 L 32.97 94.00 C 29.98 94.01 26.98 94.01 23.99 94.00 C 23.99 91.66 23.98 89.32 24.00 86.98 Z" />
<path fill="#454545" opacity="1.00" d=" M 33.97 86.98 C 37.07 87.36 40.80 85.94 43.47 87.89 C 40.98 88.05 38.49 88.04 35.99 88.04 C 36.00 88.52 36.00 89.49 36.01 89.97 C 38.34 89.97 40.67 89.97 43.00 89.98 L 43.00 91.01 C 40.66 91.01 38.33 91.02 36.00 91.03 C 36.00 91.51 36.00 92.49 36.00 92.97 C 38.33 92.98 40.66 92.98 43.00 92.99 L 43.03 94.00 C 40.02 94.01 37.01 94.01 34.00 94.00 C 33.99 91.66 33.98 89.32 33.97 86.98 Z" />
<path fill="#454545" opacity="1.00" d=" M 43.99 86.97 C 46.67 86.96 49.35 86.96 52.03 86.97 C 52.02 89.32 52.01 91.66 52.00 94.01 C 51.51 94.01 50.52 94.01 50.03 94.00 C 50.01 93.25 49.97 91.75 49.94 91.00 C 48.65 91.00 47.35 91.00 46.06 91.00 C 46.03 91.75 45.99 93.26 45.96 94.01 C 45.47 94.01 44.49 94.01 43.99 94.01 C 43.99 91.66 43.98 89.31 43.99 86.97 M 46.00 88.00 C 46.00 88.50 46.00 89.49 46.00 89.99 C 47.33 89.99 48.67 89.99 50.00 89.99 C 50.00 89.49 50.00 88.50 50.00 88.00 C 48.67 88.00 47.33 88.00 46.00 88.00 Z" />
<path fill="#454545" opacity="1.00" d=" M 53.97 86.98 C 56.75 87.30 60.11 86.03 62.48 87.89 C 60.32 88.03 58.16 88.04 56.00 88.05 C 56.00 88.53 56.00 89.48 56.00 89.96 C 58.00 89.97 60.01 89.98 62.01 89.98 C 62.01 91.32 62.01 92.66 62.01 94.00 C 59.34 94.01 56.68 94.01 54.02 94.00 L 53.96 92.99 C 55.97 92.99 57.98 92.98 60.00 92.98 C 60.00 92.49 60.00 91.52 60.00 91.03 C 58.00 91.02 56.00 91.01 54.00 91.01 C 53.98 89.66 53.98 88.32 53.97 86.98 Z" />
<path fill="#454545" opacity="1.00" d=" M 63.97 86.97 C 66.99 86.96 70.01 86.96 73.03 86.97 L 73.03 88.02 C 70.68 88.02 68.34 88.03 66.00 88.04 C 66.00 88.52 66.00 89.48 66.00 89.97 C 68.34 89.97 70.68 89.97 73.02 89.98 L 73.02 91.00 C 70.68 91.01 68.34 91.02 66.00 91.03 C 66.00 91.52 66.00 92.49 66.00 92.97 C 68.35 92.98 70.70 92.98 73.05 92.99 L 72.98 94.00 C 69.98 94.01 66.99 94.01 64.00 94.00 C 63.99 91.66 63.98 89.31 63.97 86.97 Z" />
<path fill="#454545" opacity="1.00" d=" M 80.97 86.97 C 81.48 86.97 82.51 86.96 83.02 86.96 C 83.02 88.97 83.02 90.97 83.01 92.98 C 85.50 92.97 87.98 92.95 90.47 93.12 C 87.75 94.97 84.10 93.65 81.00 93.99 C 80.99 91.65 80.98 89.31 80.97 86.97 Z" />
<path fill="#454545" opacity="1.00" d=" M 90.97 86.97 C 93.66 86.96 96.34 86.96 99.03 86.97 C 99.02 89.32 99.01 91.66 99.01 94.00 C 96.34 94.01 93.67 94.01 91.00 94.00 C 90.99 91.66 90.98 89.31 90.97 86.97 M 93.01 88.00 C 93.00 89.66 93.00 91.33 93.00 93.00 C 94.33 93.00 95.66 93.00 97.00 93.00 C 97.00 91.34 97.00 89.67 97.00 88.01 C 95.67 88.00 94.34 88.00 93.01 88.00 Z" />
<path fill="#454545" opacity="1.00" d=" M 100.97 86.97 C 103.66 86.96 106.34 86.96 109.02 86.97 C 109.02 89.31 109.01 91.66 109.01 94.01 C 108.51 94.01 107.53 94.01 107.03 94.01 C 107.01 93.25 106.97 91.75 106.94 91.00 C 105.65 91.00 104.35 91.00 103.06 91.00 C 103.03 91.75 102.99 93.25 102.97 94.00 C 102.47 94.01 101.49 94.01 101.00 94.01 C 100.99 91.66 100.98 89.32 100.97 86.97 M 103.00 88.00 C 103.00 88.50 103.00 89.49 103.00 89.99 C 104.33 89.99 105.67 89.99 107.00 89.99 C 107.00 89.50 107.00 88.50 107.00 88.01 C 105.67 88.00 104.33 88.00 103.00 88.00 Z" />
<path fill="#454545" opacity="1.00" d=" M 110.97 86.96 C 113.19 86.96 115.43 86.82 117.64 87.10 C 120.02 88.57 118.71 91.72 119.03 94.00 C 116.35 94.01 113.67 94.01 111.00 94.01 C 110.98 91.66 110.98 89.31 110.97 86.96 M 113.01 88.00 C 113.00 89.67 113.00 91.33 113.00 93.00 C 114.33 93.00 115.67 93.00 117.00 93.00 C 117.00 91.33 116.99 89.67 116.99 88.00 C 115.66 88.00 114.33 88.00 113.01 88.00 Z" />
</g>
<g id="#444444ff">
<path fill="#444444" opacity="1.00" d=" M 4.04 67.09 C 7.83 67.23 11.62 67.30 15.41 67.32 C 15.80 69.57 16.17 71.83 16.64 74.06 C 20.14 74.03 23.64 74.06 27.13 73.85 C 28.30 73.13 29.44 72.13 30.90 72.16 C 36.45 71.88 42.01 72.24 47.56 72.05 C 47.55 72.53 47.53 73.50 47.53 73.98 C 51.02 74.01 54.51 74.02 58.01 74.02 C 58.01 73.50 58.01 72.46 58.01 71.94 C 61.77 71.81 65.53 71.71 69.29 71.67 C 73.17 74.71 78.36 74.38 83.02 74.49 C 89.84 74.39 96.80 74.90 103.47 73.20 C 105.32 72.77 106.60 71.31 107.70 69.87 C 111.46 70.09 115.22 70.18 118.99 70.13 C 118.97 74.38 119.01 78.63 119.00 82.88 C 80.65 82.82 42.30 82.87 3.96 82.85 C 3.92 79.57 3.94 76.30 4.00 73.02 C 4.04 71.05 4.05 69.07 4.04 67.09 Z" />
</g>
<g id="#414141ff">
<path fill="#414141" opacity="1.00" d=" M 466.00 68.80 C 469.21 68.76 472.43 68.85 475.64 69.08 C 475.93 70.77 476.23 72.47 476.56 74.16 C 473.04 73.95 469.52 74.00 466.00 74.01 C 466.00 72.27 465.99 70.54 466.00 68.80 Z" />
</g>
<g id="#b5b5b5ff">
</g>
<g id="#1a1a1aff">
<path fill="#1a1a1a" opacity="1.00" d=" M 3.96 82.85 C 42.30 82.87 80.65 82.82 119.00 82.88 L 119.00 84.01 C 80.66 84.04 42.31 84.03 3.97 84.01 L 3.96 82.85 Z" />
</g>
<g id="#b2b2b2ff">
</g>
<g id="#b3b3b3ff">
</g>
</svg>
