<?xml version="1.0" encoding="UTF-8" ?>
<!DOCTYPE svg PUBLIC "-//W3C//DTD SVG 1.1//EN" "http://www.w3.org/Graphics/SVG/1.1/DTD/svg11.dtd">
<svg width="260pt" height="60pt" viewBox="0 0 260 60" version="1.1" xmlns="http://www.w3.org/2000/svg">
<g id="#fefefeff">
<path fill="#fefefe" opacity="1.00" d=" M 80.74 9.74 C 85.81 9.91 91.00 9.19 95.96 10.50 C 100.45 11.92 102.14 17.80 99.77 21.68 C 98.69 23.54 96.56 24.30 94.81 25.34 C 96.63 26.00 98.45 26.64 100.29 27.25 C 100.27 29.03 100.26 30.82 100.24 32.60 C 95.97 31.49 91.98 29.58 88.21 27.32 C 88.22 25.46 88.22 23.61 88.21 21.75 C 90.85 22.19 94.72 21.41 94.29 17.90 C 94.08 14.22 89.59 14.86 87.01 14.71 C 86.99 20.47 87.01 26.24 87.00 32.00 C 84.91 32.00 82.82 32.00 80.73 32.00 C 80.74 24.58 80.73 17.16 80.74 9.74 Z" />
<path fill="#fefefe" opacity="1.00" d=" M 103.74 9.74 C 105.82 9.74 107.91 9.74 110.00 9.74 C 110.11 14.89 109.77 20.06 110.15 25.21 C 110.43 27.49 113.30 28.20 115.00 26.95 C 115.90 25.85 116.03 24.38 116.01 23.02 C 116.03 18.59 115.98 14.17 116.00 9.74 C 118.09 9.74 120.17 9.74 122.26 9.74 C 122.04 15.48 122.78 21.31 121.83 26.99 C 120.33 32.39 113.71 33.38 109.04 32.04 C 105.51 31.22 103.92 27.29 103.76 24.00 C 103.65 19.25 103.77 14.49 103.74 9.74 Z" />
<path fill="#fefefe" opacity="1.00" d=" M 138.23 9.74 C 143.13 9.93 148.11 9.28 152.96 10.16 C 157.50 11.18 158.50 17.79 154.30 19.99 C 156.06 21.15 157.95 22.60 157.97 24.93 C 158.73 28.52 155.44 31.48 152.11 31.85 C 147.49 32.21 142.85 31.91 138.21 32.00 C 138.23 24.58 138.20 17.16 138.23 9.74 M 144.51 14.48 C 144.49 18.74 144.50 23.01 144.50 27.28 C 146.80 26.90 151.04 28.28 151.56 24.99 C 151.22 22.12 147.72 22.98 145.72 22.68 C 145.73 21.15 145.74 19.62 145.74 18.08 C 147.78 18.07 151.83 18.35 150.91 15.09 C 148.87 14.29 146.65 14.54 144.51 14.48 Z" />
<path fill="#fefefe" opacity="1.00" d=" M 166.22 10.23 C 169.79 8.75 174.01 8.86 177.48 10.58 C 184.80 14.48 185.02 26.73 177.88 30.90 C 172.84 33.73 165.47 33.01 162.01 28.05 C 158.19 22.43 159.58 13.09 166.22 10.23 M 169.48 14.65 C 164.63 17.27 165.52 28.02 172.02 27.51 C 175.97 27.11 176.99 22.28 176.34 19.03 C 176.22 15.74 172.58 13.07 169.48 14.65 Z" />
<path fill="#fefefe" opacity="1.00" d=" M 192.23 9.75 C 194.30 9.74 196.38 9.73 198.45 9.71 C 202.60 16.50 204.89 24.22 206.31 32.00 C 204.15 32.00 202.00 32.00 199.85 32.00 C 199.62 30.75 199.39 29.51 199.14 28.26 C 197.03 28.27 194.93 28.27 192.82 28.26 C 193.20 26.67 193.59 25.09 193.99 23.52 C 195.32 23.50 196.64 23.49 197.97 23.47 C 197.20 21.29 196.37 19.12 195.47 16.99 C 193.24 21.75 191.80 26.84 190.84 32.00 C 188.71 32.00 186.59 32.00 184.46 31.99 C 186.10 24.30 188.31 16.62 192.23 9.75 Z" />
<path fill="#fefefe" opacity="1.00" d=" M 207.74 9.74 C 212.81 9.92 218.02 9.18 222.98 10.51 C 227.46 11.94 229.14 17.79 226.77 21.66 C 225.71 23.53 223.57 24.29 221.82 25.35 C 223.63 26.00 225.45 26.64 227.29 27.25 C 227.27 29.03 227.25 30.82 227.24 32.60 C 222.97 31.49 218.98 29.58 215.21 27.31 C 215.21 25.46 215.22 23.60 215.21 21.75 C 216.76 21.50 218.68 22.17 219.98 21.02 C 221.49 19.98 221.59 17.70 220.77 16.19 C 219.09 14.30 216.25 14.95 214.01 14.71 C 213.99 20.47 214.00 26.24 214.00 32.00 C 211.91 32.00 209.82 32.00 207.73 32.00 C 207.74 24.58 207.73 17.16 207.74 9.74 Z" />
<path fill="#fefefe" opacity="1.00" d=" M 230.74 9.74 C 235.91 9.83 241.53 9.11 246.24 11.74 C 252.83 15.44 252.56 26.28 246.40 30.27 C 244.05 31.99 241.07 32.26 238.28 32.69 C 238.24 31.04 238.21 29.39 238.18 27.73 C 240.26 27.23 242.77 26.88 243.79 24.70 C 244.85 21.98 244.98 18.30 242.60 16.22 C 241.10 14.84 238.91 14.95 237.03 14.60 C 236.97 20.40 237.01 26.20 237.00 32.00 C 234.91 32.00 232.82 32.00 230.73 32.00 C 230.74 24.58 230.73 17.16 230.74 9.74 Z" />
<path fill="#fefefe" opacity="1.00" d=" M 125.23 20.74 C 128.57 20.74 131.91 20.74 135.26 20.74 C 135.26 22.42 135.27 24.09 135.28 25.77 C 131.92 25.79 128.57 25.79 125.22 25.77 C 125.22 24.09 125.22 22.41 125.23 20.74 Z" />
</g>
<g id="#dededeff">
<path fill="#dedede" opacity="1.00" d=" M 33.49 6.33 C 38.33 4.04 43.54 2.10 48.99 2.33 C 51.24 2.44 53.99 2.13 55.37 4.37 C 54.77 4.30 53.58 4.17 52.99 4.10 C 54.26 4.66 55.53 5.21 56.80 5.77 C 53.34 6.46 49.74 6.02 46.32 6.79 C 44.83 7.91 43.79 9.49 42.62 10.92 C 43.00 11.59 43.38 12.27 43.77 12.95 C 43.21 12.98 42.11 13.05 41.56 13.08 C 38.42 10.80 34.78 8.83 30.74 9.54 C 30.29 9.78 29.38 10.28 28.92 10.52 C 29.45 8.27 31.63 7.27 33.49 6.33 Z" />
</g>
<g id="#aeaeb1ff">
<path fill="#aeaeb1" opacity="1.00" d=" M 52.99 4.10 C 53.58 4.17 54.77 4.30 55.37 4.37 C 60.51 5.38 64.87 8.88 68.38 12.63 C 72.45 17.15 75.48 24.29 71.89 29.96 C 68.30 35.95 61.14 37.67 55.06 40.00 C 46.36 43.20 40.35 50.64 32.87 55.76 C 29.27 58.02 24.46 59.64 20.41 57.58 C 16.11 55.50 12.68 51.97 9.83 48.20 C 8.71 46.83 8.15 45.13 8.25 43.36 C 11.16 46.88 13.80 50.74 17.57 53.41 C 19.87 55.00 22.69 55.47 25.38 56.02 C 22.19 54.87 18.74 54.02 16.15 51.70 C 12.46 48.48 10.05 44.07 6.35 40.84 C 6.61 40.21 7.11 38.95 7.37 38.32 C 9.32 38.82 11.28 39.33 13.24 39.83 C 12.94 40.33 12.36 41.32 12.07 41.82 C 14.57 45.20 17.86 47.93 21.78 49.52 C 21.68 49.80 21.48 50.35 21.39 50.62 C 22.39 50.86 23.40 51.11 24.41 51.35 C 24.58 52.13 24.75 52.91 24.91 53.68 C 29.72 54.18 33.68 51.23 36.96 48.09 L 36.56 49.55 C 41.25 46.17 45.59 42.25 50.75 39.55 C 55.77 36.57 61.94 35.85 66.33 31.79 C 66.52 31.66 66.89 31.39 67.08 31.25 L 65.94 31.22 C 68.66 29.19 71.39 26.60 70.95 22.87 C 70.52 17.49 67.55 12.81 63.25 9.67 C 61.29 8.08 59.10 6.78 56.80 5.77 C 55.53 5.21 54.26 4.66 52.99 4.10 Z" />
<path fill="#aeaeb1" opacity="1.00" d=" M 239.46 16.69 C 242.42 18.11 242.90 21.16 242.35 24.15 C 241.26 24.63 240.16 25.10 239.07 25.58 C 239.12 22.61 239.24 19.65 239.46 16.69 Z" />
</g>
<g id="#f2eeeeff">
<path fill="#f2eeee" opacity="1.00" d=" M 46.32 6.79 C 49.74 6.02 53.34 6.46 56.80 5.77 C 59.10 6.78 61.29 8.08 63.25 9.67 C 63.33 10.96 63.43 12.25 63.52 13.54 C 58.96 16.28 54.50 19.29 51.37 23.68 C 50.23 24.83 48.99 25.88 47.79 26.96 C 47.47 25.18 47.16 23.39 46.86 21.61 C 46.57 21.20 45.99 20.39 45.69 19.98 C 45.22 19.09 44.75 18.20 44.27 17.32 L 44.22 18.09 C 43.65 16.27 42.68 14.61 41.56 13.08 C 42.11 13.05 43.21 12.98 43.77 12.95 C 43.38 12.27 43.00 11.59 42.62 10.92 C 43.79 9.49 44.83 7.91 46.32 6.79 Z" />
</g>
<g id="#020202ff">
<path fill="#020202" opacity="1.00" d=" M 159.20 14.54 C 162.11 7.95 170.38 5.89 176.81 8.04 C 181.91 10.02 184.74 15.06 185.38 20.29 C 186.05 18.59 186.72 16.89 187.41 15.20 C 188.71 12.68 189.37 9.27 192.08 7.91 C 194.56 7.78 197.42 7.19 199.68 8.36 C 202.87 12.06 204.68 16.81 205.66 21.57 C 205.49 17.09 205.44 12.57 206.16 8.14 C 210.78 7.54 215.48 7.60 220.12 7.91 C 223.52 8.21 227.14 9.66 228.61 12.97 C 228.70 11.36 228.88 9.76 229.13 8.16 C 236.81 7.20 246.47 6.93 251.56 13.92 C 252.83 17.41 253.67 21.25 252.67 24.93 C 251.36 30.58 245.67 34.42 240.01 34.48 C 236.37 34.43 232.74 34.02 229.15 33.49 C 228.57 33.76 227.42 34.29 226.84 34.56 C 223.43 33.58 220.11 32.30 216.88 30.81 C 215.93 31.77 215.63 33.85 214.00 33.94 C 209.65 34.39 205.24 34.21 200.88 33.95 C 198.77 34.21 198.12 31.89 197.03 30.58 C 195.98 30.57 194.94 30.56 193.91 30.56 C 193.24 31.64 192.75 32.85 191.83 33.76 C 188.58 34.56 184.93 34.30 182.16 32.28 C 182.41 31.23 182.66 30.19 182.92 29.15 C 179.52 33.67 173.51 35.76 168.05 34.18 C 164.51 33.50 161.83 30.94 159.47 28.40 C 159.46 28.84 159.42 29.71 159.41 30.15 C 157.20 31.82 154.95 33.82 152.04 33.97 C 147.31 34.43 142.54 34.20 137.82 33.76 C 136.37 33.48 136.14 31.81 136.23 30.59 C 136.21 29.87 136.19 28.44 136.17 27.73 C 132.28 27.91 128.39 27.68 124.50 27.84 C 122.59 29.80 121.35 32.60 118.66 33.64 C 114.88 35.17 110.41 34.99 106.73 33.24 C 102.62 31.11 101.78 26.03 101.22 21.88 C 101.03 22.77 100.83 23.65 100.63 24.54 C 102.33 27.23 103.18 30.65 101.90 33.70 C 97.78 35.44 93.66 32.08 89.86 30.79 C 88.73 35.09 84.07 34.13 80.69 34.00 C 78.19 33.07 78.79 30.08 78.72 27.99 C 78.92 21.38 78.28 14.71 79.17 8.13 C 83.74 7.55 88.38 7.61 92.98 7.90 C 96.44 8.18 100.12 9.63 101.63 12.98 C 101.71 11.38 101.87 9.78 102.09 8.19 C 105.16 8.10 109.68 6.33 111.77 9.34 C 113.13 14.80 111.77 20.58 112.79 26.12 C 115.26 20.71 112.13 14.07 114.68 8.69 C 117.37 6.82 121.15 7.77 124.16 8.45 L 124.21 9.99 C 124.31 12.92 124.41 15.85 124.43 18.78 C 128.45 18.87 132.47 18.89 136.49 19.14 L 136.36 18.47 C 136.48 15.13 135.25 11.17 137.30 8.25 C 141.35 7.15 145.76 7.94 149.96 7.75 C 154.20 7.51 158.43 10.22 159.20 14.54 M 80.74 9.74 C 80.73 17.16 80.74 24.58 80.73 32.00 C 82.82 32.00 84.91 32.00 87.00 32.00 C 87.01 26.24 86.99 20.47 87.01 14.71 C 89.59 14.86 94.08 14.22 94.29 17.90 C 94.72 21.41 90.85 22.19 88.21 21.75 C 88.22 23.61 88.22 25.46 88.21 27.32 C 91.98 29.58 95.97 31.49 100.24 32.60 C 100.26 30.82 100.27 29.03 100.29 27.25 C 98.45 26.64 96.63 26.00 94.81 25.34 C 96.56 24.30 98.69 23.54 99.77 21.68 C 102.14 17.80 100.45 11.92 95.96 10.50 C 91.00 9.19 85.81 9.91 80.74 9.74 M 103.74 9.74 C 103.77 14.49 103.65 19.25 103.76 24.00 C 103.92 27.29 105.51 31.22 109.04 32.04 C 113.71 33.38 120.33 32.39 121.83 26.99 C 122.78 21.31 122.04 15.48 122.26 9.74 C 120.17 9.74 118.09 9.74 116.00 9.74 C 115.98 14.17 116.03 18.59 116.01 23.02 C 116.03 24.38 115.90 25.85 115.00 26.95 C 113.30 28.20 110.43 27.49 110.15 25.21 C 109.77 20.06 110.11 14.89 110.00 9.74 C 107.91 9.74 105.82 9.74 103.74 9.74 M 138.23 9.74 C 138.20 17.16 138.23 24.58 138.21 32.00 C 142.85 31.91 147.49 32.21 152.11 31.85 C 155.44 31.48 158.73 28.52 157.97 24.93 C 157.95 22.60 156.06 21.15 154.30 19.99 C 158.50 17.79 157.50 11.18 152.96 10.16 C 148.11 9.28 143.13 9.93 138.23 9.74 M 166.22 10.23 C 159.58 13.09 158.19 22.43 162.01 28.05 C 165.47 33.01 172.84 33.73 177.88 30.90 C 185.02 26.73 184.80 14.48 177.48 10.58 C 174.01 8.86 169.79 8.75 166.22 10.23 M 192.23 9.75 C 188.31 16.62 186.10 24.30 184.46 31.99 C 186.59 32.00 188.71 32.00 190.84 32.00 C 191.80 26.84 193.24 21.75 195.47 16.99 C 196.37 19.12 197.20 21.29 197.97 23.47 C 196.64 23.49 195.32 23.50 193.99 23.52 C 193.59 25.09 193.20 26.67 192.82 28.26 C 194.93 28.27 197.03 28.27 199.14 28.26 C 199.39 29.51 199.62 30.75 199.85 32.00 C 202.00 32.00 204.15 32.00 206.31 32.00 C 204.89 24.22 202.60 16.50 198.45 9.71 C 196.38 9.73 194.30 9.74 192.23 9.75 M 207.74 9.74 C 207.73 17.16 207.74 24.58 207.73 32.00 C 209.82 32.00 211.91 32.00 214.00 32.00 C 214.00 26.24 213.99 20.47 214.01 14.71 C 216.25 14.95 219.09 14.30 220.77 16.19 C 221.59 17.70 221.49 19.98 219.98 21.02 C 218.68 22.17 216.76 21.50 215.21 21.75 C 215.22 23.60 215.21 25.46 215.21 27.31 C 218.98 29.58 222.97 31.49 227.24 32.60 C 227.25 30.82 227.27 29.03 227.29 27.25 C 225.45 26.64 223.63 26.00 221.82 25.35 C 223.57 24.29 225.71 23.53 226.77 21.66 C 229.14 17.79 227.46 11.94 222.98 10.51 C 218.02 9.18 212.81 9.92 207.74 9.74 M 230.74 9.74 C 230.73 17.16 230.74 24.58 230.73 32.00 C 232.82 32.00 234.91 32.00 237.00 32.00 C 237.01 26.20 236.97 20.40 237.03 14.60 C 238.91 14.95 241.10 14.84 242.60 16.22 C 244.98 18.30 244.85 21.98 243.79 24.70 C 242.77 26.88 240.26 27.23 238.18 27.73 C 238.21 29.39 238.24 31.04 238.28 32.69 C 241.07 32.26 244.05 31.99 246.40 30.27 C 252.56 26.28 252.83 15.44 246.24 11.74 C 241.53 9.11 235.91 9.83 230.74 9.74 M 89.01 16.78 C 89.05 17.63 89.14 19.31 89.19 20.15 C 91.29 20.23 92.42 19.06 92.61 17.00 C 91.71 16.94 89.91 16.84 89.01 16.78 M 216.01 16.81 C 216.04 17.64 216.10 19.29 216.13 20.12 C 218.23 20.23 219.39 19.06 219.63 16.99 C 218.73 16.94 216.92 16.85 216.01 16.81 M 239.46 16.69 C 239.24 19.65 239.12 22.61 239.07 25.58 C 240.16 25.10 241.26 24.63 242.35 24.15 C 242.90 21.16 242.42 18.11 239.46 16.69 M 125.23 20.74 C 125.22 22.41 125.22 24.09 125.22 25.77 C 128.57 25.79 131.92 25.79 135.28 25.77 C 135.27 24.09 135.26 22.42 135.26 20.74 C 131.91 20.74 128.57 20.74 125.23 20.74 M 228.09 25.80 C 229.37 25.46 229.46 23.53 228.79 22.61 C 227.24 22.09 226.35 25.52 228.09 25.80 Z" />
<path fill="#020202" opacity="1.00" d=" M 144.51 14.48 C 146.65 14.54 148.87 14.29 150.91 15.09 C 151.83 18.35 147.78 18.07 145.74 18.08 C 145.74 19.62 145.73 21.15 145.72 22.68 C 147.72 22.98 151.22 22.12 151.56 24.99 C 151.04 28.28 146.80 26.90 144.50 27.28 C 144.50 23.01 144.49 18.74 144.51 14.48 Z" />
<path fill="#020202" opacity="1.00" d=" M 169.48 14.65 C 172.58 13.07 176.22 15.74 176.34 19.03 C 176.99 22.28 175.97 27.11 172.02 27.51 C 165.52 28.02 164.63 17.27 169.48 14.65 M 169.65 16.36 C 168.63 18.83 168.35 21.48 168.81 24.12 L 169.17 23.20 C 169.05 25.52 172.29 26.35 173.56 24.60 C 175.05 22.70 174.27 20.06 174.39 17.83 C 173.08 16.61 171.36 16.37 169.65 16.36 Z" />
<path fill="#020202" opacity="1.00" d=" M 50.59 33.91 C 55.20 31.10 60.72 31.04 65.94 31.22 L 67.08 31.25 C 66.89 31.39 66.52 31.66 66.33 31.79 C 61.02 31.85 55.63 32.05 50.59 33.91 Z" />
<path fill="#020202" opacity="1.00" d=" M 6.35 40.84 C 10.05 44.07 12.46 48.48 16.15 51.70 C 18.74 54.02 22.19 54.87 25.38 56.02 C 22.69 55.47 19.87 55.00 17.57 53.41 C 13.80 50.74 11.16 46.88 8.25 43.36 C 7.60 42.54 6.97 41.70 6.35 40.84 Z" />
<path fill="#020202" opacity="1.00" d=" M 184.10 42.81 C 183.63 40.99 186.67 40.79 187.37 42.04 C 187.94 43.97 184.59 44.69 184.10 42.81 Z" />
<path fill="#020202" opacity="1.00" d=" M 64.87 46.50 C 65.62 45.75 66.36 45.00 67.10 44.25 C 67.87 44.27 69.39 44.31 70.15 44.34 C 69.40 45.25 68.64 46.17 67.89 47.08 C 68.84 48.99 69.70 50.95 70.44 52.96 C 69.70 52.97 68.21 52.99 67.47 53.00 C 66.96 51.24 66.17 49.60 64.97 48.20 C 64.83 49.80 64.73 51.40 64.66 53.00 C 63.94 53.00 62.50 53.00 61.78 53.00 C 61.78 50.10 61.78 47.19 61.78 44.29 C 62.49 44.28 63.89 44.25 64.60 44.24 C 64.67 44.80 64.80 45.93 64.87 46.50 Z" />
<path fill="#020202" opacity="1.00" d=" M 73.47 44.57 C 76.53 43.13 80.53 45.66 80.01 49.14 C 79.81 52.57 75.37 54.12 72.72 52.31 C 69.75 50.74 70.20 45.53 73.47 44.57 M 74.27 50.69 C 75.26 50.66 76.24 50.54 77.21 50.34 C 76.88 48.85 77.31 46.80 75.45 46.24 C 73.37 46.63 73.36 49.21 74.27 50.69 Z" />
<path fill="#020202" opacity="1.00" d=" M 81.29 44.27 C 82.38 44.29 83.48 44.30 84.58 44.32 C 85.50 45.71 86.43 47.11 87.30 48.54 C 88.14 47.08 89.03 45.65 89.96 44.25 C 90.78 44.26 92.40 44.28 93.22 44.29 C 93.23 47.19 93.23 50.10 93.22 53.00 C 92.49 53.00 91.02 53.00 90.29 53.00 C 90.27 51.33 90.25 49.65 90.21 47.98 C 89.04 49.37 88.85 52.46 86.55 52.00 C 85.76 50.67 85.05 49.30 84.28 47.97 C 84.24 49.65 84.22 51.33 84.21 53.01 C 83.47 53.00 81.99 52.99 81.26 52.98 C 81.27 50.08 81.26 47.18 81.29 44.27 Z" />
<path fill="#020202" opacity="1.00" d=" M 115.00 44.27 C 115.70 44.26 117.08 44.24 117.77 44.22 C 118.02 45.53 118.31 46.82 118.63 48.11 C 118.30 49.73 118.03 51.36 117.83 53.00 C 117.12 53.00 115.71 53.00 115.00 53.00 C 115.00 50.09 115.00 47.18 115.00 44.27 Z" />
<path fill="#020202" opacity="1.00" d=" M 121.54 44.73 C 124.53 43.10 128.79 45.40 128.25 49.00 C 128.26 53.34 121.63 54.47 119.79 50.86 C 118.65 48.86 119.28 45.63 121.54 44.73 M 122.24 48.09 C 121.64 49.70 123.00 51.29 124.68 50.71 C 125.38 49.49 125.15 48.02 125.28 46.67 C 124.20 46.66 121.92 46.30 122.24 48.09 Z" />
<path fill="#020202" opacity="1.00" d=" M 136.99 49.06 C 136.45 45.32 141.11 42.95 144.09 44.86 C 145.82 45.72 145.83 47.81 146.27 49.43 C 144.32 49.04 141.31 50.43 140.30 48.03 C 141.11 47.90 142.71 47.63 143.51 47.50 C 142.84 47.05 142.14 46.64 141.42 46.28 C 139.75 46.88 140.25 48.70 140.10 50.07 C 141.77 50.70 143.55 50.77 145.32 50.78 C 144.82 55.16 136.98 52.92 136.99 49.06 Z" />
<path fill="#020202" opacity="1.00" d=" M 147.29 44.26 C 150.27 44.36 154.65 43.44 155.95 47.06 C 156.86 50.40 153.76 53.10 150.54 52.54 C 150.68 50.42 153.96 49.60 152.76 47.33 C 151.99 46.84 151.20 46.39 150.39 45.98 C 150.25 48.44 150.32 50.91 150.30 53.37 C 149.29 53.41 148.28 53.44 147.27 53.47 C 147.26 50.40 147.26 47.33 147.29 44.26 Z" />
<path fill="#020202" opacity="1.00" d=" M 157.28 44.30 C 158.26 44.29 159.24 44.28 160.22 44.26 C 160.23 47.18 160.24 50.09 160.22 53.00 C 159.48 53.00 158.00 52.99 157.26 52.99 C 157.26 50.10 157.26 47.20 157.28 44.30 Z" />
<path fill="#020202" opacity="1.00" d=" M 162.99 44.27 C 163.74 44.27 165.24 44.26 165.99 44.26 C 166.00 47.17 166.00 50.08 166.00 53.00 C 165.28 53.00 163.83 53.00 163.11 53.00 C 162.99 51.20 163.54 48.67 160.80 49.20 L 160.75 47.31 C 161.32 47.28 162.47 47.24 163.04 47.21 C 163.03 46.48 163.00 45.01 162.99 44.27 Z" />
<path fill="#020202" opacity="1.00" d=" M 209.43 44.58 C 212.46 43.13 216.47 45.59 216.01 49.05 C 215.89 52.53 211.39 54.15 208.72 52.31 C 205.76 50.74 206.19 45.56 209.43 44.58 M 209.96 49.98 C 210.20 51.55 212.22 50.19 213.21 50.35 C 213.09 49.54 212.85 47.93 212.73 47.12 C 210.94 44.87 208.76 48.15 209.96 49.98 Z" />
<path fill="#020202" opacity="1.00" d=" M 217.29 44.26 C 219.55 44.40 222.01 43.86 224.12 44.86 C 226.60 46.11 226.62 49.81 224.62 51.50 C 223.73 52.57 219.99 53.42 220.80 50.82 C 221.38 50.46 222.55 49.72 223.13 49.36 C 223.19 47.51 221.95 46.57 220.35 46.03 C 220.23 48.47 220.29 50.92 220.35 53.36 C 219.58 53.39 218.04 53.45 217.27 53.48 C 217.26 50.41 217.26 47.33 217.29 44.26 Z" />
<path fill="#020202" opacity="1.00" d=" M 94.77 44.27 C 97.66 44.27 100.54 44.27 103.43 44.26 C 103.40 47.17 103.40 50.09 103.41 53.00 C 102.70 53.00 101.30 53.00 100.60 53.00 C 100.59 50.81 100.59 48.63 100.56 46.44 C 99.62 46.44 98.67 46.44 97.73 46.45 C 97.73 48.63 97.73 50.81 97.74 53.00 C 97.00 53.00 95.52 53.00 94.78 53.00 C 94.78 50.09 94.77 47.18 94.77 44.27 Z" />
<path fill="#020202" opacity="1.00" d=" M 105.27 44.32 C 106.01 44.30 107.47 44.27 108.20 44.25 C 108.24 46.55 108.29 48.85 108.36 51.14 C 109.39 50.79 110.41 50.38 111.12 49.52 C 109.86 48.68 108.96 47.56 108.42 46.16 C 111.02 45.94 114.07 46.97 113.82 50.09 C 113.03 54.09 108.16 52.83 105.27 53.02 C 105.26 50.12 105.26 47.22 105.27 44.32 Z" />
<path fill="#020202" opacity="1.00" d=" M 128.80 44.27 C 131.34 44.27 133.88 44.27 136.42 44.26 L 136.44 46.19 C 132.55 45.90 134.78 50.70 134.21 53.01 C 133.47 53.00 131.99 52.98 131.25 52.98 C 131.26 50.81 131.27 48.65 131.28 46.49 C 130.65 46.46 129.38 46.41 128.75 46.38 L 128.80 44.27 Z" />
<path fill="#020202" opacity="1.00" d=" M 176.78 44.26 C 177.52 44.27 178.99 44.29 179.72 44.30 C 179.73 47.20 179.73 50.10 179.74 53.00 C 179.00 53.00 177.52 53.00 176.78 53.00 C 176.78 50.09 176.78 47.17 176.78 44.26 Z" />
<path fill="#020202" opacity="1.00" d=" M 181.58 44.25 C 182.31 44.26 183.79 44.28 184.52 44.28 L 184.29 46.34 C 185.16 45.65 186.03 44.97 186.90 44.28 C 187.67 44.28 189.22 44.27 190.00 44.26 C 190.00 47.18 190.00 50.09 190.00 53.00 C 189.26 53.00 187.77 53.00 187.03 53.00 C 187.01 50.93 186.97 48.87 186.88 46.80 C 185.09 48.43 184.01 50.52 184.27 53.00 C 183.60 53.00 182.26 53.00 181.59 53.00 C 181.59 50.08 181.59 47.17 181.58 44.25 Z" />
<path fill="#020202" opacity="1.00" d=" M 196.78 44.27 C 199.66 44.27 202.54 44.27 205.43 44.26 C 205.40 47.17 205.41 50.09 205.41 53.00 C 204.71 53.00 203.30 53.00 202.60 53.00 C 202.59 50.81 202.59 48.62 202.56 46.43 C 201.61 46.44 200.67 46.45 199.73 46.47 C 199.73 48.64 199.73 50.82 199.74 52.99 C 199.00 53.00 197.52 53.00 196.78 53.00 C 196.78 50.09 196.78 47.18 196.78 44.27 Z" />
<path fill="#020202" opacity="1.00" d=" M 226.58 44.26 C 229.12 44.27 231.66 44.27 234.21 44.27 L 234.23 46.19 C 230.29 45.75 232.58 50.70 231.99 53.00 C 231.24 53.00 229.75 53.00 229.01 53.00 C 229.00 50.79 228.99 48.58 228.98 46.37 C 228.37 46.40 227.16 46.45 226.56 46.47 L 226.58 44.26 Z" />
<path fill="#020202" opacity="1.00" d=" M 245.21 46.28 C 246.74 43.82 249.96 44.33 252.41 44.18 C 252.40 47.12 252.41 50.06 252.41 53.00 C 251.71 53.00 250.31 53.00 249.61 53.00 C 249.60 50.67 249.58 48.33 249.38 46.01 C 247.03 47.68 247.31 50.52 247.67 53.00 C 246.93 53.00 245.45 53.00 244.71 53.01 C 244.66 50.77 244.25 48.39 245.21 46.28 Z" />
</g>
<g id="#d1d2d4ff">
<path fill="#d1d2d4" opacity="1.00" d=" M 176.81 8.04 C 181.57 8.03 184.37 12.20 187.41 15.20 C 186.72 16.89 186.05 18.59 185.38 20.29 C 184.74 15.06 181.91 10.02 176.81 8.04 Z" />
<path fill="#d1d2d4" opacity="1.00" d=" M 13.43 32.50 C 17.92 25.80 23.52 18.75 31.80 16.86 C 32.33 17.21 33.38 17.90 33.91 18.24 C 32.93 22.20 30.52 25.53 27.49 28.19 C 27.29 28.33 26.90 28.61 26.70 28.75 C 23.77 30.81 21.01 33.11 18.08 35.17 L 16.76 35.84 C 17.10 35.00 17.79 33.31 18.13 32.47 C 16.56 32.48 14.99 32.49 13.43 32.50 Z" />
<path fill="#d1d2d4" opacity="1.00" d=" M 44.22 18.09 L 44.27 17.32 C 44.75 18.20 45.22 19.09 45.69 19.98 C 45.35 21.62 45.39 23.30 45.11 24.95 C 43.73 26.85 41.07 26.42 39.05 26.94 C 39.25 23.79 40.09 19.95 44.10 20.03 C 44.13 19.62 44.18 18.79 44.21 18.37 L 44.22 18.09 Z" />
<path fill="#d1d2d4" opacity="1.00" d=" M 57.98 19.96 C 60.33 17.77 64.07 17.86 66.80 19.21 C 68.12 20.86 68.45 23.08 69.21 25.01 C 69.64 24.48 70.52 23.41 70.95 22.87 C 71.39 26.60 68.66 29.19 65.94 31.22 C 60.72 31.04 55.20 31.10 50.59 33.91 C 44.88 37.33 40.86 42.83 36.96 48.09 C 33.68 51.23 29.72 54.18 24.91 53.68 C 24.75 52.91 24.58 52.13 24.41 51.35 C 23.40 51.11 22.39 50.86 21.39 50.62 C 21.48 50.35 21.68 49.80 21.78 49.52 C 23.79 49.60 25.80 49.30 27.74 48.78 C 29.57 47.63 31.27 46.27 32.82 44.77 C 36.66 40.74 39.91 36.20 43.30 31.79 C 44.67 30.07 46.17 28.45 47.79 26.96 C 48.99 25.88 50.23 24.83 51.37 23.68 C 51.93 23.86 53.05 24.23 53.61 24.41 C 55.02 22.88 56.39 21.31 57.98 19.96 Z" />
</g>
<g id="#44435bff">
<path fill="#44435b" opacity="1.00" d=" M 30.74 9.54 C 34.78 8.83 38.42 10.80 41.56 13.08 C 42.68 14.61 43.65 16.27 44.22 18.09 L 44.21 18.37 C 42.75 16.43 40.90 14.87 39.00 13.39 C 34.40 17.18 34.39 23.77 30.27 27.87 C 29.58 27.95 28.19 28.11 27.49 28.19 C 30.52 25.53 32.93 22.20 33.91 18.24 C 33.38 17.90 32.33 17.21 31.80 16.86 C 23.52 18.75 17.92 25.80 13.43 32.50 C 12.08 34.48 11.30 37.01 9.21 38.36 C 6.45 34.25 7.47 29.39 10.01 25.49 C 12.77 22.14 16.47 19.76 19.84 17.10 C 20.68 17.89 21.52 18.68 22.36 19.47 C 27.24 15.64 34.19 16.77 38.74 12.44 C 36.08 11.45 33.40 10.51 30.74 9.54 Z" />
</g>
<g id="#4d627eff">
<path fill="#4d627e" opacity="1.00" d=" M 28.92 10.52 C 29.38 10.28 30.29 9.78 30.74 9.54 C 33.40 10.51 36.08 11.45 38.74 12.44 C 34.19 16.77 27.24 15.64 22.36 19.47 C 21.52 18.68 20.68 17.89 19.84 17.10 C 22.81 14.83 25.80 12.58 28.92 10.52 Z" />
</g>
<g id="#e2e2e2ff">
<path fill="#e2e2e2" opacity="1.00" d=" M 63.25 9.67 C 67.55 12.81 70.52 17.49 70.95 22.87 C 70.52 23.41 69.64 24.48 69.21 25.01 C 68.45 23.08 68.12 20.86 66.80 19.21 C 64.07 17.86 60.33 17.77 57.98 19.96 C 56.39 21.31 55.02 22.88 53.61 24.41 C 53.05 24.23 51.93 23.86 51.37 23.68 C 54.50 19.29 58.96 16.28 63.52 13.54 C 63.43 12.25 63.33 10.96 63.25 9.67 Z" />
</g>
<g id="#b6bac2ff">
<path fill="#b6bac2" opacity="1.00" d=" M 124.21 9.99 C 124.73 10.19 125.77 10.57 126.30 10.76 C 126.80 13.08 127.26 15.42 127.64 17.77 C 130.52 18.22 133.45 18.27 136.36 18.47 L 136.49 19.14 C 132.47 18.89 128.45 18.87 124.43 18.78 C 124.41 15.85 124.31 12.92 124.21 9.99 Z" />
</g>
<g id="#4b5e7cff">
<path fill="#4b5e7c" opacity="1.00" d=" M 30.27 27.87 C 34.39 23.77 34.40 17.18 39.00 13.39 C 39.55 14.44 40.10 15.49 40.66 16.54 C 37.69 21.20 33.95 25.90 34.26 31.76 C 37.18 31.37 40.05 30.72 42.92 30.11 C 43.02 30.53 43.20 31.37 43.30 31.79 C 39.91 36.20 36.66 40.74 32.82 44.77 C 31.74 39.17 31.26 33.48 30.27 27.87 Z" />
</g>
<g id="#6d7e97ff">
<path fill="#6d7e97" opacity="1.00" d=" M 39.00 13.39 C 40.90 14.87 42.75 16.43 44.21 18.37 C 44.18 18.79 44.13 19.62 44.10 20.03 C 40.09 19.95 39.25 23.79 39.05 26.94 C 41.07 26.42 43.73 26.85 45.11 24.95 C 45.39 23.30 45.35 21.62 45.69 19.98 C 45.99 20.39 46.57 21.20 46.86 21.61 C 47.16 23.39 47.47 25.18 47.79 26.96 C 46.17 28.45 44.67 30.07 43.30 31.79 C 43.20 31.37 43.02 30.53 42.92 30.11 C 40.05 30.72 37.18 31.37 34.26 31.76 C 33.95 25.90 37.69 21.20 40.66 16.54 C 40.10 15.49 39.55 14.44 39.00 13.39 Z" />
</g>
<g id="#babec2ff">
<path fill="#babec2" opacity="1.00" d=" M 251.56 13.92 C 255.49 15.57 255.88 20.35 255.67 24.04 C 255.86 29.98 250.97 34.84 245.64 36.65 C 240.58 38.69 235.31 36.12 230.12 36.54 C 226.63 36.78 223.21 35.89 219.99 34.60 C 215.83 36.17 211.50 37.84 206.97 37.40 C 203.63 37.28 200.81 35.31 197.70 34.40 C 194.99 34.40 192.82 36.77 190.06 36.71 C 187.50 36.87 185.48 34.69 182.99 34.70 C 179.33 35.68 175.90 38.16 171.95 37.44 C 168.26 37.15 165.38 34.57 162.03 33.33 C 158.69 34.47 155.72 36.70 152.07 36.84 C 147.33 37.47 140.89 38.38 137.82 33.76 C 142.54 34.20 147.31 34.43 152.04 33.97 C 154.95 33.82 157.20 31.82 159.41 30.15 C 159.42 29.71 159.46 28.84 159.47 28.40 C 161.83 30.94 164.51 33.50 168.05 34.18 C 173.51 35.76 179.52 33.67 182.92 29.15 C 182.66 30.19 182.41 31.23 182.16 32.28 C 184.93 34.30 188.58 34.56 191.83 33.76 C 192.75 32.85 193.24 31.64 193.91 30.56 C 194.94 30.56 195.98 30.57 197.03 30.58 C 198.12 31.89 198.77 34.21 200.88 33.95 C 205.24 34.21 209.65 34.39 214.00 33.94 C 215.63 33.85 215.93 31.77 216.88 30.81 C 220.11 32.30 223.43 33.58 226.84 34.56 C 227.42 34.29 228.57 33.76 229.15 33.49 C 232.74 34.02 236.37 34.43 240.01 34.48 C 245.67 34.42 251.36 30.58 252.67 24.93 C 253.67 21.25 252.83 17.41 251.56 13.92 Z" />
</g>
<g id="#848686ff">
<path fill="#848686" opacity="1.00" d=" M 169.65 16.36 C 171.36 16.37 173.08 16.61 174.39 17.83 C 173.24 18.19 172.08 18.54 170.93 18.89 C 170.34 20.32 169.73 21.75 169.17 23.20 L 168.81 24.12 C 168.35 21.48 168.63 18.83 169.65 16.36 Z" />
<path fill="#848686" opacity="1.00" d=" M 50.59 33.91 C 55.63 32.05 61.02 31.85 66.33 31.79 C 61.94 35.85 55.77 36.57 50.75 39.55 C 45.59 42.25 41.25 46.17 36.56 49.55 L 36.96 48.09 C 40.86 42.83 44.88 37.33 50.59 33.91 Z" />
</g>
<g id="#707071ff">
<path fill="#707071" opacity="1.00" d=" M 89.01 16.78 C 89.91 16.84 91.71 16.94 92.61 17.00 C 92.42 19.06 91.29 20.23 89.19 20.15 C 89.14 19.31 89.05 17.63 89.01 16.78 Z" />
</g>
<g id="#707072ff">
<path fill="#707072" opacity="1.00" d=" M 216.01 16.81 C 216.92 16.85 218.73 16.94 219.63 16.99 C 219.39 19.06 218.23 20.23 216.13 20.12 C 216.10 19.29 216.04 17.64 216.01 16.81 Z" />
</g>
<g id="#d6d6d7ff">
<path fill="#d6d6d7" opacity="1.00" d=" M 170.93 18.89 C 172.08 18.54 173.24 18.19 174.39 17.83 C 174.27 20.06 175.05 22.70 173.56 24.60 C 172.29 26.35 169.05 25.52 169.17 23.20 C 169.73 21.75 170.34 20.32 170.93 18.89 Z" />
</g>
<g id="#c2c2c3ff">
<path fill="#c2c2c3" opacity="1.00" d=" M 100.63 24.54 C 100.83 23.65 101.03 22.77 101.22 21.88 C 101.78 26.03 102.62 31.11 106.73 33.24 C 110.41 34.99 114.88 35.17 118.66 33.64 C 121.35 32.60 122.59 29.80 124.50 27.84 C 128.39 27.68 132.28 27.91 136.17 27.73 C 136.19 28.44 136.21 29.87 136.23 30.59 C 132.94 30.98 129.65 31.32 126.36 31.55 C 123.57 34.42 120.29 37.32 116.08 37.54 C 112.48 38.15 109.23 36.29 106.14 34.75 C 103.29 35.98 100.18 37.22 97.09 36.00 C 93.39 34.61 89.67 36.09 86.00 36.69 C 83.73 37.20 82.04 35.55 80.69 34.00 C 84.07 34.13 88.73 35.09 89.86 30.79 C 93.66 32.08 97.78 35.44 101.90 33.70 C 103.18 30.65 102.33 27.23 100.63 24.54 Z" />
</g>
<g id="#525152ff">
<path fill="#525152" opacity="1.00" d=" M 228.09 25.80 C 226.35 25.52 227.24 22.09 228.79 22.61 C 229.46 23.53 229.37 25.46 228.09 25.80 Z" />
</g>
<g id="#b6b6b7ff">
<path fill="#b6b6b7" opacity="1.00" d=" M 6.35 40.84 C 4.36 35.73 5.44 28.86 10.01 25.49 C 7.47 29.39 6.45 34.25 9.21 38.36 C 11.30 37.01 12.08 34.48 13.43 32.50 C 14.99 32.49 16.56 32.48 18.13 32.47 C 17.79 33.31 17.10 35.00 16.76 35.84 L 18.08 35.17 C 16.35 36.60 14.69 38.12 13.24 39.83 C 11.28 39.33 9.32 38.82 7.37 38.32 C 7.11 38.95 6.61 40.21 6.35 40.84 Z" />
</g>
<g id="#384a6cff">
<path fill="#384a6c" opacity="1.00" d=" M 26.70 28.75 C 26.90 28.61 27.29 28.33 27.49 28.19 C 28.19 28.11 29.58 27.95 30.27 27.87 C 31.26 33.48 31.74 39.17 32.82 44.77 C 31.27 46.27 29.57 47.63 27.74 48.78 C 25.89 46.99 23.89 45.13 21.22 44.83 C 21.83 43.10 22.44 41.35 22.76 39.53 C 21.83 39.68 20.91 39.88 19.99 40.08 C 19.83 38.85 19.66 37.63 19.50 36.41 C 22.47 34.45 25.41 32.21 26.70 28.75 Z" />
</g>
<g id="#3b3a52ff">
<path fill="#3b3a52" opacity="1.00" d=" M 18.08 35.17 C 21.01 33.11 23.77 30.81 26.70 28.75 C 25.41 32.21 22.47 34.45 19.50 36.41 C 19.66 37.63 19.83 38.85 19.99 40.08 C 20.91 39.88 21.83 39.68 22.76 39.53 C 22.44 41.35 21.83 43.10 21.22 44.83 C 23.89 45.13 25.89 46.99 27.74 48.78 C 25.80 49.30 23.79 49.60 21.78 49.52 C 17.86 47.93 14.57 45.20 12.07 41.82 C 12.36 41.32 12.94 40.33 13.24 39.83 C 14.69 38.12 16.35 36.60 18.08 35.17 Z" />
</g>
<g id="#050505ff">
<path fill="#050505" opacity="1.00" d=" M 167.57 44.26 C 168.28 44.26 169.69 44.25 170.39 44.25 C 170.37 46.49 170.41 48.72 170.49 50.96 C 171.51 50.66 173.37 51.03 172.93 49.38 C 171.84 48.51 171.07 47.42 170.64 46.11 C 173.09 46.02 176.42 46.86 176.02 49.98 C 175.47 54.05 170.46 52.86 167.58 53.03 C 167.58 50.10 167.58 47.18 167.57 44.26 Z" />
</g>
<g id="#080808ff">
<path fill="#080808" opacity="1.00" d=" M 235.80 44.16 C 238.17 44.44 241.47 43.78 242.91 46.21 C 243.48 48.43 243.17 50.76 243.24 53.02 C 240.41 53.05 237.52 53.18 234.81 52.21 C 233.94 49.22 236.48 46.49 239.56 47.77 L 239.66 48.60 C 239.10 49.01 237.98 49.83 237.42 50.24 C 238.40 50.51 239.39 50.76 240.39 50.99 C 240.19 49.76 240.39 48.40 239.75 47.29 C 238.90 45.88 237.02 46.71 235.72 46.52 L 235.80 44.16 Z" />
</g>
</svg>
