<?xml version="1.0" encoding="utf-8"?>
<!-- Generator: Adobe Illustrator 26.0.1, SVG Export Plug-In . SVG Version: 6.00 Build 0)  -->
<svg version="1.1" id="Слой_1" xmlns="http://www.w3.org/2000/svg" xmlns:xlink="http://www.w3.org/1999/xlink" x="0px" y="0px"
	 viewBox="0 0 5120 1440" style="enable-background:new 0 0 5120 1440;" xml:space="preserve">
<style type="text/css">
	.st0{fill:#F7D70A;}
	.st1{fill:#A10304;}
</style>
<g>
	<path class="st0" d="M1495.06,547.93C1748.19,363.49,2002.09,180.28,2258.15,0c250.5,184.75,503.02,366.73,753.67,551.17
		c-93.23,296.96-197.25,590.53-289.25,887.8c-314.1,2.62-628.34,0-942.59-2.01C1687.07,1140,1592.45,843.5,1495.06,547.93
		 M1642.77,594.85c75.94,240.47,156.04,479.55,231.83,719.87c252.36-0.77,504.71,0.31,757.07,0
		c73.16-241.71,163.45-478.47,228.59-722.34c-202.5-144.01-403.62-290.17-602.57-439.12
		C2049.16,295.42,1848.98,449.3,1642.77,594.85z"/>
	<path class="st1" d="M1642.77,594.85c206.21-145.55,406.39-299.43,614.92-441.59c198.95,148.94,400.07,295.11,602.57,439.12
		c-65.13,243.87-155.43,480.64-228.59,722.34c-252.36,0.31-504.71-0.77-757.07,0C1798.81,1074.41,1718.71,835.32,1642.77,594.85
		 M2361.41,371.98c147.71,96.62,198.03,308.08,116.53,463.04c-105.57-86.13-196.64-188.3-296.04-281.22
		c47.08-41.21,95.85-81.5,131.35-133.51c-80.26-3.4-160.52-2.32-240.78-0.15c-59.27,59.11-123.48,112.98-180.59,174.26
		c39.67,43.22,79.33,86.13,120.08,128.26c30.87-28.71,61.74-57.73,92.3-86.74c81.96,93.84,174.57,178.12,256.99,271.34
		c8.33,33.65-36.27,21.92-56.03,27.47c-87.21,9.11-161.91-43.22-225.96-95.08c-48.62-32.26-89.37,55.41-137.83,10.96
		c-22.38,22.38-16.52,53.1-13.12,81.34c-42.6,43.22-89.83,82.42-126.56,131.04c2.01,22.07,10.96,42.75,17.29,63.75
		c16.82,2.62,33.49,5.09,50.32,7.72c44.91-45.07,89.52-90.45,136.75-133.05c12.81,8.49,25.93,16.36,39.36,23.92
		c21.45-2.16,28.71-25.93,41.67-39.67c98.94,97.08,251.12,92.61,373.52,48.31c66.68,8.64,90.91,117.3,167.93,114.37
		c47.08,4.94,91.84-58.19,59.58-98.01c-29.63-40.9-69.61-72.54-106.34-106.65c89.37-149.72,94.92-350.83-1.54-498.38
		c-67.29-100.94-190.77-144.01-307.61-145.86C2286.86,338.48,2331.93,347.9,2361.41,371.98z"/>
	<path class="st0" d="M2361.41,371.98c-29.48-24.08-74.55-33.49-88.75-72.54c116.84,1.85,240.32,44.91,307.61,145.86
		c96.47,147.56,90.91,348.67,1.54,498.38c36.73,34.11,76.71,65.75,106.34,106.65c32.26,39.82-12.5,102.95-59.58,98.01
		c-77.02,2.93-101.25-105.73-167.93-114.37c-122.4,44.3-274.58,48.77-373.52-48.31c-12.97,13.74-20.22,37.51-41.67,39.67
		c-13.43-7.56-26.55-15.43-39.36-23.92c-47.23,42.6-91.84,87.98-136.75,133.05c-16.82-2.62-33.49-5.09-50.32-7.72
		c-6.33-20.99-15.28-41.67-17.29-63.75c36.73-48.62,83.96-87.82,126.56-131.04c-3.4-28.25-9.26-58.96,13.12-81.34
		c48.46,44.45,89.21-43.22,137.83-10.96c64.05,51.86,138.76,104.18,225.96,95.08c19.76-5.56,64.36,6.17,56.03-27.47
		c-82.42-93.23-175.03-177.5-256.99-271.34c-30.56,29.02-61.43,58.03-92.3,86.74c-40.75-42.14-80.41-85.04-120.08-128.26
		c57.11-61.28,121.32-115.14,180.59-174.26c80.26-2.16,160.52-3.24,240.78,0.15c-35.5,52.01-84.27,92.3-131.35,133.51
		c99.4,92.92,190.46,195.09,296.04,281.22C2559.43,680.05,2509.12,468.6,2361.41,371.98z"/>
	<path class="st0" d="M936.33,1102.81c-0.62-201.42-2.62-402.84,1.23-604.27c119.46-1.54,238.93-2.01,358.39,0.15
		c41.52,43.06,84.74,84.43,125.95,127.8c-1.23,85.04,1.7,170.24-1.85,255.29c-57.26,0.46-114.53,0.31-171.79,1.39
		c45.69,47.08,92.92,92.61,139.07,139.22c-0.31,26.86-0.46,53.71-0.62,80.72c-45.69-1.08-92.3,4.63-137.21-4.32
		c-60.2-53.1-113.29-113.6-172.87-167.16c-0.46,56.49,0.15,113.14,0,169.63C1029.86,1102.81,983.09,1102.96,936.33,1102.81
		 M1076.94,637.45c-0.31,40.13-0.46,80.41-0.31,120.54c68.22-0.77,136.6-1.39,204.82-0.62c-0.31-39.98-0.62-79.95-1.08-119.77
		C1212.45,637.76,1144.69,638.38,1076.94,637.45z"/>
	<path class="st0" d="M3700.52,1103.11c-3.55-201.58-3.24-403.46,0-605.04c100.94-0.77,201.73-0.31,302.67-0.77
		c23.15,1.7,50.63-3.86,68.07,15.9c38.43,37.81,82.88,72.85,111.13,118.69c4.63,83.19,2.01,166.69,0.46,249.89
		c-57.26,0.46-114.37,0.15-171.48,0.93c45.22,47.54,92.76,93.07,137.99,140.61c-0.46,26.39-1.08,52.63-1.39,79.03
		c-53.1-4.94-121.47,22.07-160.98-25.47c-49.39-48.93-98.16-98.78-147.71-147.71c-0.15,57.88-0.31,115.76-0.77,173.64
		C3792.51,1103.58,3746.51,1103.58,3700.52,1103.11 M3839.27,637.76c-0.31,39.82-0.46,79.64-0.93,119.46
		c68.22-0.62,136.44-0.46,204.66-0.31c0.46-39.67,0.46-79.33,0-119C3975.1,637.76,3907.19,638.22,3839.27,637.76z"/>
	<path class="st0" d="M3129.59,588.52c28.25-23.31,50.01-57.88,84.74-71.46c104.34-2.32,209.29-2.47,313.63,0.31
		c33.65,13.74,56.8,45.22,84.74,67.91c-0.46,148.33,3.86,297.12-2.47,445.14c-18.52,27.16-42.14,52.48-70.38,69.76
		c-112.98,7.87-226.89,2.47-340.18,2.16c-22.69-23.31-46-45.84-69.15-68.53C3127.43,885.33,3129.44,736.85,3129.59,588.52
		 M3270.2,963.43c67.3-0.15,134.59-0.31,201.89-0.31c-1.08-108.35,1.39-216.7-0.46-325.21c-66.68,0-133.51-0.15-200.34,0.15
		C3268.04,746.57,3271.74,855.08,3270.2,963.43z"/>
</g>
</svg>
