<?xml version="1.0" encoding="UTF-8" ?>
<!DOCTYPE svg PUBLIC "-//W3C//DTD SVG 1.1//EN" "http://www.w3.org/Graphics/SVG/1.1/DTD/svg11.dtd">
<svg width="200pt" height="60pt" viewBox="0 0 200 60" version="1.1" xmlns="http://www.w3.org/2000/svg">
<g id="#ff559cff">
<path fill="#ff559c" opacity="1.00" d=" M 19.44 14.42 C 20.93 14.10 21.87 15.61 22.99 16.30 C 22.78 18.02 22.36 20.81 19.97 20.48 C 16.35 20.84 16.28 15.03 19.44 14.42 Z" />
</g>
<g id="#ffb383ff">
<path fill="#ffb383" opacity="1.00" d=" M 170.96 21.92 C 171.08 19.76 170.70 15.90 174.04 16.51 C 176.50 17.30 175.45 20.24 175.81 22.16 C 177.09 22.34 178.36 22.56 179.63 22.81 C 179.55 23.60 179.39 25.16 179.31 25.95 C 178.18 26.47 176.98 26.78 175.72 26.90 C 175.57 30.67 176.22 34.54 175.32 38.24 C 173.96 39.29 171.30 39.12 171.19 37.03 C 170.63 33.62 171.25 30.16 171.11 26.72 C 170.44 26.66 169.09 26.54 168.42 26.47 C 167.20 24.20 168.61 22.33 170.96 21.92 Z" />
</g>
<g id="#ff5498ff">
<path fill="#ff5498" opacity="1.00" d=" M 4.16 26.97 C 3.85 20.52 16.08 19.54 15.76 26.19 C 13.42 28.35 10.35 24.64 7.96 26.94 C 10.96 28.84 16.41 29.43 16.21 34.02 C 15.72 39.57 8.19 40.46 4.49 37.49 C 2.87 36.39 3.61 34.46 4.88 33.45 C 7.39 33.91 9.91 35.40 12.45 34.16 C 9.74 31.78 3.83 31.62 4.16 26.97 Z" />
</g>
<g id="#ff5c97ff">
<path fill="#ff5c97" opacity="1.00" d=" M 18.34 22.52 C 19.59 21.08 22.28 22.09 22.26 23.96 C 22.44 28.32 22.50 32.70 22.22 37.06 C 21.57 39.83 16.96 38.82 17.54 36.00 C 17.54 31.69 17.27 27.35 17.71 23.05 L 18.34 22.52 Z" />
</g>
<g id="#ff6496ff">
<path fill="#ff6496" opacity="1.00" d=" M 24.29 23.23 C 25.31 21.42 27.34 22.41 28.82 22.92 C 31.57 21.22 34.90 21.39 37.46 23.38 C 40.56 20.88 46.24 20.99 47.64 25.28 C 48.08 29.15 47.91 33.07 47.78 36.96 C 47.77 39.48 43.40 39.52 43.23 37.01 C 42.80 33.74 43.51 30.39 42.80 27.16 C 42.19 24.93 38.96 25.39 38.57 27.49 C 38.01 30.65 38.66 33.89 38.22 37.07 C 38.09 39.53 33.73 39.45 33.69 37.09 C 32.84 33.11 35.45 27.53 30.99 25.12 C 27.04 27.81 29.43 33.05 28.64 36.98 C 28.60 39.45 24.23 39.53 24.12 37.02 C 23.85 32.45 23.62 27.77 24.29 23.23 Z" />
</g>
<g id="#ff7494ff">
<path fill="#ff7494" opacity="1.00" d=" M 49.38 29.97 C 49.60 27.02 48.29 22.91 51.79 21.43 C 52.35 21.84 53.47 22.67 54.03 23.08 C 56.05 21.90 58.55 21.02 60.80 22.16 C 67.21 25.14 67.13 36.01 60.52 38.69 C 58.43 39.72 56.20 38.76 54.16 38.12 C 54.29 40.63 54.30 43.18 53.42 45.57 C 52.36 45.60 51.30 45.61 50.24 45.60 C 48.48 40.59 49.79 35.16 49.38 29.97 M 56.50 26.49 C 52.73 27.72 53.71 35.05 57.98 34.46 C 62.38 33.59 61.34 25.08 56.50 26.49 Z" />
</g>
<g id="#ff7f93ff">
<path fill="#ff7f93" opacity="1.00" d=" M 67.09 27.01 C 66.84 20.60 78.93 19.49 78.80 26.14 C 76.49 28.43 73.38 24.58 71.01 26.95 C 73.94 28.85 79.33 29.44 79.25 33.91 C 78.98 38.65 73.06 40.25 69.31 38.49 C 66.91 38.08 65.50 34.97 67.89 33.45 C 70.25 33.94 72.54 34.87 75.00 34.80 C 73.50 31.03 66.55 32.01 67.09 27.01 Z" />
</g>
<g id="#ff8c8fff">
<path fill="#ff8c8f" opacity="1.00" d=" M 84.37 22.49 C 89.18 19.78 95.73 23.39 96.01 28.89 C 97.29 34.49 91.99 40.65 86.16 38.92 C 78.80 37.38 77.84 25.72 84.37 22.49 M 86.12 26.82 C 83.47 29.25 84.79 35.27 88.96 34.45 C 93.54 32.69 91.14 24.04 86.12 26.82 Z" />
</g>
<g id="#ff998cff">
<path fill="#ff998c" opacity="1.00" d=" M 97.59 23.40 C 98.49 21.41 100.82 22.33 102.31 23.01 C 105.11 21.02 109.60 21.12 111.50 24.28 C 112.59 27.01 112.16 30.05 112.28 32.93 C 112.13 34.75 112.54 36.83 111.42 38.43 C 110.25 39.16 108.88 38.52 107.65 38.40 C 107.29 34.65 107.90 30.82 107.16 27.13 C 106.30 25.05 102.99 25.27 102.44 27.39 C 101.85 30.56 102.52 33.83 102.06 37.01 C 101.94 39.60 97.29 39.44 97.49 36.90 C 97.38 32.41 97.24 27.88 97.59 23.40 Z" />
</g>
<g id="#ffa389ff">
<path fill="#ffa389" opacity="1.00" d=" M 114.89 23.87 C 117.25 21.03 121.94 20.96 124.63 23.36 C 125.77 24.41 125.67 26.57 124.00 27.06 C 121.89 26.93 119.54 25.11 117.65 26.93 C 120.57 28.84 126.03 29.45 125.81 33.97 C 125.45 39.42 118.11 40.43 114.37 37.69 C 112.87 36.86 113.19 34.86 114.02 33.67 C 116.48 33.38 118.76 34.84 121.19 35.07 C 121.17 32.26 117.88 32.24 116.07 31.00 C 113.24 29.93 112.91 25.88 114.89 23.87 Z" />
</g>
<g id="#ffaf86ff">
<path fill="#ffaf86" opacity="1.00" d=" M 126.87 23.05 C 127.45 22.64 128.60 21.82 129.17 21.41 C 129.99 22.24 131.45 22.76 131.50 24.11 C 131.80 27.68 131.19 31.35 132.22 34.85 C 133.68 34.66 135.91 35.48 136.54 33.62 C 137.85 29.60 135.04 24.21 138.99 21.25 C 140.22 22.18 141.96 23.12 141.61 24.97 C 141.51 29.13 142.02 33.37 141.33 37.47 C 140.49 39.42 138.15 38.40 136.73 37.88 C 133.68 39.93 128.63 39.57 127.16 35.79 C 126.39 31.61 126.95 27.29 126.87 23.05 Z" />
</g>
<g id="#ffb584ff">
<path fill="#ffb584" opacity="1.00" d=" M 147.34 22.36 C 149.60 21.03 152.35 21.69 154.44 23.03 C 155.35 22.47 156.26 21.92 157.19 21.39 C 157.95 22.45 159.37 23.34 159.17 24.85 C 159.21 28.89 159.38 32.96 159.03 36.99 C 158.49 39.33 155.95 38.61 154.43 37.79 C 152.52 38.68 150.35 39.79 148.25 38.76 C 141.56 36.38 141.19 25.59 147.34 22.36 M 149.11 26.82 C 147.17 28.95 147.20 33.01 150.02 34.37 C 152.62 35.31 154.75 32.37 154.36 29.99 C 154.54 27.26 151.47 25.36 149.11 26.82 Z" />
</g>
<g id="#ffb983ff">
<path fill="#ffb983" opacity="1.00" d=" M 181.48 24.99 C 180.63 22.86 183.86 20.96 185.34 22.62 C 186.85 25.23 187.46 28.23 188.60 31.00 C 189.75 28.29 190.34 25.33 191.82 22.76 C 192.85 21.20 196.01 22.24 195.78 24.18 C 195.51 27.73 193.45 30.83 192.38 34.18 C 191.50 35.89 191.16 38.78 188.76 38.90 C 186.43 39.06 185.85 36.47 185.11 34.81 C 183.93 31.53 182.35 28.38 181.48 24.99 Z" />
</g>
<g id="#ffbf83ff">
<path fill="#ffbf83" opacity="1.00" d=" M 162.14 34.04 C 165.00 31.90 168.17 37.31 164.77 38.78 C 161.85 40.69 159.13 35.62 162.14 34.04 Z" />
</g>
</svg>
