<?xml version="1.0" encoding="utf-8"?>
<!-- Generator: Adobe Illustrator 23.1.0, SVG Export Plug-In . SVG Version: 6.00 Build 0)  -->
<svg xmlns="http://www.w3.org/2000/svg" width="229.97" height="87.47" viewBox="0 0 229.97 87.47">
	 viewBox="0 0 230 87.5" style="enable-background:new 0 0 230 87.5;" xml:space="preserve">
<style type="text/css">
	.st0{fill:#24243F;stroke:#000000;stroke-width:0.61;stroke-miterlimit:10;}
	.st1{fill:#CE5249;stroke:#000000;stroke-width:0.51;stroke-miterlimit:10;}
	.st2{fill:#EB6655;stroke:#000000;stroke-width:0.51;stroke-miterlimit:10;}
	.st3{fill:#E05A4F;stroke:#000000;stroke-width:0.51;stroke-miterlimit:10;}
	.st4{fill:#E0ECF3;stroke:#000000;stroke-width:0.71;stroke-miterlimit:10;}
	.st5{fill:#C3D8E0;}
	.st6{fill:#FFFFFF;}
	.st7{fill:#ED5145;stroke:#000000;stroke-width:0.41;stroke-miterlimit:10;}
	.st8{fill:none;stroke:#000000;stroke-width:0.29;stroke-miterlimit:10;}
	.st9{fill:#E0ECF3;}
	.st10{stroke:#000000;stroke-width:0.71;stroke-miterlimit:10;}
	.st11{fill:#24243F;stroke:#000000;stroke-width:0.41;stroke-miterlimit:10;}
	.st12{fill:#24243F;stroke:#000000;stroke-width:0.51;stroke-miterlimit:10;}
	.st13{fill:#121223;stroke:#000000;stroke-width:0.51;stroke-miterlimit:10;}
	.st14{fill:#3D3D8E;}
	.st15{fill:#DDCF6C;stroke:#000000;stroke-width:0.51;stroke-miterlimit:10;}
	.st16{fill:#DDCF6C;stroke:#000000;stroke-width:0.2;stroke-miterlimit:10;}
	.st17{fill:#565656;}
</style>
<g>
	<g>
		<path class="st0" d="M47.8,68.2c0,0,6.5,5.7,6.2,6.7C42.7,82,26.4,87.4,25,87.2c-4.5-8.4-5.1-12.9-5.1-12.9
			c-3.8,2.9-7.7,5.5-11.9,7.7c-2.7-4.7-3.5-14.4-2.9-14.7c1.8-0.6,3.5-1.4,4.9-2.6L47.8,68.2z"/>
		<g>
			<path class="st1" d="M23.4,72l6.4-1c0.7-0.1,1.5,0.3,1.3,1c-0.5,1.3-1,2.6-1.3,3.9c-0.3,1.3-0.5,2.6-0.7,3.9
				c-0.1,0.7-0.9,0.7-1.5,0.3l-4.9-3.6c-0.1-0.1-0.3-0.2-0.3-0.3s0.1-1.4,0.2-2.4c0.1-0.4,0.2-0.8,0.4-1.2C23,72.1,23.2,72,23.4,72z
				"/>
			<path class="st2" d="M18.6,71.4L14.4,68c-0.6-0.4-1.1-0.3-1.3,0.3c0,0-0.3,1.7-0.7,3s-1,3.1-1,3.1c-0.2,0.7,0.2,1.1,0.9,1.1
				l5.2-0.3c0.1,0,0.2,0,0.3-0.1l1-3.3C18.9,71.7,18.8,71.6,18.6,71.4z"/>
			<path class="st3" d="M17.4,74.6c-0.1,0.4,0.2,0.7,0.5,0.8c0,0,0,0,0,0c0.5,0.2,1,0.3,1.6,0.4l2,0.3c0.4,0.1,0.7-0.2,0.8-0.5
				c0,0,0,0,0,0c0,0,0.1-1.2,0.2-1.9c0.1-0.6,0.3-1.2,0.5-1.8c0.1-0.4-0.1-0.7-0.5-0.8c0,0,0,0,0,0L19,70.4
				c-0.4-0.1-0.7,0.2-0.8,0.5c0,0,0,0,0,0c-0.2,0.6-0.4,1.2-0.6,1.8C17.5,73.6,17.4,74.6,17.4,74.6z"/>
		</g>
		<g>
			<path class="st4" d="M51.8,65.2C42.1,74.4,26.2,72,26.2,72s-0.7,0-1.7-0.1c-4.3-0.3-15.6-2.2-20.3-11C-1.5,49.8,11,34.7,11,34.7
				l43.3-0.4c1,3.2,1.8,6.4,2.2,9.7C57.3,50.8,57.3,60,51.8,65.2z"/>
			<path class="st5" d="M51.8,65.2C42.1,74.4,26.2,72,26.2,72s-0.7,0-1.7-0.1h0.1c7-1.6,15.7-2.4,22.8-10.7s5.6-19.4,5.6-19.4
				l3.5,2.1C57.3,50.8,57.3,60,51.8,65.2z"/>
			<g>
				<g>
					<path class="st6" d="M4.4,45c-3,8.6,4.7,11.3,10.8,6.3c2.6-1.9,4.8-6.8,4.7-9.8c0,0-4.2-1.9-4.1-3.8s-6.6-1.2-6.6-1.2L4.4,45z"
						/>
					<path d="M4.5,45.2c-0.5,1.2-0.7,2.4-0.6,3.7C4,50,4.5,51.2,5.3,52.1c0.8,0.8,1.9,1.3,3.1,1.5c1.2,0.1,2.4,0,3.6-0.3
						c1.2-0.4,2.3-0.9,3.2-1.7c1-0.8,1.8-1.7,2.5-2.8c0.7-1,1.2-2.2,1.6-3.3c0.3-1.2,0.5-2.4,0.6-3.6l0.2,0.3c-1-0.5-2-1-2.9-1.7
						c-0.5-0.4-0.9-0.8-1.2-1.3c-0.2-0.3-0.3-0.6-0.3-1v-0.2c0-0.1,0-0.1-0.1-0.1l0,0c-0.4-0.2-0.8-0.4-1.2-0.4
						c-0.5-0.1-1-0.1-1.6-0.1H9.5L9.8,37c-0.9,1.3-1.8,2.7-2.7,4.1C6.1,42.4,5.3,43.7,4.5,45.2z M4.4,45c0.8-1.4,1.6-2.8,2.3-4.2
						s1.4-2.9,2.2-4.3l0.1-0.2h0.2c1.1-0.1,2.2-0.2,3.3-0.2c0.6,0,1.1,0.1,1.7,0.1c0.6,0.1,1.3,0.3,1.8,0.7c0.2,0.1,0.3,0.3,0.3,0.6
						c0.1,0.2,0.1,0.4,0,0.5c0,0.2,0.1,0.4,0.1,0.6c0.3,0.4,0.6,0.8,1,1.1c0.8,0.7,1.7,1.3,2.7,1.7l0.2,0.1v0.2
						c0,1.3-0.3,2.6-0.8,3.8c-0.4,1.2-1,2.3-1.6,3.4c-1.4,2.2-3.3,3.9-5.7,4.9c-1.2,0.5-2.6,0.7-3.9,0.6c-1.4-0.1-2.7-0.8-3.6-1.8
						C4,51.3,3.6,50,3.7,48.7C3.7,47.4,3.9,46.2,4.4,45z"/>
				</g>
				<ellipse transform="matrix(0.2607 -0.9654 0.9654 0.2607 -31.7033 43.325)" cx="12.4" cy="42.4" rx="2.8" ry="1.9"/>
			</g>
			<g>
				<g>
					<path class="st6" d="M26.2,41.9c0,0-5.5,9.8-0.4,14.6c3.2,2.9,7.7,4,11.8,2.8c2.3-0.8,4.3-3.7,5.7-5.8c1.2-1.8,1.8-3.8,1.9-5.9
						C45.6,39.5,45,41,45,41l-13-3.1C29,40.4,29.6,41.6,26.2,41.9z"/>
					<path d="M26.2,42c-0.8,1.9-1.5,3.8-1.9,5.8c-0.4,1.9-0.4,4,0.1,5.9c0.8,1.8,2.1,3.4,3.9,4.3c1.8,1,3.8,1.5,5.8,1.6
						c2,0,4.1-0.3,5.6-1.9c1.4-1.5,2.6-3.1,3.7-4.9c0.9-1.8,1.4-3.8,1.3-5.8l0.1-3.1v-2.7l0.1,0.1c0.1,0.1,0.3,0.1,0.5,0.1
						c0.1,0,0.2,0,0.2-0.1v-0.1l-0.7,0.3c-4.3-1-8.7-2-13-3.2l0.3-0.1c-0.9,0.8-1.8,1.6-2.7,2.5c-0.4,0.5-1,0.8-1.6,1
						C27.5,41.9,26.8,42,26.2,42z M26.2,41.9c0.6-0.1,1.2-0.3,1.8-0.5c0.5-0.3,1-0.7,1.3-1.1c0.4-0.5,0.8-1,1.2-1.5l1.3-1.3l0.1-0.1
						h0.2c4.3,0.9,8.7,1.9,13,3l-0.5,0.3c0-0.1,0.1-0.1,0.1-0.2l0.2-0.2c0.2-0.1,0.4,0,0.6,0.1c0.3,0.3,0.2,0.3,0.2,0.5
						s0,0.3,0.1,0.5v2.3c0,1-0.1,2.1-0.2,3.1c-0.1,2.1-0.7,4.2-1.8,6c-0.6,0.9-1.2,1.8-1.8,2.6c-0.6,0.8-1.3,1.6-2.1,2.4
						c-0.8,0.7-1.7,1.3-2.7,1.7c-1,0.3-2.1,0.5-3.1,0.5c-2.1,0.1-4.2-0.3-6.1-1.3c-1-0.5-1.9-1.1-2.7-1.9c-0.8-0.8-1.3-1.7-1.7-2.8
						c-0.6-2.1-0.6-4.3,0-6.3C24.3,45.5,25.2,43.6,26.2,41.9L26.2,41.9z"/>
				</g>
				<g>
					
						<ellipse transform="matrix(0.2401 -0.9708 0.9708 0.2401 -20.0774 69.0281)" class="st7" cx="34" cy="47.3" rx="8.2" ry="6.9"/>
					
						<ellipse transform="matrix(0.2401 -0.9708 0.9708 0.2401 -20.3942 68.2947)" class="st8" cx="33.4" cy="47.2" rx="4.1" ry="3.5"/>
					<ellipse transform="matrix(0.2401 -0.9708 0.9708 0.2401 -20.3942 68.2947)" cx="33.4" cy="47.2" rx="2.7" ry="2.2"/>
					<path d="M33.8,44.7l0.8-3.3l0.4,0.1l0,0c2.7,0.7,4.1,3.8,3.3,6.9s-3.6,5.2-6.2,4.6l0.1-0.5c2.5,0.5,4.9-1.2,5.7-4.1
						s-0.7-5.7-3-6.2l-0.7,2.8L33.8,44.7z"/>
				</g>
			</g>
			<path d="M31,72.6c-1.6,0.1-3.3-0.1-4.9-0.3c-0.6,0-1.1,0-1.7-0.1c-4.6-0.4-15.8-2.3-20.5-11.3C2.6,58.1,2.1,55,2.5,52
				c0.4-3,1.3-5.9,2.6-8.6c1.4-3.2,3.3-6.3,5.6-9l0.1-0.1h0.1l43.6-0.5l0.1,0.2c1,3.2,1.8,6.4,2.2,9.7c1,6.9,1,16.3-4.6,21.6
				c-5.1,4.9-11.8,6.5-16.6,6.9C34.1,72.5,32.5,72.6,31,72.6z M11,34.9c-2.1,2.7-3.9,5.7-5.3,8.8c-2.2,4.7-4.2,11.4-1.2,16.9
				c4.6,8.6,15.5,10.5,20,10.9c1,0.1,1.7,0.1,1.7,0.1l0,0c3,0.3,6.1,0.4,9.1,0.1c4.7-0.4,11.4-2.1,16.3-6.8l0.2,0.2L51.6,65
				c5.4-5.1,5.4-14.3,4.5-21.1c-0.4-3.2-1.1-6.3-2.1-9.4L11,34.9z"/>
			<path d="M15.1,56.1c0.2,0,0.4,0,0.6,0.1c0.8,0.4,1.4,1.1,1.7,2c0.6-0.5,1.4-0.8,2.2-0.9h0.2c1.3,0.2,2.1,1.7,3.3,3.3
				c0.3,0.4,0.7,0.8,1.1,1.2c0.3,0.3,1.1,1.1,1.6,1.1c0.1,0,0.2,0,0.2-0.1c0.3-0.2,0.1-0.7,0-0.8s-0.2-0.5,0-0.3
				c0.1,0,0.2,0,0.3,0.1c0.3,0.1,0.6,0.4,0.8,0.7c0,0.3,0,0.7-0.1,1c-0.5,0.6-1.1,1-1.9,1.1c-0.5,0.2-1,0.3-1.6,0.2
				c-0.5,0-0.9-0.1-1.3-0.2c-3.8-0.7-5.6-3-5.7-4.3c-0.6,0.7-2.6,1.2-5.4,0.2c-0.9-0.3-1.8-0.8-2.4-1.5c-0.5-0.5-0.8-1.3-0.8-2
				c0,0,0-0.7,0.3-0.9C8.4,56,8.7,56,8.9,56h0.2c0.7,0.1,0.3,0.2,0.1,0.5s-0.6,0.3-0.3,0.7s0.2,0.2,0.6,0.2c0.5,0,1.1-0.1,1.6-0.2
				c0.7-0.1,1.2-0.3,1.7-0.5C13.4,56.2,14.2,56,15.1,56.1z"/>
		</g>
		<g>
			<g>
				<path class="st9" d="M15.6,27.8c0,0-2.1-13,10.9-16.7c0.3-0.1,0.6-0.1,0.9-0.1l-0.1-0.1c-0.4-0.4-0.8-0.8-1.3-1
					c-0.5-0.2-1.1-0.3-1.7-0.2c-0.3,0-0.5,0.1-0.8,0.2l-0.8,0.2c-1.1,0.4-2.1,0.9-3.1,1.4c-1,0.6-1.9,1.3-2.6,2.1
					c-1.6,1.7-2.8,3.7-3.5,5.9C13.2,20.7,13,21.8,13,23c-0.1,1.2-0.1,2.3,0.1,3.5l0.1,0.9l0.1,0.5c0,0.2,0,0.3,0.1,0.4l0,0l2.3,0.9
					h0.3L15.6,27.8z"/>
				<path class="st5" d="M15.6,27.8l0.2,1.3h0.3c0.6,0,1.1-0.1,1.7-0.2c0.2-0.1,0.5-0.1,0.8-0.3c0.2-0.1,0.4-0.3,0.4-0.6
					c0-0.1,0-0.2-0.1-0.3c0-0.1-0.1-0.1-0.1-0.2s-0.1-0.1-0.1-0.2c-0.1-0.3-0.1-0.6,0-0.9c0.1-0.3,0.2-0.5,0.3-0.8
					c0.1-0.2,0.3-0.6,0.5-0.8c0.3-0.5,0.8-0.9,1.1-1.3c0.8-0.9,1.6-1.7,2.6-2.3c0.4-0.3,0.9-0.8,1.3-1.1c0.5-0.4,0.9-0.8,1.2-1.2
					c0.7-0.9,1.3-1.9,1.7-3c0.2-0.5,0.3-1.1,0.4-1.7c0.1-0.6,0.1-1.1-0.1-1.7c-0.1-0.2-0.2-0.6-0.3-0.8c-0.1-0.2-0.2-0.4-0.5-0.6
					c-0.3,0-0.6,0-0.9,0.1C13.5,14.7,15.6,27.8,15.6,27.8z"/>
				<path class="st10" d="M13.3,28.1c0-0.1-0.1-0.2-0.1-0.5l-0.1-0.4L13,26.3c-0.2-1.1-0.3-2.3-0.1-3.5c0.1-1.1,0.3-2.3,0.6-3.5
					c0.6-2.2,1.8-4.3,3.5-5.9c0.8-0.8,1.7-1.5,2.7-2.1c1-0.6,2-1,3.1-1.4l0.8-0.2c0.2-0.1,0.6-0.1,0.8-0.2c0.6-0.1,1.1,0,1.7,0.2
					c0.5,0.2,1,0.5,1.3,1l0.1,0.1h0.1c-0.4-0.5-0.9-0.9-1.4-1.2c-0.8-0.4-1.6-0.4-2.5-0.2c-13,3.7-10.9,16.7-10.9,16.7l0.4,1.6
					C13.2,28,13.2,28.1,13.3,28.1L13.3,28.1z"/>
				<path d="M27.9,11.5c0.1,0.2,0.2,0.6,0.3,0.8c0.1,0.6,0.1,1.1,0.1,1.7c-0.1,0.6-0.2,1.1-0.5,1.7c-0.4,1.1-1,2.1-1.7,3
					c-0.3,0.5-0.8,0.9-1.2,1.2c-0.5,0.3-0.9,0.8-1.3,1.1c-0.9,0.8-1.8,1.6-2.6,2.3c-0.4,0.4-0.8,0.9-1.1,1.3
					c-0.2,0.2-0.4,0.5-0.4,0.8c-0.1,0.2-0.2,0.5-0.3,0.8c-0.1,0.3-0.1,0.6,0,0.9c0,0.1,0.1,0.1,0.1,0.2s0.1,0.1,0.1,0.2
					c0.1,0.1,0.1,0.2,0.1,0.3c0,0.2-0.2,0.5-0.5,0.5c-0.2,0.1-0.5,0.2-0.8,0.3c-0.5,0.1-1.1,0.2-1.7,0.2h-0.4v0.1
					c1.9-0.1,4.1-0.5,3.2-1.8c-1.2-1.9,4.1-6.2,5.9-7.6c0.4-0.3,0.7-0.7,1-1.1c3-4.1,2.6-6.5,1.6-7.6h-0.1
					C27.5,11.1,27.8,11.3,27.9,11.5z"/>
			</g>
			<path class="st11" d="M65.8,14.1C52.5,8.1,39.5,3.2,25.2,0.3c-1.9-0.3-3.6,0.9-4,2.7c-2.8,13.5-2.7,16.2-6.5,26.9l0,0
				c14.5,3.3,28.7,8.1,42.3,14.1c3.1-10.3,4.7-12.7,10.3-25.4c0.9-1.6,0.3-3.6-1.3-4.4C65.9,14.1,65.8,14.1,65.8,14.1z"/>
			<path class="st12" d="M6.1,37c8.8,4.5,16,4.8,33.6,3.9c4.5-0.2,8.3-0.4,11.4-0.6L15.4,29.1c0,0-0.3-0.2-0.8-0.4
				c-2-1.1-7.5-3.7-11.3-2.1c-0.5,0.2-1,0.5-1.4,0.9C1.9,27.4-2.5,32.7,6.1,37z"/>
			<path class="st2" d="M17.3,23.4c-0.3-0.1-0.7,0.1-0.8,0.4c0,0,0,0,0,0l-2.1,6c0.3,0.1,0.5,0.3,0.8,0.5l31.6,10
				C51,40.1,54,40,56.3,40l0.9-3.1c0.1-0.4-0.1-0.7-0.4-0.9h-0.1C44,30.6,30.8,26.4,17.3,23.4z"/>
			<g>
				<path class="st4" d="M68.4,34c-0.4,0.3-1.1,0.5-1.6,0.8c-2.1,1.1-9.4,4.1-9.7,5.9c-0.1,0.4,0,0.7-0.2,0.9l-0.1,0.1
					c-0.1,0.1-0.2,0.1-0.3,0.1h-0.2c-0.3,0.1-0.7,0.1-1,0c-0.8-0.1-1.7-0.3-2.6-0.5c-1.5-0.3-3-0.6-4.5-0.7l0.7-3.3
					c0,0,4.7-14.7,19.4-14.1h1.3c1,0.1,1.9,0.5,2.6,1.2C73.8,26.1,75.3,29.6,68.4,34z"/>
				<path class="st5" d="M68.4,34.1c-0.4,0.3-1.1,0.4-1.6,0.8c-2.1,1.2-9.6,4-9.7,5.9c0,0.5,0,0.7-0.2,0.9l-0.1,0.1
					c-0.1,0.1-0.2,0.1-0.3,0.1h-0.2c-0.3,0.1-0.7,0.1-1,0c-0.8-0.1-1.7-0.3-2.6-0.5c0.4-2.9,2.2-5.5,5-7.7c-0.1,0.1-2.7,2.8-3,5.8
					c1.1-2.2,7.4-4.2,9.5-4.9c0.6-0.2,1.1-0.4,1.6-0.8c6.9-4.5,5.3-8,3.9-9.7c-0.4-0.5-1-0.8-1.6-1h1.3c1,0.1,1.9,0.5,2.6,1.2
					C73.8,26.2,75.3,29.7,68.4,34.1z"/>
				<path d="M52.7,41.3c-0.1-1.1,0.2-2.2,0.7-3.1c0.4-1,1-1.9,1.8-2.7c0.7-0.8,1.5-1.5,2.5-2.1c0.4-0.3,0.9-0.6,1.4-0.8
					c0.5-0.2,0.9-0.4,1.4-0.6c-0.4,0.4-0.8,0.7-1.2,1l-1.1,1c-0.8,0.7-1.5,1.5-2.1,2.1C54.6,37.6,53.5,39.4,52.7,41.3z"/>
				<path d="M55.8,42.3h-0.4c-0.9-0.1-1.8-0.3-2.7-0.6c-1.4-0.3-2.9-0.6-4.4-0.7h-0.4l0.7-3.8c0.9-2.7,2.4-5.2,4.2-7.4
					c1.7-2,3.7-3.7,6-5c2.9-1.5,6.1-2.1,9.4-2h1.4c1.1,0.1,2.1,0.5,2.8,1.3c1,1,1.5,2.4,1.3,3.8c-0.2,2.1-2,4.2-5.2,6.3l0,0
					c-0.3,0.2-0.6,0.3-0.9,0.4L67,35.1c-0.4,0.2-1.2,0.7-2.1,1.1c-1.6,0.7-3.2,1.5-4.8,2.5c-2.1,1.2-2.6,1.9-2.6,2.1v0.3
					c0,0.3,0,0.6-0.2,0.8L57.2,42l0,0c-0.1,0.1-0.2,0.1-0.4,0.2s-0.1,0-0.2,0.1C56.3,42.3,56.1,42.2,55.8,42.3z M48.8,40.3
					c1.4,0.1,2.8,0.4,4.1,0.7c0.8,0.3,1.7,0.5,2.6,0.6h1c0.1,0,0.1-0.1,0.2-0.1l0,0v-0.7c0.2-1.3,3.7-3.1,7.7-5
					c0.9-0.5,1.7-0.8,2.1-1c0.3-0.1,0.5-0.2,0.8-0.3c0.3-0.1,0.6-0.2,0.8-0.5c3-2,4.7-4,5-5.8c0.1-1.2-0.3-2.4-1.1-3.2
					c-0.6-0.6-1.4-1-2.3-1.1h-1.3c-6-0.2-10.9,2.1-14.9,6.8c-1.8,2.1-3.2,4.5-4.1,7.1L48.8,40.3z"/>
			</g>
			<path class="st13" d="M72.4,45.5c-2.5-2.7-5.9-4.4-9.6-4.6h-0.5c-6.8-0.3-24.5,1.7-37.4,1.5h-0.3C32,42.6,59,44,56.8,51.8
				C64.3,57.6,75.3,50,72.4,45.5z"/>
			<g>
				<path class="st14" d="M69.8,42.6c-2-1.2-4.2-2-6.6-2.1h-2.1c-3.2,0-7.8,0.3-13,0.5c-6.6,0.5-14,0.9-20.6,0.9h-2.6
					c-1.8,0-3.6-0.1-5.5-0.3c-1-0.1-2.1-0.2-3.1-0.5c-0.6-0.1-1.3-0.2-1.9-0.4c-9.2-2.6-14.1-5.9-14.1-9.4c0,0.2,0,0.3,0.1,0.5
					c0.4,2.1,2.2,4,5.3,5.6c6.3,3.2,12,4.3,21.7,4.3c3.1,0,6.8-0.1,12-0.3c3.6-0.1,6.6-0.4,9.4-0.5l2-0.1c3.7-0.3,7-0.5,9.5-0.5h1.1
					c2-0.1,3.9,0.2,5.8,0.9C68.1,41.6,69,42.1,69.8,42.6z"/>
				<path d="M1.7,27.4c-1,0.9-1.6,2.1-1.7,3.4C-0.4,34.2,3.7,38,14.3,41c0.6,0.2,1.3,0.4,1.9,0.5c1,0.2,2.1,0.4,3.1,0.4
					c1.7,0.1,3.5,0.2,5.5,0.3h2.6c11.7,0,26.4-1.5,33.6-1.5h2.1c3.6,0.2,7.1,1.8,9.5,4.6l0.1,0.1c0,0-1-2.8-5.3-4.6
					c-1.9-0.6-3.9-0.9-5.9-0.9h-1.1c-2.5,0-5.6,0.1-9.6,0.3c-3.1,0.2-6.9,0.3-11.4,0.6c-4.7,0.2-8.6,0.3-12,0.3
					c-9.5,0-15.1-1-21.6-4.3C-2.7,32.7,1.7,27.4,1.7,27.4L1.7,27.4z"/>
			</g>
		</g>
		<g>
			<path class="st15" d="M47.4,47.5c-0.6-0.1-1.2,0.1-1.7,0.6c-0.2-5.8-4.6-10.6-10.4-11.3c-6.3-0.7-12.1,4.2-12.8,11
				c-0.7,6.5,3.9,12.4,10.4,13.3c6,0.5,11.3-3.6,12.5-9.5c0.4,0.4,0.9,0.7,1.4,0.8c1.3,0.1,2.3-0.9,2.5-2.1c0.3-1.2-0.5-2.5-1.7-2.8
				C47.5,47.5,47.4,47.5,47.4,47.5z M33.1,58.8c-5.3-0.6-9.1-5.5-8.5-10.8c0,0,0,0,0,0c0.6-5.5,5.2-9.5,10.4-8.9
				c5.3,0.6,9.1,5.5,8.5,10.8c0,0,0,0,0,0c-0.3,5.3-4.8,9.3-10.1,9C33.3,58.8,33.2,58.8,33.1,58.8z"/>
			<g>
				<circle class="st16" cx="47.2" cy="50" r="0.9"/>
				<circle class="st16" cx="47.2" cy="51.3" r="0.7"/>
				<circle class="st16" cx="47.2" cy="52.7" r="0.7"/>
				<circle class="st16" cx="47.2" cy="54.2" r="0.7"/>
				<circle class="st16" cx="47.2" cy="55.5" r="0.7"/>
				<circle class="st16" cx="47.2" cy="57" r="0.7"/>
				<circle class="st16" cx="47.2" cy="58.4" r="0.7"/>
				<circle class="st16" cx="47.2" cy="59.8" r="0.7"/>
				<circle class="st16" cx="47.2" cy="61.2" r="0.7"/>
				<circle class="st16" cx="47.2" cy="62.7" r="0.7"/>
				<circle class="st16" cx="47.2" cy="64.1" r="0.7"/>
				<circle class="st16" cx="47.2" cy="65.4" r="0.7"/>
				<circle class="st16" cx="47.2" cy="66.9" r="0.7"/>
				<circle class="st16" cx="47.2" cy="68.3" r="0.7"/>
				<circle class="st16" cx="47.2" cy="69.8" r="0.7"/>
				<circle class="st16" cx="47.2" cy="71.1" r="0.7"/>
				<circle class="st16" cx="47.2" cy="72.6" r="0.7"/>
				<circle class="st16" cx="47.2" cy="74" r="0.7"/>
				<circle class="st16" cx="47.2" cy="75.3" r="0.7"/>
				<circle class="st16" cx="47.2" cy="76.8" r="0.7"/>
			</g>
		</g>
	</g>
	<g>
		<path class="st17" d="M87.9,63.7v8.9h-1.1v-4h-4.3v4.1h-1.1v-9h1.1v3.9h4.3v-3.9L87.9,63.7z"/>
		<path class="st17" d="M95.5,69.4c0,0.5-0.1,0.9-0.2,1.3c-0.1,0.4-0.4,0.7-0.6,1c-0.3,0.3-0.6,0.5-1,0.7c-0.7,0.3-1.6,0.3-2.3,0
			c-0.4-0.2-0.7-0.4-1-0.7c-0.3-0.3-0.5-0.6-0.6-1c-0.2-0.4-0.2-0.9-0.2-1.3c0-0.4,0.1-0.9,0.2-1.3c0.1-0.4,0.4-0.7,0.6-1
			c0.3-0.3,0.6-0.5,1-0.7c0.7-0.3,1.6-0.3,2.3,0c0.4,0.2,0.7,0.4,1,0.7c0.3,0.3,0.5,0.7,0.6,1C95.4,68.5,95.5,69,95.5,69.4z
			 M90.6,69.4c0,0.3,0,0.6,0.2,0.9c0.1,0.3,0.2,0.5,0.4,0.7c0.2,0.2,0.4,0.3,0.6,0.5c0.2,0.1,0.5,0.2,0.7,0.2c0.2,0,0.5-0.1,0.7-0.2
			c0.2-0.1,0.4-0.3,0.6-0.5c0.2-0.2,0.3-0.5,0.4-0.7c0.1-0.3,0.1-0.6,0.1-0.9c0-0.3,0-0.6-0.2-0.9c-0.1-0.3-0.3-0.5-0.4-0.7
			c-0.2-0.2-0.4-0.3-0.6-0.5c-0.2-0.1-0.5-0.2-0.7-0.2c-0.2,0-0.5,0.1-0.7,0.2c-0.2,0.1-0.4,0.3-0.6,0.5c-0.2,0.2-0.3,0.5-0.4,0.7
			C90.6,68.8,90.6,69.1,90.6,69.4z"/>
		<path class="st17" d="M100.8,69.3c0.2,0.1,0.3,0.2,0.5,0.3c0.1,0.1,0.3,0.3,0.3,0.5c0.1,0.2,0.2,0.5,0.2,0.7
			c0.1,1-0.7,1.8-1.6,1.8c-0.1,0-0.2,0-0.2,0h-3.1v-6.4h2.8c0.3,0,0.5,0,0.7,0.1c0.2,0.1,0.4,0.2,0.6,0.4c0.2,0.2,0.3,0.4,0.4,0.6
			c0.1,0.2,0.1,0.5,0.1,0.7c0,0.2,0,0.4-0.1,0.6c-0.1,0.1-0.2,0.3-0.3,0.4C101.1,69.1,101,69.2,100.8,69.3z M98,67.2v1.6h1.6
			c0.2,0,0.5-0.1,0.7-0.2c0.2-0.1,0.3-0.3,0.3-0.5c0-0.2-0.1-0.5-0.3-0.6c-0.2-0.2-0.4-0.3-0.7-0.2H98z M99.8,71.6
			c0.2,0,0.5-0.1,0.7-0.3c0.2-0.2,0.3-0.4,0.3-0.6c0-0.1,0-0.2-0.1-0.3c-0.1-0.1-0.1-0.2-0.2-0.3c-0.1-0.1-0.2-0.1-0.3-0.2
			c-0.1,0-0.2-0.1-0.4-0.1H98v1.7L99.8,71.6z"/>
		<path class="st17" d="M108.7,66.2v6.4h-1.1v-4.8l-3.3,4.8h-1.1v-6.4h1.1V71l3.3-4.8H108.7z"/>
		<path class="st17" d="M116,66.2v6.4h-1.1v-2.8h-3.3v2.8h-1.1v-6.4h1.1v2.6h3.3v-2.6H116z"/>
		<path class="st17" d="M118.9,72.6h-1v-6.4h1.1L118.9,72.6z M121.6,72.6l-2.7-3.3l2.4-3.1h1.2l-2.4,3l2.8,3.4H121.6z"/>
		<path class="st17" d="M129.1,66.2v6.4H128v-4.8l-3.3,4.8h-1.1v-6.4h1.1V71l3.3-4.8H129.1z"/>
		<path class="st17" d="M136.1,68.1l-2.8-4.4h1.3l2.1,3.4l2.1-3.4h1.3l-2.8,4.4l2.9,4.5H139l-2.2-3.5l-2.2,3.5h-1.4L136.1,68.1z"/>
		<path class="st17" d="M141.3,64.4c0-0.2,0.1-0.4,0.2-0.5c0.1-0.1,0.3-0.2,0.5-0.2c0.2,0,0.4,0.1,0.5,0.2c0.1,0.1,0.2,0.3,0.2,0.5
			c0,0.4-0.3,0.7-0.6,0.7c0,0,0,0-0.1,0c-0.2,0-0.3-0.1-0.5-0.2C141.3,64.8,141.3,64.6,141.3,64.4z M142.5,72.6h-1.1v-6.4h1.1V72.6z
			"/>
		<path class="st17" d="M146.7,66.2c0.3,0,0.7,0.1,1,0.2c0.3,0.1,0.5,0.3,0.8,0.5c0.4,0.4,0.7,1,0.7,1.6v4.3h-0.8l-0.3-0.7
			c-0.1,0.2-0.3,0.3-0.5,0.4c-0.2,0.1-0.4,0.2-0.6,0.3c-0.3,0.1-0.6,0.1-0.9,0.1c-0.3,0-0.6,0-0.9-0.1c-0.2-0.1-0.5-0.2-0.7-0.4
			c-0.2-0.2-0.3-0.4-0.4-0.6c-0.1-0.2-0.2-0.5-0.2-0.7c0-0.3,0.1-0.6,0.2-0.9c0.1-0.3,0.4-0.5,0.6-0.7c0.4-0.2,0.8-0.4,1.2-0.4
			c0.7-0.1,1.3-0.2,2-0.1v-0.4c0-0.3-0.1-0.6-0.4-0.9c-0.3-0.2-0.6-0.4-1-0.4c-0.6-0.1-1.2,0.3-1.3,0.9h-1.1c0-0.3,0.1-0.5,0.2-0.7
			c0.1-0.2,0.3-0.4,0.5-0.6c0.2-0.2,0.5-0.3,0.7-0.4C146,66.2,146.4,66.1,146.7,66.2z M146.1,71.7c0.3,0,0.5,0,0.8-0.1
			c0.2-0.1,0.4-0.2,0.6-0.3c0.2-0.1,0.3-0.3,0.4-0.5c0.1-0.2,0.1-0.3,0.1-0.5v-0.5c-0.5,0-1,0-1.5,0.1c-0.3,0-0.6,0.1-0.9,0.2
			c-0.2,0.1-0.3,0.2-0.4,0.4c-0.1,0.1-0.1,0.3-0.1,0.5c0,0.2,0.1,0.4,0.3,0.6C145.6,71.6,145.8,71.7,146.1,71.7z"/>
		<path class="st17" d="M156.4,69.4c0,0.5-0.1,0.9-0.2,1.3c-0.1,0.4-0.4,0.7-0.6,1c-0.3,0.3-0.6,0.5-1,0.7c-0.7,0.3-1.6,0.3-2.3,0
			c-0.4-0.2-0.7-0.4-1-0.7c-0.3-0.3-0.5-0.6-0.6-1c-0.2-0.4-0.2-0.9-0.2-1.3c0-0.4,0.1-0.9,0.2-1.3c0.1-0.4,0.4-0.7,0.6-1
			c0.3-0.3,0.6-0.5,1-0.7c0.7-0.3,1.6-0.3,2.3,0c0.4,0.2,0.7,0.4,1,0.7c0.3,0.3,0.5,0.7,0.6,1C156.3,68.5,156.4,69,156.4,69.4z
			 M151.5,69.4c0,0.3,0,0.6,0.2,0.9c0.1,0.3,0.2,0.5,0.4,0.7c0.2,0.2,0.4,0.4,0.6,0.5c0.5,0.2,1,0.2,1.4,0c0.2-0.1,0.4-0.3,0.6-0.5
			c0.2-0.2,0.3-0.5,0.4-0.7c0.1-0.3,0.2-0.6,0.2-0.9c0-0.3,0-0.6-0.2-0.9c-0.1-0.3-0.2-0.5-0.4-0.7c-0.2-0.2-0.4-0.4-0.6-0.5
			c-0.5-0.2-1-0.2-1.4,0c-0.2,0.1-0.4,0.3-0.6,0.5c-0.2,0.2-0.3,0.5-0.4,0.7C151.6,68.8,151.5,69.1,151.5,69.4z"/>
		<path class="st17" d="M164.2,66.2c0.3,0,0.6,0.1,0.8,0.2c0.3,0.1,0.5,0.3,0.7,0.5c0.2,0.3,0.4,0.6,0.5,0.9
			c0.1,0.4,0.2,0.7,0.2,1.1v3.8h-1.1v-3.9c0-0.4-0.1-0.9-0.4-1.2c-0.2-0.3-0.5-0.4-0.9-0.4c-0.4,0-0.7,0.2-0.9,0.4
			c-0.3,0.3-0.4,0.8-0.4,1.2v3.8h-1.1v-3.8c0-0.4-0.1-0.9-0.4-1.2c-0.2-0.3-0.6-0.4-0.9-0.4c-0.2,0-0.3,0-0.5,0.1
			c-0.2,0.1-0.3,0.2-0.4,0.3c-0.1,0.2-0.2,0.3-0.3,0.5c-0.1,0.2-0.1,0.4-0.1,0.7v3.8h-1.1v-6.4h0.8l0.3,0.7c0.1-0.1,0.2-0.3,0.4-0.4
			c0.2-0.1,0.3-0.2,0.5-0.3c0.2-0.1,0.5-0.1,0.7-0.1c0.3,0,0.6,0,0.9,0.2c0.2,0.1,0.4,0.2,0.5,0.4c0.2,0.2,0.3,0.4,0.4,0.6
			c0.1-0.2,0.3-0.4,0.5-0.6c0.2-0.2,0.4-0.3,0.6-0.4C163.6,66.2,163.9,66.2,164.2,66.2z"/>
		<path class="st17" d="M167.9,64.4c0-0.4,0.2-0.7,0.6-0.7c0.4,0,0.7,0.2,0.7,0.6c0,0.1,0,0.1,0,0.2c0,0.2-0.1,0.4-0.2,0.5
			c-0.3,0.3-0.7,0.3-1,0C168,64.8,167.9,64.6,167.9,64.4z M169.1,72.6h-1.1v-6.4h1.1V72.6z"/>
		<path class="st17" d="M179.4,66.2v6.4h-1.1v-4.8l-3.3,4.8H174v-6.4h1.1V71l3.3-4.8H179.4z"/>
		<path class="st17" d="M192.1,63.7h0.9v8.9h-1.1v-6.1l-2.8,6.1h-0.7l-2.8-6.1v6.1h-1.1v-8.9h0.9l3.3,7.2L192.1,63.7z"/>
		<path class="st17" d="M196.5,72.6h-1.1v-8.9h1.1V72.6z"/>
		<path class="st17" d="M201.8,72.7c-0.4,0-0.9-0.1-1.3-0.2c-0.4-0.2-0.7-0.4-1-0.7c-0.3-0.3-0.5-0.6-0.7-1
			c-0.2-0.4-0.2-0.8-0.2-1.3v-5.8h1.1v5.8c0,0.6,0.2,1.2,0.6,1.6c0.9,0.8,2.2,0.8,3.1,0c0.4-0.4,0.6-1,0.6-1.6v-5.8h1.1v5.8
			c0,0.4-0.1,0.9-0.2,1.3c-0.2,0.4-0.4,0.7-0.7,1c-0.3,0.3-0.6,0.5-1,0.7C202.8,72.6,202.3,72.7,201.8,72.7z"/>
		<path class="st17" d="M208.4,72.6h-1.1v-8.9h1.1V72.6z"/>
	</g>
</g>
<g>
	<path d="M88.8,51.1c1.2,0,2.1-0.3,2.8-0.8c0.7-0.6,1.1-1.2,1.3-1.9l4.4,0.3c-0.2,0.9-0.6,1.7-1.1,2.5c-0.5,0.8-1.1,1.5-1.8,2.1
		c-0.7,0.6-1.6,1.1-2.5,1.4s-2,0.5-3.1,0.5c-1.3,0-2.4-0.2-3.5-0.7c-1.1-0.5-2.1-1.1-2.9-2c-0.8-0.9-1.5-1.8-1.9-3
		c-0.5-1.1-0.7-2.4-0.7-3.7c0-1.3,0.2-2.5,0.7-3.7c0.5-1.1,1.1-2.1,1.9-3c0.8-0.9,1.8-1.5,2.9-2c1.1-0.5,2.3-0.7,3.5-0.7
		c1.1,0,2.1,0.2,3,0.5c0.9,0.4,1.7,0.8,2.5,1.4c0.7,0.6,1.3,1.3,1.8,2.1c0.5,0.8,0.8,1.6,1.1,2.5l-4.4,0.3c-0.1-0.4-0.3-0.7-0.5-1.1
		c-0.2-0.3-0.5-0.6-0.8-0.9c-0.3-0.3-0.7-0.5-1.2-0.6c-0.4-0.2-0.9-0.2-1.5-0.2c-0.7,0-1.3,0.1-1.9,0.4c-0.6,0.3-1.1,0.6-1.5,1.1
		c-0.4,0.5-0.8,1-1,1.7c-0.3,0.6-0.4,1.3-0.4,2.1s0.1,1.5,0.4,2.1c0.3,0.6,0.6,1.2,1,1.7c0.4,0.5,1,0.8,1.5,1.1
		C87.5,51,88.1,51.1,88.8,51.1z"/>
	<path d="M113,36.6v18.5h-4.3v-6.2h-2.2l-3.5,6.2h-4.7l4.3-7.2c-0.7-0.4-1.3-0.7-1.7-1.2c-0.4-0.4-0.8-1-1.2-1.7s-0.5-1.5-0.5-2.6
		c0-0.8,0.2-1.6,0.5-2.3c0.3-0.7,0.8-1.3,1.3-1.9c0.6-0.5,1.2-0.9,2-1.3s1.7-0.5,2.6-0.5H113z M108.7,44.8v-4.1h-3.1
		c-0.7,0-1.3,0.2-1.7,0.6c-0.4,0.4-0.6,0.9-0.6,1.5c0,0.6,0.2,1.1,0.6,1.5c0.4,0.4,1,0.6,1.7,0.6H108.7z"/>
	<path d="M133.8,45.8c0,1.3-0.2,2.6-0.7,3.7c-0.5,1.1-1.1,2.1-1.9,3c-0.8,0.8-1.8,1.5-2.9,2c-1.1,0.5-2.3,0.7-3.5,0.7
		c-1.3,0-2.4-0.2-3.5-0.7s-2.1-1.1-2.9-2c-0.8-0.9-1.5-1.8-1.9-3c-0.5-1.1-0.7-2.4-0.7-3.7c0-1.3,0.2-2.5,0.7-3.7
		c0.5-1.1,1.1-2.1,1.9-3c0.8-0.9,1.8-1.5,2.9-2c1.1-0.5,2.3-0.7,3.5-0.7c1.3,0,2.4,0.2,3.5,0.7c1.1,0.5,2.1,1.1,2.9,2
		c0.8,0.9,1.5,1.8,1.9,3S133.8,44.5,133.8,45.8z M129.5,45.8c0-0.8-0.1-1.5-0.4-2.1c-0.3-0.6-0.6-1.2-1-1.7c-0.4-0.5-1-0.8-1.5-1.1
		c-0.6-0.3-1.2-0.4-1.9-0.4s-1.3,0.1-1.9,0.4c-0.6,0.3-1.1,0.6-1.5,1.1c-0.4,0.5-0.8,1-1,1.7c-0.3,0.6-0.4,1.3-0.4,2.1
		s0.1,1.5,0.4,2.1c0.3,0.6,0.6,1.2,1,1.7c0.4,0.5,1,0.8,1.5,1.1s1.2,0.4,1.9,0.4s1.3-0.1,1.9-0.4s1.1-0.6,1.5-1.1s0.8-1,1-1.7
		C129.4,47.3,129.5,46.6,129.5,45.8z"/>
	<path d="M137.8,50.8c0.6,0,1.1,0.2,1.5,0.7c0.4,0.5,0.7,1,0.7,1.7c0,0.9-0.2,1.7-0.5,2.4s-0.6,1.2-1,1.6c-0.4,0.5-0.9,0.9-1.5,1.2
		l-0.7-1c0.2-0.1,0.4-0.3,0.6-0.5c0.2-0.2,0.3-0.4,0.5-0.6c0.2-0.3,0.3-0.5,0.4-0.9c-0.6,0-1.1-0.2-1.5-0.7s-0.7-1-0.7-1.5
		s0.2-1.1,0.7-1.5S137.2,50.8,137.8,50.8z"/>
	<path d="M157.5,51.1c1.2,0,2.1-0.3,2.8-0.8c0.7-0.6,1.1-1.2,1.3-1.9l4.4,0.3c-0.2,0.9-0.6,1.7-1.1,2.5c-0.5,0.8-1.1,1.5-1.8,2.1
		c-0.7,0.6-1.6,1.1-2.5,1.4c-0.9,0.4-2,0.5-3.1,0.5c-1.3,0-2.4-0.2-3.5-0.7s-2.1-1.1-2.9-2c-0.8-0.9-1.5-1.8-1.9-3
		c-0.5-1.1-0.7-2.4-0.7-3.7c0-1.3,0.2-2.5,0.7-3.7c0.5-1.1,1.1-2.1,1.9-3c0.8-0.9,1.8-1.5,2.9-2c1.1-0.5,2.3-0.7,3.5-0.7
		c1.1,0,2.1,0.2,3,0.5c0.9,0.4,1.7,0.8,2.5,1.4c0.7,0.6,1.3,1.3,1.8,2.1c0.5,0.8,0.8,1.6,1.1,2.5l-4.4,0.3c-0.1-0.4-0.3-0.7-0.5-1.1
		c-0.2-0.3-0.5-0.6-0.8-0.9c-0.3-0.3-0.7-0.5-1.2-0.6s-0.9-0.2-1.5-0.2c-0.7,0-1.3,0.1-1.9,0.4c-0.6,0.3-1.1,0.6-1.5,1.1
		c-0.4,0.5-0.8,1-1,1.7c-0.3,0.6-0.4,1.3-0.4,2.1s0.1,1.5,0.4,2.1c0.3,0.6,0.6,1.2,1,1.7c0.4,0.5,1,0.8,1.5,1.1
		S156.9,51.1,157.5,51.1z"/>
	<path d="M174.1,44.1h6c-0.1-0.4-0.3-0.9-0.6-1.3c-0.3-0.4-0.6-0.8-1-1.1c-0.4-0.3-0.8-0.6-1.3-0.8c-0.5-0.2-1.1-0.3-1.6-0.3
		c-1,0-1.9,0.2-2.5,0.7c-0.6,0.5-1.1,1.1-1.3,1.7l-4.4-0.3c0.2-0.8,0.6-1.6,1-2.4s1.1-1.4,1.8-2c0.7-0.6,1.5-1,2.4-1.4
		s1.9-0.5,3-0.5c1.3,0,2.4,0.2,3.5,0.7c1.1,0.5,2.1,1.1,2.9,2c0.8,0.9,1.5,1.8,1.9,3c0.5,1.1,0.7,2.4,0.7,3.7c0,1.3-0.2,2.6-0.7,3.7
		c-0.5,1.1-1.1,2.1-1.9,3c-0.8,0.8-1.8,1.5-2.9,2c-1.1,0.5-2.3,0.7-3.5,0.7c-1.1,0-2.2-0.2-3.1-0.5c-0.9-0.3-1.7-0.8-2.4-1.4
		c-0.7-0.6-1.3-1.2-1.8-2c-0.5-0.7-0.8-1.5-1-2.3l4.4-0.3c0.3,0.6,0.8,1.1,1.4,1.6s1.5,0.7,2.6,0.7c0.6,0,1.1-0.1,1.6-0.3
		s0.9-0.4,1.3-0.8c0.4-0.3,0.7-0.7,1-1.1c0.3-0.4,0.5-0.9,0.6-1.3h-6V44.1z"/>
	<path d="M194.5,36.6c1,0,1.8,0.2,2.6,0.5c0.8,0.3,1.5,0.8,2.1,1.3c0.6,0.6,1,1.2,1.4,2c0.3,0.8,0.5,1.6,0.5,2.5s-0.2,1.7-0.5,2.5
		c-0.3,0.8-0.8,1.4-1.4,2c-0.6,0.6-1.3,1-2.1,1.3c-0.8,0.3-1.7,0.5-2.6,0.5h-2.9v5.9h-4.3V36.6H194.5z M194.5,45.1
		c0.7,0,1.2-0.2,1.7-0.7c0.4-0.4,0.7-1,0.7-1.5c0-0.6-0.2-1.1-0.7-1.5c-0.4-0.4-1-0.7-1.7-0.7h-2.9v4.4H194.5z"/>
	<path d="M208,49.5h-3.8l-0.4-12.9h4.7L208,49.5z M208.2,53c0,0.6-0.2,1.1-0.7,1.5s-1,0.7-1.5,0.7s-1.1-0.2-1.5-0.7
		c-0.4-0.4-0.7-1-0.7-1.5s0.2-1.1,0.7-1.5c0.4-0.4,1-0.7,1.5-0.7s1.1,0.2,1.5,0.7S208.2,52.4,208.2,53z"/>
</g>
</svg>
