<?xml version="1.0" encoding="utf-8"?>
<!-- Generator: Adobe Illustrator 24.2.0, SVG Export Plug-In . SVG Version: 6.00 Build 0)  -->
<svg version="1.1" id="Слой_1" xmlns="http://www.w3.org/2000/svg" xmlns:xlink="http://www.w3.org/1999/xlink" x="0px" y="0px"
	 viewBox="0 0 250 75" style="enable-background:new 0 0 250 75;" xml:space="preserve">
<style type="text/css">
	.st0{clip-path:url(#SVGID_2_);fill:#555555;}
	.st1{clip-path:url(#SVGID_4_);fill:#1CAAD9;}
</style>
<g>
	<defs>
		<rect id="SVGID_1_" x="-0.01" y="11.53" width="250.01" height="51.59"/>
	</defs>
	<clipPath id="SVGID_2_">
		<use xlink:href="#SVGID_1_"  style="overflow:visible;"/>
	</clipPath>
	<path class="st0" d="M75.34,27.43c-3.18,0-4.72,1.08-4.72,3.13c0,0.91,0.34,1.65,1.14,2.16c0.8,0.45,2.61,1.19,5.51,2.1
		c2.84,0.91,4.89,1.99,6.02,3.13c1.19,1.19,1.76,3.01,1.76,5.4c0,3.13-0.97,5.45-2.84,7.05c-1.88,1.59-4.32,2.39-7.39,2.39
		c-2.22,0-5-0.34-8.3-1.02l-1.53-0.34l0.63-4.6c3.86,0.51,6.82,0.8,8.86,0.8c3.07,0,4.6-1.31,4.6-3.86c0-0.91-0.34-1.65-1.08-2.16
		c-0.68-0.51-2.1-1.08-4.2-1.7c-3.35-0.91-5.74-2.05-7.1-3.41c-1.36-1.31-2.05-3.13-2.05-5.45c0-2.95,0.91-5.17,2.67-6.59
		c1.82-1.48,4.26-2.16,7.39-2.16c2.16,0,4.89,0.28,8.18,0.85l1.53,0.28l-0.45,4.72C79.88,27.66,76.98,27.43,75.34,27.43z"/>
	<polygon class="st0" points="95.17,52.26 89.31,52.26 89.31,21.87 95.17,21.87 95.17,39.14 97.38,38.74 101.64,30.56 108.18,30.56 
		102.55,40.84 108.46,52.26 101.93,52.26 97.55,43.8 95.17,44.2 	"/>
	<path class="st0" d="M123.52,39.48c0-1.76-0.28-2.95-0.8-3.64c-0.57-0.68-1.53-1.02-2.9-1.02c-1.36,0-2.33,0.34-2.9,1.08
		c-0.57,0.68-0.85,1.88-0.91,3.58H123.52z M117.15,46.75c0.63,0.62,1.65,0.91,2.9,0.91c2.67,0,5.11-0.06,7.22-0.28l1.19-0.11
		l0.11,4.32c-3.35,0.8-6.36,1.19-9.03,1.19c-3.3,0-5.63-0.85-7.1-2.61c-1.48-1.7-2.22-4.55-2.22-8.47c0-7.73,3.18-11.65,9.55-11.65
		c6.31,0,9.49,3.3,9.49,9.83l-0.45,4.03h-12.73C116.08,45.22,116.47,46.19,117.15,46.75z"/>
	<path class="st0" d="M145.45,35.5h-5.34v8.92c0,0.85,0,1.48,0.06,1.82c0.06,0.4,0.23,0.68,0.45,0.97c0.28,0.23,0.74,0.4,1.31,0.4
		l3.3-0.11l0.23,4.66c-1.93,0.4-3.41,0.63-4.38,0.63c-2.61,0-4.43-0.57-5.34-1.76c-0.97-1.14-1.48-3.3-1.48-6.48V35.5h-2.56v-4.94
		h2.56v-6.02h5.85v6.02h5.34V35.5z"/>
	<path class="st0" d="M157.33,30.05c1.48,0,3.41,0.23,5.8,0.68l1.14,0.28l-0.17,4.6c-2.27-0.23-3.98-0.34-5.06-0.34
		c-1.99,0-3.35,0.4-3.98,1.25c-0.68,0.85-0.97,2.5-0.97,4.83c0,2.39,0.28,4.03,0.97,4.89c0.63,0.91,1.99,1.36,4.03,1.36l5-0.4
		l0.17,4.66c-3.07,0.63-5.45,0.91-7.05,0.91c-3.24,0-5.51-0.91-6.93-2.73c-1.42-1.76-2.1-4.66-2.1-8.69c0-3.98,0.74-6.88,2.16-8.64
		C151.76,30.96,154.09,30.05,157.33,30.05z"/>
	<path class="st0" d="M174.37,52.26h-5.8v-30.4h5.8v9.72c1.99-1.02,3.81-1.53,5.4-1.53c2.9,0,4.89,0.85,5.97,2.56
		c1.08,1.7,1.65,4.32,1.65,7.9v11.76h-5.8V40.62c0-1.82-0.23-3.18-0.68-4.03c-0.4-0.91-1.25-1.31-2.56-1.31
		c-1.14,0-2.27,0.17-3.41,0.51l-0.57,0.17V52.26z"/>
	<path class="st0" d="M199.43,35.5v16.76h-5.85V35.5h-2.33v-4.94h2.33v-0.97c0-3.13,0.45-5.28,1.42-6.42
		c0.91-1.19,2.56-1.82,4.94-1.82c1.02,0,2.39,0.17,4.03,0.45l0.91,0.11l-0.11,4.72c-1.25-0.06-2.33-0.06-3.18-0.06
		c-0.85,0-1.48,0.23-1.76,0.68c-0.28,0.45-0.4,1.25-0.4,2.39v0.91h5.23v4.94H199.43z"/>
	<path class="st0" d="M214.89,43.06c-1.59,0.17-2.39,1.02-2.39,2.61c0,1.59,0.68,2.39,2.1,2.39c1.08,0,2.27-0.17,3.58-0.51
		l0.68-0.17v-4.66L214.89,43.06z M224.66,37.32v9.03c0.06,0.68,0.17,1.19,0.34,1.48c0.17,0.28,0.57,0.45,1.08,0.57l-0.17,4.38
		c-1.48,0-2.61-0.11-3.52-0.28c-0.91-0.23-1.76-0.63-2.67-1.25c-2.1,1.02-4.2,1.53-6.36,1.53c-4.49,0-6.76-2.39-6.76-7.1
		c0-2.33,0.63-3.98,1.88-4.94s3.18-1.53,5.74-1.7l4.66-0.34v-1.36c0-0.85-0.23-1.48-0.63-1.82c-0.4-0.34-1.08-0.51-1.93-0.51
		l-8.18,0.34l-0.17-4.03c3.13-0.85,6.02-1.25,8.81-1.25c2.84,0,4.83,0.57,6.08,1.76C224.03,32.95,224.66,34.82,224.66,37.32z"/>
	<path class="st0" d="M238.69,47.61c1.93,0,3.24-0.51,3.86-1.42c0.68-0.97,1.02-2.67,1.02-5.06c0-3.92-1.19-5.85-3.64-5.85
		c-1.19,0-2.27,0.11-3.3,0.4l-0.63,0.17v11.53C237.39,47.55,238.24,47.61,238.69,47.61z M240.74,30.05c3.01,0,5.23,0.85,6.65,2.5
		c1.42,1.65,2.1,4.66,2.1,8.92s-0.8,7.22-2.44,8.86c-1.59,1.65-4.43,2.44-8.35,2.44c-1.25,0-3.52-0.11-6.82-0.4l-1.65-0.23V21.87
		h5.8v9.38C237.9,30.45,239.43,30.05,240.74,30.05z"/>
</g>
<g>
	<defs>
		<rect id="SVGID_3_" x="-0.01" y="11.53" width="51.71" height="51.59"/>
	</defs>
	<clipPath id="SVGID_4_">
		<use xlink:href="#SVGID_3_"  style="overflow:visible;"/>
	</clipPath>
	<path class="st1" d="M38.74,46.24l-11.14,6.42V39.31l11.14-6.02V46.24z M25.56,36.18L12.38,29.2l13.18-7.56l13.13,7.56L25.56,36.18
		z M23.57,52.66l-11.14-6.48V33.23l11.14,6.02V52.66z M25.79,11.41c-14.26,0-25.8,11.59-25.8,25.85s11.53,25.85,25.8,25.85
		s25.85-11.59,25.85-25.85S40.05,11.41,25.79,11.41z"/>
</g>
</svg>
