<?xml version="1.0" encoding="UTF-8" ?>
<!DOCTYPE svg PUBLIC "-//W3C//DTD SVG 1.1//EN" "http://www.w3.org/Graphics/SVG/1.1/DTD/svg11.dtd">
<svg width="734pt" height="148pt" viewBox="0 0 734 148" version="1.1" xmlns="http://www.w3.org/2000/svg">
<g id="#262a2bff">
</g>
<g id="#ff751aff">
<path fill="#ff751a" opacity="1.00" d=" M 69.73 20.73 C 70.62 19.90 71.60 18.89 72.95 19.04 C 77.62 18.97 82.32 18.85 86.99 19.14 C 87.14 19.61 87.45 20.55 87.61 21.02 C 72.50 37.01 56.44 52.13 41.31 68.11 C 43.39 71.47 46.45 73.98 49.17 76.77 C 56.80 84.49 64.53 92.11 72.16 99.83 C 74.45 102.04 76.78 104.25 78.63 106.87 C 75.72 109.62 73.37 113.06 69.96 115.24 C 68.68 114.98 67.86 113.86 66.92 113.06 C 52.69 98.64 38.26 84.41 24.04 69.99 C 22.60 69.07 22.99 67.19 24.23 66.29 C 39.38 51.09 54.58 35.93 69.73 20.73 Z" />
<path fill="#ff751a" opacity="1.00" d=" M 94.34 27.23 C 95.49 25.98 96.71 27.75 97.58 28.40 C 112.03 42.97 126.59 57.44 140.99 72.05 C 142.44 72.95 141.99 74.80 140.79 75.69 C 126.45 90.05 112.07 104.37 97.77 118.77 C 96.22 120.27 94.83 122.00 92.95 123.10 C 88.64 123.41 84.31 123.29 80.00 123.20 C 78.32 123.59 76.13 121.63 77.96 120.24 C 92.69 105.22 107.68 90.44 122.44 75.44 C 124.57 73.98 122.63 71.83 121.33 70.61 C 110.29 59.66 99.32 48.63 88.29 37.67 C 87.54 36.82 85.86 35.51 87.21 34.38 C 89.42 31.84 91.74 29.36 94.34 27.23 Z" />
<path fill="#ff751a" opacity="1.00" d=" M 77.12 50.03 C 78.60 47.55 78.23 44.47 79.59 41.93 C 87.10 48.74 89.99 59.09 90.62 68.90 C 90.97 72.36 90.53 76.03 91.96 79.30 C 94.38 79.34 95.26 76.76 95.86 74.85 C 97.28 70.15 96.34 65.25 96.00 60.48 C 99.01 63.48 99.91 67.87 100.62 71.90 C 102.00 80.67 96.55 90.42 87.74 92.71 C 80.42 94.98 71.94 91.35 68.32 84.64 C 64.09 77.27 64.72 67.45 69.47 60.46 C 71.78 56.81 74.92 53.76 77.12 50.03 Z" />
</g>
<g id="#e8e6e3ff">
<path fill="#e8e6e3" opacity="1.00" d=" M 170.64 46.65 C 178.02 41.87 188.65 43.35 194.59 49.82 C 193.66 50.88 192.66 53.70 190.84 52.31 C 186.45 48.90 180.48 46.96 175.12 49.23 C 169.50 51.05 166.85 59.38 171.47 63.54 C 177.66 68.82 187.15 68.13 192.78 74.31 C 198.36 81.19 195.04 92.43 187.58 96.58 C 179.14 101.28 168.03 98.69 161.76 91.54 C 162.65 90.35 163.60 89.20 164.82 88.33 C 169.07 92.52 174.82 95.48 180.95 94.24 C 188.33 93.82 193.48 84.88 189.69 78.43 C 184.23 71.72 173.80 73.28 167.91 67.08 C 162.26 61.38 164.01 50.83 170.64 46.65 Z" />
<path fill="#e8e6e3" opacity="1.00" d=" M 222.25 44.29 C 230.83 42.56 240.69 44.59 246.70 51.29 C 253.30 58.39 254.92 68.89 253.13 78.15 C 251.87 84.91 248.00 91.32 242.08 94.97 C 231.60 101.60 216.03 99.75 208.28 89.75 C 202.07 81.74 201.07 70.53 203.97 61.04 C 206.48 52.67 213.64 45.96 222.25 44.29 M 221.42 48.58 C 217.04 49.90 213.09 52.74 210.69 56.67 C 206.92 62.37 206.53 69.53 207.21 76.14 C 207.96 82.51 211.32 88.75 216.94 92.06 C 224.44 96.43 234.68 95.97 241.52 90.51 C 247.17 85.80 249.27 78.12 249.25 71.01 C 249.11 64.64 247.45 57.82 242.70 53.27 C 237.27 47.73 228.66 46.59 221.42 48.58 Z" />
<path fill="#e8e6e3" opacity="1.00" d=" M 262.75 44.52 C 264.49 44.50 266.24 44.49 267.99 44.49 C 268.02 55.66 267.99 66.83 268.00 78.00 C 267.97 82.69 269.53 87.66 273.23 90.75 C 279.01 95.83 288.79 95.75 294.22 90.16 C 297.59 86.70 298.80 81.74 298.75 77.03 C 298.76 66.18 298.74 55.34 298.75 44.50 C 300.43 44.49 302.12 44.50 303.81 44.53 C 303.82 55.36 303.80 66.19 303.83 77.03 C 303.95 83.05 301.96 89.31 297.56 93.56 C 290.37 100.40 278.15 100.74 270.39 94.68 C 265.35 90.73 262.89 84.25 262.80 77.98 C 262.68 66.82 262.79 55.67 262.75 44.52 Z" />
<path fill="#e8e6e3" opacity="1.00" d=" M 365.35 48.23 C 375.30 41.65 389.96 42.09 398.66 50.66 C 397.86 51.79 396.98 52.85 396.03 53.84 C 393.56 52.27 391.07 50.73 388.38 49.59 C 388.29 49.16 388.11 48.30 388.02 47.86 C 387.93 48.23 387.76 48.97 387.68 49.34 C 381.15 47.70 373.67 48.00 368.07 52.10 C 361.66 56.45 358.97 64.57 359.22 72.05 C 359.23 79.38 362.17 87.32 368.70 91.23 C 377.26 96.49 389.00 94.68 396.11 87.76 C 397.16 88.63 398.17 89.57 399.13 90.56 C 389.19 101.86 368.66 101.91 359.61 89.47 C 350.85 77.09 352.44 57.23 365.35 48.23 Z" />
<path fill="#e8e6e3" opacity="1.00" d=" M 510.50 44.62 C 518.73 42.71 527.96 43.99 534.75 49.25 C 547.95 58.92 548.68 80.82 536.80 91.83 C 525.80 101.98 506.21 101.12 496.64 89.40 C 487.46 78.11 488.55 59.27 500.00 49.90 C 503.04 47.38 506.64 45.52 510.50 44.62 M 513.54 52.76 C 510.68 53.40 507.97 54.80 505.92 56.90 C 499.75 63.20 499.51 73.57 502.81 81.33 C 507.31 91.66 522.92 93.28 530.29 85.25 C 536.13 78.08 536.42 67.12 531.69 59.30 C 528.05 53.26 520.11 51.23 513.54 52.76 Z" />
<path fill="#e8e6e3" opacity="1.00" d=" M 611.84 45.62 C 622.07 41.88 634.54 43.08 642.87 50.52 C 641.33 52.52 640.48 55.35 638.14 56.57 C 635.17 56.14 632.88 53.86 629.98 53.14 C 623.97 51.48 616.89 51.78 611.87 55.84 C 607.23 59.66 605.50 65.96 605.60 71.77 C 605.56 78.07 608.14 84.88 613.77 88.21 C 619.81 92.03 627.57 91.32 633.95 88.77 C 634.02 84.68 634.00 80.59 633.98 76.50 C 631.35 76.36 628.54 76.93 626.04 75.98 C 624.48 73.96 625.53 71.11 625.23 68.75 C 631.24 68.75 637.24 68.75 643.25 68.75 C 643.26 76.85 643.22 84.95 643.27 93.06 C 636.24 97.97 627.32 99.41 618.92 98.48 C 611.82 97.72 604.92 94.09 600.78 88.19 C 595.23 80.73 594.21 70.58 596.77 61.80 C 598.94 54.45 604.61 48.24 611.84 45.62 Z" />
<path fill="#e8e6e3" opacity="1.00" d=" M 314.75 44.50 C 323.29 45.03 332.38 42.98 340.43 46.64 C 347.58 49.73 349.28 59.43 345.89 65.86 C 343.48 70.46 338.52 72.97 333.62 74.00 C 339.98 82.15 346.58 90.10 352.90 98.27 C 350.89 98.24 348.89 98.22 346.90 98.13 C 341.10 90.90 335.41 83.59 329.65 76.33 C 328.20 74.14 325.30 74.68 323.06 74.34 C 323.33 73.14 322.99 71.67 323.82 70.68 C 328.78 70.15 334.34 70.74 338.54 67.52 C 344.07 63.59 344.16 53.38 337.68 50.36 C 332.10 47.75 325.72 48.68 319.75 48.51 C 319.75 65.09 319.75 81.67 319.75 98.25 C 318.08 98.25 316.41 98.25 314.75 98.25 C 314.75 80.33 314.75 62.42 314.75 44.50 Z" />
<path fill="#e8e6e3" opacity="1.00" d=" M 407.51 98.25 C 407.49 80.33 407.50 62.42 407.51 44.50 C 418.42 44.50 429.34 44.50 440.25 44.50 C 440.24 45.93 440.24 47.36 440.24 48.79 C 430.99 48.84 421.75 48.80 412.51 48.81 C 412.49 55.46 412.51 62.10 412.50 68.75 C 420.16 68.75 427.82 68.75 435.49 68.75 C 435.50 70.25 435.50 71.75 435.49 73.25 C 427.83 73.25 420.16 73.24 412.50 73.25 C 412.50 80.08 412.50 86.92 412.50 93.75 C 421.75 93.76 431.00 93.75 440.25 93.75 C 440.24 95.25 440.24 96.75 440.25 98.25 C 429.33 98.25 418.42 98.25 407.51 98.25 Z" />
<path fill="#e8e6e3" opacity="1.00" d=" M 452.88 44.50 C 464.19 44.50 475.49 44.50 486.80 44.50 C 486.79 47.17 486.79 49.83 486.80 52.50 C 478.84 52.51 470.89 52.49 462.93 52.51 C 462.94 57.75 462.93 63.00 462.94 68.25 C 469.63 68.25 476.33 68.25 483.02 68.25 C 483.03 71.00 483.04 73.75 483.02 76.50 C 476.33 76.50 469.63 76.50 462.93 76.50 C 462.93 83.75 462.94 91.00 462.93 98.25 C 459.58 98.25 456.23 98.25 452.89 98.24 C 452.87 80.33 452.88 62.42 452.88 44.50 Z" />
<path fill="#e8e6e3" opacity="1.00" d=" M 552.00 44.50 C 561.90 45.08 572.50 42.80 581.81 47.12 C 590.57 51.23 591.55 64.44 584.84 70.82 C 582.85 72.94 580.17 74.18 577.53 75.25 C 579.13 76.74 580.62 78.36 581.83 80.21 C 585.85 86.25 589.99 92.20 594.00 98.25 C 589.67 97.62 583.32 100.14 580.69 95.41 C 576.72 89.44 573.00 83.29 568.80 77.47 C 567.44 77.49 566.08 77.50 564.74 77.50 C 564.83 75.09 564.40 72.59 565.16 70.25 C 568.61 69.76 572.41 70.41 575.48 68.40 C 580.57 65.57 581.14 56.97 576.01 53.91 C 571.83 51.51 566.84 52.39 562.25 52.26 C 562.24 67.59 562.25 82.92 562.25 98.25 C 558.83 98.25 555.41 98.25 552.00 98.25 C 552.00 80.33 552.00 62.42 552.00 44.50 Z" />
<path fill="#e8e6e3" opacity="1.00" d=" M 652.00 44.50 C 663.33 44.50 674.67 44.50 686.00 44.50 C 685.99 47.17 685.99 49.84 685.98 52.51 C 678.07 52.49 670.16 52.50 662.25 52.51 C 662.25 58.00 662.25 63.50 662.24 68.99 C 668.50 69.01 674.76 69.00 681.02 69.00 C 680.56 71.32 682.20 75.09 679.56 76.35 C 673.80 76.75 668.01 76.37 662.25 76.51 C 662.25 81.09 662.24 85.67 662.25 90.25 C 670.16 90.25 678.08 90.25 686.00 90.25 C 685.99 92.91 685.99 95.58 686.00 98.25 C 674.67 98.25 663.33 98.25 652.00 98.25 C 652.00 80.33 652.00 62.42 652.00 44.50 Z" />
</g>
</svg>
