<?xml version="1.0" encoding="UTF-8" ?>
<!DOCTYPE svg PUBLIC "-//W3C//DTD SVG 1.1//EN" "http://www.w3.org/Graphics/SVG/1.1/DTD/svg11.dtd">
<svg width="1600pt" height="424pt" viewBox="0 0 1600 424" version="1.1" xmlns="http://www.w3.org/2000/svg">
<path fill="#efeff0" opacity="1.00" d=" M 232.77 37.64 C 239.41 25.11 245.75 12.40 252.64 0.01 C 268.48 2.82 284.01 7.36 298.81 13.64 C 297.53 27.99 296.26 42.34 294.99 56.68 C 306.77 64.72 318.60 72.69 330.35 80.77 C 343.27 74.38 356.14 67.87 369.02 61.39 C 380.63 73.30 390.90 86.52 399.46 100.78 C 389.98 111.61 380.52 122.45 371.08 133.31 C 375.89 146.74 380.70 160.17 385.52 173.59 C 399.72 175.93 413.94 178.20 428.13 180.68 C 430.59 197.12 431.05 213.83 429.66 230.39 C 415.59 233.69 401.45 236.70 387.40 240.06 C 383.54 253.77 379.42 267.41 375.49 281.10 C 385.59 291.36 395.74 301.57 405.83 311.84 C 398.10 326.57 388.62 340.36 377.73 352.93 C 364.52 347.20 351.28 341.54 338.03 335.92 C 326.74 344.67 315.40 353.37 304.12 362.12 C 306.22 376.41 308.52 390.66 310.48 404.96 C 295.51 412.14 279.83 417.87 263.64 421.62 C 223.09 349.05 182.56 276.47 142.02 203.89 C 153.74 197.38 165.41 190.81 177.11 184.26 C 205.51 234.97 233.93 285.67 262.31 336.39 C 291.26 325.51 316.11 304.16 331.22 277.18 C 344.94 253.03 350.62 224.50 347.44 196.93 C 344.22 167.44 330.62 139.28 309.68 118.29 C 295.83 104.27 278.78 93.48 260.27 86.74 C 251.13 70.36 241.96 54.00 232.77 37.64 Z" />
<path fill="#efeff0" opacity="1.00" d=" M 120.61 18.66 C 135.56 11.34 151.35 5.78 167.58 2.07 C 210.12 77.99 252.71 153.89 295.21 229.84 C 283.53 236.40 271.85 242.94 260.15 249.46 C 229.84 195.37 199.55 141.27 169.23 87.18 C 149.66 94.44 131.80 106.28 117.63 121.63 C 99.17 141.42 86.97 167.00 83.39 193.84 C 79.38 222.73 85.13 252.89 99.76 278.15 C 114.97 304.81 139.74 325.75 168.43 336.58 C 178.03 353.82 187.70 371.02 197.34 388.23 C 191.18 400.17 184.98 412.08 178.77 424.00 L 178.50 424.00 C 162.23 421.01 146.22 416.42 131.01 409.86 C 132.36 395.54 133.64 381.22 135.04 366.91 C 123.35 358.74 111.49 350.80 99.76 342.68 C 86.81 349.06 73.92 355.56 60.97 361.93 C 49.38 349.96 39.17 336.66 30.57 322.39 C 40.07 311.56 49.60 300.75 59.13 289.95 C 54.36 276.48 49.61 263.01 44.79 249.57 C 30.60 247.20 16.43 244.70 2.22 242.42 C 1.10 233.58 0.17 224.70 0.00 215.78 L 0.00 208.24 C 0.16 203.08 0.50 197.93 0.85 192.78 C 14.90 189.48 29.02 186.48 43.07 183.18 C 47.10 169.50 51.17 155.84 55.22 142.18 C 45.17 131.93 35.20 121.60 25.06 111.43 C 32.69 96.64 42.31 82.90 53.22 70.35 C 66.47 75.98 79.66 81.73 92.88 87.44 C 104.24 78.89 115.41 70.09 126.83 61.61 C 124.99 47.26 122.65 32.98 120.61 18.66 Z" />
<path fill="#efeff0" opacity="1.00" d=" M 569.34 65.42 C 619.83 65.37 670.31 65.42 720.79 65.40 C 720.81 86.40 720.79 107.39 720.80 128.39 C 685.56 128.42 650.32 128.38 615.08 128.41 C 612.50 128.16 610.37 130.56 610.49 133.05 C 610.45 147.32 610.44 161.60 610.49 175.87 C 610.38 178.20 612.63 180.22 614.93 180.04 C 639.96 180.10 664.98 180.03 690.00 180.08 C 698.75 180.00 707.79 182.66 714.28 188.71 C 721.29 195.07 724.67 204.66 724.69 213.98 C 724.73 250.65 724.71 287.31 724.70 323.98 C 724.78 332.89 721.93 342.08 715.65 348.58 C 709.11 355.53 699.38 358.66 690.00 358.58 C 638.32 358.66 586.65 358.52 534.98 358.65 C 534.73 337.50 534.93 316.35 534.87 295.20 C 571.25 295.19 607.63 295.21 644.00 295.19 C 646.29 295.39 649.34 294.34 649.50 291.66 C 649.63 277.48 649.52 263.29 649.55 249.11 C 649.84 246.60 647.41 244.64 645.03 244.83 C 619.67 244.75 594.31 244.86 568.95 244.78 C 559.63 244.78 550.04 241.44 543.64 234.48 C 537.48 227.95 534.75 218.82 534.87 209.97 C 534.86 173.32 534.86 136.67 534.88 100.03 C 534.77 90.97 537.72 81.61 544.22 75.11 C 550.72 68.45 560.16 65.36 569.34 65.42 Z" />
<path fill="#efeff0" opacity="1.00" d=" M 800.28 65.40 C 856.87 65.40 913.45 65.40 970.04 65.40 C 976.70 65.49 983.59 64.85 990.00 67.11 C 1003.14 71.19 1012.75 84.26 1012.68 98.03 C 1012.73 146.38 1012.68 194.73 1012.70 243.07 C 1012.67 247.07 1012.90 251.11 1012.08 255.05 C 1009.19 269.95 995.24 282.08 979.93 282.12 C 945.25 282.16 910.56 282.12 875.88 282.14 C 875.86 307.63 875.88 333.11 875.87 358.60 C 850.67 358.59 825.48 358.60 800.28 358.60 C 800.27 260.87 800.27 163.13 800.28 65.40 M 876.02 128.34 C 875.67 158.90 875.97 189.49 875.88 220.06 C 894.91 220.04 913.95 220.12 932.99 220.02 C 935.56 220.12 937.45 217.44 937.12 215.00 C 937.10 187.66 937.14 160.31 937.10 132.97 C 937.19 130.70 935.36 128.22 932.93 128.42 C 913.96 128.34 894.99 128.50 876.02 128.34 Z" />
<path fill="#efeff0" opacity="1.00" d=" M 1083.50 65.41 C 1108.65 65.35 1133.80 65.49 1158.95 65.33 C 1159.31 140.58 1158.97 215.84 1159.12 291.09 C 1159.01 293.59 1161.60 295.44 1163.97 295.19 C 1181.97 295.18 1199.97 295.24 1217.98 295.16 C 1220.25 295.28 1223.02 293.68 1222.91 291.14 C 1223.00 215.89 1222.88 140.64 1222.98 65.40 C 1248.16 65.41 1273.34 65.39 1298.53 65.41 C 1298.54 150.60 1298.53 235.80 1298.54 321.00 C 1298.81 328.23 1297.86 335.72 1294.13 342.05 C 1288.58 352.10 1277.39 358.54 1265.95 358.56 C 1217.63 358.66 1169.32 358.57 1121.01 358.60 C 1115.27 358.73 1109.38 358.31 1104.09 355.93 C 1094.39 351.97 1086.81 343.22 1084.43 333.00 C 1083.27 328.41 1083.51 323.65 1083.50 318.96 C 1083.50 234.44 1083.50 149.93 1083.50 65.41 Z" />
<path fill="#efeff0" opacity="1.00" d=" M 1381.92 65.41 C 1440.27 65.39 1498.63 65.40 1556.98 65.40 C 1563.09 65.47 1569.36 64.95 1575.31 66.75 C 1585.50 69.62 1594.03 77.74 1597.37 87.80 C 1599.80 94.59 1599.00 101.91 1599.14 108.98 C 1599.09 150.66 1599.24 192.34 1599.06 234.02 C 1598.54 251.85 1581.72 266.83 1563.98 265.72 C 1576.01 296.58 1587.84 327.52 1600.00 358.34 L 1600.00 358.57 C 1575.39 358.64 1550.78 358.57 1526.17 358.60 C 1514.02 327.65 1501.80 296.71 1489.74 265.72 C 1479.00 265.61 1468.26 265.69 1457.52 265.68 C 1457.50 296.65 1457.52 327.62 1457.51 358.59 C 1432.33 358.61 1407.15 358.59 1381.96 358.60 C 1381.87 260.87 1381.95 163.14 1381.92 65.41 M 1457.51 128.41 C 1457.51 154.45 1457.51 180.49 1457.51 206.52 C 1478.03 206.55 1498.55 206.51 1519.07 206.55 C 1521.58 206.89 1524.13 204.60 1523.97 202.05 C 1523.97 179.01 1524.01 155.97 1523.95 132.94 C 1523.99 130.42 1521.59 128.00 1519.02 128.40 C 1498.52 128.41 1478.01 128.38 1457.51 128.41 Z" />
</svg>
