<?xml version="1.0" encoding="UTF-8" ?>
<!DOCTYPE svg PUBLIC "-//W3C//DTD SVG 1.1//EN" "http://www.w3.org/Graphics/SVG/1.1/DTD/svg11.dtd">
<svg width="972pt" height="270pt" viewBox="0 0 972 270" version="1.1" xmlns="http://www.w3.org/2000/svg">
<path fill="#ffffff" opacity="1.00" d=" M 127.39 0.00 L 142.41 0.00 C 158.82 0.69 175.25 2.26 191.32 5.81 C 210.18 9.94 228.87 16.20 245.16 26.78 C 254.81 33.28 264.03 41.67 268.01 52.91 C 271.26 61.74 269.72 71.88 264.81 79.79 C 259.31 89.00 250.67 95.75 241.75 101.43 C 251.83 107.49 261.79 114.99 267.05 125.82 C 270.91 133.63 270.86 143.19 266.83 150.92 C 261.71 161.16 252.35 168.38 242.79 174.23 C 252.12 179.88 261.30 186.79 266.47 196.65 C 269.95 203.12 271.00 210.97 268.80 218.03 C 266.16 226.60 260.04 233.64 253.11 239.11 C 244.28 246.13 234.06 251.17 223.60 255.27 C 197.74 265.15 169.99 269.01 142.44 270.00 L 127.52 270.00 C 95.60 268.81 63.09 263.98 34.09 249.93 C 22.24 243.87 10.40 236.06 3.75 224.17 C 1.56 220.30 0.41 215.91 0.00 211.51 L 0.00 209.50 C 0.29 200.57 5.06 192.47 11.24 186.30 C 15.95 181.53 21.48 177.68 27.21 174.24 C 14.27 166.46 0.74 154.89 0.00 138.65 L 0.00 137.48 C 0.90 120.97 14.87 109.47 28.04 101.67 C 19.22 96.31 11.00 89.64 5.19 81.01 C 23.03 84.38 40.84 87.89 58.67 91.29 C 62.45 96.86 68.71 100.02 75.00 101.87 C 89.08 105.99 104.45 105.93 118.48 101.62 C 125.33 99.34 132.99 95.47 134.96 87.89 C 149.62 82.64 164.28 77.38 178.93 72.10 C 182.75 70.56 186.95 71.58 190.94 71.10 C 203.35 70.13 216.13 67.67 226.76 60.85 C 231.96 57.42 237.14 51.79 236.01 45.06 C 234.57 37.53 227.67 32.77 221.23 29.60 C 206.15 22.70 189.14 21.31 172.79 22.63 C 161.07 23.77 149.14 26.58 139.25 33.25 C 134.35 36.39 130.59 41.59 130.55 47.60 C 119.11 54.45 107.70 61.37 96.18 68.09 C 91.89 69.21 87.30 68.56 82.95 69.55 C 79.66 69.91 76.48 71.65 73.13 70.90 C 48.81 66.31 24.48 61.73 0.15 57.16 C 2.59 46.07 10.36 37.02 19.23 30.33 C 31.52 20.99 45.93 14.87 60.60 10.34 C 82.22 3.68 104.84 0.85 127.39 0.00 M 40.04 107.75 C 40.17 115.48 39.50 123.27 40.53 130.95 C 42.42 139.83 49.61 146.32 56.92 151.07 C 71.91 160.33 89.34 164.73 106.63 167.25 C 133.71 170.75 161.64 169.60 187.96 162.01 C 198.90 158.63 209.78 154.19 218.74 146.89 C 223.90 142.60 228.51 136.99 229.59 130.17 C 230.42 122.71 229.81 115.17 230.00 107.67 C 200.59 120.93 168.04 125.52 136.00 126.01 C 103.34 125.74 70.03 121.31 40.04 107.75 M 40.01 180.55 C 40.21 188.01 39.47 195.53 40.55 202.94 C 42.83 213.32 51.96 220.24 60.69 225.24 C 75.92 233.47 93.04 237.51 110.11 239.61 C 135.58 242.50 161.72 241.25 186.48 234.36 C 196.67 231.39 206.71 227.42 215.47 221.32 C 221.65 216.92 227.53 211.11 229.33 203.48 C 230.62 195.91 229.75 188.18 229.99 180.54 C 211.32 188.70 191.25 193.21 171.08 195.72 C 142.45 199.07 113.30 198.48 84.87 193.58 C 69.51 190.84 54.37 186.68 40.01 180.55 Z" />
<path fill="#ffffff" opacity="1.00" d=" M 172.59 30.83 C 183.21 29.24 194.21 30.29 204.47 33.38 C 210.07 35.31 216.38 38.21 218.73 44.07 C 220.52 49.16 216.49 53.94 212.42 56.48 C 202.81 62.48 191.06 63.80 179.95 63.46 C 170.25 62.80 160.02 60.89 152.18 54.76 C 148.43 51.94 146.31 46.35 149.26 42.21 C 154.45 34.70 164.08 32.26 172.59 30.83 M 172.44 34.60 C 167.47 35.61 162.46 37.33 158.53 40.63 C 156.00 42.79 154.45 46.59 156.23 49.70 C 158.56 53.83 163.19 55.83 167.46 57.34 C 178.48 60.70 190.65 60.59 201.50 56.65 C 205.78 54.87 210.90 52.20 211.54 47.07 C 211.70 41.99 206.86 38.96 202.78 37.14 C 193.27 33.15 182.50 32.70 172.44 34.60 Z" />
<path fill="#ffffff" opacity="1.00" d=" M 85.92 73.35 C 97.09 71.87 109.03 72.44 119.21 77.70 C 123.27 79.76 127.45 84.06 125.69 89.01 C 123.79 93.52 119.10 96.01 114.76 97.71 C 104.68 101.24 93.60 101.67 83.19 99.42 C 78.16 98.29 73.17 96.44 69.20 93.06 C 80.42 94.81 91.60 98.56 103.07 96.92 C 108.34 96.06 114.04 94.69 117.78 90.60 C 119.55 88.81 119.87 85.71 118.30 83.70 C 115.81 80.22 111.53 78.64 107.55 77.56 C 100.38 75.95 93.10 74.90 85.92 73.35 Z" />
<path fill="#ffffff" opacity="1.00" d=" M 361.54 82.64 C 371.86 80.97 382.84 81.35 392.53 85.63 C 400.46 89.13 407.24 95.76 409.85 104.15 C 410.94 107.23 410.90 110.52 411.42 113.70 C 404.29 113.69 397.17 113.63 390.04 113.74 C 389.36 108.12 385.55 103.09 379.98 101.62 C 373.23 99.91 365.22 99.72 359.34 104.01 C 354.25 107.55 353.87 116.37 359.18 119.87 C 366.67 124.71 375.76 125.54 384.17 127.88 C 392.67 130.27 401.38 133.91 407.04 140.99 C 413.42 148.62 414.05 159.70 410.93 168.83 C 407.53 178.40 398.51 184.94 388.96 187.51 C 377.73 190.48 365.68 190.45 354.48 187.36 C 345.44 184.86 336.80 179.09 332.87 170.33 C 330.44 165.58 329.98 160.23 329.44 155.01 C 336.76 155.02 344.08 154.94 351.40 155.05 C 351.36 160.61 354.70 165.91 359.76 168.22 C 366.81 171.59 375.37 171.69 382.56 168.67 C 387.67 166.54 391.63 160.60 389.61 155.04 C 388.73 151.71 385.55 149.77 382.60 148.46 C 371.29 143.47 358.39 143.18 347.44 137.27 C 341.81 134.29 336.53 129.91 334.17 123.83 C 330.30 113.87 332.37 101.64 339.85 93.88 C 345.49 87.72 353.47 84.24 361.54 82.64 Z" />
<path fill="#ffffff" opacity="1.00" d=" M 783.31 83.15 C 796.54 83.15 809.77 83.14 823.00 83.16 C 835.77 83.34 849.06 87.42 858.12 96.79 C 868.47 106.85 872.38 121.87 872.01 135.95 C 872.32 150.93 867.41 166.87 855.65 176.77 C 846.14 184.92 833.33 188.31 820.98 188.01 C 808.43 187.99 795.87 188.00 783.32 188.00 C 783.31 153.05 783.32 118.10 783.31 83.15 M 805.82 102.45 C 805.89 124.63 805.83 146.81 805.85 169.00 C 816.91 168.77 829.17 170.51 838.82 163.81 C 847.93 157.46 849.98 145.38 849.55 135.01 C 849.88 124.58 847.28 112.17 837.48 106.60 C 827.96 100.76 816.39 102.87 805.82 102.45 Z" />
<path fill="#ffffff" opacity="1.00" d=" M 888.15 83.15 C 902.79 83.15 917.43 83.14 932.07 83.15 C 940.11 83.29 948.57 84.77 955.18 89.66 C 961.81 94.50 965.77 102.77 965.02 110.99 C 965.42 118.25 961.35 125.29 955.22 129.04 C 952.38 131.01 948.97 131.75 945.92 133.23 C 953.64 133.98 961.27 137.79 965.36 144.58 C 968.34 148.80 968.99 153.99 969.40 159.00 C 969.16 165.94 966.97 172.96 962.07 178.04 C 953.85 186.57 941.30 188.59 929.95 188.00 C 916.02 187.99 902.08 188.01 888.15 187.99 C 888.15 153.05 888.15 118.10 888.15 83.15 M 910.64 101.45 C 910.73 109.96 910.66 118.48 910.68 127.00 C 915.79 127.01 920.90 126.98 926.02 127.02 C 930.78 127.18 935.81 125.80 939.29 122.41 C 942.74 118.81 943.45 113.03 941.49 108.54 C 939.47 104.12 934.61 101.64 929.90 101.50 C 923.48 101.38 917.06 101.52 910.64 101.45 M 910.68 142.00 C 910.68 151.33 910.68 160.66 910.68 170.00 C 919.32 169.87 928.05 170.55 936.59 168.89 C 941.62 167.71 945.88 163.31 946.16 158.04 C 946.95 151.09 941.76 144.45 935.07 142.93 C 927.05 141.26 918.80 142.28 910.68 142.00 Z" />
<path fill="#ffffff" opacity="1.00" d=" M 432.15 90.53 C 439.43 90.54 446.71 90.54 454.00 90.54 C 454.00 96.80 453.99 103.06 454.00 109.32 C 458.95 109.32 463.90 109.32 468.84 109.31 C 468.86 114.82 468.84 120.34 468.85 125.85 C 463.90 125.85 458.95 125.85 454.00 125.85 C 454.00 138.57 453.99 151.28 454.00 164.00 C 454.08 166.34 454.56 169.21 456.88 170.40 C 459.91 172.07 463.54 171.19 466.79 170.75 C 468.05 176.21 469.31 181.68 470.14 187.22 C 463.60 189.38 456.60 189.31 449.81 188.70 C 445.04 187.71 440.26 185.68 436.95 181.99 C 433.65 178.17 431.99 173.05 432.14 168.02 C 432.16 153.97 432.14 139.91 432.15 125.85 C 428.53 125.85 424.92 125.85 421.31 125.85 C 421.32 120.34 421.31 114.83 421.32 109.32 C 424.93 109.32 428.54 109.32 432.15 109.32 C 432.14 103.06 432.15 96.80 432.15 90.53 Z" />
<path fill="#ffffff" opacity="1.00" d=" M 493.55 115.69 C 504.33 107.47 519.41 106.33 531.92 110.88 C 542.39 114.62 550.18 124.17 552.68 134.89 C 554.47 141.26 553.91 147.93 553.99 154.46 C 536.19 154.46 518.38 154.47 500.57 154.46 C 500.60 160.83 503.16 167.84 509.12 170.92 C 517.16 175.43 529.77 173.44 533.42 164.13 C 540.27 164.22 547.06 165.15 553.91 165.44 C 552.15 172.25 548.52 178.80 542.51 182.73 C 533.29 189.44 521.05 190.69 510.04 189.07 C 498.88 187.63 488.54 180.65 483.50 170.53 C 478.93 161.77 478.47 151.58 479.29 141.92 C 480.55 131.82 485.32 121.92 493.55 115.69 M 507.87 127.67 C 503.53 130.49 501.16 135.55 500.52 140.56 C 511.51 140.50 522.50 140.56 533.49 140.53 C 533.33 136.65 532.00 132.80 529.41 129.87 C 524.12 123.91 514.31 123.18 507.87 127.67 Z" />
<path fill="#ffffff" opacity="1.00" d=" M 585.20 111.10 C 596.17 107.06 608.66 107.35 619.53 111.58 C 627.89 114.81 634.87 122.68 634.97 131.95 C 635.05 150.63 634.98 169.32 635.00 188.00 C 628.10 188.00 621.21 188.00 614.32 188.00 C 614.32 184.24 614.31 180.49 614.32 176.74 C 611.10 182.51 605.69 187.21 599.15 188.67 C 589.39 191.08 578.06 189.37 570.50 182.40 C 564.77 176.58 563.62 167.55 565.26 159.84 C 566.54 152.52 572.83 147.08 579.64 144.85 C 589.06 141.22 599.37 141.99 609.06 139.53 C 610.75 139.24 611.90 137.94 613.11 136.83 C 613.61 132.79 612.54 128.06 608.65 126.02 C 601.22 122.34 590.14 124.92 587.59 133.58 C 580.81 132.71 573.95 132.73 567.19 131.66 C 569.30 122.33 576.21 114.38 585.20 111.10 M 589.45 158.30 C 584.37 161.18 584.42 169.51 589.50 172.40 C 596.79 176.54 607.45 174.05 611.65 166.59 C 614.24 162.19 613.02 156.90 613.35 152.06 C 605.68 155.33 596.67 153.89 589.45 158.30 Z" />
<path fill="#ffffff" opacity="1.00" d=" M 685.17 110.35 C 694.15 106.52 706.05 107.72 712.70 115.38 C 714.98 117.62 716.10 120.68 717.23 123.60 C 723.06 106.92 747.62 103.17 759.47 115.41 C 763.85 120.12 766.11 126.62 766.00 133.02 C 766.00 151.34 766.00 169.67 766.00 188.00 C 758.71 188.00 751.43 188.01 744.14 187.99 C 744.15 171.33 744.15 154.67 744.15 138.00 C 744.18 134.16 742.19 130.28 738.85 128.31 C 735.63 126.23 731.48 126.29 727.89 127.13 C 722.42 128.71 719.51 134.67 719.69 140.06 C 719.66 156.04 719.69 172.02 719.68 188.00 C 712.56 188.00 705.44 188.00 698.32 188.00 C 698.32 171.66 698.31 155.32 698.33 138.99 C 698.33 135.94 697.63 132.71 695.53 130.41 C 691.12 125.16 681.91 125.28 677.52 130.49 C 674.86 133.27 673.70 137.24 673.84 141.03 C 673.87 156.69 673.84 172.34 673.85 187.99 C 666.57 188.01 659.28 188.00 652.00 188.00 C 652.00 161.77 652.00 135.55 652.00 109.32 C 658.95 109.31 665.90 109.32 672.85 109.31 C 672.89 114.11 672.73 118.90 672.98 123.69 C 675.49 118.11 679.29 112.72 685.17 110.35 Z" />
</svg>
