<?xml version="1.0" encoding="UTF-8" ?>
<!DOCTYPE svg PUBLIC "-//W3C//DTD SVG 1.1//EN" "http://www.w3.org/Graphics/SVG/1.1/DTD/svg11.dtd">
<svg width="128pt" height="128pt" viewBox="0 0 128 128" version="1.1" xmlns="http://www.w3.org/2000/svg">
<g id="#010101ff">
</g>
<g id="#fd07a8ff">
<path fill="#fd07a8" opacity="1.00" d=" M 14.02 21.00 C 14.32 11.32 23.31 3.34 32.99 4.04 C 55.00 3.93 77.01 4.04 99.02 3.98 C 107.96 4.42 115.63 12.04 116.00 21.00 C 115.29 20.99 113.86 20.96 113.15 20.94 C 112.97 19.88 112.71 18.84 112.37 17.81 C 110.42 12.75 106.09 8.73 100.91 7.09 C 77.27 6.89 53.62 7.01 29.98 7.02 C 24.35 8.08 19.70 12.56 17.63 17.81 C 17.29 18.83 17.04 19.88 16.87 20.94 C 16.16 20.96 14.74 20.99 14.02 21.00 Z" />
</g>
<g id="#ffa0ccff">
<path fill="#ffa0cc" opacity="1.00" d=" M 17.63 17.81 C 19.70 12.56 24.35 8.08 29.98 7.02 C 53.62 7.01 77.27 6.89 100.91 7.09 C 106.09 8.73 110.42 12.75 112.37 17.81 C 111.17 20.37 110.96 24.95 105.96 22.04 C 101.73 22.15 98.84 18.09 94.95 16.99 C 74.97 17.10 54.97 16.78 35.00 17.12 C 30.25 18.57 26.66 23.55 21.02 22.02 C 18.43 22.63 18.51 19.40 17.63 17.81 Z" />
</g>
<g id="#ff8ac8ff">
<path fill="#ff8ac8" opacity="1.00" d=" M 21.02 22.02 C 26.66 23.55 30.25 18.57 35.00 17.12 L 35.23 18.07 C 34.37 18.62 33.51 19.16 32.64 19.71 C 30.30 20.67 29.40 23.10 28.22 25.13 C 27.93 24.81 27.36 24.16 27.07 23.83 C 27.07 26.60 27.06 32.12 27.05 34.88 C 23.75 34.22 20.38 34.00 17.03 33.94 C 16.99 29.60 16.96 25.27 16.87 20.94 C 17.04 19.88 17.29 18.83 17.63 17.81 C 18.51 19.40 18.43 22.63 21.02 22.02 Z" />
<path fill="#ff8ac8" opacity="1.00" d=" M 94.95 16.99 C 98.84 18.09 101.73 22.15 105.96 22.04 C 110.96 24.95 111.17 20.37 112.37 17.81 C 112.71 18.84 112.97 19.88 113.15 20.94 C 113.06 25.28 113.02 29.62 112.98 33.96 C 109.63 34.07 106.09 33.45 102.96 34.93 C 102.95 32.16 102.93 26.61 102.92 23.84 C 102.63 24.16 102.04 24.79 101.75 25.11 C 100.45 22.19 98.58 19.48 95.26 18.76 L 95.09 17.92 L 94.95 16.99 Z" />
</g>
<g id="#ff60beff">
<path fill="#ff60be" opacity="1.00" d=" M 35.00 17.12 C 54.97 16.78 74.97 17.10 94.95 16.99 L 95.09 17.92 C 92.35 17.97 89.61 18.02 86.87 18.06 C 85.20 18.06 81.86 18.06 80.18 18.06 C 69.73 18.00 59.28 17.92 48.84 18.05 C 47.16 18.06 43.80 18.06 42.13 18.06 C 40.40 18.06 36.96 18.07 35.23 18.07 L 35.00 17.12 Z" />
</g>
<g id="#ffa7dbff">
<path fill="#ffa7db" opacity="1.00" d=" M 35.23 18.07 C 36.96 18.07 40.40 18.06 42.13 18.06 C 41.67 18.37 40.75 18.99 40.30 19.29 C 42.15 26.29 46.43 32.89 53.03 36.17 C 51.33 38.34 50.03 40.79 48.71 43.21 C 39.97 38.72 33.22 29.67 32.64 19.71 C 33.51 19.16 34.37 18.62 35.23 18.07 Z" />
</g>
<g id="#ffb3e0ff">
<path fill="#ffb3e0" opacity="1.00" d=" M 42.13 18.06 C 43.80 18.06 47.16 18.06 48.84 18.05 C 50.45 22.65 53.11 27.25 57.95 29.03 C 66.97 33.32 77.95 27.49 80.18 18.06 C 81.86 18.06 85.20 18.06 86.87 18.06 C 87.33 18.37 88.25 18.99 88.70 19.30 C 87.42 24.25 84.65 28.58 81.78 32.74 C 72.25 34.80 62.01 30.80 53.03 36.17 C 46.43 32.89 42.15 26.29 40.30 19.29 C 40.75 18.99 41.67 18.37 42.13 18.06 Z" />
</g>
<g id="#ffbde4ff">
<path fill="#ffbde4" opacity="1.00" d=" M 48.84 18.05 C 59.28 17.92 69.73 18.00 80.18 18.06 C 77.95 27.49 66.97 33.32 57.95 29.03 C 53.11 27.25 50.45 22.65 48.84 18.05 Z" />
</g>
<g id="#ffa6dbff">
<path fill="#ffa6db" opacity="1.00" d=" M 86.87 18.06 C 89.61 18.02 92.35 17.97 95.09 17.92 L 95.26 18.76 C 95.62 20.81 95.69 22.92 96.37 24.90 C 93.68 30.77 91.13 37.85 85.15 41.14 C 85.27 38.81 85.99 36.54 85.95 34.19 C 84.88 32.99 83.24 33.01 81.78 32.74 C 84.65 28.58 87.42 24.25 88.70 19.30 C 88.25 18.99 87.33 18.37 86.87 18.06 Z" />
</g>
<g id="#ff98d5ff">
<path fill="#ff98d5" opacity="1.00" d=" M 95.26 18.76 C 98.58 19.48 100.45 22.19 101.75 25.11 C 101.90 29.35 101.99 33.59 101.94 37.84 C 95.77 43.47 90.44 50.12 82.99 54.19 C 79.66 52.87 76.37 51.25 72.76 50.87 C 73.40 48.99 74.64 47.20 76.79 47.05 C 82.11 50.84 85.96 45.86 85.15 41.14 C 91.13 37.85 93.68 30.77 96.37 24.90 C 95.69 22.92 95.62 20.81 95.26 18.76 Z" />
</g>
<g id="#ff9bd6ff">
<path fill="#ff9bd6" opacity="1.00" d=" M 28.22 25.13 C 29.40 23.10 30.30 20.67 32.64 19.71 C 33.22 29.67 39.97 38.72 48.71 43.21 C 48.98 46.41 50.50 49.27 52.05 52.01 C 41.40 49.03 31.11 40.76 28.16 29.77 C 28.12 28.23 28.14 26.68 28.22 25.13 Z" />
</g>
<g id="#ff20afff">
<path fill="#ff20af" opacity="1.00" d=" M 14.02 21.00 C 14.74 20.99 16.16 20.96 16.87 20.94 C 16.96 25.27 16.99 29.60 17.03 33.94 C 17.02 34.45 17.00 35.48 16.99 35.99 C 16.25 35.99 14.78 36.00 14.05 36.00 C 13.96 31.00 13.88 26.00 14.02 21.00 Z" />
<path fill="#ff20af" opacity="1.00" d=" M 113.15 20.94 C 113.86 20.96 115.29 20.99 116.00 21.00 C 116.02 26.00 116.15 31.01 115.94 36.00 C 115.21 36.00 113.75 36.00 113.02 35.99 C 113.01 35.49 112.99 34.47 112.98 33.96 C 113.02 29.62 113.06 25.28 113.15 20.94 Z" />
</g>
<g id="#ff63bfff">
<path fill="#ff63bf" opacity="1.00" d=" M 27.07 23.83 C 27.36 24.16 27.93 24.81 28.22 25.13 C 28.14 26.68 28.12 28.23 28.16 29.77 C 28.09 34.80 27.93 39.83 28.05 44.86 C 28.04 48.59 27.97 52.32 27.92 56.04 C 26.98 51.05 22.21 52.11 18.22 51.80 C 17.70 50.57 17.26 49.31 16.88 48.04 C 16.93 46.70 16.98 45.37 17.02 44.04 C 19.61 44.17 22.19 44.09 24.76 43.80 C 27.96 41.93 26.90 38.05 27.05 34.88 C 27.06 32.12 27.07 26.60 27.07 23.83 Z" />
</g>
<g id="#ff65bfff">
<path fill="#ff65bf" opacity="1.00" d=" M 101.75 25.11 C 102.04 24.79 102.63 24.16 102.92 23.84 C 102.93 26.61 102.95 32.16 102.96 34.93 C 103.04 37.62 102.94 40.41 104.20 42.86 C 107.11 42.97 110.06 43.03 112.98 43.02 C 113.01 44.96 113.03 46.90 113.08 48.83 C 109.92 52.14 104.00 49.21 102.00 54.01 L 101.98 52.87 C 102.01 47.86 102.02 42.85 101.94 37.84 C 101.99 33.59 101.90 29.35 101.75 25.11 Z" />
</g>
<g id="#ff90d2ff">
<path fill="#ff90d2" opacity="1.00" d=" M 28.16 29.77 C 31.11 40.76 41.40 49.03 52.05 52.01 C 56.59 53.71 61.18 55.30 66.02 55.92 C 69.72 56.71 73.91 56.62 76.92 59.18 C 78.36 65.12 70.49 67.58 65.97 66.99 C 62.60 66.56 57.36 66.43 57.00 62.00 C 56.96 57.51 49.87 55.80 48.16 60.06 C 48.03 59.63 47.78 58.77 47.66 58.34 C 40.18 55.35 33.86 50.35 28.05 44.86 C 27.93 39.83 28.09 34.80 28.16 29.77 Z" />
</g>
<g id="#fffbfeff">
<path fill="#fffbfe" opacity="1.00" d=" M 53.03 36.17 C 62.01 30.80 72.25 34.80 81.78 32.74 C 83.24 33.01 84.88 32.99 85.95 34.19 C 85.99 36.54 85.27 38.81 85.15 41.14 C 85.96 45.86 82.11 50.84 76.79 47.05 C 78.53 41.28 71.71 38.19 66.98 38.98 C 62.69 38.79 55.71 40.82 58.06 46.81 C 62.25 49.97 67.76 50.06 72.76 50.87 C 76.37 51.25 79.66 52.87 82.99 54.19 C 85.12 57.09 84.96 60.72 85.23 64.17 C 83.28 68.64 78.84 71.22 74.29 72.37 C 70.12 72.23 65.95 72.17 61.77 72.19 C 59.57 71.85 57.14 70.34 55.20 72.17 C 53.36 73.71 50.99 72.72 49.13 71.80 C 49.01 70.32 49.12 68.83 49.22 67.34 C 49.47 64.87 48.59 62.47 48.16 60.06 C 49.87 55.80 56.96 57.51 57.00 62.00 C 57.36 66.43 62.60 66.56 65.97 66.99 C 70.49 67.58 78.36 65.12 76.92 59.18 C 73.91 56.62 69.72 56.71 66.02 55.92 C 61.18 55.30 56.59 53.71 52.05 52.01 C 50.50 49.27 48.98 46.41 48.71 43.21 C 50.03 40.79 51.33 38.34 53.03 36.17 Z" />
</g>
<g id="#ff76c3ff">
<path fill="#ff76c3" opacity="1.00" d=" M 17.03 33.94 C 20.38 34.00 23.75 34.22 27.05 34.88 C 26.90 38.05 27.96 41.93 24.76 43.80 C 22.19 44.09 19.61 44.17 17.02 44.04 C 17.01 41.36 17.00 38.67 16.99 35.99 C 17.00 35.48 17.02 34.45 17.03 33.94 Z" />
</g>
<g id="#ff77c3ff">
<path fill="#ff77c3" opacity="1.00" d=" M 102.96 34.93 C 106.09 33.45 109.63 34.07 112.98 33.96 C 112.99 34.47 113.01 35.49 113.02 35.99 C 113.01 37.75 112.99 41.27 112.98 43.02 C 110.06 43.03 107.11 42.97 104.20 42.86 C 102.94 40.41 103.04 37.62 102.96 34.93 Z" />
</g>
<g id="#ff39b5ff">
<path fill="#ff39b5" opacity="1.00" d=" M 14.05 36.00 C 14.78 36.00 16.25 35.99 16.99 35.99 C 17.00 38.67 17.01 41.36 17.02 44.04 C 16.98 45.37 16.93 46.70 16.88 48.04 C 15.96 48.43 15.03 48.80 14.10 49.17 C 13.98 44.78 13.85 40.39 14.05 36.00 Z" />
</g>
<g id="#ff3ab5ff">
<path fill="#ff3ab5" opacity="1.00" d=" M 113.02 35.99 C 113.75 36.00 115.21 36.00 115.94 36.00 C 116.04 40.66 116.11 45.34 115.98 50.01 C 115.02 49.59 114.06 49.20 113.08 48.83 C 113.03 46.90 113.01 44.96 112.98 43.02 C 112.99 41.27 113.01 37.75 113.02 35.99 Z" />
</g>
<g id="#ff8acfff">
<path fill="#ff8acf" opacity="1.00" d=" M 82.99 54.19 C 90.44 50.12 95.77 43.47 101.94 37.84 C 102.02 42.85 102.01 47.86 101.98 52.87 C 97.87 54.47 95.10 58.31 91.00 59.98 C 88.94 61.19 86.25 61.78 85.23 64.17 C 84.96 60.72 85.12 57.09 82.99 54.19 Z" />
</g>
<g id="#ffa8dbff">
<path fill="#ffa8db" opacity="1.00" d=" M 58.06 46.81 C 55.71 40.82 62.69 38.79 66.98 38.98 C 71.71 38.19 78.53 41.28 76.79 47.05 C 74.64 47.20 73.40 48.99 72.76 50.87 C 67.76 50.06 62.25 49.97 58.06 46.81 Z" />
</g>
<g id="#ff85cdff">
<path fill="#ff85cd" opacity="1.00" d=" M 28.05 44.86 C 33.86 50.35 40.18 55.35 47.66 58.34 C 47.78 58.77 48.03 59.63 48.16 60.06 C 48.59 62.47 49.47 64.87 49.22 67.34 C 41.48 64.87 34.52 60.68 27.92 56.04 C 27.97 52.32 28.04 48.59 28.05 44.86 Z" />
</g>
<g id="#ff52bbff">
<path fill="#ff52bb" opacity="1.00" d=" M 14.10 49.17 C 15.03 48.80 15.96 48.43 16.88 48.04 C 17.26 49.31 17.70 50.57 18.22 51.80 C 22.21 52.11 26.98 51.05 27.92 56.04 C 28.01 57.95 28.05 59.85 28.16 61.76 L 27.07 61.91 C 23.70 61.98 20.32 62.01 16.95 62.11 C 15.96 61.77 14.99 61.41 14.02 61.02 C 13.89 57.06 13.91 53.12 14.10 49.17 Z" />
</g>
<g id="#ff55bbff">
<path fill="#ff55bb" opacity="1.00" d=" M 102.00 54.01 C 104.00 49.21 109.92 52.14 113.08 48.83 C 114.06 49.20 115.02 49.59 115.98 50.01 C 116.11 53.95 116.09 57.89 115.90 61.83 C 114.96 62.20 114.02 62.59 113.08 62.99 C 111.55 60.53 110.63 56.27 106.08 59.05 C 104.41 59.09 104.02 61.29 102.96 62.30 C 102.66 61.92 102.05 61.17 101.74 60.79 C 101.81 59.10 101.94 55.71 102.00 54.01 Z" />
</g>
<g id="#ff79c8ff">
<path fill="#ff79c8" opacity="1.00" d=" M 91.00 59.98 C 95.10 58.31 97.87 54.47 101.98 52.87 L 102.00 54.01 C 101.94 55.71 101.81 59.10 101.74 60.79 C 100.70 63.75 100.43 67.73 96.97 68.97 C 76.83 81.18 49.88 80.94 30.24 67.79 C 29.37 65.84 28.88 63.76 28.16 61.76 C 28.05 59.85 28.01 57.95 27.92 56.04 C 34.52 60.68 41.48 64.87 49.22 67.34 C 49.12 68.83 49.01 70.32 49.13 71.80 C 50.99 72.72 53.36 73.71 55.20 72.17 C 57.14 70.34 59.57 71.85 61.77 72.19 C 65.83 72.94 70.27 73.76 74.29 72.37 C 78.84 71.22 83.28 68.64 85.23 64.17 C 86.25 61.78 88.94 61.19 91.00 59.98 Z" />
</g>
<g id="#ff43b7ff">
<path fill="#ff43b7" opacity="1.00" d=" M 102.96 62.30 C 104.02 61.29 104.41 59.09 106.08 59.05 C 110.63 56.27 111.55 60.53 113.08 62.99 C 113.05 64.33 113.02 65.67 112.99 67.01 C 109.61 66.99 106.25 67.02 102.88 66.89 L 102.83 65.80 C 102.88 64.64 102.93 63.47 102.96 62.30 Z" />
</g>
<g id="#ff6dc1ff">
<path fill="#ff6dc1" opacity="1.00" d=" M 14.02 61.02 C 14.99 61.41 15.96 61.77 16.95 62.11 C 16.98 65.40 16.99 68.70 17.02 72.00 C 17.01 72.75 16.99 74.25 16.98 75.00 C 16.25 75.00 14.79 75.00 14.06 75.00 C 13.95 70.34 13.89 65.68 14.02 61.02 Z" />
</g>
<g id="#ff6dc3ff">
<path fill="#ff6dc3" opacity="1.00" d=" M 96.97 68.97 C 100.43 67.73 100.70 63.75 101.74 60.79 C 102.05 61.17 102.66 61.92 102.96 62.30 C 102.93 63.47 102.88 64.64 102.83 65.80 C 102.04 69.41 102.64 73.93 99.81 76.82 C 86.43 85.64 69.66 87.05 54.09 85.82 C 45.49 84.09 36.48 81.94 29.25 76.75 C 28.30 73.47 28.12 70.04 27.26 66.75 C 27.14 65.14 27.08 63.52 27.07 61.91 L 28.16 61.76 C 28.88 63.76 29.37 65.84 30.24 67.79 C 49.88 80.94 76.83 81.18 96.97 68.97 Z" />
</g>
<g id="#ff3bb6ff">
<path fill="#ff3bb6" opacity="1.00" d=" M 16.95 62.11 C 20.32 62.01 23.70 61.98 27.07 61.91 C 27.08 63.52 27.14 65.14 27.26 66.75 C 27.16 68.50 27.05 70.25 26.98 72.01 C 23.66 72.00 20.34 72.00 17.02 72.00 C 16.99 68.70 16.98 65.40 16.95 62.11 Z" />
</g>
<g id="#ff6ec1ff">
<path fill="#ff6ec1" opacity="1.00" d=" M 113.08 62.99 C 114.02 62.59 114.96 62.20 115.90 61.83 C 116.01 66.21 116.15 70.61 115.95 75.00 C 115.22 75.00 113.76 75.00 113.02 75.00 C 113.01 74.50 112.99 73.50 112.98 73.00 C 113.00 71.00 113.00 69.01 112.99 67.01 C 113.02 65.67 113.05 64.33 113.08 62.99 Z" />
</g>
<g id="#ff64c0ff">
<path fill="#ff64c0" opacity="1.00" d=" M 99.81 76.82 C 102.64 73.93 102.04 69.41 102.83 65.80 L 102.88 66.89 C 102.94 68.93 102.98 70.96 103.03 73.00 C 103.02 75.67 103.03 78.33 103.07 81.01 C 103.70 84.98 101.48 88.26 98.98 91.08 C 96.50 92.26 93.98 93.70 91.00 92.94 C 72.67 93.07 54.32 93.03 35.99 92.97 C 34.17 92.91 32.64 91.76 31.02 91.07 C 28.50 88.26 26.31 84.98 26.92 81.01 C 26.95 78.00 26.98 75.01 26.98 72.01 C 27.05 70.25 27.16 68.50 27.26 66.75 C 28.12 70.04 28.30 73.47 29.25 76.75 C 36.48 81.94 45.49 84.09 54.09 85.82 C 69.66 87.05 86.43 85.64 99.81 76.82 Z" />
</g>
<g id="#ff35b4ff">
<path fill="#ff35b4" opacity="1.00" d=" M 102.88 66.89 C 106.25 67.02 109.61 66.99 112.99 67.01 C 113.00 69.01 113.00 71.00 112.98 73.00 C 109.66 73.00 106.35 73.00 103.03 73.00 C 102.98 70.96 102.94 68.93 102.88 66.89 Z" />
</g>
<g id="#ff28b1ff">
<path fill="#ff28b1" opacity="1.00" d=" M 17.02 72.00 C 20.34 72.00 23.66 72.00 26.98 72.01 C 26.98 75.01 26.95 78.00 26.92 81.01 C 23.62 81.00 20.32 81.00 17.02 81.00 C 17.00 79.00 17.00 77.00 16.98 75.00 C 16.99 74.25 17.01 72.75 17.02 72.00 Z" />
</g>
<g id="#ffc6e8ff">
<path fill="#ffc6e8" opacity="1.00" d=" M 61.77 72.19 C 65.95 72.17 70.12 72.23 74.29 72.37 C 70.27 73.76 65.83 72.94 61.77 72.19 Z" />
</g>
<g id="#ff27b1ff">
<path fill="#ff27b1" opacity="1.00" d=" M 103.03 73.00 C 106.35 73.00 109.66 73.00 112.98 73.00 C 112.99 73.50 113.01 74.50 113.02 75.00 C 113.00 77.00 112.99 79.00 112.98 81.00 C 109.67 80.99 106.37 81.00 103.07 81.01 C 103.03 78.33 103.02 75.67 103.03 73.00 Z" />
</g>
<g id="#ff86c7ff">
<path fill="#ff86c7" opacity="1.00" d=" M 14.06 75.00 C 14.79 75.00 16.25 75.00 16.98 75.00 C 17.00 77.00 17.00 79.00 17.02 81.00 C 16.98 83.68 16.93 86.37 16.86 89.06 C 16.15 89.04 14.73 89.01 14.02 88.99 C 13.97 84.33 13.83 79.66 14.06 75.00 Z" />
<path fill="#ff86c7" opacity="1.00" d=" M 113.02 75.00 C 113.76 75.00 115.22 75.00 115.95 75.00 C 116.03 79.66 116.14 84.33 115.97 88.99 C 115.26 89.01 113.86 89.04 113.16 89.06 C 113.09 86.37 113.04 83.68 112.98 81.00 C 112.99 79.00 113.00 77.00 113.02 75.00 Z" />
</g>
<g id="#ff19aeff">
<path fill="#ff19ae" opacity="1.00" d=" M 17.02 81.00 C 20.32 81.00 23.62 81.00 26.92 81.01 C 26.31 84.98 28.50 88.26 31.02 91.07 C 26.90 89.10 19.40 86.50 17.67 92.23 C 17.31 91.19 17.04 90.14 16.86 89.06 C 16.93 86.37 16.98 83.68 17.02 81.00 Z" />
<path fill="#ff19ae" opacity="1.00" d=" M 103.07 81.01 C 106.37 81.00 109.67 80.99 112.98 81.00 C 113.04 83.68 113.09 86.37 113.16 89.06 C 112.97 90.14 112.69 91.19 112.34 92.23 C 110.58 86.49 102.92 88.87 98.98 91.08 C 101.48 88.26 103.70 84.98 103.07 81.01 Z" />
</g>
<g id="#fb9cc9ff">
<path fill="#fb9cc9" opacity="1.00" d=" M 14.02 88.99 C 14.73 89.01 16.15 89.04 16.86 89.06 C 17.04 90.14 17.31 91.19 17.67 92.23 C 18.42 94.50 19.81 96.51 21.56 98.13 C 24.73 101.40 29.21 104.03 33.97 103.02 C 55.66 102.99 77.35 103.00 99.04 103.03 C 102.69 102.99 105.95 100.65 108.44 98.13 C 110.19 96.51 111.57 94.50 112.34 92.23 C 112.69 91.19 112.97 90.14 113.16 89.06 C 113.86 89.04 115.26 89.01 115.97 88.99 C 115.95 89.71 115.92 91.15 115.91 91.87 C 115.55 93.10 115.21 94.32 114.91 95.57 C 114.26 96.64 113.61 97.73 112.96 98.81 C 110.66 100.90 108.39 103.02 105.99 105.00 C 88.43 107.16 70.65 105.47 53.00 106.00 C 43.36 105.66 33.53 106.92 24.01 104.98 C 21.64 102.97 19.36 100.87 17.04 98.81 C 16.39 97.73 15.74 96.64 15.08 95.57 C 14.79 94.32 14.45 93.10 14.09 91.87 C 14.07 91.15 14.03 89.71 14.02 88.99 Z" />
</g>
<g id="#ff0cabff">
<path fill="#ff0cab" opacity="1.00" d=" M 17.67 92.23 C 19.40 86.50 26.90 89.10 31.02 91.07 C 32.64 91.76 34.17 92.91 35.99 92.97 C 54.32 93.03 72.67 93.07 91.00 92.94 C 93.98 93.70 96.50 92.26 98.98 91.08 C 102.92 88.87 110.58 86.49 112.34 92.23 C 111.57 94.50 110.19 96.51 108.44 98.13 C 107.00 95.89 104.86 95.19 101.99 96.02 C 76.33 95.98 50.67 95.97 25.01 96.02 C 23.37 95.72 22.48 97.04 21.56 98.13 C 19.81 96.51 18.42 94.50 17.67 92.23 Z" />
</g>
<g id="#0b0b0bff">
</g>
<g id="#191919ff">
</g>
<g id="#ff06a9ff">
<path fill="#ff06a9" opacity="1.00" d=" M 21.56 98.13 C 22.48 97.04 23.37 95.72 25.01 96.02 C 50.67 95.97 76.33 95.98 101.99 96.02 C 104.86 95.19 107.00 95.89 108.44 98.13 C 105.95 100.65 102.69 102.99 99.04 103.03 C 77.35 103.00 55.66 102.99 33.97 103.02 C 29.21 104.03 24.73 101.40 21.56 98.13 Z" />
</g>
<g id="#282727ff">
</g>
<g id="#2e2e2eff">
</g>
</svg>
