<?xml version="1.0" encoding="UTF-8" ?>
<!DOCTYPE svg PUBLIC "-//W3C//DTD SVG 1.1//EN" "http://www.w3.org/Graphics/SVG/1.1/DTD/svg11.dtd">
<svg width="300pt" height="80pt" viewBox="0 0 300 80" version="1.1" xmlns="http://www.w3.org/2000/svg">
<path fill="#6c879b" opacity="1.00" d=" M 210.41 14.35 C 213.80 14.24 217.20 14.24 220.60 14.35 C 227.15 30.65 234.45 46.64 241.09 62.91 C 237.41 63.04 233.74 63.03 230.06 62.95 C 228.56 59.42 227.13 55.87 225.70 52.32 C 218.85 52.26 212.01 52.29 205.18 52.29 C 203.57 55.75 202.10 59.27 200.80 62.86 C 197.17 63.05 193.54 63.06 189.91 62.91 C 196.55 46.64 203.85 30.65 210.41 14.35 M 215.26 27.64 C 213.03 32.59 210.89 37.59 209.06 42.70 C 213.31 42.72 217.56 42.70 221.81 42.78 C 219.54 37.77 218.00 32.43 215.26 27.64 Z" />
<path fill="#6c879b" opacity="1.00" d=" M 0.71 14.71 C 13.90 14.50 27.10 14.51 40.29 14.71 C 40.47 17.86 40.47 21.03 40.29 24.18 C 35.50 24.36 30.72 24.31 25.94 24.24 C 25.44 37.11 25.78 50.00 25.77 62.88 C 22.26 63.04 18.74 63.04 15.23 62.88 C 15.22 50.00 15.56 37.11 15.07 24.24 C 10.28 24.31 5.50 24.36 0.72 24.18 C 0.53 21.03 0.54 17.87 0.71 14.71 Z" />
<path fill="#6c879b" opacity="1.00" d=" M 44.03 14.72 C 56.12 14.49 68.21 14.51 80.29 14.71 C 80.46 17.79 80.47 20.89 80.29 23.97 C 71.63 24.12 62.96 23.75 54.31 24.17 C 54.41 27.35 54.41 30.53 54.34 33.70 C 61.99 33.79 69.64 33.56 77.28 33.82 C 77.47 36.94 77.47 40.06 77.28 43.18 C 69.64 43.44 61.98 43.21 54.33 43.30 C 54.37 46.70 54.39 50.10 54.50 53.51 C 63.25 53.86 72.02 53.21 80.76 53.83 C 80.72 56.85 80.72 59.86 80.76 62.88 C 68.52 63.12 56.27 62.94 44.02 62.98 C 44.01 46.89 43.99 30.80 44.03 14.72 Z" />
<path fill="#6c879b" opacity="1.00" d=" M 88.00 14.98 C 89.63 14.99 91.26 14.99 92.90 15.00 C 101.58 24.40 110.20 33.84 119.00 43.12 C 127.95 33.98 136.53 24.47 145.17 15.03 C 146.78 15.00 148.39 14.98 150.00 14.97 C 150.01 30.99 150.01 47.01 150.00 63.03 C 148.33 63.01 146.66 63.00 144.99 62.98 C 144.97 49.25 145.09 35.52 144.92 21.79 C 135.87 30.51 127.71 40.11 118.90 49.07 C 110.10 40.29 101.76 31.06 93.21 22.04 C 93.10 35.68 93.29 49.32 93.11 62.97 C 91.41 63.00 89.70 63.01 88.00 63.03 C 87.99 47.01 87.99 31.00 88.00 14.98 Z" />
<path fill="#6e3a21" opacity="1.00" d=" M 92.90 15.00 C 110.32 14.82 127.75 15.22 145.17 15.03 C 136.53 24.47 127.95 33.98 119.00 43.12 C 110.20 33.84 101.58 24.40 92.90 15.00 Z" />
<path fill="#6c879b" opacity="1.00" d=" M 157.03 14.72 C 163.35 14.44 169.67 14.65 175.99 14.56 C 180.98 14.46 186.25 15.55 190.08 18.94 C 197.64 25.71 196.92 39.67 188.18 45.15 C 182.10 49.31 174.44 48.25 167.48 48.48 C 167.33 53.31 167.52 58.14 167.29 62.96 C 163.87 63.01 160.44 63.02 157.02 62.97 C 157.01 46.89 156.99 30.80 157.03 14.72 M 167.30 24.18 C 167.46 29.06 167.46 33.94 167.30 38.82 C 171.77 38.87 176.60 39.84 180.80 37.86 C 185.69 35.58 185.83 27.39 180.90 25.10 C 176.63 23.22 171.81 24.10 167.30 24.18 Z" />
<path fill="#6c879b" opacity="1.00" d=" M 245.71 14.72 C 249.13 14.52 252.55 14.52 255.97 14.72 C 256.01 30.80 255.99 46.89 255.98 62.98 C 252.56 63.02 249.14 63.01 245.72 62.97 C 245.50 46.89 245.50 30.80 245.71 14.72 Z" />
<path fill="#6c879b" opacity="1.00" d=" M 264.03 14.72 C 267.45 14.52 270.87 14.52 274.29 14.72 C 274.52 27.46 274.44 40.21 274.32 52.95 C 282.43 53.71 290.59 53.12 298.72 53.27 C 298.72 56.47 298.73 59.67 298.76 62.88 C 287.19 63.12 275.60 62.94 264.02 62.98 C 264.01 46.89 263.99 30.80 264.03 14.72 Z" />
<path fill="#205369" opacity="1.00" d=" M 93.21 22.04 C 101.76 31.06 110.10 40.29 118.90 49.07 C 127.71 40.11 135.87 30.51 144.92 21.79 C 145.09 35.52 144.97 49.25 144.99 62.98 C 127.70 62.73 110.40 63.13 93.11 62.97 C 93.29 49.32 93.10 35.68 93.21 22.04 Z" />
</svg>
