<?xml version="1.0" encoding="UTF-8" ?>
<!DOCTYPE svg PUBLIC "-//W3C//DTD SVG 1.1//EN" "http://www.w3.org/Graphics/SVG/1.1/DTD/svg11.dtd">
<svg width="275pt" height="295pt" viewBox="0 0 275 295" version="1.1" xmlns="http://www.w3.org/2000/svg">
<g id="#ffffffff">
</g>
<g id="#906140ff">
<path fill="#906140" opacity="1.00" d=" M 105.72 9.14 C 106.96 9.26 108.21 9.40 109.46 9.53 C 109.56 23.91 114.95 37.71 115.82 52.03 C 116.15 53.32 116.46 54.62 116.76 55.92 C 121.23 53.53 125.56 50.87 129.78 48.05 L 129.49 49.92 C 126.09 53.20 121.57 54.96 117.95 57.95 C 117.37 59.59 117.63 61.39 117.52 63.09 C 118.34 62.69 119.16 62.27 119.98 61.85 C 119.34 64.07 117.40 65.24 115.44 66.17 C 115.50 65.69 115.61 64.75 115.67 64.28 C 115.23 63.49 114.78 62.71 114.31 61.94 C 111.96 65.70 108.54 69.18 108.17 73.81 L 107.50 73.09 L 108.35 74.35 L 107.18 74.19 L 107.39 75.14 L 106.85 75.15 C 107.83 75.43 108.81 75.71 109.79 75.99 C 107.96 78.65 106.13 81.33 103.84 83.63 C 100.62 86.60 99.39 91.22 95.49 93.54 C 95.44 92.95 95.35 91.77 95.30 91.18 C 94.34 91.85 93.33 92.46 92.29 93.00 C 91.98 89.56 95.46 87.75 97.44 85.51 C 103.37 80.55 105.54 72.84 109.63 66.54 C 111.63 62.97 115.32 59.54 114.21 55.05 C 112.69 48.17 111.19 41.28 110.35 34.27 C 109.92 34.32 109.04 34.43 108.60 34.48 C 106.79 36.65 104.76 38.63 102.77 40.64 C 102.40 41.75 102.04 42.86 101.69 43.99 C 101.49 47.03 101.47 50.09 101.30 53.14 C 97.41 60.44 88.63 63.62 85.64 71.51 C 84.70 73.48 83.85 75.48 83.12 77.54 C 82.43 77.44 81.03 77.24 80.34 77.14 C 79.23 72.66 81.81 68.56 82.13 64.18 C 79.49 64.95 76.82 65.92 74.02 65.31 C 78.34 59.11 85.98 56.57 90.39 50.47 C 92.33 46.75 90.88 42.22 92.66 38.44 C 93.86 36.77 95.59 35.57 97.05 34.14 C 99.60 32.12 100.05 28.56 102.52 26.46 C 104.58 24.60 104.94 21.69 106.45 19.46 C 108.90 16.29 106.65 12.43 105.72 9.14 Z" />
</g>
<g id="#8b5f3eff">
<path fill="#8b5f3e" opacity="1.00" d=" M 151.18 29.42 C 151.63 29.49 152.52 29.62 152.97 29.68 C 150.22 33.65 146.93 37.19 143.65 40.71 C 143.57 41.31 143.42 42.50 143.34 43.10 L 142.68 44.14 C 141.92 46.70 141.76 49.40 141.07 51.98 C 138.56 53.93 135.01 52.91 132.21 54.18 C 128.53 55.92 125.50 58.73 122.46 61.39 C 122.00 61.23 121.07 60.92 120.60 60.76 C 124.33 56.20 128.88 52.36 132.85 48.00 C 132.08 48.41 130.53 49.21 129.76 49.62 L 130.67 47.42 C 134.68 44.19 139.53 41.93 142.84 37.86 C 145.26 34.72 148.23 32.06 151.18 29.42 Z" />
</g>
<g id="#a3724dff">
<path fill="#a3724d" opacity="1.00" d=" M 141.07 51.98 C 141.76 49.40 141.92 46.70 142.68 44.14 C 142.55 49.01 141.53 54.83 145.34 58.65 C 147.99 61.85 152.23 62.46 156.05 63.31 C 156.37 64.52 156.69 65.72 157.02 66.93 C 152.74 68.68 147.92 68.72 143.82 70.97 C 137.31 74.24 131.47 78.65 125.30 82.50 C 125.61 87.06 125.74 91.69 124.46 96.14 C 132.98 90.32 140.23 82.78 147.88 75.85 C 151.16 72.66 154.95 70.03 158.18 66.77 C 160.94 68.54 163.66 70.37 166.53 71.96 C 162.03 80.63 158.47 89.79 155.77 99.17 C 155.23 105.11 153.22 111.03 154.21 117.02 C 152.57 125.20 153.69 133.52 154.71 141.69 C 155.71 141.53 156.96 141.63 157.51 140.56 C 159.53 137.65 161.04 134.39 163.40 131.72 C 163.53 132.22 163.80 133.22 163.93 133.71 C 164.69 133.12 165.45 132.52 166.22 131.94 C 169.31 132.35 171.74 129.86 173.82 127.94 C 176.76 124.31 179.83 120.09 179.70 115.20 C 179.68 112.63 179.02 110.01 179.84 107.49 L 180.56 107.47 C 181.60 107.43 182.66 107.39 183.71 107.35 C 183.34 106.63 182.98 105.91 182.61 105.19 C 183.54 104.48 184.48 103.77 185.41 103.04 C 185.50 104.41 185.59 105.77 185.69 107.14 C 188.74 103.44 191.69 99.65 194.98 96.16 C 198.53 95.85 201.90 94.45 205.49 94.47 C 205.62 94.69 205.87 95.12 205.99 95.34 C 205.75 97.70 204.98 99.97 204.06 102.14 C 198.55 114.98 196.38 129.22 197.80 143.11 C 198.93 148.29 200.07 153.50 201.84 158.50 C 205.00 164.09 208.82 169.34 213.69 173.57 L 213.61 173.94 C 213.51 174.48 213.29 175.54 213.18 176.08 C 214.03 176.74 214.89 177.40 215.74 178.07 C 215.00 179.08 214.26 180.08 213.52 181.09 C 208.24 179.70 202.72 179.83 197.34 179.05 C 194.40 178.60 191.42 178.75 188.54 179.49 C 188.66 182.71 188.77 185.93 188.88 189.15 C 189.30 189.43 190.13 189.99 190.54 190.26 C 190.87 190.48 191.52 190.92 191.84 191.13 L 191.55 191.96 C 191.46 192.24 191.27 192.79 191.17 193.07 C 190.66 192.93 189.64 192.65 189.13 192.51 C 189.00 192.82 188.74 193.46 188.60 193.77 C 187.19 192.47 185.34 191.90 183.50 191.52 C 183.84 191.36 184.52 191.03 184.86 190.87 C 185.05 187.31 184.84 183.74 184.45 180.20 C 181.79 180.31 179.14 180.75 176.60 181.56 C 175.39 186.04 175.16 190.68 175.22 195.30 L 176.90 194.53 C 176.22 194.87 174.86 195.54 174.18 195.88 C 173.82 191.50 175.84 186.64 173.49 182.63 C 173.20 183.96 172.93 185.30 172.67 186.64 C 171.71 185.14 170.73 183.65 169.77 182.15 C 169.25 183.07 168.74 183.99 168.22 184.91 C 167.00 184.00 166.54 182.54 166.27 181.11 C 166.18 180.60 166.00 179.58 165.91 179.06 C 164.91 179.35 163.90 179.64 162.90 179.93 C 162.77 181.02 162.64 182.11 162.50 183.21 C 162.15 183.34 161.46 183.59 161.11 183.72 C 159.04 180.19 157.85 176.17 155.35 172.89 C 154.89 172.74 153.95 172.43 153.48 172.27 C 152.95 172.09 151.90 171.73 151.37 171.55 L 150.53 171.23 C 150.19 172.49 149.84 173.76 149.50 175.03 C 148.57 173.80 147.62 172.58 146.66 171.38 C 148.96 176.94 151.73 182.30 154.06 187.84 C 153.58 188.16 152.61 188.78 152.13 189.10 C 149.19 182.60 146.76 175.64 142.03 170.17 C 141.53 170.39 140.53 170.81 140.03 171.03 C 139.86 170.69 139.53 170.03 139.36 169.69 C 139.27 169.42 139.07 168.88 138.98 168.61 C 138.46 169.68 137.96 170.76 137.47 171.85 C 137.76 175.73 138.93 179.47 139.69 183.28 C 138.70 182.49 137.72 181.71 136.73 180.92 C 136.25 178.07 135.74 175.14 134.35 172.56 C 132.75 170.24 129.72 170.51 127.30 171.02 C 126.86 173.42 126.71 175.87 126.66 178.31 C 126.32 176.45 125.94 174.60 125.56 172.76 C 125.08 175.41 124.72 178.08 124.42 180.75 C 124.19 180.38 123.74 179.64 123.51 179.27 C 123.37 177.58 123.44 175.87 123.54 174.18 C 122.49 174.95 121.68 176.61 120.15 176.27 C 117.62 173.86 116.07 170.19 112.29 169.51 C 112.11 170.11 111.73 171.31 111.55 171.91 C 104.72 172.39 97.87 171.96 91.03 172.12 C 87.12 172.12 83.01 172.58 79.40 170.74 C 79.01 171.47 78.63 172.20 78.24 172.94 C 78.18 170.31 77.72 167.72 76.68 165.30 C 76.57 164.73 76.34 163.60 76.22 163.03 C 75.08 167.37 74.47 171.86 74.86 176.36 C 69.74 177.19 63.64 177.28 60.03 172.87 C 59.81 169.84 62.15 167.58 63.71 165.26 C 62.76 164.76 61.81 164.26 60.85 163.76 C 61.40 163.44 61.95 163.12 62.50 162.81 C 61.39 161.38 60.35 159.89 59.45 158.33 C 62.09 155.82 65.07 153.71 67.87 151.39 C 64.90 147.86 63.03 143.62 61.70 139.24 C 61.02 136.54 60.38 133.81 59.67 131.12 C 60.79 131.57 61.91 132.03 63.03 132.49 C 62.68 129.24 62.07 125.91 62.89 122.68 C 63.55 119.87 64.23 116.98 63.63 114.09 L 63.58 113.70 C 65.32 108.56 66.59 103.28 68.38 98.16 C 69.23 96.05 68.74 93.78 68.18 91.68 C 68.52 89.60 68.76 87.50 68.75 85.40 L 69.28 85.42 C 69.55 87.63 70.00 89.82 70.63 91.96 C 73.08 90.96 75.33 89.59 77.53 88.13 C 77.54 88.51 77.57 89.28 77.58 89.67 C 76.03 90.84 74.34 91.83 72.92 93.17 C 71.75 94.70 72.45 96.72 72.90 98.39 C 75.86 98.53 78.77 97.89 81.63 97.22 C 82.49 95.70 83.36 94.19 84.12 92.62 C 86.01 101.66 91.28 109.76 97.97 116.01 C 99.16 117.29 100.83 117.67 102.52 117.72 C 102.10 113.83 98.93 111.21 97.33 107.83 C 95.08 103.43 95.36 98.33 95.49 93.54 C 99.39 91.22 100.62 86.60 103.84 83.63 C 106.13 81.33 107.96 78.65 109.79 75.99 C 108.81 75.71 107.83 75.43 106.85 75.15 L 107.39 75.14 L 107.18 74.19 L 108.35 74.35 L 107.50 73.09 L 108.17 73.81 C 110.79 71.46 113.32 68.98 115.44 66.17 C 117.40 65.24 119.34 64.07 119.98 61.85 C 120.13 61.57 120.45 61.03 120.60 60.76 C 121.07 60.92 122.00 61.23 122.46 61.39 C 125.50 58.73 128.53 55.92 132.21 54.18 C 135.01 52.91 138.56 53.93 141.07 51.98 M 105.63 110.03 C 105.56 111.06 105.43 113.12 105.36 114.15 C 110.48 110.75 113.53 105.02 118.95 101.96 C 121.01 101.06 121.03 98.69 120.42 96.86 C 118.85 95.69 117.38 94.41 115.96 93.08 C 112.58 98.78 108.07 103.78 105.63 110.03 M 69.00 98.36 C 68.35 100.63 67.73 103.00 68.40 105.34 C 70.08 103.49 72.62 99.74 69.00 98.36 M 128.07 116.09 C 122.16 119.03 116.96 123.21 110.96 125.98 C 108.04 126.94 107.36 130.26 107.34 132.96 C 107.31 137.90 107.10 142.97 108.62 147.74 C 115.98 146.00 122.51 141.87 129.78 139.82 C 132.52 139.27 135.84 137.18 134.69 133.91 C 133.13 127.75 132.27 121.47 131.47 115.18 C 130.62 115.41 128.92 115.87 128.07 116.09 M 82.23 125.22 C 82.32 125.69 82.50 126.62 82.59 127.09 C 84.78 127.81 86.33 129.41 86.84 131.70 C 89.50 129.15 92.32 126.77 95.01 124.25 C 90.75 124.40 86.37 123.92 82.23 125.22 M 73.96 131.80 C 72.96 133.51 71.90 135.19 70.79 136.83 C 69.99 139.85 69.42 142.93 68.76 145.98 C 69.13 147.30 69.49 148.63 69.83 149.95 C 72.09 147.89 76.74 145.60 74.78 141.91 C 76.02 140.69 77.10 139.32 77.80 137.72 C 78.05 137.48 78.54 137.00 78.79 136.76 C 76.88 135.37 76.00 133.25 75.54 131.01 C 75.15 131.21 74.36 131.60 73.96 131.80 M 140.84 135.54 C 140.24 137.42 139.69 139.31 139.30 141.25 C 135.10 144.36 130.02 145.89 125.58 148.57 C 125.14 148.91 124.28 149.57 123.84 149.91 L 123.53 150.50 C 118.36 150.78 113.18 150.58 108.01 150.39 C 109.06 153.37 113.41 151.32 115.77 151.86 C 115.42 152.56 114.72 153.97 114.37 154.67 C 113.46 154.65 111.64 154.61 110.74 154.58 C 110.35 154.24 109.58 153.56 109.20 153.22 C 109.86 155.56 110.51 157.92 111.30 160.23 C 111.85 159.07 112.32 157.88 112.59 156.62 C 115.77 154.73 119.09 153.03 122.69 152.07 C 127.33 152.64 132.02 152.29 136.69 152.37 C 136.95 152.88 137.48 153.89 137.74 154.40 C 139.29 155.09 141.06 155.46 142.55 154.40 C 140.37 152.09 142.29 149.18 141.34 146.64 C 140.69 146.52 139.40 146.28 138.76 146.16 C 138.08 147.61 137.61 149.29 136.29 150.31 C 133.74 150.89 130.94 150.97 128.53 149.82 C 131.33 147.49 134.67 145.87 138.24 145.15 C 138.38 144.89 138.66 144.38 138.80 144.12 C 140.30 144.24 141.74 144.66 143.01 145.50 C 143.87 145.54 145.60 145.64 146.46 145.69 C 146.54 145.02 146.70 143.70 146.78 143.04 C 144.92 141.09 143.59 138.90 144.55 136.08 C 143.34 135.73 142.09 135.57 140.84 135.54 M 156.58 151.52 C 159.26 156.68 161.27 162.50 166.05 166.16 C 168.88 168.55 169.73 173.81 174.09 173.78 C 170.89 171.01 167.98 167.94 165.27 164.69 C 161.35 160.72 159.54 155.35 157.32 150.37 C 157.07 150.75 156.82 151.13 156.58 151.52 M 158.24 173.20 C 158.31 173.75 158.45 174.85 158.52 175.40 C 158.94 175.83 159.78 176.68 160.19 177.11 C 161.43 176.56 162.67 176.01 163.87 175.38 C 163.15 173.40 159.96 173.95 158.24 173.20 Z" />
</g>
<g id="#dbe0dcff">
<path fill="#dbe0dc" opacity="1.00" d=" M 129.85 47.58 C 130.06 47.54 130.46 47.46 130.67 47.42 L 129.76 49.62 C 130.53 49.21 132.08 48.41 132.85 48.00 C 128.88 52.36 124.33 56.20 120.60 60.76 C 120.45 61.03 120.13 61.57 119.98 61.85 C 119.16 62.27 118.34 62.69 117.52 63.09 C 117.63 61.39 117.37 59.59 117.95 57.95 C 121.57 54.96 126.09 53.20 129.49 49.92 L 129.78 48.05 L 129.85 47.58 Z" />
<path fill="#dbe0dc" opacity="1.00" d=" M 140.84 135.54 C 142.09 135.57 143.34 135.73 144.55 136.08 C 143.89 136.52 142.58 137.39 141.92 137.83 C 140.91 139.94 139.91 142.06 138.80 144.12 C 138.66 144.38 138.38 144.89 138.24 145.15 C 134.67 145.87 131.33 147.49 128.53 149.82 C 127.54 149.41 126.56 149.00 125.58 148.57 C 130.02 145.89 135.10 144.36 139.30 141.25 C 139.69 139.31 140.24 137.42 140.84 135.54 Z" />
<path fill="#dbe0dc" opacity="1.00" d=" M 201.22 215.03 C 203.01 215.01 205.30 215.57 203.81 217.80 C 203.31 217.70 202.32 217.49 201.82 217.39 C 201.67 216.80 201.37 215.62 201.22 215.03 Z" />
</g>
<g id="#8c5f3cff">
<path fill="#8c5f3c" opacity="1.00" d=" M 171.44 55.42 C 174.22 53.57 176.16 50.47 179.54 49.59 C 179.23 50.51 178.60 52.35 178.29 53.27 C 176.77 54.56 175.20 55.77 173.56 56.89 C 173.53 57.18 173.49 57.76 173.47 58.05 C 171.95 60.10 170.84 62.40 169.77 64.70 C 168.73 67.14 167.65 69.56 166.53 71.96 C 163.66 70.37 160.94 68.54 158.18 66.77 C 157.89 66.81 157.31 66.89 157.02 66.93 C 156.69 65.72 156.37 64.52 156.05 63.31 C 158.09 63.36 160.13 63.39 162.17 63.42 C 165.12 60.59 168.03 57.70 171.44 55.42 Z" />
</g>
<g id="#8c5e3dff">
<path fill="#8c5e3d" opacity="1.00" d=" M 59.44 57.87 C 61.04 60.73 62.16 63.82 63.17 66.94 C 63.98 70.01 65.00 73.02 65.80 76.10 C 66.69 79.23 68.03 82.22 68.75 85.40 C 68.76 87.50 68.52 89.60 68.18 91.68 C 66.73 88.25 65.68 84.69 64.68 81.11 C 64.23 83.23 63.73 85.35 63.55 87.51 C 63.25 91.30 62.95 95.09 62.47 98.86 C 62.39 98.30 62.23 97.16 62.15 96.59 C 61.98 89.04 65.06 81.29 62.85 73.90 C 61.41 74.45 60.49 75.62 59.82 76.95 C 56.94 83.01 55.09 89.47 54.24 96.12 C 53.09 99.31 53.73 102.92 51.86 105.89 C 51.56 107.66 49.76 107.52 48.37 107.80 C 49.91 104.41 50.76 100.75 50.49 97.01 C 50.30 91.17 51.78 85.47 52.67 79.73 C 53.50 74.53 57.13 70.44 58.68 65.50 C 59.21 62.99 59.10 60.40 59.44 57.87 Z" />
<path fill="#8c5e3d" opacity="1.00" d=" M 223.73 62.98 C 223.50 64.33 223.85 66.05 222.51 66.93 C 222.51 67.24 222.53 67.85 222.53 68.16 C 218.89 69.80 217.24 73.87 216.39 77.52 C 216.21 77.52 215.86 77.51 215.68 77.51 C 213.85 82.37 210.23 86.34 208.21 91.14 C 207.63 92.79 206.98 94.41 206.40 96.05 L 205.99 95.34 C 205.87 95.12 205.62 94.69 205.49 94.47 C 201.90 94.45 198.53 95.85 194.98 96.16 C 196.08 94.81 197.15 93.44 198.19 92.04 C 196.03 93.58 193.88 95.19 191.35 96.07 C 195.97 92.48 199.41 87.69 203.68 83.76 C 212.03 78.56 215.98 68.88 223.73 62.98 Z" />
</g>
<g id="#dfdfdfff">
<path fill="#dfdfdf" opacity="1.00" d=" M 114.31 61.94 C 114.78 62.71 115.23 63.49 115.67 64.28 C 115.61 64.75 115.50 65.69 115.44 66.17 C 113.32 68.98 110.79 71.46 108.17 73.81 C 108.54 69.18 111.96 65.70 114.31 61.94 Z" />
<path fill="#dfdfdf" opacity="1.00" d=" M 104.49 197.31 C 105.78 197.42 107.07 197.52 108.36 197.62 C 108.37 198.04 108.41 198.89 108.42 199.31 C 106.99 199.12 105.56 198.94 104.13 198.76 C 104.22 198.40 104.40 197.68 104.49 197.31 Z" />
</g>
<g id="#8b5e3dff">
<path fill="#8b5e3d" opacity="1.00" d=" M 185.20 65.91 C 185.45 64.33 186.25 62.92 187.00 61.53 C 187.45 64.30 188.24 67.40 186.70 69.98 C 186.91 74.67 186.65 79.36 186.16 84.02 C 185.34 86.33 185.51 88.80 185.53 91.20 C 187.60 92.94 187.95 95.52 187.72 98.07 C 188.52 97.69 190.11 96.93 190.91 96.54 L 190.62 97.93 C 189.10 99.85 187.32 101.53 185.41 103.04 C 184.48 103.77 183.54 104.48 182.61 105.19 C 182.98 105.91 183.34 106.63 183.71 107.35 C 182.66 107.39 181.60 107.43 180.56 107.47 C 180.59 106.70 180.66 105.17 180.69 104.40 C 177.72 101.78 177.68 97.61 177.67 93.95 C 178.98 93.01 180.29 92.08 181.66 91.23 C 183.18 82.85 183.45 74.26 185.20 65.91 Z" />
</g>
<g id="#fefefdff">
</g>
<g id="#8e603fff">
<path fill="#8e603f" opacity="1.00" d=" M 81.02 85.05 C 83.65 83.53 83.78 79.54 87.02 78.86 C 86.22 80.39 85.27 81.86 84.58 83.46 C 84.06 86.48 84.57 89.58 84.12 92.62 C 83.36 94.19 82.49 95.70 81.63 97.22 C 78.77 97.89 75.86 98.53 72.90 98.39 C 74.64 95.59 76.78 92.92 77.58 89.67 C 77.57 89.28 77.54 88.51 77.53 88.13 C 78.50 87.02 79.77 85.95 81.02 85.05 Z" />
</g>
<g id="#fefeffff">
<path fill="#fefeff" opacity="1.00" d=" M 128.07 116.09 C 128.92 115.87 130.62 115.41 131.47 115.18 C 132.27 121.47 133.13 127.75 134.69 133.91 C 135.84 137.18 132.52 139.27 129.78 139.82 C 122.51 141.87 115.98 146.00 108.62 147.74 C 107.10 142.97 107.31 137.90 107.34 132.96 C 107.36 130.26 108.04 126.94 110.96 125.98 C 116.96 123.21 122.16 119.03 128.07 116.09 M 120.20 130.23 C 120.96 130.97 121.73 131.70 122.49 132.44 C 122.99 132.44 124.00 132.43 124.50 132.42 C 125.18 131.79 125.87 131.16 126.56 130.54 C 126.64 128.69 126.87 126.29 124.89 125.33 C 122.28 125.12 120.93 128.18 120.20 130.23 M 113.84 133.55 C 114.67 133.56 116.32 133.58 117.15 133.59 C 119.65 132.66 119.93 130.27 119.35 127.92 C 116.81 129.02 113.30 129.96 113.84 133.55 M 109.65 132.84 C 109.24 134.64 109.40 136.47 109.70 138.27 C 110.95 138.34 112.20 138.41 113.45 138.49 C 113.43 137.73 113.40 136.23 113.38 135.47 C 114.64 135.10 115.91 134.72 117.17 134.34 C 116.32 134.49 114.62 134.81 113.77 134.96 C 113.01 134.14 112.26 133.32 111.51 132.49 C 111.05 132.58 110.11 132.75 109.65 132.84 M 124.43 138.39 C 123.90 140.02 124.46 140.59 126.09 140.09 C 126.61 138.46 126.05 137.89 124.43 138.39 M 120.50 139.21 C 119.59 140.63 121.88 142.42 123.05 141.17 C 123.93 139.79 121.59 137.92 120.50 139.21 M 114.36 141.59 C 113.13 142.63 114.54 145.37 116.06 144.17 C 117.26 143.13 115.81 140.50 114.36 141.59 M 112.27 143.62 C 110.84 146.66 115.60 143.70 112.27 143.62 Z" />
</g>
<g id="#c0aea2ff">
<path fill="#c0aea2" opacity="1.00" d=" M 63.55 87.51 C 65.25 90.79 64.67 94.60 63.69 98.01 C 62.22 103.06 61.53 108.70 63.58 113.70 L 63.63 114.09 C 62.86 114.43 62.09 114.76 61.32 115.10 C 60.90 113.87 60.49 112.63 60.10 111.39 C 60.12 106.15 61.24 100.91 61.64 95.67 L 62.15 96.59 C 62.23 97.16 62.39 98.30 62.47 98.86 C 62.95 95.09 63.25 91.30 63.55 87.51 Z" />
<path fill="#c0aea2" opacity="1.00" d=" M 74.86 176.36 C 74.47 171.86 75.08 167.37 76.22 163.03 C 76.34 163.60 76.57 164.73 76.68 165.30 C 75.72 170.95 76.71 176.60 77.62 182.19 C 76.42 180.39 75.38 178.47 74.86 176.36 Z" />
<path fill="#c0aea2" opacity="1.00" d=" M 153.61 220.21 C 156.08 218.89 158.59 217.60 161.30 216.83 C 160.42 218.67 158.60 219.61 156.91 220.57 L 156.25 220.95 C 155.59 220.76 154.27 220.40 153.61 220.21 Z" />
</g>
<g id="#e4e1e3ff">
</g>
<g id="#fbfeffff">
</g>
<g id="#d4cdc7ff">
<path fill="#d4cdc7" opacity="1.00" d=" M 191.35 96.07 C 193.88 95.19 196.03 93.58 198.19 92.04 C 197.15 93.44 196.08 94.81 194.98 96.16 C 191.69 99.65 188.74 103.44 185.69 107.14 C 185.59 105.77 185.50 104.41 185.41 103.04 C 187.32 101.53 189.10 99.85 190.62 97.93 L 190.91 96.54 C 190.93 96.46 190.97 96.30 190.98 96.22 L 191.35 96.07 Z" />
<path fill="#d4cdc7" opacity="1.00" d=" M 99.54 227.37 C 100.53 226.32 103.57 227.26 102.28 228.88 C 101.32 230.05 98.38 228.88 99.54 227.37 Z" />
<path fill="#d4cdc7" opacity="1.00" d=" M 63.58 229.45 C 65.13 229.02 66.66 228.52 68.21 228.07 C 67.77 230.32 66.36 232.04 64.57 233.39 C 63.33 232.98 62.08 232.59 60.86 232.15 C 62.23 231.98 63.61 231.84 64.99 231.70 C 63.73 231.26 62.25 231.06 61.42 229.89 L 62.31 229.72 C 62.62 229.65 63.26 229.52 63.58 229.45 Z" />
<path fill="#d4cdc7" opacity="1.00" d=" M 255.07 256.90 C 255.92 257.31 256.77 257.76 257.60 258.23 C 261.34 259.57 260.92 264.01 260.41 267.17 C 260.50 264.91 260.29 262.59 259.00 260.66 C 257.01 263.70 256.89 267.59 258.50 270.82 C 257.67 271.65 256.76 272.43 255.89 273.23 C 255.72 268.79 255.58 264.29 256.69 259.95 C 256.16 258.92 255.62 257.90 255.07 256.90 Z" />
<path fill="#d4cdc7" opacity="1.00" d=" M 228.32 261.97 C 229.81 264.28 230.45 267.00 230.83 269.70 C 230.92 271.10 231.01 272.51 231.17 273.91 C 226.69 275.81 222.21 277.72 217.86 279.89 C 216.12 280.98 214.61 279.10 213.63 277.92 C 214.45 278.06 216.09 278.36 216.91 278.50 C 220.68 276.55 224.38 274.37 228.59 273.47 C 228.57 269.64 228.49 265.80 228.32 261.97 Z" />
</g>
<g id="#d1b7a4ff">
<path fill="#d1b7a4" opacity="1.00" d=" M 69.00 98.36 C 72.62 99.74 70.08 103.49 68.40 105.34 C 67.73 103.00 68.35 100.63 69.00 98.36 Z" />
</g>
<g id="#966643ff">
<path fill="#966643" opacity="1.00" d=" M 173.83 116.72 C 175.27 114.22 177.16 112.02 179.21 110.00 C 178.38 115.68 173.16 119.15 170.88 124.17 C 173.85 121.87 175.49 118.43 177.86 115.61 C 178.32 115.50 179.24 115.30 179.70 115.20 C 179.83 120.09 176.76 124.31 173.82 127.94 C 171.74 129.86 169.31 132.35 166.22 131.94 C 165.45 132.52 164.69 133.12 163.93 133.71 C 163.80 133.22 163.53 132.22 163.40 131.72 C 166.95 126.77 170.85 122.05 173.83 116.72 Z" />
</g>
<g id="#9a6b48ff">
<path fill="#9a6b48" opacity="1.00" d=" M 60.10 111.39 C 60.49 112.63 60.90 113.87 61.32 115.10 C 62.09 114.76 62.86 114.43 63.63 114.09 C 64.23 116.98 63.55 119.87 62.89 122.68 C 62.07 125.91 62.68 129.24 63.03 132.49 C 61.91 132.03 60.79 131.57 59.67 131.12 C 59.32 142.71 57.13 154.19 57.30 165.80 C 58.49 165.12 59.67 164.44 60.85 163.76 C 61.81 164.26 62.76 164.76 63.71 165.26 C 62.15 167.58 59.81 169.84 60.03 172.87 C 63.64 177.28 69.74 177.19 74.86 176.36 C 75.38 178.47 76.42 180.39 77.62 182.19 C 76.71 176.60 75.72 170.95 76.68 165.30 C 77.72 167.72 78.18 170.31 78.24 172.94 C 78.63 172.20 79.01 171.47 79.40 170.74 C 83.01 172.58 87.12 172.12 91.03 172.12 C 97.87 171.96 104.72 172.39 111.55 171.91 C 111.73 171.31 112.11 170.11 112.29 169.51 C 116.07 170.19 117.62 173.86 120.15 176.27 C 121.68 176.61 122.49 174.95 123.54 174.18 C 123.44 175.87 123.37 177.58 123.51 179.27 C 123.74 179.64 124.19 180.38 124.42 180.75 C 124.64 181.13 125.09 181.88 125.32 182.26 C 125.69 182.35 126.45 182.54 126.82 182.64 C 127.53 184.05 128.22 185.48 129.00 186.85 C 127.61 186.15 126.28 185.34 124.98 184.49 C 125.28 185.87 125.57 187.25 125.86 188.64 C 122.64 189.87 118.81 188.80 117.42 185.46 C 117.48 187.38 117.70 189.29 117.76 191.22 C 114.67 192.92 115.51 188.55 115.50 186.77 C 112.62 187.59 110.38 189.60 108.47 191.82 C 108.58 193.42 108.99 194.98 109.52 196.49 L 108.36 197.62 C 107.07 197.52 105.78 197.42 104.49 197.31 C 104.62 196.82 104.87 195.82 105.00 195.32 C 108.37 195.89 106.43 191.80 104.02 193.08 C 103.47 191.86 102.87 190.68 102.23 189.51 C 100.27 188.94 98.31 188.34 96.53 187.34 C 97.71 187.14 99.54 185.81 98.40 184.52 C 96.81 182.95 95.34 185.51 95.87 186.99 C 95.92 188.43 95.96 189.87 96.00 191.31 C 94.70 191.26 93.40 191.21 92.10 191.17 C 92.22 190.13 92.37 189.10 92.44 188.06 C 92.51 186.82 92.48 185.58 92.44 184.35 C 91.60 185.15 90.77 185.95 89.95 186.77 C 89.03 186.34 88.10 185.91 87.18 185.49 C 86.82 185.78 86.11 186.35 85.76 186.64 C 85.19 186.25 84.63 185.86 84.08 185.46 C 82.33 186.91 80.36 188.23 78.14 186.86 C 77.25 188.03 76.37 189.19 75.48 190.37 C 71.82 186.84 67.68 182.78 62.12 183.40 C 66.63 186.95 72.14 188.90 76.73 192.36 C 74.30 192.13 72.05 191.15 69.67 190.73 C 68.47 191.33 67.39 192.12 66.28 192.86 C 62.86 190.59 59.41 188.37 56.09 185.97 C 55.68 186.45 54.86 187.42 54.45 187.91 C 54.36 190.38 54.29 192.86 54.24 195.34 C 52.38 193.02 52.95 189.90 52.24 187.19 C 51.63 185.40 50.46 183.83 50.07 181.96 C 49.60 178.33 52.16 174.76 50.55 171.20 C 50.95 170.47 51.36 169.74 51.77 169.02 C 47.36 164.81 42.14 161.54 37.97 157.07 C 35.65 154.60 31.55 153.21 31.60 149.21 C 36.53 152.60 41.09 156.51 46.06 159.85 C 49.10 161.73 51.32 164.80 54.70 166.14 C 55.73 160.46 56.13 154.70 56.32 148.94 C 57.70 136.44 59.18 123.94 60.10 111.39 M 100.17 178.37 C 100.29 178.83 100.52 179.75 100.64 180.21 C 107.55 181.27 114.11 183.70 120.81 185.58 C 120.84 184.33 120.03 183.53 118.90 183.20 C 112.93 180.75 106.76 178.13 100.17 178.37 M 87.75 180.41 C 89.76 180.49 91.78 180.45 93.80 180.41 C 93.69 179.89 93.47 178.84 93.36 178.31 C 91.43 178.85 89.53 179.50 87.75 180.41 M 101.99 185.45 C 100.63 188.51 105.33 185.39 101.99 185.45 M 107.20 186.25 C 105.75 186.29 105.84 188.71 107.27 188.68 C 108.72 188.66 108.64 186.19 107.20 186.25 Z" />
</g>
<g id="#fefffeff">
</g>
<g id="#a2744fff">
<path fill="#a2744f" opacity="1.00" d=" M 120.20 130.23 C 120.93 128.18 122.28 125.12 124.89 125.33 C 126.87 126.29 126.64 128.69 126.56 130.54 C 125.87 131.16 125.18 131.79 124.50 132.42 C 124.00 132.43 122.99 132.44 122.49 132.44 C 121.73 131.70 120.96 130.97 120.20 130.23 Z" />
</g>
<g id="#9c6c46ff">
<path fill="#9c6c46" opacity="1.00" d=" M 113.84 133.55 C 113.30 129.96 116.81 129.02 119.35 127.92 C 119.93 130.27 119.65 132.66 117.15 133.59 C 116.32 133.58 114.67 133.56 113.84 133.55 Z" />
</g>
<g id="#fcfefdff">
<path fill="#fcfefd" opacity="1.00" d=" M 185.49 206.52 C 187.75 204.71 189.67 202.47 192.13 200.92 C 194.43 200.24 196.87 200.41 199.24 200.43 C 199.65 200.89 200.48 201.81 200.89 202.27 C 200.88 203.83 199.17 204.20 198.18 205.02 C 200.83 205.88 203.69 206.40 206.04 207.95 C 207.52 209.28 206.31 211.26 206.18 212.88 C 203.81 213.10 201.44 213.36 199.08 213.64 C 198.02 212.05 196.95 210.47 195.89 208.89 C 195.28 209.28 194.07 210.06 193.47 210.45 C 193.45 207.59 193.50 204.73 193.39 201.87 C 191.21 203.14 189.26 204.74 187.36 206.37 C 186.89 206.41 185.95 206.49 185.49 206.52 Z" />
<path fill="#fcfefd" opacity="1.00" d=" M 258.50 270.82 C 256.89 267.59 257.01 263.70 259.00 260.66 C 260.29 262.59 260.50 264.91 260.41 267.17 C 259.89 268.44 259.25 269.66 258.50 270.82 Z" />
</g>
<g id="#e5e4e2ff">
<path fill="#e5e4e2" opacity="1.00" d=" M 57.30 165.80 C 57.13 154.19 59.32 142.71 59.67 131.12 C 60.38 133.81 61.02 136.54 61.70 139.24 C 61.44 138.89 60.93 138.18 60.67 137.83 C 60.63 144.69 59.35 151.47 59.45 158.33 C 60.35 159.89 61.39 161.38 62.50 162.81 C 61.95 163.12 61.40 163.44 60.85 163.76 C 59.67 164.44 58.49 165.12 57.30 165.80 Z" />
<path fill="#e5e4e2" opacity="1.00" d=" M 112.44 192.22 C 117.25 195.57 118.56 201.75 119.94 207.09 C 118.89 206.52 117.71 205.95 117.41 204.67 C 115.76 200.51 114.50 196.20 112.44 192.22 Z" />
<path fill="#e5e4e2" opacity="1.00" d=" M 82.47 220.07 C 83.26 219.06 84.07 218.07 84.88 217.08 C 85.46 218.11 86.07 219.13 86.69 220.14 L 85.77 220.80 C 86.81 222.31 87.63 223.95 88.21 225.69 C 87.64 225.72 86.51 225.78 85.94 225.81 C 85.17 223.66 83.23 222.18 82.47 220.07 Z" />
</g>
<g id="#a27557ff">
<path fill="#a27557" opacity="1.00" d=" M 109.65 132.84 C 110.11 132.75 111.05 132.58 111.51 132.49 C 112.26 133.32 113.01 134.14 113.77 134.96 C 114.62 134.81 116.32 134.49 117.17 134.34 C 115.91 134.72 114.64 135.10 113.38 135.47 C 113.40 136.23 113.43 137.73 113.45 138.49 C 112.20 138.41 110.95 138.34 109.70 138.27 C 109.40 136.47 109.24 134.64 109.65 132.84 Z" />
</g>
<g id="#feffffff">
<path fill="#feffff" opacity="1.00" d=" M 141.92 137.83 C 142.58 137.39 143.89 136.52 144.55 136.08 C 143.59 138.90 144.92 141.09 146.78 143.04 C 146.70 143.70 146.54 145.02 146.46 145.69 C 145.60 145.64 143.87 145.54 143.01 145.50 C 141.74 144.66 140.30 144.24 138.80 144.12 C 139.91 142.06 140.91 139.94 141.92 137.83 Z" />
</g>
<g id="#9e8c81ff">
<path fill="#9e8c81" opacity="1.00" d=" M 124.43 138.39 C 126.05 137.89 126.61 138.46 126.09 140.09 C 124.46 140.59 123.90 140.02 124.43 138.39 Z" />
</g>
<g id="#8f6443ff">
<path fill="#8f6443" opacity="1.00" d=" M 120.50 139.21 C 121.59 137.92 123.93 139.79 123.05 141.17 C 121.88 142.42 119.59 140.63 120.50 139.21 Z" />
<path fill="#8f6443" opacity="1.00" d=" M 137.47 171.85 C 137.96 170.76 138.46 169.68 138.98 168.61 C 139.07 168.88 139.27 169.42 139.36 169.69 C 139.18 174.31 142.38 177.88 143.94 181.98 C 145.36 185.51 146.70 189.10 148.74 192.33 C 149.12 188.94 147.36 185.90 145.92 182.98 C 143.88 179.03 142.10 174.96 140.03 171.03 C 140.53 170.81 141.53 170.39 142.03 170.17 C 143.21 173.99 145.49 177.31 146.96 181.01 C 148.18 183.98 149.36 186.97 150.97 189.76 L 152.13 189.10 C 152.61 188.78 153.58 188.16 154.06 187.84 C 154.30 187.60 154.76 187.10 155.00 186.86 C 153.18 182.69 150.77 178.74 149.80 174.24 C 153.41 177.84 154.58 183.25 158.52 186.48 C 157.21 181.07 154.42 176.15 151.37 171.55 C 151.90 171.73 152.95 172.09 153.48 172.27 C 155.78 176.14 157.89 180.12 160.26 183.95 L 161.11 183.72 C 161.46 183.59 162.15 183.34 162.50 183.21 C 163.87 182.72 165.13 182.02 166.27 181.11 C 166.54 182.54 167.00 184.00 168.22 184.91 C 168.74 183.99 169.25 183.07 169.77 182.15 C 170.73 183.65 171.71 185.14 172.67 186.64 C 172.93 185.30 173.20 183.96 173.49 182.63 C 175.84 186.64 173.82 191.50 174.18 195.88 C 174.86 195.54 176.22 194.87 176.90 194.53 C 179.08 193.48 181.28 192.49 183.50 191.52 C 183.76 192.68 184.03 193.84 184.40 194.97 C 182.34 196.40 180.39 198.03 178.09 199.08 C 175.46 199.98 172.64 200.17 170.06 201.22 C 168.50 200.09 166.94 198.95 165.39 197.82 C 166.21 197.05 167.08 196.34 167.82 195.48 C 166.38 194.72 164.84 194.21 163.24 193.95 C 162.36 192.97 161.49 191.98 160.62 190.99 C 160.66 192.21 160.72 193.44 160.71 194.66 L 159.82 195.38 C 159.04 194.54 158.27 193.70 157.50 192.86 C 157.62 194.23 157.74 195.59 157.88 196.96 C 157.29 197.45 156.69 197.93 156.08 198.41 C 157.14 196.41 154.09 193.55 153.57 196.71 C 153.47 197.06 153.27 197.76 153.17 198.11 C 152.35 196.26 149.89 197.47 150.52 199.27 C 150.14 199.29 149.37 199.32 148.98 199.34 C 147.85 197.29 147.06 195.08 146.33 192.87 C 143.98 185.61 139.53 179.22 137.47 171.85 M 163.01 188.78 C 162.84 190.86 163.63 192.98 165.98 193.18 C 165.89 191.17 164.76 189.68 163.01 188.78 M 167.23 189.28 C 165.95 190.78 168.64 192.32 169.58 190.80 C 170.80 189.30 168.18 187.80 167.23 189.28 Z" />
</g>
<g id="#a58973ff">
<path fill="#a58973" opacity="1.00" d=" M 114.36 141.59 C 115.81 140.50 117.26 143.13 116.06 144.17 C 114.54 145.37 113.13 142.63 114.36 141.59 Z" />
<path fill="#a58973" opacity="1.00" d=" M 127.30 171.02 C 129.72 170.51 132.75 170.24 134.35 172.56 C 135.74 175.14 136.25 178.07 136.73 180.92 L 136.75 181.06 C 136.13 183.52 135.71 186.02 135.12 188.49 C 133.70 183.10 133.00 177.56 132.41 172.03 C 130.71 171.69 129.00 171.36 127.30 171.02 Z" />
</g>
<g id="#af9f93ff">
<path fill="#af9f93" opacity="1.00" d=" M 112.27 143.62 C 115.60 143.70 110.84 146.66 112.27 143.62 Z" />
</g>
<g id="#fbffffff">
<path fill="#fbffff" opacity="1.00" d=" M 138.76 146.16 C 139.40 146.28 140.69 146.52 141.34 146.64 C 142.29 149.18 140.37 152.09 142.55 154.40 C 141.06 155.46 139.29 155.09 137.74 154.40 C 137.48 153.89 136.95 152.88 136.69 152.37 C 132.02 152.29 127.33 152.64 122.69 152.07 C 122.90 151.68 123.32 150.89 123.53 150.50 L 123.84 149.91 C 124.28 149.57 125.14 148.91 125.58 148.57 C 126.56 149.00 127.54 149.41 128.53 149.82 C 130.94 150.97 133.74 150.89 136.29 150.31 C 137.61 149.29 138.08 147.61 138.76 146.16 Z" />
</g>
<g id="#e9e9e5ff">
<path fill="#e9e9e5" opacity="1.00" d=" M 108.01 150.39 C 113.18 150.58 118.36 150.78 123.53 150.50 C 123.32 150.89 122.90 151.68 122.69 152.07 C 119.09 153.03 115.77 154.73 112.59 156.62 C 112.32 157.88 111.85 159.07 111.30 160.23 C 110.51 157.92 109.86 155.56 109.20 153.22 C 109.58 153.56 110.35 154.24 110.74 154.58 C 111.64 154.61 113.46 154.65 114.37 154.67 C 114.72 153.97 115.42 152.56 115.77 151.86 C 113.41 151.32 109.06 153.37 108.01 150.39 Z" />
<path fill="#e9e9e5" opacity="1.00" d=" M 123.71 198.53 C 129.72 199.64 134.33 204.25 140.19 205.93 C 137.66 207.05 135.05 205.26 132.64 204.56 C 129.47 203.00 125.15 202.18 123.71 198.53 Z" />
</g>
<g id="#bfa99bff">
<path fill="#bfa99b" opacity="1.00" d=" M 156.58 151.52 C 156.82 151.13 157.07 150.75 157.32 150.37 C 159.54 155.35 161.35 160.72 165.27 164.69 C 167.98 167.94 170.89 171.01 174.09 173.78 C 169.73 173.81 168.88 168.55 166.05 166.16 C 161.27 162.50 159.26 156.68 156.58 151.52 Z" />
<path fill="#bfa99b" opacity="1.00" d=" M 184.40 194.97 C 184.58 195.47 184.95 196.48 185.13 196.99 C 182.74 198.58 180.37 200.20 177.99 201.79 C 177.06 201.69 176.14 201.61 175.21 201.55 L 174.08 201.93 C 169.78 203.56 165.07 204.27 161.32 207.10 C 158.56 208.52 155.97 211.57 152.59 210.72 C 158.14 207.07 164.55 204.96 170.06 201.22 C 172.64 200.17 175.46 199.98 178.09 199.08 C 180.39 198.03 182.34 196.40 184.40 194.97 Z" />
</g>
<g id="#e1e0dcff">
<path fill="#e1e0dc" opacity="1.00" d=" M 119.36 194.96 C 122.16 198.80 122.32 203.77 124.71 207.81 C 124.40 207.82 123.80 207.85 123.49 207.86 C 121.65 203.74 119.25 199.62 119.36 194.96 Z" />
<path fill="#e1e0dc" opacity="1.00" d=" M 79.91 208.06 C 80.73 207.37 81.55 206.68 82.38 206.00 C 82.50 206.59 82.75 207.76 82.87 208.35 C 83.39 209.06 83.93 209.75 84.49 210.43 C 83.77 211.18 83.05 211.92 82.33 212.67 C 83.34 213.00 84.35 213.38 85.33 213.80 C 85.30 214.72 85.14 215.63 84.98 216.55 C 83.70 217.29 82.41 218.03 81.13 218.78 C 81.47 217.84 82.15 215.96 82.48 215.02 C 81.67 214.31 80.83 213.63 80.00 212.94 C 80.92 211.96 81.85 211.00 82.78 210.03 C 81.83 209.37 80.87 208.71 79.91 208.06 Z" />
<path fill="#e1e0dc" opacity="1.00" d=" M 235.41 225.75 C 237.36 225.84 239.86 224.90 241.30 226.71 C 242.04 227.47 242.75 228.26 243.44 229.08 C 242.57 230.56 241.68 232.05 240.77 233.52 C 237.76 233.41 234.71 233.19 231.81 232.30 C 232.39 232.05 233.53 231.56 234.10 231.32 C 235.25 231.53 236.42 231.85 237.60 231.66 C 239.95 231.27 239.33 228.07 239.64 226.44 C 238.95 227.07 237.58 228.33 236.89 228.96 C 236.34 227.91 235.84 226.84 235.41 225.75 Z" />
</g>
<g id="#895e3cff">
<path fill="#895e3c" opacity="1.00" d=" M 43.09 177.09 C 45.18 174.66 47.75 172.74 50.55 171.20 C 52.16 174.76 49.60 178.33 50.07 181.96 C 50.46 183.83 51.63 185.40 52.24 187.19 C 52.95 189.90 52.38 193.02 54.24 195.34 C 60.55 202.30 70.59 204.08 79.53 202.52 C 79.08 203.69 78.62 204.86 78.14 206.03 C 78.25 205.58 78.48 204.67 78.60 204.22 C 74.39 204.43 70.16 204.77 65.96 204.38 C 57.90 202.30 49.82 197.73 45.94 190.07 C 43.76 186.08 44.32 181.36 43.09 177.09 Z" />
</g>
<g id="#b4a393ff">
<path fill="#b4a393" opacity="1.00" d=" M 126.66 178.31 C 126.71 175.87 126.86 173.42 127.30 171.02 C 129.00 171.36 130.71 171.69 132.41 172.03 C 131.39 172.17 129.35 172.44 128.33 172.58 C 128.64 177.52 127.67 182.78 129.96 187.38 L 129.00 186.85 C 128.22 185.48 127.53 184.05 126.82 182.64 C 126.45 182.54 125.69 182.35 125.32 182.26 C 125.09 181.88 124.64 181.13 124.42 180.75 C 124.72 178.08 125.08 175.41 125.56 172.76 C 125.94 174.60 126.32 176.45 126.66 178.31 Z" />
<path fill="#b4a393" opacity="1.00" d=" M 163.64 215.01 C 168.00 212.24 172.68 210.01 177.04 207.21 C 178.33 207.36 179.64 207.52 180.93 207.76 C 187.55 212.79 194.98 216.58 201.94 221.11 C 198.30 219.48 194.89 217.41 191.58 215.21 C 187.20 212.28 182.14 210.63 177.77 207.70 C 173.27 210.53 168.95 213.87 163.64 215.01 Z" />
<path fill="#b4a393" opacity="1.00" d=" M 138.00 218.67 C 138.95 217.99 139.91 217.33 140.87 216.68 C 143.48 217.53 146.95 217.77 148.13 220.71 C 146.00 219.80 143.97 218.68 142.00 217.48 C 140.66 217.86 139.33 218.26 138.00 218.67 Z" />
</g>
<g id="#f4f2f3ff">
<path fill="#f4f2f3" opacity="1.00" d=" M 131.07 191.03 C 133.50 191.70 135.14 193.56 136.69 195.43 C 137.10 195.43 137.93 195.42 138.34 195.42 C 139.99 196.17 138.98 198.52 139.40 199.92 C 139.04 199.17 138.67 198.43 138.30 197.69 C 134.01 198.92 132.45 194.07 131.07 191.03 Z" />
<path fill="#f4f2f3" opacity="1.00" d=" M 102.80 201.47 C 105.81 201.09 109.25 200.92 111.05 203.86 C 108.23 203.76 104.67 203.99 102.80 201.47 Z" />
<path fill="#f4f2f3" opacity="1.00" d=" M 125.50 203.53 C 129.39 204.56 133.16 206.04 136.70 207.96 C 136.31 208.31 135.53 209.02 135.15 209.37 C 132.66 208.24 130.13 207.20 127.77 205.83 C 127.00 205.08 126.24 204.31 125.50 203.53 Z" />
<path fill="#f4f2f3" opacity="1.00" d=" M 93.32 212.30 C 102.57 212.47 111.92 214.50 120.15 218.82 C 119.34 219.10 117.73 219.67 116.92 219.95 C 111.34 218.58 106.12 215.83 100.33 215.21 C 98.03 214.99 95.73 214.93 93.44 214.71 C 93.41 214.11 93.35 212.90 93.32 212.30 Z" />
<path fill="#f4f2f3" opacity="1.00" d=" M 93.16 217.04 C 94.31 216.90 95.46 216.78 96.62 216.67 C 102.05 217.62 107.81 217.57 112.83 220.15 C 114.08 220.54 114.60 221.71 115.07 222.82 C 111.77 222.37 108.78 220.85 105.67 219.80 C 101.59 218.47 97.25 218.34 93.16 217.04 Z" />
<path fill="#f4f2f3" opacity="1.00" d=" M 235.08 258.09 C 236.82 258.72 238.57 259.38 240.33 259.99 C 240.36 261.66 240.38 263.34 240.37 265.02 C 238.75 264.17 237.17 263.25 235.68 262.21 C 235.53 261.18 235.23 259.12 235.08 258.09 Z" />
</g>
<g id="#fdfeffff">
</g>
<g id="#edf2f3ff">
<path fill="#edf2f3" opacity="1.00" d=" M 92.92 209.28 C 93.16 209.07 93.64 208.64 93.88 208.43 C 104.39 207.21 114.47 211.39 123.77 215.80 C 123.22 216.26 122.11 217.19 121.56 217.65 C 117.94 216.26 114.66 214.07 110.89 213.06 C 105.69 211.34 100.26 210.63 94.90 209.69 C 94.40 209.59 93.42 209.38 92.92 209.28 Z" />
<path fill="#edf2f3" opacity="1.00" d=" M 96.05 220.37 C 98.56 220.47 101.08 220.59 103.60 220.53 C 105.58 221.26 106.99 222.77 108.05 224.56 C 104.36 223.24 100.63 221.98 96.66 222.01 L 96.05 220.37 Z" />
</g>
<g id="#906241ff">
<path fill="#906241" opacity="1.00" d=" M 213.61 173.94 C 216.23 175.78 217.96 178.62 220.72 180.28 C 224.24 182.44 227.70 184.71 230.97 187.24 C 230.61 187.60 229.91 188.32 229.55 188.68 C 224.55 186.23 220.22 182.32 214.55 181.37 L 213.52 181.09 C 214.26 180.08 215.00 179.08 215.74 178.07 C 214.89 177.40 214.03 176.74 213.18 176.08 C 213.29 175.54 213.51 174.48 213.61 173.94 Z" />
</g>
<g id="#cdc4bcff">
<path fill="#cdc4bc" opacity="1.00" d=" M 188.54 179.49 C 191.42 178.75 194.40 178.60 197.34 179.05 C 202.72 179.83 208.24 179.70 213.52 181.09 L 214.55 181.37 C 207.68 182.22 200.88 180.01 193.99 180.24 C 192.53 180.37 190.25 179.86 189.79 181.79 C 189.92 184.62 190.34 187.43 190.54 190.26 C 190.13 189.99 189.30 189.43 188.88 189.15 C 188.77 185.93 188.66 182.71 188.54 179.49 Z" />
<path fill="#cdc4bc" opacity="1.00" d=" M 160.62 190.99 C 161.49 191.98 162.36 192.97 163.24 193.95 C 162.61 194.13 161.34 194.48 160.71 194.66 C 160.72 193.44 160.66 192.21 160.62 190.99 Z" />
<path fill="#cdc4bc" opacity="1.00" d=" M 144.68 204.93 C 146.65 204.44 148.63 203.96 150.61 203.48 L 150.88 204.14 C 149.35 205.05 147.83 205.96 146.32 206.88 C 145.67 206.74 144.39 206.45 143.74 206.31 C 143.98 205.96 144.45 205.27 144.68 204.93 Z" />
<path fill="#cdc4bc" opacity="1.00" d=" M 187.11 221.42 C 192.35 222.58 196.39 226.37 201.35 228.20 C 203.65 229.18 205.77 230.50 207.79 231.95 C 203.55 231.03 200.00 228.44 196.06 226.75 C 192.87 225.35 189.94 223.43 187.11 221.42 Z" />
<path fill="#cdc4bc" opacity="1.00" d=" M 100.93 250.89 C 102.68 251.19 104.52 251.46 105.93 252.66 C 105.12 252.65 103.50 252.64 102.69 252.63 C 102.19 254.91 101.71 257.18 101.25 259.47 C 101.14 256.60 101.09 253.74 100.93 250.89 Z" />
</g>
<g id="#cecac7ff">
<path fill="#cecac7" opacity="1.00" d=" M 142.83 199.41 C 143.96 198.65 145.94 199.55 145.88 200.98 C 145.21 203.11 141.30 201.17 142.83 199.41 Z" />
<path fill="#cecac7" opacity="1.00" d=" M 215.84 251.05 C 216.84 250.04 218.03 249.26 219.16 248.41 C 220.07 249.07 220.97 249.75 221.87 250.43 C 219.83 251.05 217.67 251.75 216.63 253.80 C 217.24 254.29 217.85 254.78 218.47 255.27 C 216.47 258.90 218.14 263.51 217.55 267.53 C 216.01 269.30 214.47 271.08 212.93 272.86 C 211.94 272.82 209.97 272.74 208.98 272.70 C 211.65 271.62 214.09 269.81 215.34 267.14 C 216.00 261.80 214.98 256.36 215.84 251.05 Z" />
<path fill="#cecac7" opacity="1.00" d=" M 97.86 253.37 L 99.13 251.82 C 99.53 258.03 99.17 264.27 99.49 270.49 C 99.67 274.60 99.55 278.72 99.50 282.84 L 97.63 282.60 C 97.87 272.86 97.25 263.09 97.86 253.37 Z" />
<path fill="#cecac7" opacity="1.00" d=" M 177.29 266.15 C 177.64 263.41 177.65 260.66 177.59 257.91 C 178.69 259.70 183.75 263.24 179.48 264.18 C 180.01 264.55 180.54 264.92 181.08 265.29 L 182.71 263.85 C 183.73 266.44 180.76 267.82 179.33 269.37 C 179.27 270.87 179.23 272.37 179.19 273.87 C 178.82 273.68 178.08 273.30 177.71 273.11 C 177.61 271.57 177.59 270.04 177.56 268.51 C 178.19 267.75 179.47 266.22 180.10 265.46 C 179.40 265.63 177.99 265.98 177.29 266.15 Z" />
</g>
<g id="#8a603fff">
<path fill="#8a603f" opacity="1.00" d=" M 136.73 180.92 C 137.72 181.71 138.70 182.49 139.69 183.28 C 140.55 187.13 140.89 191.11 142.07 194.89 C 143.39 197.03 145.71 198.29 147.90 199.38 C 148.17 199.37 148.71 199.35 148.98 199.34 C 149.37 199.32 150.14 199.29 150.52 199.27 C 151.07 199.35 152.16 199.52 152.70 199.60 C 152.82 199.23 153.05 198.49 153.17 198.11 C 153.27 197.76 153.47 197.06 153.57 196.71 C 154.10 197.93 154.94 198.49 156.08 198.41 C 156.69 197.93 157.29 197.45 157.88 196.96 C 158.52 196.43 159.17 195.90 159.82 195.38 L 160.71 194.66 C 161.34 194.48 162.61 194.13 163.24 193.95 C 164.84 194.21 166.38 194.72 167.82 195.48 C 167.08 196.34 166.21 197.05 165.39 197.82 C 166.94 198.95 168.50 200.09 170.06 201.22 C 164.55 204.96 158.14 207.07 152.59 210.72 C 152.26 210.43 151.60 209.85 151.27 209.56 C 151.73 208.77 152.65 207.19 153.11 206.41 C 151.23 206.60 149.37 207.00 147.53 207.44 C 147.22 207.30 146.62 207.02 146.32 206.88 C 147.83 205.96 149.35 205.05 150.88 204.14 L 150.61 203.48 C 148.63 203.96 146.65 204.44 144.68 204.93 C 144.45 205.27 143.98 205.96 143.74 206.31 C 142.66 205.71 141.62 205.02 140.59 204.34 C 141.46 205.87 142.31 207.40 143.17 208.94 C 141.39 209.64 139.62 210.35 137.84 211.04 C 136.94 210.47 136.06 209.89 135.15 209.37 C 135.53 209.02 136.31 208.31 136.70 207.96 C 133.16 206.04 129.39 204.56 125.50 203.53 C 126.24 204.31 127.00 205.08 127.77 205.83 C 127.73 206.25 127.65 207.11 127.61 207.53 C 127.55 208.21 127.43 209.58 127.37 210.26 C 128.03 210.68 129.36 211.52 130.02 211.94 C 129.67 212.33 128.98 213.10 128.63 213.49 C 124.57 210.27 119.54 208.79 114.67 207.27 C 113.68 201.74 111.05 196.74 108.47 191.82 C 110.38 189.60 112.62 187.59 115.50 186.77 C 115.51 188.55 114.67 192.92 117.76 191.22 C 117.70 189.29 117.48 187.38 117.42 185.46 C 118.81 188.80 122.64 189.87 125.86 188.64 C 125.57 187.25 125.28 185.87 124.98 184.49 C 126.28 185.34 127.61 186.15 129.00 186.85 L 129.96 187.38 C 131.58 188.29 133.14 189.29 134.68 190.33 C 135.85 191.10 137.02 191.86 138.20 192.63 C 137.54 188.80 137.15 184.93 136.75 181.06 L 136.73 180.92 M 121.16 190.17 C 119.56 190.10 119.43 192.83 121.05 192.89 C 122.66 192.96 122.78 190.22 121.16 190.17 M 131.07 191.03 C 132.45 194.07 134.01 198.92 138.30 197.69 C 138.67 198.43 139.04 199.17 139.40 199.92 C 138.98 198.52 139.99 196.17 138.34 195.42 C 137.93 195.42 137.10 195.43 136.69 195.43 C 135.14 193.56 133.50 191.70 131.07 191.03 M 112.44 192.22 C 114.50 196.20 115.76 200.51 117.41 204.67 C 117.71 205.95 118.89 206.52 119.94 207.09 C 118.56 201.75 117.25 195.57 112.44 192.22 M 124.99 192.36 C 123.36 195.27 128.33 192.63 124.99 192.36 M 119.36 194.96 C 119.25 199.62 121.65 203.74 123.49 207.86 C 123.80 207.85 124.40 207.82 124.71 207.81 C 122.32 203.77 122.16 198.80 119.36 194.96 M 123.71 198.53 C 125.15 202.18 129.47 203.00 132.64 204.56 C 135.05 205.26 137.66 207.05 140.19 205.93 C 134.33 204.25 129.72 199.64 123.71 198.53 M 142.83 199.41 C 141.30 201.17 145.21 203.11 145.88 200.98 C 145.94 199.55 143.96 198.65 142.83 199.41 M 164.26 200.03 C 163.75 201.66 164.31 202.20 165.94 201.64 C 166.44 200.00 165.88 199.46 164.26 200.03 M 161.13 201.32 C 160.53 202.93 161.06 203.48 162.72 202.99 C 163.32 201.38 162.79 200.82 161.13 201.32 M 158.17 203.28 C 156.61 206.25 161.49 203.45 158.17 203.28 M 154.94 205.24 C 153.28 208.16 158.25 205.53 154.94 205.24 Z" />
</g>
<g id="#c2b1a3ff">
<path fill="#c2b1a3" opacity="1.00" d=" M 135.12 188.49 C 135.71 186.02 136.13 183.52 136.75 181.06 C 137.15 184.93 137.54 188.80 138.20 192.63 C 137.02 191.86 135.85 191.10 134.68 190.33 C 134.79 189.87 135.01 188.95 135.12 188.49 Z" />
</g>
<g id="#aa917fff">
<path fill="#aa917f" opacity="1.00" d=" M 95.87 186.99 C 95.34 185.51 96.81 182.95 98.40 184.52 C 99.54 185.81 97.71 187.14 96.53 187.34 L 95.87 186.99 Z" />
</g>
<g id="#895e3dff">
<path fill="#895e3d" opacity="1.00" d=" M 78.14 186.86 C 80.36 188.23 82.33 186.91 84.08 185.46 C 84.63 185.86 85.19 186.25 85.76 186.64 C 87.63 188.30 90.12 188.08 92.44 188.06 C 92.37 189.10 92.22 190.13 92.10 191.17 C 93.40 191.21 94.70 191.26 96.00 191.31 C 95.96 189.87 95.92 188.43 95.87 186.99 L 96.53 187.34 C 98.31 188.34 100.27 188.94 102.23 189.51 C 102.87 190.68 103.47 191.86 104.02 193.08 C 104.27 193.64 104.76 194.76 105.00 195.32 C 104.87 195.82 104.62 196.82 104.49 197.31 C 104.40 197.68 104.22 198.40 104.13 198.76 C 105.56 198.94 106.99 199.12 108.42 199.31 C 108.41 198.89 108.37 198.04 108.36 197.62 L 109.52 196.49 C 111.11 200.13 113.57 203.48 113.97 207.55 C 109.16 205.70 103.98 204.59 98.86 205.81 C 98.65 205.84 98.23 205.91 98.02 205.94 C 94.61 205.10 91.12 204.60 87.60 204.72 C 88.08 203.77 88.54 202.80 89.01 201.84 C 86.93 202.59 86.09 204.55 85.47 206.51 C 85.05 206.14 84.63 205.78 84.21 205.42 C 83.76 206.39 83.31 207.36 82.87 208.35 C 82.75 207.76 82.50 206.59 82.38 206.00 C 81.55 206.68 80.73 207.37 79.91 208.06 C 77.02 210.32 77.98 214.32 77.48 217.51 L 77.10 217.62 C 77.23 213.76 76.35 209.63 78.14 206.03 C 78.62 204.86 79.08 203.69 79.53 202.52 C 75.07 199.36 70.66 196.13 66.28 192.86 C 67.39 192.12 68.47 191.33 69.67 190.73 C 72.05 191.15 74.30 192.13 76.73 192.36 C 77.45 192.46 78.18 192.56 78.92 192.66 C 77.76 191.92 76.59 191.18 75.48 190.37 C 76.37 189.19 77.25 188.03 78.14 186.86 M 84.14 191.81 C 85.63 192.41 87.12 193.02 88.61 193.65 C 88.61 192.54 88.60 191.44 88.59 190.34 C 87.11 190.83 85.63 191.33 84.14 191.81 M 102.80 201.47 C 104.67 203.99 108.23 203.76 111.05 203.86 C 109.25 200.92 105.81 201.09 102.80 201.47 Z" />
</g>
<g id="#af9179ff">
<path fill="#af9179" opacity="1.00" d=" M 87.18 185.49 C 88.10 185.91 89.03 186.34 89.95 186.77 C 90.77 185.95 91.60 185.15 92.44 184.35 C 92.48 185.58 92.51 186.82 92.44 188.06 C 90.12 188.08 87.63 188.30 85.76 186.64 C 86.11 186.35 86.82 185.78 87.18 185.49 Z" />
</g>
<g id="#c7a58bff">
<path fill="#c7a58b" opacity="1.00" d=" M 101.99 185.45 C 105.33 185.39 100.63 188.51 101.99 185.45 Z" />
</g>
<g id="#b48d70ff">
<path fill="#b48d70" opacity="1.00" d=" M 107.20 186.25 C 108.64 186.19 108.72 188.66 107.27 188.68 C 105.84 188.71 105.75 186.29 107.20 186.25 Z" />
</g>
<g id="#d2c5bcff">
<path fill="#d2c5bc" opacity="1.00" d=" M 230.97 187.24 C 232.12 187.14 231.49 188.97 231.90 189.64 C 231.16 189.61 229.66 189.56 228.91 189.53 C 229.07 189.32 229.39 188.89 229.55 188.68 C 229.91 188.32 230.61 187.60 230.97 187.24 Z" />
</g>
<g id="#b59379ff">
<path fill="#b59379" opacity="1.00" d=" M 163.01 188.78 C 164.76 189.68 165.89 191.17 165.98 193.18 C 163.63 192.98 162.84 190.86 163.01 188.78 Z" />
</g>
<g id="#a7866cff">
<path fill="#a7866c" opacity="1.00" d=" M 167.23 189.28 C 168.18 187.80 170.80 189.30 169.58 190.80 C 168.64 192.32 165.95 190.78 167.23 189.28 Z" />
</g>
<g id="#9e7c63ff">
<path fill="#9e7c63" opacity="1.00" d=" M 121.16 190.17 C 122.78 190.22 122.66 192.96 121.05 192.89 C 119.43 192.83 119.56 190.10 121.16 190.17 Z" />
</g>
<g id="#eef5f5ff">
<path fill="#eef5f5" opacity="1.00" d=" M 109.52 196.49 C 108.99 194.98 108.58 193.42 108.47 191.82 C 111.05 196.74 113.68 201.74 114.67 207.27 C 119.54 208.79 124.57 210.27 128.63 213.49 C 127.62 213.97 126.59 214.43 125.55 214.85 C 117.39 210.07 108.26 206.91 98.86 205.81 C 103.98 204.59 109.16 205.70 113.97 207.55 C 113.57 203.48 111.11 200.13 109.52 196.49 Z" />
</g>
<g id="#bea593ff">
<path fill="#bea593" opacity="1.00" d=" M 124.99 192.36 C 128.33 192.63 123.36 195.27 124.99 192.36 Z" />
</g>
<g id="#875c3dff">
<path fill="#875c3d" opacity="1.00" d=" M 183.50 191.52 C 185.34 191.90 187.19 192.47 188.60 193.77 C 189.40 195.00 191.13 194.54 191.17 193.07 C 191.27 192.79 191.46 192.24 191.55 191.96 C 193.83 193.19 196.17 194.56 197.08 197.15 C 198.00 197.48 198.92 197.82 199.84 198.15 L 199.80 198.30 C 199.66 198.84 199.38 199.90 199.24 200.43 C 196.87 200.41 194.43 200.24 192.13 200.92 C 189.67 202.47 187.75 204.71 185.49 206.52 C 183.75 206.18 182.20 205.25 180.61 204.52 C 180.72 205.60 180.82 206.68 180.93 207.76 C 179.64 207.52 178.33 207.36 177.04 207.21 C 175.97 205.49 174.99 203.73 174.08 201.93 L 175.21 201.55 C 176.14 201.61 177.06 201.69 177.99 201.79 C 180.37 200.20 182.74 198.58 185.13 196.99 C 184.95 196.48 184.58 195.47 184.40 194.97 C 184.03 193.84 183.76 192.68 183.50 191.52 M 183.53 205.18 C 186.99 204.52 189.65 201.74 191.25 198.73 C 188.06 199.87 185.06 202.10 183.53 205.18 Z" />
</g>
<g id="#b89d8aff">
<path fill="#b89d8a" opacity="1.00" d=" M 189.13 192.51 C 189.64 192.65 190.66 192.93 191.17 193.07 C 191.13 194.54 189.40 195.00 188.60 193.77 C 188.74 193.46 189.00 192.82 189.13 192.51 Z" />
</g>
<g id="#b5aaa2ff">
<path fill="#b5aaa2" opacity="1.00" d=" M 104.02 193.08 C 106.43 191.80 108.37 195.89 105.00 195.32 C 104.76 194.76 104.27 193.64 104.02 193.08 Z" />
</g>
<g id="#f8f0e9ff">
<path fill="#f8f0e9" opacity="1.00" d=" M 157.88 196.96 C 157.74 195.59 157.62 194.23 157.50 192.86 C 158.27 193.70 159.04 194.54 159.82 195.38 C 159.17 195.90 158.52 196.43 157.88 196.96 Z" />
<path fill="#f8f0e9" opacity="1.00" d=" M 97.34 223.39 C 99.27 223.86 101.20 224.34 103.15 224.76 L 103.91 225.16 C 105.26 225.46 106.60 225.82 107.94 226.18 C 106.39 226.76 104.84 227.32 103.28 227.87 C 103.37 227.52 103.56 226.82 103.65 226.46 C 101.64 226.16 99.66 225.72 97.69 225.22 C 97.60 224.77 97.43 223.85 97.34 223.39 Z" />
</g>
<g id="#d1b9a5ff">
<path fill="#d1b9a5" opacity="1.00" d=" M 153.57 196.71 C 154.09 193.55 157.14 196.41 156.08 198.41 C 154.94 198.49 154.10 197.93 153.57 196.71 Z" />
</g>
<g id="#bba898ff">
<path fill="#bba898" opacity="1.00" d=" M 150.52 199.27 C 149.89 197.47 152.35 196.26 153.17 198.11 C 153.05 198.49 152.82 199.23 152.70 199.60 C 152.16 199.52 151.07 199.35 150.52 199.27 Z" />
</g>
<g id="#b2a295ff">
<path fill="#b2a295" opacity="1.00" d=" M 183.53 205.18 C 185.06 202.10 188.06 199.87 191.25 198.73 C 189.65 201.74 186.99 204.52 183.53 205.18 Z" />
</g>
<g id="#714c2fff">
<path fill="#714c2f" opacity="1.00" d=" M 199.24 200.43 C 199.38 199.90 199.66 198.84 199.80 198.30 C 202.08 198.27 202.81 200.56 203.78 202.14 C 204.72 204.33 207.30 204.86 209.16 206.04 C 210.43 208.97 211.48 212.54 209.45 215.41 C 206.54 215.63 207.61 219.08 207.61 221.04 C 207.69 222.26 207.78 223.47 207.87 224.69 C 205.56 224.21 203.19 222.93 200.82 223.67 C 200.87 225.19 201.13 226.70 201.35 228.20 C 196.39 226.37 192.35 222.58 187.11 221.42 C 186.79 221.89 186.14 222.84 185.82 223.31 C 184.28 222.83 182.74 222.35 181.19 221.89 C 182.10 222.57 183.00 223.26 183.91 223.94 C 182.16 223.85 180.39 223.57 178.64 223.84 C 175.59 224.96 173.15 227.34 169.98 228.22 C 169.61 227.93 168.87 227.36 168.50 227.08 C 170.46 225.50 172.68 224.30 174.89 223.11 C 171.27 223.29 167.59 223.83 164.01 223.03 C 161.88 222.55 159.70 222.47 157.53 222.60 C 157.32 221.92 157.11 221.25 156.91 220.57 C 158.60 219.61 160.42 218.67 161.30 216.83 C 158.59 217.60 156.08 218.89 153.61 220.21 C 154.27 220.40 155.59 220.76 156.25 220.95 C 154.98 221.64 153.71 222.33 152.40 222.94 C 152.10 222.54 151.49 221.72 151.19 221.32 C 149.16 222.36 147.14 223.40 145.11 224.43 C 144.16 223.44 143.23 222.45 142.32 221.44 C 141.59 221.91 140.87 222.37 140.16 222.84 C 139.48 222.48 138.81 222.13 138.14 221.78 C 133.47 223.80 128.32 223.34 123.36 223.61 C 122.88 223.19 121.93 222.33 121.45 221.91 C 123.81 220.43 124.73 218.03 124.43 215.34 L 125.55 214.85 C 126.59 214.43 127.62 213.97 128.63 213.49 C 128.98 213.10 129.67 212.33 130.02 211.94 C 131.18 211.56 132.83 211.64 132.92 210.04 C 131.22 209.06 129.40 208.32 127.61 207.53 C 127.65 207.11 127.73 206.25 127.77 205.83 C 130.13 207.20 132.66 208.24 135.15 209.37 C 136.06 209.89 136.94 210.47 137.84 211.04 C 139.62 210.35 141.39 209.64 143.17 208.94 C 142.31 207.40 141.46 205.87 140.59 204.34 C 141.62 205.02 142.66 205.71 143.74 206.31 C 144.39 206.45 145.67 206.74 146.32 206.88 C 146.62 207.02 147.22 207.30 147.53 207.44 C 148.78 208.13 150.02 208.85 151.27 209.56 C 151.60 209.85 152.26 210.43 152.59 210.72 C 155.97 211.57 158.56 208.52 161.32 207.10 C 165.07 204.27 169.78 203.56 174.08 201.93 C 174.99 203.73 175.97 205.49 177.04 207.21 C 172.68 210.01 168.00 212.24 163.64 215.01 C 168.95 213.87 173.27 210.53 177.77 207.70 C 182.14 210.63 187.20 212.28 191.58 215.21 C 194.89 217.41 198.30 219.48 201.94 221.11 C 194.98 216.58 187.55 212.79 180.93 207.76 C 180.82 206.68 180.72 205.60 180.61 204.52 C 182.20 205.25 183.75 206.18 185.49 206.52 C 185.95 206.49 186.89 206.41 187.36 206.37 C 189.26 204.74 191.21 203.14 193.39 201.87 C 193.50 204.73 193.45 207.59 193.47 210.45 C 194.07 210.06 195.28 209.28 195.89 208.89 C 196.95 210.47 198.02 212.05 199.08 213.64 C 201.44 213.36 203.81 213.10 206.18 212.88 C 206.31 211.26 207.52 209.28 206.04 207.95 C 203.69 206.40 200.83 205.88 198.18 205.02 C 199.17 204.20 200.88 203.83 200.89 202.27 C 200.48 201.81 199.65 200.89 199.24 200.43 M 201.22 215.03 C 201.37 215.62 201.67 216.80 201.82 217.39 C 202.32 217.49 203.31 217.70 203.81 217.80 C 205.30 215.57 203.01 215.01 201.22 215.03 M 138.00 218.67 C 139.33 218.26 140.66 217.86 142.00 217.48 C 143.97 218.68 146.00 219.80 148.13 220.71 C 146.95 217.77 143.48 217.53 140.87 216.68 C 139.91 217.33 138.95 217.99 138.00 218.67 Z" />
</g>
<g id="#9d7c64ff">
<path fill="#9d7c64" opacity="1.00" d=" M 164.26 200.03 C 165.88 199.46 166.44 200.00 165.94 201.64 C 164.31 202.20 163.75 201.66 164.26 200.03 Z" />
</g>
<g id="#a28772ff">
<path fill="#a28772" opacity="1.00" d=" M 161.13 201.32 C 162.79 200.82 163.32 201.38 162.72 202.99 C 161.06 203.48 160.53 202.93 161.13 201.32 Z" />
</g>
<g id="#795232ff">
<path fill="#795232" opacity="1.00" d=" M 85.47 206.51 C 86.09 204.55 86.93 202.59 89.01 201.84 C 88.54 202.80 88.08 203.77 87.60 204.72 C 91.12 204.60 94.61 205.10 98.02 205.94 C 96.57 206.66 95.15 207.43 93.88 208.43 C 93.64 208.64 93.16 209.07 92.92 209.28 C 93.42 209.38 94.40 209.59 94.90 209.69 C 93.47 211.10 92.13 212.60 90.94 214.22 C 91.56 214.34 92.81 214.59 93.44 214.71 C 95.73 214.93 98.03 214.99 100.33 215.21 C 99.10 215.71 97.86 216.20 96.62 216.67 C 95.46 216.78 94.31 216.90 93.16 217.04 C 97.25 218.34 101.59 218.47 105.67 219.80 C 105.15 219.98 104.12 220.35 103.60 220.53 C 101.08 220.59 98.56 220.47 96.05 220.37 L 96.66 222.01 C 95.21 221.65 93.86 221.01 92.52 220.39 C 91.61 220.78 90.70 221.17 89.80 221.57 C 89.91 221.03 90.15 219.93 90.27 219.39 C 90.92 219.13 92.23 218.61 92.89 218.35 C 92.00 218.01 91.12 217.67 90.23 217.34 C 89.08 218.31 87.91 219.26 86.69 220.14 C 86.07 219.13 85.46 218.11 84.88 217.08 L 84.98 216.55 C 85.14 215.63 85.30 214.72 85.33 213.80 C 84.35 213.38 83.34 213.00 82.33 212.67 C 83.05 211.92 83.77 211.18 84.49 210.43 C 83.93 209.75 83.39 209.06 82.87 208.35 C 83.31 207.36 83.76 206.39 84.21 205.42 C 84.63 205.78 85.05 206.14 85.47 206.51 Z" />
</g>
<g id="#af8d72ff">
<path fill="#af8d72" opacity="1.00" d=" M 158.17 203.28 C 161.49 203.45 156.61 206.25 158.17 203.28 Z" />
</g>
<g id="#bb9a80ff">
<path fill="#bb9a80" opacity="1.00" d=" M 154.94 205.24 C 158.25 205.53 153.28 208.16 154.94 205.24 Z" />
</g>
<g id="#8e7460ff">
<path fill="#8e7460" opacity="1.00" d=" M 98.86 205.81 C 108.26 206.91 117.39 210.07 125.55 214.85 L 124.43 215.34 C 124.73 218.03 123.81 220.43 121.45 221.91 C 119.50 222.86 117.46 223.61 115.39 224.27 C 117.23 221.35 120.51 220.01 123.28 218.17 L 122.36 217.93 L 121.56 217.65 C 122.11 217.19 123.22 216.26 123.77 215.80 C 114.47 211.39 104.39 207.21 93.88 208.43 C 95.15 207.43 96.57 206.66 98.02 205.94 C 98.23 205.91 98.65 205.84 98.86 205.81 Z" />
</g>
<g id="#b49a84ff">
<path fill="#b49a84" opacity="1.00" d=" M 147.53 207.44 C 149.37 207.00 151.23 206.60 153.11 206.41 C 152.65 207.19 151.73 208.77 151.27 209.56 C 150.02 208.85 148.78 208.13 147.53 207.44 Z" />
</g>
<g id="#5d3d22ff">
<path fill="#5d3d22" opacity="1.00" d=" M 77.48 217.51 C 77.98 214.32 77.02 210.32 79.91 208.06 C 80.87 208.71 81.83 209.37 82.78 210.03 C 81.85 211.00 80.92 211.96 80.00 212.94 C 80.83 213.63 81.67 214.31 82.48 215.02 C 82.15 215.96 81.47 217.84 81.13 218.78 C 82.41 218.03 83.70 217.29 84.98 216.55 L 84.88 217.08 C 84.07 218.07 83.26 219.06 82.47 220.07 C 83.23 222.18 85.17 223.66 85.94 225.81 C 86.51 225.78 87.64 225.72 88.21 225.69 C 87.63 223.95 86.81 222.31 85.77 220.80 L 86.69 220.14 C 87.91 219.26 89.08 218.31 90.23 217.34 C 91.12 217.67 92.00 218.01 92.89 218.35 C 92.23 218.61 90.92 219.13 90.27 219.39 C 90.15 219.93 89.91 221.03 89.80 221.57 C 90.70 221.17 91.61 220.78 92.52 220.39 C 93.86 221.01 95.21 221.65 96.66 222.01 C 100.63 221.98 104.36 223.24 108.05 224.56 C 106.99 222.77 105.58 221.26 103.60 220.53 C 104.12 220.35 105.15 219.98 105.67 219.80 C 108.78 220.85 111.77 222.37 115.07 222.82 C 114.60 221.71 114.08 220.54 112.83 220.15 C 107.81 217.57 102.05 217.62 96.62 216.67 C 97.86 216.20 99.10 215.71 100.33 215.21 C 106.12 215.83 111.34 218.58 116.92 219.95 C 117.73 219.67 119.34 219.10 120.15 218.82 C 120.88 218.51 121.62 218.22 122.36 217.93 L 123.28 218.17 C 120.51 220.01 117.23 221.35 115.39 224.27 C 117.46 223.61 119.50 222.86 121.45 221.91 C 121.93 222.33 122.88 223.19 123.36 223.61 C 128.32 223.34 133.47 223.80 138.14 221.78 C 138.81 222.13 139.48 222.48 140.16 222.84 C 140.87 222.37 141.59 221.91 142.32 221.44 C 143.23 222.45 144.16 223.44 145.11 224.43 C 145.34 224.65 145.81 225.09 146.05 225.31 C 148.20 224.63 150.32 223.83 152.40 222.94 C 153.71 222.33 154.98 221.64 156.25 220.95 L 156.91 220.57 C 157.11 221.25 157.32 221.92 157.53 222.60 C 159.70 222.47 161.88 222.55 164.01 223.03 C 167.59 223.83 171.27 223.29 174.89 223.11 C 172.68 224.30 170.46 225.50 168.50 227.08 C 168.87 227.36 169.61 227.93 169.98 228.22 C 173.15 227.34 175.59 224.96 178.64 223.84 C 180.39 223.57 182.16 223.85 183.91 223.94 C 183.00 223.26 182.10 222.57 181.19 221.89 C 182.74 222.35 184.28 222.83 185.82 223.31 C 186.14 222.84 186.79 221.89 187.11 221.42 C 189.94 223.43 192.87 225.35 196.06 226.75 C 200.00 228.44 203.55 231.03 207.79 231.95 C 205.77 230.50 203.65 229.18 201.35 228.20 C 201.13 226.70 200.87 225.19 200.82 223.67 C 203.19 222.93 205.56 224.21 207.87 224.69 C 207.78 223.47 207.69 222.26 207.61 221.04 C 210.82 222.64 214.11 224.07 217.46 225.34 C 222.43 227.29 226.71 230.67 231.81 232.30 C 234.71 233.19 237.76 233.41 240.77 233.52 C 241.68 232.05 242.57 230.56 243.44 229.08 C 242.75 228.26 242.04 227.47 241.30 226.71 C 239.86 224.90 237.36 225.84 235.41 225.75 C 235.84 226.84 236.34 227.91 236.89 228.96 C 237.58 228.33 238.95 227.07 239.64 226.44 C 239.33 228.07 239.95 231.27 237.60 231.66 C 236.42 231.85 235.25 231.53 234.10 231.32 C 232.10 229.60 230.52 225.91 232.93 223.89 C 235.20 221.18 239.08 221.99 241.91 223.20 C 246.14 224.47 247.59 229.20 248.48 233.05 C 247.60 234.25 247.49 235.75 247.17 237.15 C 246.28 237.66 245.59 238.36 245.10 239.26 C 243.71 239.45 242.36 239.78 241.03 240.22 C 238.39 240.40 235.73 240.39 233.10 240.15 L 232.10 239.55 C 231.12 239.09 230.10 238.80 229.04 238.67 C 174.11 238.58 119.15 238.84 64.20 238.58 C 64.67 237.79 65.13 237.01 65.59 236.23 C 65.06 236.09 64.01 235.82 63.48 235.69 C 63.84 234.92 64.20 234.15 64.57 233.39 C 66.36 232.04 67.77 230.32 68.21 228.07 C 66.66 228.52 65.13 229.02 63.58 229.45 C 63.26 229.52 62.62 229.65 62.31 229.72 C 63.81 226.62 65.09 223.14 68.03 221.09 C 70.62 218.98 73.92 218.26 77.10 217.62 L 77.48 217.51 M 73.51 220.18 C 74.17 221.26 76.40 222.09 77.71 222.38 C 78.67 220.10 75.03 218.87 73.51 220.18 M 97.34 223.39 C 97.43 223.85 97.60 224.77 97.69 225.22 C 99.66 225.72 101.64 226.16 103.65 226.46 C 103.56 226.82 103.37 227.52 103.28 227.87 C 104.84 227.32 106.39 226.76 107.94 226.18 C 106.60 225.82 105.26 225.46 103.91 225.16 L 103.15 224.76 C 101.20 224.34 99.27 223.86 97.34 223.39 M 73.51 226.18 C 73.49 227.81 76.00 229.35 77.52 228.77 C 77.69 227.10 74.99 225.65 73.51 226.18 M 87.36 227.24 C 86.39 228.52 88.56 230.21 89.55 228.93 C 90.48 227.66 88.34 225.98 87.36 227.24 M 99.54 227.37 C 98.38 228.88 101.32 230.05 102.28 228.88 C 103.57 227.26 100.53 226.32 99.54 227.37 Z" />
</g>
<g id="#fbfaf6ff">
<path fill="#fbfaf6" opacity="1.00" d=" M 127.61 207.53 C 129.40 208.32 131.22 209.06 132.92 210.04 C 132.83 211.64 131.18 211.56 130.02 211.94 C 129.36 211.52 128.03 210.68 127.37 210.26 C 127.43 209.58 127.55 208.21 127.61 207.53 Z" />
</g>
<g id="#735940ff">
<path fill="#735940" opacity="1.00" d=" M 94.90 209.69 C 100.26 210.63 105.69 211.34 110.89 213.06 C 114.66 214.07 117.94 216.26 121.56 217.65 L 122.36 217.93 C 121.62 218.22 120.88 218.51 120.15 218.82 C 111.92 214.50 102.57 212.47 93.32 212.30 C 93.35 212.90 93.41 214.11 93.44 214.71 C 92.81 214.59 91.56 214.34 90.94 214.22 C 92.13 212.60 93.47 211.10 94.90 209.69 Z" />
<path fill="#735940" opacity="1.00" d=" M 99.46 245.99 C 100.84 246.39 101.14 247.75 101.52 248.97 L 103.07 248.35 C 102.07 249.13 101.06 249.92 100.06 250.70 C 100.27 250.75 100.71 250.84 100.93 250.89 C 101.09 253.74 101.14 256.60 101.25 259.47 C 103.71 260.10 106.24 260.04 108.66 259.29 C 108.54 258.48 108.29 256.85 108.16 256.03 C 109.46 259.20 109.02 262.64 108.68 265.95 C 107.57 265.70 105.33 265.19 104.22 264.94 L 104.58 266.08 C 103.80 265.63 103.00 265.19 102.22 264.73 C 103.93 263.45 106.64 264.66 108.68 264.58 C 108.63 263.75 108.54 262.10 108.49 261.28 C 106.10 261.37 103.70 261.41 101.30 261.37 C 101.24 264.54 101.26 267.70 101.29 270.87 L 99.49 270.49 C 99.17 264.27 99.53 258.03 99.13 251.82 C 99.15 251.63 99.17 251.25 99.19 251.06 C 99.29 249.37 99.35 247.68 99.46 245.99 Z" />
</g>
<g id="#9a806cff">
<path fill="#9a806c" opacity="1.00" d=" M 73.51 220.18 C 75.03 218.87 78.67 220.10 77.71 222.38 C 76.40 222.09 74.17 221.26 73.51 220.18 Z" />
</g>
<g id="#8a6d56ff">
<path fill="#8a6d56" opacity="1.00" d=" M 151.19 221.32 C 151.49 221.72 152.10 222.54 152.40 222.94 C 150.32 223.83 148.20 224.63 146.05 225.31 C 145.81 225.09 145.34 224.65 145.11 224.43 C 147.14 223.40 149.16 222.36 151.19 221.32 Z" />
</g>
<g id="#8f745bff">
<path fill="#8f745b" opacity="1.00" d=" M 73.51 226.18 C 74.99 225.65 77.69 227.10 77.52 228.77 C 76.00 229.35 73.49 227.81 73.51 226.18 Z" />
</g>
<g id="#4b311aff">
<path fill="#4b311a" opacity="1.00" d=" M 53.55 227.04 C 56.75 227.49 57.79 231.33 60.86 232.15 C 62.08 232.59 63.33 232.98 64.57 233.39 C 64.20 234.15 63.84 234.92 63.48 235.69 C 64.01 235.82 65.06 236.09 65.59 236.23 C 65.13 237.01 64.67 237.79 64.20 238.58 C 119.15 238.84 174.11 238.58 229.04 238.67 C 230.10 238.80 231.12 239.09 232.10 239.55 C 175.73 239.57 119.36 239.55 62.99 239.57 C 58.33 239.57 53.63 239.31 49.03 240.24 C 45.80 239.43 41.43 240.67 39.54 237.21 C 39.67 234.98 40.06 232.78 40.78 230.66 C 41.69 230.68 43.52 230.73 44.44 230.76 C 44.47 231.46 44.53 232.85 44.56 233.55 C 45.21 233.77 46.49 234.22 47.13 234.44 C 50.03 232.71 53.08 230.71 53.55 227.04 Z" />
</g>
<g id="#98775fff">
<path fill="#98775f" opacity="1.00" d=" M 87.36 227.24 C 88.34 225.98 90.48 227.66 89.55 228.93 C 88.56 230.21 86.39 228.52 87.36 227.24 Z" />
</g>
<g id="#462c15ff">
<path fill="#462c15" opacity="1.00" d=" M 103.07 248.35 C 104.00 247.61 104.96 246.93 105.93 246.25 C 109.04 248.50 112.35 250.83 113.93 254.47 C 111.80 253.98 109.61 253.75 107.44 254.18 C 107.06 253.80 106.30 253.04 105.93 252.66 C 104.52 251.46 102.68 251.19 100.93 250.89 C 100.71 250.84 100.27 250.75 100.06 250.70 C 101.06 249.92 102.07 249.13 103.07 248.35 Z" />
</g>
<g id="#351f0bff">
<path fill="#351f0b" opacity="1.00" d=" M 198.09 248.47 C 202.76 243.32 209.80 250.42 214.94 246.06 C 213.09 247.93 210.43 249.55 210.24 252.44 L 209.29 252.56 C 209.37 253.15 209.53 254.33 209.61 254.93 L 209.22 254.89 C 209.38 258.97 209.38 263.06 209.26 267.15 C 208.89 268.33 208.52 269.51 208.17 270.70 C 207.41 271.77 206.65 272.83 205.93 273.93 C 208.19 272.09 210.43 269.93 211.05 266.96 C 211.76 262.28 210.67 257.46 211.66 252.80 C 213.36 249.14 217.60 248.03 221.07 246.72 C 223.07 245.79 225.08 247.24 226.55 248.49 C 228.49 250.10 227.36 252.89 227.37 255.03 C 226.04 255.55 225.64 257.05 224.46 257.74 L 224.55 258.46 C 224.05 258.58 223.05 258.80 222.54 258.92 C 224.36 260.03 226.46 260.81 228.32 261.97 C 228.49 265.80 228.57 269.64 228.59 273.47 C 224.38 274.37 220.68 276.55 216.91 278.50 C 216.09 278.36 214.45 278.06 213.63 277.92 C 210.49 276.92 207.15 277.21 203.92 277.41 C 202.26 277.24 201.21 278.59 200.14 279.60 C 200.85 280.84 201.35 282.17 201.66 283.57 C 200.61 283.51 199.56 283.46 198.52 283.40 C 197.04 278.66 202.26 275.79 204.02 271.94 C 203.88 271.36 203.60 270.21 203.46 269.63 C 201.99 269.63 200.53 269.63 199.07 269.62 C 199.84 267.01 201.92 265.81 204.55 265.92 C 204.22 264.49 203.36 263.38 202.18 262.54 C 200.54 262.65 198.90 262.73 197.27 262.79 C 198.28 260.26 200.64 259.03 203.32 259.30 C 203.51 256.97 203.63 254.27 205.78 252.83 C 206.51 252.16 207.26 251.52 208.00 250.87 C 204.61 250.48 201.25 249.78 198.09 248.47 M 215.84 251.05 C 214.98 256.36 216.00 261.80 215.34 267.14 C 214.09 269.81 211.65 271.62 208.98 272.70 C 209.97 272.74 211.94 272.82 212.93 272.86 C 214.45 273.10 215.98 273.36 217.51 273.64 C 217.51 271.60 217.52 269.56 217.55 267.53 C 218.14 263.51 216.47 258.90 218.47 255.27 C 218.59 257.24 218.67 259.22 218.71 261.20 C 222.13 258.78 224.71 254.33 221.87 250.43 C 220.97 249.75 220.07 249.07 219.16 248.41 C 218.03 249.26 216.84 250.04 215.84 251.05 M 218.51 265.43 C 220.10 265.48 221.69 265.50 223.29 265.49 C 222.83 264.07 223.08 261.38 220.92 261.33 C 218.88 261.56 218.33 263.70 218.51 265.43 M 218.58 266.29 C 218.58 267.03 218.58 268.52 218.58 269.27 C 220.12 269.28 221.67 269.29 223.21 269.31 C 223.16 268.58 223.04 267.14 222.98 266.41 C 221.51 266.31 220.05 266.27 218.58 266.29 M 218.65 270.53 C 218.63 271.48 218.59 273.38 218.57 274.32 C 220.04 274.92 221.54 274.52 222.98 274.09 C 222.87 272.82 222.75 271.56 222.63 270.31 C 221.63 270.36 219.64 270.48 218.65 270.53 Z" />
</g>
<g id="#3a210eff">
<path fill="#3a210e" opacity="1.00" d=" M 9.89 255.16 C 10.52 250.57 14.38 246.66 19.10 246.43 C 24.87 246.21 30.32 248.75 36.06 248.97 C 37.88 249.18 38.76 247.32 39.90 246.28 C 39.76 248.06 39.64 249.85 39.53 251.64 L 38.40 251.38 L 38.45 252.72 C 37.99 252.61 37.08 252.39 36.62 252.28 L 36.47 253.47 C 34.81 253.51 33.16 253.45 31.51 253.29 C 31.21 253.22 30.60 253.09 30.29 253.03 C 29.32 252.82 28.34 252.61 27.36 252.40 C 27.23 256.57 27.57 260.77 27.00 264.91 C 26.62 267.48 24.55 269.29 23.13 271.31 C 22.65 270.91 22.16 270.52 21.66 270.15 C 23.14 264.44 22.17 258.52 22.44 252.71 C 21.75 252.51 20.37 252.10 19.68 251.90 C 19.67 251.68 19.64 251.26 19.63 251.04 C 18.23 251.20 16.83 251.37 15.44 251.55 L 15.47 252.28 C 13.30 252.53 11.67 254.06 9.89 255.16 Z" />
</g>
<g id="#452a14ff">
<path fill="#452a14" opacity="1.00" d=" M 85.63 249.27 C 88.72 245.03 96.79 246.38 97.73 251.76 L 99.19 251.06 C 99.17 251.25 99.15 251.63 99.13 251.82 L 97.86 253.37 C 97.27 254.38 96.76 255.44 96.24 256.50 C 95.71 256.57 95.19 256.64 94.67 256.72 C 94.14 258.70 93.42 260.62 92.70 262.54 C 92.30 262.19 91.50 261.49 91.10 261.14 L 91.81 260.84 C 91.88 260.20 92.02 258.94 92.09 258.31 C 90.97 258.31 90.14 258.83 89.62 259.88 L 88.94 259.54 L 89.32 259.00 C 90.05 257.71 91.64 257.27 92.39 256.00 C 92.39 254.22 92.98 251.98 91.40 250.69 C 89.96 248.99 87.54 249.64 85.63 249.27 Z" />
</g>
<g id="#351f0dff">
<path fill="#351f0d" opacity="1.00" d=" M 122.43 247.31 C 123.19 247.31 124.71 247.31 125.47 247.32 C 125.05 248.24 124.64 249.17 124.26 250.11 C 123.07 250.90 122.17 251.97 121.21 253.00 C 121.52 251.08 121.89 249.17 122.43 247.31 Z" />
<path fill="#351f0d" opacity="1.00" d=" M 41.33 247.69 C 42.52 248.33 43.71 248.99 44.90 249.65 C 46.12 247.97 47.76 246.93 49.83 246.53 C 46.95 250.40 47.76 255.25 47.57 259.72 C 48.22 259.30 49.51 258.44 50.15 258.01 L 49.83 258.88 C 49.70 259.29 49.42 260.11 49.29 260.52 L 48.15 260.46 C 48.26 260.95 48.48 261.92 48.59 262.40 L 47.56 262.51 C 47.69 266.01 47.54 269.53 47.78 273.03 C 48.01 273.79 48.48 275.32 48.71 276.09 C 47.31 276.73 46.12 277.72 44.92 278.67 C 43.78 277.54 42.65 276.40 41.53 275.25 C 41.90 274.71 42.65 273.63 43.02 273.09 C 43.51 268.29 42.64 263.46 43.20 258.67 C 42.61 258.51 41.43 258.20 40.84 258.04 C 39.45 256.22 42.00 255.67 43.19 255.48 C 43.41 252.72 42.97 249.99 41.33 247.69 Z" />
</g>
<g id="#94867aff">
<path fill="#94867a" opacity="1.00" d=" M 197.74 248.33 L 198.09 248.47 C 201.25 249.78 204.61 250.48 208.00 250.87 C 207.26 251.52 206.51 252.16 205.78 252.83 C 204.88 250.29 201.42 251.03 199.34 250.36 C 199.42 250.89 199.56 251.95 199.64 252.49 C 198.68 252.18 197.74 251.81 196.84 251.38 C 197.15 250.37 197.45 249.35 197.74 248.33 Z" />
</g>
<g id="#331b09ff">
<path fill="#331b09" opacity="1.00" d=" M 159.38 258.24 C 161.59 255.50 163.51 252.53 165.88 249.92 C 166.19 251.83 166.34 253.76 166.42 255.69 C 169.06 255.38 172.12 255.93 171.57 259.40 C 169.82 259.40 168.08 259.39 166.34 259.37 C 166.40 264.09 166.33 268.81 166.43 273.53 C 167.70 273.80 168.95 273.62 170.14 273.14 L 170.87 274.18 L 169.48 274.42 L 169.65 275.45 L 168.47 275.52 L 168.56 276.76 L 167.41 276.40 L 167.61 277.57 C 167.00 277.65 165.79 277.82 165.18 277.91 C 163.57 276.76 161.93 275.64 160.29 274.54 C 162.36 269.89 160.89 264.61 161.36 259.68 C 160.87 259.32 159.87 258.60 159.38 258.24 Z" />
</g>
<g id="#fcfefbff">
</g>
<g id="#fafeffff">
</g>
<g id="#aaa29aff">
<path fill="#aaa29a" opacity="1.00" d=" M 27.36 252.40 C 28.34 252.61 29.32 252.82 30.29 253.03 C 30.28 253.27 30.24 253.76 30.22 254.00 L 28.44 254.61 C 28.38 258.55 28.81 262.53 28.14 266.43 C 27.11 269.04 24.99 271.00 23.29 273.17 C 22.17 272.48 21.17 271.62 20.35 270.59 L 20.07 270.23 L 20.50 270.21 L 20.99 270.17 L 21.66 270.15 C 22.16 270.52 22.65 270.91 23.13 271.31 C 24.55 269.29 26.62 267.48 27.00 264.91 C 27.57 260.77 27.23 256.57 27.36 252.40 Z" />
</g>
<g id="#2e1a06ff">
<path fill="#2e1a06" opacity="1.00" d=" M 18.18 252.27 C 18.39 252.49 18.83 252.93 19.05 253.15 C 17.60 258.64 15.48 265.59 20.07 270.23 L 20.35 270.59 C 21.17 271.62 22.17 272.48 23.29 273.17 C 25.58 273.53 27.89 273.75 30.19 273.95 C 30.16 267.30 30.14 260.65 30.22 254.00 C 30.24 253.76 30.28 253.27 30.29 253.03 C 30.60 253.09 31.21 253.22 31.51 253.29 C 31.61 259.93 31.52 266.58 31.53 273.23 C 35.12 272.94 37.25 269.94 38.96 267.14 C 38.76 268.95 38.56 270.78 38.40 272.61 L 37.23 272.45 C 37.32 272.87 37.49 273.70 37.57 274.12 C 36.22 274.36 35.44 275.15 35.25 276.51 C 34.94 276.53 34.32 276.57 34.01 276.59 C 26.06 282.19 12.32 276.26 12.15 266.07 C 11.76 260.69 15.28 256.38 18.18 252.27 Z" />
</g>
<g id="#2f1b08ff">
<path fill="#2f1b08" opacity="1.00" d=" M 96.24 256.50 C 96.76 255.44 97.27 254.38 97.86 253.37 C 97.25 263.09 97.87 272.86 97.63 282.60 L 99.50 282.84 C 99.55 278.72 99.67 274.60 99.49 270.49 L 101.29 270.87 C 103.83 271.40 106.28 272.28 108.69 273.24 C 108.66 270.81 108.57 268.38 108.68 265.95 C 109.02 262.64 109.46 259.20 108.16 256.03 C 107.98 255.57 107.62 254.65 107.44 254.18 C 109.61 253.75 111.80 253.98 113.93 254.47 C 114.10 260.33 114.47 266.22 114.00 272.08 C 113.92 273.60 112.29 273.93 111.25 274.60 L 110.91 275.07 C 110.25 275.82 109.70 276.65 109.25 277.56 L 108.29 277.31 L 108.59 278.74 C 106.04 278.66 103.67 277.68 101.24 277.03 C 101.23 279.57 101.24 282.12 101.33 284.66 C 98.36 284.68 95.39 284.56 92.43 284.40 C 92.41 281.99 92.44 279.58 92.42 277.17 C 92.41 276.77 92.39 275.97 92.38 275.57 C 89.32 275.63 86.46 276.75 83.66 277.86 L 84.13 276.63 C 85.90 273.44 89.50 272.38 92.71 271.34 C 91.99 266.94 88.57 263.87 84.85 261.83 C 86.22 260.71 87.59 259.52 89.32 259.00 L 88.94 259.54 L 89.62 259.88 C 89.99 260.19 90.73 260.82 91.10 261.14 C 91.50 261.49 92.30 262.19 92.70 262.54 C 93.42 260.62 94.14 258.70 94.67 256.72 C 95.19 256.64 95.71 256.57 96.24 256.50 Z" />
</g>
<g id="#fffcfdff">
</g>
<g id="#341c08ff">
<path fill="#341c08" opacity="1.00" d=" M 50.15 258.01 C 51.24 256.84 52.68 254.51 54.53 255.48 C 56.06 256.88 56.64 258.94 57.31 260.84 C 57.20 264.93 57.40 269.03 57.22 273.12 C 56.86 274.19 56.54 275.27 56.26 276.36 C 55.61 277.33 54.93 278.28 54.24 279.23 C 53.15 279.93 52.13 280.71 51.10 281.49 C 50.76 281.47 50.08 281.42 49.74 281.40 L 49.52 282.38 C 47.85 282.57 46.18 282.78 44.51 282.91 C 47.27 280.93 51.70 279.97 52.12 275.99 C 52.47 271.32 52.28 266.63 52.28 261.96 C 52.53 260.31 51.41 259.07 49.83 258.88 L 50.15 258.01 Z" />
</g>
<g id="#301d08ff">
<path fill="#301d08" opacity="1.00" d=" M 66.58 254.54 C 69.00 256.90 71.67 259.19 73.02 262.38 L 71.54 262.45 L 71.40 263.37 C 68.98 264.03 67.28 266.00 65.39 267.52 C 65.33 269.45 65.30 271.38 65.28 273.31 C 65.96 273.64 67.33 274.31 68.02 274.64 C 69.13 273.83 70.23 273.02 71.34 272.22 L 71.55 274.08 C 69.56 274.43 68.39 276.17 67.19 277.61 C 64.30 278.11 61.90 275.99 59.27 275.19 C 61.60 269.93 59.92 263.94 60.47 258.35 C 62.67 257.36 64.71 256.05 66.58 254.54 M 65.24 258.70 C 65.29 261.03 65.27 263.35 65.21 265.68 C 66.39 264.75 67.58 263.83 68.77 262.93 C 67.58 261.52 66.39 260.13 65.24 258.70 Z" />
</g>
<g id="#ccc8c4ff">
<path fill="#ccc8c4" opacity="1.00" d=" M 113.93 254.47 C 116.14 256.34 115.43 259.44 115.57 261.98 C 115.41 265.84 115.78 269.73 115.31 273.57 C 114.10 275.31 112.30 276.52 110.74 277.92 C 110.78 277.21 110.87 275.78 110.91 275.07 L 111.25 274.60 C 112.29 273.93 113.92 273.60 114.00 272.08 C 114.47 266.22 114.10 260.33 113.93 254.47 Z" />
</g>
<g id="#341d09ff">
<path fill="#341d09" opacity="1.00" d=" M 117.34 257.73 C 118.54 256.77 119.73 255.82 120.93 254.87 C 122.40 256.23 124.96 257.05 124.79 259.52 L 123.43 259.44 C 123.37 264.24 123.45 269.04 123.40 273.85 C 124.02 273.77 125.27 273.61 125.89 273.53 C 125.61 274.09 125.06 275.22 124.79 275.78 L 124.41 276.49 L 123.24 276.49 L 123.57 277.68 C 121.88 277.85 119.62 277.82 119.26 275.71 C 117.16 269.94 120.39 263.17 117.34 257.73 Z" />
</g>
<g id="#311b0bff">
<path fill="#311b0b" opacity="1.00" d=" M 126.00 259.22 C 127.22 257.79 128.40 256.24 130.04 255.25 C 132.08 255.00 132.62 257.49 133.67 258.73 C 135.08 257.45 136.51 256.20 137.96 254.97 C 139.88 256.72 141.50 258.77 140.42 261.48 C 138.33 261.93 136.60 261.21 135.55 259.34 C 135.06 259.42 134.08 259.59 133.59 259.67 C 133.51 264.09 133.19 268.55 133.69 272.96 C 134.92 274.28 136.63 273.36 138.13 273.34 C 136.96 274.56 135.88 275.88 135.05 277.36 C 131.92 278.54 129.83 275.60 127.50 274.06 C 129.64 269.46 128.11 264.11 128.49 259.19 C 127.86 259.20 126.62 259.21 126.00 259.22 Z" />
</g>
<g id="#2e1b0aff">
<path fill="#2e1b0a" opacity="1.00" d=" M 150.23 255.25 C 152.87 255.33 155.26 257.88 157.99 256.30 C 155.29 261.59 156.98 267.67 156.45 273.34 C 157.14 273.80 158.53 274.72 159.22 275.17 L 157.40 275.36 L 157.66 276.68 L 156.34 276.31 L 156.61 277.61 C 153.25 278.88 152.14 275.25 151.30 272.83 C 150.13 274.22 148.96 275.60 147.63 276.85 L 147.56 277.51 C 146.90 277.61 145.60 277.80 144.94 277.90 C 143.47 275.87 141.72 273.64 142.19 270.94 C 142.38 267.81 144.64 265.49 146.49 263.19 C 146.34 260.84 145.06 258.76 144.32 256.57 C 146.31 256.19 148.25 255.66 150.23 255.25 M 146.10 257.91 C 146.61 259.63 147.16 261.35 147.70 263.07 C 149.04 263.69 150.38 264.32 151.72 264.96 C 151.76 263.35 151.84 261.74 151.66 260.15 C 149.89 259.22 147.97 258.60 146.10 257.91 M 146.88 263.94 C 146.33 267.35 146.28 270.88 148.04 273.97 C 149.25 273.40 150.44 272.80 151.64 272.21 C 151.80 270.11 151.79 268.01 151.73 265.91 C 150.12 265.22 148.52 264.53 146.88 263.94 Z" />
</g>
<g id="#301c09ff">
<path fill="#301c09" opacity="1.00" d=" M 173.37 258.37 C 175.55 257.37 177.56 256.05 179.39 254.51 C 181.59 256.44 183.50 258.65 185.45 260.82 C 185.41 261.61 185.38 262.40 185.35 263.19 C 184.43 263.30 183.55 263.52 182.71 263.85 L 181.08 265.29 C 180.54 264.92 180.01 264.55 179.48 264.18 C 183.75 263.24 178.69 259.70 177.59 257.91 C 177.65 260.66 177.64 263.41 177.29 266.15 C 177.99 265.98 179.40 265.63 180.10 265.46 C 179.47 266.22 178.19 267.75 177.56 268.51 C 177.59 270.04 177.61 271.57 177.71 273.11 C 178.08 273.30 178.82 273.68 179.19 273.87 C 179.61 274.08 180.46 274.48 180.88 274.69 C 182.00 273.86 183.14 273.04 184.27 272.22 C 184.32 272.80 184.43 273.95 184.48 274.53 C 184.05 274.45 183.18 274.28 182.74 274.19 L 182.60 275.52 L 181.38 275.25 L 181.72 276.68 L 180.26 276.37 L 180.63 277.69 C 177.46 278.08 174.77 276.14 171.92 275.13 C 173.82 272.82 173.26 269.78 173.33 267.03 C 173.31 264.14 173.32 261.25 173.37 258.37 Z" />
</g>
<g id="#301d0bff">
<path fill="#301d0b" opacity="1.00" d=" M 232.95 256.55 C 235.02 256.27 237.06 255.79 239.02 255.05 C 241.29 255.60 243.59 257.66 245.93 256.35 C 244.94 261.99 245.31 267.76 245.38 273.45 C 245.72 273.69 246.39 274.17 246.73 274.41 C 246.65 274.87 246.50 275.79 246.43 276.25 C 244.61 277.87 241.25 278.56 240.85 275.21 C 240.62 274.07 240.46 272.91 240.35 271.76 C 240.33 269.80 240.36 267.84 240.35 265.89 L 239.32 265.49 C 238.07 264.74 236.85 263.93 235.63 263.15 C 234.51 267.16 234.10 272.16 237.95 274.89 C 236.64 276.01 235.34 277.13 234.03 278.24 C 233.00 276.87 231.45 275.69 231.17 273.91 C 231.01 272.51 230.92 271.10 230.83 269.70 C 231.71 267.07 233.57 264.99 235.30 262.90 C 234.45 260.80 233.66 258.68 232.95 256.55 M 235.08 258.09 C 235.23 259.12 235.53 261.18 235.68 262.21 C 237.17 263.25 238.75 264.17 240.37 265.02 C 240.38 263.34 240.36 261.66 240.33 259.99 C 238.57 259.38 236.82 258.72 235.08 258.09 Z" />
</g>
<g id="#2e1c08ff">
<path fill="#2e1c08" opacity="1.00" d=" M 247.32 259.68 C 249.11 258.07 250.84 256.31 252.96 255.13 C 253.92 255.39 254.62 255.98 255.07 256.90 C 255.62 257.90 256.16 258.92 256.69 259.95 C 255.58 264.29 255.72 268.79 255.89 273.23 C 256.76 272.43 257.67 271.65 258.50 270.82 C 259.25 269.66 259.89 268.44 260.41 267.17 C 260.92 264.01 261.34 259.57 257.60 258.23 C 259.22 257.29 260.74 256.18 262.18 254.97 C 265.04 257.70 265.53 261.72 265.54 265.47 L 264.67 265.61 C 264.78 267.08 263.41 268.03 263.41 269.47 L 262.41 269.39 L 262.55 270.56 L 261.30 270.39 L 261.56 271.28 C 260.14 271.97 258.81 272.83 257.48 273.68 L 257.52 274.40 C 256.51 274.80 255.51 275.22 254.51 275.66 L 254.47 276.69 C 254.02 276.61 253.13 276.44 252.68 276.36 L 252.54 277.27 C 249.64 277.32 247.65 281.99 251.07 282.90 C 253.75 284.34 255.57 281.46 257.53 280.15 C 257.61 281.18 257.68 282.21 257.74 283.24 C 257.09 283.52 255.78 284.09 255.13 284.37 C 253.66 284.43 252.19 284.49 250.73 284.55 C 249.60 283.49 247.79 282.60 247.77 280.83 C 247.62 277.70 251.59 276.16 251.40 273.02 C 251.37 268.43 251.65 263.80 251.20 259.22 C 250.23 259.34 248.29 259.57 247.32 259.68 Z" />
</g>
<g id="#d6cbc2ff">
<path fill="#d6cbc2" opacity="1.00" d=" M 89.62 259.88 C 90.14 258.83 90.97 258.31 92.09 258.31 C 92.02 258.94 91.88 260.20 91.81 260.84 L 91.10 261.14 C 90.73 260.82 89.99 260.19 89.62 259.88 Z" />
</g>
<g id="#fcf9fbff">
<path fill="#fcf9fb" opacity="1.00" d=" M 65.24 258.70 C 66.39 260.13 67.58 261.52 68.77 262.93 C 67.58 263.83 66.39 264.75 65.21 265.68 C 65.27 263.35 65.29 261.03 65.24 258.70 Z" />
</g>
<g id="#fefcf8ff">
</g>
<g id="#bfb7afff">
<path fill="#bfb7af" opacity="1.00" d=" M 235.63 263.15 C 236.85 263.93 238.07 264.74 239.32 265.49 C 238.62 265.53 237.23 265.63 236.54 265.67 C 236.28 268.16 236.41 270.67 236.71 273.15 C 237.92 272.68 239.13 272.22 240.35 271.76 C 240.46 272.91 240.62 274.07 240.85 275.21 C 238.77 276.40 236.90 277.89 235.22 279.59 C 234.92 279.25 234.33 278.58 234.03 278.24 C 235.34 277.13 236.64 276.01 237.95 274.89 C 234.10 272.16 234.51 267.16 235.63 263.15 Z" />
</g>
<g id="#fcffffff">
</g>
<g id="#e6dfd7ff">
<path fill="#e6dfd7" opacity="1.00" d=" M 218.58 266.29 C 220.05 266.27 221.51 266.31 222.98 266.41 C 223.04 267.14 223.16 268.58 223.21 269.31 C 221.67 269.29 220.12 269.28 218.58 269.27 C 218.58 268.52 218.58 267.03 218.58 266.29 Z" />
</g>
<g id="#f4f0ecff">
</g>
<g id="#aba49dff">
<path fill="#aba49d" opacity="1.00" d=" M 83.66 277.86 C 86.46 276.75 89.32 275.63 92.38 275.57 C 92.39 275.97 92.41 276.77 92.42 277.17 C 89.45 277.18 86.69 278.25 84.05 279.51 C 83.10 278.20 82.65 276.92 84.36 275.98 L 84.13 276.63 L 83.66 277.86 Z" />
</g>
</svg>
