<?xml version="1.0" encoding="UTF-8" ?>
<!DOCTYPE svg PUBLIC "-//W3C//DTD SVG 1.1//EN" "http://www.w3.org/Graphics/SVG/1.1/DTD/svg11.dtd">
<svg width="468pt" height="92pt" viewBox="0 0 468 92" version="1.1" xmlns="http://www.w3.org/2000/svg">
<path fill="#e8e6e3" opacity="1.00" d=" M 253.59 3.45 C 265.78 0.43 279.34 2.10 289.92 9.09 C 298.74 15.01 305.87 23.82 308.73 34.16 C 312.55 47.94 310.20 63.72 301.12 74.99 C 294.02 84.21 283.30 90.30 271.82 92.00 L 259.78 92.00 C 242.01 90.23 226.25 76.57 221.87 59.29 C 218.84 46.95 220.30 33.14 227.45 22.43 C 233.55 13.30 242.86 6.13 253.59 3.45 M 259.09 19.22 C 254.23 20.26 249.66 22.61 246.07 26.05 C 234.08 37.00 234.39 58.61 246.97 69.01 C 257.34 77.97 274.39 77.71 284.45 68.40 C 297.09 57.16 296.28 34.36 282.58 24.28 C 276.05 19.03 267.16 17.77 259.09 19.22 Z" />
<path fill="#e8e6e3" opacity="1.00" d=" M 1.88 3.76 C 7.88 3.73 13.87 3.77 19.87 3.74 C 24.83 23.18 29.90 42.60 34.88 62.04 C 35.31 63.96 35.88 65.85 36.62 67.68 C 42.55 46.34 48.52 25.02 54.62 3.73 C 59.47 3.77 64.31 3.74 69.16 3.75 C 75.31 25.15 81.30 46.60 87.41 68.02 C 92.99 46.61 98.50 25.18 104.00 3.75 C 110.01 3.75 116.01 3.75 122.02 3.75 C 113.92 32.65 105.79 61.54 97.76 90.46 C 91.24 90.54 84.72 90.49 78.20 90.50 C 72.76 71.39 67.30 52.28 61.82 33.18 C 56.59 52.32 50.98 71.36 45.68 90.48 C 39.17 90.53 32.66 90.48 26.15 90.51 C 18.08 61.59 9.94 32.69 1.88 3.76 Z" />
<path fill="#e8e6e3" opacity="1.00" d=" M 136.91 3.75 C 142.61 3.74 148.30 3.75 154.00 3.75 C 154.03 15.25 153.99 26.75 154.02 38.25 C 164.76 38.24 175.50 38.26 186.24 38.24 C 186.23 26.77 186.30 15.30 186.20 3.82 C 191.88 3.66 197.55 3.78 203.23 3.75 C 203.24 32.67 203.24 61.58 203.23 90.49 C 197.57 90.51 191.91 90.50 186.25 90.50 C 186.25 78.50 186.24 66.51 186.25 54.52 C 175.51 54.47 164.77 54.52 154.03 54.49 C 153.97 66.50 154.05 78.50 153.99 90.51 C 148.29 90.49 142.60 90.51 136.90 90.50 C 136.90 61.58 136.88 32.67 136.91 3.75 Z" />
<path fill="#e8e6e3" opacity="1.00" d=" M 327.51 3.76 C 345.17 3.75 362.83 3.75 380.49 3.76 C 380.50 9.17 380.49 14.58 380.50 19.99 C 368.50 20.01 356.50 19.99 344.50 20.00 C 344.49 26.17 344.49 32.33 344.50 38.50 C 355.50 38.51 366.50 38.48 377.49 38.51 C 377.51 43.90 377.45 49.29 377.54 54.67 C 366.53 54.85 355.52 54.71 344.52 54.75 C 344.48 61.25 344.48 67.75 344.52 74.26 C 356.76 74.24 369.00 74.25 381.24 74.26 C 381.25 79.67 381.25 85.08 381.24 90.49 C 363.33 90.50 345.42 90.50 327.51 90.49 C 327.50 61.58 327.50 32.67 327.51 3.76 Z" />
<path fill="#e8e6e3" opacity="1.00" d=" M 398.25 3.78 C 410.51 3.76 422.79 3.70 435.06 3.80 C 449.43 4.42 461.96 17.50 461.77 31.92 C 462.14 42.91 454.98 53.32 445.07 57.77 C 451.44 68.70 457.87 79.59 464.27 90.49 C 458.11 90.49 451.94 90.51 445.78 90.48 C 439.89 80.48 434.28 70.30 428.20 60.42 C 423.90 60.57 419.61 60.49 415.31 60.46 C 415.16 70.47 415.29 80.48 415.24 90.49 C 409.58 90.51 403.93 90.48 398.27 90.51 C 398.22 61.60 398.27 32.69 398.25 3.78 M 415.25 19.76 C 415.31 28.36 415.10 36.97 415.36 45.58 C 421.56 45.30 427.78 45.77 433.97 45.32 C 439.69 44.87 444.19 39.60 444.60 34.02 C 445.52 27.51 440.74 20.33 433.95 19.82 C 427.72 19.64 421.48 19.80 415.25 19.76 Z" />
</svg>
