<?xml version="1.0" encoding="UTF-8" ?>
<!DOCTYPE svg PUBLIC "-//W3C//DTD SVG 1.1//EN" "http://www.w3.org/Graphics/SVG/1.1/DTD/svg11.dtd">
<svg width="583pt" height="583pt" viewBox="0 0 583 583" version="1.1" xmlns="http://www.w3.org/2000/svg">
<g id="#ffffffff">
</g>
<g id="#343f4cff">
<path fill="#343f4c" opacity="1.00" d=" M 332.30 145.43 C 344.86 144.74 357.41 143.69 369.99 143.46 C 377.33 143.05 382.88 149.03 386.06 154.98 C 387.62 159.66 386.83 164.85 384.26 169.03 C 382.39 171.76 385.07 174.22 386.37 176.48 C 389.48 181.64 388.59 188.31 385.23 193.13 C 383.09 197.71 378.24 200.13 373.57 201.30 C 360.93 201.95 348.30 202.78 335.66 203.42 C 334.07 195.38 334.63 187.15 333.71 179.04 C 333.30 167.84 332.01 156.66 332.30 145.43 M 346.33 158.42 C 346.40 168.49 348.02 178.48 347.61 188.57 C 355.92 188.64 364.34 188.69 372.55 187.30 C 375.01 185.49 374.73 181.60 372.56 179.62 C 365.04 178.76 357.47 180.25 349.95 180.17 L 349.24 179.68 C 349.98 175.15 352.22 170.98 353.63 166.62 C 359.33 166.06 365.03 165.54 370.76 165.51 C 371.88 164.16 372.80 162.67 373.61 161.11 C 372.69 159.64 372.34 156.95 370.01 157.34 C 362.11 157.27 354.17 157.41 346.33 158.42 Z" />
<path fill="#343f4c" opacity="1.00" d=" M 291.82 147.68 C 295.69 147.45 299.56 147.34 303.43 147.38 C 310.38 161.52 318.07 175.28 324.86 189.51 C 327.03 194.20 330.38 198.34 331.77 203.40 C 326.97 204.70 321.96 204.24 317.05 204.51 C 310.65 204.63 304.29 205.64 297.88 205.48 C 295.62 201.31 293.53 197.06 291.43 192.81 C 297.44 191.21 303.71 191.87 309.85 191.48 C 306.65 183.87 302.48 176.69 298.89 169.26 C 294.59 181.58 290.18 193.92 284.76 205.76 L 284.04 206.37 C 279.45 206.77 274.84 206.65 270.24 206.84 C 270.12 202.44 268.99 198.10 269.53 193.68 C 271.31 193.50 273.18 193.59 274.91 193.02 C 278.23 186.82 279.43 179.73 282.50 173.40 C 285.35 164.74 289.21 156.43 291.82 147.68 Z" />
<path fill="#343f4c" opacity="1.00" d=" M 227.48 151.60 C 237.31 150.22 247.27 150.70 257.13 149.61 C 265.24 149.75 273.26 148.21 281.36 148.53 C 281.66 152.76 281.71 157.01 281.82 161.25 C 275.65 163.42 268.89 162.20 262.46 162.66 C 261.89 177.66 264.70 192.48 264.51 207.45 C 259.82 207.40 254.93 209.17 250.39 207.41 C 250.84 199.58 248.98 191.86 249.44 184.02 C 248.55 177.43 248.69 170.78 247.96 164.19 C 241.47 164.23 235.00 164.70 228.51 164.57 C 227.57 160.31 227.35 155.95 227.48 151.60 Z" />
<path fill="#343f4c" opacity="1.00" d=" M 202.05 163.04 C 203.36 159.71 204.09 156.06 205.99 153.01 C 209.56 151.90 213.44 152.51 217.15 152.33 C 221.13 159.67 224.73 167.21 228.37 174.71 C 232.94 182.33 236.65 190.42 240.74 198.29 C 242.40 201.55 244.71 204.67 244.89 208.46 C 233.90 209.58 222.84 210.01 211.80 210.41 C 209.08 206.49 207.35 202.02 205.36 197.72 C 211.40 196.25 217.66 196.92 223.79 196.36 C 222.56 192.77 220.39 189.64 218.67 186.29 C 216.62 182.56 214.93 178.62 212.47 175.13 C 209.99 180.60 207.67 186.17 206.14 191.98 C 204.91 196.94 201.98 201.25 200.61 206.16 C 199.77 208.34 199.20 212.11 196.01 211.53 C 191.86 211.32 187.59 212.79 183.55 211.41 C 183.78 207.09 182.16 202.73 183.59 198.50 C 185.26 198.27 187.34 198.87 188.81 197.94 C 193.76 186.50 197.52 174.63 202.05 163.04 Z" />
<path fill="#343f4c" opacity="1.00" d=" M 161.29 155.39 C 166.77 154.58 172.31 154.47 177.83 154.50 C 177.39 156.03 176.78 157.52 175.75 158.76 C 171.04 164.89 168.09 172.15 163.29 178.22 C 161.92 180.29 160.05 182.29 159.71 184.83 C 163.31 189.48 167.52 193.67 170.60 198.74 C 174.37 202.95 177.77 207.50 181.66 211.61 C 176.22 213.20 170.51 212.21 165.00 213.23 C 160.17 208.15 156.22 202.32 151.58 197.13 C 147.86 202.90 143.93 208.53 140.41 214.42 C 134.99 215.16 129.54 215.51 124.07 215.57 C 124.99 211.00 128.71 207.79 130.84 203.79 C 134.05 197.84 138.60 192.70 141.48 186.56 C 142.04 185.10 141.12 183.75 140.28 182.65 C 134.15 174.58 127.05 167.29 121.36 158.89 L 121.59 157.67 C 126.75 157.27 131.92 157.02 137.07 156.55 C 141.44 161.69 145.28 167.27 149.78 172.29 C 149.95 172.35 150.28 172.48 150.45 172.54 C 154.27 166.96 157.55 161.03 161.29 155.39 Z" />
<path fill="#343f4c" opacity="1.00" d=" M 500.03 314.31 C 505.61 313.31 511.33 313.54 516.98 313.45 C 515.56 316.15 513.44 318.35 511.23 320.42 C 505.86 326.57 500.40 332.65 495.47 339.18 C 495.13 340.69 495.80 342.22 496.83 343.31 C 503.30 350.16 509.38 357.36 515.53 364.50 C 517.21 366.64 519.77 368.50 519.84 371.47 C 515.22 371.43 510.63 371.82 506.05 372.18 C 503.81 372.47 502.36 370.38 500.97 369.00 C 497.61 365.02 494.63 360.71 490.94 357.00 C 488.98 355.14 487.99 351.55 484.95 351.32 C 482.32 353.42 479.13 356.26 479.64 359.99 C 479.92 364.52 480.88 369.09 479.97 373.62 C 475.91 373.66 471.88 374.53 467.82 374.28 C 465.71 372.95 466.73 370.11 466.41 368.06 C 465.68 355.36 465.18 342.66 464.08 329.99 C 463.48 325.57 463.77 321.10 463.50 316.66 C 467.71 315.69 472.04 315.70 476.33 315.49 C 477.32 317.50 477.67 319.71 477.59 321.94 C 477.50 327.52 478.70 333.03 478.46 338.61 C 479.78 335.73 482.26 333.68 484.28 331.31 C 488.29 326.61 492.38 321.98 496.25 317.17 C 497.28 315.97 498.34 314.55 500.03 314.31 Z" />
<path fill="#343f4c" opacity="1.00" d=" M 436.93 317.87 C 441.59 317.39 446.32 317.63 450.96 316.86 C 454.46 316.69 458.35 315.71 461.56 317.60 C 461.42 321.55 461.53 325.51 461.80 329.46 C 455.31 331.01 448.53 330.57 441.92 331.34 C 430.97 330.65 422.50 344.32 428.20 353.75 C 430.30 358.86 435.74 361.68 441.02 362.15 C 448.56 361.55 456.12 361.33 463.68 361.33 C 464.15 365.71 465.01 370.21 463.93 374.58 C 452.92 374.42 441.41 377.80 430.76 373.68 C 414.74 367.69 407.15 345.53 417.43 331.51 C 421.71 324.56 428.75 319.12 436.93 317.87 Z" />
<path fill="#343f4c" opacity="1.00" d=" M 379.53 321.46 C 383.01 320.63 386.60 320.45 390.17 320.46 C 396.93 332.89 403.32 345.53 409.74 358.16 C 412.83 364.32 416.55 370.19 418.99 376.66 C 407.69 378.30 396.20 378.47 384.79 378.69 C 382.79 374.46 380.36 370.43 378.84 365.99 C 385.05 365.22 391.33 365.24 397.55 364.48 C 395.22 361.53 394.24 357.83 392.17 354.72 C 389.85 351.25 388.77 347.01 385.78 344.00 C 381.27 355.81 377.19 367.79 372.39 379.49 C 367.54 380.80 362.49 380.29 357.54 380.56 C 356.10 376.34 356.66 371.83 356.37 367.46 C 358.39 367.07 360.41 366.69 362.44 366.31 C 363.50 363.26 364.95 360.37 365.96 357.31 C 368.58 348.47 372.53 340.11 375.43 331.37 C 376.53 327.96 377.90 324.65 379.53 321.46 Z" />
<path fill="#343f4c" opacity="1.00" d=" M 327.45 324.22 C 334.27 323.46 341.15 323.47 348.00 323.20 C 351.56 322.93 355.05 324.07 358.00 326.02 C 364.83 330.56 367.64 339.94 364.52 347.49 C 362.36 352.35 358.24 356.52 353.15 358.21 C 346.49 359.47 339.67 359.08 332.97 359.88 C 331.12 360.21 329.31 359.68 327.54 359.24 C 329.22 354.95 330.91 350.66 332.37 346.30 C 337.55 345.28 342.85 345.74 348.09 345.33 C 349.46 345.33 350.51 344.37 351.65 343.75 C 352.01 340.75 351.89 336.97 348.05 336.64 C 340.52 336.81 333.00 337.95 325.44 337.60 C 324.87 347.10 326.60 356.50 326.52 365.99 C 326.58 371.50 328.19 377.08 326.86 382.55 C 322.57 382.58 318.29 382.69 314.01 382.80 C 313.11 376.89 313.70 370.87 312.77 364.95 C 312.32 351.86 311.64 338.78 310.49 325.74 C 315.97 323.92 321.81 324.84 327.45 324.22 Z" />
<path fill="#343f4c" opacity="1.00" d=" M 280.01 326.73 C 289.48 326.57 298.88 325.34 308.36 325.46 C 308.86 329.85 308.55 334.26 308.73 338.66 C 300.50 340.09 292.09 339.18 283.81 340.10 C 280.35 340.52 276.87 340.67 273.39 340.64 C 273.27 343.58 273.28 346.54 273.42 349.49 C 282.79 349.71 292.10 347.59 301.48 348.50 C 301.33 352.40 301.74 356.27 302.36 360.11 C 302.09 360.41 301.55 361.01 301.28 361.31 C 292.41 362.45 283.43 362.68 274.50 362.70 C 274.46 365.64 274.48 368.59 274.54 371.54 C 286.62 371.95 298.65 369.48 310.69 370.10 C 311.64 374.28 311.42 378.58 311.56 382.84 C 307.54 384.11 303.29 383.46 299.16 383.84 C 292.12 384.55 285.03 384.52 278.01 385.35 C 272.50 385.30 266.97 386.48 261.49 385.60 C 260.91 366.61 259.26 347.66 258.41 328.68 C 265.46 326.84 272.85 327.93 280.01 326.73 Z" />
<path fill="#343f4c" opacity="1.00" d=" M 201.33 331.53 C 212.17 330.07 223.16 330.74 234.02 329.49 C 240.33 328.71 247.54 330.17 251.55 335.50 C 257.76 342.76 257.55 355.94 248.93 361.27 C 245.20 364.03 240.58 364.77 236.17 365.77 C 244.06 371.52 250.53 378.92 257.91 385.26 C 257.06 385.87 256.17 386.52 255.06 386.47 C 249.98 386.82 244.92 387.37 239.84 387.48 C 235.27 383.61 231.74 378.69 227.19 374.80 C 224.10 372.32 221.70 369.05 218.28 367.01 C 218.99 362.01 221.06 357.36 222.59 352.58 C 228.00 351.92 233.45 351.79 238.89 351.53 C 243.34 351.26 242.84 342.33 238.04 343.26 C 230.49 343.41 222.90 343.48 215.41 344.47 C 215.76 359.15 217.48 373.76 217.63 388.44 C 213.75 388.98 209.83 389.69 205.91 389.31 C 204.08 389.49 204.25 387.20 203.98 386.04 C 203.49 382.05 203.65 378.02 203.45 374.02 C 202.22 361.38 202.40 348.66 201.01 336.04 C 200.78 334.52 201.14 333.02 201.33 331.53 Z" />
</g>
<g id="#19a844ff">
<path fill="#19a844" opacity="1.00" d=" M 391.99 86.59 C 407.90 86.38 423.72 84.26 439.65 84.35 C 437.02 89.78 437.16 95.96 436.17 101.79 C 434.02 113.46 432.36 125.22 430.78 136.98 C 426.27 165.87 421.94 194.78 417.56 223.68 C 416.24 231.67 414.80 239.68 414.36 247.77 C 408.98 248.95 403.42 248.40 397.98 249.11 C 364.28 250.83 330.63 253.10 296.95 255.09 C 270.98 256.77 244.96 257.77 219.00 259.61 C 201.91 259.97 184.93 262.18 167.84 262.56 C 145.56 264.06 123.29 265.33 100.99 266.32 C 95.63 266.35 90.35 267.51 84.99 267.45 C 78.01 267.29 71.12 269.02 64.14 268.25 C 64.43 225.20 76.68 182.46 98.30 145.31 C 103.07 137.07 108.32 129.08 114.16 121.55 C 119.38 114.55 124.86 107.55 131.00 101.42 C 136.01 101.44 141.03 101.47 146.02 100.84 C 213.01 97.15 279.98 92.88 346.99 89.44 C 361.96 88.09 377.01 87.93 391.99 86.59 M 332.30 145.43 C 332.01 156.66 333.30 167.84 333.71 179.04 C 334.63 187.15 334.07 195.38 335.66 203.42 C 348.30 202.78 360.93 201.95 373.57 201.30 C 378.24 200.13 383.09 197.71 385.23 193.13 C 388.59 188.31 389.48 181.64 386.37 176.48 C 385.07 174.22 382.39 171.76 384.26 169.03 C 386.83 164.85 387.62 159.66 386.06 154.98 C 382.88 149.03 377.33 143.05 369.99 143.46 C 357.41 143.69 344.86 144.74 332.30 145.43 M 291.82 147.68 C 289.21 156.43 285.35 164.74 282.50 173.40 C 279.43 179.73 278.23 186.82 274.91 193.02 C 273.18 193.59 271.31 193.50 269.53 193.68 C 268.99 198.10 270.12 202.44 270.24 206.84 C 274.84 206.65 279.45 206.77 284.04 206.37 L 284.76 205.76 C 290.18 193.92 294.59 181.58 298.89 169.26 C 302.48 176.69 306.65 183.87 309.85 191.48 C 303.71 191.87 297.44 191.21 291.43 192.81 C 293.53 197.06 295.62 201.31 297.88 205.48 C 304.29 205.64 310.65 204.63 317.05 204.51 C 321.96 204.24 326.97 204.70 331.77 203.40 C 330.38 198.34 327.03 194.20 324.86 189.51 C 318.07 175.28 310.38 161.52 303.43 147.38 C 299.56 147.34 295.69 147.45 291.82 147.68 M 227.48 151.60 C 227.35 155.95 227.57 160.31 228.51 164.57 C 235.00 164.70 241.47 164.23 247.96 164.19 C 248.69 170.78 248.55 177.43 249.44 184.02 C 248.98 191.86 250.84 199.58 250.39 207.41 C 254.93 209.17 259.82 207.40 264.51 207.45 C 264.70 192.48 261.89 177.66 262.46 162.66 C 268.89 162.20 275.65 163.42 281.82 161.25 C 281.71 157.01 281.66 152.76 281.36 148.53 C 273.26 148.21 265.24 149.75 257.13 149.61 C 247.27 150.70 237.31 150.22 227.48 151.60 M 202.05 163.04 C 197.52 174.63 193.76 186.50 188.81 197.94 C 187.34 198.87 185.26 198.27 183.59 198.50 C 182.16 202.73 183.78 207.09 183.55 211.41 C 187.59 212.79 191.86 211.32 196.01 211.53 C 199.20 212.11 199.77 208.34 200.61 206.16 C 201.98 201.25 204.91 196.94 206.14 191.98 C 207.67 186.17 209.99 180.60 212.47 175.13 C 214.93 178.62 216.62 182.56 218.67 186.29 C 220.39 189.64 222.56 192.77 223.79 196.36 C 217.66 196.92 211.40 196.25 205.36 197.72 C 207.35 202.02 209.08 206.49 211.80 210.41 C 222.84 210.01 233.90 209.58 244.89 208.46 C 244.71 204.67 242.40 201.55 240.74 198.29 C 236.65 190.42 232.94 182.33 228.37 174.71 C 224.73 167.21 221.13 159.67 217.15 152.33 C 213.44 152.51 209.56 151.90 205.99 153.01 C 204.09 156.06 203.36 159.71 202.05 163.04 M 161.29 155.39 C 157.55 161.03 154.27 166.96 150.45 172.54 C 150.28 172.48 149.95 172.35 149.78 172.29 C 145.28 167.27 141.44 161.69 137.07 156.55 C 131.92 157.02 126.75 157.27 121.59 157.67 L 121.36 158.89 C 127.05 167.29 134.15 174.58 140.28 182.65 C 141.12 183.75 142.04 185.10 141.48 186.56 C 138.60 192.70 134.05 197.84 130.84 203.79 C 128.71 207.79 124.99 211.00 124.07 215.57 C 129.54 215.51 134.99 215.16 140.41 214.42 C 143.93 208.53 147.86 202.90 151.58 197.13 C 156.22 202.32 160.17 208.15 165.00 213.23 C 170.51 212.21 176.22 213.20 181.66 211.61 C 177.77 207.50 174.37 202.95 170.60 198.74 C 167.52 193.67 163.31 189.48 159.71 184.83 C 160.05 182.29 161.92 180.29 163.29 178.22 C 168.09 172.15 171.04 164.89 175.75 158.76 C 176.78 157.52 177.39 156.03 177.83 154.50 C 172.31 154.47 166.77 154.58 161.29 155.39 Z" />
<path fill="#19a844" opacity="1.00" d=" M 346.33 158.42 C 354.17 157.41 362.11 157.27 370.01 157.34 C 372.34 156.95 372.69 159.64 373.61 161.11 C 372.80 162.67 371.88 164.16 370.76 165.51 C 365.03 165.54 359.33 166.06 353.63 166.62 C 352.22 170.98 349.98 175.15 349.24 179.68 L 349.95 180.17 C 357.47 180.25 365.04 178.76 372.56 179.62 C 374.73 181.60 375.01 185.49 372.55 187.30 C 364.34 188.69 355.92 188.64 347.61 188.57 C 348.02 178.48 346.40 168.49 346.33 158.42 Z" />
<path fill="#19a844" opacity="1.00" d=" M 509.47 261.72 C 528.21 261.13 546.91 258.83 565.68 259.49 C 567.69 297.19 560.68 335.22 546.16 370.05 C 537.71 389.27 527.17 407.90 514.39 424.40 C 509.93 424.52 505.44 424.33 501.00 424.91 C 494.35 425.80 487.62 425.39 480.96 426.19 C 460.31 427.18 439.70 428.95 419.03 429.77 C 412.39 430.66 405.67 430.10 399.04 431.02 C 393.39 431.76 387.67 431.26 382.01 431.84 C 377.31 432.31 372.58 432.33 367.87 432.50 C 350.96 434.09 333.95 434.15 317.03 435.54 C 271.36 438.16 225.66 440.46 180.00 443.46 C 170.09 443.53 160.25 445.02 150.32 444.64 C 157.32 399.15 163.38 353.54 170.04 308.01 C 170.75 304.05 171.72 300.09 171.57 296.04 C 171.21 290.72 173.52 285.80 174.41 280.65 C 187.12 280.68 199.83 280.39 212.45 278.72 C 219.97 278.56 227.49 278.24 235.00 277.68 C 241.76 277.95 248.41 276.35 255.17 276.56 C 259.78 276.66 264.34 275.86 268.94 275.65 C 281.33 275.57 293.67 273.57 306.08 274.31 C 318.37 273.45 330.62 271.60 342.96 271.51 C 351.67 271.72 360.29 270.10 369.01 270.29 C 376.66 269.29 384.41 269.70 392.05 268.61 C 403.71 268.46 415.30 267.27 426.93 266.49 C 444.40 265.55 461.83 263.96 479.32 263.38 C 489.30 261.88 499.45 262.98 509.47 261.72 M 500.03 314.31 C 498.34 314.55 497.28 315.97 496.25 317.17 C 492.38 321.98 488.29 326.61 484.28 331.31 C 482.26 333.68 479.78 335.73 478.46 338.61 C 478.70 333.03 477.50 327.52 477.59 321.94 C 477.67 319.71 477.32 317.50 476.33 315.49 C 472.04 315.70 467.71 315.69 463.50 316.66 C 463.77 321.10 463.48 325.57 464.08 329.99 C 465.18 342.66 465.68 355.36 466.41 368.06 C 466.73 370.11 465.71 372.95 467.82 374.28 C 471.88 374.53 475.91 373.66 479.97 373.62 C 480.88 369.09 479.92 364.52 479.64 359.99 C 479.13 356.26 482.32 353.42 484.95 351.32 C 487.99 351.55 488.98 355.14 490.94 357.00 C 494.63 360.71 497.61 365.02 500.97 369.00 C 502.36 370.38 503.81 372.47 506.05 372.18 C 510.63 371.82 515.22 371.43 519.84 371.47 C 519.77 368.50 517.21 366.64 515.53 364.50 C 509.38 357.36 503.30 350.16 496.83 343.31 C 495.80 342.22 495.13 340.69 495.47 339.18 C 500.40 332.65 505.86 326.57 511.23 320.42 C 513.44 318.35 515.56 316.15 516.98 313.45 C 511.33 313.54 505.61 313.31 500.03 314.31 M 436.93 317.87 C 428.75 319.12 421.71 324.56 417.43 331.51 C 407.15 345.53 414.74 367.69 430.76 373.68 C 441.41 377.80 452.92 374.42 463.93 374.58 C 465.01 370.21 464.15 365.71 463.68 361.33 C 456.12 361.33 448.56 361.55 441.02 362.15 C 435.74 361.68 430.30 358.86 428.20 353.75 C 422.50 344.32 430.97 330.65 441.92 331.34 C 448.53 330.57 455.31 331.01 461.80 329.46 C 461.53 325.51 461.42 321.55 461.56 317.60 C 458.35 315.71 454.46 316.69 450.96 316.86 C 446.32 317.63 441.59 317.39 436.93 317.87 M 379.53 321.46 C 377.90 324.65 376.53 327.96 375.43 331.37 C 372.53 340.11 368.58 348.47 365.96 357.31 C 364.95 360.37 363.50 363.26 362.44 366.31 C 360.41 366.69 358.39 367.07 356.37 367.46 C 356.66 371.83 356.10 376.34 357.54 380.56 C 362.49 380.29 367.54 380.80 372.39 379.49 C 377.19 367.79 381.27 355.81 385.78 344.00 C 388.77 347.01 389.85 351.25 392.17 354.72 C 394.24 357.83 395.22 361.53 397.55 364.48 C 391.33 365.24 385.05 365.22 378.84 365.99 C 380.36 370.43 382.79 374.46 384.79 378.69 C 396.20 378.47 407.69 378.30 418.99 376.66 C 416.55 370.19 412.83 364.32 409.74 358.16 C 403.32 345.53 396.93 332.89 390.17 320.46 C 386.60 320.45 383.01 320.63 379.53 321.46 M 327.45 324.22 C 321.81 324.84 315.97 323.92 310.49 325.74 C 311.64 338.78 312.32 351.86 312.77 364.95 C 313.70 370.87 313.11 376.89 314.01 382.80 C 318.29 382.69 322.57 382.58 326.86 382.55 C 328.19 377.08 326.58 371.50 326.52 365.99 C 326.60 356.50 324.87 347.10 325.44 337.60 C 333.00 337.95 340.52 336.81 348.05 336.64 C 351.89 336.97 352.01 340.75 351.65 343.75 C 350.51 344.37 349.46 345.33 348.09 345.33 C 342.85 345.74 337.55 345.28 332.37 346.30 C 330.91 350.66 329.22 354.95 327.54 359.24 C 329.31 359.68 331.12 360.21 332.97 359.88 C 339.67 359.08 346.49 359.47 353.15 358.21 C 358.24 356.52 362.36 352.35 364.52 347.49 C 367.64 339.94 364.83 330.56 358.00 326.02 C 355.05 324.07 351.56 322.93 348.00 323.20 C 341.15 323.47 334.27 323.46 327.45 324.22 M 280.01 326.73 C 272.85 327.93 265.46 326.84 258.41 328.68 C 259.26 347.66 260.91 366.61 261.49 385.60 C 266.97 386.48 272.50 385.30 278.01 385.35 C 285.03 384.52 292.12 384.55 299.16 383.84 C 303.29 383.46 307.54 384.11 311.56 382.84 C 311.42 378.58 311.64 374.28 310.69 370.10 C 298.65 369.48 286.62 371.95 274.54 371.54 C 274.48 368.59 274.46 365.64 274.50 362.70 C 283.43 362.68 292.41 362.45 301.28 361.31 C 301.55 361.01 302.09 360.41 302.36 360.11 C 301.74 356.27 301.33 352.40 301.48 348.50 C 292.10 347.59 282.79 349.71 273.42 349.49 C 273.28 346.54 273.27 343.58 273.39 340.64 C 276.87 340.67 280.35 340.52 283.81 340.10 C 292.09 339.18 300.50 340.09 308.73 338.66 C 308.55 334.26 308.86 329.85 308.36 325.46 C 298.88 325.34 289.48 326.57 280.01 326.73 M 201.33 331.53 C 201.14 333.02 200.78 334.52 201.01 336.04 C 202.40 348.66 202.22 361.38 203.45 374.02 C 203.65 378.02 203.49 382.05 203.98 386.04 C 204.25 387.20 204.08 389.49 205.91 389.31 C 209.83 389.69 213.75 388.98 217.63 388.44 C 217.48 373.76 215.76 359.15 215.41 344.47 C 222.90 343.48 230.49 343.41 238.04 343.26 C 242.84 342.33 243.34 351.26 238.89 351.53 C 233.45 351.79 228.00 351.92 222.59 352.58 C 221.06 357.36 218.99 362.01 218.28 367.01 C 221.70 369.05 224.10 372.32 227.19 374.80 C 231.74 378.69 235.27 383.61 239.84 387.48 C 244.92 387.37 249.98 386.82 255.06 386.47 C 256.17 386.52 257.06 385.87 257.91 385.26 C 250.53 378.92 244.06 371.52 236.17 365.77 C 240.58 364.77 245.20 364.03 248.93 361.27 C 257.55 355.94 257.76 342.76 251.55 335.50 C 247.54 330.17 240.33 328.71 234.02 329.49 C 223.16 330.74 212.17 330.07 201.33 331.53 Z" />
</g>
</svg>
